<?xml version="1.0" encoding="utf-8" standalone="no"?>
<!DOCTYPE svg PUBLIC "-//W3C//DTD SVG 1.1//EN"
  "http://www.w3.org/Graphics/SVG/1.1/DTD/svg11.dtd">
<!-- Created with matplotlib (https://matplotlib.org/) -->
<svg height="720pt" version="1.1" viewBox="0 0 720 720" width="720pt" xmlns="http://www.w3.org/2000/svg" xmlns:xlink="http://www.w3.org/1999/xlink">
 <metadata>
  <rdf:RDF xmlns:cc="http://creativecommons.org/ns#" xmlns:dc="http://purl.org/dc/elements/1.1/" xmlns:rdf="http://www.w3.org/1999/02/22-rdf-syntax-ns#">
   <cc:Work>
    <dc:type rdf:resource="http://purl.org/dc/dcmitype/StillImage"/>
    <dc:date>2021-05-28T08:56:51.701841</dc:date>
    <dc:format>image/svg+xml</dc:format>
    <dc:creator>
     <cc:Agent>
      <dc:title>Matplotlib v3.3.3, https://matplotlib.org/</dc:title>
     </cc:Agent>
    </dc:creator>
   </cc:Work>
  </rdf:RDF>
 </metadata>
 <defs>
  <style type="text/css">*{stroke-linecap:butt;stroke-linejoin:round;}</style>
 </defs>
 <g id="figure_1">
  <g id="patch_1">
   <path d="M 0 720 
L 720 720 
L 720 0 
L 0 0 
z
" style="fill:none;"/>
  </g>
  <g id="axes_1">
   <g id="patch_2">
    <path clip-path="url(#p7424b17a16)" d="M 570.334904 133.107434 
L 570.411003 244.979841 
L 598.810332 244.939814 
L 630.899358 244.904667 
L 630.900253 291.207179 
L 630.90051 357.507022 
L 630.899211 408.003179 
L 630.904745 453.949439 
L 630.904762 470.211826 
L 630.901154 565.885723 
L 630.902182 582.946863 
L 575.22695 583.037347 
L 570.048118 583.046911 
L 568.815957 583.048572 
L 568.757272 583.048646 
L 510.020959 583.159349 
L 503.847128 583.171826 
L 452.188619 583.292566 
L 481.659786 359.478453 
L 372.00806 358.223608 
L 239.697821 357.906548 
L 173.419315 358.733748 
L 107.095238 358.871177 
L 107.115245 134.502018 
L 173.398659 134.068116 
L 238.794121 133.643869 
L 240.435538 133.63376 
L 240.435752 134.359304 
L 274.651718 134.154063 
L 305.759267 133.97393 
L 339.284521 133.780574 
L 371.100351 133.60676 
L 404.657635 133.491767 
L 427.425516 133.415152 
L 438.106704 133.37994 
L 470.478814 133.273049 
L 503.58267 133.169884 
L 531.160356 133.137428 
L 570.334904 133.107434 
" style="fill:#1a1a1a;stroke:#ffffff;stroke-linejoin:miter;stroke-width:4;"/>
   </g>
  </g>
 </g>
 <defs>
  <clipPath id="p7424b17a16">
   <rect height="543.6" width="558" x="90" y="86.4"/>
  </clipPath>
 </defs>
</svg>
