<?xml version="1.0" encoding="utf-8" standalone="no"?>
<!DOCTYPE svg PUBLIC "-//W3C//DTD SVG 1.1//EN"
  "http://www.w3.org/Graphics/SVG/1.1/DTD/svg11.dtd">
<!-- Created with matplotlib (https://matplotlib.org/) -->
<svg height="720pt" version="1.1" viewBox="0 0 720 720" width="720pt" xmlns="http://www.w3.org/2000/svg" xmlns:xlink="http://www.w3.org/1999/xlink">
 <metadata>
  <rdf:RDF xmlns:cc="http://creativecommons.org/ns#" xmlns:dc="http://purl.org/dc/elements/1.1/" xmlns:rdf="http://www.w3.org/1999/02/22-rdf-syntax-ns#">
   <cc:Work>
    <dc:type rdf:resource="http://purl.org/dc/dcmitype/StillImage"/>
    <dc:date>2021-05-28T08:56:47.122040</dc:date>
    <dc:format>image/svg+xml</dc:format>
    <dc:creator>
     <cc:Agent>
      <dc:title>Matplotlib v3.3.3, https://matplotlib.org/</dc:title>
     </cc:Agent>
    </dc:creator>
   </cc:Work>
  </rdf:RDF>
 </metadata>
 <defs>
  <style type="text/css">*{stroke-linecap:butt;stroke-linejoin:round;}</style>
 </defs>
 <g id="figure_1">
  <g id="patch_1">
   <path d="M 0 720 
L 720 720 
L 720 0 
L 0 0 
z
" style="fill:none;"/>
  </g>
  <g id="axes_1">
   <g id="patch_2">
    <path clip-path="url(#pcebea719c0)" d="M 414.192452 547.045324 
L 414.062317 569.301 
L 408.932875 569.290154 
L 376.684456 569.265405 
L 370.575841 569.266037 
L 370.575705 569.346124 
L 370.573647 570.505028 
L 364.155859 570.510833 
L 333.728631 570.488358 
L 333.672965 583.527768 
L 280.845302 583.491536 
L 280.867389 571.571294 
L 244.719111 571.556527 
L 237.966904 570.832608 
L 232.08363 570.831923 
L 199.304233 570.823676 
L 184.696052 570.826173 
L 184.495921 570.448687 
L 181.901232 565.554583 
L 172.604725 540.421204 
L 169.319425 528.96778 
L 166.305065 516.665815 
L 164.655414 506.484674 
L 162.456829 493.546156 
L 161.26064 471.723702 
L 161.158657 441.124117 
L 163.191252 405.527449 
L 164.567021 395.047017 
L 170.563615 372.052482 
L 175.862978 348.019223 
L 180.485794 336.544162 
L 185.060134 316.724506 
L 187.782681 302.417066 
L 189.440996 290.009546 
L 190.634943 273.001388 
L 190.710361 264.234396 
L 190.113204 255.054002 
L 189.582165 246.828022 
L 186.057799 213.705925 
L 186.590823 199.809158 
L 189.457627 186.529922 
L 194.426796 174.977425 
L 202.543586 162.020718 
L 208.568032 153.814591 
L 218.527213 143.988171 
L 231.604503 133.044775 
L 251.975948 133.037312 
L 328.282573 132.872232 
L 280.453876 167.178741 
L 253.928516 247.972438 
L 353.361993 315.606217 
L 364.301471 323.042339 
L 411.591482 355.212526 
L 411.510985 376.871183 
L 556.462317 466.645501 
L 569.712218 474.85257 
L 576.841343 479.2682 
L 561.115139 485.81582 
L 419.39448 544.829789 
L 414.192452 547.045324 
" style="fill:#1a1a1a;stroke:#ffffff;stroke-linejoin:miter;stroke-width:4;"/>
   </g>
  </g>
 </g>
 <defs>
  <clipPath id="pcebea719c0">
   <rect height="543.6" width="558" x="90" y="86.4"/>
  </clipPath>
 </defs>
</svg>
