<?xml version="1.0" encoding="utf-8" standalone="no"?>
<!DOCTYPE svg PUBLIC "-//W3C//DTD SVG 1.1//EN"
  "http://www.w3.org/Graphics/SVG/1.1/DTD/svg11.dtd">
<!-- Created with matplotlib (https://matplotlib.org/) -->
<svg height="720pt" version="1.1" viewBox="0 0 720 720" width="720pt" xmlns="http://www.w3.org/2000/svg" xmlns:xlink="http://www.w3.org/1999/xlink">
 <metadata>
  <rdf:RDF xmlns:cc="http://creativecommons.org/ns#" xmlns:dc="http://purl.org/dc/elements/1.1/" xmlns:rdf="http://www.w3.org/1999/02/22-rdf-syntax-ns#">
   <cc:Work>
    <dc:type rdf:resource="http://purl.org/dc/dcmitype/StillImage"/>
    <dc:date>2021-05-28T08:56:44.919034</dc:date>
    <dc:format>image/svg+xml</dc:format>
    <dc:creator>
     <cc:Agent>
      <dc:title>Matplotlib v3.3.3, https://matplotlib.org/</dc:title>
     </cc:Agent>
    </dc:creator>
   </cc:Work>
  </rdf:RDF>
 </metadata>
 <defs>
  <style type="text/css">*{stroke-linecap:butt;stroke-linejoin:round;}</style>
 </defs>
 <g id="figure_1">
  <g id="patch_1">
   <path d="M 0 720 
L 720 720 
L 720 0 
L 0 0 
z
" style="fill:none;"/>
  </g>
  <g id="axes_1">
   <g id="patch_2">
    <path clip-path="url(#p1530fadae7)" d="M 543.577091 452.863066 
L 543.865977 457.908375 
L 543.87347 463.674789 
L 543.741839 471.003028 
L 547.317381 479.057811 
L 547.311878 492.088637 
L 547.31882 493.9918 
L 444.216976 493.848522 
L 310.213553 493.98234 
L 248.122571 494.046482 
L 248.125318 492.104974 
L 248.120913 457.967618 
L 234.171106 457.96922 
L 219.941301 459.832149 
L 209.81325 459.835535 
L 190.68118 459.879592 
L 195.134009 455.263745 
L 202.244069 449.001053 
L 213.878814 438.712387 
L 226.069254 429.01891 
L 238.076618 420.517133 
L 298.858931 380.986915 
L 314.56283 370.694509 
L 334.14525 356.82383 
L 355.204851 341.164608 
L 370.536154 328.48993 
L 381.618015 318.500381 
L 393.620271 305.382333 
L 412.639482 284.512955 
L 428.701287 264.540186 
L 443.282543 243.526485 
L 456.370278 222.353518 
L 471.629002 228.626838 
L 475.574906 230.238359 
L 487.852538 235.264859 
L 517.959025 270.329089 
L 520.943596 273.769308 
L 504.974242 283.807859 
L 513.166681 293.437342 
L 519.349366 302.580751 
L 523.953484 311.786622 
L 526.621856 322.153164 
L 527.355854 334.778373 
L 526.578022 343.501317 
L 524.792417 349.785435 
L 520.278485 354.608236 
L 520.322486 359.484218 
L 519.473647 367.932651 
L 519.10227 376.218201 
L 519.305629 378.313342 
L 519.780262 383.203092 
L 521.700278 390.105647 
L 524.003667 397.901247 
L 527.983265 404.343776 
L 530.814559 410.107546 
L 533.36255 415.15075 
L 535.486764 420.074218 
L 537.18667 424.397431 
L 538.32085 428.000385 
L 539.739301 433.044624 
L 541.299228 438.32905 
L 542.152265 442.893307 
L 543.146829 447.69771 
L 543.577091 452.863066 
" style="fill:#1a1a1a;stroke:#ffffff;stroke-linejoin:miter;stroke-width:4;"/>
   </g>
  </g>
 </g>
 <defs>
  <clipPath id="p1530fadae7">
   <rect height="543.6" width="558" x="90" y="86.4"/>
  </clipPath>
 </defs>
</svg>
