<?xml version="1.0" encoding="utf-8" standalone="no"?>
<!DOCTYPE svg PUBLIC "-//W3C//DTD SVG 1.1//EN"
  "http://www.w3.org/Graphics/SVG/1.1/DTD/svg11.dtd">
<!-- Created with matplotlib (https://matplotlib.org/) -->
<svg height="720pt" version="1.1" viewBox="0 0 720 720" width="720pt" xmlns="http://www.w3.org/2000/svg" xmlns:xlink="http://www.w3.org/1999/xlink">
 <metadata>
  <rdf:RDF xmlns:cc="http://creativecommons.org/ns#" xmlns:dc="http://purl.org/dc/elements/1.1/" xmlns:rdf="http://www.w3.org/1999/02/22-rdf-syntax-ns#">
   <cc:Work>
    <dc:type rdf:resource="http://purl.org/dc/dcmitype/StillImage"/>
    <dc:date>2021-05-28T08:56:46.911962</dc:date>
    <dc:format>image/svg+xml</dc:format>
    <dc:creator>
     <cc:Agent>
      <dc:title>Matplotlib v3.3.3, https://matplotlib.org/</dc:title>
     </cc:Agent>
    </dc:creator>
   </cc:Work>
  </rdf:RDF>
 </metadata>
 <defs>
  <style type="text/css">*{stroke-linecap:butt;stroke-linejoin:round;}</style>
 </defs>
 <g id="figure_1">
  <g id="patch_1">
   <path d="M 0 720 
L 720 720 
L 720 0 
L 0 0 
z
" style="fill:none;"/>
  </g>
  <g id="axes_1">
   <g id="patch_2">
    <path clip-path="url(#p21483cc920)" d="M 541.72514 255.511233 
L 540.943924 265.94128 
L 540.492133 265.88221 
L 538.867726 265.63472 
L 536.997422 265.321776 
L 535.447106 264.993694 
L 533.847881 264.681909 
L 531.92766 264.433629 
L 530.056043 264.233719 
L 528.38221 264.018418 
L 527.224896 263.853139 
L 525.773151 263.590309 
L 523.927949 263.228931 
L 522.352917 262.916819 
L 520.604512 262.749958 
L 519.1762 262.64851 
L 517.452041 262.481637 
L 516.146923 262.396679 
L 514.373737 262.229548 
L 512.550733 262.127015 
L 510.950184 261.960427 
L 509.152355 261.825438 
L 507.599537 261.820855 
L 505.702351 261.766475 
L 504.494877 261.778576 
L 502.74604 261.692595 
L 501.359098 261.671684 
L 500.971564 261.654706 
L 499.197171 261.681452 
L 497.421538 261.837466 
L 495.745166 261.913191 
L 494.117799 261.972651 
L 492.268831 262.079994 
L 490.56855 262.042388 
L 489.091222 261.876377 
L 487.366272 261.88718 
L 485.590993 261.978566 
L 484.059644 262.410177 
L 482.456139 262.582976 
L 480.856874 262.287101 
L 479.184705 261.829525 
L 477.437138 261.565574 
L 475.637107 261.64074 
L 474.034466 261.732703 
L 472.260122 261.759429 
L 470.80581 261.803551 
L 469.449518 261.8963 
L 467.673889 262.052327 
L 466.07172 262.095866 
L 464.346285 262.10668 
L 462.422745 262.294634 
L 460.597647 262.48285 
L 458.795576 262.849036 
L 457.14097 263.247933 
L 455.462495 263.565973 
L 453.588427 263.721745 
L 452.453775 263.83128 
L 450.924934 263.988131 
L 449.592541 264.145507 
L 448.284918 264.367821 
L 446.457699 264.782422 
L 444.802768 265.261878 
L 443.518993 265.548813 
L 441.596279 265.623779 
L 440.29068 265.50669 
L 438.689798 265.420972 
L 436.989072 265.448022 
L 435.212609 265.701175 
L 433.508633 266.164426 
L 431.804572 266.563044 
L 430.224683 266.94599 
L 428.448104 267.182908 
L 426.647753 267.33897 
L 425.141549 267.738432 
L 423.559491 268.347472 
L 422.00341 268.762884 
L 420.42339 269.081201 
L 418.818704 269.447928 
L 417.312531 269.831155 
L 415.658355 270.213832 
L 414.003396 270.661462 
L 412.373184 271.157155 
L 410.671276 271.345961 
L 409.017087 271.680277 
L 407.235219 272.628145 
L 405.584459 272.590579 
L 404.161912 271.729807 
L 402.394161 270.8842 
L 400.521691 270.813621 
L 398.721298 270.969695 
L 397.118366 271.158768 
L 395.458 272.300821 
L 394.907498 273.333369 
L 395.070972 274.481394 
L 395.529819 275.630201 
L 393.802837 275.883345 
L 392.341894 276.783942 
L 390.584799 277.715629 
L 388.832995 277.936632 
L 387.180912 278.02831 
L 385.502533 278.395094 
L 383.96659 279.375973 
L 382.453309 280.615692 
L 380.847033 281.224733 
L 379.172343 281.057925 
L 377.318771 281.714839 
L 376.817376 282.796074 
L 375.206103 284.003091 
L 373.375201 284.886371 
L 372.356296 285.933525 
L 371.141789 286.850892 
L 369.535853 287.346876 
L 367.831478 287.842664 
L 366.147651 288.82332 
L 366.63129 290.004267 
L 366.206053 290.778847 
L 364.526854 291.242114 
L 362.65029 291.70518 
L 361.703873 292.914356 
L 360.146639 293.555852 
L 358.240352 294.61656 
L 357.393701 295.728855 
L 356.695377 296.761177 
L 355.822764 298.034944 
L 356.553979 299.08775 
L 354.942251 300.294744 
L 353.110609 301.323252 
L 351.499327 302.498122 
L 350.331754 303.674288 
L 348.746065 304.76824 
L 347.138527 305.490356 
L 345.971376 306.618128 
L 344.730474 307.713149 
L 343.438832 308.969658 
L 342.590971 310.211256 
L 341.695713 311.226793 
L 341.268032 312.324227 
L 340.176754 313.258054 
L 338.516888 314.352087 
L 338.13777 315.498206 
L 337.685429 316.644019 
L 337.331114 317.80668 
L 337.200959 318.71099 
L 336.329972 319.774941 
L 335.606082 320.887804 
L 335.621738 322.067436 
L 335.716464 322.536402 
L 335.708249 323.60302 
L 335.648809 324.831093 
L 335.78722 326.027208 
L 335.803758 327.110048 
L 335.917344 328.273702 
L 336.154167 329.486633 
L 336.762259 330.538904 
L 337.811872 331.770132 
L 339.108724 332.953805 
L 340.799788 334.122596 
L 342.345505 334.999796 
L 343.79436 335.65071 
L 345.462362 336.59314 
L 346.881956 337.825775 
L 347.884229 338.846896 
L 349.502828 339.869911 
L 350.976806 340.423703 
L 352.549261 341.042707 
L 354.463216 342.066472 
L 355.835471 343.088999 
L 357.601915 344.08009 
L 359.224621 344.537643 
L 360.823454 344.91402 
L 362.742744 345.275531 
L 364.391856 345.506693 
L 366.16536 345.641629 
L 367.889429 345.760038 
L 369.317282 345.925745 
L 370.96678 346.157196 
L 372.863873 346.211509 
L 374.465588 346.216327 
L 376.264222 346.254143 
L 378.085911 346.486165 
L 379.959084 346.459591 
L 381.534834 346.625853 
L 383.331791 346.857573 
L 385.056696 346.879198 
L 386.60939 346.851575 
L 387.743931 346.74202 
L 389.472144 346.343368 
L 391.199939 345.993112 
L 392.826803 345.949496 
L 394.648137 346.278317 
L 396.39358 346.784846 
L 397.919421 347.015777 
L 399.668216 347.134186 
L 401.466848 347.171982 
L 402.872063 347.095418 
L 404.618778 347.504841 
L 406.191631 348.042995 
L 407.64253 348.40289 
L 409.487701 348.828814 
L 411.208428 349.351284 
L 412.953464 349.922136 
L 414.404377 350.330779 
L 415.977246 350.885176 
L 417.449087 351.713767 
L 418.745801 352.849103 
L 418.715035 353.772457 
L 420.043763 354.917327 
L 421.792822 356.00111 
L 423.641712 357.004952 
L 425.270357 357.974535 
L 426.808289 358.555383 
L 428.681903 359.5595 
L 429.669995 360.539005 
L 430.435064 361.58133 
L 431.028036 362.621844 
L 431.867785 363.632288 
L 433.074276 364.759371 
L 434.648415 365.955047 
L 435.289895 367.012091 
L 436.253733 367.99158 
L 437.438689 368.972885 
L 438.004165 370.126445 
L 438.322395 371.358471 
L 439.403414 372.581464 
L 440.66214 373.579602 
L 441.722553 374.624626 
L 442.018324 375.743318 
L 442.388754 376.81389 
L 443.052655 378.000825 
L 443.619051 379.12191 
L 444.334711 380.179549 
L 445.124541 381.222182 
L 445.692766 382.262394 
L 445.857109 382.635805 
L 446.276974 383.690748 
L 446.598445 384.777268 
L 446.967917 385.896555 
L 447.33653 387.064238 
L 447.584689 388.117687 
L 448.053569 389.205397 
L 448.350751 390.259423 
L 448.674425 391.216388 
L 449.119943 392.239446 
L 449.488554 393.407161 
L 449.816819 394.170159 
L 450.335599 395.22632 
L 450.803085 396.362744 
L 451.31954 397.531617 
L 452.277367 398.753728 
L 452.918867 399.843283 
L 453.361641 400.995323 
L 454.150991 402.053877 
L 454.72143 402.98106 
L 455.163739 404.149658 
L 455.679283 405.367245 
L 456.047422 406.551168 
L 456.565267 407.639487 
L 456.415549 408.867005 
L 456.24342 410.013346 
L 456.836359 411.053864 
L 457.129401 412.285588 
L 456.930708 413.512496 
L 457.596907 414.586054 
L 458.040532 415.689731 
L 458.55793 416.810495 
L 459.050598 417.931019 
L 459.592261 419.068039 
L 459.985054 420.236029 
L 460.232342 421.337843 
L 460.452997 422.504051 
L 460.723623 423.654566 
L 461.241017 424.775395 
L 461.807336 425.89645 
L 462.499626 426.905742 
L 463.362197 427.981132 
L 464.343821 429.251629 
L 465.424361 430.523344 
L 466.068045 431.483281 
L 466.485609 432.651576 
L 466.56029 433.767847 
L 466.784585 434.75636 
L 467.006673 435.874458 
L 467.211296 436.652493 
L 467.603244 437.885149 
L 467.971367 439.06904 
L 468.339905 440.236757 
L 468.537262 441.354202 
L 468.559695 442.599452 
L 468.583546 443.780068 
L 468.731859 444.881015 
L 469.124219 446.09772 
L 469.619147 447.104864 
L 470.262428 448.097279 
L 470.783454 449.040094 
L 471.185913 449.787802 
L 471.876775 450.82919 
L 472.543364 451.886576 
L 473.210887 452.879265 
L 474.00159 453.889459 
L 474.396247 454.976545 
L 474.493748 456.157756 
L 474.568423 457.274347 
L 474.717174 458.342819 
L 475.012955 459.461513 
L 475.653904 460.567278 
L 476.439079 461.803502 
L 476.982085 462.875891 
L 477.525091 463.94828 
L 478.09603 464.875467 
L 478.712715 465.932213 
L 479.061058 466.906011 
L 479.430073 468.041221 
L 479.826136 469.09615 
L 480.099412 470.101191 
L 480.620446 471.060246 
L 480.941393 472.146769 
L 481.213319 473.232684 
L 481.507723 474.415695 
L 481.827762 475.550615 
L 481.910584 476.262811 
L 481.912458 477.330092 
L 481.863435 478.445479 
L 481.73934 479.624586 
L 481.641366 480.755601 
L 481.444082 481.917843 
L 481.074135 483.078621 
L 480.657049 484.157918 
L 480.240456 485.205025 
L 479.674087 486.363685 
L 479.084436 487.441487 
L 478.473304 488.405922 
L 478.005394 489.549563 
L 477.56038 490.774031 
L 476.948274 491.770656 
L 476.209807 492.91187 
L 475.549615 493.843252 
L 474.368461 494.979972 
L 472.621884 496.062852 
L 471.688397 497.121077 
L 470.829955 498.131851 
L 469.774732 499.124238 
L 468.445187 500.27569 
L 467.090522 501.459282 
L 465.614072 502.577036 
L 464.386629 503.567962 
L 462.914312 504.507734 
L 461.734987 505.547665 
L 460.680652 506.507578 
L 459.601127 507.483744 
L 458.418554 508.668865 
L 457.238792 509.740924 
L 457.177646 509.773913 
L 455.470737 510.694271 
L 454.068025 511.829181 
L 453.741095 512.133113 
L 452.515105 513.075296 
L 450.815258 514.271858 
L 449.04215 515.467794 
L 447.224601 516.420536 
L 445.308254 517.421063 
L 443.400102 518.017228 
L 441.511597 518.840077 
L 440.117576 519.57063 
L 438.411316 519.942215 
L 436.826822 520.363719 
L 434.91596 521.105395 
L 433.15245 521.848579 
L 431.588583 522.464292 
L 430.080993 522.741205 
L 428.524432 523.017191 
L 426.601163 523.176825 
L 424.949838 523.290488 
L 423.198255 523.483806 
L 421.447577 523.629016 
L 420.165698 523.729732 
L 418.713087 523.748401 
L 416.920741 523.553276 
L 415.348588 523.408967 
L 413.554388 523.278828 
L 411.909924 523.085212 
L 410.14414 522.777364 
L 408.590269 522.924089 
L 407.138584 522.910286 
L 406.621277 522.93765 
L 404.922769 522.937651 
L 403.201848 522.856507 
L 401.89888 522.779546 
L 400.031464 522.648501 
L 398.164489 522.485268 
L 396.322219 522.305782 
L 394.695161 522.436 
L 393.072182 522.355758 
L 391.268379 521.546442 
L 389.597353 521.433436 
L 388.052657 521.159855 
L 386.605511 520.91968 
L 384.989847 520.516238 
L 383.473101 520.081536 
L 381.758567 519.709356 
L 380.140609 519.403059 
L 378.569375 519.226288 
L 376.933589 518.612404 
L 375.654442 518.584184 
L 373.846065 517.984731 
L 372.402523 517.582785 
L 370.711302 517.243422 
L 368.871778 516.950919 
L 367.201698 516.789495 
L 365.533375 516.530992 
L 363.817446 516.207535 
L 362.248523 515.917741 
L 360.604487 515.691989 
L 358.688968 515.495722 
L 356.775256 515.202633 
L 355.575289 514.932363 
L 353.983926 514.545476 
L 352.466677 514.142976 
L 350.874339 513.788248 
L 349.404303 513.483118 
L 347.884761 513.177731 
L 346.143194 512.902374 
L 344.598994 512.61289 
L 342.764919 512.061544 
L 340.95784 511.397791 
L 339.05601 510.55484 
L 337.29797 509.907615 
L 335.631463 509.568221 
L 333.881559 508.532873 
L 332.341908 508.033253 
L 330.409005 507.513493 
L 328.818874 507.045744 
L 327.328655 506.530177 
L 325.812342 506.07926 
L 324.000694 505.625337 
L 322.262376 505.220722 
L 320.469562 505.025961 
L 318.876427 504.735913 
L 317.036443 504.443435 
L 315.193753 504.296466 
L 313.5736 504.103195 
L 311.761093 503.697993 
L 310.163379 503.601852 
L 308.589443 503.554698 
L 307.038849 503.555926 
L 306.423086 503.566488 
L 304.609653 503.193479 
L 303.006946 503.339927 
L 301.460442 503.147254 
L 299.601272 502.62842 
L 298.06219 503.228253 
L 296.544965 502.825744 
L 294.954501 502.406437 
L 293.256969 502.357772 
L 291.335563 502.436602 
L 289.542326 502.290283 
L 287.919441 502.226293 
L 286.196255 502.242281 
L 284.547208 502.226417 
L 282.800679 502.193706 
L 281.54537 502.197979 
L 279.996648 502.118664 
L 278.399782 501.97414 
L 276.632612 501.747226 
L 275.010165 501.650764 
L 273.080861 500.953369 
L 271.1719 501.598334 
L 269.636475 502.036401 
L 268.21677 501.683226 
L 266.381855 501.180949 
L 264.858688 501.036991 
L 263.133677 501.133893 
L 261.456372 501.328164 
L 259.78308 501.311975 
L 258.010436 501.32772 
L 256.557807 501.346132 
L 255.497533 501.433043 
L 253.651699 501.431928 
L 252.154644 501.239595 
L 250.679133 501.193358 
L 249.028285 501.27462 
L 247.46957 501.664029 
L 245.885595 502.053422 
L 244.377651 502.378486 
L 242.821588 502.62239 
L 241.019259 502.896345 
L 239.386775 503.268928 
L 238.051862 503.547401 
L 236.278322 503.61152 
L 234.628449 503.66063 
L 232.82792 503.837478 
L 231.691203 504.036867 
L 230.183264 504.361904 
L 228.475262 504.814775 
L 226.56953 505.298017 
L 225.183366 505.672999 
L 223.279432 506.091258 
L 221.475264 506.429889 
L 219.918795 506.722485 
L 218.362303 506.998875 
L 216.60757 507.321558 
L 215.051128 507.597949 
L 213.199813 507.855392 
L 211.274798 508.111928 
L 210.087732 508.359432 
L 208.159586 508.761508 
L 206.356347 509.067638 
L 204.502777 509.438148 
L 202.699539 509.744598 
L 202.057715 509.835428 
L 200.402776 510.094695 
L 198.752012 510.192185 
L 197.695387 510.117398 
L 196.19513 510.054642 
L 194.397403 510.118509 
L 192.83956 510.459512 
L 192.035034 510.660453 
L 192.533336 484.253779 
L 192.687072 481.125798 
L 192.680138 449.592925 
L 192.65353 431.948263 
L 192.672645 415.614775 
L 192.311203 398.945723 
L 192.665204 382.230687 
L 192.31847 365.675199 
L 192.65832 350.962922 
L 192.372235 335.32166 
L 192.374789 331.800691 
L 192.652135 319.348051 
L 192.65128 314.963542 
L 192.649084 303.700307 
L 192.648001 298.17777 
L 192.64591 287.707682 
L 192.644682 281.364459 
L 192.642825 271.872662 
L 192.64142 264.557613 
L 192.63974 256.103996 
L 192.638122 247.758791 
L 192.636714 240.244112 
L 192.634936 230.937779 
L 192.633669 224.306382 
L 192.631808 214.35292 
L 192.630749 208.616586 
L 192.628334 195.959311 
L 193.579014 192.725343 
L 293.858783 192.700649 
L 377.861747 192.682341 
L 463.071866 192.665834 
L 545.964966 192.651599 
L 544.090604 219.797511 
L 543.772867 224.399494 
L 542.23481 248.308235 
L 541.72514 255.511233 
" style="fill:#1a1a1a;stroke:#ffffff;stroke-linejoin:miter;stroke-width:4;"/>
   </g>
  </g>
 </g>
 <defs>
  <clipPath id="p21483cc920">
   <rect height="543.6" width="558" x="90" y="86.4"/>
  </clipPath>
 </defs>
</svg>
