<?xml version="1.0" encoding="utf-8" standalone="no"?>
<!DOCTYPE svg PUBLIC "-//W3C//DTD SVG 1.1//EN"
  "http://www.w3.org/Graphics/SVG/1.1/DTD/svg11.dtd">
<!-- Created with matplotlib (https://matplotlib.org/) -->
<svg height="720pt" version="1.1" viewBox="0 0 720 720" width="720pt" xmlns="http://www.w3.org/2000/svg" xmlns:xlink="http://www.w3.org/1999/xlink">
 <metadata>
  <rdf:RDF xmlns:cc="http://creativecommons.org/ns#" xmlns:dc="http://purl.org/dc/elements/1.1/" xmlns:rdf="http://www.w3.org/1999/02/22-rdf-syntax-ns#">
   <cc:Work>
    <dc:type rdf:resource="http://purl.org/dc/dcmitype/StillImage"/>
    <dc:date>2021-05-28T08:56:51.770517</dc:date>
    <dc:format>image/svg+xml</dc:format>
    <dc:creator>
     <cc:Agent>
      <dc:title>Matplotlib v3.3.3, https://matplotlib.org/</dc:title>
     </cc:Agent>
    </dc:creator>
   </cc:Work>
  </rdf:RDF>
 </metadata>
 <defs>
  <style type="text/css">*{stroke-linecap:butt;stroke-linejoin:round;}</style>
 </defs>
 <g id="figure_1">
  <g id="patch_1">
   <path d="M 0 720 
L 720 720 
L 720 0 
L 0 0 
z
" style="fill:none;"/>
  </g>
  <g id="axes_1">
   <g id="patch_2">
    <path clip-path="url(#p22e5f8d784)" d="M 454.7583 235.715393 
L 459.134057 235.943002 
L 464.619754 235.937652 
L 469.255782 235.295441 
L 474.478903 234.073028 
L 482.573993 231.456556 
L 499.090752 226.165445 
L 507.055995 224.18688 
L 512.802031 223.311868 
L 519.071294 223.132018 
L 525.406502 223.58983 
L 533.83283 225.263056 
L 545.264912 228.498724 
L 551.797012 229.88394 
L 556.695912 230.748975 
L 562.44353 231.381354 
L 570.084776 231.780127 
L 579.329507 232.210391 
L 579.183987 241.447012 
L 579.157882 244.698963 
L 579.128919 248.536228 
L 579.07834 253.208961 
L 578.805143 256.419708 
L 578.812231 259.411079 
L 578.610044 274.060968 
L 578.411483 292.014255 
L 578.00777 328.517114 
L 577.747594 352.046213 
L 577.015233 418.281203 
L 576.349667 478.487463 
L 576.44604 488.577698 
L 576.529695 497.339259 
L 576.794078 516.471525 
L 576.857428 527.142848 
L 568.383848 527.351431 
L 563.219347 527.565706 
L 562.108521 527.707245 
L 560.979264 527.814231 
L 559.646585 527.794268 
L 558.266962 527.719692 
L 547.666296 523.573491 
L 534.539325 518.439292 
L 475.439177 495.233371 
L 462.950467 490.330078 
L 450.884955 486.556079 
L 445.187629 485.462648 
L 425.163405 481.586104 
L 399.949921 480.411307 
L 386.75739 479.796742 
L 363.889727 479.843264 
L 334.280556 480.093519 
L 313.96851 479.920384 
L 311.625069 480.074711 
L 297.3163 479.838769 
L 294.341991 479.829513 
L 277.856546 479.775061 
L 262.35312 479.51573 
L 258.640887 477.910228 
L 247.222334 469.164117 
L 236.39072 460.867829 
L 224.646906 452.897409 
L 189.427571 428.995446 
L 178.068933 420.584605 
L 166.211398 411.804539 
L 158.670493 406.220861 
L 171.867755 389.572684 
L 188.608218 367.979834 
L 280.329773 253.752869 
L 287.122447 243.605838 
L 293.304556 230.978491 
L 303.967517 205.509919 
L 310.190443 188.585769 
L 316.257596 192.668625 
L 328.54461 200.30775 
L 332.465818 202.622437 
L 337.236234 205.11017 
L 342.006085 207.134138 
L 349.323473 209.677216 
L 364.611474 214.878718 
L 372.091649 217.073902 
L 376.598696 217.822888 
L 382.477186 218.570518 
L 395.604828 219.426713 
L 399.980938 219.886067 
L 404.683876 220.634926 
L 411.314351 222.208431 
L 425.403044 226.929993 
L 436.33656 230.922006 
L 443.392223 233.233836 
L 449.794067 234.8507 
L 454.7583 235.715393 
" style="fill:#1a1a1a;stroke:#ffffff;stroke-linejoin:miter;stroke-width:4;"/>
   </g>
  </g>
 </g>
 <defs>
  <clipPath id="p22e5f8d784">
   <rect height="543.6" width="558" x="90" y="86.4"/>
  </clipPath>
 </defs>
</svg>
