<?xml version="1.0" encoding="utf-8" standalone="no"?>
<!DOCTYPE svg PUBLIC "-//W3C//DTD SVG 1.1//EN"
  "http://www.w3.org/Graphics/SVG/1.1/DTD/svg11.dtd">
<!-- Created with matplotlib (https://matplotlib.org/) -->
<svg height="720pt" version="1.1" viewBox="0 0 720 720" width="720pt" xmlns="http://www.w3.org/2000/svg" xmlns:xlink="http://www.w3.org/1999/xlink">
 <metadata>
  <rdf:RDF xmlns:cc="http://creativecommons.org/ns#" xmlns:dc="http://purl.org/dc/elements/1.1/" xmlns:rdf="http://www.w3.org/1999/02/22-rdf-syntax-ns#">
   <cc:Work>
    <dc:type rdf:resource="http://purl.org/dc/dcmitype/StillImage"/>
    <dc:date>2021-05-28T08:56:49.640146</dc:date>
    <dc:format>image/svg+xml</dc:format>
    <dc:creator>
     <cc:Agent>
      <dc:title>Matplotlib v3.3.3, https://matplotlib.org/</dc:title>
     </cc:Agent>
    </dc:creator>
   </cc:Work>
  </rdf:RDF>
 </metadata>
 <defs>
  <style type="text/css">*{stroke-linecap:butt;stroke-linejoin:round;}</style>
 </defs>
 <g id="figure_1">
  <g id="patch_1">
   <path d="M 0 720 
L 720 720 
L 720 0 
L 0 0 
z
" style="fill:none;"/>
  </g>
  <g id="axes_1">
   <g id="patch_2">
    <path clip-path="url(#p0e598edd8c)" d="M 387.918102 166.078785 
L 400.953954 166.619863 
L 409.089275 166.046185 
L 420.299856 166.029108 
L 430.899255 166.013092 
L 437.388521 166.003354 
L 441.324086 165.99746 
L 451.52291 165.982259 
L 462.577299 165.965921 
L 473.290409 165.950217 
L 473.359728 206.310557 
L 473.3752 220.197948 
L 473.404066 237.137912 
L 473.544091 241.729943 
L 475.023288 246.695307 
L 475.02737 249.9175 
L 483.100271 249.929325 
L 497.945466 306.071011 
L 508.541474 315.095042 
L 506.838676 326.810222 
L 507.55903 329.094818 
L 508.798068 331.24706 
L 510.700668 332.286216 
L 514.71901 332.887378 
L 517.204508 333.260707 
L 520.337906 343.640201 
L 520.046788 343.991915 
L 519.346996 344.873224 
L 518.774411 345.585555 
L 518.297317 346.201469 
L 517.534084 347.046159 
L 516.781175 347.999989 
L 516.134651 348.748447 
L 515.593516 349.521546 
L 514.978271 350.366956 
L 514.23608 351.23591 
L 513.43068 352.092582 
L 512.647107 352.743479 
L 511.969103 353.394726 
L 511.3649 354.070635 
L 510.569982 354.987843 
L 510.251821 355.38637 
L 509.657739 356.19552 
L 508.947506 357.016303 
L 508.438342 357.753126 
L 507.812353 358.646948 
L 507.12284 359.601172 
L 506.338493 360.506426 
L 505.723234 361.327552 
L 505.329762 362.19818 
L 505.063339 362.948243 
L 504.733244 363.831415 
L 504.350669 364.593064 
L 503.640275 365.450085 
L 503.301164 365.860563 
L 502.643407 366.790668 
L 502.101971 367.672953 
L 501.687617 368.446593 
L 501.400303 369.11161 
L 501.101812 370.007133 
L 500.708514 370.841291 
L 500.389769 371.457939 
L 499.932734 372.364656 
L 499.634548 373.138844 
L 499.347108 373.876782 
L 499.038674 374.590198 
L 498.730012 375.303853 
L 498.474697 375.944987 
L 498.198294 376.513183 
L 497.825673 377.456728 
L 497.505843 378.388279 
L 497.32414 379.090308 
L 497.195435 379.780365 
L 497.056059 380.422023 
L 496.958928 381.100091 
L 496.871442 382.044917 
L 496.763437 382.868413 
L 496.655091 383.7403 
L 496.620704 384.612796 
L 496.596935 385.485038 
L 496.530801 386.381441 
L 496.47556 387.168866 
L 496.219456 388.052171 
L 495.868433 388.789965 
L 495.971776 389.602189 
L 496.635199 390.247475 
L 497.246254 390.722873 
L 497.054002 391.449017 
L 496.808302 392.344465 
L 496.700306 393.156042 
L 496.4655 393.942535 
L 496.251731 394.75355 
L 496.070018 395.443446 
L 495.876955 396.375528 
L 495.73703 397.271538 
L 495.586616 398.058624 
L 495.38313 398.978564 
L 495.308265 399.305491 
L 495.09478 399.995171 
L 494.870923 400.7211 
L 494.625368 401.556262 
L 494.41191 402.270256 
L 494.166376 403.105156 
L 493.931293 404.012985 
L 493.749569 404.6907 
L 493.620855 405.368601 
L 493.354422 406.094592 
L 493.0561 406.941488 
L 492.504286 407.811398 
L 492.099905 408.754754 
L 491.90782 409.456799 
L 491.714896 410.340491 
L 491.553633 411.27279 
L 491.43562 411.853869 
L 491.253308 412.749703 
L 491.01839 413.596984 
L 490.794485 414.274523 
L 490.485912 415.036595 
L 490.20938 415.665343 
L 489.91103 416.463849 
L 489.592033 417.213755 
L 489.154589 418.150009 
L 488.94274 418.810153 
L 488.697052 419.705841 
L 488.419632 420.637572 
L 488.311415 421.44915 
L 488.425036 422.346222 
L 488.633609 423.231737 
L 488.789192 424.117067 
L 488.818546 424.917003 
L 488.593874 425.837 
L 488.56013 426.515215 
L 488.568443 427.266552 
L 488.576857 427.921131 
L 488.553228 428.744982 
L 488.603764 429.532754 
L 488.791153 430.430433 
L 488.915137 431.303414 
L 489.039434 432.103712 
L 489.216533 432.904148 
L 489.436177 433.656631 
L 489.750309 434.542446 
L 490.064749 435.331502 
L 490.452689 436.254397 
L 490.946397 437.1774 
L 491.419212 437.979337 
L 492.018608 438.830172 
L 492.660723 439.584426 
L 493.238795 440.508023 
L 493.732473 441.406928 
L 494.426869 442.2946 
L 494.574191 442.477223 
L 495.22682 443.158758 
L 495.953316 443.949602 
L 496.743325 444.655969 
L 497.54405 445.301748 
L 498.312694 446.04438 
L 498.965661 446.677526 
L 499.149279 446.875235 
L 499.734188 447.505023 
L 500.450673 448.077768 
L 501.020006 448.431655 
L 501.789291 449.004801 
L 502.50609 449.468369 
L 503.233595 449.859478 
L 504.034783 450.384213 
L 504.761836 450.932894 
L 505.394208 451.359875 
L 506.047612 451.847637 
L 506.795689 452.432522 
L 507.617742 453.018041 
L 508.271299 453.457151 
L 509.09331 454.006199 
L 509.736303 454.457483 
L 510.442471 454.933277 
L 511.096162 455.287764 
L 511.897494 455.739824 
L 512.540614 456.118427 
L 513.267948 456.570093 
L 514.079397 457.155371 
L 514.51124 457.581477 
L 515.20647 458.129948 
L 515.997253 458.630418 
L 516.735164 459.045837 
L 517.346196 459.557506 
L 518.010183 460.020947 
L 518.779729 460.484952 
L 519.507253 460.924466 
L 520.329099 461.522129 
L 521.014733 461.828234 
L 521.817273 461.868118 
L 522.514605 461.847127 
L 523.305594 462.177875 
L 524.001785 462.44771 
L 524.814637 462.608917 
L 525.542599 462.87897 
L 526.343272 463.500507 
L 526.9545 463.988105 
L 527.554922 464.475481 
L 528.113297 464.914287 
L 528.787732 465.438507 
L 529.356724 465.877299 
L 530.137138 466.232359 
L 530.622492 466.379969 
L 531.445445 466.662503 
L 532.215476 467.005208 
L 532.952641 467.723622 
L 533.647449 468.453777 
L 534.183273 469.377221 
L 534.507923 470.227088 
L 534.844728 470.59205 
L 535.507949 471.322252 
L 535.86087 472.009719 
L 536.570862 472.952013 
L 536.836784 473.702059 
L 537.251049 474.609227 
L 537.591263 475.443818 
L 537.963261 476.290497 
L 538.450927 477.051936 
L 538.917559 477.789067 
L 539.521741 478.695516 
L 540.104961 479.626072 
L 540.613799 480.387221 
L 541.228239 481.17256 
L 541.832319 482.006067 
L 542.447017 482.839774 
L 543.050223 483.418956 
L 543.716693 483.913162 
L 544.510115 484.576441 
L 545.208167 485.070366 
L 545.8638 485.516198 
L 546.65744 486.191422 
L 547.376724 486.721791 
L 548.053587 487.203829 
L 548.805411 488.049077 
L 549.398983 488.955286 
L 550.139854 489.64322 
L 550.795682 490.100974 
L 551.494731 490.934117 
L 551.801886 491.36921 
L 552.437849 492.2997 
L 553.241742 492.853818 
L 554.046052 493.62603 
L 554.860655 494.289312 
L 555.643926 495.013163 
L 556.373882 495.604073 
L 557.05075 496.098299 
L 557.85469 496.701026 
L 558.478746 497.183144 
L 559.240516 497.798113 
L 559.917078 498.219611 
L 560.604192 498.580308 
L 561.291281 498.916953 
L 561.967824 499.301981 
L 562.612452 499.590295 
L 563.278295 499.878556 
L 564.02855 500.214878 
L 564.631009 500.515623 
L 565.413016 500.815406 
L 566.121077 501.139869 
L 566.850432 501.561085 
L 567.485036 501.982646 
L 568.214666 502.488702 
L 568.986036 502.752293 
L 569.725669 503.088611 
L 570.518334 503.449194 
L 571.184236 503.79801 
L 571.829176 504.171192 
L 572.453223 504.65332 
L 573.225629 505.316652 
L 574.029906 506.076986 
L 574.706686 506.49828 
L 575.404464 506.931918 
L 576.081526 507.425895 
L 576.885799 508.186231 
L 577.626989 509.007203 
L 578.26169 509.550106 
L 578.875401 510.068725 
L 579.679063 510.622866 
L 580.376766 511.007878 
L 581.0851 511.405057 
L 581.804724 512.092783 
L 582.419663 512.999246 
L 583.182089 513.868584 
L 583.943854 514.519782 
L 584.747548 515.1104 
L 585.424901 515.713585 
L 586.197406 516.486106 
L 586.92795 517.270865 
L 587.616304 518.067816 
L 588.251225 518.61075 
L 589.023631 519.310329 
L 589.617391 520.240902 
L 590.284549 521.038145 
L 590.665911 521.521304 
L 591.217468 522.451958 
L 591.821296 523.273579 
L 592.467804 524.179767 
L 593.103387 524.989213 
L 593.801394 525.458859 
L 594.614732 525.758887 
L 595.271809 526.640749 
L 595.611737 527.451046 
L 596.01493 528.176634 
L 596.523771 528.974309 
L 597.243965 529.831772 
L 598.037941 530.688923 
L 598.631334 531.474114 
L 599.193258 532.392816 
L 599.543729 533.15471 
L 599.915654 533.989257 
L 600.403627 534.908297 
L 600.764697 535.694253 
L 601.083841 536.504819 
L 601.234133 537.388769 
L 601.447483 538.187533 
L 601.661173 539.095499 
L 601.885495 540.039422 
L 602.06758 540.947406 
L 602.270402 541.794838 
L 602.547405 542.665985 
L 602.781098 543.222552 
L 603.078715 543.912026 
L 603.142797 544.202526 
L 603.398263 544.940471 
L 603.611374 545.690869 
L 603.824966 546.526105 
L 604.038358 547.349185 
L 604.103346 547.91835 
L 604.232441 548.802328 
L 604.255903 549.6259 
L 604.220737 550.211026 
L 584.145473 550.19969 
L 582.620754 549.877585 
L 575.668511 549.698748 
L 566.984927 549.635499 
L 551.876391 550.079548 
L 536.27551 550.13018 
L 468.5222 549.201484 
L 466.570228 549.130856 
L 459.146854 549.325622 
L 449.741236 550.015813 
L 440.365654 550.017564 
L 430.718817 550.019488 
L 388.007403 550.029207 
L 345.58632 550.040979 
L 303.721961 550.054537 
L 301.712287 550.055242 
L 301.681515 550.055269 
L 261.96141 550.069932 
L 259.905319 550.070734 
L 228.90686 550.449783 
L 222.267404 550.086471 
L 217.151093 550.088745 
L 206.766106 550.093406 
L 196.517484 550.098132 
L 186.107045 550.103043 
L 175.809512 550.108011 
L 133.744097 550.129071 
L 134.028647 539.877804 
L 133.894226 513.223263 
L 133.762668 487.046721 
L 138.749759 487.037578 
L 173.096484 486.922097 
L 173.087507 484.360745 
L 175.692167 484.603705 
L 259.9219 484.442402 
L 259.981058 475.601602 
L 259.930946 428.030945 
L 259.851101 363.527742 
L 260.231919 359.144126 
L 261.041953 355.564884 
L 261.886176 350.664771 
L 262.044657 332.273297 
L 262.087674 312.895369 
L 262.094392 307.508455 
L 262.066705 283.347683 
L 261.952814 267.687222 
L 261.496737 259.577349 
L 261.287823 255.921272 
L 261.12293 247.31455 
L 261.246293 233.124706 
L 261.017366 222.67082 
L 236.134712 222.713454 
L 236.095616 192.927271 
L 213.733342 192.877187 
L 213.730038 190.3944 
L 213.67032 166.073798 
L 222.349269 166.059027 
L 258.165551 165.998987 
L 261.473762 165.993502 
L 294.027052 166.22663 
L 303.918535 166.210644 
L 314.534661 166.193594 
L 324.725832 166.177335 
L 329.848531 166.169203 
L 345.85986 166.143963 
L 365.670471 166.11312 
L 387.918102 166.078785 
" style="fill:#1a1a1a;stroke:#ffffff;stroke-linejoin:miter;stroke-width:4;"/>
   </g>
  </g>
 </g>
 <defs>
  <clipPath id="p0e598edd8c">
   <rect height="543.6" width="558" x="90" y="86.4"/>
  </clipPath>
 </defs>
</svg>
