<?xml version="1.0" encoding="utf-8" standalone="no"?>
<!DOCTYPE svg PUBLIC "-//W3C//DTD SVG 1.1//EN"
  "http://www.w3.org/Graphics/SVG/1.1/DTD/svg11.dtd">
<!-- Created with matplotlib (https://matplotlib.org/) -->
<svg height="720pt" version="1.1" viewBox="0 0 720 720" width="720pt" xmlns="http://www.w3.org/2000/svg" xmlns:xlink="http://www.w3.org/1999/xlink">
 <metadata>
  <rdf:RDF xmlns:cc="http://creativecommons.org/ns#" xmlns:dc="http://purl.org/dc/elements/1.1/" xmlns:rdf="http://www.w3.org/1999/02/22-rdf-syntax-ns#">
   <cc:Work>
    <dc:type rdf:resource="http://purl.org/dc/dcmitype/StillImage"/>
    <dc:date>2021-05-28T08:56:50.807683</dc:date>
    <dc:format>image/svg+xml</dc:format>
    <dc:creator>
     <cc:Agent>
      <dc:title>Matplotlib v3.3.3, https://matplotlib.org/</dc:title>
     </cc:Agent>
    </dc:creator>
   </cc:Work>
  </rdf:RDF>
 </metadata>
 <defs>
  <style type="text/css">*{stroke-linecap:butt;stroke-linejoin:round;}</style>
 </defs>
 <g id="figure_1">
  <g id="patch_1">
   <path d="M 0 720 
L 720 720 
L 720 0 
L 0 0 
z
" style="fill:none;"/>
  </g>
  <g id="axes_1">
   <g id="patch_2">
    <path clip-path="url(#pb1f4e1bd83)" d="M 538.211465 448.679145 
L 576.985242 519.453829 
L 578.752185 522.137863 
L 581.400784 525.60865 
L 590.160758 536.804752 
L 584.271554 539.412817 
L 578.180017 542.719193 
L 572.420873 545.964293 
L 566.329815 549.882745 
L 560.018043 555.086589 
L 554.924729 559.800518 
L 547.098836 568.44052 
L 486.413231 568.454698 
L 464.91521 573.098678 
L 456.487844 576.544852 
L 467.557101 559.287812 
L 460.963713 557.849717 
L 453.480868 556.289762 
L 449.000515 555.509986 
L 444.612756 555.080259 
L 434.627008 554.215114 
L 430.403919 554.05012 
L 425.098872 553.979599 
L 420.410791 554.052797 
L 408.81478 555.278882 
L 401.945149 555.98194 
L 395.874065 556.638322 
L 393.04536 556.932149 
L 390.765215 557.165561 
L 387.990919 557.474403 
L 385.549827 557.715411 
L 382.42194 558.046883 
L 379.253239 558.385883 
L 374.021659 558.935811 
L 367.185419 559.64828 
L 367.134658 549.714223 
L 363.549946 549.700258 
L 363.127532 551.204571 
L 362.180197 552.625232 
L 360.748906 553.900718 
L 358.89567 554.975782 
L 356.700858 555.803786 
L 354.259571 556.34887 
L 351.677636 556.587407 
L 349.06696 556.509032 
L 337.642544 555.460108 
L 335.639554 554.459993 
L 336.319613 548.44377 
L 336.977898 542.46036 
L 337.252931 539.947829 
L 337.649358 536.514254 
L 337.814543 534.985411 
L 338.117504 532.180713 
L 338.44567 529.600793 
L 338.795851 526.572128 
L 339.124543 523.443066 
L 339.278792 520.749453 
L 339.255028 519.683375 
L 339.170523 518.527085 
L 339.066422 517.788318 
L 338.890867 516.871882 
L 338.589363 515.6372 
L 338.172866 514.444089 
L 337.672844 513.335517 
L 337.091475 512.078095 
L 336.38103 510.906315 
L 335.463543 509.580774 
L 333.860176 507.582275 
L 331.010657 504.792343 
L 329.737561 503.73242 
L 328.342101 502.679198 
L 325.808488 501.02164 
L 324.237619 500.138414 
L 322.632677 499.282608 
L 320.813787 498.418524 
L 318.613731 497.4733 
L 314.778238 496.048109 
L 312.938423 495.475828 
L 310.964592 494.936749 
L 308.941437 494.420209 
L 306.961227 493.998357 
L 303.48877 493.365272 
L 301.218417 493.072385 
L 297.21564 492.714578 
L 295.169166 492.593839 
L 293.24141 492.534156 
L 289.707367 492.52975 
L 287.452164 492.598534 
L 285.702787 492.701465 
L 281.887887 493.071527 
L 278.142657 493.519197 
L 247.048576 497.663766 
L 241.1848 498.44933 
L 234.851008 499.306176 
L 228.07453 500.199397 
L 222.399706 500.966726 
L 216.722351 501.719957 
L 211.932753 502.366345 
L 201.50704 503.73535 
L 191.962334 505.012388 
L 185.87018 505.836788 
L 176.159778 507.141068 
L 169.820161 507.975564 
L 163.983469 508.699921 
L 159.651074 509.144904 
L 155.690832 509.438187 
L 152.256857 509.64697 
L 147.839242 509.816603 
L 148.500233 477.36941 
L 148.423853 428.745463 
L 150.059676 392.942914 
L 150.429634 328.414548 
L 150.99309 324.806974 
L 152.466793 320.64988 
L 155.149249 315.750099 
L 159.041191 310.738534 
L 163.447779 305.364831 
L 160.974212 304.127264 
L 160.251333 303.719296 
L 159.797425 303.43186 
L 159.376994 303.051632 
L 159.00692 302.634256 
L 158.73732 301.929232 
L 158.77019 301.270482 
L 158.864822 300.50027 
L 158.949234 300.224018 
L 159.163529 299.614744 
L 159.408307 298.790444 
L 160.048635 297.276262 
L 160.538528 295.950191 
L 161.15116 294.534484 
L 161.855275 292.527459 
L 163.110415 288.925585 
L 164.089771 285.843419 
L 164.972954 283.010727 
L 165.830014 280.430301 
L 166.62566 277.849899 
L 167.543773 274.929014 
L 168.370245 272.4561 
L 168.425433 272.163681 
L 168.760936 271.183779 
L 169.034292 270.340937 
L 169.297927 269.479581 
L 169.632939 268.400686 
L 170.079459 266.815025 
L 170.470217 265.474579 
L 170.972703 263.823527 
L 171.447439 262.401323 
L 171.773517 261.41529 
L 172.639814 259.021733 
L 173.484318 257.123648 
L 174.328799 255.199565 
L 175.529462 253.015388 
L 176.997334 250.727121 
L 178.198239 248.750927 
L 179.888722 246.254598 
L 182.553245 242.786334 
L 184.511297 240.471892 
L 187.181712 237.61127 
L 189.986045 234.984564 
L 193.235855 232.201713 
L 198.525653 227.82185 
L 203.200212 223.92064 
L 208.854356 219.291167 
L 220.775735 209.347725 
L 225.272705 205.888566 
L 233.995108 198.540534 
L 238.046705 195.211543 
L 246.982501 187.919836 
L 252.414453 183.42053 
L 257.878416 178.963579 
L 263.265489 174.569409 
L 269.855228 169.029877 
L 281.358226 159.533194 
L 287.146331 154.279948 
L 290.663733 151.081194 
L 294.350271 147.012597 
L 296.263834 144.23032 
L 297.464659 141.708251 
L 297.922123 140.665857 
L 324.286529 140.10289 
L 332.615339 139.910933 
L 338.053625 139.855148 
L 342.409446 139.885355 
L 347.184077 140.025136 
L 350.509378 140.235972 
L 354.644765 140.61135 
L 358.865559 141.127926 
L 363.001184 141.785785 
L 366.539984 142.44381 
L 371.016968 143.454656 
L 375.110286 144.5127 
L 378.905313 145.688524 
L 383.820574 147.382383 
L 387.572389 148.940814 
L 390.814756 150.37157 
L 394.288896 152.134612 
L 397.253626 153.846688 
L 399.940539 155.5077 
L 402.581249 157.347701 
L 404.944137 159.1622 
L 407.446125 161.257897 
L 409.624154 163.507077 
L 411.755915 165.858532 
L 413.146381 167.571064 
L 415.000598 170.280512 
L 416.206122 172.35101 
L 417.133697 174.293759 
L 418.247144 177.054543 
L 418.989768 179.304142 
L 419.738565 181.98926 
L 432.630533 235.997417 
L 433.660358 240.262976 
L 434.364769 243.424433 
L 434.99741 245.80641 
L 436.475011 251.592053 
L 437.877675 256.568088 
L 439.307288 261.095988 
L 441.168343 266.435663 
L 443.566933 272.697164 
L 444.975245 276.160401 
L 446.572554 279.902419 
L 448.263801 283.496726 
L 451.52308 290.10596 
L 455.301398 297.204617 
L 465.529816 315.882584 
L 472.614404 328.71989 
L 485.442215 352.296658 
L 491.377418 363.08034 
L 494.441127 368.787725 
L 495.813656 371.151153 
L 501.527659 381.645464 
L 527.060883 428.289021 
L 538.211465 448.679145 
" style="fill:#1a1a1a;stroke:#ffffff;stroke-linejoin:miter;stroke-width:4;"/>
   </g>
  </g>
 </g>
 <defs>
  <clipPath id="pb1f4e1bd83">
   <rect height="543.6" width="558" x="90" y="86.4"/>
  </clipPath>
 </defs>
</svg>
