<?xml version="1.0" encoding="utf-8" standalone="no"?>
<!DOCTYPE svg PUBLIC "-//W3C//DTD SVG 1.1//EN"
  "http://www.w3.org/Graphics/SVG/1.1/DTD/svg11.dtd">
<!-- Created with matplotlib (https://matplotlib.org/) -->
<svg height="720pt" version="1.1" viewBox="0 0 720 720" width="720pt" xmlns="http://www.w3.org/2000/svg" xmlns:xlink="http://www.w3.org/1999/xlink">
 <metadata>
  <rdf:RDF xmlns:cc="http://creativecommons.org/ns#" xmlns:dc="http://purl.org/dc/elements/1.1/" xmlns:rdf="http://www.w3.org/1999/02/22-rdf-syntax-ns#">
   <cc:Work>
    <dc:type rdf:resource="http://purl.org/dc/dcmitype/StillImage"/>
    <dc:date>2021-05-28T08:56:48.743383</dc:date>
    <dc:format>image/svg+xml</dc:format>
    <dc:creator>
     <cc:Agent>
      <dc:title>Matplotlib v3.3.3, https://matplotlib.org/</dc:title>
     </cc:Agent>
    </dc:creator>
   </cc:Work>
  </rdf:RDF>
 </metadata>
 <defs>
  <style type="text/css">*{stroke-linecap:butt;stroke-linejoin:round;}</style>
 </defs>
 <g id="figure_1">
  <g id="patch_1">
   <path d="M 0 720 
L 720 720 
L 720 0 
L 0 0 
z
" style="fill:none;"/>
  </g>
  <g id="axes_1">
   <g id="patch_2">
    <path clip-path="url(#pdec56fbb85)" d="M 548.144202 472.853272 
L 548.147384 499.261397 
L 552.557039 499.251548 
L 552.769961 528.111493 
L 552.716518 529.997895 
L 485.236279 533.101974 
L 454.17698 533.12556 
L 291.798502 533.47301 
L 184.982113 533.661779 
L 185.99734 337.81444 
L 185.835506 271.708605 
L 185.443529 183.238054 
L 306.321177 183.028707 
L 381.584544 182.850944 
L 465.213993 182.738221 
L 552.970249 182.808653 
L 552.930063 184.361777 
L 552.93076 205.214887 
L 552.895377 208.880746 
L 552.602788 219.420551 
L 552.363406 239.954538 
L 552.616977 258.237108 
L 553.017887 287.608082 
L 552.796328 300.839935 
L 551.805282 360.031283 
L 552.360613 412.813134 
L 552.374113 414.945725 
L 548.116767 414.94966 
L 548.138365 417.692763 
L 548.144202 472.853272 
" style="fill:#1a1a1a;stroke:#ffffff;stroke-linejoin:miter;stroke-width:4;"/>
   </g>
  </g>
 </g>
 <defs>
  <clipPath id="pdec56fbb85">
   <rect height="543.6" width="558" x="90" y="86.4"/>
  </clipPath>
 </defs>
</svg>
