<?xml version="1.0" encoding="utf-8" standalone="no"?>
<!DOCTYPE svg PUBLIC "-//W3C//DTD SVG 1.1//EN"
  "http://www.w3.org/Graphics/SVG/1.1/DTD/svg11.dtd">
<!-- Created with matplotlib (https://matplotlib.org/) -->
<svg height="720pt" version="1.1" viewBox="0 0 720 720" width="720pt" xmlns="http://www.w3.org/2000/svg" xmlns:xlink="http://www.w3.org/1999/xlink">
 <metadata>
  <rdf:RDF xmlns:cc="http://creativecommons.org/ns#" xmlns:dc="http://purl.org/dc/elements/1.1/" xmlns:rdf="http://www.w3.org/1999/02/22-rdf-syntax-ns#">
   <cc:Work>
    <dc:type rdf:resource="http://purl.org/dc/dcmitype/StillImage"/>
    <dc:date>2021-05-28T08:56:48.107500</dc:date>
    <dc:format>image/svg+xml</dc:format>
    <dc:creator>
     <cc:Agent>
      <dc:title>Matplotlib v3.3.3, https://matplotlib.org/</dc:title>
     </cc:Agent>
    </dc:creator>
   </cc:Work>
  </rdf:RDF>
 </metadata>
 <defs>
  <style type="text/css">*{stroke-linecap:butt;stroke-linejoin:round;}</style>
 </defs>
 <g id="figure_1">
  <g id="patch_1">
   <path d="M 0 720 
L 720 720 
L 720 0 
L 0 0 
z
" style="fill:none;"/>
  </g>
  <g id="axes_1">
   <g id="patch_2">
    <path clip-path="url(#pcfcd6c7e10)" d="M 574.321565 226.423487 
L 597.0704 326.084034 
L 597.08914 326.166101 
L 596.767571 326.383264 
L 593.340323 328.490923 
L 591.276932 329.759858 
L 578.010276 337.918783 
L 573.92089 341.820121 
L 569.944316 346.052775 
L 566.089595 350.607065 
L 562.365501 355.472645 
L 559.47056 359.604681 
L 546.586672 381.046219 
L 538.609011 395.085597 
L 537.207607 397.08766 
L 535.142722 399.701871 
L 527.079362 409.144269 
L 522.580382 412.445904 
L 520.129497 414.24451 
L 502.571803 426.748714 
L 491.863534 434.69117 
L 442.696113 471.161749 
L 433.855903 477.509801 
L 420.886491 484.804594 
L 411.605156 488.059624 
L 411.430267 487.7557 
L 409.432645 488.576957 
L 407.42167 489.295403 
L 405.399151 489.910328 
L 403.366895 490.421232 
L 401.360656 490.821762 
L 399.348442 491.120923 
L 397.460594 491.308834 
L 395.038878 491.447895 
L 392.321432 491.515308 
L 389.603751 491.488736 
L 386.886921 491.368218 
L 384.172049 491.153754 
L 381.460246 490.845507 
L 378.752571 490.443518 
L 376.050134 489.947993 
L 373.354018 489.359097 
L 370.701192 488.686863 
L 368.056641 487.924243 
L 365.421379 487.071524 
L 362.796466 486.12908 
L 360.182914 485.097283 
L 357.58176 483.976503 
L 354.994018 482.767238 
L 352.420699 481.469902 
L 348.27071 479.174223 
L 344.16584 476.649637 
L 340.263979 473.45317 
L 338.386398 471.792014 
L 331.966495 465.783432 
L 327.604637 461.240234 
L 323.340817 456.429255 
L 319.180558 451.356751 
L 315.129262 446.029311 
L 311.192263 440.453858 
L 307.374626 434.637643 
L 303.681321 428.588252 
L 301.197779 424.264097 
L 298.777784 419.834492 
L 296.422855 415.302175 
L 294.13449 410.669963 
L 292.259064 406.691564 
L 290.432716 402.646077 
L 258.836606 335.088763 
L 256.240874 329.738405 
L 253.556147 324.519742 
L 250.80318 319.470093 
L 247.966912 314.558855 
L 245.049658 309.790176 
L 243.621948 307.587353 
L 242.053857 305.167954 
L 238.981994 300.696045 
L 235.836628 296.37814 
L 232.620341 292.217847 
L 229.335787 288.218565 
L 227.00298 285.522946 
L 224.639152 282.908556 
L 222.426337 280.564017 
L 219.435363 277.50914 
L 216.955412 275.082696 
L 214.450465 272.733571 
L 212.798192 271.249924 
L 211.921296 270.46251 
L 209.368773 268.270302 
L 206.777528 266.144686 
L 204.164306 264.100287 
L 201.529974 262.137766 
L 198.875378 260.257829 
L 196.201409 258.461055 
L 193.508937 256.748024 
L 190.798879 255.119357 
L 188.072079 253.57551 
L 185.395207 252.150945 
L 182.704099 250.808125 
L 179.999601 249.547546 
L 177.282582 248.369539 
L 176.490147 248.051514 
L 174.553837 247.274476 
L 171.814258 246.262772 
L 169.064716 245.334673 
L 166.306054 244.490469 
L 161.291415 243.176513 
L 160.67246 243.04912 
L 156.254882 242.139759 
L 152.746931 241.583464 
L 148.899437 241.12871 
L 142.295976 240.196713 
L 141.697902 240.112295 
L 141.697081 240.153629 
L 140.91086 240.097078 
L 143.042413 239.698072 
L 239.134809 234.844688 
L 324.352666 234.360441 
L 359.823381 234.161256 
L 480.191125 233.500197 
L 531.629627 233.222726 
L 531.641052 224.884692 
L 536.487842 224.913124 
L 565.415229 225.114357 
L 574.038525 225.173623 
L 574.321565 226.423487 
" style="fill:#1a1a1a;stroke:#ffffff;stroke-linejoin:miter;stroke-width:4;"/>
   </g>
  </g>
 </g>
 <defs>
  <clipPath id="pcfcd6c7e10">
   <rect height="543.6" width="558" x="90" y="86.4"/>
  </clipPath>
 </defs>
</svg>
