<?xml version="1.0" encoding="utf-8" standalone="no"?>
<!DOCTYPE svg PUBLIC "-//W3C//DTD SVG 1.1//EN"
  "http://www.w3.org/Graphics/SVG/1.1/DTD/svg11.dtd">
<!-- Created with matplotlib (https://matplotlib.org/) -->
<svg height="720pt" version="1.1" viewBox="0 0 720 720" width="720pt" xmlns="http://www.w3.org/2000/svg" xmlns:xlink="http://www.w3.org/1999/xlink">
 <metadata>
  <rdf:RDF xmlns:cc="http://creativecommons.org/ns#" xmlns:dc="http://purl.org/dc/elements/1.1/" xmlns:rdf="http://www.w3.org/1999/02/22-rdf-syntax-ns#">
   <cc:Work>
    <dc:type rdf:resource="http://purl.org/dc/dcmitype/StillImage"/>
    <dc:date>2021-05-28T08:56:49.181530</dc:date>
    <dc:format>image/svg+xml</dc:format>
    <dc:creator>
     <cc:Agent>
      <dc:title>Matplotlib v3.3.3, https://matplotlib.org/</dc:title>
     </cc:Agent>
    </dc:creator>
   </cc:Work>
  </rdf:RDF>
 </metadata>
 <defs>
  <style type="text/css">*{stroke-linecap:butt;stroke-linejoin:round;}</style>
 </defs>
 <g id="figure_1">
  <g id="patch_1">
   <path d="M 0 720 
L 720 720 
L 720 0 
L 0 0 
z
" style="fill:none;"/>
  </g>
  <g id="axes_1">
   <g id="patch_2">
    <path clip-path="url(#pc5a8609740)" d="M 614.8894 509.921689 
L 615.099224 541.42337 
L 393.967999 541.878167 
L 373.422729 540.945924 
L 353.494766 541.049529 
L 341.241718 541.304593 
L 327.254954 541.942015 
L 310.792222 543.228248 
L 300.146803 544.520154 
L 286.554815 546.850907 
L 264.891507 551.127409 
L 255.607329 552.941783 
L 247.065592 555.017239 
L 240.256978 556.703735 
L 230.601 559.299125 
L 214.012717 563.711443 
L 198.093237 567.734121 
L 185.21902 571.108592 
L 171.455277 575.273938 
L 170.304583 570.428145 
L 169.2583 566.394731 
L 167.598589 560.123907 
L 165.578456 551.866925 
L 164.316231 546.1214 
L 163.415335 540.977235 
L 162.876388 535.498542 
L 162.374886 528.102483 
L 161.80048 521.520523 
L 161.22513 516.346163 
L 160.613623 511.129926 
L 159.821131 506.069533 
L 158.848032 500.590543 
L 157.007893 493.330463 
L 155.058715 486.785539 
L 153.506264 482.067006 
L 151.881398 477.386454 
L 149.822492 472.57625 
L 147.691087 467.971436 
L 144.547623 461.92026 
L 141.656406 457.352968 
L 139.307318 453.584987 
L 137.572633 450.726681 
L 135.440054 447.757781 
L 133.162801 444.712692 
L 130.66844 441.705505 
L 127.63177 438.1273 
L 125.173362 435.424514 
L 122.900776 433.141985 
L 124.081427 431.840973 
L 125.207414 430.600225 
L 129.693979 425.656362 
L 131.745276 423.521201 
L 134.027367 421.408806 
L 136.675491 419.253248 
L 139.650521 417.157051 
L 142.713269 415.312381 
L 144.09014 414.587488 
L 145.86505 413.708317 
L 147.482506 412.980208 
L 149.111404 412.336813 
L 150.38392 411.874117 
L 151.341611 411.549836 
L 152.328472 411.240009 
L 153.384452 410.933743 
L 155.015994 410.504425 
L 156.384075 410.200637 
L 158.029098 409.883245 
L 159.588674 409.635935 
L 161.051736 409.447939 
L 162.839889 409.28795 
L 164.28988 409.198233 
L 166.304152 409.160021 
L 189.169981 409.139402 
L 194.547379 409.134647 
L 214.990385 409.116947 
L 219.664511 409.112966 
L 249.932736 409.085365 
L 255.834886 409.077467 
L 258.500517 408.999286 
L 261.624285 408.763748 
L 265.13511 408.330044 
L 268.232226 407.724587 
L 271.020188 407.084809 
L 273.217337 406.489472 
L 275.239119 405.868715 
L 276.90966 405.301705 
L 278.243614 404.812887 
L 279.915419 404.153966 
L 281.287505 403.573629 
L 282.576606 402.995075 
L 283.980644 402.327149 
L 285.73131 401.437308 
L 287.320558 400.572679 
L 290.050529 398.954281 
L 291.42197 398.074278 
L 294.349826 396.034181 
L 296.515973 394.37218 
L 298.143883 393.046702 
L 300.628288 390.812482 
L 303.518622 387.943852 
L 305.832282 385.388472 
L 307.203227 383.749005 
L 308.178627 382.518932 
L 309.113311 381.285985 
L 310.037678 380.009915 
L 310.824025 378.876098 
L 311.483424 377.888283 
L 322.5469 360.546669 
L 326.889631 353.066122 
L 329.533565 348.572319 
L 331.857675 343.8871 
L 333.849489 339.03564 
L 335.498313 334.043919 
L 336.795289 328.938707 
L 337.733479 323.747398 
L 338.307829 318.4978 
L 338.515252 313.2181 
L 338.867613 310.880076 
L 338.921453 298.670463 
L 338.941006 294.232907 
L 338.991915 282.685797 
L 338.983342 279.786548 
L 338.993043 276.931743 
L 338.582271 269.442887 
L 338.172588 267.113459 
L 337.447594 263.107624 
L 336.32566 258.634712 
L 335.599468 255.987127 
L 335.004957 254.234735 
L 333.760987 250.839301 
L 332.92355 248.764855 
L 331.863873 246.456456 
L 329.584952 241.956407 
L 327.336491 238.158075 
L 323.650869 231.988918 
L 319.869696 225.729771 
L 317.245899 221.486511 
L 314.468261 216.365699 
L 312.153769 211.814027 
L 309.917366 206.287538 
L 308.299294 200.599159 
L 306.927934 193.125885 
L 306.479645 182.80582 
L 306.44236 175.620115 
L 306.387283 141.150283 
L 479.763163 141.126062 
L 483.089195 157.66582 
L 486.292893 172.769323 
L 489.620035 188.133326 
L 493.567388 202.326526 
L 497.885798 216.780541 
L 502.32704 232.028754 
L 507.140408 246.483392 
L 513.658086 264.780136 
L 518.103833 275.38136 
L 523.414902 287.103111 
L 529.095808 300.127072 
L 535.765987 314.06347 
L 546.01932 334.187461 
L 552.072189 346.144649 
L 579.005842 393.560817 
L 586.787218 408.670635 
L 591.600455 421.160252 
L 598.361114 440.681656 
L 603.910692 458.262003 
L 610.217238 483.62094 
L 613.667519 496.642612 
L 614.8894 509.921689 
" style="fill:#1a1a1a;stroke:#ffffff;stroke-linejoin:miter;stroke-width:4;"/>
   </g>
  </g>
 </g>
 <defs>
  <clipPath id="pc5a8609740">
   <rect height="543.6" width="558" x="90" y="86.4"/>
  </clipPath>
 </defs>
</svg>
