<?xml version="1.0" encoding="utf-8" standalone="no"?>
<!DOCTYPE svg PUBLIC "-//W3C//DTD SVG 1.1//EN"
  "http://www.w3.org/Graphics/SVG/1.1/DTD/svg11.dtd">
<!-- Created with matplotlib (https://matplotlib.org/) -->
<svg height="720pt" version="1.1" viewBox="0 0 720 720" width="720pt" xmlns="http://www.w3.org/2000/svg" xmlns:xlink="http://www.w3.org/1999/xlink">
 <metadata>
  <rdf:RDF xmlns:cc="http://creativecommons.org/ns#" xmlns:dc="http://purl.org/dc/elements/1.1/" xmlns:rdf="http://www.w3.org/1999/02/22-rdf-syntax-ns#">
   <cc:Work>
    <dc:type rdf:resource="http://purl.org/dc/dcmitype/StillImage"/>
    <dc:date>2021-05-28T08:56:46.865249</dc:date>
    <dc:format>image/svg+xml</dc:format>
    <dc:creator>
     <cc:Agent>
      <dc:title>Matplotlib v3.3.3, https://matplotlib.org/</dc:title>
     </cc:Agent>
    </dc:creator>
   </cc:Work>
  </rdf:RDF>
 </metadata>
 <defs>
  <style type="text/css">*{stroke-linecap:butt;stroke-linejoin:round;}</style>
 </defs>
 <g id="figure_1">
  <g id="patch_1">
   <path d="M 0 720 
L 720 720 
L 720 0 
L 0 0 
z
" style="fill:none;"/>
  </g>
  <g id="axes_1">
   <g id="patch_2">
    <path clip-path="url(#peb46cf1e9a)" d="M 366.478064 196.687056 
L 378.970871 196.796039 
L 403.536791 196.746951 
L 449.672411 196.871417 
L 453.254068 197.373966 
L 466.530757 197.342426 
L 479.648157 197.418425 
L 491.78863 197.253911 
L 503.618885 197.459289 
L 507.130488 197.465326 
L 515.579851 197.479864 
L 520.95506 197.489148 
L 534.60752 197.512882 
L 542.358085 197.5264 
L 548.341653 197.536878 
L 552.309846 197.543853 
L 562.315646 197.561495 
L 565.003646 196.606911 
L 590.431473 196.646098 
L 588.367562 200.676552 
L 588.404513 253.276238 
L 588.432489 309.890046 
L 588.367988 366.404064 
L 588.367292 423.566495 
L 588.366836 461.994195 
L 590.547296 480.301302 
L 584.146754 478.764059 
L 578.032555 476.177111 
L 563.122801 465.960582 
L 559.114256 464.412109 
L 553.832179 463.831232 
L 549.479185 463.704887 
L 540.079047 463.67491 
L 522.638531 463.454431 
L 506.983261 463.681401 
L 508.661879 469.722856 
L 508.600406 519.942777 
L 494.649347 520.212371 
L 481.360502 520.313552 
L 467.807227 520.238518 
L 454.047717 520.162499 
L 440.420918 520.493972 
L 427.222546 520.170041 
L 427.180055 494.825615 
L 427.338068 478.48203 
L 427.008865 463.358988 
L 393.718055 462.871156 
L 366.707108 463.08051 
L 301.230724 462.665845 
L 290.865195 462.617157 
L 276.995099 462.602954 
L 263.778086 462.415414 
L 209.409342 461.933295 
L 181.757692 461.466669 
L 158.775384 461.527658 
L 147.545818 461.554274 
L 147.452704 196.408172 
L 154.941581 196.410153 
L 168.849872 196.424029 
L 184.788912 196.440141 
L 197.255809 196.452918 
L 220.871713 196.477428 
L 238.762212 196.546561 
L 246.244619 197.9029 
L 259.844402 197.816732 
L 261.458762 197.455871 
L 263.242011 196.483145 
L 263.894667 195.906028 
L 264.651954 196.074382 
L 267.924804 196.269756 
L 294.488049 196.574102 
L 297.849905 196.579272 
L 306.695539 196.792022 
L 309.771391 196.597719 
L 342.182815 196.648428 
L 366.478064 196.687056 
" style="fill:#1a1a1a;stroke:#ffffff;stroke-linejoin:miter;stroke-width:4;"/>
   </g>
  </g>
 </g>
 <defs>
  <clipPath id="peb46cf1e9a">
   <rect height="543.6" width="558" x="90" y="86.4"/>
  </clipPath>
 </defs>
</svg>
