<?xml version="1.0" encoding="utf-8" standalone="no"?>
<!DOCTYPE svg PUBLIC "-//W3C//DTD SVG 1.1//EN"
  "http://www.w3.org/Graphics/SVG/1.1/DTD/svg11.dtd">
<!-- Created with matplotlib (https://matplotlib.org/) -->
<svg height="720pt" version="1.1" viewBox="0 0 720 720" width="720pt" xmlns="http://www.w3.org/2000/svg" xmlns:xlink="http://www.w3.org/1999/xlink">
 <metadata>
  <rdf:RDF xmlns:cc="http://creativecommons.org/ns#" xmlns:dc="http://purl.org/dc/elements/1.1/" xmlns:rdf="http://www.w3.org/1999/02/22-rdf-syntax-ns#">
   <cc:Work>
    <dc:type rdf:resource="http://purl.org/dc/dcmitype/StillImage"/>
    <dc:date>2021-05-28T08:56:47.954406</dc:date>
    <dc:format>image/svg+xml</dc:format>
    <dc:creator>
     <cc:Agent>
      <dc:title>Matplotlib v3.3.3, https://matplotlib.org/</dc:title>
     </cc:Agent>
    </dc:creator>
   </cc:Work>
  </rdf:RDF>
 </metadata>
 <defs>
  <style type="text/css">*{stroke-linecap:butt;stroke-linejoin:round;}</style>
 </defs>
 <g id="figure_1">
  <g id="patch_1">
   <path d="M 0 720 
L 720 720 
L 720 0 
L 0 0 
z
" style="fill:none;"/>
  </g>
  <g id="axes_1">
   <g id="patch_2">
    <path clip-path="url(#p8d6dcf4a8a)" d="M 177.214159 178.407217 
L 177.92971 178.53039 
L 178.48613 178.514478 
L 179.112024 178.390396 
L 179.797582 178.289472 
L 180.532976 178.381735 
L 181.159442 178.721313 
L 181.587326 179.192426 
L 181.826372 179.64821 
L 181.936502 180.204495 
L 181.887331 180.629608 
L 181.898065 181.216813 
L 181.968379 181.726926 
L 182.257026 182.174843 
L 182.953269 182.645788 
L 183.649183 183.000762 
L 184.295535 183.324935 
L 184.912023 183.656787 
L 185.628061 184.081269 
L 186.165123 184.389968 
L 186.801315 184.644617 
L 187.546862 184.937735 
L 187.944746 185.176992 
L 188.541321 185.524388 
L 189.25727 185.848453 
L 189.992866 186.141575 
L 190.649018 186.41156 
L 191.424592 186.805213 
L 192.090803 187.106072 
L 192.73697 187.298786 
L 193.512449 187.661534 
L 194.208356 187.892811 
L 194.854395 188.108795 
L 195.44112 188.425183 
L 196.087346 188.71071 
L 196.624205 188.888087 
L 197.200648 189.034517 
L 197.906563 189.273524 
L 198.632232 189.582206 
L 199.407498 189.743936 
L 200.093326 189.867191 
L 200.76907 189.95166 
L 201.315791 190.028586 
L 202.070959 190.136195 
L 202.746841 190.267078 
L 203.442651 190.467606 
L 204.078935 190.69122 
L 204.734972 190.853031 
L 205.410738 190.945416 
L 206.026925 190.983566 
L 206.593317 191.037192 
L 207.259343 191.338226 
L 207.766443 191.500139 
L 208.402671 191.777929 
L 209.158111 191.978368 
L 209.893466 192.062735 
L 210.539613 192.186051 
L 211.21548 192.378722 
L 211.921159 192.540584 
L 212.527525 192.694728 
L 213.123886 192.902896 
L 213.780296 193.257972 
L 214.496021 193.512492 
L 215.162035 193.751595 
L 215.758464 193.983048 
L 216.404665 194.191295 
L 217.011097 194.368556 
L 217.66707 194.576787 
L 218.3231 194.73859 
L 218.929385 194.93915 
L 219.685116 195.240029 
L 220.271666 195.502393 
L 220.947755 195.772357 
L 221.723076 196.088724 
L 222.389268 196.389614 
L 223.025393 196.628759 
L 223.651868 196.976133 
L 224.377828 197.462554 
L 224.964602 197.802086 
L 225.571049 198.118591 
L 226.177439 198.35003 
L 226.823669 198.643196 
L 227.231356 198.766642 
L 227.916976 198.88976 
L 228.14571 198.974722 
L 228.762067 199.206007 
L 229.368411 199.422078 
L 229.984827 199.607104 
L 230.720486 199.931141 
L 231.446167 200.185668 
L 232.132013 200.386244 
L 232.827852 200.602157 
L 233.474015 200.933979 
L 234.130341 201.265768 
L 234.796544 201.566816 
L 235.392847 201.759625 
L 236.06879 201.983199 
L 236.804572 202.284125 
L 237.450837 202.585194 
L 237.888173 202.762613 
L 238.633794 203.086652 
L 239.240426 203.403177 
L 239.986062 203.866289 
L 240.592606 204.159533 
L 241.248677 204.406413 
L 241.904876 204.630025 
L 242.670528 205.054603 
L 243.35645 205.417403 
L 244.022645 205.718304 
L 244.758288 205.980581 
L 245.483983 206.242877 
L 246.120182 206.512925 
L 246.726744 206.813932 
L 247.362996 207.169061 
L 247.969328 207.385004 
L 248.565958 207.631856 
L 248.764761 207.709113 
L 249.530196 207.994471 
L 250.116797 208.287754 
L 250.713302 208.619658 
L 251.260223 208.905251 
L 251.896444 209.190838 
L 252.55253 209.445333 
L 253.109278 209.622713 
L 253.844889 209.869626 
L 254.61032 210.155003 
L 255.286328 210.479159 
L 256.042067 210.926908 
L 256.807805 211.459705 
L 257.573503 212.046525 
L 258.219685 212.324338 
L 258.82625 212.555807 
L 259.452469 212.763959 
L 260.217716 212.987678 
L 260.913594 213.149463 
L 261.380572 213.234163 
L 262.01671 213.419169 
L 262.682732 213.604275 
L 263.428316 213.990263 
L 264.044855 214.29887 
L 264.591493 214.422251 
L 265.336728 214.553197 
L 265.973087 214.815509 
L 266.708787 215.170473 
L 267.444395 215.486938 
L 267.951293 215.656651 
L 268.48812 215.841667 
L 269.263524 216.065388 
L 270.018887 216.319885 
L 270.525784 216.489599 
L 271.082543 216.666988 
L 271.857731 216.890559 
L 272.394486 217.044852 
L 273.040586 217.229846 
L 273.815951 217.515353 
L 274.462145 217.800783 
L 275.17789 218.00909 
L 275.893372 218.194116 
L 276.509787 218.394685 
L 276.96706 218.572083 
L 277.553462 218.795835 
L 278.189705 219.027262 
L 278.686715 219.158344 
L 279.412052 219.304703 
L 280.098087 219.512913 
L 280.714301 219.705723 
L 281.420127 220.006726 
L 282.185338 220.22256 
L 282.761876 220.415441 
L 283.248961 220.561912 
L 283.646616 220.669872 
L 284.302618 220.909028 
L 284.909063 221.171401 
L 285.475676 221.379822 
L 286.081942 221.580261 
L 286.797528 221.742162 
L 287.294531 221.803705 
L 287.821069 221.872942 
L 288.457211 221.996193 
L 289.182721 222.204339 
L 289.818889 222.40488 
L 290.524793 222.66722 
L 291.190624 222.852204 
L 291.826703 223.021839 
L 292.50259 223.23785 
L 292.979788 223.345826 
L 293.675325 223.468977 
L 294.351207 223.615414 
L 295.017232 223.8004 
L 295.732726 223.993182 
L 296.348981 224.209298 
L 296.975329 224.394323 
L 297.720681 224.571563 
L 298.297099 224.65624 
L 299.032483 224.833498 
L 299.68856 225.026401 
L 300.304721 225.203699 
L 300.83163 225.342484 
L 301.408005 225.481199 
L 302.083887 225.6972 
L 302.769714 225.905437 
L 303.376149 226.106021 
L 304.061953 226.306499 
L 304.727756 226.48385 
L 305.443353 226.645777 
L 306.129134 226.838464 
L 306.795266 227.070021 
L 307.232526 227.224181 
L 307.86862 227.4016 
L 308.57436 227.609792 
L 309.150732 227.748662 
L 309.916102 227.956752 
L 310.413123 228.095607 
L 311.148482 228.272858 
L 311.744832 228.427065 
L 312.371086 228.581221 
L 312.997322 228.805073 
L 313.533953 228.990123 
L 314.130369 229.167598 
L 314.66711 229.329518 
L 315.273362 229.530123 
L 316.018923 229.715119 
L 316.565456 229.81524 
L 317.290884 229.930728 
L 317.897155 229.999856 
L 318.403966 230.076915 
L 318.831297 230.177089 
L 319.487299 230.346704 
L 320.172967 230.508675 
L 320.729617 230.655193 
L 321.415239 230.793883 
L 322.120906 230.909255 
L 322.83643 231.048046 
L 323.611499 231.163452 
L 324.207801 231.302159 
L 324.943282 231.448662 
L 325.450028 231.51005 
L 326.115864 231.563862 
L 326.861224 231.609793 
L 327.50719 231.825691 
L 328.053938 232.00312 
L 328.809353 232.219151 
L 329.296205 232.357879 
L 329.9324 232.512179 
L 330.459079 232.63547 
L 331.23421 232.774164 
L 331.770943 232.858786 
L 332.287677 232.928073 
L 333.052819 233.059024 
L 333.818156 233.189975 
L 334.354736 233.290105 
L 334.911273 233.397992 
L 335.636675 233.513476 
L 336.411783 233.574731 
L 337.186805 233.605233 
L 337.832789 233.689824 
L 338.563035 233.929642 
L 339.172064 234.148058 
L 339.839207 234.320418 
L 340.535037 234.415122 
L 341.18194 234.548865 
L 341.91892 234.751543 
L 342.536659 234.9398 
L 343.155091 235.166587 
L 343.693244 235.347675 
L 344.390568 235.550726 
L 345.147481 235.75322 
L 345.884956 235.986791 
L 346.591967 236.166392 
L 347.269073 236.33874 
L 348.035735 236.533306 
L 348.772232 236.697336 
L 349.468774 236.830696 
L 350.155607 236.987354 
L 350.902095 237.166739 
L 351.50906 237.277729 
L 351.985821 237.304635 
L 352.760714 237.367863 
L 353.406919 237.462962 
L 354.103199 237.573193 
L 354.789077 237.667921 
L 355.385337 237.724909 
L 355.842598 237.775132 
L 356.498987 237.877976 
L 356.986256 237.959024 
L 357.633394 238.116058 
L 358.299272 238.187843 
L 358.875575 238.237106 
L 359.611271 238.339193 
L 360.38642 238.417781 
L 360.83328 238.452805 
L 361.608627 238.539153 
L 362.355306 238.718544 
L 363.121204 238.851322 
L 363.697029 238.869681 
L 364.341935 238.856591 
L 365.038235 238.982198 
L 365.725564 239.185263 
L 366.471267 239.295098 
L 367.245637 239.311771 
L 367.951925 239.445109 
L 368.657933 239.547571 
L 369.413342 239.633958 
L 370.149077 239.743812 
L 370.905222 239.88454 
L 371.592051 240.048956 
L 372.26861 240.174752 
L 372.945449 240.331425 
L 373.622505 240.49601 
L 374.35945 240.690946 
L 374.89757 240.864286 
L 375.554971 241.059797 
L 376.301407 241.223826 
L 376.996706 241.264361 
L 377.641631 241.259038 
L 378.289995 241.508892 
L 378.828611 241.720885 
L 379.425603 241.839666 
L 379.901842 241.820154 
L 380.418254 241.846837 
L 381.154006 241.964474 
L 381.922083 242.259629 
L 382.620625 242.563119 
L 383.318411 242.804843 
L 384.075069 242.991823 
L 384.752379 243.179544 
L 385.250563 243.329977 
L 385.927635 243.502345 
L 386.625181 243.728533 
L 387.303246 243.978053 
L 387.881251 244.158789 
L 388.418869 244.293483 
L 389.005891 244.412421 
L 389.672713 244.553765 
L 390.379706 244.733527 
L 391.037597 244.967697 
L 391.646063 245.210182 
L 392.344535 245.490546 
L 392.972936 245.74044 
L 393.70066 245.997322 
L 394.417402 246.169324 
L 395.125385 246.426239 
L 395.773739 246.676102 
L 396.551319 246.947983 
L 396.969478 247.060509 
L 397.448177 247.234413 
L 398.085353 247.399229 
L 398.683805 247.626365 
L 399.402788 247.97609 
L 399.952096 248.249858 
L 400.631363 248.584584 
L 401.380546 248.972777 
L 402.14136 249.47674 
L 402.661518 249.805035 
L 403.370943 250.1703 
L 404.150046 250.566038 
L 404.789161 250.877703 
L 405.528785 251.273675 
L 405.869796 251.55707 
L 406.502868 252.162747 
L 407.184629 252.706104 
L 407.745665 253.119095 
L 408.445416 253.515422 
L 409.15559 253.942625 
L 409.785724 254.331779 
L 410.555823 254.797079 
L 411.205373 255.132013 
L 411.87395 255.427959 
L 412.582674 255.746969 
L 413.301384 256.073436 
L 414.021024 256.461973 
L 414.801303 256.942629 
L 415.552176 257.46229 
L 416.263115 257.951278 
L 416.923919 258.409777 
L 417.376884 258.900999 
L 417.939138 259.414428 
L 418.422283 259.936355 
L 418.894728 260.411887 
L 419.298072 260.911272 
L 419.580631 261.264615 
L 419.914637 261.779939 
L 420.279257 262.349236 
L 420.613458 262.872306 
L 420.775616 263.141694 
L 421.259252 263.709882 
L 421.90227 264.31555 
L 422.514456 264.859486 
L 423.006572 265.311705 
L 423.528391 265.755962 
L 423.718985 265.924412 
L 424.331817 266.49163 
L 424.655337 266.968473 
L 424.747856 267.215149 
L 424.881771 267.600692 
L 424.985722 267.963306 
L 425.120132 268.387501 
L 425.165962 268.866608 
L 425.301362 269.368259 
L 425.485606 269.792068 
L 425.899641 270.353053 
L 426.222682 270.791244 
L 426.506978 271.283825 
L 426.93072 271.821679 
L 427.383455 272.30516 
L 428.046199 272.910494 
L 428.568527 273.408927 
L 429.131732 273.984141 
L 429.584166 274.436732 
L 430.03765 274.981995 
L 430.192269 275.437049 
L 430.180149 276.032664 
L 430.216286 276.534933 
L 430.392518 277.113502 
L 430.627706 277.660643 
L 430.890816 278.052824 
L 431.315067 278.637092 
L 431.718414 279.144241 
L 432.280088 279.595742 
L 433.051871 280.200293 
L 433.473924 280.614434 
L 433.936575 281.082379 
L 434.390053 281.635404 
L 434.74518 282.235612 
L 434.978385 282.628147 
L 435.170889 282.928226 
L 435.454722 283.405289 
L 435.718599 283.85939 
L 436.042063 284.320714 
L 436.345333 284.751179 
L 436.699767 285.312888 
L 437.024218 285.851515 
L 437.208988 286.329484 
L 437.425161 286.930831 
L 437.650571 287.48575 
L 437.936121 288.08668 
L 438.109934 288.487377 
L 438.534175 289.071632 
L 439.057907 289.662741 
L 439.490433 290.123128 
L 439.964092 290.691493 
L 440.357636 291.198661 
L 440.67162 291.690893 
L 440.976647 292.268509 
L 441.152116 292.785146 
L 441.277555 293.294575 
L 441.135004 293.782829 
L 440.377792 294.322739 
L 439.756582 294.63721 
L 439.198182 295.206472 
L 439.254956 295.762714 
L 439.765513 296.098816 
L 440.448603 295.984947 
L 440.963514 295.895562 
L 441.487661 295.751974 
L 441.982618 295.655165 
L 442.737472 295.702958 
L 443.379025 296.208052 
L 443.633103 296.669931 
L 443.8079 297.147933 
L 444.0336 297.733895 
L 444.198388 298.196544 
L 444.424305 298.797861 
L 444.638237 299.221472 
L 444.831288 299.583335 
L 445.14576 300.114372 
L 445.429559 300.575915 
L 445.753503 301.068284 
L 445.996408 301.445132 
L 446.250307 301.907012 
L 446.524828 302.407375 
L 446.717878 302.76939 
L 447.032841 303.338927 
L 447.437823 303.962035 
L 447.83189 304.515603 
L 448.165819 305.023174 
L 448.509991 305.554012 
L 448.843681 306.038453 
L 449.127991 306.546561 
L 449.433438 307.147157 
L 449.66811 307.65565 
L 449.923405 308.210355 
L 450.117161 308.618631 
L 450.421402 309.126555 
L 450.716212 309.688668 
L 450.900196 310.09696 
L 451.214187 310.597092 
L 451.508461 311.112794 
L 451.851856 311.573937 
L 452.205773 312.096847 
L 452.498781 312.504355 
L 452.792559 312.973644 
L 453.047417 313.505083 
L 453.36162 314.012839 
L 453.585057 314.413155 
L 453.890025 314.982998 
L 454.066035 315.553826 
L 454.381008 316.131125 
L 454.685481 316.662332 
L 455.070279 317.26233 
L 455.414442 317.800779 
L 455.697479 318.200542 
L 456.001712 318.708467 
L 456.325683 319.216209 
L 456.53988 319.670714 
L 456.874742 320.240221 
L 457.127129 320.578403 
L 457.319458 320.886095 
L 457.654084 321.440233 
L 458.008681 322.001781 
L 458.321675 322.424475 
L 458.576764 322.979197 
L 458.751268 323.42631 
L 459.17575 324.033717 
L 459.460028 324.541812 
L 459.675958 325.135555 
L 459.760149 325.498356 
L 459.81742 326.101027 
L 459.862732 326.541484 
L 459.904888 326.742134 
L 460.240023 327.342686 
L 460.487035 327.667425 
L 460.684177 327.926627 
L 460.947749 328.357619 
L 461.231016 328.780513 
L 461.416059 329.297138 
L 461.58081 329.752027 
L 461.775818 330.268651 
L 461.952076 330.86261 
L 462.036306 331.240933 
L 462.19109 331.695823 
L 462.324503 332.05048 
L 462.407726 332.343739 
L 462.550631 332.659576 
L 462.745578 333.160679 
L 462.888936 333.499783 
L 463.011396 333.777153 
L 463.286686 334.354822 
L 463.511787 334.878855 
L 463.665151 335.233327 
L 463.890015 335.741991 
L 464.104973 336.26604 
L 464.230073 336.729043 
L 464.495138 337.283599 
L 464.947812 337.767093 
L 465.063695 338.29967 
L 465.125288 338.461637 
L 465.319995 338.939442 
L 465.414188 339.317597 
L 465.57876 339.780249 
L 465.753534 340.258253 
L 465.987908 340.735858 
L 466.263154 341.305904 
L 466.416475 341.652617 
L 466.690558 342.145223 
L 466.984533 342.622277 
L 467.378566 343.175866 
L 467.832201 343.736664 
L 468.285578 344.266571 
L 468.679078 344.773748 
L 469.053629 345.350652 
L 469.387803 345.881496 
L 469.64189 346.358765 
L 469.876261 346.836371 
L 470.171258 347.406249 
L 470.40417 347.775509 
L 470.758766 348.344836 
L 471.131581 348.790264 
L 471.525824 349.351615 
L 471.789423 349.797979 
L 472.054438 350.337166 
L 472.299561 350.891892 
L 472.494753 351.416127 
L 472.648542 351.79373 
L 472.852519 352.232885 
L 473.056454 352.656533 
L 473.401337 353.249159 
L 473.684846 353.695491 
L 473.969358 354.218974 
L 474.264801 354.811984 
L 474.697959 355.31881 
L 475.220696 355.855929 
L 475.753397 356.385104 
L 476.175859 356.830165 
L 476.709267 357.413528 
L 477.031732 357.805321 
L 477.395537 358.320461 
L 477.699741 358.828255 
L 477.994019 359.351723 
L 478.127616 359.706382 
L 478.250539 360.014796 
L 478.495378 360.538647 
L 478.819769 361.06954 
L 479.214473 361.669545 
L 479.538431 362.184901 
L 479.882045 362.677111 
L 480.24679 363.254033 
L 480.590935 363.79264 
L 481.025067 364.369011 
L 481.468458 364.9067 
L 482.030103 365.381521 
L 482.601241 365.817674 
L 483.1826 366.276942 
L 483.723738 366.682252 
L 484.445014 367.22545 
L 485.185984 367.745183 
L 485.915985 368.187782 
L 486.595899 368.599721 
L 487.304705 368.926396 
L 487.893094 369.16135 
L 488.391709 369.35825 
L 489.172087 369.862249 
L 489.843683 370.390312 
L 490.404335 370.780209 
L 491.06502 371.238746 
L 491.655845 371.666959 
L 492.416993 372.209795 
L 493.037006 372.583621 
L 493.206859 372.674977 
L 493.986759 373.148088 
L 494.737447 373.652289 
L 495.297367 373.987863 
L 495.916631 374.307685 
L 496.607247 374.781395 
L 497.196806 375.093656 
L 497.806397 375.44437 
L 498.376025 375.756815 
L 499.940775 376.627953 
L 500.284733 376.816032 
L 500.944385 377.181734 
L 501.654201 377.609018 
L 502.204856 377.991175 
L 502.844595 378.364838 
L 503.403762 378.638649 
L 504.182627 379.011165 
L 504.812163 379.369475 
L 505.52221 379.804507 
L 506.282124 380.262288 
L 506.903085 380.705678 
L 507.503133 381.071933 
L 508.273305 381.56059 
L 508.8534 381.919284 
L 509.502823 382.269637 
L 510.271777 382.665486 
L 510.911233 383.008246 
L 511.530226 383.297032 
L 512.209878 383.693616 
L 512.978533 384.050647 
L 513.158368 384.149735 
L 513.547443 384.316686 
L 514.255518 384.596949 
L 515.024407 384.969655 
L 515.723731 385.342774 
L 516.283634 385.678525 
L 516.963242 386.059589 
L 517.683026 386.486684 
L 518.422505 386.898242 
L 519.021347 387.179455 
L 519.65079 387.514627 
L 520.310189 387.864984 
L 521.04894 388.222371 
L 521.757989 388.579957 
L 522.497229 388.975996 
L 523.216223 389.325943 
L 523.9146 389.637286 
L 524.683009 389.978955 
L 525.272095 390.267946 
L 526.020062 390.563386 
L 526.77872 390.912969 
L 527.456653 391.178099 
L 528.014822 391.374603 
L 528.772988 391.685398 
L 529.411253 391.95088 
L 530.149722 392.277229 
L 530.758285 392.542895 
L 531.476783 392.85421 
L 532.174878 393.134514 
L 532.882489 393.383912 
L 533.540878 393.656973 
L 534.138965 393.86865 
L 534.687185 394.072933 
L 535.195229 394.231184 
L 535.484287 394.329346 
L 536.241722 394.585973 
L 536.769756 394.767324 
L 537.487035 394.977905 
L 538.254219 395.22691 
L 538.911216 395.40715 
L 539.687875 395.617183 
L 540.136047 395.745079 
L 540.842889 395.924786 
L 541.459964 396.082263 
L 542.216692 396.292481 
L 542.843712 396.44203 
L 543.43085 396.576424 
L 544.037919 396.718395 
L 544.445739 396.800109 
L 544.89293 396.85055 
L 545.65839 396.960322 
L 546.145287 397.018175 
L 546.751377 397.082845 
L 547.337517 397.132175 
L 548.062136 397.164874 
L 548.659474 397.322369 
L 549.306696 397.495021 
L 549.854421 397.660673 
L 550.591879 397.902122 
L 551.150038 398.098635 
L 551.73819 398.325705 
L 552.395865 398.544603 
L 553.132852 398.755163 
L 553.810984 399.028037 
L 554.518524 399.261925 
L 555.125648 399.419423 
L 555.843191 399.668667 
L 556.251906 399.804541 
L 556.660954 399.986844 
L 557.338596 400.221068 
L 557.826427 400.348468 
L 558.364398 400.514291 
L 559.03182 400.725265 
L 559.310887 400.815838 
L 560.017994 401.03436 
L 560.75523 401.268054 
L 561.401959 401.401908 
L 562.128741 401.596951 
L 562.815603 401.769244 
L 563.513446 402.034196 
L 564.181333 402.276215 
L 564.708614 402.387883 
L 565.466051 402.652425 
L 566.163365 402.863204 
L 566.889188 402.988723 
L 567.39603 403.054162 
L 568.012333 403.141957 
L 568.688759 403.275617 
L 569.29535 403.386709 
L 569.931856 403.505198 
L 570.548901 403.647167 
L 571.256431 403.881064 
L 571.8545 404.100519 
L 572.522129 404.319245 
L 573.128973 404.445709 
L 573.666196 404.557365 
L 574.293008 404.699169 
L 575.028755 404.809155 
L 575.605663 404.920448 
L 576.082588 404.986225 
L 576.748247 405.042601 
L 577.462892 405.067707 
L 578.188907 405.193247 
L 578.896726 405.458177 
L 579.365089 405.616657 
L 579.921812 405.712765 
L 580.458332 405.770236 
L 581.13376 405.8266 
L 581.839122 405.890375 
L 582.515017 405.977645 
L 583.081958 406.089093 
L 583.81776 406.222215 
L 584.365414 406.364752 
L 585.002188 406.514139 
L 585.649376 406.679048 
L 586.287104 406.890384 
L 586.835301 407.094689 
L 587.413395 407.291051 
L 587.981035 407.456522 
L 588.7283 407.713347 
L 589.385704 407.901358 
L 590.15169 408.065162 
L 590.858257 408.221767 
L 591.405966 408.379828 
L 591.953928 408.560852 
L 592.620342 408.679155 
L 593.39458 408.703739 
L 593.911147 408.753637 
L 594.458855 408.911685 
L 595.106058 409.084207 
L 595.744053 409.326424 
L 596.499314 409.420872 
L 597.135578 409.516259 
L 597.883033 409.773074 
L 598.632199 410.176735 
L 599.330256 410.449466 
L 599.937324 410.591449 
L 600.484758 410.718456 
L 601.161424 410.875415 
L 601.909849 411.217297 
L 602.538343 411.49059 
L 603.255627 411.716714 
L 603.972424 411.904202 
L 604.670497 412.184682 
L 605.288752 412.427085 
L 605.93838 412.792871 
L 606.716715 413.14232 
L 606.753627 413.158912 
L 606.848948 416.257593 
L 606.862181 442.257217 
L 606.868953 455.578683 
L 606.903662 469.034236 
L 606.870653 471.151309 
L 597.170536 471.090527 
L 588.842156 471.068792 
L 582.12077 471.043721 
L 582.150617 474.239558 
L 582.108068 479.753642 
L 582.053882 486.77607 
L 582.090464 493.514144 
L 582.434237 500.408479 
L 582.304788 506.92816 
L 582.126102 515.931713 
L 582.210126 526.224734 
L 582.164998 531.58948 
L 582.189155 541.316411 
L 582.207255 548.597051 
L 582.135271 556.073158 
L 582.069499 562.905269 
L 582.009892 570.800372 
L 577.791879 576.351673 
L 576.456669 578.435114 
L 575.937075 579.217137 
L 559.778833 573.188164 
L 528.619451 560.836287 
L 496.469429 548.628855 
L 448.234764 530.269527 
L 442.406604 527.763153 
L 433.029633 524.511529 
L 416.710175 518.09974 
L 335.405581 487.144213 
L 300.209879 473.446248 
L 295.246919 471.107621 
L 290.790726 468.689077 
L 290.650229 410.522452 
L 292.182402 381.908165 
L 291.893376 371.884455 
L 290.191618 359.468748 
L 288.711358 351.679222 
L 286.185001 342.268166 
L 282.718479 331.88473 
L 278.315774 321.908788 
L 273.498949 312.826424 
L 265.129301 299.691927 
L 256.139679 288.344285 
L 245.068718 276.847578 
L 233.830734 266.431733 
L 222.740691 256.923168 
L 210.779729 248.323726 
L 196.781053 239.841526 
L 182.202212 232.154548 
L 154.944933 219.726846 
L 140.222186 212.834637 
L 131.550767 208.380745 
L 131.479027 198.971254 
L 131.13618 150.736629 
L 131.096338 137.182863 
L 131.110886 137.197125 
L 131.70789 137.791625 
L 132.424133 138.393954 
L 132.991455 138.934488 
L 133.469056 139.475021 
L 133.976685 140.061928 
L 134.315142 140.548546 
L 134.623847 140.95793 
L 135.17118 141.48298 
L 135.688647 142.085375 
L 136.076921 142.633852 
L 136.495025 143.151214 
L 136.883276 143.622386 
L 137.341105 144.155197 
L 137.977861 144.718887 
L 138.2166 144.93514 
L 138.714186 145.429393 
L 139.251541 146.023992 
L 139.639624 146.440991 
L 140.057818 146.989398 
L 140.386347 147.491421 
L 140.814414 148.008918 
L 141.262223 148.526242 
L 141.829241 149.035889 
L 142.525731 149.576341 
L 143.003224 150.085986 
L 143.441093 150.54946 
L 143.869038 151.028169 
L 144.336929 151.530225 
L 144.735062 152.039881 
L 145.172951 152.510964 
L 145.769847 153.012949 
L 146.366788 153.530288 
L 146.914101 154.124887 
L 147.510964 154.680879 
L 148.207275 155.159399 
L 148.803915 155.514538 
L 149.500178 155.977688 
L 150.276003 156.572172 
L 150.733683 156.996807 
L 151.221448 157.545104 
L 151.728924 158.147539 
L 152.276308 158.703625 
L 152.684331 159.190135 
L 153.042642 159.591671 
L 153.550264 160.178722 
L 154.077462 160.711579 
L 154.674532 161.275198 
L 155.122395 161.815809 
L 155.510571 162.333385 
L 155.869083 162.866248 
L 156.20754 163.360633 
L 156.456624 163.839676 
L 156.725582 164.233465 
L 157.193371 164.83596 
L 157.720665 165.337926 
L 158.387173 165.855159 
L 158.954113 166.217965 
L 159.729788 166.704258 
L 160.396239 167.267905 
L 160.814322 167.723508 
L 161.252146 168.179226 
L 161.799373 168.681158 
L 162.475687 169.275663 
L 163.142142 169.777529 
L 163.858297 170.23289 
L 164.633826 170.672941 
L 165.200694 170.942924 
L 165.846988 171.236196 
L 166.483356 171.614401 
L 167.109841 171.892052 
L 167.756088 172.169803 
L 168.442012 172.447483 
L 169.148156 172.825713 
L 169.883823 173.14197 
L 170.659303 173.496944 
L 171.365553 173.97561 
L 171.932434 174.322901 
L 172.648321 174.685608 
L 173.195157 174.932501 
L 173.841463 175.30293 
L 174.378728 175.804885 
L 174.66733 176.106119 
L 174.926167 176.45367 
L 175.403783 177.009756 
L 176.090201 177.596656 
L 176.597659 178.067623 
L 177.214159 178.407217 
" style="fill:#1a1a1a;stroke:#ffffff;stroke-linejoin:miter;stroke-width:4;"/>
   </g>
  </g>
 </g>
 <defs>
  <clipPath id="p8d6dcf4a8a">
   <rect height="543.6" width="558" x="90" y="86.4"/>
  </clipPath>
 </defs>
</svg>
