<?xml version="1.0" encoding="utf-8" standalone="no"?>
<!DOCTYPE svg PUBLIC "-//W3C//DTD SVG 1.1//EN"
  "http://www.w3.org/Graphics/SVG/1.1/DTD/svg11.dtd">
<!-- Created with matplotlib (https://matplotlib.org/) -->
<svg height="720pt" version="1.1" viewBox="0 0 720 720" width="720pt" xmlns="http://www.w3.org/2000/svg" xmlns:xlink="http://www.w3.org/1999/xlink">
 <metadata>
  <rdf:RDF xmlns:cc="http://creativecommons.org/ns#" xmlns:dc="http://purl.org/dc/elements/1.1/" xmlns:rdf="http://www.w3.org/1999/02/22-rdf-syntax-ns#">
   <cc:Work>
    <dc:type rdf:resource="http://purl.org/dc/dcmitype/StillImage"/>
    <dc:date>2021-05-28T08:56:47.281615</dc:date>
    <dc:format>image/svg+xml</dc:format>
    <dc:creator>
     <cc:Agent>
      <dc:title>Matplotlib v3.3.3, https://matplotlib.org/</dc:title>
     </cc:Agent>
    </dc:creator>
   </cc:Work>
  </rdf:RDF>
 </metadata>
 <defs>
  <style type="text/css">*{stroke-linecap:butt;stroke-linejoin:round;}</style>
 </defs>
 <g id="figure_1">
  <g id="patch_1">
   <path d="M 0 720 
L 720 720 
L 720 0 
L 0 0 
z
" style="fill:none;"/>
  </g>
  <g id="axes_1">
   <g id="patch_2">
    <path clip-path="url(#p44b807afcc)" d="M 497.922785 495.314812 
L 385.04549 495.564039 
L 349.102278 495.530016 
L 333.641127 496.484836 
L 320.035947 498.398508 
L 309.296438 500.752219 
L 298.004454 504.048568 
L 290.045139 506.99617 
L 282.086511 510.635852 
L 273.203228 515.48738 
L 263.714651 521.884406 
L 254.850877 527.401214 
L 217.411646 482.961969 
L 201.590035 463.308077 
L 193.311692 448.351851 
L 185.766115 432.43322 
L 180.160965 414.01034 
L 158.902926 290.949496 
L 208.304954 283.664739 
L 214.601299 282.816714 
L 224.856392 282.470807 
L 259.040945 282.273078 
L 274.804776 281.207949 
L 290.526932 279.659022 
L 307.116419 277.115693 
L 324.09094 273.668765 
L 342.318628 269.136841 
L 361.123879 263.159129 
L 376.167368 257.455552 
L 388.916742 252.510696 
L 398.384287 248.694875 
L 403.194201 246.047456 
L 407.955369 243.323966 
L 412.666446 240.525112 
L 417.326087 237.651724 
L 421.932881 234.704634 
L 426.485581 231.684702 
L 443.05086 220.497579 
L 459.61634 209.310578 
L 476.182087 198.12376 
L 489.694884 188.998786 
L 511.610569 216.724217 
L 524.930019 232.446036 
L 536.722884 248.986213 
L 547.642739 265.322774 
L 555.780141 280.384376 
L 563.592633 298.612952 
L 572.119782 324.553441 
L 576.498471 345.593489 
L 578.694266 364.592013 
L 579.097074 379.901297 
L 578.941567 494.430349 
L 497.922785 495.314812 
" style="fill:#1a1a1a;stroke:#ffffff;stroke-linejoin:miter;stroke-width:4;"/>
   </g>
  </g>
 </g>
 <defs>
  <clipPath id="p44b807afcc">
   <rect height="543.6" width="558" x="90" y="86.4"/>
  </clipPath>
 </defs>
</svg>
