<?xml version="1.0" encoding="utf-8" standalone="no"?>
<!DOCTYPE svg PUBLIC "-//W3C//DTD SVG 1.1//EN"
  "http://www.w3.org/Graphics/SVG/1.1/DTD/svg11.dtd">
<!-- Created with matplotlib (https://matplotlib.org/) -->
<svg height="720pt" version="1.1" viewBox="0 0 720 720" width="720pt" xmlns="http://www.w3.org/2000/svg" xmlns:xlink="http://www.w3.org/1999/xlink">
 <metadata>
  <rdf:RDF xmlns:cc="http://creativecommons.org/ns#" xmlns:dc="http://purl.org/dc/elements/1.1/" xmlns:rdf="http://www.w3.org/1999/02/22-rdf-syntax-ns#">
   <cc:Work>
    <dc:type rdf:resource="http://purl.org/dc/dcmitype/StillImage"/>
    <dc:date>2021-05-28T08:56:47.048264</dc:date>
    <dc:format>image/svg+xml</dc:format>
    <dc:creator>
     <cc:Agent>
      <dc:title>Matplotlib v3.3.3, https://matplotlib.org/</dc:title>
     </cc:Agent>
    </dc:creator>
   </cc:Work>
  </rdf:RDF>
 </metadata>
 <defs>
  <style type="text/css">*{stroke-linecap:butt;stroke-linejoin:round;}</style>
 </defs>
 <g id="figure_1">
  <g id="patch_1">
   <path d="M 0 720 
L 720 720 
L 720 0 
L 0 0 
z
" style="fill:none;"/>
  </g>
  <g id="axes_1">
   <g id="patch_2">
    <path clip-path="url(#p52aba37489)" d="M 272.678649 209.8829 
L 295.673576 210.545904 
L 341.777296 210.256642 
L 541.742164 209.643997 
L 543.81299 209.643445 
L 543.900589 251.434265 
L 543.95989 260.14613 
L 544.672886 272.658055 
L 546.85401 281.718566 
L 549.427526 288.61509 
L 552.984487 295.31534 
L 556.665646 300.833734 
L 561.083431 307.042147 
L 565.256534 312.186625 
L 571.270425 319.775142 
L 577.132343 327.254556 
L 580.70848 331.859608 
L 584.333065 337.315416 
L 586.018462 340.114091 
L 587.350393 342.629125 
L 589.328905 346.74571 
L 590.274465 348.87029 
L 591.42946 352.08019 
L 593.213876 357.503096 
L 594.366967 362.359724 
L 595.01856 365.183894 
L 595.671886 374.263296 
L 595.656457 377.724429 
L 595.670092 381.239444 
L 595.589123 395.239025 
L 595.558024 400.619065 
L 595.472392 415.421858 
L 594.911968 418.256451 
L 594.582066 424.657497 
L 593.668572 431.022048 
L 592.176397 437.31593 
L 590.113579 443.50543 
L 587.491153 449.557334 
L 584.323207 455.439187 
L 580.62675 461.119492 
L 576.42162 466.567726 
L 569.51458 475.637053 
L 551.918314 496.661823 
L 550.869552 497.859438 
L 549.618879 499.234064 
L 548.14869 500.781156 
L 546.662092 502.275967 
L 545.110735 503.767294 
L 542.93027 505.754964 
L 539.250435 508.853077 
L 534.653408 512.33097 
L 530.702005 515.039712 
L 528.112843 516.646706 
L 524.667623 518.661697 
L 520.01092 521.135087 
L 517.829666 522.201991 
L 513.487694 524.164119 
L 510.960023 525.212385 
L 508.175619 526.291218 
L 505.94252 527.101002 
L 503.892227 527.802436 
L 501.709949 528.506029 
L 499.050973 529.304897 
L 496.929341 529.897534 
L 494.272374 530.584971 
L 491.056765 531.337569 
L 487.562238 532.059349 
L 483.128033 532.835008 
L 478.202124 533.569057 
L 472.618218 534.094874 
L 467.649918 534.380438 
L 463.410279 534.475223 
L 454.023011 534.484799 
L 405.881924 534.518263 
L 398.447807 534.523089 
L 365.933561 534.544548 
L 357.380901 534.550313 
L 321.013197 534.575311 
L 317.809533 534.621639 
L 315.503347 534.730411 
L 312.659321 534.92438 
L 310.332346 535.152304 
L 307.851867 535.45214 
L 305.235486 535.836942 
L 303.059577 536.205251 
L 300.464639 536.725751 
L 298.785121 537.097065 
L 297.215535 537.472695 
L 295.692344 537.865849 
L 293.66843 538.426817 
L 291.077696 539.206861 
L 288.50516 540.089612 
L 285.682195 541.155509 
L 283.492306 542.03436 
L 278.621059 544.270817 
L 273.889326 546.812222 
L 269.677529 549.425594 
L 266.047904 551.986638 
L 262.785352 554.575282 
L 255.649548 560.569164 
L 253.858685 562.073431 
L 251.980879 563.650763 
L 248.441766 560.962512 
L 242.28812 556.992702 
L 197.164829 526.3624 
L 190.378303 521.700609 
L 184.914836 517.546844 
L 180.141681 513.624045 
L 176.633905 510.439859 
L 173.26425 507.186536 
L 169.929153 503.864065 
L 166.076786 499.664998 
L 161.246997 494.26627 
L 158.027485 490.159792 
L 153.888399 484.387796 
L 151.416992 480.189421 
L 148.313753 474.284166 
L 146.877714 470.639743 
L 145.786784 467.1846 
L 144.695842 463.770953 
L 144.17996 460.911058 
L 143.434525 457.12857 
L 142.690925 450.777026 
L 142.352585 440.952532 
L 142.616028 393.91582 
L 142.687178 374.691553 
L 142.643348 355.282727 
L 142.547189 328.512571 
L 142.448209 305.690601 
L 142.517575 288.993906 
L 142.362034 267.557548 
L 142.328114 258.438338 
L 142.33278 251.838235 
L 142.337399 245.306051 
L 142.422776 238.709206 
L 142.589404 231.352491 
L 142.754512 226.113875 
L 142.921745 217.909909 
L 143.287535 214.255937 
L 143.818239 205.686718 
L 143.823007 198.957282 
L 143.706779 192.133987 
L 143.508159 187.638989 
L 143.472046 181.662982 
L 143.396776 173.969849 
L 143.320434 167.790108 
L 143.285239 160.514127 
L 143.329021 155.663524 
L 143.291953 152.749237 
L 151.987712 154.495751 
L 161.76305 157.218905 
L 170.739936 160.341518 
L 179.516622 164.263679 
L 189.425318 169.721022 
L 198.601712 176.032477 
L 213.457352 187.777817 
L 222.415412 193.388523 
L 232.46649 198.824652 
L 241.863097 202.508543 
L 251.915694 205.842463 
L 261.531893 208.12503 
L 272.678649 209.8829 
" style="fill:#1a1a1a;stroke:#ffffff;stroke-linejoin:miter;stroke-width:4;"/>
   </g>
  </g>
 </g>
 <defs>
  <clipPath id="p52aba37489">
   <rect height="543.6" width="558" x="90" y="86.4"/>
  </clipPath>
 </defs>
</svg>
