<?xml version="1.0" encoding="utf-8" standalone="no"?>
<!DOCTYPE svg PUBLIC "-//W3C//DTD SVG 1.1//EN"
  "http://www.w3.org/Graphics/SVG/1.1/DTD/svg11.dtd">
<!-- Created with matplotlib (https://matplotlib.org/) -->
<svg height="720pt" version="1.1" viewBox="0 0 720 720" width="720pt" xmlns="http://www.w3.org/2000/svg" xmlns:xlink="http://www.w3.org/1999/xlink">
 <metadata>
  <rdf:RDF xmlns:cc="http://creativecommons.org/ns#" xmlns:dc="http://purl.org/dc/elements/1.1/" xmlns:rdf="http://www.w3.org/1999/02/22-rdf-syntax-ns#">
   <cc:Work>
    <dc:type rdf:resource="http://purl.org/dc/dcmitype/StillImage"/>
    <dc:date>2021-05-28T08:56:53.585245</dc:date>
    <dc:format>image/svg+xml</dc:format>
    <dc:creator>
     <cc:Agent>
      <dc:title>Matplotlib v3.3.3, https://matplotlib.org/</dc:title>
     </cc:Agent>
    </dc:creator>
   </cc:Work>
  </rdf:RDF>
 </metadata>
 <defs>
  <style type="text/css">*{stroke-linecap:butt;stroke-linejoin:round;}</style>
 </defs>
 <g id="figure_1">
  <g id="patch_1">
   <path d="M 0 720 
L 720 720 
L 720 0 
L 0 0 
z
" style="fill:none;"/>
  </g>
  <g id="axes_1">
   <g id="patch_2">
    <path clip-path="url(#pf658f82713)" d="M 579.148434 391.24777 
L 595.030516 491.850039 
L 596.192525 505.062349 
L 596.433935 516.895021 
L 596.221867 530.366413 
L 595.097784 542.746207 
L 593.062374 554.58057 
L 590.155809 564.814022 
L 557.673863 545.707141 
L 554.238183 554.274413 
L 550.862875 553.269232 
L 549.503341 551.886322 
L 541.798709 544.049031 
L 536.888562 539.053362 
L 536.872698 554.857776 
L 536.788477 554.812347 
L 522.022841 546.853608 
L 513.033682 546.839295 
L 513.060083 528.122707 
L 510.315966 527.57227 
L 441.850137 515.103056 
L 438.285199 514.381904 
L 434.768322 513.52328 
L 431.307822 512.529208 
L 427.911819 511.402043 
L 424.588385 510.144416 
L 421.345349 508.759327 
L 418.190368 507.250033 
L 415.13088 505.6201 
L 411.97886 509.194483 
L 396.823612 505.091978 
L 376.275414 509.009596 
L 351.219078 507.873251 
L 340.649103 495.744983 
L 340.675973 486.197786 
L 336.519682 486.190206 
L 336.543246 475.716912 
L 333.287978 485.63993 
L 305.77373 479.532818 
L 291.665011 483.139349 
L 286.876342 482.317145 
L 288.152686 474.172483 
L 287.283362 469.025148 
L 284.68172 460.7673 
L 284.275895 456.973014 
L 284.098607 455.315185 
L 283.963564 454.630846 
L 283.708771 453.968633 
L 283.339334 453.341825 
L 282.802897 452.701578 
L 282.147252 452.136571 
L 281.388659 451.660832 
L 280.545941 451.286143 
L 279.639996 451.021802 
L 279.201213 450.901534 
L 278.783279 450.740675 
L 278.392116 450.541485 
L 278.058667 450.324953 
L 277.756919 450.080556 
L 277.028751 449.32741 
L 276.430753 448.504386 
L 275.973315 447.625735 
L 275.664358 446.706704 
L 275.509239 445.763209 
L 275.493295 445.11804 
L 275.549424 444.474308 
L 275.565079 444.079163 
L 275.499375 443.687317 
L 275.354114 443.309376 
L 275.133199 442.955592 
L 274.84266 442.63553 
L 274.490335 442.357856 
L 273.706422 441.834482 
L 271.705376 440.49879 
L 270.642546 439.744752 
L 269.638749 438.940789 
L 269.008458 438.382541 
L 265.546704 435.18135 
L 260.890393 431.902991 
L 259.760842 431.27195 
L 254.400141 429.659932 
L 252.716792 427.681805 
L 249.898007 426.704099 
L 244.612792 426.020994 
L 241.937332 424.736483 
L 241.600844 426.373157 
L 212.15278 429.568818 
L 197.679651 438.120558 
L 196.388115 439.828726 
L 192.280707 445.261262 
L 191.900476 445.764637 
L 179.030762 462.780028 
L 194.353 482.493309 
L 171.379591 494.220097 
L 146.778874 494.180258 
L 146.856452 467.384629 
L 146.849784 451.037827 
L 157.301073 442.789452 
L 164.239494 437.332061 
L 170.123818 430.710783 
L 166.263255 430.575599 
L 146.841322 429.896426 
L 146.843612 435.748179 
L 141.712536 435.74488 
L 141.71344 435.607537 
L 141.566065 434.646369 
L 143.311267 376.426508 
L 143.308845 330.676523 
L 143.138658 311.771834 
L 142.8039 280.876769 
L 143.242758 256.74595 
L 143.814788 227.6295 
L 143.554164 213.386118 
L 142.460673 184.800888 
L 141.913354 172.32622 
L 141.899769 161.555956 
L 142.426125 151.70061 
L 318.150082 151.767254 
L 549.113044 151.585978 
L 556.153105 239.490503 
L 558.255523 260.770406 
L 565.38601 306.369816 
L 579.148434 391.24777 
" style="fill:#1a1a1a;stroke:#ffffff;stroke-linejoin:miter;stroke-width:4;"/>
   </g>
  </g>
 </g>
 <defs>
  <clipPath id="pf658f82713">
   <rect height="543.6" width="558" x="90" y="86.4"/>
  </clipPath>
 </defs>
</svg>
