<?xml version="1.0" encoding="utf-8" standalone="no"?>
<!DOCTYPE svg PUBLIC "-//W3C//DTD SVG 1.1//EN"
  "http://www.w3.org/Graphics/SVG/1.1/DTD/svg11.dtd">
<!-- Created with matplotlib (https://matplotlib.org/) -->
<svg height="720pt" version="1.1" viewBox="0 0 720 720" width="720pt" xmlns="http://www.w3.org/2000/svg" xmlns:xlink="http://www.w3.org/1999/xlink">
 <metadata>
  <rdf:RDF xmlns:cc="http://creativecommons.org/ns#" xmlns:dc="http://purl.org/dc/elements/1.1/" xmlns:rdf="http://www.w3.org/1999/02/22-rdf-syntax-ns#">
   <cc:Work>
    <dc:type rdf:resource="http://purl.org/dc/dcmitype/StillImage"/>
    <dc:date>2021-05-28T08:56:47.003868</dc:date>
    <dc:format>image/svg+xml</dc:format>
    <dc:creator>
     <cc:Agent>
      <dc:title>Matplotlib v3.3.3, https://matplotlib.org/</dc:title>
     </cc:Agent>
    </dc:creator>
   </cc:Work>
  </rdf:RDF>
 </metadata>
 <defs>
  <style type="text/css">*{stroke-linecap:butt;stroke-linejoin:round;}</style>
 </defs>
 <g id="figure_1">
  <g id="patch_1">
   <path d="M 0 720 
L 720 720 
L 720 0 
L 0 0 
z
" style="fill:none;"/>
  </g>
  <g id="axes_1">
   <g id="patch_2">
    <path clip-path="url(#p07e1956eb4)" d="M 356.633826 165.584152 
L 356.688828 261.389547 
L 391.55005 261.240083 
L 397.039544 261.227889 
L 405.760095 261.186944 
L 420.837429 261.112314 
L 421.604212 261.103637 
L 453.326792 261.029773 
L 464.680038 260.99524 
L 483.475786 260.938574 
L 485.063022 260.933994 
L 486.660175 260.756162 
L 499.408843 260.69508 
L 501.962039 260.683076 
L 501.959801 253.167547 
L 503.127817 247.711963 
L 507.264622 243.173246 
L 512.374929 243.169334 
L 516.506815 247.69128 
L 517.683309 253.119183 
L 517.689306 260.60824 
L 524.518694 260.573002 
L 545.246993 260.463531 
L 551.289824 264.55241 
L 563.496648 282.710693 
L 571.204202 286.761167 
L 578.719218 299.915742 
L 581.652164 301.747782 
L 581.70081 301.777039 
L 581.692181 309.423948 
L 581.6954 312.136135 
L 581.71921 331.912449 
L 582.460773 331.909723 
L 591.197422 331.877742 
L 597.133988 331.856027 
L 612.176909 331.801238 
L 613.677945 331.799788 
L 613.687652 337.530174 
L 613.718715 355.926742 
L 614.906725 361.000886 
L 614.830877 475.350458 
L 614.708036 550.751944 
L 593.92495 550.815848 
L 578.888955 550.645397 
L 549.470854 550.565786 
L 534.633681 550.560053 
L 517.80454 548.352283 
L 482.088801 548.381667 
L 358.30695 548.15766 
L 304.46476 550.382115 
L 228.561839 550.486528 
L 228.546108 548.002873 
L 228.546809 543.843622 
L 225.273211 543.619463 
L 222.145423 543.30385 
L 219.022399 542.894246 
L 215.905428 542.390858 
L 212.795706 541.793894 
L 209.694491 541.103539 
L 206.603009 540.320143 
L 203.522502 539.443936 
L 200.454152 538.475317 
L 197.399215 537.414659 
L 194.358888 536.262384 
L 191.334382 535.018961 
L 188.326893 533.684857 
L 185.337632 532.260614 
L 182.367749 530.746794 
L 168.952003 523.683255 
L 164.729831 521.560913 
L 160.46956 519.619663 
L 156.17456 517.861031 
L 151.84828 516.286475 
L 147.494201 514.897188 
L 143.115804 513.69434 
L 138.7166 512.67889 
L 134.300101 511.851604 
L 129.869832 511.2132 
L 125.429384 510.764161 
L 123.093275 510.604225 
L 123.546373 507.975905 
L 125.072177 499.670215 
L 126.730881 491.422698 
L 128.521504 483.2382 
L 130.442991 475.121496 
L 132.494236 467.077363 
L 134.674024 459.110554 
L 136.981078 451.22568 
L 139.414041 443.427398 
L 181.182391 313.667803 
L 183.995272 304.608428 
L 186.63829 295.433397 
L 189.109333 286.149978 
L 191.40646 276.765487 
L 193.527859 267.287357 
L 195.471843 257.723044 
L 197.236864 248.080122 
L 198.821536 238.366213 
L 200.224594 228.588962 
L 201.444933 218.756107 
L 202.481574 208.875435 
L 203.33371 198.954708 
L 204.00066 189.001781 
L 204.481885 179.024535 
L 204.777003 169.030824 
L 204.829472 165.653474 
L 228.431727 165.647734 
L 229.933893 165.652827 
L 240.144599 165.764531 
L 356.633826 165.584152 
" style="fill:#1a1a1a;stroke:#ffffff;stroke-linejoin:miter;stroke-width:4;"/>
   </g>
  </g>
 </g>
 <defs>
  <clipPath id="p07e1956eb4">
   <rect height="543.6" width="558" x="90" y="86.4"/>
  </clipPath>
 </defs>
</svg>
