<?xml version="1.0" encoding="utf-8" standalone="no"?>
<!DOCTYPE svg PUBLIC "-//W3C//DTD SVG 1.1//EN"
  "http://www.w3.org/Graphics/SVG/1.1/DTD/svg11.dtd">
<!-- Created with matplotlib (https://matplotlib.org/) -->
<svg height="720pt" version="1.1" viewBox="0 0 720 720" width="720pt" xmlns="http://www.w3.org/2000/svg" xmlns:xlink="http://www.w3.org/1999/xlink">
 <metadata>
  <rdf:RDF xmlns:cc="http://creativecommons.org/ns#" xmlns:dc="http://purl.org/dc/elements/1.1/" xmlns:rdf="http://www.w3.org/1999/02/22-rdf-syntax-ns#">
   <cc:Work>
    <dc:type rdf:resource="http://purl.org/dc/dcmitype/StillImage"/>
    <dc:date>2021-05-28T08:56:51.475686</dc:date>
    <dc:format>image/svg+xml</dc:format>
    <dc:creator>
     <cc:Agent>
      <dc:title>Matplotlib v3.3.3, https://matplotlib.org/</dc:title>
     </cc:Agent>
    </dc:creator>
   </cc:Work>
  </rdf:RDF>
 </metadata>
 <defs>
  <style type="text/css">*{stroke-linecap:butt;stroke-linejoin:round;}</style>
 </defs>
 <g id="figure_1">
  <g id="patch_1">
   <path d="M 0 720 
L 720 720 
L 720 0 
L 0 0 
z
" style="fill:none;"/>
  </g>
  <g id="axes_1">
   <g id="patch_2">
    <path clip-path="url(#pee9c6b201b)" d="M 510.705044 485.404495 
L 227.469747 487.128275 
L 227.294956 229.271725 
L 245.425457 238.284808 
L 263.622945 247.331393 
L 275.949617 257.139481 
L 288.276178 266.9476 
L 300.60263 276.755748 
L 312.928971 286.563926 
L 325.60815 296.65297 
L 338.287213 306.742045 
L 348.340387 315.806951 
L 358.393412 324.871834 
L 368.446421 333.93678 
L 378.49928 343.001703 
L 381.356022 345.577729 
L 384.78061 348.665772 
L 388.552123 352.066689 
L 398.604817 361.131652 
L 408.657494 370.196678 
L 418.710023 379.261681 
L 428.762534 388.326747 
L 438.814897 397.39179 
L 442.067964 400.32476 
L 449.810985 407.305776 
L 460.806974 417.219744 
L 471.802863 427.133778 
L 480.920485 437.475007 
L 481.59042 438.291387 
L 486.066139 443.745328 
L 493.8491 453.229474 
L 501.324008 465.718736 
L 502.584266 467.824451 
L 507.865909 479.258314 
L 508.718066 481.103071 
L 510.705044 485.404495 
" style="fill:#1a1a1a;stroke:#ffffff;stroke-linejoin:miter;stroke-width:4;"/>
   </g>
  </g>
 </g>
 <defs>
  <clipPath id="pee9c6b201b">
   <rect height="543.6" width="558" x="90" y="86.4"/>
  </clipPath>
 </defs>
</svg>
