<?xml version="1.0" encoding="utf-8" standalone="no"?>
<!DOCTYPE svg PUBLIC "-//W3C//DTD SVG 1.1//EN"
  "http://www.w3.org/Graphics/SVG/1.1/DTD/svg11.dtd">
<!-- Created with matplotlib (https://matplotlib.org/) -->
<svg height="720pt" version="1.1" viewBox="0 0 720 720" width="720pt" xmlns="http://www.w3.org/2000/svg" xmlns:xlink="http://www.w3.org/1999/xlink">
 <metadata>
  <rdf:RDF xmlns:cc="http://creativecommons.org/ns#" xmlns:dc="http://purl.org/dc/elements/1.1/" xmlns:rdf="http://www.w3.org/1999/02/22-rdf-syntax-ns#">
   <cc:Work>
    <dc:type rdf:resource="http://purl.org/dc/dcmitype/StillImage"/>
    <dc:date>2021-05-28T08:56:49.929332</dc:date>
    <dc:format>image/svg+xml</dc:format>
    <dc:creator>
     <cc:Agent>
      <dc:title>Matplotlib v3.3.3, https://matplotlib.org/</dc:title>
     </cc:Agent>
    </dc:creator>
   </cc:Work>
  </rdf:RDF>
 </metadata>
 <defs>
  <style type="text/css">*{stroke-linecap:butt;stroke-linejoin:round;}</style>
 </defs>
 <g id="figure_1">
  <g id="patch_1">
   <path d="M 0 720 
L 720 720 
L 720 0 
L 0 0 
z
" style="fill:none;"/>
  </g>
  <g id="axes_1">
   <g id="patch_2">
    <path clip-path="url(#paf5195039f)" d="M 588.480477 261.12936 
L 570.60189 289.302636 
L 570.506834 288.019077 
L 570.308268 288.364221 
L 568.35048 292.572531 
L 566.026042 297.909781 
L 563.703163 304.58088 
L 561.99447 311.969719 
L 561.512388 319.357569 
L 561.642751 326.026692 
L 562.632423 333.31075 
L 566.163624 350.974414 
L 576.716682 405.544476 
L 579.499229 413.713912 
L 583.245054 420.772864 
L 587.354645 427.405049 
L 595.208915 436.120364 
L 613.794748 455.826489 
L 612.866916 456.515609 
L 612.04353 457.152939 
L 611.460361 457.614262 
L 610.5721 458.299059 
L 609.106652 459.471557 
L 607.703577 460.65707 
L 606.364882 461.811888 
L 605.299517 462.891326 
L 604.166966 464.035792 
L 603.04735 465.231306 
L 602.133733 466.273494 
L 600.722144 467.769994 
L 599.847145 468.77131 
L 598.753383 470.017864 
L 597.762486 471.080538 
L 585.878677 484.259774 
L 585.468357 484.716723 
L 584.438409 485.856332 
L 583.087675 487.357922 
L 580.543738 490.192982 
L 578.129263 492.807444 
L 575.579711 495.555978 
L 573.068598 498.110626 
L 570.603248 500.537569 
L 567.922347 503.052407 
L 565.676375 505.117446 
L 562.92364 507.504449 
L 559.496911 510.306398 
L 551.43377 516.35095 
L 541.976856 522.696335 
L 533.627513 527.246017 
L 522.618322 532.496076 
L 513.821525 536.047651 
L 505.387705 538.740648 
L 497.052878 541.156756 
L 491.165387 542.684761 
L 440.356679 555.291053 
L 435.308654 556.852785 
L 429.836229 559.037742 
L 424.629991 561.489401 
L 415.705917 566.302407 
L 406.406655 570.994601 
L 399.632442 573.565761 
L 391.310439 576.335152 
L 381.446976 579.312595 
L 371.614443 582.290105 
L 364.003919 584.503627 
L 363.101255 583.846411 
L 357.821942 582.308611 
L 344.744938 577.784021 
L 332.373705 566.363923 
L 329.785612 563.558602 
L 319.970795 557.732556 
L 319.949898 547.976428 
L 326.393059 543.857528 
L 305.642506 531.810235 
L 300.547732 520.238237 
L 292.707208 517.252457 
L 285.71606 514.59019 
L 278.186656 517.934539 
L 272.741654 509.667934 
L 263.284655 503.490361 
L 265.625512 495.30891 
L 264.927314 488.811084 
L 256.58782 487.573452 
L 245.941897 477.784939 
L 253.460591 470.108036 
L 250.902822 466.811823 
L 249.729543 463.132338 
L 242.577697 461.520628 
L 240.813847 459.726049 
L 237.02793 449.775857 
L 234.119598 447.178917 
L 227.306899 446.478848 
L 223.789633 443.459654 
L 292.824542 443.394549 
L 292.820708 440.650389 
L 294.392279 440.647621 
L 294.449236 330.839697 
L 134.04326 331.134071 
L 124.205252 331.146275 
L 124.883515 330.2365 
L 128.422189 325.367153 
L 131.848385 320.441859 
L 135.160851 315.462429 
L 138.358349 310.430706 
L 141.439723 305.348531 
L 144.403802 300.217798 
L 147.249493 295.040389 
L 147.25791 295.024687 
L 151.362775 287.159792 
L 164.486362 261.681879 
L 166.336474 257.893832 
L 167.642805 255.395406 
L 168.969079 252.904212 
L 171.101081 249.223727 
L 173.279516 245.455654 
L 175.847904 241.249512 
L 178.531817 237.094104 
L 181.329825 232.991656 
L 184.240434 228.94435 
L 187.262083 224.954358 
L 190.39318 221.023795 
L 193.632049 217.154778 
L 196.976951 213.349354 
L 200.426113 209.609572 
L 203.977697 205.937425 
L 207.629799 202.334852 
L 211.380482 198.803807 
L 215.227728 195.346147 
L 219.169502 191.963743 
L 223.203689 188.658384 
L 227.328155 185.431833 
L 231.540669 182.285838 
L 235.839016 179.222053 
L 240.220866 176.242117 
L 244.683924 173.347629 
L 249.225762 170.540133 
L 253.844 167.82112 
L 258.53613 165.192051 
L 263.299673 162.654335 
L 268.132089 160.209311 
L 273.030785 157.858292 
L 277.993153 155.602536 
L 283.016536 153.443247 
L 288.09826 151.381587 
L 293.235619 149.418637 
L 298.425857 147.555451 
L 303.666202 145.793027 
L 308.953865 144.13231 
L 314.286009 142.57419 
L 318.566322 141.406223 
L 321.081145 140.753804 
L 321.081976 140.753585 
L 325.072387 139.768973 
L 330.520831 138.523397 
L 336.002257 137.383404 
L 341.513727 136.349611 
L 347.052306 135.422554 
L 352.615024 134.60274 
L 358.198929 133.89061 
L 363.801018 133.286548 
L 369.418305 132.790857 
L 375.047788 132.403828 
L 380.68648 132.12564 
L 386.331347 131.95646 
L 391.979386 131.896373 
L 397.627594 131.945409 
L 403.27292 132.103544 
L 408.912359 132.3707 
L 411.795388 132.549551 
L 420.185654 133.13604 
L 428.013099 133.940331 
L 547.334308 145.302667 
L 588.004552 149.685366 
L 588.008499 149.685826 
L 588.006907 158.079364 
L 587.306146 172.159467 
L 588.033069 181.445415 
L 590.193637 191.329362 
L 596.298859 204.805042 
L 599.897156 219.181382 
L 600.269268 231.762822 
L 597.772911 241.949964 
L 594.914741 248.842174 
L 588.480477 261.12936 
" style="fill:#1a1a1a;stroke:#ffffff;stroke-linejoin:miter;stroke-width:4;"/>
   </g>
  </g>
 </g>
 <defs>
  <clipPath id="paf5195039f">
   <rect height="543.6" width="558" x="90" y="86.4"/>
  </clipPath>
 </defs>
</svg>
