<?xml version="1.0" encoding="utf-8" standalone="no"?>
<!DOCTYPE svg PUBLIC "-//W3C//DTD SVG 1.1//EN"
  "http://www.w3.org/Graphics/SVG/1.1/DTD/svg11.dtd">
<!-- Created with matplotlib (https://matplotlib.org/) -->
<svg height="720pt" version="1.1" viewBox="0 0 720 720" width="720pt" xmlns="http://www.w3.org/2000/svg" xmlns:xlink="http://www.w3.org/1999/xlink">
 <metadata>
  <rdf:RDF xmlns:cc="http://creativecommons.org/ns#" xmlns:dc="http://purl.org/dc/elements/1.1/" xmlns:rdf="http://www.w3.org/1999/02/22-rdf-syntax-ns#">
   <cc:Work>
    <dc:type rdf:resource="http://purl.org/dc/dcmitype/StillImage"/>
    <dc:date>2021-05-28T08:56:49.024682</dc:date>
    <dc:format>image/svg+xml</dc:format>
    <dc:creator>
     <cc:Agent>
      <dc:title>Matplotlib v3.3.3, https://matplotlib.org/</dc:title>
     </cc:Agent>
    </dc:creator>
   </cc:Work>
  </rdf:RDF>
 </metadata>
 <defs>
  <style type="text/css">*{stroke-linecap:butt;stroke-linejoin:round;}</style>
 </defs>
 <g id="figure_1">
  <g id="patch_1">
   <path d="M 0 720 
L 720 720 
L 720 0 
L 0 0 
z
" style="fill:none;"/>
  </g>
  <g id="axes_1">
   <g id="patch_2">
    <path clip-path="url(#pa053a00a55)" d="M 534.811061 268.624458 
L 536.490212 271.139078 
L 536.816768 271.628117 
L 537.058929 271.990637 
L 537.56492 272.768989 
L 537.748073 273.050807 
L 538.230148 273.798354 
L 538.888051 274.833781 
L 538.969917 274.962454 
L 540.889748 278.067009 
L 541.65415 279.359848 
L 542.268643 280.404827 
L 543.409558 282.380263 
L 545.585746 286.314979 
L 547.618276 290.287372 
L 547.818024 290.682601 
L 549.075824 293.261671 
L 549.334858 293.799277 
L 549.965292 295.149438 
L 551.093064 297.657695 
L 552.152383 300.080657 
L 553.372332 302.938546 
L 554.496166 305.672269 
L 555.652219 308.561355 
L 556.776078 311.326164 
L 557.463955 312.993659 
L 559.474958 318.014422 
L 561.892667 324.647947 
L 564.571572 331.91321 
L 567.119928 338.925828 
L 586.572199 390.990645 
L 587.333848 393.259498 
L 594.045607 422.123768 
L 594.245037 423.668491 
L 595.074141 434.704742 
L 596.17987 449.437815 
L 596.640198 455.571475 
L 597.667563 469.261166 
L 598.113099 475.197913 
L 598.55766 480.022691 
L 599.446769 489.672231 
L 600.780397 504.146571 
L 601.790091 515.061515 
L 602.065253 517.674429 
L 602.437448 519.915746 
L 603.153718 523.382641 
L 603.987675 526.526389 
L 605.194733 530.25545 
L 606.14239 532.72545 
L 606.892769 534.471661 
L 607.478535 542.842326 
L 607.836814 552.467624 
L 608.20927 559.949709 
L 608.437117 566.925609 
L 587.498005 566.962776 
L 436.315068 567.244144 
L 434.889264 567.830346 
L 432.460255 569.198551 
L 322.183125 568.905118 
L 319.794355 566.853884 
L 282.197719 566.729545 
L 131.722398 566.243392 
L 129.562883 566.248163 
L 130.748929 270.758323 
L 130.746907 268.915754 
L 421.833906 269.383994 
L 421.804293 147.201449 
L 425.575899 148.823513 
L 446.534853 157.837764 
L 446.581871 157.976678 
L 447.776399 161.22133 
L 449.164234 164.777828 
L 450.583548 168.022053 
L 451.357612 169.737726 
L 452.700886 172.567551 
L 454.088847 175.384142 
L 455.848597 178.658982 
L 457.371367 181.442553 
L 459.16436 184.487893 
L 460.720313 187.009151 
L 461.734858 188.547989 
L 463.59756 191.356168 
L 465.666635 194.29516 
L 467.137786 196.298915 
L 469.29829 199.103996 
L 470.654046 200.824133 
L 471.623725 202.008884 
L 473.802419 204.580087 
L 475.916253 206.983971 
L 477.246061 208.399307 
L 479.368775 210.403308 
L 480.275151 211.365532 
L 481.434753 212.552774 
L 482.646973 213.752732 
L 483.951466 215.054812 
L 485.598502 216.688794 
L 487.126875 218.156753 
L 488.71142 219.692719 
L 490.076215 220.972052 
L 491.396997 222.219416 
L 493.224088 223.946539 
L 494.533848 225.172555 
L 494.922865 225.531542 
L 501.726272 231.867321 
L 503.632269 233.660771 
L 506.214366 236.062411 
L 508.615883 238.389202 
L 510.888179 240.540769 
L 513.289673 242.867572 
L 515.783127 245.427725 
L 517.935897 247.684157 
L 519.050792 248.89559 
L 521.182655 251.265449 
L 522.981047 253.322933 
L 523.534253 253.971177 
L 524.601585 255.233279 
L 526.514853 257.566491 
L 528.704981 260.313273 
L 529.515975 261.35657 
L 532.108679 264.790714 
L 534.811061 268.624458 
" style="fill:#1a1a1a;stroke:#ffffff;stroke-linejoin:miter;stroke-width:4;"/>
   </g>
  </g>
 </g>
 <defs>
  <clipPath id="pa053a00a55">
   <rect height="543.6" width="558" x="90" y="86.4"/>
  </clipPath>
 </defs>
</svg>
