<?xml version="1.0" encoding="utf-8" standalone="no"?>
<!DOCTYPE svg PUBLIC "-//W3C//DTD SVG 1.1//EN"
  "http://www.w3.org/Graphics/SVG/1.1/DTD/svg11.dtd">
<!-- Created with matplotlib (https://matplotlib.org/) -->
<svg height="720pt" version="1.1" viewBox="0 0 720 720" width="720pt" xmlns="http://www.w3.org/2000/svg" xmlns:xlink="http://www.w3.org/1999/xlink">
 <metadata>
  <rdf:RDF xmlns:cc="http://creativecommons.org/ns#" xmlns:dc="http://purl.org/dc/elements/1.1/" xmlns:rdf="http://www.w3.org/1999/02/22-rdf-syntax-ns#">
   <cc:Work>
    <dc:type rdf:resource="http://purl.org/dc/dcmitype/StillImage"/>
    <dc:date>2021-05-28T08:56:46.662146</dc:date>
    <dc:format>image/svg+xml</dc:format>
    <dc:creator>
     <cc:Agent>
      <dc:title>Matplotlib v3.3.3, https://matplotlib.org/</dc:title>
     </cc:Agent>
    </dc:creator>
   </cc:Work>
  </rdf:RDF>
 </metadata>
 <defs>
  <style type="text/css">*{stroke-linecap:butt;stroke-linejoin:round;}</style>
 </defs>
 <g id="figure_1">
  <g id="patch_1">
   <path d="M 0 720 
L 720 720 
L 720 0 
L 0 0 
z
" style="fill:none;"/>
  </g>
  <g id="axes_1">
   <g id="patch_2">
    <path clip-path="url(#p94d2ae7e9a)" d="M 383.502299 132.718416 
L 532.978551 132.772871 
L 536.374836 132.772754 
L 536.375206 133.884038 
L 536.262139 245.514835 
L 536.079869 358.474955 
L 536.040807 468.585951 
L 535.988146 583.702851 
L 210.900807 583.664961 
L 210.842252 583.664958 
L 211.777831 574.420075 
L 211.740276 566.704401 
L 211.594322 557.329416 
L 211.476764 549.77966 
L 211.360454 542.312853 
L 211.248104 535.094947 
L 211.14341 528.37483 
L 211.040071 521.73769 
L 211.090711 515.392333 
L 211.426669 509.792356 
L 211.777518 503.943484 
L 211.663715 497.783374 
L 211.4911 491.74769 
L 210.828121 485.027419 
L 210.047415 478.269782 
L 209.220132 472.296151 
L 209.164446 466.944952 
L 209.014206 461.655948 
L 208.404355 456.304607 
L 207.83139 451.276828 
L 207.306634 446.672183 
L 206.465407 440.885201 
L 205.575767 435.284883 
L 204.655679 429.248993 
L 203.793109 423.399798 
L 203.126017 417.799545 
L 202.641429 413.008235 
L 202.198546 408.223166 
L 201.891427 404.303034 
L 201.624794 398.765116 
L 201.651169 393.600622 
L 201.628277 388.420549 
L 201.725056 383.193855 
L 202.112117 377.780564 
L 202.730625 373.160693 
L 203.078451 368.676065 
L 203.541768 364.336154 
L 204.39447 359.912336 
L 205.317546 355.88756 
L 206.404437 351.442805 
L 207.631376 347.243105 
L 208.908984 342.903424 
L 210.179167 339.13074 
L 211.370996 335.701035 
L 212.564951 332.376338 
L 214.310452 328.491791 
L 215.665289 325.552135 
L 217.000865 322.752482 
L 218.413678 319.847859 
L 219.818546 316.915225 
L 221.083501 314.325551 
L 222.557037 311.525939 
L 223.956928 308.866301 
L 225.386768 306.171683 
L 226.72249 303.687037 
L 228.07706 301.167395 
L 229.394014 298.717746 
L 230.848872 296.197897 
L 232.191208 293.740765 
L 233.478287 291.4831 
L 234.856574 289.069485 
L 236.115247 286.86503 
L 237.376425 284.660368 
L 238.677628 282.385713 
L 239.954927 280.216044 
L 241.432138 277.766444 
L 242.740522 275.596798 
L 244.099561 273.343165 
L 245.555729 270.928547 
L 246.89159 268.569915 
L 248.232318 266.015271 
L 249.738325 263.145668 
L 251.262762 260.24107 
L 252.932143 257.021522 
L 254.31963 254.256893 
L 255.497497 251.492191 
L 256.772301 248.500038 
L 258.114219 245.350388 
L 259.545623 241.990765 
L 260.841293 238.8061 
L 262.275686 235.18397 
L 263.859762 231.183894 
L 265.104828 227.299216 
L 266.281142 223.309512 
L 267.319692 220.164702 
L 270.896177 210.86553 
L 271.439647 207.364565 
L 271.824777 203.576808 
L 282.08212 132.697149 
L 282.297469 132.697197 
L 383.502299 132.718416 
" style="fill:#1a1a1a;stroke:#ffffff;stroke-linejoin:miter;stroke-width:4;"/>
   </g>
  </g>
 </g>
 <defs>
  <clipPath id="p94d2ae7e9a">
   <rect height="543.6" width="558" x="90" y="86.4"/>
  </clipPath>
 </defs>
</svg>
