<?xml version="1.0" encoding="utf-8" standalone="no"?>
<!DOCTYPE svg PUBLIC "-//W3C//DTD SVG 1.1//EN"
  "http://www.w3.org/Graphics/SVG/1.1/DTD/svg11.dtd">
<!-- Created with matplotlib (https://matplotlib.org/) -->
<svg height="720pt" version="1.1" viewBox="0 0 720 720" width="720pt" xmlns="http://www.w3.org/2000/svg" xmlns:xlink="http://www.w3.org/1999/xlink">
 <metadata>
  <rdf:RDF xmlns:cc="http://creativecommons.org/ns#" xmlns:dc="http://purl.org/dc/elements/1.1/" xmlns:rdf="http://www.w3.org/1999/02/22-rdf-syntax-ns#">
   <cc:Work>
    <dc:type rdf:resource="http://purl.org/dc/dcmitype/StillImage"/>
    <dc:date>2021-05-28T08:56:48.955924</dc:date>
    <dc:format>image/svg+xml</dc:format>
    <dc:creator>
     <cc:Agent>
      <dc:title>Matplotlib v3.3.3, https://matplotlib.org/</dc:title>
     </cc:Agent>
    </dc:creator>
   </cc:Work>
  </rdf:RDF>
 </metadata>
 <defs>
  <style type="text/css">*{stroke-linecap:butt;stroke-linejoin:round;}</style>
 </defs>
 <g id="figure_1">
  <g id="patch_1">
   <path d="M 0 720 
L 720 720 
L 720 0 
L 0 0 
z
" style="fill:none;"/>
  </g>
  <g id="axes_1">
   <g id="patch_2">
    <path clip-path="url(#p09d395aafa)" d="M 354.51744 224.885665 
L 372.365477 243.343967 
L 395.054974 227.7407 
L 397.782126 225.790196 
L 403.621251 221.614001 
L 413.012746 234.549792 
L 422.188826 247.17507 
L 432.175441 260.92956 
L 442.372891 274.979922 
L 455.136461 292.583959 
L 464.010419 304.82797 
L 470.241336 313.424742 
L 483.28584 331.419827 
L 495.203205 347.837827 
L 512.120819 371.193258 
L 516.855107 377.694593 
L 527.369528 392.222746 
L 545.074632 416.629284 
L 559.476287 436.489913 
L 574.223768 456.832851 
L 579.695017 464.418685 
L 582.541576 468.502208 
L 585.172795 472.526511 
L 587.416246 476.224371 
L 589.689299 480.302422 
L 591.60673 484.030728 
L 592.686687 486.350004 
L 594.14459 489.561957 
L 595.418311 492.627116 
L 596.489781 495.393028 
L 597.534422 498.283727 
L 598.106607 499.918944 
L 599.056697 503.030579 
L 599.919488 505.975166 
L 600.301564 507.382607 
L 600.727793 509.125642 
L 601.158568 510.782082 
L 601.546083 512.520313 
L 601.915254 514.400199 
L 602.227627 516.084858 
L 602.516371 517.703851 
L 602.794875 519.525833 
L 603.218143 522.81769 
L 603.625374 526.336479 
L 604.347961 533.410377 
L 606.638347 556.355998 
L 607.979706 570.256338 
L 608.644403 576.89545 
L 606.334863 576.914571 
L 600.877966 576.776016 
L 588.915091 576.816521 
L 580.153974 576.846266 
L 562.677979 576.450897 
L 549.139271 577.638766 
L 542.18793 577.514944 
L 476.316067 577.17696 
L 410.573673 577.131485 
L 386.025919 575.738575 
L 370.84632 573.447697 
L 355.488483 569.811245 
L 342.324413 566.324193 
L 330.820407 562.53793 
L 318.723006 557.356271 
L 311.606769 554.167545 
L 302.82982 549.583566 
L 294.527079 544.800177 
L 284.326297 538.422232 
L 271.640218 528.812185 
L 262.363446 521.106083 
L 252.460734 511.867325 
L 245.319902 504.292234 
L 194.780792 447.718886 
L 194.824381 447.667675 
L 195.239347 447.162961 
L 195.720058 446.546355 
L 196.277025 445.985115 
L 196.881443 445.447712 
L 197.514068 444.846283 
L 198.014427 444.341232 
L 198.496143 443.892202 
L 199.043569 443.338969 
L 199.496289 442.802237 
L 199.882677 442.305693 
L 200.240889 441.857169 
L 200.788109 441.248078 
L 201.392533 440.710677 
L 202.015829 440.125257 
L 202.440156 439.596694 
L 202.968526 439.035607 
L 203.374578 438.642773 
L 203.827313 438.129893 
L 204.223444 437.641349 
L 204.657094 437.104625 
L 205.185277 436.487696 
L 205.62866 435.99098 
L 206.08099 435.390391 
L 206.628623 434.861167 
L 207.309132 434.347284 
L 207.904226 433.817891 
L 208.451476 433.20896 
L 208.914117 432.735933 
L 209.442512 432.167004 
L 209.914301 431.669968 
L 210.518745 431.10072 
L 211.046924 430.499641 
L 211.443062 430.0111 
L 211.876531 429.466533 
L 212.215681 428.978165 
L 212.64954 428.47328 
L 213.196797 427.864367 
L 213.68727 427.303452 
L 214.310368 426.686203 
L 214.791512 426.1573 
L 215.216246 425.724454 
L 215.716649 425.227413 
L 216.169767 424.746547 
L 216.414598 424.402245 
L 216.914207 423.777468 
L 217.300627 423.264925 
L 217.677698 422.784393 
L 218.149691 422.303365 
L 218.696959 421.702442 
L 219.206308 421.133537 
L 219.715432 420.508774 
L 220.196578 419.963869 
L 220.706498 419.466671 
L 221.225775 418.953623 
L 221.773034 418.368549 
L 222.188055 417.871847 
L 222.602681 417.319444 
L 222.951163 416.823075 
L 223.356441 416.302354 
L 223.714675 415.845993 
L 224.110632 415.333449 
L 224.316144 414.757864 
L 224.730774 414.205305 
L 225.079259 413.708936 
L 225.24745 413.213383 
L 225.453357 412.693672 
L 225.639825 412.102261 
L 225.836213 411.558687 
L 226.022858 410.991125 
L 226.123928 410.384202 
L 226.376718 409.760607 
L 226.620147 409.136999 
L 226.77822 408.5616 
L 226.993855 408.065893 
L 227.199781 407.538165 
L 227.291129 406.91524 
L 227.354446 406.332318 
L 227.427734 405.885133 
L 227.52938 405.36592 
L 227.630457 404.774829 
L 227.694403 404.327646 
L 227.758524 403.896452 
L 227.81213 403.329552 
L 227.846675 402.70694 
L 227.93841 402.115867 
L 228.029943 401.532796 
L 228.093282 400.958033 
L 228.128237 400.430977 
L 228.134373 399.840397 
L 228.121866 399.313839 
L 228.05275 398.811287 
L 227.95523 398.356756 
L 227.781468 397.83887 
L 227.69269 397.272619 
L 227.651774 396.730065 
L 227.705573 396.179154 
L 227.749655 395.572403 
L 227.70894 395.069843 
L 227.668815 394.694864 
L 227.598907 394.07275 
L 227.415018 393.458981 
L 227.392891 392.18149 
L 227.329823 391.91916 
L 227.099629 391.404254 
L 226.800803 390.794595 
L 226.657331 390.334129 
L 226.520728 389.753926 
L 226.393639 389.181425 
L 226.269416 388.728627 
L 226.125564 388.252141 
L 226.058126 387.798402 
L 226.039857 387.407868 
L 226.038011 386.913159 
L 226.038993 386.538154 
L 225.93022 385.925464 
L 225.83457 385.480206 
L 225.669756 384.916329 
L 225.564594 384.47123 
L 225.497533 384.025477 
L 225.430873 383.603574 
L 225.360585 383.022272 
L 225.264949 382.568996 
L 225.2179 382.170953 
L 225.073096 381.654613 
L 224.995176 381.153162 
L 224.943776 380.563539 
L 224.885675 380.093778 
L 224.819963 379.711744 
L 224.761314 379.225979 
L 224.702453 378.724209 
L 224.679453 378.126262 
L 224.640604 377.67203 
L 224.570523 377.098729 
L 224.501183 376.557265 
L 224.42404 376.087681 
L 224.325935 375.530848 
L 224.248963 375.069266 
L 224.064137 374.465854 
L 223.863646 373.99817 
L 223.661847 373.482787 
L 223.496251 372.887075 
L 223.417968 372.369635 
L 223.309763 371.788955 
L 223.22364 371.343521 
L 223.118282 370.882418 
L 222.896451 370.319498 
L 222.618595 369.797231 
L 222.291566 369.204072 
L 222.118719 368.71206 
L 222.13403 368.12948 
L 222.104709 367.675088 
L 222.015562 367.094105 
L 221.889055 366.545595 
L 221.761959 365.973079 
L 221.646501 365.488286 
L 221.491001 364.916248 
L 221.270705 364.417031 
L 221.01001 363.822897 
L 220.857949 363.40243 
L 220.657074 362.918899 
L 220.523126 362.466261 
L 220.32113 361.934874 
L 220.166388 361.394688 
L 220.125846 360.86875 
L 220.160025 360.277833 
L 219.899515 359.683543 
L 219.812647 359.206101 
L 219.755874 358.800201 
L 219.362125 358.199968 
L 219.102562 357.645531 
L 218.928949 357.113823 
L 218.793098 356.573319 
L 218.514095 356.003354 
L 218.360698 355.519026 
L 218.179474 355.075188 
L 217.918373 354.456892 
L 217.743254 353.853321 
L 217.597871 353.313133 
L 217.422562 352.701545 
L 217.269548 352.241067 
L 217.097834 351.79707 
L 216.848178 351.258479 
L 216.511798 350.67331 
L 216.120112 350.160945 
L 215.672214 349.689406 
L 215.223741 349.185859 
L 214.630026 348.564986 
L 214.192014 348.101118 
L 213.779575 347.517226 
L 213.356842 346.89364 
L 213.03246 346.420013 
L 212.65087 345.931512 
L 212.220695 345.395795 
L 211.770509 344.820387 
L 211.300881 344.229451 
L 210.907495 343.63738 
L 210.418613 343.030759 
L 209.970118 342.5352 
L 209.531549 342.0475 
L 209.166375 341.446808 
L 208.755449 340.926778 
L 208.296278 340.375537 
L 207.721802 339.762335 
L 207.206604 339.251906 
L 206.806916 338.803407 
L 206.251881 338.213909 
L 205.519544 337.770696 
L 204.885177 337.45375 
L 204.240724 337.104799 
L 203.711595 336.818123 
L 202.995843 336.263033 
L 202.288878 335.675761 
L 201.546071 335.184838 
L 200.831076 334.661759 
L 200.163756 334.153729 
L 199.58069 333.580545 
L 199.016687 333.015059 
L 198.271591 332.420425 
L 197.720523 332.00635 
L 197.043666 331.490464 
L 196.5315 331.115606 
L 195.941165 330.646297 
L 195.342264 330.209015 
L 194.829888 329.826155 
L 194.123866 329.2869 
L 193.514672 328.817911 
L 192.924713 328.364467 
L 192.180179 327.793859 
L 191.569845 327.284861 
L 191.02849 326.878616 
L 190.284908 326.355865 
L 189.657409 325.919066 
L 189.068207 325.497616 
L 188.4104 324.981416 
L 187.724571 324.489717 
L 187.070175 324.13309 
L 186.424562 323.736465 
L 185.846219 323.370559 
L 185.161912 322.950567 
L 184.621521 322.58418 
L 183.946189 322.132146 
L 183.348994 321.782564 
L 182.763042 321.50467 
L 182.148893 321.235117 
L 181.410059 320.919784 
L 180.687832 320.500403 
L 180.11713 320.054632 
L 179.476874 319.4824 
L 178.752548 318.967324 
L 178.129227 318.713921 
L 177.46666 318.413317 
L 176.769953 317.857909 
L 176.111771 317.325695 
L 175.406505 316.818288 
L 174.674166 316.367234 
L 174.047225 315.962279 
L 173.449637 315.588838 
L 172.870558 315.191086 
L 172.327872 314.728992 
L 171.696944 314.140601 
L 171.248047 313.629069 
L 170.664964 313.055884 
L 170.158894 312.529291 
L 169.612965 311.923631 
L 168.990992 311.311247 
L 168.344028 310.858743 
L 167.812794 310.484202 
L 167.118362 310.032513 
L 166.413271 309.525111 
L 165.66739 308.906649 
L 165.027474 308.342271 
L 164.340874 307.818562 
L 163.654845 307.31886 
L 163.074594 306.873399 
L 162.486544 306.499662 
L 161.888563 306.110238 
L 161.201578 305.570668 
L 160.686329 305.060244 
L 160.064347 304.45571 
L 159.595798 303.904633 
L 159.153958 303.281371 
L 158.876228 302.767264 
L 158.711541 302.211242 
L 158.689046 301.645133 
L 158.828601 301.092466 
L 158.597766 300.553568 
L 158.101024 300.026821 
L 157.378363 299.583605 
L 156.74568 299.338234 
L 156.066124 299.125672 
L 155.374537 298.801539 
L 154.807239 298.507351 
L 154.141595 298.071195 
L 153.485268 297.618859 
L 152.752328 297.143813 
L 152.068554 296.747816 
L 151.463339 296.462271 
L 150.877929 296.208259 
L 150.223317 295.835648 
L 149.584161 295.303287 
L 149.049646 294.785186 
L 148.638276 294.249158 
L 148.21739 293.705304 
L 147.643602 293.13197 
L 147.1844 292.580738 
L 146.765404 292.124735 
L 146.238505 291.518781 
L 145.711816 290.920642 
L 145.369068 290.471377 
L 145.062733 289.957596 
L 144.554707 289.351307 
L 144.046695 288.737174 
L 143.520559 288.17106 
L 142.937628 287.605749 
L 142.324942 286.99322 
L 141.884986 286.449672 
L 141.464076 285.913807 
L 141.111222 285.440681 
L 140.933753 285.15627 
L 140.453933 284.533656 
L 140.012449 283.926249 
L 139.534915 283.399347 
L 139.038704 282.896614 
L 138.296592 282.437585 
L 137.766451 282.110913 
L 137.173772 281.53792 
L 136.829509 281.024782 
L 136.598825 280.493875 
L 136.424034 279.914324 
L 136.241196 279.390635 
L 135.992422 278.899902 
L 135.647948 278.378777 
L 135.304064 277.881487 
L 134.844637 277.322415 
L 134.271209 276.764951 
L 133.529851 276.337933 
L 133.059551 275.715162 
L 132.714311 275.162171 
L 132.388899 274.648714 
L 132.092462 274.150796 
L 131.786699 273.653023 
L 131.537901 273.162307 
L 131.202399 272.617001 
L 130.90537 272.095235 
L 130.617717 271.565133 
L 130.395032 270.97038 
L 130.326784 270.476777 
L 130.25739 269.935319 
L 130.168149 269.354312 
L 130.166072 268.851587 
L 130.201507 268.316541 
L 130.171005 267.814296 
L 130.253912 267.286437 
L 130.48801 266.716161 
L 130.646027 266.147182 
L 130.565381 265.52602 
L 130.410199 264.969983 
L 130.381777 264.555605 
L 130.39626 263.941015 
L 130.429428 263.318088 
L 130.472678 262.711005 
L 130.479156 262.16042 
L 130.457041 261.610159 
L 130.428046 261.171774 
L 130.413745 260.549648 
L 130.404404 260.134949 
L 130.306206 259.58597 
L 130.035891 258.97584 
L 129.860499 258.372284 
L 129.799682 257.790812 
L 129.778692 257.288564 
L 129.765131 256.690287 
L 129.714054 256.116657 
L 129.596026 255.528128 
L 129.488883 254.995156 
L 129.362677 254.462662 
L 129.387058 253.871903 
L 129.355597 253.321802 
L 129.419648 252.794106 
L 129.530197 252.225928 
L 129.595016 251.738242 
L 129.653165 251.370278 
L 129.793457 250.857305 
L 129.894857 250.305135 
L 129.985595 249.697407 
L 130.066421 249.073679 
L 130.064112 248.555106 
L 130.102626 248.163613 
L 130.145498 247.548528 
L 130.22766 246.980658 
L 130.31878 246.388794 
L 130.399973 245.789072 
L 130.50082 245.213036 
L 130.577251 244.8129 
L 130.639015 244.189508 
L 130.758349 243.581301 
L 130.85213 243.116984 
L 130.981954 242.556473 
L 131.09365 242.035978 
L 131.260459 241.434987 
L 131.373304 240.970351 
L 131.504063 240.449708 
L 131.644568 239.944738 
L 131.802037 239.351737 
L 131.905729 238.895419 
L 132.055365 238.3743 
L 132.205402 237.869326 
L 132.310242 237.46871 
L 132.37678 237.052746 
L 132.467503 236.444862 
L 132.663676 235.883229 
L 132.925026 235.256772 
L 132.996704 235.072085 
L 133.194591 234.574313 
L 133.419345 234.020061 
L 133.635899 233.513966 
L 133.880113 232.967537 
L 134.113442 232.365426 
L 134.489394 231.769072 
L 134.800701 231.253374 
L 135.148418 230.665346 
L 135.404058 230.206482 
L 135.686977 229.691422 
L 135.912878 229.185167 
L 136.148708 228.686771 
L 136.432185 228.203421 
L 136.790199 227.647226 
L 137.071579 227.076167 
L 137.391673 226.520628 
L 137.749502 225.964276 
L 138.135355 225.383768 
L 138.436959 224.852399 
L 138.802795 224.232185 
L 139.066827 223.725306 
L 139.347652 223.12238 
L 139.704908 222.534193 
L 140.065029 222.073727 
L 140.526017 221.451928 
L 140.838285 220.976242 
L 141.083065 220.461666 
L 141.328226 219.963111 
L 141.593042 219.488241 
L 141.952212 218.987749 
L 142.385748 218.406442 
L 142.687933 217.906926 
L 143.028059 217.406754 
L 143.359203 216.922747 
L 143.764718 216.365769 
L 144.095123 215.857772 
L 144.407205 215.374085 
L 144.718158 214.834556 
L 145.039413 214.342707 
L 145.377057 213.72299 
L 145.707464 213.215134 
L 146.001052 212.747631 
L 146.386572 212.151105 
L 146.714308 211.523547 
L 146.996478 210.976481 
L 147.210968 210.382679 
L 147.445857 209.844274 
L 147.74843 209.360748 
L 148.238412 208.762479 
L 148.626758 208.285515 
L 149.126273 207.687243 
L 149.568784 207.089774 
L 150.004241 206.596006 
L 150.646363 205.995334 
L 151.071891 205.485895 
L 151.478011 204.960914 
L 151.78972 204.46124 
L 152.217886 203.956038 
L 152.427308 203.708843 
L 152.760346 203.254493 
L 153.245483 202.672545 
L 153.645056 202.170318 
L 154.092107 201.676093 
L 154.672405 201.150131 
L 155.214385 200.656033 
L 155.661591 200.08993 
L 156.317634 199.667659 
L 156.802797 199.17358 
L 157.440084 198.559874 
L 158.096218 197.962026 
L 158.619351 197.48394 
L 159.256632 196.894101 
L 159.798787 196.32014 
L 160.16026 195.865784 
L 160.693085 195.323819 
L 161.159064 194.925304 
L 177.640138 189.250916 
L 178.267515 189.099956 
L 178.856727 188.86114 
L 179.503125 188.606303 
L 180.149536 188.335604 
L 180.871992 188.049065 
L 181.480266 187.802228 
L 181.936625 187.603307 
L 182.535371 187.364491 
L 183.229246 187.109626 
L 183.704645 186.894697 
L 184.398682 186.536291 
L 185.035537 186.201736 
L 185.577462 185.954936 
L 186.299914 185.604525 
L 186.832295 185.32586 
L 187.364691 185.039052 
L 188.001731 184.696497 
L 188.667179 184.346104 
L 189.36118 183.931843 
L 189.874693 183.629179 
L 190.235907 183.398124 
L 190.949144 182.943988 
L 191.53852 182.585617 
L 192.023458 182.330661 
L 192.745898 181.980254 
L 193.325947 181.661741 
L 193.924847 181.279346 
L 194.618884 180.896939 
L 195.217822 180.602428 
L 195.892973 180.243862 
L 196.434902 179.941208 
L 196.98616 179.646539 
L 197.490157 179.367746 
L 198.10812 179.017372 
L 198.840435 178.483528 
L 199.51557 178.029267 
L 200.23801 177.663017 
L 200.855991 177.30447 
L 201.436027 176.938104 
L 201.873295 176.691184 
L 202.59592 176.269062 
L 203.175964 175.918544 
L 203.775048 175.504161 
L 204.478764 175.042034 
L 205.096742 174.667658 
L 205.638659 174.317152 
L 206.142779 173.910783 
L 206.865394 173.400812 
L 207.607056 172.938849 
L 208.158507 172.588327 
L 208.852867 172.03851 
L 209.58517 171.488684 
L 210.212655 171.034427 
L 210.821453 170.58835 
L 211.411018 170.189978 
L 212.00055 169.751737 
L 212.542644 169.36138 
L 213.132184 168.891131 
L 213.636305 168.468777 
L 214.292537 167.855098 
L 214.492448 167.639926 
L 215.03453 167.20956 
L 215.453205 166.659665 
L 215.833944 166.125456 
L 216.081618 165.631137 
L 216.329118 165.168669 
L 216.652693 164.714183 
L 217.176051 164.188268 
L 217.69905 163.702034 
L 218.222414 163.191967 
L 218.65047 162.721763 
L 219.040567 162.211574 
L 219.468792 161.693358 
L 219.849376 161.231013 
L 220.220585 160.688978 
L 220.563372 160.114926 
L 220.887269 159.508871 
L 221.068093 159.173986 
L 221.363411 158.615952 
L 221.667912 158.121634 
L 222.001165 157.539583 
L 222.343957 156.973534 
L 222.667854 156.359634 
L 222.943944 155.809466 
L 223.239261 155.243273 
L 223.401491 154.66111 
L 223.497201 154.086811 
L 223.65944 153.528655 
L 223.802631 153.018203 
L 223.93613 152.579617 
L 224.031677 152.117034 
L 224.108476 151.502886 
L 224.356301 150.888849 
L 224.670346 150.410519 
L 224.794209 150.195212 
L 225.022834 149.716904 
L 225.222885 149.30215 
L 225.422923 148.903557 
L 225.708552 148.409246 
L 225.918091 147.874928 
L 226.175179 147.532179 
L 226.641339 146.95827 
L 227.060226 146.424211 
L 227.402688 145.953876 
L 227.659883 145.443552 
L 227.936161 144.877381 
L 228.259888 144.287332 
L 228.422158 143.800883 
L 228.717289 143.210842 
L 229.060089 142.636808 
L 229.269802 142.054791 
L 229.451104 141.472625 
L 229.765301 140.882579 
L 230.051122 140.388253 
L 230.317849 139.814067 
L 230.565513 139.248045 
L 230.856179 138.761234 
L 254.443507 154.144307 
L 267.272587 162.442367 
L 270.225739 164.221487 
L 273.017182 165.76421 
L 276.271987 167.377902 
L 279.593446 168.850703 
L 282.125302 169.865641 
L 284.612319 170.774432 
L 286.574001 171.428225 
L 288.470428 172.015036 
L 291.655201 172.922365 
L 294.73033 173.713881 
L 297.014265 174.234179 
L 299.725513 174.76877 
L 302.210583 175.185214 
L 305.091838 175.589239 
L 307.680642 175.882896 
L 310.440151 176.117985 
L 312.731873 176.24881 
L 315.240094 176.321482 
L 316.275813 176.32873 
L 316.276758 179.985856 
L 316.719261 191.214729 
L 316.719729 193.028495 
L 317.773025 193.513174 
L 320.125135 194.500017 
L 327.04412 197.877168 
L 338.127846 203.287282 
L 340.694525 204.612781 
L 342.866403 206.104089 
L 344.906731 207.926869 
L 346.289003 209.805002 
L 347.408098 211.959394 
L 351.160581 220.411329 
L 352.74032 222.676118 
L 354.51744 224.885665 
" style="fill:#1a1a1a;stroke:#ffffff;stroke-linejoin:miter;stroke-width:4;"/>
   </g>
  </g>
 </g>
 <defs>
  <clipPath id="p09d395aafa">
   <rect height="543.6" width="558" x="90" y="86.4"/>
  </clipPath>
 </defs>
</svg>
