<?xml version="1.0" encoding="utf-8" standalone="no"?>
<!DOCTYPE svg PUBLIC "-//W3C//DTD SVG 1.1//EN"
  "http://www.w3.org/Graphics/SVG/1.1/DTD/svg11.dtd">
<!-- Created with matplotlib (https://matplotlib.org/) -->
<svg height="720pt" version="1.1" viewBox="0 0 720 720" width="720pt" xmlns="http://www.w3.org/2000/svg" xmlns:xlink="http://www.w3.org/1999/xlink">
 <metadata>
  <rdf:RDF xmlns:cc="http://creativecommons.org/ns#" xmlns:dc="http://purl.org/dc/elements/1.1/" xmlns:rdf="http://www.w3.org/1999/02/22-rdf-syntax-ns#">
   <cc:Work>
    <dc:type rdf:resource="http://purl.org/dc/dcmitype/StillImage"/>
    <dc:date>2021-05-28T08:56:48.200301</dc:date>
    <dc:format>image/svg+xml</dc:format>
    <dc:creator>
     <cc:Agent>
      <dc:title>Matplotlib v3.3.3, https://matplotlib.org/</dc:title>
     </cc:Agent>
    </dc:creator>
   </cc:Work>
  </rdf:RDF>
 </metadata>
 <defs>
  <style type="text/css">*{stroke-linecap:butt;stroke-linejoin:round;}</style>
 </defs>
 <g id="figure_1">
  <g id="patch_1">
   <path d="M 0 720 
L 720 720 
L 720 0 
L 0 0 
z
" style="fill:none;"/>
  </g>
  <g id="axes_1">
   <g id="patch_2">
    <path clip-path="url(#pab2a75086a)" d="M 291.818496 166.228767 
L 360.509795 166.318146 
L 401.34003 166.138327 
L 435.661418 166.07244 
L 473.17425 166.203216 
L 476.421249 166.176445 
L 490.590752 166.194562 
L 502.96437 166.21053 
L 529.877832 166.528579 
L 547.216563 166.578386 
L 547.752682 166.577466 
L 547.976659 169.053835 
L 548.388902 170.882424 
L 548.885913 172.479898 
L 549.578524 174.405775 
L 550.229445 175.999536 
L 551.133586 177.905397 
L 552.669173 180.471167 
L 554.082693 182.430786 
L 555.279131 183.84244 
L 556.703308 185.315369 
L 558.486572 186.902411 
L 559.987711 188.114554 
L 570.523544 196.693051 
L 576.750327 201.746433 
L 580.544121 204.856556 
L 585.461045 208.78563 
L 587.284795 210.687943 
L 588.703681 212.425351 
L 590.334286 214.798533 
L 592.170184 218.365358 
L 593.69922 221.903556 
L 595.156288 226.839501 
L 595.988042 231.726525 
L 596.200443 235.171624 
L 596.336136 241.566971 
L 596.632641 248.971101 
L 597.412703 266.361756 
L 597.432654 359.664144 
L 597.464774 452.286127 
L 597.383489 508.216383 
L 596.14236 532.809054 
L 594.540859 550.543036 
L 285.032371 550.851304 
L 229.527516 550.26888 
L 219.098492 549.984057 
L 213.125727 549.233661 
L 205.541374 548.015202 
L 197.578062 546.048669 
L 190.041063 543.813445 
L 181.336671 540.054223 
L 170.891614 534.792088 
L 140.535226 519.435733 
L 155.179547 497.436601 
L 164.968397 481.613993 
L 174.167404 464.121499 
L 181.009332 449.535027 
L 186.098287 436.135273 
L 189.907387 425.475164 
L 196.264841 404.997301 
L 199.610678 391.435998 
L 202.47905 378.756581 
L 203.988821 369.813845 
L 205.070004 363.211047 
L 205.56454 358.476078 
L 206.844473 347.010762 
L 208.266591 328.914076 
L 208.729308 306.563442 
L 208.626849 281.05836 
L 208.524968 253.515001 
L 208.817296 236.688046 
L 209.514316 212.357893 
L 209.512317 200.751097 
L 207.94407 191.484225 
L 207.145278 185.064274 
L 206.301686 172.968995 
L 206.088646 167.454448 
L 206.137105 165.548696 
L 232.738354 166.148354 
L 291.818496 166.228767 
" style="fill:#1a1a1a;stroke:#ffffff;stroke-linejoin:miter;stroke-width:4;"/>
   </g>
  </g>
 </g>
 <defs>
  <clipPath id="pab2a75086a">
   <rect height="543.6" width="558" x="90" y="86.4"/>
  </clipPath>
 </defs>
</svg>
