<?xml version="1.0" encoding="utf-8" standalone="no"?>
<!DOCTYPE svg PUBLIC "-//W3C//DTD SVG 1.1//EN"
  "http://www.w3.org/Graphics/SVG/1.1/DTD/svg11.dtd">
<!-- Created with matplotlib (https://matplotlib.org/) -->
<svg height="720pt" version="1.1" viewBox="0 0 720 720" width="720pt" xmlns="http://www.w3.org/2000/svg" xmlns:xlink="http://www.w3.org/1999/xlink">
 <metadata>
  <rdf:RDF xmlns:cc="http://creativecommons.org/ns#" xmlns:dc="http://purl.org/dc/elements/1.1/" xmlns:rdf="http://www.w3.org/1999/02/22-rdf-syntax-ns#">
   <cc:Work>
    <dc:type rdf:resource="http://purl.org/dc/dcmitype/StillImage"/>
    <dc:date>2021-05-28T08:56:53.276702</dc:date>
    <dc:format>image/svg+xml</dc:format>
    <dc:creator>
     <cc:Agent>
      <dc:title>Matplotlib v3.3.3, https://matplotlib.org/</dc:title>
     </cc:Agent>
    </dc:creator>
   </cc:Work>
  </rdf:RDF>
 </metadata>
 <defs>
  <style type="text/css">*{stroke-linecap:butt;stroke-linejoin:round;}</style>
 </defs>
 <g id="figure_1">
  <g id="patch_1">
   <path d="M 0 720 
L 720 720 
L 720 0 
L 0 0 
z
" style="fill:none;"/>
  </g>
  <g id="axes_1">
   <g id="patch_2">
    <path clip-path="url(#p6c38cccff7)" d="M 452.396019 410.796484 
L 453.883655 411.589714 
L 455.708687 411.483311 
L 456.910348 411.512436 
L 458.492621 411.930797 
L 460.300997 412.403912 
L 461.932454 412.765917 
L 463.591158 413.277413 
L 464.722268 413.643405 
L 466.179451 414.062618 
L 467.762302 414.518534 
L 469.596362 415.066373 
L 471.279596 415.540306 
L 472.912184 415.995826 
L 474.520078 416.432954 
L 476.302797 416.86891 
L 478.135816 417.322876 
L 480.019056 417.814328 
L 481.751521 418.231946 
L 483.208193 418.595208 
L 484.96739 419.143468 
L 486.400563 419.637807 
L 488.233015 420.073372 
L 490.092209 420.6021 
L 491.69903 420.964539 
L 493.229508 421.271434 
L 494.759916 421.559554 
L 496.26579 421.885241 
L 498.02496 422.414769 
L 499.831788 422.794396 
L 501.238153 423.139656 
L 503.096828 423.649579 
L 504.478628 424.051183 
L 505.885612 424.470811 
L 507.417612 424.871222 
L 509.251099 425.362792 
L 511.210252 425.891068 
L 512.793082 426.347041 
L 514.300476 426.766245 
L 515.958642 427.258991 
L 517.539874 427.602719 
L 519.296954 427.982754 
L 520.979151 428.382346 
L 522.661966 428.856304 
L 524.192895 429.18162 
L 524.24392 429.233463 
L 525.682961 429.985557 
L 527.417522 430.496303 
L 529.07507 430.876438 
L 530.733179 431.275312 
L 532.240575 431.656973 
L 533.849466 432.130981 
L 535.683924 432.62216 
L 536.990334 432.949123 
L 538.749444 433.441084 
L 540.281932 433.80359 
L 542.090207 434.220054 
L 543.672433 434.582164 
L 544.414285 434.725972 
L 534.827837 459.980698 
L 533.150722 471.812493 
L 532.232224 484.040636 
L 531.988857 494.177658 
L 530.963354 507.142903 
L 446.067638 504.285658 
L 362.081403 501.462128 
L 363.735988 462.398424 
L 278.761692 459.79269 
L 193.585715 456.720229 
L 195.842955 418.014209 
L 198.89361 380.062657 
L 198.061713 335.932084 
L 197.785508 313.69603 
L 197.700303 209.257097 
L 198.770097 209.726566 
L 200.294201 210.281798 
L 202.172638 211.048475 
L 203.803345 212.186417 
L 205.39887 213.19185 
L 206.993885 214.144271 
L 208.730727 215.123102 
L 210.503047 216.075403 
L 212.27525 216.974692 
L 213.799392 217.609487 
L 215.607104 218.508754 
L 217.415022 219.619707 
L 218.904423 220.810766 
L 220.322818 221.974999 
L 222.236975 223.377458 
L 223.584621 224.648099 
L 224.896755 225.918434 
L 226.421815 227.321158 
L 227.981422 227.929392 
L 229.753286 228.563659 
L 231.171733 229.781242 
L 232.731324 230.786712 
L 234.290845 231.368479 
L 235.779191 232.10893 
L 237.622801 233.431925 
L 239.183148 234.702466 
L 240.814035 236.025605 
L 242.445045 237.084046 
L 244.146341 237.983399 
L 245.635502 239.041568 
L 246.557905 240.206513 
L 248.117684 241.423676 
L 249.678017 242.694222 
L 250.529669 243.964837 
L 251.80631 245.235206 
L 253.154062 246.664568 
L 253.438588 247.776928 
L 253.156977 249.101316 
L 253.158259 250.213865 
L 254.505992 251.590214 
L 255.499304 252.754709 
L 256.209056 254.025826 
L 256.221943 254.052692 
L 256.564058 254.767043 
L 257.273604 255.455379 
L 257.983226 256.620101 
L 258.268431 257.891464 
L 258.694985 259.162403 
L 259.971737 260.538801 
L 261.531427 261.703326 
L 262.808717 263.079725 
L 263.943495 264.350156 
L 264.937047 265.726745 
L 265.646787 266.997496 
L 266.357019 268.268615 
L 267.350567 269.645204 
L 268.769148 271.021512 
L 270.186983 272.186135 
L 270.896958 273.244795 
L 271.181658 274.516197 
L 272.033232 275.786855 
L 273.309838 277.057232 
L 274.586934 278.32794 
L 275.154696 279.49276 
L 275.72295 280.657947 
L 277.141265 281.822204 
L 277.992707 282.987205 
L 278.702799 284.151931 
L 279.695588 285.316839 
L 280.547151 286.587462 
L 281.399207 287.85849 
L 282.39204 289.023031 
L 283.952436 290.399251 
L 284.803745 291.458226 
L 285.938859 292.623042 
L 286.79029 293.787677 
L 287.782943 294.846523 
L 288.63499 296.117185 
L 289.344703 297.387941 
L 290.337845 298.446824 
L 291.047681 299.823607 
L 291.899106 300.988612 
L 292.32513 301.835814 
L 293.035206 303.000874 
L 293.744913 304.271631 
L 294.59621 305.330609 
L 295.306284 306.495338 
L 296.157952 307.871993 
L 296.725563 308.507416 
L 297.470927 309.950445 
L 298.676542 311.194371 
L 299.705598 312.650468 
L 300.451219 313.895064 
L 301.231774 315.112762 
L 302.083527 316.568976 
L 303.041658 318.025083 
L 303.893037 319.163583 
L 304.602545 320.275302 
L 305.277178 321.466932 
L 306.128845 322.896603 
L 306.944698 323.981745 
L 307.512888 325.120432 
L 307.97473 326.285694 
L 308.223907 327.530248 
L 305.326988 347.434788 
L 307.170831 348.673514 
L 308.659112 349.503827 
L 310.245758 350.221054 
L 311.327773 350.661761 
L 313.089834 351.415359 
L 314.925564 352.037811 
L 316.65924 352.567225 
L 318.218111 353.079414 
L 320.050666 353.514888 
L 321.583812 353.971136 
L 323.069961 354.670394 
L 324.731476 355.406024 
L 325.863183 355.809152 
L 327.29698 356.34057 
L 329.031142 356.870358 
L 330.992508 357.547593 
L 332.95283 358.131723 
L 334.611103 358.624344 
L 336.245308 359.173307 
L 337.957631 359.945725 
L 339.84732 360.866726 
L 340.996453 361.397265 
L 342.415508 362.006747 
L 344.253402 362.815866 
L 345.6374 363.347692 
L 347.223534 364.02779 
L 348.836355 364.875711 
L 350.45023 365.742445 
L 352.190285 366.701836 
L 354.080587 367.697211 
L 354.611485 368.086007 
L 356.554692 369.26767 
L 356.866694 369.495724 
L 358.750731 370.616277 
L 360.692329 371.686026 
L 362.4607 372.86924 
L 363.673664 373.72 
L 368.542084 375.756975 
L 376.942556 379.271872 
L 378.773844 379.928268 
L 380.335322 380.645912 
L 381.997818 381.418715 
L 383.584944 382.173564 
L 385.323385 383.039463 
L 386.784372 383.73917 
L 388.571418 384.473611 
L 390.232375 385.153277 
L 391.792775 385.796229 
L 393.379893 386.551045 
L 395.168558 387.416587 
L 396.87809 387.983572 
L 398.060015 388.4051 
L 399.718808 388.916564 
L 401.304289 389.577875 
L 403.042764 390.44382 
L 404.62934 391.161091 
L 406.214333 391.785222 
L 407.523991 392.373851 
L 409.485314 393.069906 
L 411.095934 393.712468 
L 412.659011 394.560819 
L 414.271813 395.352812 
L 416.085083 396.217981 
L 417.696765 396.935243 
L 419.508944 397.707272 
L 420.968818 398.313448 
L 422.352256 398.826934 
L 423.786458 399.377168 
L 425.571964 400.0373 
L 427.332192 400.641452 
L 427.985414 400.823651 
L 429.596644 401.540955 
L 431.557929 402.218248 
L 433.118322 402.879994 
L 434.756196 403.69039 
L 436.291429 404.314933 
L 437.776429 404.939545 
L 439.560788 405.506174 
L 441.145738 406.111545 
L 442.705086 406.67975 
L 444.240335 407.32311 
L 446.052452 408.057602 
L 447.360458 408.5527 
L 449.070538 409.157262 
L 450.654435 409.706717 
L 452.396019 410.796484 
" style="fill:#1a1a1a;stroke:#ffffff;stroke-linejoin:miter;stroke-width:4;"/>
   </g>
  </g>
 </g>
 <defs>
  <clipPath id="p6c38cccff7">
   <rect height="543.6" width="558" x="90" y="86.4"/>
  </clipPath>
 </defs>
</svg>
