<?xml version="1.0" encoding="utf-8" standalone="no"?>
<!DOCTYPE svg PUBLIC "-//W3C//DTD SVG 1.1//EN"
  "http://www.w3.org/Graphics/SVG/1.1/DTD/svg11.dtd">
<!-- Created with matplotlib (https://matplotlib.org/) -->
<svg height="720pt" version="1.1" viewBox="0 0 720 720" width="720pt" xmlns="http://www.w3.org/2000/svg" xmlns:xlink="http://www.w3.org/1999/xlink">
 <metadata>
  <rdf:RDF xmlns:cc="http://creativecommons.org/ns#" xmlns:dc="http://purl.org/dc/elements/1.1/" xmlns:rdf="http://www.w3.org/1999/02/22-rdf-syntax-ns#">
   <cc:Work>
    <dc:type rdf:resource="http://purl.org/dc/dcmitype/StillImage"/>
    <dc:date>2021-05-28T08:56:49.045332</dc:date>
    <dc:format>image/svg+xml</dc:format>
    <dc:creator>
     <cc:Agent>
      <dc:title>Matplotlib v3.3.3, https://matplotlib.org/</dc:title>
     </cc:Agent>
    </dc:creator>
   </cc:Work>
  </rdf:RDF>
 </metadata>
 <defs>
  <style type="text/css">*{stroke-linecap:butt;stroke-linejoin:round;}</style>
 </defs>
 <g id="figure_1">
  <g id="patch_1">
   <path d="M 0 720 
L 720 720 
L 720 0 
L 0 0 
z
" style="fill:none;"/>
  </g>
  <g id="axes_1">
   <g id="patch_2">
    <path clip-path="url(#p5b4d470ec1)" d="M 580.541668 165.435517 
L 580.590558 306.976099 
L 580.744524 339.877038 
L 580.911437 360.871236 
L 581.089981 371.175865 
L 581.267437 381.223222 
L 581.82156 390.890877 
L 582.570664 402.893531 
L 583.688716 424.655899 
L 584.993779 445.427863 
L 586.676286 466.362289 
L 589.116595 490.450922 
L 589.823817 496.802369 
L 591.727235 513.896715 
L 592.311002 519.13949 
L 596.451571 549.292977 
L 596.652584 550.611474 
L 589.762566 550.611774 
L 444.148377 550.632116 
L 345.925712 550.648236 
L 343.502547 550.531963 
L 248.417887 550.395878 
L 141.347416 550.964483 
L 142.974655 533.25586 
L 144.235731 508.698355 
L 144.318323 452.848078 
L 144.285687 360.358541 
L 144.265415 267.189571 
L 151.046643 267.42234 
L 157.811769 267.477342 
L 163.367387 266.810475 
L 169.061644 265.206963 
L 173.180015 263.3044 
L 175.622652 261.759057 
L 178.424725 259.509568 
L 181.160562 256.648628 
L 182.302916 255.160966 
L 183.669712 252.983907 
L 185.209582 249.905661 
L 186.380313 246.565279 
L 187.141257 242.822361 
L 187.304878 237.966317 
L 187.254085 233.85505 
L 187.350753 167.309089 
L 189.937993 167.30848 
L 283.550637 166.955217 
L 303.659692 167.119733 
L 324.375278 167.021402 
L 580.518171 165.435658 
L 580.541668 165.435517 
" style="fill:#1a1a1a;stroke:#ffffff;stroke-linejoin:miter;stroke-width:4;"/>
   </g>
  </g>
 </g>
 <defs>
  <clipPath id="p5b4d470ec1">
   <rect height="543.6" width="558" x="90" y="86.4"/>
  </clipPath>
 </defs>
</svg>
