<?xml version="1.0" encoding="utf-8" standalone="no"?>
<!DOCTYPE svg PUBLIC "-//W3C//DTD SVG 1.1//EN"
  "http://www.w3.org/Graphics/SVG/1.1/DTD/svg11.dtd">
<!-- Created with matplotlib (https://matplotlib.org/) -->
<svg height="720pt" version="1.1" viewBox="0 0 720 720" width="720pt" xmlns="http://www.w3.org/2000/svg" xmlns:xlink="http://www.w3.org/1999/xlink">
 <metadata>
  <rdf:RDF xmlns:cc="http://creativecommons.org/ns#" xmlns:dc="http://purl.org/dc/elements/1.1/" xmlns:rdf="http://www.w3.org/1999/02/22-rdf-syntax-ns#">
   <cc:Work>
    <dc:type rdf:resource="http://purl.org/dc/dcmitype/StillImage"/>
    <dc:date>2021-05-28T08:56:46.843311</dc:date>
    <dc:format>image/svg+xml</dc:format>
    <dc:creator>
     <cc:Agent>
      <dc:title>Matplotlib v3.3.3, https://matplotlib.org/</dc:title>
     </cc:Agent>
    </dc:creator>
   </cc:Work>
  </rdf:RDF>
 </metadata>
 <defs>
  <style type="text/css">*{stroke-linecap:butt;stroke-linejoin:round;}</style>
 </defs>
 <g id="figure_1">
  <g id="patch_1">
   <path d="M 0 720 
L 720 720 
L 720 0 
L 0 0 
z
" style="fill:none;"/>
  </g>
  <g id="axes_1">
   <g id="patch_2">
    <path clip-path="url(#p015ed184a6)" d="M 568.144212 349.174187 
L 580.520528 357.912241 
L 590.476972 357.890058 
L 590.653192 384.903066 
L 590.280159 395.292198 
L 589.783692 411.933556 
L 590.361435 497.521157 
L 584.405898 497.529452 
L 574.136819 500.515367 
L 562.482741 503.911376 
L 537.302536 504.062754 
L 531.141105 504.120976 
L 503.768823 504.298668 
L 498.90257 506.921959 
L 440.845658 506.933081 
L 440.83204 504.526421 
L 440.736414 493.640288 
L 421.486116 493.592645 
L 421.251696 471.477977 
L 421.246412 471.477985 
L 379.187215 471.650948 
L 376.69448 471.661101 
L 371.921788 471.668524 
L 371.923791 473.795517 
L 371.69705 476.373278 
L 371.645441 479.734328 
L 371.632696 488.308525 
L 371.488323 491.437241 
L 371.283041 494.259407 
L 371.264882 494.40069 
L 371.218638 494.760822 
L 370.953947 496.822108 
L 370.501356 499.588297 
L 369.9237 501.901852 
L 368.995925 505.221579 
L 367.965233 508.282438 
L 366.854461 510.926422 
L 365.674869 513.104591 
L 364.152779 515.416868 
L 363.343706 516.573445 
L 361.388616 519.101897 
L 359.256705 521.51527 
L 356.956508 523.803865 
L 354.497319 525.958463 
L 351.88901 527.970353 
L 349.651092 529.504822 
L 328.432356 543.288678 
L 333.234462 549.379943 
L 328.426405 543.295017 
L 238.399841 429.536074 
L 230.322911 420.130274 
L 222.249836 412.632193 
L 214.179202 406.326424 
L 206.380081 401.450965 
L 198.314066 397.41062 
L 189.980969 394.086123 
L 180.305149 390.883144 
L 167.81093 388.519578 
L 147.346808 386.315349 
L 147.392294 325.360891 
L 147.356214 296.00811 
L 147.361454 294.826699 
L 193.122283 294.46709 
L 193.267327 269.150113 
L 194.305356 263.518781 
L 195.045114 261.0813 
L 195.925144 258.490179 
L 196.666631 256.85319 
L 197.408342 255.32059 
L 198.736605 253.056168 
L 199.830791 251.348969 
L 205.600707 243.013629 
L 215.255043 228.728216 
L 220.415409 220.855247 
L 232.809725 203.649626 
L 248.579854 181.634531 
L 258.538756 168.057557 
L 259.302271 167.020057 
L 261.704383 168.213205 
L 285.107083 180.153859 
L 289.008413 182.14474 
L 292.293711 183.821594 
L 328.904471 202.501579 
L 343.518585 209.966614 
L 348.495728 212.509083 
L 345.852092 216.344401 
L 502.557861 296.244106 
L 509.797326 301.275656 
L 519.309599 308.002909 
L 515.661436 312.05699 
L 568.144212 349.174187 
" style="fill:#1a1a1a;stroke:#ffffff;stroke-linejoin:miter;stroke-width:4;"/>
   </g>
  </g>
 </g>
 <defs>
  <clipPath id="p015ed184a6">
   <rect height="543.6" width="558" x="90" y="86.4"/>
  </clipPath>
 </defs>
</svg>
