<?xml version="1.0" encoding="utf-8" standalone="no"?>
<!DOCTYPE svg PUBLIC "-//W3C//DTD SVG 1.1//EN"
  "http://www.w3.org/Graphics/SVG/1.1/DTD/svg11.dtd">
<!-- Created with matplotlib (https://matplotlib.org/) -->
<svg height="720pt" version="1.1" viewBox="0 0 720 720" width="720pt" xmlns="http://www.w3.org/2000/svg" xmlns:xlink="http://www.w3.org/1999/xlink">
 <metadata>
  <rdf:RDF xmlns:cc="http://creativecommons.org/ns#" xmlns:dc="http://purl.org/dc/elements/1.1/" xmlns:rdf="http://www.w3.org/1999/02/22-rdf-syntax-ns#">
   <cc:Work>
    <dc:type rdf:resource="http://purl.org/dc/dcmitype/StillImage"/>
    <dc:date>2021-05-28T08:56:53.410347</dc:date>
    <dc:format>image/svg+xml</dc:format>
    <dc:creator>
     <cc:Agent>
      <dc:title>Matplotlib v3.3.3, https://matplotlib.org/</dc:title>
     </cc:Agent>
    </dc:creator>
   </cc:Work>
  </rdf:RDF>
 </metadata>
 <defs>
  <style type="text/css">*{stroke-linecap:butt;stroke-linejoin:round;}</style>
 </defs>
 <g id="figure_1">
  <g id="patch_1">
   <path d="M 0 720 
L 720 720 
L 720 0 
L 0 0 
z
" style="fill:none;"/>
  </g>
  <g id="axes_1">
   <g id="patch_2">
    <path clip-path="url(#pf830190070)" d="M 486.624508 165.744672 
L 565.420432 165.80587 
L 579.117905 165.790026 
L 579.110465 180.001997 
L 579.080631 191.722992 
L 579.27452 203.669666 
L 579.165001 215.266673 
L 579.258101 227.263405 
L 579.193929 238.918971 
L 579.209941 250.865768 
L 579.090822 262.552426 
L 579.156558 274.499928 
L 579.149642 286.304095 
L 579.287662 298.078111 
L 579.351345 309.712547 
L 579.43178 321.72462 
L 579.44742 333.325495 
L 579.349397 345.194708 
L 579.205269 358.208795 
L 579.581151 371.254943 
L 579.328543 382.627465 
L 579.483033 394.303995 
L 579.050837 405.786096 
L 579.416573 417.79865 
L 579.25904 429.755675 
L 579.603577 441.869362 
L 579.288293 453.649871 
L 579.44672 465.908519 
L 579.575505 477.800494 
L 579.509702 489.963427 
L 579.347333 501.841035 
L 579.385016 513.87021 
L 579.193371 526.00384 
L 579.141899 538.007845 
L 579.681125 549.913378 
L 551.734962 549.940388 
L 523.63229 549.967846 
L 505.25141 549.988898 
L 486.709666 550.010283 
L 470.852631 550.023642 
L 454.45517 550.037573 
L 438.97539 550.050856 
L 431.132016 550.057624 
L 424.380022 550.063448 
L 407.097307 550.078514 
L 390.962766 550.092679 
L 374.724086 550.148307 
L 358.289107 550.121709 
L 343.344102 550.135156 
L 328.214646 550.14882 
L 318.641865 550.157559 
L 311.469956 550.164116 
L 296.283609 550.178083 
L 279.596007 550.193542 
L 262.673916 550.209335 
L 247.719947 550.223413 
L 223.496212 550.24638 
L 215.879273 550.25365 
L 200.210759 550.268724 
L 193.690725 550.629468 
L 182.915502 550.713077 
L 182.922631 538.433306 
L 182.986709 535.033645 
L 182.952871 526.632971 
L 182.801424 514.90024 
L 182.88419 503.008747 
L 182.901786 491.205954 
L 182.815558 479.417861 
L 182.728118 467.645593 
L 182.746953 455.8256 
L 182.919992 444.018094 
L 183.274724 432.219084 
L 182.973211 420.406824 
L 183.103454 417.749574 
L 183.328048 415.104028 
L 183.689796 412.391367 
L 184.436004 408.695171 
L 187.111335 396.68214 
L 189.815794 385.036852 
L 189.614252 365.649056 
L 188.964461 313.782069 
L 188.872012 294.284543 
L 188.585175 279.495206 
L 184.351598 266.3466 
L 179.363197 258.153373 
L 178.609783 256.226124 
L 172.000199 248.129604 
L 164.964553 241.358375 
L 158.318875 236.450263 
L 161.799568 233.937439 
L 170.254403 227.831605 
L 184.823804 238.611734 
L 205.695178 265.654122 
L 221.191561 265.650775 
L 237.826461 242.363204 
L 237.865746 219.463744 
L 237.863556 218.840529 
L 278.502509 218.731215 
L 278.531773 208.113144 
L 294.887614 208.137358 
L 296.809333 207.968405 
L 298.730589 207.464597 
L 300.880252 206.692731 
L 302.617942 205.854215 
L 306.568633 203.484719 
L 305.072772 202.077953 
L 303.101882 199.969918 
L 301.267954 197.627372 
L 299.754312 195.284597 
L 298.240382 192.707396 
L 297.000748 189.99605 
L 295.883372 187.062415 
L 295.756944 176.400636 
L 295.632219 165.880814 
L 299.050418 165.766557 
L 313.790058 165.713853 
L 419.380084 165.695571 
L 439.454418 165.692979 
L 451.408112 165.690928 
L 471.482804 165.688474 
L 483.436563 165.686923 
L 486.624508 165.744672 
" style="fill:#1a1a1a;stroke:#ffffff;stroke-linejoin:miter;stroke-width:4;"/>
   </g>
  </g>
 </g>
 <defs>
  <clipPath id="pf830190070">
   <rect height="543.6" width="558" x="90" y="86.4"/>
  </clipPath>
 </defs>
</svg>
