<?xml version="1.0" encoding="utf-8" standalone="no"?>
<!DOCTYPE svg PUBLIC "-//W3C//DTD SVG 1.1//EN"
  "http://www.w3.org/Graphics/SVG/1.1/DTD/svg11.dtd">
<!-- Created with matplotlib (https://matplotlib.org/) -->
<svg height="720pt" version="1.1" viewBox="0 0 720 720" width="720pt" xmlns="http://www.w3.org/2000/svg" xmlns:xlink="http://www.w3.org/1999/xlink">
 <metadata>
  <rdf:RDF xmlns:cc="http://creativecommons.org/ns#" xmlns:dc="http://purl.org/dc/elements/1.1/" xmlns:rdf="http://www.w3.org/1999/02/22-rdf-syntax-ns#">
   <cc:Work>
    <dc:type rdf:resource="http://purl.org/dc/dcmitype/StillImage"/>
    <dc:date>2021-05-28T08:56:51.256418</dc:date>
    <dc:format>image/svg+xml</dc:format>
    <dc:creator>
     <cc:Agent>
      <dc:title>Matplotlib v3.3.3, https://matplotlib.org/</dc:title>
     </cc:Agent>
    </dc:creator>
   </cc:Work>
  </rdf:RDF>
 </metadata>
 <defs>
  <style type="text/css">*{stroke-linecap:butt;stroke-linejoin:round;}</style>
 </defs>
 <g id="figure_1">
  <g id="patch_1">
   <path d="M 0 720 
L 720 720 
L 720 0 
L 0 0 
z
" style="fill:none;"/>
  </g>
  <g id="axes_1">
   <g id="patch_2">
    <path clip-path="url(#pc922e1d137)" d="M 614.821148 206.702847 
L 614.766662 238.176754 
L 614.723157 263.392534 
L 614.717439 288.014838 
L 614.712299 292.392831 
L 614.667644 297.788579 
L 614.695557 304.381018 
L 614.638591 309.767634 
L 614.649931 312.719999 
L 614.656844 313.754526 
L 614.658077 314.661494 
L 610.621552 314.87897 
L 608.654358 314.910177 
L 605.867005 315.070003 
L 603.316061 315.363637 
L 600.529081 315.791644 
L 597.883995 316.331215 
L 595.451649 316.959919 
L 593.657021 317.498452 
L 591.673579 318.171298 
L 589.737484 318.911134 
L 588.474904 319.41453 
L 586.470436 320.324442 
L 583.877895 321.647562 
L 581.394519 323.073654 
L 578.889667 324.726639 
L 576.994932 326.131397 
L 574.904366 327.804495 
L 573.2495 329.250191 
L 571.570745 330.90417 
L 569.437167 333.180871 
L 567.490632 335.507868 
L 566.077742 337.429922 
L 565.446953 338.337249 
L 564.665131 339.55412 
L 564.146097 340.371251 
L 562.959824 342.436688 
L 562.202976 343.878949 
L 561.783517 344.743072 
L 561.573152 345.191496 
L 561.234084 345.931124 
L 560.697125 347.185745 
L 560.459997 347.774549 
L 560.108288 348.689664 
L 559.86779 349.346554 
L 559.415235 350.647445 
L 559.028714 351.920794 
L 558.861761 352.491287 
L 558.373489 354.360857 
L 558.005361 356.009392 
L 557.710842 357.651117 
L 557.214894 361.262598 
L 557.064738 364.071222 
L 557.042972 365.465027 
L 557.017017 375.991733 
L 556.999725 435.545636 
L 556.951169 465.529865 
L 556.917545 488.119433 
L 556.944281 498.255233 
L 557.014694 500.449011 
L 557.186288 502.865218 
L 557.796079 506.012158 
L 558.708254 508.967926 
L 559.653577 511.605717 
L 563.263016 519.697673 
L 566.024635 525.857826 
L 566.831459 528.295557 
L 567.639413 531.532857 
L 568.40563 535.170018 
L 568.7907 538.367869 
L 568.858223 542.078196 
L 569.175593 580.523585 
L 563.556487 580.523207 
L 559.395331 580.125404 
L 554.586868 579.340772 
L 550.104896 578.305091 
L 546.400423 577.216877 
L 543.459088 576.195237 
L 541.128146 575.281476 
L 538.734569 574.242431 
L 535.720524 572.780348 
L 532.865493 571.225935 
L 530.172353 569.595602 
L 525.097709 566.364454 
L 520.823173 563.852037 
L 517.601768 562.214896 
L 514.534213 560.842034 
L 511.512011 559.654793 
L 508.175165 558.523212 
L 504.824519 557.566361 
L 501.716686 556.832496 
L 498.851249 556.28234 
L 496.379466 555.902772 
L 493.941251 555.612969 
L 491.466475 555.403611 
L 488.920184 555.276466 
L 486.448944 555.238199 
L 258.500591 555.599434 
L 258.310026 549.922883 
L 257.998513 543.834431 
L 257.698857 536.001966 
L 257.208936 529.190442 
L 256.581337 527.769485 
L 255.78874 525.759554 
L 254.779186 522.725076 
L 254.081684 520.166891 
L 253.482613 517.345749 
L 253.171318 515.521905 
L 252.94118 513.395679 
L 252.096696 504.513781 
L 250.981281 492.735469 
L 250.237652 484.883277 
L 249.865832 480.957174 
L 249.493196 476.126221 
L 248.633933 464.986407 
L 248.248926 459.995218 
L 247.324121 448.006366 
L 246.630678 439.025755 
L 246.46388 437.768756 
L 240.850327 414.280819 
L 240.213301 412.434568 
L 223.943891 370.067478 
L 221.812507 364.361048 
L 219.571935 358.449032 
L 217.549822 353.051084 
L 215.867868 348.965501 
L 215.292544 347.608598 
L 214.352576 345.358769 
L 213.385681 343.007812 
L 212.445733 340.783279 
L 211.425398 338.457708 
L 210.539408 336.486053 
L 209.596167 334.44499 
L 209.068887 333.346314 
L 208.852237 332.908844 
L 207.800244 330.810158 
L 207.633179 330.488546 
L 205.933221 327.25606 
L 204.113109 324.054235 
L 203.158875 322.446749 
L 202.644928 321.59641 
L 202.0056 320.544379 
L 200.399901 318.018086 
L 200.33143 317.91338 
L 199.781175 317.070814 
L 199.37798 316.462507 
L 199.224795 316.233181 
L 198.801596 315.599808 
L 198.599058 315.304811 
L 198.325935 314.906862 
L 196.921534 312.860621 
L 194.661326 309.740961 
L 192.492851 306.946469 
L 191.814556 306.097499 
L 189.982786 303.86234 
L 188.382574 301.963717 
L 187.489883 300.936698 
L 187.027195 300.409198 
L 185.523064 298.734946 
L 183.740024 296.806503 
L 182.807553 295.820715 
L 181.007029 293.984572 
L 178.921564 291.901279 
L 176.913012 290.007873 
L 175.012518 288.257062 
L 173.003947 286.363665 
L 170.844343 284.40936 
L 169.250214 282.949963 
L 163.560008 277.794302 
L 163.234644 277.502182 
L 162.139192 276.504526 
L 160.611057 275.099102 
L 159.506387 274.084075 
L 158.364905 273.043034 
L 157.03963 271.79316 
L 155.761336 270.598628 
L 154.383794 269.268995 
L 153.292748 268.209444 
L 152.278876 267.232993 
L 151.309013 266.26689 
L 150.550942 265.483892 
L 148.775555 263.853162 
L 147.663336 262.70145 
L 145.895376 260.74532 
L 144.073169 258.653035 
L 143.262153 257.688959 
L 142.128232 256.289219 
L 140.321238 254.00662 
L 139.090803 252.376089 
L 137.360278 249.984522 
L 135.802359 247.699401 
L 134.953818 246.447191 
L 133.652456 244.395549 
L 132.15284 241.917442 
L 130.879232 239.652346 
L 129.40742 236.987486 
L 128.246563 234.695521 
L 127.123081 232.392786 
L 126.475672 230.996678 
L 125.288592 228.356731 
L 124.127841 225.462675 
L 123.128766 222.822381 
L 123.089442 222.709342 
L 124.116893 223.139295 
L 132.166584 225.303403 
L 135.336184 233.56207 
L 181.28214 265.978312 
L 212.531588 258.447373 
L 231.734806 251.789771 
L 232.626247 251.476985 
L 265.526942 261.077223 
L 275.775189 259.115431 
L 288.063833 247.388201 
L 297.224549 248.565644 
L 298.518093 253.612103 
L 307.331126 255.74862 
L 319.415618 256.606726 
L 329.603629 256.277318 
L 348.383962 258.483748 
L 350.706363 266.527205 
L 357.883553 268.002481 
L 361.041762 268.651817 
L 404.040319 295.377722 
L 404.080647 314.83561 
L 436.481421 314.828202 
L 436.464782 313.451573 
L 451.75862 313.447959 
L 451.759365 313.432835 
L 451.750483 297.185998 
L 471.663213 297.178848 
L 482.528215 297.175055 
L 491.420476 297.172132 
L 491.418737 291.1755 
L 491.418064 285.323305 
L 496.621271 278.202315 
L 508.359489 275.141225 
L 515.144717 264.700758 
L 515.755246 256.271905 
L 517.369656 234.051526 
L 519.255222 214.797878 
L 519.348904 213.782257 
L 519.421106 213.104169 
L 522.17797 209.842191 
L 523.171019 210.309242 
L 532.777897 197.933512 
L 533.34736 197.064005 
L 534.809286 194.8317 
L 540.303355 186.442879 
L 544.2754 183.487483 
L 552.811402 173.270935 
L 556.419272 165.962176 
L 556.69886 161.806069 
L 556.765147 161.506552 
L 558.381352 154.214397 
L 558.443479 153.93416 
L 558.481154 151.591944 
L 558.523369 148.968379 
L 558.565584 146.344666 
L 558.638869 143.721802 
L 558.928304 135.876415 
L 586.758943 136.953052 
L 591.182996 139.760673 
L 606.147769 148.222223 
L 613.339837 154.988114 
L 614.910558 155.061805 
L 614.898931 161.778869 
L 614.873254 176.603884 
L 614.821148 206.702847 
" style="fill:#1a1a1a;stroke:#ffffff;stroke-linejoin:miter;stroke-width:4;"/>
   </g>
  </g>
 </g>
 <defs>
  <clipPath id="pc922e1d137">
   <rect height="543.6" width="558" x="90" y="86.4"/>
  </clipPath>
 </defs>
</svg>
