<?xml version="1.0" encoding="utf-8" standalone="no"?>
<!DOCTYPE svg PUBLIC "-//W3C//DTD SVG 1.1//EN"
  "http://www.w3.org/Graphics/SVG/1.1/DTD/svg11.dtd">
<!-- Created with matplotlib (https://matplotlib.org/) -->
<svg height="720pt" version="1.1" viewBox="0 0 720 720" width="720pt" xmlns="http://www.w3.org/2000/svg" xmlns:xlink="http://www.w3.org/1999/xlink">
 <metadata>
  <rdf:RDF xmlns:cc="http://creativecommons.org/ns#" xmlns:dc="http://purl.org/dc/elements/1.1/" xmlns:rdf="http://www.w3.org/1999/02/22-rdf-syntax-ns#">
   <cc:Work>
    <dc:type rdf:resource="http://purl.org/dc/dcmitype/StillImage"/>
    <dc:date>2021-05-28T08:56:48.834447</dc:date>
    <dc:format>image/svg+xml</dc:format>
    <dc:creator>
     <cc:Agent>
      <dc:title>Matplotlib v3.3.3, https://matplotlib.org/</dc:title>
     </cc:Agent>
    </dc:creator>
   </cc:Work>
  </rdf:RDF>
 </metadata>
 <defs>
  <style type="text/css">*{stroke-linecap:butt;stroke-linejoin:round;}</style>
 </defs>
 <g id="figure_1">
  <g id="patch_1">
   <path d="M 0 720 
L 720 720 
L 720 0 
L 0 0 
z
" style="fill:none;"/>
  </g>
  <g id="axes_1">
   <g id="patch_2">
    <path clip-path="url(#pd48beec071)" d="M 153.830133 165.10263 
L 180.41119 165.429064 
L 200.385996 165.20602 
L 213.414978 165.231185 
L 226.194059 165.213995 
L 238.602622 165.205799 
L 250.522235 165.231572 
L 254.662443 165.217309 
L 267.249305 165.148513 
L 279.305753 165.15094 
L 291.407546 165.153506 
L 297.558133 165.154826 
L 302.938277 165.156003 
L 321.111179 165.173027 
L 333.504781 165.172929 
L 352.653324 165.17298 
L 373.679189 165.173333 
L 388.786188 165.223924 
L 400.456839 165.228223 
L 412.125476 165.228154 
L 424.201665 165.232496 
L 436.273298 165.234907 
L 448.658491 165.236571 
L 459.768921 165.280116 
L 461.416411 165.238502 
L 465.578075 165.247084 
L 473.08795 165.201501 
L 477.476144 165.179527 
L 504.967078 165.21426 
L 591.57552 165.249123 
L 590.564729 546.948287 
L 552.290157 547.275272 
L 534.689279 546.842255 
L 515.228834 546.770796 
L 497.326417 547.589893 
L 481.247773 549.446413 
L 471.333475 551.29737 
L 469.695464 546.849929 
L 449.88278 546.843046 
L 446.958927 545.767165 
L 419.484057 545.759326 
L 402.679372 545.395105 
L 391.935105 545.291629 
L 356.292931 545.367762 
L 342.760045 545.83658 
L 312.508671 545.69036 
L 302.4708 545.609926 
L 252.871132 545.729812 
L 214.341319 545.727179 
L 205.28269 545.726692 
L 184.069675 545.631324 
L 179.238128 545.611451 
L 159.484617 545.785674 
L 146.42448 545.778114 
L 148.688445 357.247555 
L 148.837651 287.464646 
L 148.941756 238.761909 
L 150.145751 222.667295 
L 152.421714 205.083851 
L 153.939782 193.857429 
L 153.830133 165.10263 
" style="fill:#1a1a1a;stroke:#ffffff;stroke-linejoin:miter;stroke-width:4;"/>
   </g>
  </g>
 </g>
 <defs>
  <clipPath id="pd48beec071">
   <rect height="543.6" width="558" x="90" y="86.4"/>
  </clipPath>
 </defs>
</svg>
