<?xml version="1.0" encoding="utf-8" standalone="no"?>
<!DOCTYPE svg PUBLIC "-//W3C//DTD SVG 1.1//EN"
  "http://www.w3.org/Graphics/SVG/1.1/DTD/svg11.dtd">
<!-- Created with matplotlib (https://matplotlib.org/) -->
<svg height="720pt" version="1.1" viewBox="0 0 720 720" width="720pt" xmlns="http://www.w3.org/2000/svg" xmlns:xlink="http://www.w3.org/1999/xlink">
 <metadata>
  <rdf:RDF xmlns:cc="http://creativecommons.org/ns#" xmlns:dc="http://purl.org/dc/elements/1.1/" xmlns:rdf="http://www.w3.org/1999/02/22-rdf-syntax-ns#">
   <cc:Work>
    <dc:type rdf:resource="http://purl.org/dc/dcmitype/StillImage"/>
    <dc:date>2021-05-28T08:56:48.177320</dc:date>
    <dc:format>image/svg+xml</dc:format>
    <dc:creator>
     <cc:Agent>
      <dc:title>Matplotlib v3.3.3, https://matplotlib.org/</dc:title>
     </cc:Agent>
    </dc:creator>
   </cc:Work>
  </rdf:RDF>
 </metadata>
 <defs>
  <style type="text/css">*{stroke-linecap:butt;stroke-linejoin:round;}</style>
 </defs>
 <g id="figure_1">
  <g id="patch_1">
   <path d="M 0 720 
L 720 720 
L 720 0 
L 0 0 
z
" style="fill:none;"/>
  </g>
  <g id="axes_1">
   <g id="patch_2">
    <path clip-path="url(#pa66c12a5b3)" d="M 564.187267 274.655406 
L 554.416936 309.039058 
L 538.010919 366.710426 
L 533.203071 383.626143 
L 519.29513 380.265425 
L 509.561743 405.894107 
L 504.589075 425.673136 
L 499.004851 447.885262 
L 494.59399 465.43053 
L 490.644259 481.142503 
L 507.151713 496.782984 
L 512.511948 501.86163 
L 356.733793 510.823707 
L 350.349814 510.963798 
L 348.062295 510.946206 
L 345.920203 510.929728 
L 340.732657 510.764518 
L 335.992877 510.467106 
L 330.285613 509.932661 
L 324.931405 509.265071 
L 318.972343 508.346575 
L 313.832678 507.399846 
L 308.225228 506.184526 
L 303.501554 505.001699 
L 297.141519 503.202294 
L 290.554717 501.139604 
L 286.632492 499.805568 
L 282.575308 498.319259 
L 277.431617 496.253244 
L 272.195187 493.945918 
L 265.32569 490.597704 
L 258.594044 486.929194 
L 252.820734 483.422022 
L 246.712975 479.377431 
L 220.179649 460.512912 
L 171.395928 425.541569 
L 172.055078 424.201319 
L 172.233383 423.185733 
L 172.312735 422.206559 
L 172.294566 420.919221 
L 172.433446 419.921838 
L 172.84752 418.634735 
L 173.123612 417.673698 
L 173.419817 416.622409 
L 173.990849 415.462248 
L 174.857153 414.048781 
L 175.389124 412.834056 
L 175.822848 411.456345 
L 176.492786 410.09676 
L 177.27989 408.828138 
L 177.851624 407.432554 
L 178.403297 406.163605 
L 179.033472 404.967402 
L 179.624574 403.680287 
L 180.057976 402.483782 
L 180.491725 401.160648 
L 180.827642 399.764417 
L 181.04496 398.622191 
L 181.518154 397.335074 
L 181.716128 396.02984 
L 181.7761 394.996096 
L 181.817106 393.654166 
L 181.897114 392.294033 
L 181.996569 391.297018 
L 182.253619 389.882617 
L 182.451556 388.577384 
L 182.531319 387.652429 
L 182.670119 386.383204 
L 182.8287 385.313406 
L 183.006635 384.316013 
L 183.263693 382.920161 
L 183.481353 381.632758 
L 183.679295 380.218373 
L 183.779027 378.876783 
L 184.094895 377.625736 
L 184.450214 376.429255 
L 184.765738 375.305194 
L 185.062231 373.909011 
L 185.161607 372.657988 
L 184.92737 371.352161 
L 184.1032 370.20876 
L 187.437069 359.077657 
L 188.656529 358.262647 
L 189.718925 357.121297 
L 190.408216 355.74352 
L 190.959919 354.492802 
L 191.433137 353.223879 
L 191.767746 352.517158 
L 192.358834 351.23001 
L 193.008772 350.088382 
L 193.835716 348.76518 
L 194.544374 347.60538 
L 195.194297 346.409177 
L 195.903307 345.013561 
L 196.297008 344.234057 
L 196.946933 343.03789 
L 197.852369 341.73286 
L 198.541702 340.573031 
L 199.348966 339.34076 
L 200.312819 338.271853 
L 201.76875 336.858595 
L 202.792057 335.517509 
L 203.324445 334.266764 
L 203.698751 333.143048 
L 204.093106 331.96443 
L 204.683918 330.858848 
L 205.333887 329.771442 
L 205.963726 328.720462 
L 206.771336 327.324823 
L 207.440632 326.219257 
L 208.012006 324.877901 
L 208.386755 323.917199 
L 209.115176 322.721015 
L 209.823876 321.633595 
L 210.415009 320.29227 
L 210.966333 319.113933 
L 211.478655 317.953798 
L 212.364431 316.884917 
L 212.699055 316.177842 
L 213.15258 314.908929 
L 213.900715 313.803344 
L 214.707917 312.4259 
L 215.279345 311.102773 
L 215.870176 310.015387 
L 216.598906 308.655835 
L 217.288241 307.296615 
L 217.898753 306.082237 
L 218.706348 304.704831 
L 219.532955 303.418022 
L 220.104422 302.330642 
L 220.773747 301.261071 
L 221.246579 300.010382 
L 221.896868 298.632982 
L 222.546847 297.509233 
L 223.157338 296.330884 
L 224.0825 294.917422 
L 224.869741 293.956974 
L 225.440805 292.79722 
L 226.090756 291.564643 
L 226.721007 290.513312 
L 227.587071 289.389831 
L 228.4725 288.248189 
L 229.279436 287.197527 
L 230.106435 285.874303 
L 231.012238 284.460849 
L 231.720933 283.264642 
L 232.3315 282.177291 
L 233.001144 280.962938 
L 233.276694 280.473471 
L 233.985763 279.22269 
L 234.714148 277.918077 
L 235.403551 276.703684 
L 236.053164 275.725118 
L 237.115949 274.329819 
L 238.237887 272.934506 
L 239.379164 271.557345 
L 240.501128 270.234836 
L 241.25117 269.321631 
L 265.072305 273.299411 
L 289.775569 276.881919 
L 316.976159 278.157405 
L 340.845293 276.101977 
L 368.321821 270.457897 
L 396.462636 261.224826 
L 415.010277 253.492735 
L 439.212513 241.373234 
L 470.08734 222.98636 
L 495.646801 205.436202 
L 493.726006 218.491978 
L 490.900493 232.279012 
L 482.89675 265.651169 
L 566.604072 265.899593 
L 565.677566 269.42552 
L 564.187267 274.655406 
" style="fill:#1a1a1a;stroke:#ffffff;stroke-linejoin:miter;stroke-width:4;"/>
   </g>
  </g>
 </g>
 <defs>
  <clipPath id="pa66c12a5b3">
   <rect height="543.6" width="558" x="90" y="86.4"/>
  </clipPath>
 </defs>
</svg>
