<?xml version="1.0" encoding="utf-8" standalone="no"?>
<!DOCTYPE svg PUBLIC "-//W3C//DTD SVG 1.1//EN"
  "http://www.w3.org/Graphics/SVG/1.1/DTD/svg11.dtd">
<!-- Created with matplotlib (https://matplotlib.org/) -->
<svg height="720pt" version="1.1" viewBox="0 0 720 720" width="720pt" xmlns="http://www.w3.org/2000/svg" xmlns:xlink="http://www.w3.org/1999/xlink">
 <metadata>
  <rdf:RDF xmlns:cc="http://creativecommons.org/ns#" xmlns:dc="http://purl.org/dc/elements/1.1/" xmlns:rdf="http://www.w3.org/1999/02/22-rdf-syntax-ns#">
   <cc:Work>
    <dc:type rdf:resource="http://purl.org/dc/dcmitype/StillImage"/>
    <dc:date>2021-05-28T08:56:46.013822</dc:date>
    <dc:format>image/svg+xml</dc:format>
    <dc:creator>
     <cc:Agent>
      <dc:title>Matplotlib v3.3.3, https://matplotlib.org/</dc:title>
     </cc:Agent>
    </dc:creator>
   </cc:Work>
  </rdf:RDF>
 </metadata>
 <defs>
  <style type="text/css">*{stroke-linecap:butt;stroke-linejoin:round;}</style>
 </defs>
 <g id="figure_1">
  <g id="patch_1">
   <path d="M 0 720 
L 720 720 
L 720 0 
L 0 0 
z
" style="fill:none;"/>
  </g>
  <g id="axes_1">
   <g id="patch_2">
    <path clip-path="url(#p79d165f333)" d="M 525.788824 251.424848 
L 552.743019 251.529801 
L 559.315176 251.516037 
L 554.966349 256.810136 
L 548.230718 264.059305 
L 543.87014 270.324916 
L 539.894941 276.665452 
L 536.113155 283.835319 
L 532.972678 290.099352 
L 530.538307 296.060777 
L 528.488754 301.569175 
L 526.13617 309.918649 
L 525.095043 314.563079 
L 523.833516 320.470576 
L 522.491259 327.386521 
L 521.801372 332.621101 
L 521.303576 338.247654 
L 521.17934 341.541262 
L 521.101008 345.094481 
L 521.02443 350.47227 
L 521.166062 368.918472 
L 521.005085 413.779598 
L 520.815573 427.762396 
L 520.840222 451.04244 
L 520.648726 464.271432 
L 488.393533 464.338382 
L 404.059587 464.182015 
L 320.38428 465.067668 
L 257.788155 464.673886 
L 232.878698 464.66874 
L 178.82982 464.658709 
L 178.684824 332.226995 
L 178.935812 331.62864 
L 179.173878 329.766986 
L 180.785282 328.264649 
L 182.17451 328.096048 
L 183.532599 329.108226 
L 185.087356 330.494246 
L 186.398623 331.055258 
L 187.572977 330.813838 
L 189.175648 330.567326 
L 190.850818 331.148059 
L 192.28443 331.129646 
L 193.692811 330.75992 
L 195.315534 330.362148 
L 196.810783 330.09208 
L 198.409269 329.443324 
L 199.903119 329.047231 
L 201.040146 329.334213 
L 202.669978 329.664446 
L 204.253523 329.644336 
L 205.212506 329.254978 
L 206.512505 328.710908 
L 207.959594 327.913572 
L 209.297333 326.866809 
L 210.719659 325.718653 
L 212.135832 323.942283 
L 213.551083 322.090792 
L 214.885554 320.742505 
L 216.22239 319.594925 
L 217.768883 318.018037 
L 219.148735 316.920313 
L 220.653687 315.444313 
L 222.329167 313.966085 
L 224.012636 313.215856 
L 224.93459 311.245451 
L 225.774361 309.65227 
L 226.743553 308.133033 
L 227.477317 306.616666 
L 228.317486 304.99828 
L 229.115241 303.45607 
L 229.95506 301.86294 
L 230.94146 299.891454 
L 231.759327 298.24839 
L 232.618686 296.454524 
L 233.245455 294.914545 
L 233.807788 293.375155 
L 234.220594 291.86317 
L 234.610959 290.200476 
L 235.129357 288.53611 
L 235.733728 286.921041 
L 236.125029 285.383882 
L 236.428556 283.647181 
L 236.497128 281.963662 
L 236.650668 280.178747 
L 236.401493 277.969335 
L 236.379284 277.642677 
L 236.438495 275.909303 
L 236.347892 274.251718 
L 236.193057 272.393569 
L 235.802922 270.661846 
L 235.41261 268.804539 
L 235.085855 266.871519 
L 234.589243 265.215523 
L 234.199091 263.508958 
L 233.980451 261.852107 
L 233.741102 260.521976 
L 233.351316 258.764998 
L 232.768226 256.983595 
L 232.207701 255.428518 
L 231.775143 253.848046 
L 231.492644 252.342032 
L 231.141732 251.332332 
L 248.216364 251.348761 
L 256.019375 251.348968 
L 274.3087 251.351154 
L 293.474741 251.353835 
L 298.608856 251.354325 
L 316.578678 251.357142 
L 333.264762 251.359984 
L 346.100891 251.362006 
L 358.937441 251.364115 
L 371.773991 251.366807 
L 388.459653 251.369652 
L 402.967845 251.3727 
L 408.101538 251.373494 
L 423.507252 251.376943 
L 450.464766 251.382894 
L 481.259477 251.393363 
L 521.549311 251.408559 
L 525.788824 251.424848 
" style="fill:#1a1a1a;stroke:#ffffff;stroke-linejoin:miter;stroke-width:4;"/>
   </g>
  </g>
 </g>
 <defs>
  <clipPath id="p79d165f333">
   <rect height="543.6" width="558" x="90" y="86.4"/>
  </clipPath>
 </defs>
</svg>
