<?xml version="1.0" encoding="utf-8" standalone="no"?>
<!DOCTYPE svg PUBLIC "-//W3C//DTD SVG 1.1//EN"
  "http://www.w3.org/Graphics/SVG/1.1/DTD/svg11.dtd">
<!-- Created with matplotlib (https://matplotlib.org/) -->
<svg height="720pt" version="1.1" viewBox="0 0 720 720" width="720pt" xmlns="http://www.w3.org/2000/svg" xmlns:xlink="http://www.w3.org/1999/xlink">
 <metadata>
  <rdf:RDF xmlns:cc="http://creativecommons.org/ns#" xmlns:dc="http://purl.org/dc/elements/1.1/" xmlns:rdf="http://www.w3.org/1999/02/22-rdf-syntax-ns#">
   <cc:Work>
    <dc:type rdf:resource="http://purl.org/dc/dcmitype/StillImage"/>
    <dc:date>2021-05-28T08:56:49.883455</dc:date>
    <dc:format>image/svg+xml</dc:format>
    <dc:creator>
     <cc:Agent>
      <dc:title>Matplotlib v3.3.3, https://matplotlib.org/</dc:title>
     </cc:Agent>
    </dc:creator>
   </cc:Work>
  </rdf:RDF>
 </metadata>
 <defs>
  <style type="text/css">*{stroke-linecap:butt;stroke-linejoin:round;}</style>
 </defs>
 <g id="figure_1">
  <g id="patch_1">
   <path d="M 0 720 
L 720 720 
L 720 0 
L 0 0 
z
" style="fill:none;"/>
  </g>
  <g id="axes_1">
   <g id="patch_2">
    <path clip-path="url(#p78fbb36b42)" d="M 352.352733 209.15182 
L 352.361931 212.888605 
L 355.612374 212.701625 
L 355.61101 223.528052 
L 558.231297 223.377943 
L 564.974703 212.546832 
L 579.811217 212.536973 
L 423.208812 463.686858 
L 416.54902 469.903139 
L 352.29238 500.484448 
L 352.290885 507.381652 
L 351.280889 507.891586 
L 345.405707 509.890091 
L 344.501446 510.220001 
L 342.83396 510.644486 
L 341.206017 510.984111 
L 339.720196 511.012335 
L 338.447205 511.149557 
L 337.236611 511.34694 
L 335.971439 511.43692 
L 334.416769 511.385831 
L 331.444048 510.971892 
L 329.197183 510.571726 
L 325.517831 509.686125 
L 322.295375 508.83381 
L 318.870163 507.859696 
L 315.570068 507.00161 
L 312.52874 506.240183 
L 309.726568 505.484363 
L 306.977103 504.799318 
L 303.733008 503.920013 
L 300.51382 503.018718 
L 297.157743 502.138928 
L 293.35676 501.170112 
L 289.657671 500.21561 
L 285.792424 499.108879 
L 280.830559 497.828418 
L 276.548159 496.670341 
L 272.430412 495.610222 
L 268.336006 494.50854 
L 262.058596 492.835278 
L 258.437228 491.833732 
L 251.843737 490.067742 
L 245.598015 488.423366 
L 242.475856 487.56033 
L 238.567427 486.502695 
L 233.813595 485.220868 
L 227.285873 483.655803 
L 222.103302 482.250165 
L 217.06574 480.848665 
L 211.43467 479.398849 
L 206.443226 478.109747 
L 202.170571 476.855998 
L 196.78693 475.50282 
L 191.749294 474.137288 
L 187.73846 473.157467 
L 181.846941 471.580608 
L 174.478431 469.571395 
L 168.722069 468.063675 
L 164.332458 466.884111 
L 159.159095 465.5289 
L 158.188783 465.274748 
L 159.807719 430.254129 
L 162.548727 340.572119 
L 162.601589 286.994016 
L 159.421813 205.499949 
L 283.908715 205.318218 
L 347.579608 204.96308 
L 352.353953 204.973072 
L 352.352733 209.15182 
" style="fill:#1a1a1a;stroke:#ffffff;stroke-linejoin:miter;stroke-width:4;"/>
   </g>
  </g>
 </g>
 <defs>
  <clipPath id="p78fbb36b42">
   <rect height="543.6" width="558" x="90" y="86.4"/>
  </clipPath>
 </defs>
</svg>
