<?xml version="1.0" encoding="utf-8" standalone="no"?>
<!DOCTYPE svg PUBLIC "-//W3C//DTD SVG 1.1//EN"
  "http://www.w3.org/Graphics/SVG/1.1/DTD/svg11.dtd">
<!-- Created with matplotlib (https://matplotlib.org/) -->
<svg height="720pt" version="1.1" viewBox="0 0 720 720" width="720pt" xmlns="http://www.w3.org/2000/svg" xmlns:xlink="http://www.w3.org/1999/xlink">
 <metadata>
  <rdf:RDF xmlns:cc="http://creativecommons.org/ns#" xmlns:dc="http://purl.org/dc/elements/1.1/" xmlns:rdf="http://www.w3.org/1999/02/22-rdf-syntax-ns#">
   <cc:Work>
    <dc:type rdf:resource="http://purl.org/dc/dcmitype/StillImage"/>
    <dc:date>2021-05-28T08:56:50.192070</dc:date>
    <dc:format>image/svg+xml</dc:format>
    <dc:creator>
     <cc:Agent>
      <dc:title>Matplotlib v3.3.3, https://matplotlib.org/</dc:title>
     </cc:Agent>
    </dc:creator>
   </cc:Work>
  </rdf:RDF>
 </metadata>
 <defs>
  <style type="text/css">*{stroke-linecap:butt;stroke-linejoin:round;}</style>
 </defs>
 <g id="figure_1">
  <g id="patch_1">
   <path d="M 0 720 
L 720 720 
L 720 0 
L 0 0 
z
" style="fill:none;"/>
  </g>
  <g id="axes_1">
   <g id="patch_2">
    <path clip-path="url(#p97be85de55)" d="M 328.555921 190.115621 
L 342.448844 191.007924 
L 490.120623 190.738545 
L 557.033841 190.990848 
L 557.031103 198.001124 
L 575.455514 247.858115 
L 574.955911 266.012329 
L 574.778694 272.271995 
L 574.501229 282.070352 
L 574.131404 295.134769 
L 574.037765 298.444027 
L 574.017945 299.135576 
L 574.816354 300.937666 
L 579.975062 302.709294 
L 579.953202 304.541483 
L 580.223014 320.003904 
L 580.984635 320.760156 
L 592.284657 319.334867 
L 593.762592 319.595142 
L 595.129068 327.1535 
L 596.138451 335.326621 
L 597.14273 343.458479 
L 598.244243 351.741442 
L 599.136103 359.599656 
L 600.138035 367.712897 
L 601.152522 375.928096 
L 602.321241 385.826209 
L 602.622484 388.41181 
L 602.723679 390.398113 
L 602.624647 392.660671 
L 602.245594 395.084977 
L 610.642521 397.963295 
L 608.12005 405.616231 
L 605.657018 415.18692 
L 603.539823 425.420334 
L 602.653678 430.73342 
L 601.919756 436.589494 
L 601.222476 445.987344 
L 600.867679 454.50003 
L 601.062491 464.685192 
L 602.337949 480.122648 
L 604.144817 495.574953 
L 606.368359 509.097885 
L 610.136576 530.374323 
L 455.011268 566.396169 
L 449.589226 566.896272 
L 445.81499 570.358106 
L 443.104192 570.285966 
L 440.400183 570.079321 
L 437.709553 569.738649 
L 435.038784 569.264787 
L 432.394376 568.658856 
L 429.782743 567.922353 
L 410.381406 561.914173 
L 410.233464 561.869768 
L 406.820585 560.81187 
L 394.713237 557.069493 
L 393.164779 556.588756 
L 354.200334 544.537741 
L 351.913661 543.891929 
L 349.598456 543.359599 
L 347.26025 542.942033 
L 344.904605 542.640192 
L 342.537156 542.454842 
L 340.163573 542.386388 
L 337.78949 542.435005 
L 335.420631 542.600655 
L 264.426619 549.320153 
L 230.855923 552.497021 
L 224.80546 553.06983 
L 221.307383 553.344811 
L 217.802319 553.505641 
L 214.293951 553.552176 
L 211.005412 553.488578 
L 210.991455 553.491468 
L 210.988359 549.787947 
L 201.572712 548.378635 
L 195.9616 547.089268 
L 190.736719 545.059951 
L 188.221026 544.076037 
L 181.382987 540.87714 
L 175.447504 537.492554 
L 171.189163 534.784468 
L 157.091263 524.284026 
L 159.196949 514.920932 
L 160.671519 504.093084 
L 161.485871 492.766196 
L 161.639505 480.440549 
L 161.464614 469.614249 
L 160.622786 457.525649 
L 149.116876 365.479628 
L 139.146569 287.820566 
L 133.980827 246.099397 
L 132.457711 226.629355 
L 127.357479 146.201133 
L 167.450317 146.041894 
L 176.482801 146.227403 
L 186.861238 147.187194 
L 198.87398 149.114901 
L 208.677007 151.432403 
L 219.922204 154.814954 
L 264.541316 171.454574 
L 303.406431 185.280857 
L 316.136841 188.246065 
L 328.555921 190.115621 
" style="fill:#1a1a1a;stroke:#ffffff;stroke-linejoin:miter;stroke-width:4;"/>
   </g>
  </g>
 </g>
 <defs>
  <clipPath id="p97be85de55">
   <rect height="543.6" width="558" x="90" y="86.4"/>
  </clipPath>
 </defs>
</svg>
