<?xml version="1.0" encoding="utf-8" standalone="no"?>
<!DOCTYPE svg PUBLIC "-//W3C//DTD SVG 1.1//EN"
  "http://www.w3.org/Graphics/SVG/1.1/DTD/svg11.dtd">
<!-- Created with matplotlib (https://matplotlib.org/) -->
<svg height="720pt" version="1.1" viewBox="0 0 720 720" width="720pt" xmlns="http://www.w3.org/2000/svg" xmlns:xlink="http://www.w3.org/1999/xlink">
 <metadata>
  <rdf:RDF xmlns:cc="http://creativecommons.org/ns#" xmlns:dc="http://purl.org/dc/elements/1.1/" xmlns:rdf="http://www.w3.org/1999/02/22-rdf-syntax-ns#">
   <cc:Work>
    <dc:type rdf:resource="http://purl.org/dc/dcmitype/StillImage"/>
    <dc:date>2021-05-28T08:56:52.253773</dc:date>
    <dc:format>image/svg+xml</dc:format>
    <dc:creator>
     <cc:Agent>
      <dc:title>Matplotlib v3.3.3, https://matplotlib.org/</dc:title>
     </cc:Agent>
    </dc:creator>
   </cc:Work>
  </rdf:RDF>
 </metadata>
 <defs>
  <style type="text/css">*{stroke-linecap:butt;stroke-linejoin:round;}</style>
 </defs>
 <g id="figure_1">
  <g id="patch_1">
   <path d="M 0 720 
L 720 720 
L 720 0 
L 0 0 
z
" style="fill:none;"/>
  </g>
  <g id="axes_1">
   <g id="patch_2">
    <path clip-path="url(#p8da1e9f27f)" d="M 372.127203 178.263947 
L 373.96166 182.872499 
L 377.919537 182.872002 
L 416.022692 183.015009 
L 426.50429 183.012651 
L 456.531376 183.001829 
L 467.289051 182.967916 
L 504.470617 182.848803 
L 507.653969 182.848358 
L 510.865306 182.906232 
L 510.612726 183.416832 
L 510.602181 184.185275 
L 510.619101 184.965371 
L 510.617978 185.617301 
L 510.598405 186.292348 
L 510.597097 187.002649 
L 510.59614 187.596207 
L 510.631694 188.283392 
L 510.620965 189.133097 
L 510.638069 189.843399 
L 510.673812 190.402167 
L 510.700133 191.089328 
L 510.790589 191.9395 
L 510.862449 192.824465 
L 510.870153 193.616258 
L 510.868637 194.477638 
L 510.839661 195.280873 
L 510.81992 196.049086 
L 510.799974 196.910464 
L 510.789431 197.655558 
L 510.696148 198.458558 
L 510.65777 199.366403 
L 510.665468 200.262784 
L 510.691603 201.019556 
L 510.791293 201.834935 
L 510.863691 202.487329 
L 510.889639 203.372061 
L 510.897175 204.245345 
L 510.877602 204.920392 
L 510.858029 205.595669 
L 510.847689 206.282368 
L 510.855576 207.027464 
L 510.918389 207.807817 
L 510.944726 208.529566 
L 510.897691 209.169817 
L 510.896573 209.728581 
L 510.941322 210.438887 
L 510.977062 211.032906 
L 511.039875 211.81303 
L 511.056792 212.639618 
L 511.083293 213.315128 
L 511.10924 214.211534 
L 511.135205 215.08482 
L 511.207228 215.946642 
L 511.270037 216.785138 
L 511.323837 217.518793 
L 511.37743 218.380407 
L 511.421805 219.288718 
L 511.438908 220.010466 
L 511.455847 220.755563 
L 511.481792 221.663872 
L 511.553815 222.51402 
L 511.616997 223.154511 
L 511.716686 223.946542 
L 511.770656 224.540563 
L 511.842865 225.297568 
L 511.896474 226.170857 
L 511.922979 226.776321 
L 511.939895 227.602909 
L 511.938214 228.499313 
L 512.056502 229.163386 
L 512.526355 229.944008 
L 512.508644 230.596165 
L 512.543909 231.84319 
L 512.56157 232.291096 
L 512.614564 232.866461 
L 512.632195 233.518393 
L 512.720537 234.275171 
L 512.755875 234.620253 
L 513.515993 234.485938 
L 513.675067 235.045839 
L 514.364358 236.904733 
L 514.311208 238.514225 
L 513.957597 239.659347 
L 513.851459 240.913477 
L 513.621605 241.652506 
L 513.091281 242.077969 
L 512.703944 242.274792 
L 512.803429 243.113291 
L 512.857783 243.614147 
L 512.929808 244.394502 
L 512.984351 244.744049 
L 513.074619 245.617571 
L 513.156043 246.32788 
L 513.210191 246.933576 
L 513.300477 247.807075 
L 513.363472 248.517383 
L 513.45392 249.379253 
L 513.525756 250.287796 
L 513.570315 251.091267 
L 513.605867 251.754875 
L 513.641027 252.628162 
L 513.694617 253.478332 
L 513.757609 254.223662 
L 513.830209 254.759314 
L 513.966552 255.563252 
L 514.130727 256.262354 
L 514.313148 256.996709 
L 514.477323 257.672462 
L 514.705631 258.476639 
L 514.869642 259.175969 
L 515.006166 259.968005 
L 515.069156 260.72501 
L 515.104694 261.31903 
L 515.112781 262.005754 
L 515.083619 262.855687 
L 515.06423 263.460917 
L 515.081144 264.264157 
L 515.107106 265.137444 
L 515.106523 265.498431 
L 515.348282 266.698827 
L 515.408073 267.186659 
L 515.487816 267.87362 
L 515.687186 268.52557 
L 515.698654 268.601546 
L 515.868005 269.128441 
L 515.960475 269.686322 
L 516.015946 270.197319 
L 516.049209 270.736446 
L 516.211994 271.088066 
L 516.400682 271.514701 
L 516.411786 271.636596 
L 516.556051 272.260111 
L 516.700347 272.414845 
L 517.066649 272.700858 
L 517.259044 273.080591 
L 517.244235 273.258748 
L 517.173876 273.863493 
L 517.432854 274.444832 
L 517.651152 274.913658 
L 517.854634 275.373121 
L 517.980386 276.170101 
L 518.235674 276.540478 
L 518.435455 276.953037 
L 518.598219 277.590632 
L 518.775812 278.017267 
L 518.905287 278.509525 
L 518.997752 279.114287 
L 519.093922 279.690916 
L 519.141992 280.075349 
L 519.282569 280.441022 
L 519.43796 280.806719 
L 519.530419 281.50055 
L 519.693188 282.039691 
L 519.815266 282.625709 
L 519.992841 283.038289 
L 520.177807 283.689942 
L 520.27397 284.365025 
L 520.381273 284.355651 
L 520.521879 284.271291 
L 520.55148 284.440068 
L 520.488554 284.674463 
L 520.573639 285.115143 
L 520.86589 286.005902 
L 521.143341 286.938848 
L 521.413384 287.857737 
L 521.676043 288.710998 
L 521.9831 289.442347 
L 522.127376 290.103381 
L 522.227237 290.581581 
L 522.486192 291.406709 
L 522.67487 291.913029 
L 522.789546 292.386538 
L 523.000398 293.04758 
L 523.192776 293.600781 
L 523.459122 294.636871 
L 523.655181 295.241646 
L 523.877136 296.024582 
L 524.102797 296.770001 
L 524.369147 297.473237 
L 524.69842 298.256163 
L 524.709483 298.678088 
L 524.579947 299.095327 
L 524.639121 299.550059 
L 524.805581 300.206403 
L 525.02754 300.900272 
L 525.353105 301.476929 
L 525.541798 301.730101 
L 525.682342 302.470841 
L 525.893193 303.366262 
L 525.893151 303.938211 
L 526.022625 304.36015 
L 526.092887 304.875842 
L 526.318535 305.747848 
L 526.407287 306.394798 
L 526.477528 307.18241 
L 526.566292 307.923121 
L 526.655027 308.799804 
L 526.802989 309.381133 
L 526.913944 310.046834 
L 527.036027 310.225007 
L 527.235834 310.182843 
L 527.354247 310.159417 
L 527.598434 310.482916 
L 527.820401 311.036122 
L 527.960956 311.603396 
L 528.016436 311.89407 
L 528.027492 312.630079 
L 528.060748 313.183285 
L 528.26419 314.050596 
L 528.634129 315.002303 
L 529.115035 316.441598 
L 529.292531 317.77771 
L 529.514434 319.141937 
L 529.891744 320.548394 
L 530.135911 321.101626 
L 530.317198 321.284477 
L 530.394891 321.443876 
L 530.206155 321.809533 
L 530.189429 321.994809 
L 530.19312 322.873702 
L 530.304058 323.7082 
L 530.311417 324.345756 
L 530.429771 324.833344 
L 530.503709 325.667815 
L 530.947643 326.63361 
L 531.221401 327.205571 
L 531.480372 327.646297 
L 531.931775 327.805742 
L 532.420172 328.058952 
L 532.73831 328.734065 
L 533.071248 329.596702 
L 533.219202 330.21555 
L 533.529989 330.628128 
L 533.626155 330.890675 
L 533.574339 331.12507 
L 533.64832 331.378229 
L 533.796288 331.818942 
L 533.981262 332.175238 
L 534.358615 332.925372 
L 534.713778 333.497368 
L 535.068905 334.284995 
L 535.305649 335.194523 
L 535.81604 337.754239 
L 536.000995 338.335598 
L 536.282117 339.367003 
L 536.444862 340.013965 
L 536.65202 340.595304 
L 536.799982 341.073513 
L 536.786585 341.638547 
L 536.768455 341.959543 
L 536.701839 342.245509 
L 536.501951 343.122132 
L 536.431593 343.872209 
L 536.342737 344.594173 
L 536.320476 345.292683 
L 536.202047 345.780219 
L 536.039208 346.075535 
L 535.809816 346.103638 
L 535.658085 346.431781 
L 535.484147 346.802108 
L 535.295434 347.130246 
L 535.228813 347.261517 
L 535.003094 347.439624 
L 534.825499 347.458348 
L 534.633092 347.448961 
L 534.416707 346.811356 
L 534.239126 346.43629 
L 533.972764 346.089345 
L 533.439975 345.742367 
L 533.062597 345.573545 
L 532.722184 345.63913 
L 532.440972 345.732856 
L 532.211572 345.85472 
L 531.737937 346.145306 
L 531.323531 346.342161 
L 531.182915 346.398409 
L 531.036774 346.421831 
L 530.855479 346.388983 
L 530.69268 346.182694 
L 530.49662 345.741999 
L 530.296844 345.474747 
L 530.100737 345.413787 
L 529.904655 345.263737 
L 529.734467 345.043369 
L 529.616093 344.832393 
L 529.531002 344.565178 
L 529.529468 344.550551 
L 529.49773 344.246374 
L 529.64945 344.049508 
L 529.712349 343.918237 
L 529.66426 343.861989 
L 529.553255 343.918218 
L 529.349738 344.13854 
L 529.157331 344.110384 
L 528.957535 344.096305 
L 528.983431 344.241642 
L 529.06112 344.44792 
L 529.086986 344.752646 
L 529.135077 345.015186 
L 529.127643 345.37615 
L 528.809404 345.830861 
L 528.476387 346.037089 
L 528.217387 346.023003 
L 528.099013 345.812027 
L 528.010206 345.708871 
L 527.917724 345.465073 
L 527.87707 345.033782 
L 527.87708 344.907196 
L 528.054703 344.508734 
L 528.010302 344.41966 
L 527.725404 344.522772 
L 527.492287 344.593065 
L 527.277695 344.560214 
L 527.000234 344.021057 
L 526.704267 343.552218 
L 526.548887 343.172464 
L 526.641397 343.041219 
L 526.863404 342.96154 
L 527.177911 342.895949 
L 527.022532 342.741234 
L 526.844925 342.670893 
L 526.641424 342.670869 
L 526.360242 342.600515 
L 526.230752 342.455166 
L 526.130856 342.291073 
L 525.990268 342.211351 
L 525.790479 341.836284 
L 525.720214 341.40499 
L 525.690644 341.090879 
L 525.609263 340.720519 
L 525.638892 340.467373 
L 525.798007 340.18611 
L 526.008935 339.9236 
L 526.190246 339.750155 
L 526.223551 339.628265 
L 526.175461 339.590764 
L 526.049639 339.670455 
L 525.842441 339.820434 
L 525.675923 340.040762 
L 525.38358 340.401693 
L 525.150471 340.603265 
L 525.039474 340.546987 
L 525.061698 340.2704 
L 525.261525 339.876632 
L 525.431745 339.660998 
L 525.624146 339.520379 
L 525.835068 339.356322 
L 525.990488 339.192259 
L 526.060793 339.079759 
L 525.949793 339.070361 
L 525.746287 339.131295 
L 525.472471 339.360973 
L 525.276345 339.548471 
L 525.106128 339.70784 
L 524.932226 339.871901 
L 524.791604 340.007834 
L 524.621419 339.975011 
L 524.49932 339.792146 
L 524.443842 339.478054 
L 524.499364 339.187393 
L 524.606674 339.004577 
L 524.799086 338.962411 
L 524.928582 339.037439 
L 525.032175 339.046814 
L 525.054387 338.934308 
L 525.183899 338.788989 
L 525.350408 338.690555 
L 525.52432 338.639026 
L 525.616828 338.549945 
L 525.439216 338.540562 
L 525.198715 338.512401 
L 525.024829 338.456116 
L 524.880539 338.348283 
L 524.702941 338.132608 
L 524.440251 337.912254 
L 524.299682 337.560635 
L 524.307111 337.251221 
L 524.466238 336.796491 
L 524.592059 336.48242 
L 524.68828 336.257392 
L 524.47367 336.454274 
L 524.244242 336.707397 
L 524.096224 336.937089 
L 523.885297 337.180852 
L 523.763199 337.241773 
L 523.692914 337.072992 
L 523.685533 336.697948 
L 523.741056 336.388562 
L 523.863184 336.158844 
L 523.966788 336.022907 
L 523.88539 335.882257 
L 523.582016 335.605632 
L 523.323024 335.455577 
L 523.371124 335.357152 
L 523.582039 335.291525 
L 523.892842 335.249372 
L 524.059511 335.184977 
L 523.792944 335.10872 
L 523.522849 335.089942 
L 523.326748 335.169625 
L 523.186133 335.193049 
L 523.086243 335.193038 
L 522.941937 335.05238 
L 522.867962 334.672637 
L 522.945696 334.264777 
L 523.130723 333.913195 
L 523.208437 333.777255 
L 523.053025 333.824118 
L 522.849505 334.067882 
L 522.764404 334.161633 
L 522.66451 333.95066 
L 522.546154 333.453711 
L 522.42406 333.200547 
L 522.1799 332.778597 
L 522.050433 332.281646 
L 521.946857 331.756565 
L 521.817395 331.175238 
L 521.676865 330.247 
L 521.540829 329.628018 
L 521.521505 329.515645 
L 521.429047 328.887442 
L 521.351371 328.47018 
L 521.210821 327.818532 
L 521.221958 327.171593 
L 521.255297 326.829356 
L 521.236808 326.655911 
L 521.036979 326.815277 
L 520.881602 326.599606 
L 520.863126 326.243308 
L 520.940848 325.999553 
L 521.074047 325.840179 
L 520.98526 325.671395 
L 520.737387 325.371338 
L 520.670778 325.315065 
L 520.57459 325.057212 
L 520.515437 324.569655 
L 520.323065 323.983629 
L 520.127004 323.463231 
L 519.882825 323.008455 
L 519.664556 322.534958 
L 519.324166 322.155186 
L 518.894997 321.489429 
L 518.543528 320.903387 
L 518.325283 320.054824 
L 518.166236 319.290666 
L 517.944277 318.587437 
L 517.703803 318.104553 
L 517.370836 317.457555 
L 517.134052 316.894966 
L 516.960206 316.168302 
L 516.80485 315.315077 
L 516.645788 314.771243 
L 516.379405 314.264894 
L 516.079713 313.946085 
L 515.88733 313.753851 
L 515.709716 313.730393 
L 515.546921 313.631922 
L 515.495137 313.411593 
L 515.550658 313.106876 
L 515.643173 312.914672 
L 515.617281 312.675575 
L 515.450802 312.253634 
L 515.421215 312.159871 
L 515.43974 311.780137 
L 515.491571 311.255096 
L 515.639596 310.955081 
L 515.891244 310.509744 
L 515.898661 310.069051 
L 515.795096 309.595567 
L 515.647141 308.81264 
L 515.591673 308.282896 
L 515.565806 307.640623 
L 515.462246 307.068663 
L 515.262486 306.388877 
L 515.066387 306.088827 
L 514.992409 305.709084 
L 515.010946 305.141852 
L 514.933284 304.438638 
L 514.82604 303.5479 
L 514.7077 302.699349 
L 514.448712 302.352413 
L 514.204532 301.813264 
L 513.941859 301.15222 
L 513.804967 300.824043 
L 513.697713 300.083309 
L 513.719934 299.8208 
L 513.775482 299.089467 
L 513.842115 298.498777 
L 513.494373 297.387668 
L 513.176179 296.993846 
L 512.91349 296.862564 
L 512.698881 296.670328 
L 512.54351 296.262444 
L 512.362208 295.934264 
L 512.278089 295.891999 
L 512.147612 295.826427 
L 511.929296 295.981102 
L 511.773857 296.388955 
L 511.777532 296.857759 
L 511.899591 297.500041 
L 512.110462 298.236069 
L 512.302865 298.456435 
L 512.498956 298.615843 
L 512.535926 299.122146 
L 512.702411 299.487843 
L 512.587689 299.712848 
L 512.435963 299.970675 
L 512.432248 300.439478 
L 512.432224 300.823906 
L 512.428499 301.180201 
L 512.583886 301.316165 
L 512.698596 301.292736 
L 512.706019 301.030202 
L 512.680139 300.580144 
L 512.79856 300.439514 
L 512.931756 300.655182 
L 513.020534 301.002101 
L 513.201824 301.222466 
L 513.549633 301.259996 
L 513.734626 301.489724 
L 514.056505 302.146081 
L 514.326572 302.722751 
L 514.489346 303.186878 
L 514.585524 303.650999 
L 514.600296 304.044791 
L 514.518885 304.344835 
L 514.33015 304.715166 
L 514.241323 305.141773 
L 514.111811 305.258961 
L 513.989692 305.319884 
L 513.960067 305.807432 
L 514.04514 306.177791 
L 514.189445 306.412208 
L 514.466947 306.548207 
L 514.777742 306.74043 
L 515.01823 307.07331 
L 515.018219 307.246776 
L 514.973779 307.72963 
L 514.988564 307.917153 
L 515.021868 308.104678 
L 514.951545 308.198432 
L 514.744355 308.146837 
L 514.518644 308.137452 
L 514.300331 308.282764 
L 514.181913 308.385875 
L 514.070903 308.489009 
L 514.189293 308.821877 
L 514.311362 309.271922 
L 514.433442 309.534469 
L 514.592544 309.754832 
L 514.611034 309.923608 
L 514.451911 310.031407 
L 514.440806 310.218928 
L 514.485196 310.518962 
L 514.548037 311.311242 
L 514.551712 311.756606 
L 514.621989 312.103546 
L 514.751478 312.337961 
L 514.925384 312.45518 
L 515.084466 312.69896 
L 515.287962 312.85837 
L 515.343452 313.050589 
L 515.21764 313.21935 
L 515.010422 313.345915 
L 514.877204 313.50529 
L 514.925304 313.697509 
L 515.040001 313.870965 
L 515.117688 313.880358 
L 515.299014 313.791308 
L 515.398899 313.889749 
L 515.53951 313.964777 
L 515.646797 314.152309 
L 515.698582 314.367969 
L 515.798845 314.493375 
L 515.852114 314.649267 
L 515.866904 314.761777 
L 515.859506 314.893055 
L 515.741088 315.005551 
L 515.622686 315.155542 
L 515.519058 315.371186 
L 515.541253 315.511829 
L 515.593045 315.61498 
L 515.670847 315.792896 
L 515.716985 315.882197 
L 515.85019 315.915037 
L 515.990762 316.294787 
L 516.075866 316.435437 
L 516.183143 316.791743 
L 516.264515 317.087089 
L 516.308899 317.466829 
L 516.305175 317.780913 
L 516.46055 318.334132 
L 516.638144 318.395085 
L 516.75283 318.718567 
L 516.749114 318.906088 
L 516.682492 319.328005 
L 516.700961 319.806196 
L 516.837823 320.270321 
L 516.95251 320.575055 
L 517.133791 320.879797 
L 517.192979 321.132953 
L 517.207752 321.498635 
L 517.285444 321.709605 
L 517.559216 322.178437 
L 517.762702 322.464434 
L 517.869999 322.759782 
L 517.888471 323.195762 
L 517.962448 323.556758 
L 518.143737 323.730244 
L 518.310218 324.081865 
L 518.421197 324.428787 
L 518.572891 324.621017 
L 518.731991 324.564768 
L 518.931791 324.574175 
L 519.146397 324.714839 
L 519.25738 325.010188 
L 519.53116 325.333688 
L 519.627352 325.535298 
L 519.675438 325.652504 
L 519.975149 325.633766 
L 520.241515 326.055719 
L 520.46348 326.637078 
L 520.500462 326.913671 
L 520.53744 327.246531 
L 520.563329 327.513738 
L 520.433815 327.677805 
L 520.160017 327.626202 
L 519.923227 327.476173 
L 519.745641 327.05423 
L 519.664269 326.782301 
L 519.482987 326.243157 
L 519.264714 325.825903 
L 519.09821 325.830578 
L 518.902102 325.99933 
L 518.724477 326.168085 
L 518.613464 326.322769 
L 518.613447 326.575919 
L 518.694825 327.044731 
L 518.768796 327.499488 
L 518.864973 327.921422 
L 518.961152 328.31053 
L 519.057326 328.502754 
L 519.249722 328.727792 
L 519.345927 328.727802 
L 519.386646 328.521538 
L 519.571657 328.399664 
L 519.771445 328.582538 
L 519.908315 328.90133 
L 520.034117 329.112305 
L 520.078487 329.417032 
L 520.078442 330.073358 
L 520.004422 330.354632 
L 519.800901 330.607759 
L 519.589998 330.757762 
L 519.404986 330.888998 
L 519.116367 330.949925 
L 518.972063 331.0249 
L 518.938757 331.151483 
L 519.234748 331.357784 
L 519.430842 331.385938 
L 519.704617 331.775065 
L 519.804498 332.187637 
L 520.004255 332.806466 
L 520.50368 334.011355 
L 520.385275 334.217611 
L 520.259448 334.372317 
L 520.314944 334.447313 
L 520.544351 334.498911 
L 520.622054 334.512997 
L 520.914319 335.038076 
L 521.014182 335.699105 
L 521.014154 336.097588 
L 521.169516 336.528914 
L 521.32121 336.693012 
L 521.550609 336.838348 
L 521.765165 337.410322 
L 521.768844 337.757232 
L 521.694824 338.043199 
L 521.705898 338.315097 
L 521.93159 338.512029 
L 522.135076 338.741761 
L 522.19056 338.985555 
L 522.320002 339.829416 
L 522.353272 340.213825 
L 522.353232 340.785775 
L 522.445696 341.306162 
L 522.456774 341.779659 
L 522.434545 342.140622 
L 522.552916 342.40317 
L 522.800818 342.506344 
L 523.008017 342.595435 
L 523.263291 342.923627 
L 523.396478 343.181484 
L 523.507465 343.369018 
L 523.677659 343.519041 
L 523.666536 343.692506 
L 523.784937 343.786281 
L 523.969927 343.940998 
L 524.129001 344.217629 
L 524.276978 344.545808 
L 524.565541 345.230277 
L 524.672804 345.703785 
L 524.735658 346.200729 
L 524.920628 346.627367 
L 525.175939 346.683639 
L 525.397934 346.763371 
L 525.4756 347.025914 
L 525.449685 347.382207 
L 525.58656 347.583799 
L 525.901044 347.808852 
L 526.015741 347.907319 
L 526.370924 348.202721 
L 526.585498 348.455896 
L 526.700183 348.713751 
L 526.737174 348.840319 
L 526.611352 349.187237 
L 526.737137 349.346641 
L 526.999825 349.562326 
L 527.162609 349.731097 
L 527.377188 350.153046 
L 527.62507 350.251529 
L 527.784174 350.350001 
L 527.728665 350.467195 
L 527.599156 350.584381 
L 527.710147 350.706288 
L 527.917334 350.682872 
L 527.972829 350.748507 
L 527.806313 350.968834 
L 527.773003 351.146966 
L 527.858103 351.301672 
L 528.009745 351.883025 
L 528.124397 352.572167 
L 528.157642 353.251936 
L 528.194591 353.927014 
L 528.231577 354.123925 
L 528.372161 354.475545 
L 528.516436 354.747459 
L 528.634817 355.094407 
L 528.749486 355.300689 
L 528.927089 355.403834 
L 529.241558 355.792993 
L 529.482034 356.097745 
L 529.726221 356.294659 
L 529.94078 356.725993 
L 530.11833 357.274525 
L 530.299589 357.982422 
L 530.510444 358.413757 
L 530.77311 358.873208 
L 530.939559 359.515499 
L 531.050525 359.956184 
L 531.231767 360.635972 
L 531.379743 360.921965 
L 531.812599 361.540849 
L 532.108579 361.756518 
L 532.611751 362.103514 
L 532.926207 362.619238 
L 533.344234 363.388125 
L 533.606908 363.735068 
L 533.858486 363.885127 
L 534.147075 364.114873 
L 534.261747 364.269584 
L 534.357909 364.775918 
L 534.32829 365.108747 
L 534.176569 365.343129 
L 533.943464 365.540006 
L 533.869445 365.783784 
L 533.865727 365.96192 
L 533.998922 366.051005 
L 534.180217 366.036973 
L 534.228298 366.17762 
L 534.054393 366.402615 
L 534.009968 366.637011 
L 534.128354 366.880813 
L 534.342918 367.199618 
L 534.516822 367.218388 
L 534.683314 367.284061 
L 534.712887 367.523136 
L 534.679565 367.846625 
L 534.698047 368.071644 
L 534.85709 368.662362 
L 534.953258 369.079605 
L 535.023531 369.360896 
L 535.312091 369.932883 
L 535.685729 370.439231 
L 536.037175 371.034667 
L 536.292464 371.28785 
L 536.42565 371.255042 
L 536.518126 371.526974 
L 536.614306 371.803576 
L 536.847383 372.15521 
L 536.987959 372.333365 
L 537.132242 372.45997 
L 537.239513 372.750629 
L 537.24318 373.186631 
L 537.235777 373.360073 
L 537.435545 373.660153 
L 537.609416 373.828927 
L 537.742617 373.828944 
L 537.838818 373.847728 
L 537.964615 373.805534 
L 538.090419 373.68368 
L 538.231024 373.716501 
L 538.364215 373.843105 
L 538.378998 373.993111 
L 538.171793 374.068096 
L 537.971991 374.185271 
L 537.960863 374.391538 
L 538.075544 374.630648 
L 538.17543 374.869756 
L 538.29379 375.188549 
L 538.493572 375.521431 
L 538.645256 375.502704 
L 538.819168 375.399581 
L 538.996751 375.479311 
L 539.255715 375.835642 
L 539.248301 376.130978 
L 539.126164 376.482564 
L 539.129842 376.782595 
L 539.281492 377.373313 
L 539.373969 377.631167 
L 539.562622 378.179702 
L 539.662509 378.170331 
L 539.810512 378.095338 
L 539.980695 378.29696 
L 540.128679 378.437621 
L 540.550402 379.187765 
L 540.868541 379.853497 
L 541.342067 380.697409 
L 541.604699 381.250647 
L 541.889544 381.878879 
L 542.614649 382.793148 
L 542.714487 383.355726 
L 542.843942 383.829241 
L 543.206498 384.335591 
L 543.532065 384.527851 
L 543.898325 384.82324 
L 544.086992 385.174869 
L 544.194256 385.498377 
L 544.468036 385.803139 
L 544.67518 386.196959 
L 544.882367 386.318882 
L 545.226456 386.440802 
L 545.370733 386.614289 
L 545.552024 386.614315 
L 545.744423 386.642476 
L 546.003376 387.078491 
L 546.103237 387.355096 
L 546.095828 387.575441 
L 545.984821 387.697319 
L 545.822011 387.701988 
L 545.655526 387.589433 
L 545.485358 387.458153 
L 545.392858 387.486272 
L 545.355842 387.678481 
L 545.39283 387.80505 
L 545.559313 387.926967 
L 545.707286 388.184831 
L 545.899647 388.428645 
L 546.210427 388.494318 
L 546.380619 388.564663 
L 546.310313 388.695909 
L 546.177103 388.813091 
L 546.214089 388.963123 
L 546.336186 389.070956 
L 546.617355 389.155395 
L 546.761651 389.30542 
L 546.835616 389.666419 
L 546.96877 389.966468 
L 547.257355 390.144646 
L 547.486721 390.313454 
L 547.571802 390.604134 
L 547.716075 390.810424 
L 547.841874 390.735429 
L 547.967656 390.843286 
L 547.989834 391.119879 
L 547.989818 391.288653 
L 548.093406 391.508993 
L 548.237691 391.579334 
L 548.378285 391.504342 
L 548.526291 391.382493 
L 548.800068 391.495042 
L 549.170028 391.785741 
L 549.495621 391.860803 
L 549.736102 391.973347 
L 549.817457 392.3156 
L 549.913645 392.442178 
L 550.072755 392.395321 
L 550.35764 392.329736 
L 550.590737 392.390729 
L 550.809007 392.582953 
L 550.89408 392.770488 
L 551.127163 392.976815 
L 551.371317 393.215923 
L 551.419418 393.295636 
L 551.674658 393.801974 
L 551.955847 393.844228 
L 552.233326 393.961471 
L 552.414587 394.266221 
L 552.603257 394.54284 
L 552.791938 394.70695 
L 553.073095 394.899207 
L 553.184065 395.166429 
L 553.394925 395.57433 
L 553.576178 395.954094 
L 553.798138 396.282291 
L 554.127385 396.662055 
L 554.471447 397.023096 
L 554.626818 397.149707 
L 555.037468 397.538869 
L 555.292755 397.529524 
L 555.61835 397.553015 
L 555.910614 397.764023 
L 556.16216 398.139105 
L 556.495123 398.378253 
L 556.643098 398.575183 
L 557.135155 398.917479 
L 557.201744 398.931567 
L 557.534683 399.409787 
L 557.778819 399.977083 
L 557.789896 400.131781 
L 557.867553 400.567795 
L 557.919336 400.680311 
L 558.496462 401.210143 
L 558.884901 401.65557 
L 559.055026 402.358803 
L 559.044925 402.563102 
L 559.019786 403.202645 
L 559.012365 403.521444 
L 558.842127 403.933955 
L 558.516526 404.158942 
L 558.33151 404.402676 
L 558.516471 404.712121 
L 558.664454 404.815291 
L 558.871665 404.468391 
L 559.182479 404.3278 
L 559.50061 404.731028 
L 559.759557 405.134246 
L 560.033309 405.621842 
L 560.122075 405.884391 
L 560.336592 406.531367 
L 560.543758 406.803321 
L 560.810097 407.347182 
L 560.921044 407.806619 
L 561.061571 408.387954 
L 561.327916 408.866187 
L 561.572036 409.391274 
L 561.823583 409.888252 
L 561.964148 410.085182 
L 562.30447 410.741564 
L 562.459804 411.201009 
L 562.511569 411.651074 
L 562.481918 412.054245 
L 562.533681 412.354284 
L 562.607661 412.504322 
L 562.955422 412.841906 
L 563.184768 413.141974 
L 563.177346 413.460773 
L 563.118108 413.826421 
L 563.377052 414.22964 
L 563.591591 414.632852 
L 563.724739 415.092294 
L 563.968894 415.429883 
L 564.242612 416.029989 
L 564.494129 416.620729 
L 564.642048 417.314575 
L 564.664178 417.999037 
L 564.567909 418.674094 
L 564.456898 418.833486 
L 564.286727 418.786577 
L 564.212719 418.908436 
L 564.153501 419.0772 
L 563.931528 418.936521 
L 563.665165 418.664579 
L 563.376593 418.627013 
L 563.243362 418.955153 
L 563.339512 419.423973 
L 563.531851 419.789686 
L 563.790804 420.099145 
L 564.04237 420.38047 
L 564.212542 420.586768 
L 564.567667 420.961871 
L 564.745246 421.16817 
L 564.974613 421.243222 
L 565.181813 421.168244 
L 565.426004 421.149538 
L 565.670188 421.19646 
L 565.929156 421.346508 
L 566.173327 421.524709 
L 566.713429 422.002968 
L 566.920599 422.199911 
L 567.238713 422.846906 
L 567.423636 423.456383 
L 567.490154 424.11272 
L 567.623283 424.731574 
L 567.778628 425.219152 
L 567.993173 425.528605 
L 568.237311 425.997451 
L 568.540637 426.560069 
L 568.70603 426.841586 
L 568.747762 427.000776 
L 568.947501 427.572761 
L 568.969626 428.116583 
L 568.939948 428.913544 
L 568.777118 429.316669 
L 568.902863 429.710504 
L 569.183982 430.319999 
L 569.568662 431.145143 
L 570.079141 431.86721 
L 570.574842 432.579866 
L 571.277706 433.367596 
L 571.507054 433.592653 
L 571.803002 433.873989 
L 572.202535 434.324117 
L 572.616826 434.933636 
L 572.961368 435.708324 
L 573.145761 436.161985 
L 573.596998 437.221568 
L 573.774524 437.859178 
L 573.974252 438.337404 
L 574.196181 438.815611 
L 574.610462 439.49076 
L 574.995195 439.959634 
L 575.291113 440.475373 
L 575.387259 440.756673 
L 575.87555 441.450607 
L 575.979094 441.806922 
L 576.230629 442.29452 
L 576.615304 443.091558 
L 577.007411 443.654196 
L 577.155356 444.029266 
L 577.392106 444.273075 
L 577.932209 444.770113 
L 578.250327 445.285857 
L 578.516643 445.726578 
L 578.886576 446.045448 
L 579.041948 446.242362 
L 579.175091 446.66431 
L 579.064034 447.226854 
L 578.938182 447.630007 
L 578.782781 447.836247 
L 578.738348 448.089411 
L 578.864105 448.342584 
L 579.041661 448.680143 
L 579.226576 449.270875 
L 579.574239 450.161669 
L 579.929344 450.743049 
L 580.417605 451.474481 
L 580.7801 452.187141 
L 581.364568 452.815446 
L 581.830665 453.368715 
L 582.289349 453.968887 
L 582.696256 454.447132 
L 582.888604 454.803465 
L 583.066143 455.112915 
L 583.271505 455.555434 
L 583.417531 455.788056 
L 583.669085 456.069388 
L 583.905831 456.313221 
L 584.172169 456.53829 
L 584.223941 456.847716 
L 584.305267 457.30715 
L 584.460595 457.841636 
L 584.549329 458.282325 
L 584.734263 458.685537 
L 584.845235 458.835562 
L 585.052344 459.454434 
L 585.074482 459.970123 
L 585.096611 460.410798 
L 585.244532 460.945259 
L 585.377658 461.479718 
L 585.629151 462.239239 
L 585.740095 462.614305 
L 585.947209 463.036269 
L 586.213488 463.870784 
L 586.420587 464.555284 
L 586.620288 465.164769 
L 586.812638 465.483608 
L 586.871773 465.839893 
L 586.930937 466.111824 
L 587.138076 466.468162 
L 587.256442 466.71195 
L 587.493125 467.433951 
L 587.752027 468.015338 
L 587.877772 468.324756 
L 588.121857 469.084277 
L 588.358551 469.712517 
L 588.654392 470.734584 
L 588.824506 471.315931 
L 588.883666 471.615973 
L 589.083383 472.084817 
L 589.327459 472.891219 
L 589.593726 473.64136 
L 589.786053 474.119565 
L 590.015377 474.447775 
L 590.192907 474.935363 
L 590.348186 475.676119 
L 590.636679 476.360636 
L 590.947338 477.185777 
L 591.184025 477.842151 
L 591.346726 478.45163 
L 591.49467 478.761076 
L 591.679659 478.695486 
L 591.798038 478.817404 
L 591.842415 479.014297 
L 591.635226 479.07052 
L 591.598212 479.211154 
L 591.753528 479.651857 
L 592.130776 480.570795 
L 592.515423 481.405337 
L 592.966675 482.221168 
L 593.188586 482.718129 
L 593.277327 483.074443 
L 593.610202 483.749586 
L 593.765549 484.077781 
L 594.061513 484.096613 
L 594.120687 484.134121 
L 594.313016 484.574832 
L 594.416538 485.024911 
L 594.53489 485.343713 
L 594.749402 485.775067 
L 594.743787 486.029749 
L 594.830657 486.872081 
L 595.00074 487.640952 
L 595.274392 488.503627 
L 595.414955 488.60678 
L 595.58502 489.506929 
L 595.710703 490.257042 
L 595.799435 490.800879 
L 596.028696 491.569761 
L 596.117388 492.282349 
L 596.317066 493.135624 
L 596.40578 493.67946 
L 596.568448 494.504595 
L 596.745921 495.245334 
L 596.893806 495.976705 
L 597.041714 496.529916 
L 597.21182 497.111265 
L 597.352315 497.852019 
L 597.514954 498.883424 
L 597.685026 499.70856 
L 597.847702 500.458682 
L 597.980781 501.26504 
L 598.173021 502.202689 
L 598.276538 502.802795 
L 598.431841 503.299742 
L 598.572357 503.871723 
L 598.712837 504.57496 
L 598.905143 505.146951 
L 599.07525 505.568912 
L 599.252748 506.234638 
L 599.655475 509.930176 
L 599.841589 510.59492 
L 599.907854 510.815145 
L 600.181591 511.649804 
L 600.436547 512.438014 
L 600.672723 513.179957 
L 600.81482 513.667105 
L 601.004222 514.316559 
L 601.212388 515.000583 
L 601.448206 515.707732 
L 601.943032 516.62075 
L 602.279296 517.245057 
L 602.734781 517.867559 
L 603.05244 518.480417 
L 603.26841 519.013135 
L 603.496793 519.918083 
L 603.807551 520.787317 
L 604.015198 521.413199 
L 604.270506 522.23641 
L 604.562129 523.012474 
L 604.84452 523.788789 
L 605.079801 524.437567 
L 605.380635 525.213634 
L 605.689966 525.931354 
L 606.0179 526.671947 
L 606.354514 527.342724 
L 606.543735 527.957386 
L 606.734377 528.746476 
L 606.933341 529.442173 
L 607.142051 530.196268 
L 607.425329 531.065726 
L 607.624469 531.784772 
L 607.843103 532.608457 
L 608.01532 533.386327 
L 608.216239 534.291706 
L 608.379243 535.069574 
L 608.550747 535.77742 
L 608.886499 537.391072 
L 608.983952 538.03023 
L 609.064225 538.797549 
L 609.143078 539.390211 
L 609.178358 540.262818 
L 609.220359 540.867626 
L 609.338191 541.727662 
L 609.47427 542.564125 
L 609.618314 543.283869 
L 609.7248 543.899428 
L 609.851844 544.759237 
L 609.832208 545.644421 
L 609.700251 546.298176 
L 609.422148 547.046872 
L 609.005511 547.704453 
L 608.516978 548.525664 
L 608.247555 549.216219 
L 608.179547 549.845725 
L 608.177449 550.625844 
L 608.386865 551.461202 
L 608.696367 552.190574 
L 609.085674 552.913373 
L 416.022349 553.612445 
L 416.031744 513.695516 
L 356.501082 513.512491 
L 307.833331 423.765151 
L 307.943876 367.084586 
L 128.148156 366.436809 
L 128.618457 179.635481 
L 143.622555 179.70102 
L 150.563577 179.166029 
L 155.597438 177.797461 
L 160.001884 175.688899 
L 165.125329 172.782903 
L 170.271315 170.047768 
L 175.754518 167.654194 
L 181.417667 165.886981 
L 186.047148 164.803477 
L 191.957715 163.833454 
L 197.756046 163.489876 
L 203.734293 163.772669 
L 209.622754 164.624969 
L 214.396533 165.762369 
L 220.330131 167.696651 
L 225.769316 169.915837 
L 233.002177 173.558141 
L 238.396472 176.460745 
L 242.262357 178.395765 
L 246.487693 179.647376 
L 252.43564 180.185505 
L 272.321897 180.275761 
L 284.448825 180.260267 
L 285.683636 177.976883 
L 293.230145 162.787555 
L 301.402049 178.027865 
L 331.464577 178.124204 
L 340.4045 178.154687 
L 372.127203 178.263947 
" style="fill:#1a1a1a;stroke:#ffffff;stroke-linejoin:miter;stroke-width:4;"/>
   </g>
  </g>
 </g>
 <defs>
  <clipPath id="p8da1e9f27f">
   <rect height="543.6" width="558" x="90" y="86.4"/>
  </clipPath>
 </defs>
</svg>
