<?xml version="1.0" encoding="utf-8" standalone="no"?>
<!DOCTYPE svg PUBLIC "-//W3C//DTD SVG 1.1//EN"
  "http://www.w3.org/Graphics/SVG/1.1/DTD/svg11.dtd">
<!-- Created with matplotlib (https://matplotlib.org/) -->
<svg height="720pt" version="1.1" viewBox="0 0 720 720" width="720pt" xmlns="http://www.w3.org/2000/svg" xmlns:xlink="http://www.w3.org/1999/xlink">
 <metadata>
  <rdf:RDF xmlns:cc="http://creativecommons.org/ns#" xmlns:dc="http://purl.org/dc/elements/1.1/" xmlns:rdf="http://www.w3.org/1999/02/22-rdf-syntax-ns#">
   <cc:Work>
    <dc:type rdf:resource="http://purl.org/dc/dcmitype/StillImage"/>
    <dc:date>2021-05-28T08:56:53.384414</dc:date>
    <dc:format>image/svg+xml</dc:format>
    <dc:creator>
     <cc:Agent>
      <dc:title>Matplotlib v3.3.3, https://matplotlib.org/</dc:title>
     </cc:Agent>
    </dc:creator>
   </cc:Work>
  </rdf:RDF>
 </metadata>
 <defs>
  <style type="text/css">*{stroke-linecap:butt;stroke-linejoin:round;}</style>
 </defs>
 <g id="figure_1">
  <g id="patch_1">
   <path d="M 0 720 
L 720 720 
L 720 0 
L 0 0 
z
" style="fill:none;"/>
  </g>
  <g id="axes_1">
   <g id="patch_2">
    <path clip-path="url(#p644f21df67)" d="M 547.933314 110.579483 
L 562.001293 110.59784 
L 577.499447 110.588669 
L 592.529502 110.618161 
L 606.65999 110.637009 
L 622.280157 110.640079 
L 622.39746 192.09823 
L 622.345183 227.710799 
L 622.259333 286.209828 
L 622.387795 294.349359 
L 622.386463 297.976557 
L 622.291217 310.168037 
L 622.190558 315.465742 
L 622.203537 319.526368 
L 622.216963 329.459902 
L 622.161835 352.699249 
L 622.151622 353.995301 
L 622.149301 360.504741 
L 622.215693 369.956551 
L 622.260331 380.272314 
L 622.324612 389.741848 
L 622.283178 396.108693 
L 622.319833 402.622437 
L 622.376121 408.287554 
L 622.304457 416.240134 
L 622.310942 421.747342 
L 622.367472 427.738391 
L 622.470503 439.913859 
L 622.50634 441.665503 
L 622.519329 453.65889 
L 622.530946 462.418272 
L 622.536106 466.768649 
L 622.547048 475.998034 
L 622.589248 483.565431 
L 622.561897 494.138789 
L 623.250401 535.556399 
L 623.184234 536.893344 
L 623.183092 539.694575 
L 623.200856 541.826633 
L 623.216704 549.784917 
L 621.670002 559.425531 
L 621.65908 579.797506 
L 557.02744 579.775665 
L 527.083032 579.771274 
L 518.798156 579.770882 
L 503.587462 579.770342 
L 493.290625 579.770107 
L 493.29242 579.09113 
L 493.294972 561.442401 
L 483.487871 561.444638 
L 483.487823 561.448793 
L 483.439823 565.41749 
L 470.884397 565.413358 
L 470.881206 572.255208 
L 459.462947 572.257765 
L 457.139898 572.263136 
L 457.139716 579.100992 
L 455.905949 579.101184 
L 455.905946 578.731526 
L 455.904121 578.731526 
L 447.215559 578.72862 
L 434.460061 578.728416 
L 407.688279 578.717411 
L 404.960127 580.207584 
L 402.760493 581.202943 
L 401.163011 581.829612 
L 399.512312 582.401806 
L 397.813283 582.91783 
L 396.620383 583.255554 
L 387.101989 585.950105 
L 383.359302 587.009676 
L 382.389325 587.325032 
L 381.481386 587.703747 
L 380.646355 588.141274 
L 379.894253 588.632372 
L 378.890196 589.509814 
L 378.149419 590.481142 
L 377.694501 591.516791 
L 377.53927 592.585274 
L 377.536241 593.704446 
L 377.669535 594.119916 
L 378.051399 594.472449 
L 378.623567 594.708312 
L 379.299255 594.791684 
L 374.001299 594.787188 
L 360.968577 594.773642 
L 360.95615 596.923977 
L 360.921713 602.915833 
L 360.913724 604.062359 
L 360.91425 605.844715 
L 305.323053 605.813368 
L 295.646485 605.706818 
L 291.42824 605.613637 
L 287.81404 605.598224 
L 284.503234 605.503081 
L 281.815584 605.336019 
L 278.270935 604.977621 
L 275.42733 604.523334 
L 271.999341 603.82979 
L 268.298467 602.753279 
L 266.976331 602.274769 
L 266.972564 595.382168 
L 266.106543 592.381127 
L 266.179539 585.897074 
L 266.26375 575.890097 
L 251.333599 575.885238 
L 251.331158 578.642225 
L 225.907202 578.634094 
L 216.630569 579.396469 
L 195.462397 579.36546 
L 170.162604 579.38614 
L 170.158471 574.256998 
L 170.109251 573.7466 
L 170.098984 573.122101 
L 170.1625 569.405622 
L 182.767211 569.417038 
L 183.347193 569.388205 
L 184.292883 569.384427 
L 185.159934 569.309166 
L 185.905045 569.217271 
L 186.677227 569.083699 
L 187.34099 568.933488 
L 188.004752 568.766615 
L 188.736207 568.524706 
L 192.718477 567.106732 
L 193.797592 566.699321 
L 194.556119 566.424077 
L 195.165692 566.248878 
L 195.626253 566.115399 
L 196.073295 566.031934 
L 196.60163 565.931776 
L 197.062272 565.90664 
L 197.5771 565.873165 
L 198.024227 565.889711 
L 198.86144 565.907236 
L 199.534956 566.180396 
L 200.36218 565.239023 
L 202.410947 563.425028 
L 205.129851 561.473136 
L 208.888549 559.31438 
L 208.887396 557.673497 
L 208.903463 547.676412 
L 172.689527 547.662118 
L 172.151233 547.661911 
L 170.361637 547.662454 
L 170.359142 547.197875 
L 170.367992 543.18047 
L 170.376759 541.707418 
L 170.401975 535.852768 
L 170.427303 531.966074 
L 170.425882 530.201361 
L 170.430051 524.655502 
L 170.440621 514.596096 
L 170.464808 513.34186 
L 170.445524 513.341801 
L 170.490786 501.77377 
L 172.300097 500.622182 
L 221.591772 469.947968 
L 227.061482 466.544653 
L 224.58191 464.249502 
L 219.97348 459.983641 
L 169.558149 413.320847 
L 169.586146 402.063134 
L 153.13827 385.341751 
L 149.333425 381.476611 
L 114.749599 346.322002 
L 123.975349 304.327145 
L 140.610585 286.495347 
L 169.656188 286.402235 
L 226.362693 286.222987 
L 264.070474 286.120534 
L 264.15329 231.069977 
L 264.152088 228.904937 
L 265.34552 229.124042 
L 268.887114 229.389157 
L 273.098275 229.650277 
L 277.317923 229.853334 
L 281.543927 229.998235 
L 285.774155 230.084886 
L 290.006486 230.113258 
L 290.41477 230.112915 
L 291.596109 230.109001 
L 292.920587 230.100206 
L 295.17631 230.078877 
L 296.190797 230.067999 
L 299.818645 230.02843 
L 300.024773 230.026194 
L 311.608176 229.926811 
L 330.164911 229.809428 
L 337.834527 229.761013 
L 361.142776 229.614247 
L 361.613907 229.611285 
L 418.061804 229.258148 
L 420.603681 229.247303 
L 422.165288 229.245408 
L 453.876221 229.254506 
L 453.876117 226.989189 
L 456.580015 226.989131 
L 456.371408 118.576474 
L 459.44292 118.58606 
L 521.057058 118.517638 
L 521.028645 111.622912 
L 521.024423 110.57119 
L 526.396906 110.555285 
L 547.933314 110.579483 
" style="fill:#1a1a1a;stroke:#ffffff;stroke-linejoin:miter;stroke-width:4;"/>
   </g>
  </g>
 </g>
 <defs>
  <clipPath id="p644f21df67">
   <rect height="543.6" width="558" x="90" y="86.4"/>
  </clipPath>
 </defs>
</svg>
