<?xml version="1.0" encoding="utf-8" standalone="no"?>
<!DOCTYPE svg PUBLIC "-//W3C//DTD SVG 1.1//EN"
  "http://www.w3.org/Graphics/SVG/1.1/DTD/svg11.dtd">
<!-- Created with matplotlib (https://matplotlib.org/) -->
<svg height="720pt" version="1.1" viewBox="0 0 720 720" width="720pt" xmlns="http://www.w3.org/2000/svg" xmlns:xlink="http://www.w3.org/1999/xlink">
 <metadata>
  <rdf:RDF xmlns:cc="http://creativecommons.org/ns#" xmlns:dc="http://purl.org/dc/elements/1.1/" xmlns:rdf="http://www.w3.org/1999/02/22-rdf-syntax-ns#">
   <cc:Work>
    <dc:type rdf:resource="http://purl.org/dc/dcmitype/StillImage"/>
    <dc:date>2021-05-28T08:56:45.476258</dc:date>
    <dc:format>image/svg+xml</dc:format>
    <dc:creator>
     <cc:Agent>
      <dc:title>Matplotlib v3.3.3, https://matplotlib.org/</dc:title>
     </cc:Agent>
    </dc:creator>
   </cc:Work>
  </rdf:RDF>
 </metadata>
 <defs>
  <style type="text/css">*{stroke-linecap:butt;stroke-linejoin:round;}</style>
 </defs>
 <g id="figure_1">
  <g id="patch_1">
   <path d="M 0 720 
L 720 720 
L 720 0 
L 0 0 
z
" style="fill:none;"/>
  </g>
  <g id="axes_1">
   <g id="patch_2">
    <path clip-path="url(#pb00396c847)" d="M 543.331917 513.217366 
L 535.269404 513.436984 
L 490.858598 514.533575 
L 439.414972 513.422104 
L 404.533861 513.398781 
L 354.874477 513.367888 
L 342.07087 513.36037 
L 317.191963 513.346278 
L 292.060936 513.242922 
L 267.87974 513.320373 
L 244.021112 513.308836 
L 218.729486 513.297721 
L 193.437932 513.28742 
L 168.146403 513.27783 
L 155.691049 515.068493 
L 143.185127 514.69251 
L 142.979036 400.009014 
L 141.532735 247.669498 
L 203.782746 232.650031 
L 223.549958 228.968194 
L 246.759282 224.030225 
L 269.758023 221.182574 
L 294.944956 220.132075 
L 342.188025 219.903728 
L 452.60596 219.638047 
L 526.090435 219.253434 
L 535.724425 219.035038 
L 542.388218 218.249495 
L 587.329465 201.331507 
L 590.95808 219.727884 
L 593.232665 233.553442 
L 594.805956 246.391012 
L 596.028063 259.968851 
L 596.461489 271.818055 
L 596.467265 283.787366 
L 595.730247 297.892465 
L 594.367441 310.380793 
L 592.900707 321.840448 
L 590.284735 334.915439 
L 586.414479 351.221926 
L 582.463258 366.594865 
L 548.40994 498.806681 
L 545.07985 513.202089 
L 543.331917 513.217366 
" style="fill:#1a1a1a;stroke:#ffffff;stroke-linejoin:miter;stroke-width:4;"/>
   </g>
  </g>
 </g>
 <defs>
  <clipPath id="pb00396c847">
   <rect height="543.6" width="558" x="90" y="86.4"/>
  </clipPath>
 </defs>
</svg>
