<?xml version="1.0" encoding="utf-8" standalone="no"?>
<!DOCTYPE svg PUBLIC "-//W3C//DTD SVG 1.1//EN"
  "http://www.w3.org/Graphics/SVG/1.1/DTD/svg11.dtd">
<!-- Created with matplotlib (https://matplotlib.org/) -->
<svg height="720pt" version="1.1" viewBox="0 0 720 720" width="720pt" xmlns="http://www.w3.org/2000/svg" xmlns:xlink="http://www.w3.org/1999/xlink">
 <metadata>
  <rdf:RDF xmlns:cc="http://creativecommons.org/ns#" xmlns:dc="http://purl.org/dc/elements/1.1/" xmlns:rdf="http://www.w3.org/1999/02/22-rdf-syntax-ns#">
   <cc:Work>
    <dc:type rdf:resource="http://purl.org/dc/dcmitype/StillImage"/>
    <dc:date>2021-05-28T08:56:46.241212</dc:date>
    <dc:format>image/svg+xml</dc:format>
    <dc:creator>
     <cc:Agent>
      <dc:title>Matplotlib v3.3.3, https://matplotlib.org/</dc:title>
     </cc:Agent>
    </dc:creator>
   </cc:Work>
  </rdf:RDF>
 </metadata>
 <defs>
  <style type="text/css">*{stroke-linecap:butt;stroke-linejoin:round;}</style>
 </defs>
 <g id="figure_1">
  <g id="patch_1">
   <path d="M 0 720 
L 720 720 
L 720 0 
L 0 0 
z
" style="fill:none;"/>
  </g>
  <g id="axes_1">
   <g id="patch_2">
    <path clip-path="url(#pa25f60eda7)" d="M 199.417385 165.294328 
L 200.046247 165.583595 
L 200.478161 165.561773 
L 201.16359 165.269414 
L 201.814396 165.048849 
L 202.272474 164.99111 
L 202.749153 165.031349 
L 203.385755 165.195376 
L 203.80161 165.343645 
L 204.465858 165.632562 
L 205.111294 165.814354 
L 205.765598 165.978179 
L 206.339909 166.089093 
L 206.835192 166.236655 
L 207.48028 166.382718 
L 208.134019 166.49289 
L 208.82423 166.727966 
L 209.516664 167.222174 
L 210.118785 167.475942 
L 210.77365 167.622003 
L 211.355884 167.73274 
L 212.045201 167.87845 
L 212.716993 168.033142 
L 213.335901 168.188547 
L 213.999404 168.414826 
L 214.601713 168.704309 
L 215.239225 168.966684 
L 215.416121 169.01867 
L 215.858522 169.17557 
L 216.548547 169.392708 
L 217.034797 169.513523 
L 217.723735 169.632322 
L 218.298973 169.841583 
L 218.750558 170.02522 
L 219.211286 170.0748 
L 219.766481 170.431336 
L 220.356539 170.816865 
L 220.920196 171.103908 
L 221.545883 171.301554 
L 222.118662 171.445552 
L 222.708957 171.598338 
L 223.281633 171.89435 
L 223.766043 172.163472 
L 224.30319 172.495197 
L 224.919918 172.81793 
L 225.474882 173.060296 
L 226.109232 173.249127 
L 226.726086 173.473521 
L 227.377993 173.760684 
L 227.994669 173.976283 
L 228.585007 174.191894 
L 229.219359 174.425236 
L 229.774317 174.658615 
L 230.364598 174.865238 
L 231.016604 175.107545 
L 231.606736 175.367807 
L 232.152844 175.663821 
L 232.698948 175.950845 
L 233.262728 176.219934 
L 233.879383 176.471214 
L 234.513565 176.758391 
L 235.13007 177.063346 
L 235.720215 177.359323 
L 236.266325 177.664135 
L 236.67144 177.897395 
L 237.226383 178.184435 
L 237.887075 178.435697 
L 238.468484 178.624386 
L 239.0149 178.804119 
L 239.587478 179.019535 
L 240.230358 179.378312 
L 240.732421 179.674158 
L 241.23444 179.871681 
L 241.912976 180.096197 
L 242.503086 180.320597 
L 243.119897 180.54516 
L 243.806942 180.841275 
L 244.300299 181.05673 
L 244.828856 181.280983 
L 245.445329 181.568176 
L 246.079533 181.882084 
L 246.713856 182.151327 
L 247.25125 182.366781 
L 247.815011 182.609122 
L 248.33457 182.878224 
L 248.924731 183.227884 
L 249.435429 183.497008 
L 250.008192 183.71243 
L 250.598294 183.927863 
L 251.197423 184.170384 
L 251.778687 184.43946 
L 252.430543 184.726643 
L 253.056037 184.995876 
L 254.694686 185.56165 
L 255.152663 185.768155 
L 255.672376 186.00139 
L 256.209627 186.297405 
L 256.738184 186.575321 
L 257.319474 186.871334 
L 257.883082 187.17631 
L 258.36758 187.409563 
L 259.036943 187.696725 
L 259.653726 187.876616 
L 260.208778 188.083081 
L 260.737333 188.280603 
L 261.309915 188.531921 
L 261.750366 188.711363 
L 262.235014 188.855232 
L 262.904494 189.053046 
L 263.583018 189.277597 
L 264.252656 189.439506 
L 264.781327 189.547645 
L 265.265952 189.637877 
L 265.918084 189.772879 
L 266.499642 189.934846 
L 267.10755 190.087812 
L 267.733161 190.240789 
L 268.297058 190.420515 
L 268.913823 190.609209 
L 269.38962 190.735141 
L 270.041595 190.915024 
L 270.693567 191.130602 
L 271.354391 191.328251 
L 271.953467 191.50814 
L 272.61429 191.705789 
L 273.239575 191.957286 
L 273.442282 192.055893 
L 274.014869 192.289275 
L 274.640484 192.460201 
L 275.257213 192.568309 
L 275.909335 192.730428 
L 276.534942 192.883393 
L 277.186897 193.063106 
L 277.838858 193.216254 
L 278.526186 193.405083 
L 279.098897 193.566869 
L 279.680305 193.755584 
L 280.341122 193.944444 
L 280.790554 194.052449 
L 281.284003 194.151465 
L 281.89192 194.295487 
L 282.517667 194.412744 
L 282.967091 194.502824 
L 283.451715 194.60202 
L 284.042109 194.719117 
L 284.6677 194.881078 
L 285.116965 195.006872 
L 285.62813 195.141946 
L 286.077384 195.285667 
L 286.597218 195.42058 
L 287.152259 195.582378 
L 287.823622 195.745905 
L 288.151933 195.604331 
L 289.496251 195.9706 
L 290.867538 196.18117 
L 292.223964 196.478302 
L 293.601304 196.654041 
L 294.97572 196.847375 
L 297.712423 197.303017 
L 299.032498 197.807937 
L 299.701137 197.613808 
L 300.159383 197.65921 
L 300.846819 197.695884 
L 301.349263 197.705732 
L 301.83403 197.733162 
L 302.327628 197.778709 
L 302.785874 197.824094 
L 303.253116 197.815837 
L 303.720191 197.825507 
L 304.310869 197.835306 
L 304.936601 197.880996 
L 305.535979 197.92668 
L 306.135166 197.972364 
L 306.6111 198.026734 
L 307.210461 198.072419 
L 307.845168 198.05548 
L 308.479718 198.038524 
L 309.132127 198.021561 
L 309.617047 197.995516 
L 310.207702 197.942707 
L 310.895287 197.916937 
L 311.459282 197.926767 
L 311.96173 197.9454 
L 312.464174 197.955061 
L 313.001964 197.946941 
L 313.26637 197.947387 
L 313.795323 197.903558 
L 314.262543 197.886318 
L 314.756139 197.878233 
L 315.381864 197.90597 
L 315.946021 197.93373 
L 316.404423 197.934262 
L 317.030299 197.899565 
L 317.559077 197.900423 
L 318.026322 197.901128 
L 318.71394 197.920065 
L 319.216197 197.938703 
L 319.824414 197.975421 
L 320.300494 197.958198 
L 320.899835 197.950236 
L 321.375749 197.95094 
L 322.001641 197.96093 
L 322.451199 198.006329 
L 323.032875 198.007171 
L 323.500123 198.016869 
L 324.028904 198.026527 
L 324.645944 198.009589 
L 325.254314 197.992672 
L 325.871173 198.002651 
L 326.435334 197.99453 
L 326.884894 197.995246 
L 327.537268 197.924659 
L 328.225031 197.86319 
L 328.833372 197.810387 
L 329.423875 197.766546 
L 329.961678 197.794324 
L 330.631442 197.822056 
L 331.125053 197.858664 
L 331.742107 197.832759 
L 332.394508 197.789092 
L 332.896952 197.798765 
L 333.558048 197.781993 
L 334.104528 197.782855 
L 334.71291 197.748001 
L 335.285902 197.70417 
L 335.71795 197.651065 
L 336.387874 197.643282 
L 336.99625 197.590467 
L 337.595612 197.591489 
L 338.22136 197.637203 
L 338.767718 197.790064 
L 339.349126 198.023503 
L 340.001085 198.212393 
L 340.591464 198.311601 
L 341.146806 198.321436 
L 341.69345 198.29558 
L 342.275287 198.20689 
L 342.910152 198.091619 
L 343.545047 198.012236 
L 344.117878 198.00414 
L 344.77915 197.996173 
L 345.299106 198.00604 
L 345.801561 197.997777 
L 346.489179 198.016718 
L 347.123754 198.07139 
L 347.70546 198.108154 
L 348.110987 198.126664 
L 348.745562 198.181355 
L 349.39783 198.209106 
L 349.900115 198.263649 
L 350.428939 198.300257 
L 350.887344 198.309954 
L 351.372129 198.346384 
L 352.050728 198.356378 
L 352.729653 198.303903 
L 353.320328 198.197449 
L 353.911179 198.099968 
L 354.50201 197.993533 
L 355.189772 197.869457 
L 355.877512 197.727455 
L 356.494723 197.647911 
L 357.129429 197.568537 
L 357.711597 197.426202 
L 358.231866 197.27509 
L 358.80532 197.043408 
L 359.37861 196.784967 
L 360.022771 196.392452 
L 360.543362 196.16077 
L 361.046101 195.946862 
L 361.716648 195.652697 
L 362.316472 195.412195 
L 362.951499 195.189625 
L 363.48059 195.02057 
L 363.948147 194.851359 
L 364.636051 194.611023 
L 365.315263 194.352729 
L 365.994652 194.049575 
L 366.497553 193.791004 
L 366.991606 193.51465 
L 367.67112 193.050529 
L 368.350652 192.64024 
L 368.871211 192.292279 
L 369.409468 191.980024 
L 369.939055 191.667948 
L 370.494826 191.364678 
L 371.077133 191.088299 
L 371.659446 190.829864 
L 372.012228 190.660517 
L 372.603376 190.375358 
L 373.194522 190.081033 
L 373.776823 189.777915 
L 374.385641 189.439078 
L 374.967785 189.189459 
L 375.611811 188.886499 
L 376.132405 188.636882 
L 376.758742 188.315826 
L 377.332371 187.99477 
L 377.896969 187.682688 
L 378.567687 187.281206 
L 379.097104 186.960182 
L 379.785318 186.621324 
L 380.305754 186.416569 
L 380.940805 186.238714 
L 381.478772 186.096408 
L 382.122322 185.990133 
L 382.722029 185.901659 
L 383.321538 185.786427 
L 384.009474 185.61753 
L 384.600316 185.448469 
L 385.06804 185.22579 
L 385.747428 184.869012 
L 386.338716 184.440644 
L 386.798182 183.770598 
L 387.372258 183.172313 
L 388.03411 182.726156 
L 388.616441 182.494649 
L 389.30436 182.254156 
L 389.921881 181.995899 
L 390.283684 181.817585 
L 390.90119 181.505514 
L 391.059972 181.434219 
L 391.704175 181.041727 
L 392.260289 180.676019 
L 392.922299 180.158266 
L 393.54012 179.721116 
L 394.060699 179.381966 
L 394.510899 179.096492 
L 395.163765 178.730916 
L 395.73724 178.436629 
L 396.363771 178.142503 
L 396.831334 177.937597 
L 397.263523 177.72373 
L 397.775287 177.474129 
L 398.269366 177.224374 
L 398.772288 176.974775 
L 399.416326 176.653907 
L 399.92809 176.404306 
L 400.439858 176.163678 
L 401.048532 175.860589 
L 401.61318 175.610992 
L 402.257046 175.352736 
L 402.874592 175.15694 
L 403.527167 174.979097 
L 404.197572 174.75674 
L 404.65614 174.623266 
L 405.308726 174.481312 
L 405.802658 174.321088 
L 406.287746 174.151912 
L 406.781669 174.018605 
L 407.381358 173.822817 
L 407.972538 173.573393 
L 408.563547 173.332766 
L 409.225121 173.083482 
L 409.701532 172.878581 
L 410.27502 172.602248 
L 410.777933 172.361645 
L 411.210135 172.174525 
L 411.827669 171.916107 
L 412.418687 171.702399 
L 413.080109 171.524736 
L 413.723857 171.391569 
L 414.358755 171.29431 
L 414.97614 171.12528 
L 415.514114 170.956254 
L 416.15816 170.698008 
L 416.766856 170.448586 
L 417.428278 170.261778 
L 417.930905 170.182131 
L 418.424695 170.129244 
L 419.077107 170.031967 
L 419.676823 169.925749 
L 420.267511 169.837285 
L 420.752309 169.87377 
L 421.36936 169.821205 
L 421.960384 169.616457 
L 422.533887 169.375844 
L 423.168947 169.153317 
L 423.768651 168.993446 
L 424.368029 168.985378 
L 424.958424 169.111559 
L 425.592711 169.345218 
L 426.138927 169.542817 
L 426.720327 169.758546 
L 427.381132 169.956293 
L 428.015568 170.091613 
L 428.667844 170.146339 
L 429.258256 170.281495 
L 429.804436 170.479114 
L 430.139116 170.667444 
L 430.649644 171.070884 
L 431.221899 171.483281 
L 431.723895 171.743364 
L 432.261098 172.039503 
L 432.895238 172.326823 
L 433.291628 172.452705 
L 433.811637 172.560807 
L 434.445929 172.758759 
L 435.054014 172.849248 
L 435.670934 172.90383 
L 436.296857 172.904947 
L 436.772968 172.879008 
L 437.310653 172.870981 
L 437.78677 172.871766 
L 438.2804 172.872564 
L 438.756364 172.882321 
L 439.426327 172.883412 
L 439.999379 172.9382 
L 440.536734 173.08219 
L 441.118146 173.297752 
L 441.611473 173.495391 
L 442.104795 173.675104 
L 442.747943 173.944484 
L 443.346871 174.186978 
L 443.9196 174.349063 
L 444.580572 174.466463 
L 445.135768 174.538833 
L 445.744015 174.584645 
L 446.316888 174.621476 
L 446.924961 174.667289 
L 447.585932 174.78469 
L 448.202398 175.152421 
L 448.854062 175.529135 
L 449.083122 175.610025 
L 449.743936 175.807983 
L 450.316495 175.996655 
L 450.977311 176.203585 
L 451.488315 176.383299 
L 452.096238 176.545383 
L 452.713004 176.707482 
L 453.312093 176.914076 
L 453.911184 177.129836 
L 454.457209 177.381127 
L 455.082511 177.740065 
L 455.74283 178.15267 
L 456.280197 178.377065 
L 456.949682 178.601942 
L 457.504722 178.772837 
L 458.191894 179.006525 
L 458.764306 179.338402 
L 459.318861 179.768607 
L 459.961673 180.136517 
L 460.542924 180.459421 
L 461.177037 180.773502 
L 461.785123 180.908869 
L 462.375529 180.981419 
L 462.984072 180.80347 
L 463.628161 180.554266 
L 464.245561 180.358548 
L 464.880639 180.127098 
L 465.471669 179.940358 
L 465.974288 179.824868 
L 466.617903 179.799263 
L 467.02345 179.799901 
L 467.508415 179.756016 
L 468.11649 179.837555 
L 468.777292 180.008629 
L 469.429573 180.054624 
L 470.011597 179.91238 
L 470.540265 180.011688 
L 471.104143 180.173811 
L 471.694392 180.425103 
L 472.336888 180.980731 
L 472.661902 181.553838 
L 472.96941 182.153512 
L 473.559007 182.726919 
L 474.096207 183.023084 
L 474.677265 183.372896 
L 475.214471 183.704791 
L 475.848433 184.081511 
L 476.473379 184.55659 
L 476.886492 185.25492 
L 477.149781 185.845791 
L 477.545368 186.472542 
L 478.143655 187.090634 
L 478.636155 187.681831 
L 479.128666 188.335481 
L 479.524242 188.917549 
L 480.016737 189.490802 
L 480.62385 190.135811 
L 481.230791 190.789792 
L 481.758829 191.282644 
L 482.11986 191.551578 
L 482.762156 192.134129 
L 483.422309 192.716502 
L 484.082474 193.272328 
L 484.751447 193.738591 
L 485.437956 194.347877 
L 486.010019 194.778288 
L 486.67066 195.101354 
L 487.21684 195.263297 
L 487.85109 195.479074 
L 488.441481 195.632213 
L 489.111127 195.8033 
L 489.798256 196.010255 
L 490.423852 196.217064 
L 491.102321 196.379179 
L 491.754444 196.487625 
L 492.230216 196.569011 
L 492.72368 196.695096 
L 493.349267 196.857205 
L 493.869088 197.001212 
L 494.494674 197.154367 
L 494.952765 197.262498 
L 495.587353 197.344034 
L 496.221936 197.389876 
L 496.773293 197.421818 
L 497.319273 197.439687 
L 497.90913 197.421854 
L 498.315691 197.416526 
L 498.587222 197.412979 
L 498.789734 197.430889 
L 499.282849 197.439972 
L 499.96961 197.431097 
L 500.445023 197.440183 
L 501.131788 197.458049 
L 501.774701 197.55667 
L 502.399757 197.664074 
L 502.884042 197.753557 
L 503.570821 197.860968 
L 504.196033 197.861061 
L 504.856457 197.852193 
L 505.481674 197.879202 
L 506.16845 197.968672 
L 506.749466 198.076279 
L 507.348354 198.273058 
L 507.75339 198.389472 
L 508.334421 198.595227 
L 508.924313 198.926413 
L 509.593451 199.445314 
L 510.201052 200.062723 
L 510.676542 200.715847 
L 511.195897 201.368983 
L 511.592136 201.923797 
L 511.873768 202.460668 
L 512.111564 203.077941 
L 512.19953 203.731126 
L 512.278842 204.258861 
L 512.322758 204.715196 
L 512.384383 205.341469 
L 512.454663 205.99448 
L 512.569185 206.611755 
L 512.780422 207.255949 
L 513.035723 207.84648 
L 513.475992 208.374372 
L 513.801671 208.991633 
L 514.048117 209.618054 
L 514.162622 210.253114 
L 514.224268 210.915275 
L 514.312254 211.604172 
L 514.435406 212.087235 
L 514.655522 212.76714 
L 514.893316 213.402358 
L 515.157443 214.019805 
L 515.386187 214.547536 
L 515.579942 215.182761 
L 515.641563 215.683778 
L 515.755903 216.381643 
L 515.914446 217.034817 
L 516.134563 217.732667 
L 516.328123 218.349948 
L 516.53938 218.931515 
L 516.812336 219.477184 
L 517.120521 220.139309 
L 517.411015 220.756576 
L 517.745525 221.347115 
L 518.097726 221.982317 
L 518.3707 222.546125 
L 518.714067 223.127673 
L 518.916456 223.548097 
L 519.339052 224.22815 
L 519.64721 224.845433 
L 519.884978 225.346424 
L 520.105075 225.936962 
L 520.342672 226.581154 
L 520.509878 227.225356 
L 520.650738 227.797962 
L 520.818114 228.415248 
L 520.941272 228.8626 
L 521.099814 229.542515 
L 521.143759 230.132885 
L 521.143652 230.741223 
L 521.143552 231.394422 
L 521.099595 231.975832 
L 520.888139 232.539499 
L 520.456679 233.156677 
L 519.945979 233.594936 
L 519.382561 233.934881 
L 518.757398 234.229957 
L 518.158589 234.534002 
L 517.612678 234.838233 
L 517.066777 235.213889 
L 516.512012 235.553641 
L 515.886866 235.956208 
L 515.235224 236.439193 
L 514.566079 237.09228 
L 514.046559 237.763113 
L 513.641468 238.326634 
L 513.43016 238.675502 
L 513.033905 239.310622 
L 512.681689 239.838424 
L 512.056581 240.46459 
L 511.616298 241.144402 
L 511.281608 241.7707 
L 511.105543 242.432722 
L 510.920624 243.014154 
L 510.612462 243.64029 
L 509.93448 244.266466 
L 509.590931 244.874822 
L 509.089067 245.19682 
L 508.411053 245.599242 
L 507.724227 246.189709 
L 507.257599 246.771169 
L 506.958274 247.450962 
L 506.755699 248.077258 
L 506.605977 248.649732 
L 506.165699 249.311761 
L 505.575746 249.499546 
L 500.063344 255.11086 
L 499.859378 255.781315 
L 499.646584 256.424856 
L 499.372227 257.068406 
L 499.097701 257.738697 
L 498.849549 258.435918 
L 498.557688 259.007678 
L 498.256961 259.534966 
L 497.87684 260.115538 
L 497.505411 260.732031 
L 497.22237 261.268078 
L 496.948023 261.849019 
L 496.629629 262.465662 
L 496.214005 263.15357 
L 495.886778 263.814705 
L 495.365378 264.475716 
L 494.739044 264.751828 
L 494.165757 265.001349 
L 493.592132 265.295396 
L 493.036347 265.598589 
L 492.471407 265.991134 
L 491.915312 266.499804 
L 491.226619 267.071109 
L 490.679354 267.508354 
L 490.11411 268.13347 
L 489.689956 268.678182 
L 489.301183 269.196324 
L 488.903399 269.839548 
L 488.514296 270.456031 
L 488.195903 271.027817 
L 487.815981 271.590642 
L 487.374156 272.189191 
L 486.861625 272.841057 
L 486.305046 273.510858 
L 485.757657 274.091306 
L 485.112837 274.76992 
L 484.565267 275.395054 
L 484.114625 276.011374 
L 483.796249 276.556421 
L 483.50406 277.244489 
L 483.282767 277.77175 
L 483.008259 278.442064 
L 482.760443 278.978302 
L 482.459578 279.612891 
L 482.185419 280.193643 
L 481.928579 280.774568 
L 481.628061 281.310659 
L 481.150736 281.980624 
L 480.700087 282.623862 
L 480.399218 283.222563 
L 480.27485 283.812629 
L 480.273905 284.331423 
L 480.273423 284.537076 
L 480.263632 285.127279 
L 480.262368 285.79807 
L 480.225884 286.415193 
L 480.216102 286.960729 
L 480.162439 287.398785 
L 480.099759 287.917415 
L 480.001901 288.41809 
L 479.886031 289.115643 
L 479.79653 289.812997 
L 479.865978 290.466006 
L 479.917752 291.074335 
L 479.890112 291.700446 
L 479.747734 292.388839 
L 479.491097 293.005476 
L 479.266396 293.446678 
L 479.172554 293.630939 
L 478.871698 294.274326 
L 478.562016 294.908918 
L 478.296534 295.498642 
L 478.110437 296.097674 
L 477.93286 296.741231 
L 477.825996 297.376136 
L 477.710143 298.055569 
L 477.638323 298.72618 
L 477.575812 299.209098 
L 477.512836 299.897669 
L 477.441164 300.523595 
L 477.387345 301.042224 
L 477.289162 301.739756 
L 477.235025 302.410381 
L 477.216228 303.036491 
L 477.241487 303.689333 
L 477.284418 304.279719 
L 477.318496 304.905801 
L 477.326235 305.505166 
L 477.290084 306.032763 
L 477.24462 306.730285 
L 477.146601 307.374003 
L 477.092463 308.035832 
L 477.06482 308.63501 
L 477.019687 309.243181 
L 477.001228 309.726091 
L 476.991426 310.244693 
L 476.999004 310.906687 
L 476.980207 311.532621 
L 476.987942 312.10507 
L 476.951657 312.748951 
L 476.8975 313.401791 
L 476.825843 314.009791 
L 476.674946 314.626761 
L 476.497534 315.198718 
L 476.337814 315.824662 
L 476.257309 316.48632 
L 476.282725 317.049776 
L 476.343153 317.667075 
L 476.430292 318.275396 
L 476.473528 318.740526 
L 476.525448 319.196682 
L 476.630089 319.858832 
L 476.690703 320.458011 
L 476.760155 321.039596 
L 476.873624 321.629969 
L 476.951755 322.27418 
L 476.994676 322.909233 
L 477.037605 323.499619 
L 477.063652 323.732183 
L 477.080049 324.367258 
L 477.10531 325.029055 
L 477.112867 325.673104 
L 477.155961 326.21863 
L 477.216581 326.853873 
L 477.259503 327.497915 
L 477.267057 328.124021 
L 477.283786 328.588962 
L 477.353248 329.233175 
L 477.431356 329.850295 
L 477.474605 330.297656 
L 477.509019 330.780732 
L 477.587127 331.397851 
L 477.630231 331.997192 
L 477.655621 332.524953 
L 477.707396 333.142254 
L 477.767826 333.786293 
L 477.828442 334.403416 
L 477.853695 335.029518 
L 477.835066 335.628694 
L 477.851301 336.326398 
L 477.955952 336.961633 
L 478.113312 337.650514 
L 478.270815 338.26797 
L 478.410809 338.885254 
L 478.480412 339.359526 
L 478.576216 339.967829 
L 478.715876 340.656713 
L 478.891082 341.300907 
L 479.074935 341.92733 
L 479.31184 342.491292 
L 479.584093 343.06406 
L 479.671846 343.261076 
L 479.952765 343.825029 
L 480.189839 344.371046 
L 480.417744 345.024202 
L 480.663468 345.570218 
L 481.076499 346.241828 
L 481.383955 346.796805 
L 481.647359 347.342818 
L 481.893112 347.960434 
L 482.11215 348.57788 
L 482.313704 349.231217 
L 482.489195 349.651814 
L 482.778802 350.349995 
L 482.962995 350.868931 
L 483.129179 351.495359 
L 483.383589 352.16663 
L 483.629152 352.802016 
L 483.9718 353.392875 
L 484.455374 354.028762 
L 485.106407 354.68272 
L 485.748776 355.265275 
L 486.390964 355.910264 
L 486.900882 356.537351 
L 487.384469 357.173046 
L 487.824163 357.710603 
L 488.378121 358.400118 
L 488.914565 359.062896 
L 489.301232 359.618055 
L 489.626343 360.173207 
L 490.004015 360.844634 
L 490.337959 361.363897 
L 490.865565 362.062584 
L 491.437352 362.627017 
L 491.991805 363.10191 
L 492.660337 363.773833 
L 493.038311 364.302237 
L 493.424807 365.00058 
L 493.758444 365.671859 
L 494.224331 366.361393 
L 494.840148 366.952737 
L 495.297209 367.633301 
L 495.657499 368.170523 
L 496.149731 368.851082 
L 496.58926 369.504733 
L 497.152039 370.158734 
L 497.680122 370.553062 
L 498.278413 371.064015 
L 498.814846 371.753557 
L 499.289391 372.425148 
L 499.88785 372.918158 
L 500.486635 373.178617 
L 501.076746 373.403189 
L 501.702031 373.636904 
L 502.159861 373.870296 
L 502.828715 374.372286 
L 503.357287 374.706469 
L 503.942717 375.048384 
L 504.48185 375.19433 
L 505.057401 375.437907 
L 505.623918 375.672866 
L 506.19149 375.997194 
L 506.767392 376.276642 
L 507.425657 376.823339 
L 508.048911 377.406265 
L 508.734243 378.015217 
L 509.249644 378.402535 
L 509.933904 378.92212 
L 510.494037 379.371725 
L 511.161139 379.927202 
L 511.685221 380.305548 
L 512.34313 380.825491 
L 512.832181 381.222139 
L 513.410362 381.716234 
L 513.952281 382.103375 
L 514.458312 382.45516 
L 515.017403 382.806235 
L 515.693165 383.34377 
L 516.324371 383.846128 
L 516.974505 384.464433 
L 517.56098 384.91367 
L 517.98761 385.230637 
L 518.546524 385.5729 
L 519.131942 385.923797 
L 519.815312 386.354022 
L 520.063737 386.511982 
L 520.667889 386.95207 
L 521.200452 387.294708 
L 521.766958 387.529501 
L 522.333656 387.773443 
L 522.92756 388.079482 
L 523.450914 388.404354 
L 523.974635 388.746995 
L 524.59541 389.08855 
L 525.286915 389.464963 
L 525.978262 389.832563 
L 526.589845 390.147397 
L 527.271647 390.443575 
L 527.776614 390.688232 
L 528.422351 390.913168 
L 528.847222 391.078302 
L 529.387042 391.286539 
L 530.059457 391.520268 
L 530.749398 391.762791 
L 531.39564 392.023617 
L 531.891606 392.250333 
L 532.387203 392.441338 
L 532.91818 392.640958 
L 533.4403 392.840563 
L 534.077386 393.083641 
L 534.723293 393.308774 
L 535.165528 393.455631 
L 535.616235 393.566774 
L 536.101799 393.650646 
L 536.666736 393.733628 
L 537.302768 393.869396 
L 537.974514 394.058464 
L 538.55906 394.320006 
L 538.887591 394.548682 
L 539.482204 394.92635 
L 540.148961 395.446136 
L 540.717225 395.833132 
L 541.266933 396.139716 
L 541.74628 396.44703 
L 542.31437 396.834009 
L 542.83827 397.185651 
L 543.432529 397.527415 
L 543.999391 397.798128 
L 544.664041 398.121414 
L 545.357124 398.640867 
L 545.916386 399.009923 
L 546.447883 399.263208 
L 547.130739 399.648787 
L 547.671951 399.982292 
L 548.265173 400.234709 
L 548.921139 400.584915 
L 549.487997 400.855631 
L 550.063187 401.063543 
L 550.62866 401.191219 
L 551.317713 401.353362 
L 551.777272 401.464354 
L 552.4575 401.617527 
L 553.094032 401.806962 
L 553.686552 401.996913 
L 554.35932 402.26639 
L 554.969871 402.491877 
L 555.579706 402.663724 
L 556.199096 402.88921 
L 556.632132 402.99157 
L 557.242315 403.19016 
L 557.879386 403.415469 
L 558.43705 403.65048 
L 558.950875 403.886006 
L 559.543375 404.075961 
L 560.101212 404.319945 
L 560.668256 404.590652 
L 561.329925 404.66363 
L 561.841984 404.756133 
L 562.487195 404.927631 
L 563.12339 405.081344 
L 563.768758 405.27061 
L 564.32591 405.434183 
L 564.705708 405.519312 
L 565.280367 405.682708 
L 565.837154 405.837151 
L 566.491029 405.999661 
L 567.171599 406.170807 
L 567.772588 406.33385 
L 568.399592 406.460845 
L 568.753391 406.573052 
L 569.372252 406.753705 
L 569.946892 406.926076 
L 570.521549 407.089317 
L 571.192579 407.197997 
L 571.827707 407.262366 
L 572.304593 407.35523 
L 572.984638 407.49065 
L 573.576434 407.609032 
L 574.220943 407.726864 
L 574.751029 407.837141 
L 575.289973 407.965204 
L 575.899102 408.07442 
L 576.518134 408.255254 
L 576.703961 408.333524 
L 577.218128 408.604773 
L 577.873902 408.937074 
L 578.475585 409.16277 
L 579.094791 409.370329 
L 579.766169 409.532495 
L 580.384833 409.686415 
L 580.778181 410.20942 
L 580.242903 410.412105 
L 579.764159 410.953788 
L 580.202755 411.565648 
L 580.849162 411.862221 
L 581.381356 412.169025 
L 582.057948 412.795997 
L 582.689987 413.378799 
L 583.257542 413.703176 
L 583.762846 413.974623 
L 584.365571 414.29847 
L 584.906586 414.614248 
L 585.439126 414.956749 
L 586.078606 415.405517 
L 586.746177 416.014725 
L 587.387051 416.597354 
L 588.002449 417.278694 
L 588.530139 417.979023 
L 588.969249 418.644367 
L 589.496066 419.282068 
L 589.951984 419.866822 
L 590.47948 420.566994 
L 590.945282 421.250087 
L 591.17222 421.864235 
L 591.247823 422.319341 
L 591.43851 422.844474 
L 591.754199 423.502421 
L 592.015259 424.008903 
L 592.268542 424.613901 
L 592.556837 425.182657 
L 592.97826 425.839367 
L 593.54962 426.521242 
L 594.12131 427.221044 
L 594.523483 427.743878 
L 594.997945 428.417843 
L 595.37464 429.012456 
L 595.893286 429.71279 
L 596.065572 429.814463 
L 596.44332 430.03737 
L 597.073421 430.450241 
L 597.528632 430.981518 
L 597.808255 431.559425 
L 598.176091 432.171983 
L 598.58 432.846834 
L 598.852175 433.549822 
L 599.087405 434.119269 
L 599.288509 434.769485 
L 599.401367 435.42076 
L 599.591541 435.901194 
L 599.835609 436.452715 
L 600.160302 437.137404 
L 600.386689 437.688926 
L 600.479445 438.11694 
L 600.520553 438.652815 
L 600.543266 439.126396 
L 600.682469 439.759374 
L 600.758241 440.250194 
L 600.924139 440.909735 
L 601.01968 441.588086 
L 601.050886 442.034593 
L 601.206741 442.586981 
L 601.354261 443.184246 
L 601.599737 443.86982 
L 601.791109 444.457567 
L 601.877984 445.144908 
L 601.892726 445.680943 
L 601.944049 446.359666 
L 601.907144 447.012691 
L 601.861573 447.683485 
L 601.841843 448.282677 
L 601.927481 448.862706 
L 602.128232 449.504108 
L 602.407481 450.0551 
L 602.695414 450.606092 
L 602.913147 451.166763 
L 603.12272 451.799017 
L 603.278903 452.387135 
L 603.435974 453.055825 
L 603.662199 453.589562 
L 603.986516 454.238383 
L 604.291431 454.726552 
L 604.391282 454.993615 
L 604.583347 455.644008 
L 604.845801 456.275732 
L 605.178608 456.888647 
L 605.537083 457.438933 
L 606.002857 458.139821 
L 606.132517 458.710331 
L 606.145882 459.12146 
L 606.064078 459.703239 
L 605.885731 460.322142 
L 605.778452 460.98467 
L 605.732879 461.655657 
L 605.729782 462.1741 
L 605.894628 462.753246 
L 606.244086 463.285571 
L 606.567355 463.836211 
L 606.882322 464.431535 
L 607.37287 464.98025 
L 607.633057 465.39735 
L 607.806393 465.940783 
L 607.919415 466.609811 
L 608.014601 467.252292 
L 608.055337 467.752438 
L 608.132843 468.395096 
L 608.235807 468.948191 
L 608.313312 469.590849 
L 608.39877 470.161889 
L 608.500516 470.598876 
L 608.638334 471.124719 
L 608.874417 471.756639 
L 609.093534 472.451347 
L 609.250232 473.093123 
L 609.36327 473.762344 
L 609.562601 474.260547 
L 609.717923 474.759474 
L 609.828508 475.20508 
L 609.966846 475.766636 
L 610.08004 476.46258 
L 610.245402 477.068643 
L 610.436258 477.611725 
L 610.67166 478.189972 
L 610.835108 478.635066 
L 610.946387 479.143301 
L 611.049365 479.696414 
L 611.118358 480.357 
L 611.133791 480.964811 
L 611.193788 481.616618 
L 611.261737 482.187835 
L 611.321716 482.839642 
L 611.416376 483.446394 
L 611.47479 483.955335 
L 611.517263 484.616291 
L 611.524047 485.232899 
L 611.468587 485.805704 
L 611.299255 486.442198 
L 610.972026 487.134113 
L 610.775305 487.681591 
L 610.72089 488.352561 
L 610.69075 488.817701 
L 610.678446 489.30958 
L 610.640493 489.864107 
L 610.612266 490.507984 
L 610.575009 491.134093 
L 610.555779 491.795913 
L 610.536201 492.42167 
L 610.455615 493.110954 
L 610.233595 493.75695 
L 609.984725 494.367569 
L 609.863736 494.583431 
L 609.517962 495.2041 
L 609.171492 495.753344 
L 608.807865 496.347431 
L 608.392419 497.031435 
L 608.080961 497.562189 
L 607.683195 498.254989 
L 607.3811 498.839416 
L 607.026663 499.460069 
L 606.768244 500.008254 
L 606.484873 500.681874 
L 605.918461 501.260315 
L 605.291201 501.928831 
L 604.698272 502.498654 
L 604.15076 503.193046 
L 603.725958 503.832527 
L 603.345007 504.444579 
L 602.946029 505.030051 
L 602.336295 505.680642 
L 601.663101 506.170761 
L 601.008474 506.741311 
L 600.40793 507.409654 
L 599.956615 508.049314 
L 599.44412 508.716614 
L 599.026945 509.257581 
L 598.627798 509.825128 
L 598.175265 510.330736 
L 597.740239 510.845157 
L 597.322543 511.323671 
L 596.702585 511.849169 
L 596.160962 512.266294 
L 595.557812 512.711219 
L 594.954141 513.111302 
L 594.323777 513.484804 
L 593.709889 513.742022 
L 593.069467 513.999594 
L 592.534771 514.264724 
L 592.008914 514.521058 
L 591.404373 514.840729 
L 590.834511 515.097418 
L 590.168443 515.426769 
L 589.572744 515.746265 
L 588.9072 516.120302 
L 588.320166 516.421854 
L 587.662591 516.733087 
L 587.118726 516.944916 
L 586.486799 517.1754 
L 585.846381 517.432977 
L 585.170954 517.717649 
L 584.66245 517.955883 
L 584.083909 518.230504 
L 583.470534 518.541402 
L 582.821976 518.86161 
L 582.13841 519.199941 
L 581.498884 519.5379 
L 580.850676 519.884867 
L 580.202644 520.258733 
L 579.65045 520.524224 
L 579.062375 520.727442 
L 578.641396 520.910944 
L 577.984699 521.284812 
L 577.399243 521.729396 
L 576.759703 522.067394 
L 576.206483 522.252491 
L 575.522746 522.573059 
L 574.988932 522.900828 
L 574.472973 523.264132 
L 573.860652 523.67336 
L 573.237415 523.885909 
L 572.578104 524.027564 
L 571.971956 523.39973 
L 568.695441 522.712738 
L 568.124017 522.826418 
L 567.532994 522.761713 
L 566.977137 522.705275 
L 566.490843 523.3455 
L 566.013739 524.030216 
L 565.395379 524.689806 
L 564.767658 525.313667 
L 564.191575 525.81174 
L 563.52018 526.44493 
L 562.926245 526.934402 
L 562.270085 527.361939 
L 562.077188 527.435651 
L 561.586007 527.646805 
L 560.963999 527.975647 
L 560.323247 528.206326 
L 559.770714 528.444913 
L 559.11438 528.845712 
L 558.538128 529.32602 
L 557.962419 529.868798 
L 557.465723 530.374959 
L 557.092953 530.924403 
L 556.756067 531.536119 
L 556.409818 532.103153 
L 556.081774 532.732619 
L 555.93675 533.163292 
L 555.79206 533.629677 
L 555.667339 534.301555 
L 555.533762 534.973416 
L 555.41524 535.412707 
L 555.200552 535.924663 
L 554.766087 536.483772 
L 554.218284 537.151437 
L 553.880178 537.655842 
L 553.49945 538.285843 
L 552.933988 538.953687 
L 552.438524 539.567163 
L 551.846527 540.217419 
L 551.375133 540.615934 
L 550.903214 540.969923 
L 550.222302 541.54982 
L 549.725616 542.055986 
L 549.193592 542.562507 
L 548.582696 543.096834 
L 547.893122 543.68553 
L 547.692424 543.857763 
L 547.108223 544.418475 
L 546.525249 545.095473 
L 545.854056 545.746621 
L 545.312146 546.154981 
L 544.716132 546.438971 
L 544.076622 546.776799 
L 543.605235 547.184449 
L 543.082037 547.673029 
L 542.523151 548.135225 
L 542.069443 548.533743 
L 541.475184 548.987307 
L 540.950412 549.332881 
L 540.415401 549.562507 
L 539.756657 549.748695 
L 539.105509 549.836524 
L 538.487967 549.772019 
L 536.254757 550.995079 
L 535.918069 551.633526 
L 535.464192 552.03203 
L 534.897856 552.601545 
L 534.312794 553.090842 
L 533.671014 553.223376 
L 533.047104 553.373325 
L 532.443328 553.74671 
L 532.12827 553.946951 
L 531.472702 554.410222 
L 530.800478 554.989957 
L 530.162241 555.435301 
L 529.499397 556.0416 
L 528.924757 556.673924 
L 528.418918 557.144408 
L 527.848593 557.365426 
L 527.2786 557.604212 
L 526.664235 557.81681 
L 526.024583 558.145854 
L 525.591057 558.389127 
L 525.34161 558.529107 
L 524.714306 559.170941 
L 524.052172 559.857658 
L 523.730911 560.290455 
L 523.332375 560.893748 
L 522.917216 561.595719 
L 522.36982 562.299134 
L 521.768512 562.904903 
L 521.194072 563.537073 
L 520.584279 564.178732 
L 520.027343 564.801753 
L 519.443367 565.3894 
L 518.909967 565.753109 
L 518.220447 566.341828 
L 517.652569 566.777319 
L 517.030972 567.133108 
L 515.310445 567.715824 
L 515.043278 568.255049 
L 514.634862 568.778127 
L 514.20982 569.381939 
L 513.740933 570.004072 
L 513.351074 570.607369 
L 513.031401 571.174063 
L 512.97842 571.292432 
L 507.950596 571.283885 
L 505.287049 571.284308 
L 505.939687 567.293192 
L 506.355808 563.939463 
L 506.622095 561.315309 
L 506.890516 557.008967 
L 507.057113 552.333469 
L 507.099523 546.130719 
L 507.200843 503.462615 
L 504.558572 503.463037 
L 503.490405 504.696426 
L 503.519747 501.388166 
L 501.678337 503.515157 
L 499.457258 506.080649 
L 495.793009 510.313115 
L 429.569024 510.231212 
L 429.579598 497.467094 
L 429.581226 495.792647 
L 429.581522 494.785773 
L 429.548778 495.205215 
L 429.451762 495.614311 
L 429.292847 496.002928 
L 429.075983 496.361528 
L 428.806489 496.681263 
L 428.491035 496.954232 
L 428.137368 497.173747 
L 427.754205 497.334372 
L 427.351008 497.432144 
L 426.93925 497.464669 
L 426.93769 497.464669 
L 415.839844 497.45401 
L 413.825924 497.453308 
L 413.815253 495.583837 
L 414.060787 459.706496 
L 404.996033 459.62361 
L 395.751568 459.53918 
L 386.733842 459.541668 
L 386.708496 438.074499 
L 386.217713 438.067853 
L 379.354155 438.06023 
L 377.538813 438.051511 
L 377.477077 429.645456 
L 377.853305 401.581088 
L 368.470406 401.668334 
L 362.958521 401.271731 
L 361.226001 401.329992 
L 360.288803 401.532237 
L 359.294857 401.965329 
L 358.58497 402.513716 
L 357.988764 403.235174 
L 357.420935 403.956624 
L 357.001886 404.895394 
L 356.470512 404.531885 
L 355.621713 404.162693 
L 354.869913 403.892003 
L 354.069612 403.572055 
L 353.026815 403.227558 
L 352.178005 402.882999 
L 351.474655 402.464504 
L 350.9168 402.021331 
L 350.48018 401.578119 
L 350.140546 401.085616 
L 349.849355 400.469915 
L 349.655159 399.829571 
L 349.509478 399.287727 
L 349.412275 398.622721 
L 349.387348 396.553709 
L 349.410849 394.262983 
L 349.434399 392.12005 
L 349.433585 389.6323 
L 349.43669 388.153251 
L 349.435546 384.65562 
L 349.434345 380.98555 
L 349.43308 377.118447 
L 349.456461 374.458268 
L 349.479996 372.266077 
L 349.50382 370.960603 
L 349.357933 369.802979 
L 349.139413 368.965593 
L 348.827289 368.139762 
L 348.511455 367.580594 
L 347.023112 365.460076 
L 339.423863 360.31315 
L 341.091672 357.191519 
L 341.087578 345.017148 
L 341.173944 343.991562 
L 341.173351 342.225727 
L 341.17205 338.04895 
L 341.155994 332.984933 
L 341.201455 329.964124 
L 341.092743 324.91059 
L 341.149853 323.845221 
L 341.091894 322.38588 
L 341.084601 321.011069 
L 341.039573 320.112088 
L 341.117777 318.934597 
L 341.176095 317.078564 
L 341.195005 314.903246 
L 341.213631 311.829864 
L 341.232227 309.492979 
L 341.250138 304.344069 
L 341.268703 301.091054 
L 341.287118 297.438924 
L 341.295265 294.548153 
L 341.344263 293.740742 
L 341.343573 291.685181 
L 341.354514 289.317601 
L 341.383828 288.641875 
L 341.385019 287.852231 
L 341.111209 287.85646 
L 336.037129 287.865251 
L 310.429712 287.832064 
L 310.432324 285.848877 
L 307.571411 285.836373 
L 302.960269 285.838104 
L 279.061905 285.847454 
L 268.828239 285.827764 
L 233.729466 285.866957 
L 213.547102 285.887979 
L 213.080556 284.640411 
L 212.044575 282.305204 
L 211.495445 281.15512 
L 210.402992 279.183873 
L 196.694059 256.6678 
L 183.945593 235.708578 
L 173.760738 218.933946 
L 171.133818 214.796197 
L 169.007682 211.688101 
L 167.679839 209.930798 
L 165.286488 206.959759 
L 162.082716 203.351314 
L 158.548989 199.898332 
L 154.87408 196.691944 
L 151.849597 194.362441 
L 149.492616 192.690344 
L 146.969846 191.003869 
L 143.992413 189.172102 
L 141.063522 187.603127 
L 137.728437 185.880007 
L 133.122351 183.82168 
L 130.884815 182.963114 
L 127.534571 181.81191 
L 126.475953 181.472512 
L 126.527029 181.314856 
L 126.615028 181.083502 
L 126.690821 180.884279 
L 126.976216 180.255894 
L 127.306557 179.725312 
L 127.794256 179.032439 
L 128.080392 178.484626 
L 128.330769 177.892168 
L 128.519783 177.327365 
L 128.822315 176.645139 
L 129.189183 175.979095 
L 129.368973 175.6567 
L 129.681639 175.108538 
L 129.914161 174.489527 
L 130.146105 173.799074 
L 130.334942 173.225124 
L 130.524165 172.687062 
L 130.756303 172.032321 
L 131.148382 171.483409 
L 131.716054 170.852433 
L 132.099296 170.312499 
L 132.357964 169.657391 
L 132.538346 169.119511 
L 132.858929 168.490773 
L 133.241984 167.923923 
L 133.667968 167.231617 
L 133.980466 166.683456 
L 134.397592 165.991331 
L 134.80681 165.388579 
L 135.188588 164.705623 
L 135.41299 164.1582 
L 135.699136 163.610231 
L 136.129187 163.051448 
L 136.689327 162.607661 
L 137.16013 162.057633 
L 137.437088 161.509495 
L 137.695981 160.934802 
L 137.981048 160.315041 
L 138.327636 159.667836 
L 138.657849 159.163806 
L 139.031727 158.605778 
L 139.378881 158.03911 
L 139.67316 157.454898 
L 140.001515 156.754383 
L 140.357709 156.196524 
L 140.739331 155.530986 
L 141.077635 154.946556 
L 141.319221 154.389819 
L 141.524868 153.77978 
L 142.073803 153.094796 
L 142.693679 152.45377 
L 143.245003 152.01015 
L 143.821034 151.405372 
L 144.300313 150.801529 
L 144.875768 150.125152 
L 145.433739 149.466922 
L 146.012347 149.130425 
L 146.637929 149.079422 
L 147.218197 148.921485 
L 147.438015 148.847843 
L 148.104702 148.50127 
L 148.66525 148.111304 
L 149.270573 147.79221 
L 149.918462 147.311948 
L 150.529482 146.661961 
L 151.14036 146.003336 
L 151.805009 145.442318 
L 152.41991 145.194645 
L 153.071483 145.107568 
L 153.715318 145.136974 
L 154.263513 145.301173 
L 154.883199 145.563144 
L 155.432302 145.834831 
L 155.981422 146.106343 
L 156.646062 146.457307 
L 157.1867 146.755915 
L 157.761785 146.982571 
L 158.363961 147.253527 
L 158.948817 147.560556 
L 159.515625 147.841032 
L 160.099743 148.06749 
L 160.683853 148.311893 
L 161.286037 148.600971 
L 161.87918 148.845212 
L 162.454829 149.125508 
L 163.066216 149.441322 
L 163.684232 149.542332 
L 164.267246 149.652686 
L 164.453006 149.731239 
L 165.054064 149.895063 
L 165.725525 150.040202 
L 166.300431 150.231134 
L 166.980744 150.39423 
L 167.634336 150.521788 
L 168.270968 150.711984 
L 168.844777 150.795605 
L 169.498359 150.905238 
L 170.064056 151.060465 
L 170.691101 151.188215 
L 171.291799 151.298388 
L 171.902455 151.551597 
L 172.460043 151.787402 
L 173.0541 152.130148 
L 173.710809 152.588266 
L 174.278336 152.931379 
L 174.926184 153.389696 
L 175.476202 153.741791 
L 175.989753 153.986945 
L 176.54733 154.204809 
L 177.104159 154.351249 
L 177.714445 154.568575 
L 178.271661 154.759699 
L 178.83808 154.977384 
L 179.40506 155.275834 
L 180.026931 155.770214 
L 180.667232 156.36275 
L 181.332229 156.767231 
L 181.721559 156.906373 
L 182.340133 157.061052 
L 182.959437 157.287331 
L 183.605644 157.566919 
L 184.225317 157.837883 
L 184.791737 158.064543 
L 185.367 158.291217 
L 185.942271 158.535817 
L 186.491921 158.861003 
L 187.005991 159.151024 
L 187.537582 159.42274 
L 188.183781 159.693359 
L 188.793874 159.883935 
L 189.45685 160.073974 
L 190.031386 160.238181 
L 190.677219 160.473072 
L 191.295069 160.678001 
L 191.888899 160.872018 
L 192.562019 161.205061 
L 193.101907 161.432109 
L 193.642324 161.712796 
L 194.1833 162.038168 
L 194.724285 162.381325 
L 195.292344 162.777932 
L 195.931527 163.245399 
L 196.135683 163.404345 
L 196.782743 163.637833 
L 197.296989 163.945997 
L 197.820451 164.272083 
L 198.334706 164.562286 
L 198.867392 164.959634 
L 199.417385 165.294328 
" style="fill:#1a1a1a;stroke:#ffffff;stroke-linejoin:miter;stroke-width:4;"/>
   </g>
  </g>
 </g>
 <defs>
  <clipPath id="pa25f60eda7">
   <rect height="543.6" width="558" x="90" y="86.4"/>
  </clipPath>
 </defs>
</svg>
