<?xml version="1.0" encoding="utf-8" standalone="no"?>
<!DOCTYPE svg PUBLIC "-//W3C//DTD SVG 1.1//EN"
  "http://www.w3.org/Graphics/SVG/1.1/DTD/svg11.dtd">
<!-- Created with matplotlib (https://matplotlib.org/) -->
<svg height="720pt" version="1.1" viewBox="0 0 720 720" width="720pt" xmlns="http://www.w3.org/2000/svg" xmlns:xlink="http://www.w3.org/1999/xlink">
 <metadata>
  <rdf:RDF xmlns:cc="http://creativecommons.org/ns#" xmlns:dc="http://purl.org/dc/elements/1.1/" xmlns:rdf="http://www.w3.org/1999/02/22-rdf-syntax-ns#">
   <cc:Work>
    <dc:type rdf:resource="http://purl.org/dc/dcmitype/StillImage"/>
    <dc:date>2021-05-28T08:56:50.658973</dc:date>
    <dc:format>image/svg+xml</dc:format>
    <dc:creator>
     <cc:Agent>
      <dc:title>Matplotlib v3.3.3, https://matplotlib.org/</dc:title>
     </cc:Agent>
    </dc:creator>
   </cc:Work>
  </rdf:RDF>
 </metadata>
 <defs>
  <style type="text/css">*{stroke-linecap:butt;stroke-linejoin:round;}</style>
 </defs>
 <g id="figure_1">
  <g id="patch_1">
   <path d="M 0 720 
L 720 720 
L 720 0 
L 0 0 
z
" style="fill:none;"/>
  </g>
  <g id="axes_1">
   <g id="patch_2">
    <path clip-path="url(#p06c515b435)" d="M 237.786575 236.398006 
L 242.605115 236.782275 
L 272.509068 236.747015 
L 273.046323 236.790788 
L 273.939686 236.852725 
L 274.598179 236.889916 
L 275.417359 236.9262 
L 276.325226 236.953451 
L 277.2628 236.967286 
L 394.279286 237.046496 
L 512.017167 236.434535 
L 512.075876 236.591015 
L 512.292927 237.290228 
L 512.488051 238.040532 
L 512.517549 238.284611 
L 512.650117 238.893643 
L 512.771558 239.523091 
L 512.856748 240.233283 
L 512.90662 240.529468 
L 513.000623 241.241085 
L 513.122932 241.992968 
L 513.250314 242.683536 
L 513.411837 243.444851 
L 513.544514 244.063903 
L 513.642724 244.551271 
L 513.804247 245.312586 
L 513.936705 245.9114 
L 513.974179 246.142196 
L 514.011763 246.373612 
L 514.035663 246.520803 
L 514.152135 247.242227 
L 514.30739 247.891525 
L 514.496892 248.642029 
L 514.714372 249.412601 
L 514.903658 250.122227 
L 515.01872 250.61942 
L 515.156903 251.238455 
L 515.289999 251.929046 
L 515.348777 252.376324 
L 515.419546 252.96608 
L 515.479842 253.647609 
L 515.517232 254.258414 
L 515.565639 254.858782 
L 515.591686 255.439305 
L 515.640636 256.111031 
L 515.71249 256.8637 
L 515.771591 257.372096 
L 515.871424 258.124374 
L 515.97601 258.72376 
L 516.148546 259.464461 
L 516.274734 259.951239 
L 516.436361 260.722574 
L 516.541704 261.454435 
L 516.635701 262.176253 
L 516.695236 262.745766 
L 516.800903 263.528505 
L 516.910562 264.056376 
L 516.945676 264.300256 
L 517.106976 265.030914 
L 517.290628 265.75116 
L 517.507779 266.450197 
L 517.72493 267.149214 
L 517.953748 267.939811 
L 518.103921 268.670666 
L 518.241547 269.198126 
L 518.368057 269.735802 
L 518.449411 270.213167 
L 518.582514 270.903739 
L 518.704705 271.655425 
L 518.798052 272.255028 
L 518.879622 272.763032 
L 518.973076 273.393074 
L 519.106611 274.154983 
L 519.205681 274.795067 
L 519.322147 275.516493 
L 519.432563 276.15636 
L 519.559287 276.734915 
L 519.605745 276.988839 
L 519.755481 277.668797 
L 519.910608 278.297659 
L 520.04846 278.855578 
L 520.197978 279.505078 
L 520.341665 280.093258 
L 520.485459 280.702098 
L 520.589281 281.18927 
L 520.727673 281.838966 
L 520.762568 282.052188 
L 520.92396 282.803307 
L 521.051768 283.534757 
L 521.145112 284.144361 
L 521.221278 284.693242 
L 521.314837 285.343724 
L 521.401914 285.831311 
L 521.482832 286.237319 
L 521.591945 286.683815 
L 521.746755 287.2718 
L 521.95288 288.001695 
L 522.136427 288.701505 
L 522.290998 289.358822 
L 522.368148 289.966817 
L 522.466096 290.761779 
L 522.565817 291.460376 
L 522.687236 292.173388 
L 522.777824 292.7872 
L 522.882292 293.381398 
L 522.975842 294.097006 
L 523.04628 294.637269 
L 523.127623 295.166314 
L 523.244637 295.763503 
L 523.449763 296.541892 
L 523.670531 297.315057 
L 523.852528 298.065163 
L 523.992676 298.727306 
L 524.126781 299.259577 
L 524.290164 299.986833 
L 524.479867 300.771008 
L 524.604709 301.291854 
L 524.806862 302.042189 
L 524.922463 302.551609 
L 525.098295 303.245206 
L 525.29109 303.947245 
L 525.482325 304.708778 
L 525.608827 305.243652 
L 525.814182 305.912011 
L 526.006968 306.687772 
L 526.261876 307.477804 
L 526.462727 308.03034 
L 526.620174 308.627546 
L 526.72851 308.981666 
L 526.896302 309.652617 
L 527.067511 310.303751 
L 527.300834 311.042858 
L 527.493507 311.81842 
L 527.606243 312.226245 
L 527.794523 312.885983 
L 527.990624 313.542919 
L 528.210085 314.117926 
L 528.463568 314.820571 
L 528.681595 315.418402 
L 528.984623 316.20603 
L 529.256603 316.968017 
L 529.531664 317.75824 
L 529.822244 318.543058 
L 530.086746 319.197617 
L 530.281308 319.803655 
L 530.42773 320.448951 
L 530.505745 321.133495 
L 530.579139 321.775576 
L 530.849813 322.376415 
L 531.210464 323.099543 
L 531.476504 323.768131 
L 531.716114 324.380199 
L 531.982032 325.048988 
L 532.223173 325.748625 
L 532.47677 326.377733 
L 532.790713 327.117276 
L 533.030551 327.655805 
L 533.339869 328.389937 
L 533.691144 329.101643 
L 533.988358 329.722353 
L 534.332051 330.36332 
L 534.72993 331.058414 
L 535.009961 331.670702 
L 535.376891 332.340115 
L 535.74085 332.981292 
L 536.166586 333.747135 
L 536.468416 334.33699 
L 536.901967 335.136702 
L 537.253482 335.73818 
L 537.645187 336.450107 
L 538.061788 337.131186 
L 538.387103 337.602424 
L 538.740142 338.254823 
L 539.156622 339.009244 
L 539.568362 339.794903 
L 539.896522 340.40461 
L 540.189108 340.983043 
L 540.540494 341.621416 
L 540.881317 342.160574 
L 541.194418 342.518793 
L 541.597486 342.962215 
L 542.005179 343.41145 
L 542.313527 343.800708 
L 542.561536 344.116019 
L 542.927379 344.514119 
L 543.313259 344.985789 
L 543.680768 345.361268 
L 544.027998 345.736537 
L 544.37998 346.08093 
L 544.727325 346.41953 
L 545.070045 346.752498 
L 545.449883 347.167459 
L 545.578504 347.312594 
L 545.962951 347.77004 
L 546.314702 348.187796 
L 546.705199 348.701934 
L 547.07222 349.33471 
L 547.478008 349.990147 
L 547.828196 350.467198 
L 548.158232 350.907589 
L 548.485067 351.392866 
L 548.911256 351.938503 
L 549.303407 352.430002 
L 549.667584 352.887443 
L 550.01469 353.336261 
L 550.448457 353.952419 
L 550.83883 354.539923 
L 551.255645 355.073937 
L 551.551777 355.423542 
L 551.866404 355.75913 
L 552.244801 356.123382 
L 552.615272 356.527126 
L 553.050927 357.010434 
L 553.491092 357.536245 
L 553.728297 357.789441 
L 554.011987 358.099367 
L 554.404143 358.517351 
L 554.746734 358.92387 
L 555.182272 359.443871 
L 555.603823 359.946833 
L 556.014463 360.497863 
L 556.341303 360.983348 
L 556.717789 361.51715 
L 557.071065 361.985816 
L 557.492614 362.488982 
L 557.915939 362.895743 
L 558.317568 363.288488 
L 558.660162 363.658161 
L 559.042959 364.101575 
L 559.421229 364.539396 
L 559.845977 364.997279 
L 560.149808 365.30722 
L 560.546809 365.694355 
L 560.887873 366.049782 
L 561.257018 366.365968 
L 561.644663 366.705007 
L 561.943879 367.009317 
L 562.314442 367.413073 
L 562.69414 367.864926 
L 562.969998 368.214533 
L 563.396151 368.759989 
L 563.820422 369.4381 
L 564.190625 370.025611 
L 564.61489 370.740774 
L 564.952617 371.214852 
L 565.344631 371.779932 
L 565.734995 372.330784 
L 566.133057 372.952376 
L 566.551513 373.463948 
L 566.929782 373.864908 
L 567.256844 374.203523 
L 567.689538 374.585074 
L 568.060102 374.952166 
L 568.456981 375.375781 
L 568.801107 375.759673 
L 569.19633 376.205931 
L 569.568311 376.660794 
L 569.963411 377.180595 
L 570.349261 377.688969 
L 570.747319 378.310547 
L 571.18698 379.056807 
L 571.523051 379.590405 
L 571.871678 380.053475 
L 572.215918 380.40052 
L 572.650136 380.796306 
L 573.054843 381.143784 
L 573.439272 381.564593 
L 573.829743 382.078785 
L 574.241539 382.86431 
L 574.650266 383.548238 
L 575.059336 384.085065 
L 575.45277 384.664185 
L 575.847742 385.257534 
L 576.21497 385.780133 
L 576.597734 386.260259 
L 576.819298 386.518874 
L 577.199081 386.970945 
L 577.58802 387.470913 
L 577.936509 388.007331 
L 578.354714 388.62915 
L 578.676899 389.108845 
L 579.062624 389.6541 
L 579.392634 390.094324 
L 579.704151 390.475225 
L 580.01555 390.892776 
L 580.360979 391.40094 
L 580.613457 391.795436 
L 581.053221 392.505039 
L 581.438821 393.123658 
L 581.829162 393.711401 
L 582.245934 394.318997 
L 582.648592 394.946224 
L 582.948961 395.448555 
L 583.271025 395.965125 
L 583.670607 396.600768 
L 584.008312 397.111737 
L 584.367601 397.636946 
L 584.805937 398.295656 
L 585.140444 398.815041 
L 585.484428 399.309182 
L 585.857694 399.888304 
L 586.286679 400.535589 
L 586.690988 401.140179 
L 587.112262 401.790265 
L 587.51955 402.423312 
L 587.934648 403.053358 
L 588.267729 403.522048 
L 588.634834 404.044461 
L 588.995775 404.547233 
L 589.386224 405.098115 
L 589.778102 405.663245 
L 590.153015 406.182859 
L 590.475188 406.662767 
L 590.89788 407.363557 
L 591.289739 407.965339 
L 591.653767 408.496371 
L 591.867484 408.794467 
L 592.240983 409.263385 
L 592.601908 409.766162 
L 592.990814 410.30282 
L 593.317733 410.714802 
L 593.720746 411.195161 
L 594.070899 411.635613 
L 594.402675 411.97987 
L 594.703415 412.261789 
L 595.109752 412.623324 
L 595.477213 412.962212 
L 595.799746 413.258372 
L 596.151694 413.565972 
L 596.498983 413.9413 
L 596.92511 414.486822 
L 597.265894 414.952721 
L 597.698185 415.518066 
L 598.122655 416.086232 
L 598.454298 416.540504 
L 598.8214 417.026479 
L 599.247631 417.535114 
L 599.638211 417.975797 
L 600.07523 418.510108 
L 600.479666 419.004704 
L 600.916702 419.502326 
L 601.263997 419.877679 
L 601.643659 420.32958 
L 602.038727 420.84942 
L 602.450864 421.377909 
L 602.785597 421.787301 
L 603.093892 422.213309 
L 603.450312 422.673634 
L 603.695194 422.960737 
L 604.017498 423.330246 
L 604.386492 423.683153 
L 604.73687 424.050296 
L 605.170817 424.556138 
L 605.533522 424.962746 
L 605.959771 425.398068 
L 606.293079 425.756566 
L 606.680563 426.169001 
L 607.009246 426.521686 
L 607.38748 426.922714 
L 607.805901 427.39749 
L 608.213525 427.883702 
L 608.597805 428.341225 
L 609.008515 428.818803 
L 609.30922 429.174277 
L 609.715311 429.609392 
L 610.056318 430.001763 
L 610.344603 430.280683 
L 610.746179 430.710186 
L 611.180251 431.106025 
L 611.575676 431.442125 
L 612.013178 431.75601 
L 612.110933 431.826989 
L 613.579364 433.069567 
L 613.950008 433.400064 
L 614.319003 433.716312 
L 614.663328 434.026733 
L 614.982664 434.331327 
L 615.263343 434.576181 
L 615.643235 434.918087 
L 615.990546 435.219915 
L 616.365806 435.592679 
L 616.788968 435.99974 
L 617.190663 436.35591 
L 617.556571 436.680576 
L 617.855867 436.948288 
L 618.240383 437.295611 
L 618.674684 437.61812 
L 619.081011 437.943035 
L 619.408278 438.171292 
L 619.77432 438.42262 
L 620.109537 438.611407 
L 620.506745 438.814865 
L 620.845036 438.995259 
L 621.16615 439.203676 
L 621.464028 439.347153 
L 621.870607 439.56184 
L 622.239832 439.804556 
L 622.534635 439.956448 
L 622.892962 440.173709 
L 623.293241 440.442097 
L 623.591004 440.658936 
L 623.932253 440.90424 
L 624.257972 441.155345 
L 624.614645 441.431921 
L 624.717684 441.504992 
L 624.7357 441.569769 
L 624.605767 442.392981 
L 623.719887 448.005957 
L 620.744267 466.860759 
L 620.670189 467.413731 
L 620.62101 467.975818 
L 620.597051 468.543332 
L 620.598466 469.112486 
L 620.625256 469.679574 
L 620.677234 470.240827 
L 620.754061 470.792558 
L 620.855229 471.331141 
L 620.980068 471.853008 
L 621.127775 472.354751 
L 621.297347 472.833024 
L 621.487685 473.284701 
L 621.697533 473.706793 
L 621.925505 474.096536 
L 622.170102 474.451344 
L 622.429707 474.76889 
L 622.702624 475.047089 
L 622.987025 475.284078 
L 623.281061 475.478311 
L 623.582792 475.628526 
L 612.329895 561.28944 
L 601.138808 561.474158 
L 598.925236 561.509882 
L 549.72188 561.72978 
L 548.745009 561.740405 
L 544.620889 561.784882 
L 510.49413 562.15532 
L 422.204749 563.130946 
L 419.989734 563.127871 
L 396.529965 561.792913 
L 394.318371 561.667162 
L 363.430468 561.444681 
L 306.155121 561.022546 
L 289.363293 560.915968 
L 265.864973 560.945423 
L 238.996933 560.548861 
L 237.351348 560.537006 
L 237.020823 560.535242 
L 233.577088 560.516836 
L 227.859808 560.473973 
L 226.737111 560.465601 
L 216.58782 524.275545 
L 206.685371 489.476559 
L 193.10416 441.584993 
L 181.165999 399.273037 
L 176.233618 381.871749 
L 166.462873 347.04836 
L 163.915037 338.045297 
L 157.669421 316.409418 
L 154.648976 305.54249 
L 149.847967 288.270049 
L 141.859047 260.544896 
L 139.403839 251.852155 
L 116.349404 169.901461 
L 114.022396 161.630513 
L 113.2643 158.895434 
L 125.69573 154.004768 
L 127.753295 153.433376 
L 129.542562 153.269054 
L 132.146089 153.510868 
L 135.232811 154.077729 
L 138.319605 154.888728 
L 142.927386 156.023936 
L 149.736108 157.564216 
L 152.407141 158.169299 
L 154.030701 158.537112 
L 157.788442 159.347761 
L 161.09888 160.240182 
L 163.87252 161.133033 
L 168.167318 163.163891 
L 172.41753 165.84575 
L 175.773043 168.446969 
L 179.173421 171.699121 
L 183.804113 176.490365 
L 188.436803 182.96725 
L 204.294871 207.581207 
L 207.925375 213.114639 
L 210.872257 217.427798 
L 213.916077 221.507476 
L 217.70078 225.471614 
L 221.932856 229.278812 
L 226.386328 232.192284 
L 231.730312 234.781316 
L 234.887126 235.853301 
L 237.786575 236.398006 
" style="fill:#1a1a1a;stroke:#ffffff;stroke-linejoin:miter;stroke-width:4;"/>
   </g>
  </g>
 </g>
 <defs>
  <clipPath id="p06c515b435">
   <rect height="543.6" width="558" x="90" y="86.4"/>
  </clipPath>
 </defs>
</svg>
