<?xml version="1.0" encoding="utf-8" standalone="no"?>
<!DOCTYPE svg PUBLIC "-//W3C//DTD SVG 1.1//EN"
  "http://www.w3.org/Graphics/SVG/1.1/DTD/svg11.dtd">
<!-- Created with matplotlib (https://matplotlib.org/) -->
<svg height="720pt" version="1.1" viewBox="0 0 720 720" width="720pt" xmlns="http://www.w3.org/2000/svg" xmlns:xlink="http://www.w3.org/1999/xlink">
 <metadata>
  <rdf:RDF xmlns:cc="http://creativecommons.org/ns#" xmlns:dc="http://purl.org/dc/elements/1.1/" xmlns:rdf="http://www.w3.org/1999/02/22-rdf-syntax-ns#">
   <cc:Work>
    <dc:type rdf:resource="http://purl.org/dc/dcmitype/StillImage"/>
    <dc:date>2021-05-28T08:56:51.938783</dc:date>
    <dc:format>image/svg+xml</dc:format>
    <dc:creator>
     <cc:Agent>
      <dc:title>Matplotlib v3.3.3, https://matplotlib.org/</dc:title>
     </cc:Agent>
    </dc:creator>
   </cc:Work>
  </rdf:RDF>
 </metadata>
 <defs>
  <style type="text/css">*{stroke-linecap:butt;stroke-linejoin:round;}</style>
 </defs>
 <g id="figure_1">
  <g id="patch_1">
   <path d="M 0 720 
L 720 720 
L 720 0 
L 0 0 
z
" style="fill:none;"/>
  </g>
  <g id="axes_1">
   <g id="patch_2">
    <path clip-path="url(#p4fd647b757)" d="M 373.357946 172.135369 
L 375.190499 172.372502 
L 377.027911 172.23401 
L 378.782642 171.888088 
L 380.816884 171.814845 
L 382.793456 171.806187 
L 384.486286 171.939239 
L 386.43459 171.96938 
L 388.553272 171.883347 
L 390.418025 171.835692 
L 392.338934 171.775001 
L 394.373582 171.649961 
L 396.406809 171.628525 
L 396.850873 171.642132 
L 398.440132 171.658892 
L 400.444076 171.727803 
L 401.827686 171.718104 
L 404.001619 171.761688 
L 405.78095 171.765361 
L 407.841032 171.87355 
L 409.675057 172.007065 
L 411.763987 172.089242 
L 413.795831 172.223191 
L 415.29133 172.291283 
L 417.266995 172.425026 
L 418.903659 172.506333 
L 420.907107 172.640066 
L 422.711892 172.890213 
L 424.826258 173.179846 
L 426.489773 173.390496 
L 427.815906 173.522961 
L 429.733905 173.695517 
L 431.878539 173.855738 
L 434.078866 174.054727 
L 435.911374 174.304612 
L 437.687838 174.567559 
L 439.830967 174.818373 
L 441.69233 175.016728 
L 442.210025 175.06407 
L 443.723705 175.202514 
L 445.16154 175.373983 
L 447.275991 175.715399 
L 449.136325 175.991306 
L 451.331375 176.656797 
L 452.540251 177.125614 
L 453.916743 177.763297 
L 455.23458 178.569191 
L 456.91836 179.518103 
L 458.714814 180.428671 
L 460.315506 181.248239 
L 461.971842 182.080775 
L 463.544167 182.887085 
L 465.480827 183.901485 
L 467.645618 184.748146 
L 469.416667 185.412477 
L 471.4994 186.051709 
L 473.410117 186.858915 
L 475.206133 187.847062 
L 476.805819 188.705422 
L 478.462635 189.537988 
L 479.753158 190.279057 
L 481.380612 191.163155 
L 482.220778 191.786781 
L 483.313446 192.540429 
L 484.405195 193.371652 
L 486.002844 194.372406 
L 487.066807 195.20364 
L 488.326514 196.151928 
L 489.642411 197.139009 
L 490.591961 198.034847 
L 491.486339 198.839606 
L 492.237685 199.799824 
L 492.567019 200.642306 
L 493.234775 201.498696 
L 494.636653 202.408171 
L 496.263164 203.370104 
L 497.213193 204.227155 
L 498.417713 205.084648 
L 499.679861 205.851505 
L 501.249755 206.852273 
L 502.144098 207.644275 
L 502.953004 208.513628 
L 504.552647 209.37197 
L 506.178622 210.385733 
L 506.592938 211.21568 
L 506.554482 212.096067 
L 508.520898 212.981067 
L 510.684153 213.944361 
L 512.001964 214.776016 
L 512.9808 215.594271 
L 513.591881 216.463215 
L 514.316347 217.319587 
L 515.746022 218.255314 
L 516.441582 219.13747 
L 517.278844 219.994056 
L 518.482804 220.864567 
L 519.49859 221.718433 
L 516.383146 226.749827 
L 512.464852 228.135708 
L 510.249676 228.534432 
L 507.584033 228.774168 
L 504.987147 228.711466 
L 504.329852 240.896852 
L 503.112113 324.556649 
L 502.927189 364.859214 
L 504.120863 375.657986 
L 505.069665 380.841269 
L 507.42982 387.103927 
L 513.793948 399.304685 
L 518.04174 410.372363 
L 531.070732 472.868066 
L 531.080894 478.699631 
L 530.151185 484.369629 
L 519.525232 519.686991 
L 517.422207 525.951334 
L 514.642519 530.853365 
L 513.276565 532.447654 
L 504.109402 532.452001 
L 485.364235 532.442875 
L 480.910499 532.440974 
L 480.906527 527.308192 
L 463.970412 527.301486 
L 457.137466 529.805383 
L 386.417323 529.849156 
L 334.610873 529.869616 
L 323.380813 529.874107 
L 320.721257 532.304955 
L 308.467233 544.842911 
L 294.401593 543.250019 
L 270.341339 540.525381 
L 266.775232 539.633632 
L 264.560753 538.998502 
L 262.069073 538.109097 
L 259.02341 536.870067 
L 256.322926 535.281096 
L 248.912763 530.41849 
L 258.603978 529.793719 
L 271.914321 529.79617 
L 271.939963 516.37467 
L 255.011326 516.373197 
L 255.101394 490.506456 
L 329.729834 451.223558 
L 341.008745 451.226714 
L 341.053138 422.046532 
L 346.129929 422.048852 
L 346.210135 377.895685 
L 346.224578 370.487737 
L 346.294643 370.461298 
L 347.6465 369.602078 
L 349.001577 368.652243 
L 350.238575 367.869879 
L 351.446708 367.100541 
L 352.798064 366.267071 
L 354.485151 365.513876 
L 355.891643 364.719682 
L 357.583467 363.823839 
L 359.13574 362.87523 
L 360.659228 361.95238 
L 361.868379 361.157015 
L 362.852043 360.346914 
L 363.9217 359.498782 
L 365.923054 358.63089 
L 367.276506 357.719847 
L 368.033001 356.973376 
L 368.87919 356.058731 
L 369.580585 355.259969 
L 370.090515 354.278599 
L 370.62668 353.36201 
L 371.326959 352.589048 
L 372.002623 351.725226 
L 372.65161 350.796598 
L 373.128973 349.957377 
L 373.606899 349.092357 
L 374.030812 348.162032 
L 374.256874 347.230534 
L 374.36914 346.324064 
L 374.511337 345.379049 
L 374.567511 344.485104 
L 374.565363 343.629714 
L 374.470459 343.058913 
L 374.103735 342.149312 
L 373.766386 341.201169 
L 373.454794 340.330845 
L 373.08703 339.460033 
L 372.489991 338.691383 
L 372.176852 337.885876 
L 371.723015 337.040386 
L 371.300171 336.130553 
L 370.901014 335.350087 
L 370.194371 334.50314 
L 369.540149 333.760031 
L 368.917934 332.900547 
L 368.295717 332.041064 
L 367.396007 331.050271 
L 366.661562 330.164038 
L 366.322634 329.267442 
L 366.152185 328.411098 
L 366.066617 327.516188 
L 365.954894 326.569487 
L 365.502667 325.698224 
L 364.596622 324.888587 
L 363.831727 324.092981 
L 363.067901 323.245521 
L 362.276261 322.410883 
L 361.815095 321.811621 
L 361.218065 321.055986 
L 360.480947 320.260599 
L 359.913823 319.453406 
L 359.464229 318.478259 
L 359.294281 317.595886 
L 359.266951 316.649662 
L 359.241245 315.651636 
L 359.0151 314.756042 
L 358.592802 313.820156 
L 358.17098 312.871306 
L 357.721858 311.883374 
L 357.487387 311.259806 
L 357.232902 310.363687 
L 356.975889 309.571428 
L 356.890313 308.676773 
L 356.411839 307.740425 
L 355.674259 306.971067 
L 354.436098 305.95183 
L 353.311283 304.93357 
L 352.322886 304.071681 
L 351.52961 303.262767 
L 350.880681 302.364279 
L 350.287814 301.465972 
L 349.977711 300.543873 
L 349.724869 299.609197 
L 349.441509 298.726129 
L 348.991418 297.790025 
L 348.370742 296.878742 
L 347.806207 295.980679 
L 347.213335 295.082424 
L 346.704998 294.197865 
L 345.941619 293.337444 
L 346.169295 292.354118 
L 345.833506 291.366933 
L 345.154074 290.532992 
L 345.351312 289.614239 
L 345.52287 288.630425 
L 344.929486 287.758173 
L 344.507645 286.809299 
L 343.916898 285.833443 
L 343.410069 284.896852 
L 342.756417 284.153746 
L 341.851924 283.30535 
L 341.344561 282.382028 
L 340.609484 281.508787 
L 339.511937 280.529306 
L 338.920146 279.592494 
L 338.384466 278.681688 
L 337.790011 277.83521 
L 337.413861 277.223693 
L 336.99148 276.287808 
L 336.480973 275.467862 
L 336.110084 274.700887 
L 335.769552 273.85612 
L 335.232275 272.984357 
L 334.947917 272.140053 
L 334.525533 271.204195 
L 334.102166 270.307124 
L 333.7338 269.436315 
L 333.252689 268.590813 
L 333.064374 268.291536 
L 332.41326 267.457841 
L 331.508216 266.622206 
L 330.688161 265.774544 
L 330.039144 264.876033 
L 329.278398 263.924744 
L 328.853933 263.066716 
L 328.515017 262.170122 
L 327.299919 261.332571 
L 325.857579 260.532596 
L 324.61887 259.552408 
L 324.254219 258.564981 
L 323.606256 257.640441 
L 322.248448 256.853958 
L 321.144013 256.068931 
L 320.408958 255.221746 
L 318.605196 254.263451 
L 317.222712 253.360132 
L 316.260467 252.550296 
L 315.580997 251.716359 
L 314.704325 250.88097 
L 313.572099 250.095929 
L 311.425176 249.291164 
L 309.662903 248.825633 
L 307.796684 248.048545 
L 305.678093 247.244 
L 303.673894 246.375384 
L 302.151342 245.457809 
L 302.186596 244.717772 
L 300.700727 243.807838 
L 299.014186 243.14375 
L 297.211879 242.69942 
L 295.549318 242.371906 
L 293.54973 241.914387 
L 291.577997 241.495645 
L 289.463667 241.154282 
L 287.801122 240.865838 
L 285.998833 240.434525 
L 283.997322 240.106386 
L 282.387125 240.16775 
L 280.326122 240.137458 
L 278.322226 240.042557 
L 276.573808 239.857474 
L 274.573753 239.451508 
L 272.486738 239.187968 
L 270.622559 239.222925 
L 268.642727 239.503643 
L 266.662416 239.823149 
L 265.362377 239.910954 
L 263.583188 239.933094 
L 261.606668 239.915762 
L 259.547584 239.730045 
L 257.741977 239.596793 
L 255.59556 239.61809 
L 253.508136 239.432133 
L 251.447132 239.401825 
L 249.611771 239.397963 
L 247.437945 239.354433 
L 245.547831 239.168932 
L 243.911694 239.036124 
L 241.936132 238.941223 
L 239.903923 238.833077 
L 238.014252 238.647808 
L 235.814991 238.35807 
L 233.982932 238.056416 
L 232.123518 237.689703 
L 230.0994 236.895376 
L 228.52697 236.075855 
L 226.333823 235.255342 
L 224.53199 234.759231 
L 222.843 234.315385 
L 220.988293 233.495473 
L 219.839815 232.677079 
L 218.213143 231.689164 
L 216.301826 230.933837 
L 214.641623 230.412152 
L 212.870429 229.709105 
L 210.932685 228.772359 
L 209.446659 227.823685 
L 208.243937 226.836896 
L 207.54714 225.993537 
L 207.275772 225.021413 
L 207.145617 224.088784 
L 207.126666 223.220923 
L 206.968066 222.262277 
L 207.036176 221.278018 
L 207.045589 220.42316 
L 206.937045 220.0473 
L 206.919106 219.101864 
L 207.748591 218.209941 
L 208.74663 217.357221 
L 208.895772 216.632446 
L 209.301771 215.700613 
L 209.820096 214.782282 
L 210.254517 213.863706 
L 212.156511 212.986876 
L 213.406976 212.238444 
L 213.897044 211.358888 
L 214.922896 210.544969 
L 215.894436 209.54987 
L 217.374492 208.542821 
L 218.796408 207.665198 
L 220.133813 206.761327 
L 221.975846 206.182575 
L 223.792843 205.305809 
L 225.130733 204.363151 
L 226.977056 203.421532 
L 229.075884 202.597218 
L 230.922717 201.629853 
L 230.084839 200.786064 
L 231.084741 199.765183 
L 231.884932 198.937811 
L 232.855086 198.046344 
L 235.039447 197.196222 
L 236.823838 196.682085 
L 237.908311 195.712971 
L 240.058613 195.341839 
L 241.982761 194.970546 
L 242.470028 194.349746 
L 241.91584 193.403257 
L 243.84529 192.617294 
L 245.798286 192.219937 
L 247.638483 191.822422 
L 249.030153 191.087184 
L 250.197688 190.247924 
L 252.295668 189.540006 
L 254.141981 188.572622 
L 254.716515 187.706048 
L 256.840471 187.179554 
L 258.759452 187.313244 
L 260.600039 186.825119 
L 262.334066 185.831526 
L 264.09406 185.045384 
L 266.017269 184.751419 
L 267.910344 184.677942 
L 269.917687 184.500816 
L 271.931093 183.7541 
L 273.605147 183.032301 
L 275.584049 182.829415 
L 275.058269 181.908685 
L 274.870948 180.988581 
L 275.501753 180.161029 
L 277.40432 179.245711 
L 279.241075 179.094176 
L 281.304095 178.969088 
L 283.449706 179.025655 
L 285.475323 179.70338 
L 287.10538 180.39326 
L 288.99694 180.423368 
L 291.038733 179.663684 
L 292.934222 179.395741 
L 294.884392 179.244419 
L 296.752405 178.847137 
L 298.648778 178.488377 
L 300.544251 178.181674 
L 302.270133 177.874531 
L 304.108899 177.580611 
L 305.9194 177.325491 
L 307.702469 176.992552 
L 309.515305 176.504427 
L 311.241222 176.184271 
L 313.304195 176.059194 
L 315.339927 175.869312 
L 317.150278 175.562393 
L 319.102914 175.242914 
L 321.055453 174.871634 
L 323.091052 174.668741 
L 325.039867 174.647061 
L 326.874274 174.715761 
L 328.370323 174.809604 
L 330.573507 174.749521 
L 332.044549 174.519552 
L 333.940889 174.135284 
L 336.034648 173.802995 
L 337.533017 173.624818 
L 339.059769 173.498687 
L 340.811626 173.372976 
L 342.111792 173.285187 
L 344.259234 173.160341 
L 346.182551 172.905443 
L 348.078519 172.58574 
L 350.143462 172.292255 
L 352.234791 172.141406 
L 354.438922 171.990767 
L 356.416049 171.9821 
L 358.251931 171.947205 
L 360.286575 171.822154 
L 361.840712 171.747819 
L 363.507168 171.712457 
L 365.540339 171.691037 
L 367.37676 171.617332 
L 369.439365 171.557089 
L 371.441854 171.768636 
L 373.357946 172.135369 
" style="fill:#1a1a1a;stroke:#ffffff;stroke-linejoin:miter;stroke-width:4;"/>
   </g>
  </g>
 </g>
 <defs>
  <clipPath id="p4fd647b757">
   <rect height="543.6" width="558" x="90" y="86.4"/>
  </clipPath>
 </defs>
</svg>
