<?xml version="1.0" encoding="utf-8" standalone="no"?>
<!DOCTYPE svg PUBLIC "-//W3C//DTD SVG 1.1//EN"
  "http://www.w3.org/Graphics/SVG/1.1/DTD/svg11.dtd">
<!-- Created with matplotlib (https://matplotlib.org/) -->
<svg height="720pt" version="1.1" viewBox="0 0 720 720" width="720pt" xmlns="http://www.w3.org/2000/svg" xmlns:xlink="http://www.w3.org/1999/xlink">
 <metadata>
  <rdf:RDF xmlns:cc="http://creativecommons.org/ns#" xmlns:dc="http://purl.org/dc/elements/1.1/" xmlns:rdf="http://www.w3.org/1999/02/22-rdf-syntax-ns#">
   <cc:Work>
    <dc:type rdf:resource="http://purl.org/dc/dcmitype/StillImage"/>
    <dc:date>2021-05-28T08:56:53.205892</dc:date>
    <dc:format>image/svg+xml</dc:format>
    <dc:creator>
     <cc:Agent>
      <dc:title>Matplotlib v3.3.3, https://matplotlib.org/</dc:title>
     </cc:Agent>
    </dc:creator>
   </cc:Work>
  </rdf:RDF>
 </metadata>
 <defs>
  <style type="text/css">*{stroke-linecap:butt;stroke-linejoin:round;}</style>
 </defs>
 <g id="figure_1">
  <g id="patch_1">
   <path d="M 0 720 
L 720 720 
L 720 0 
L 0 0 
z
" style="fill:none;"/>
  </g>
  <g id="axes_1">
   <g id="patch_2">
    <path clip-path="url(#pbe266dbae6)" d="M 576.707251 192.436849 
L 607.8874 192.475371 
L 617.514583 192.480462 
L 617.25228 197.064813 
L 616.843992 202.28856 
L 616.320119 207.495453 
L 615.681084 212.681334 
L 615.101137 216.721348 
L 614.482896 221.056724 
L 612.615484 232.969112 
L 612.069642 236.451191 
L 611.638718 239.200201 
L 611.331253 241.166192 
L 610.731841 245.073355 
L 610.731681 245.074468 
L 610.504355 246.591899 
L 610.261644 248.286406 
L 610.151022 249.058632 
L 609.981925 250.2932 
L 609.855027 251.254026 
L 609.577092 253.45867 
L 609.576874 253.4606 
L 609.333822 255.548023 
L 609.297405 255.875693 
L 609.018585 258.539109 
L 609.018468 258.54026 
L 608.81295 260.72171 
L 608.812731 260.724159 
L 608.809669 260.75845 
L 608.647045 262.665992 
L 608.646753 262.669684 
L 608.597341 263.288666 
L 608.515117 264.36798 
L 608.515074 264.368648 
L 608.363856 266.553745 
L 608.363564 266.558087 
L 608.36352 266.558755 
L 608.319809 267.251985 
L 607.880386 267.251199 
L 607.89669 341.720532 
L 607.913069 416.589174 
L 607.944458 564.955528 
L 607.945081 567.827877 
L 607.945134 568.073046 
L 489.595388 567.992226 
L 470.355186 567.984354 
L 452.9499 567.936034 
L 434.43657 567.860425 
L 415.346658 567.883938 
L 398.018369 567.836876 
L 371.490813 567.774838 
L 364.873235 567.815614 
L 286.001991 567.919337 
L 167.810078 568.019812 
L 167.483337 568.019888 
L 130.17219 568.029732 
L 120.485417 568.032676 
L 123.543686 563.975566 
L 167.219934 506.039886 
L 167.865187 505.184058 
L 238.877273 411.01019 
L 249.584755 396.02231 
L 254.164513 388.528509 
L 258.099288 382.205635 
L 262.35658 373.541082 
L 267.06546 363.393459 
L 273.363739 347.910294 
L 279.849745 325.008486 
L 285.425996 299.961241 
L 288.964343 267.173276 
L 300.378953 267.155684 
L 305.459017 267.152008 
L 305.759159 237.903096 
L 316.065198 198.916419 
L 395.874764 148.509603 
L 459.182147 148.4044 
L 488.239096 148.358235 
L 491.161856 148.353785 
L 509.829984 148.326954 
L 512.47496 148.40867 
L 513.795392 148.513543 
L 515.113314 148.661041 
L 516.427899 148.851036 
L 517.738303 149.083434 
L 519.043683 149.358067 
L 520.343241 149.674528 
L 522.872791 150.417285 
L 525.37036 151.319349 
L 527.829813 152.378508 
L 530.24509 153.592125 
L 532.610247 154.957245 
L 534.919457 156.470489 
L 537.167053 158.128143 
L 539.347469 159.926102 
L 576.707251 192.436849 
" style="fill:#1a1a1a;stroke:#ffffff;stroke-linejoin:miter;stroke-width:4;"/>
   </g>
  </g>
 </g>
 <defs>
  <clipPath id="pbe266dbae6">
   <rect height="543.6" width="558" x="90" y="86.4"/>
  </clipPath>
 </defs>
</svg>
