<?xml version="1.0" encoding="utf-8" standalone="no"?>
<!DOCTYPE svg PUBLIC "-//W3C//DTD SVG 1.1//EN"
  "http://www.w3.org/Graphics/SVG/1.1/DTD/svg11.dtd">
<!-- Created with matplotlib (https://matplotlib.org/) -->
<svg height="720pt" version="1.1" viewBox="0 0 720 720" width="720pt" xmlns="http://www.w3.org/2000/svg" xmlns:xlink="http://www.w3.org/1999/xlink">
 <metadata>
  <rdf:RDF xmlns:cc="http://creativecommons.org/ns#" xmlns:dc="http://purl.org/dc/elements/1.1/" xmlns:rdf="http://www.w3.org/1999/02/22-rdf-syntax-ns#">
   <cc:Work>
    <dc:type rdf:resource="http://purl.org/dc/dcmitype/StillImage"/>
    <dc:date>2021-05-28T08:56:51.233466</dc:date>
    <dc:format>image/svg+xml</dc:format>
    <dc:creator>
     <cc:Agent>
      <dc:title>Matplotlib v3.3.3, https://matplotlib.org/</dc:title>
     </cc:Agent>
    </dc:creator>
   </cc:Work>
  </rdf:RDF>
 </metadata>
 <defs>
  <style type="text/css">*{stroke-linecap:butt;stroke-linejoin:round;}</style>
 </defs>
 <g id="figure_1">
  <g id="patch_1">
   <path d="M 0 720 
L 720 720 
L 720 0 
L 0 0 
z
" style="fill:none;"/>
  </g>
  <g id="axes_1">
   <g id="patch_2">
    <path clip-path="url(#p97604477c2)" d="M 330.037093 182.557449 
L 337.707954 189.677551 
L 348.261067 199.524967 
L 354.086438 205.015286 
L 356.209376 206.809378 
L 358.603671 208.208353 
L 360.562462 209.212572 
L 362.303336 209.929691 
L 365.10677 210.936555 
L 384.02132 214.012917 
L 395.078778 215.811435 
L 404.712067 201.654955 
L 406.80283 198.91031 
L 415.631147 198.905238 
L 456.357887 198.882137 
L 511.953299 198.832714 
L 517.324901 196.00559 
L 530.638933 196.013161 
L 530.642056 201.808533 
L 534.143283 201.810679 
L 548.87947 201.820984 
L 556.086076 201.816075 
L 551.860333 208.899993 
L 519.039489 257.167076 
L 480.52878 312.850243 
L 456.790085 347.481776 
L 422.162334 398.08659 
L 412.164834 415.910237 
L 404.288627 432.481434 
L 381.473609 484.464063 
L 359.521077 533.849991 
L 357.054327 532.886409 
L 356.03077 532.536137 
L 354.995519 532.255282 
L 353.108089 532.015124 
L 350.246709 531.815766 
L 347.202854 531.737155 
L 336.650095 531.720871 
L 313.325992 531.847169 
L 290.896917 531.912113 
L 235.421203 531.468014 
L 203.732243 531.465319 
L 199.213605 531.288519 
L 194.512004 530.472958 
L 190.952808 529.656702 
L 189.320099 529.226945 
L 186.838141 528.45308 
L 184.26346 526.949547 
L 181.937643 525.591359 
L 181.920434 520.845646 
L 181.913924 508.897927 
L 186.305662 508.896755 
L 186.305797 507.860291 
L 186.229515 494.405594 
L 186.301302 491.023421 
L 186.301406 440.075412 
L 184.734606 438.212955 
L 186.11402 415.117762 
L 186.091862 400.019903 
L 186.070299 385.416693 
L 186.055652 375.516357 
L 186.045881 371.752592 
L 186.981697 371.455918 
L 188.313405 371.078202 
L 190.00028 370.540381 
L 191.731453 370.134463 
L 192.907202 370.00521 
L 194.105571 369.846871 
L 195.370665 369.629972 
L 196.435852 369.442043 
L 197.989018 369.137949 
L 199.16547 368.921108 
L 200.386004 368.660186 
L 202.050085 368.356599 
L 203.381777 367.993612 
L 204.736072 367.528299 
L 206.201439 366.902431 
L 207.888283 366.33523 
L 209.464182 366.046109 
L 210.506996 365.814115 
L 211.972453 365.217351 
L 213.504039 364.781606 
L 215.123917 364.404611 
L 216.499686 364.319898 
L 217.964527 363.928021 
L 219.251752 363.579445 
L 220.538935 363.231158 
L 222.203687 362.780956 
L 223.379733 362.549429 
L 224.733439 362.303702 
L 226.131995 361.970042 
L 227.352539 361.709129 
L 228.572957 361.389987 
L 229.815793 361.173116 
L 231.346832 360.927568 
L 232.855931 360.638212 
L 234.476008 360.392898 
L 236.006736 360.264331 
L 237.44897 360.208973 
L 238.890807 360.211847 
L 240.4222 359.937174 
L 241.953862 359.545553 
L 243.462903 359.18273 
L 244.949097 359.361621 
L 246.502056 359.203915 
L 247.723498 358.650565 
L 249.34428 357.703075 
L 250.987111 357.150588 
L 252.585049 356.685747 
L 254.116033 356.732942 
L 255.580891 356.341052 
L 256.75838 355.275422 
L 257.867791 355.190027 
L 259.354507 355.119986 
L 260.79741 354.640263 
L 262.506894 353.97105 
L 263.950339 352.979306 
L 265.571911 351.90018 
L 266.882259 351.24447 
L 268.392461 350.179791 
L 269.481318 349.143638 
L 270.836108 348.415007 
L 272.479896 347.321147 
L 274.056854 346.212636 
L 275.567442 345.104194 
L 276.368208 344.111121 
L 277.702116 342.472212 
L 277.969601 341.837315 
L 278.505005 340.907014 
L 278.861422 339.917787 
L 278.97211 339.105819 
L 278.95264 338.147969 
L 278.777026 337.167596 
L 278.712265 336.143361 
L 279.357561 335.135402 
L 279.53686 334.111853 
L 279.849451 333.132333 
L 280.316977 332.123907 
L 280.229989 331.129074 
L 280.254311 330.105044 
L 280.322615 328.993426 
L 280.479811 328.057509 
L 280.348718 327.062415 
L 279.950601 326.25704 
L 279.907711 325.569318 
L 279.665639 324.53021 
L 279.512002 323.652078 
L 279.380846 322.61319 
L 279.293773 321.559868 
L 279.029721 320.418173 
L 278.721272 319.379105 
L 278.412717 318.295926 
L 278.0371 317.314812 
L 277.705897 316.553508 
L 277.108863 315.52813 
L 276.467326 314.561557 
L 275.360139 313.491286 
L 274.407746 312.538446 
L 273.699414 311.586032 
L 272.902829 310.604313 
L 272.150266 309.564049 
L 271.397513 308.699252 
L 270.37909 307.717094 
L 269.426711 306.77895 
L 268.474682 305.811417 
L 267.101086 304.696625 
L 265.793696 303.801631 
L 264.087779 302.686181 
L 262.69178 301.820343 
L 261.007443 300.836553 
L 259.566836 299.926661 
L 258.259813 298.958198 
L 256.709013 297.916416 
L 255.246357 296.860173 
L 253.628802 295.86194 
L 252.299146 294.98137 
L 250.881174 293.998285 
L 249.357185 293.298461 
L 247.010996 291.710638 
L 245.773577 290.628473 
L 243.769736 290.010864 
L 240.038534 288.42391 
L 231.659907 285.292769 
L 226.544509 284.283288 
L 222.146694 283.529935 
L 217.776471 282.112132 
L 208.313349 280.556898 
L 205.541915 279.616323 
L 202.131555 278.91524 
L 194.811307 276.776732 
L 189.119996 275.41605 
L 187.138375 275.002075 
L 187.371505 272.076708 
L 187.333056 246.039074 
L 187.316844 235.040137 
L 187.267197 201.416261 
L 187.61537 195.19407 
L 194.893755 185.050147 
L 207.240001 185.096809 
L 277.730156 184.999941 
L 304.794867 185.069478 
L 306.915192 184.888666 
L 308.817639 184.4566 
L 310.393703 183.881133 
L 311.208678 183.449783 
L 312.001358 182.907433 
L 312.446229 182.550009 
L 321.916157 182.556554 
L 322.181683 182.55697 
L 330.037093 182.557449 
" style="fill:#1a1a1a;stroke:#ffffff;stroke-linejoin:miter;stroke-width:4;"/>
   </g>
  </g>
 </g>
 <defs>
  <clipPath id="p97604477c2">
   <rect height="543.6" width="558" x="90" y="86.4"/>
  </clipPath>
 </defs>
</svg>
