<?xml version="1.0" encoding="utf-8" standalone="no"?>
<!DOCTYPE svg PUBLIC "-//W3C//DTD SVG 1.1//EN"
  "http://www.w3.org/Graphics/SVG/1.1/DTD/svg11.dtd">
<!-- Created with matplotlib (https://matplotlib.org/) -->
<svg height="720pt" version="1.1" viewBox="0 0 720 720" width="720pt" xmlns="http://www.w3.org/2000/svg" xmlns:xlink="http://www.w3.org/1999/xlink">
 <metadata>
  <rdf:RDF xmlns:cc="http://creativecommons.org/ns#" xmlns:dc="http://purl.org/dc/elements/1.1/" xmlns:rdf="http://www.w3.org/1999/02/22-rdf-syntax-ns#">
   <cc:Work>
    <dc:type rdf:resource="http://purl.org/dc/dcmitype/StillImage"/>
    <dc:date>2021-05-28T08:56:52.278732</dc:date>
    <dc:format>image/svg+xml</dc:format>
    <dc:creator>
     <cc:Agent>
      <dc:title>Matplotlib v3.3.3, https://matplotlib.org/</dc:title>
     </cc:Agent>
    </dc:creator>
   </cc:Work>
  </rdf:RDF>
 </metadata>
 <defs>
  <style type="text/css">*{stroke-linecap:butt;stroke-linejoin:round;}</style>
 </defs>
 <g id="figure_1">
  <g id="patch_1">
   <path d="M 0 720 
L 720 720 
L 720 0 
L 0 0 
z
" style="fill:none;"/>
  </g>
  <g id="axes_1">
   <g id="patch_2">
    <path clip-path="url(#pe0799b865d)" d="M 566.875696 132.253138 
L 567.688762 133.068985 
L 567.843634 132.9796 
L 568.003815 133.000107 
L 568.164151 133.070383 
L 568.311887 133.172566 
L 568.482631 133.324389 
L 568.668676 133.518649 
L 568.824115 133.649245 
L 568.997255 133.751355 
L 569.17019 133.782472 
L 569.350729 133.792289 
L 569.493208 133.827104 
L 569.691702 133.914906 
L 569.836835 133.992307 
L 569.987065 134.08744 
L 570.091438 134.143693 
L 570.208514 134.199945 
L 570.401956 134.280698 
L 570.564841 134.354466 
L 570.709923 134.424754 
L 570.83465 134.484496 
L 570.977181 134.544166 
L 571.165521 134.628473 
L 571.333508 134.71286 
L 571.519298 134.790047 
L 571.697487 134.885038 
L 571.896081 134.990575 
L 572.061567 135.082077 
L 572.229656 135.198362 
L 572.390093 135.318279 
L 572.588785 135.477083 
L 572.77733 135.635882 
L 572.932716 135.762851 
L 573.12121 135.903925 
L 573.271442 135.99194 
L 573.459884 136.111714 
L 573.645827 136.252852 
L 573.806313 136.379828 
L 573.964143 136.474893 
L 574.139932 136.605351 
L 574.315672 136.735886 
L 574.468507 136.855806 
L 574.664549 136.982632 
L 574.80968 137.063597 
L 574.970063 137.144498 
L 575.166105 137.257082 
L 575.321433 137.366391 
L 575.509822 137.464881 
L 575.642251 137.552969 
L 575.772078 137.630447 
L 575.919759 137.714973 
L 576.095343 137.77444 
L 576.27858 137.848142 
L 576.451665 137.936087 
L 576.62475 138.023969 
L 576.815638 138.111842 
L 576.960671 138.164395 
L 577.133704 138.216813 
L 577.306738 138.279905 
L 577.500023 138.318079 
L 577.673107 138.384662 
L 577.835938 138.444265 
L 577.986016 138.482646 
L 578.110638 138.496254 
L 578.260721 138.531075 
L 578.405748 138.565897 
L 578.545623 138.586555 
L 578.69565 138.614255 
L 578.878834 138.652425 
L 579.044165 138.697864 
L 579.24255 138.71823 
L 579.402729 138.742307 
L 579.575715 138.769936 
L 579.718141 138.80832 
L 579.858016 138.81836 
L 580.025845 138.831756 
L 580.206433 138.862876 
L 580.40487 138.929396 
L 580.575351 138.974759 
L 580.720276 138.977678 
L 580.905909 138.998124 
L 581.07634 139.036367 
L 581.264625 139.102952 
L 581.39695 139.155587 
L 581.557229 139.208072 
L 581.687004 139.25714 
L 581.829536 139.316818 
L 582.010169 139.369239 
L 582.200952 139.400291 
L 582.353479 139.406708 
L 582.414539 139.417105 
L 582.607778 139.433985 
L 582.79091 139.461547 
L 582.981695 139.510338 
L 583.17253 139.576925 
L 583.33791 139.63291 
L 583.50579 139.667664 
L 583.663417 139.674075 
L 583.79824 139.694737 
L 583.938171 139.747296 
L 584.09345 139.824707 
L 584.274082 139.877131 
L 584.439259 139.855059 
L 584.548527 139.83327 
L 584.71631 139.825447 
L 584.88419 139.853081 
L 585.031715 139.880794 
L 585.146135 139.901591 
L 585.28606 139.939979 
L 585.481945 139.981645 
L 585.657526 140.041191 
L 585.835562 140.079438 
L 586.008593 140.135424 
L 586.184074 140.173671 
L 586.339301 140.21911 
L 586.514832 140.267969 
L 586.659858 140.317046 
L 586.820187 140.390829 
L 586.947516 140.464754 
L 587.130799 140.563257 
L 587.288628 140.647721 
L 587.436304 140.732187 
L 587.502466 140.77093 
L 587.642441 140.827129 
L 587.81037 140.875989 
L 587.957896 140.914379 
L 588.107972 140.942094 
L 588.240194 140.955701 
L 588.430926 140.976147 
L 588.62936 141.039116 
L 588.771739 141.045602 
L 588.947219 141.066127 
L 589.109996 141.083084 
L 589.181208 141.093413 
L 589.326137 141.110511 
L 589.494066 141.15945 
L 589.661945 141.208382 
L 589.852778 141.274913 
L 590.000404 141.345278 
L 590.147979 141.394281 
L 590.282852 141.439794 
L 590.448281 141.510027 
L 590.639214 141.612086 
L 590.802142 141.707095 
L 590.985374 141.79499 
L 591.148302 141.868777 
L 591.300978 141.935513 
L 591.43085 142.013001 
L 591.611586 142.104458 
L 591.761762 142.181875 
L 591.891584 142.259301 
L 592.029007 142.315496 
L 592.179232 142.396405 
L 592.370165 142.509078 
L 592.538243 142.629019 
L 592.711373 142.72759 
L 592.909956 142.857996 
L 593.037327 142.946104 
L 593.225809 143.101363 
L 593.40459 143.281336 
L 593.619672 143.539011 
L 593.67298 143.571061 
L 593.848159 143.706222 
L 594.010631 143.844874 
L 594.162902 143.980036 
L 594.348227 144.157783 
L 594.500497 144.310608 
L 594.662974 144.481235 
L 594.820344 144.619958 
L 594.980265 144.755058 
L 595.150342 144.879608 
L 595.307762 144.972185 
L 595.472783 145.096667 
L 595.668264 145.267364 
L 595.835735 145.459285 
L 595.995705 145.576646 
L 596.181029 145.729549 
L 596.335848 145.861152 
L 596.505924 146.021169 
L 596.696298 146.191798 
L 596.889223 146.373178 
L 597.071945 146.554426 
L 597.244566 146.739297 
L 597.40699 146.916977 
L 597.604965 147.119651 
L 597.800438 147.283236 
L 597.993362 147.460987 
L 598.143078 147.596083 
L 598.318249 147.777394 
L 598.470515 147.948032 
L 598.632939 148.104413 
L 598.813159 148.282172 
L 598.99338 148.459924 
L 599.188802 148.673211 
L 599.35382 148.829607 
L 599.528944 148.989627 
L 599.691361 149.153137 
L 599.846227 149.316648 
L 600.021295 149.529865 
L 600.186262 149.721797 
L 600.335982 149.90304 
L 600.516195 150.105647 
L 600.665915 150.262037 
L 600.815679 150.404256 
L 600.973044 150.571335 
L 601.143061 150.798725 
L 601.318177 151.029676 
L 601.503395 151.250024 
L 601.698865 151.445511 
L 601.866335 151.633946 
L 602.051597 151.857785 
L 602.231768 152.095858 
L 602.389076 152.32681 
L 602.579398 152.603916 
L 602.706201 152.845409 
L 602.807661 153.044245 
L 602.916717 153.292852 
L 603.028272 153.552007 
L 603.101774 153.750843 
L 603.185425 153.995818 
L 603.271582 154.240801 
L 603.390788 154.510638 
L 603.504894 154.734399 
L 603.662204 154.986574 
L 603.837317 155.210484 
L 604.01238 155.434317 
L 604.16459 155.683002 
L 604.316799 155.9423 
L 604.420803 156.137577 
L 604.534957 156.361338 
L 604.671914 156.588661 
L 604.808926 156.812493 
L 604.953534 157.025644 
L 605.143847 157.28502 
L 605.311307 157.508861 
L 605.473665 157.775281 
L 605.628418 158.009726 
L 605.765429 158.261903 
L 605.922737 158.478623 
L 606.105448 158.698967 
L 606.29831 158.92644 
L 606.48857 159.19999 
L 606.643321 159.445117 
L 606.808285 159.637048 
L 606.985945 159.818305 
L 607.158555 159.989014 
L 607.320964 160.138289 
L 607.485974 160.287711 
L 607.638287 160.419254 
L 607.820997 160.604142 
L 607.985955 160.781832 
L 608.183915 161.002257 
L 608.343823 161.1551 
L 608.513831 161.354154 
L 608.694041 161.510622 
L 608.856503 161.663536 
L 608.998609 161.8022 
L 609.183918 161.997702 
L 609.364024 162.239342 
L 609.53658 162.457533 
L 609.676184 162.619584 
L 609.871593 162.825768 
L 610.04165 162.999977 
L 610.168554 163.103106 
L 610.325915 163.256014 
L 610.518772 163.486982 
L 610.714178 163.728632 
L 610.810579 163.838811 
L 610.995834 164.059161 
L 611.19124 164.29732 
L 611.345993 164.496312 
L 611.541397 164.7663 
L 611.637742 164.990071 
L 611.749289 165.21376 
L 611.863437 165.426852 
L 611.939485 165.650538 
L 614.070955 168.283923 
L 614.25887 168.326889 
L 614.393476 168.369774 
L 614.545787 168.416227 
L 614.705795 168.448503 
L 614.822603 168.501928 
L 614.982559 168.573236 
L 615.142468 168.680002 
L 615.322724 168.776235 
L 615.492881 168.833366 
L 615.645192 168.883311 
L 615.812799 168.936951 
L 616.000708 168.98697 
L 616.168321 169.03705 
L 616.356179 169.101311 
L 616.528893 169.130036 
L 616.686349 169.169434 
L 616.803158 169.201637 
L 616.978365 169.262337 
L 617.176377 169.351453 
L 617.338882 169.440496 
L 617.496235 169.540143 
L 617.666338 169.664721 
L 617.826245 169.77505 
L 617.937945 169.85333 
L 618.115648 169.984961 
L 618.290805 170.113031 
L 618.463409 170.219871 
L 618.587809 170.315962 
L 618.762968 170.412128 
L 618.935571 170.515339 
L 619.126026 170.618628 
L 619.280884 170.704105 
L 619.476339 170.807465 
L 619.674342 170.94273 
L 619.869846 171.060193 
L 620.047549 171.167042 
L 620.192204 171.273748 
L 620.329304 171.373395 
L 620.524756 171.50866 
L 620.694863 171.615433 
L 620.892866 171.732967 
L 621.042617 171.836183 
L 621.230467 171.985621 
L 621.387816 172.113622 
L 621.52997 172.223951 
L 621.659419 172.320038 
L 621.849766 172.501381 
L 622.029971 172.647188 
L 622.202569 172.796624 
L 622.375166 172.956603 
L 622.540111 173.134382 
L 622.735504 173.379605 
L 622.869938 173.603374 
L 623.067819 173.876997 
L 623.253053 174.079557 
L 623.430628 174.328325 
L 623.524466 174.452675 
L 623.674205 174.616197 
L 623.828994 174.783289 
L 624.001522 174.978719 
L 624.146161 175.13163 
L 624.288249 175.295083 
L 624.430327 175.518923 
L 624.546953 175.749741 
L 624.617883 175.945011 
L 624.688863 176.143841 
L 624.785139 176.413612 
L 624.863713 176.619564 
L 624.993038 176.864626 
L 625.076613 177.134388 
L 625.127293 177.308362 
L 625.167716 177.556755 
L 625.195439 177.801585 
L 625.233312 178.049978 
L 625.273788 178.266459 
L 625.321865 178.475905 
L 625.362349 178.649807 
L 625.415526 178.852126 
L 625.458556 179.015424 
L 625.514281 179.249641 
L 625.572508 179.462648 
L 625.628181 179.714604 
L 625.666109 179.895627 
L 625.71163 180.165307 
L 625.739406 180.367559 
L 625.772236 180.576918 
L 625.812713 180.76863 
L 625.835385 181.009893 
L 625.847917 181.183728 
L 625.86554 181.410818 
L 625.87807 181.605939 
L 625.880391 181.857817 
L 625.880215 182.049369 
L 625.885141 182.294127 
L 625.882423 182.457341 
L 625.879745 182.680804 
L 625.877018 182.893649 
L 625.879342 183.156138 
L 625.891812 183.418692 
L 625.901838 183.596081 
L 625.906768 183.798322 
L 625.914136 184.067926 
L 625.919061 184.266607 
L 625.913785 184.521974 
L 625.908505 184.770283 
L 625.905785 184.965403 
L 625.910642 185.063365 
L 625.915814 185.167645 
L 625.938434 185.433691 
L 625.950962 185.646614 
L 625.973636 185.866591 
L 625.998858 186.1043 
L 626.04183 186.352763 
L 626.059403 186.572732 
L 626.071931 186.792707 
L 626.09205 187.05876 
L 626.114669 187.331996 
L 626.12969 187.583876 
L 626.144763 187.803851 
L 626.172483 188.059356 
L 626.195157 188.272212 
L 626.212788 188.456723 
L 626.235406 188.733457 
L 626.245439 188.886063 
L 626.260513 189.095357 
L 626.278137 189.2976 
L 626.326157 189.570841 
L 626.361591 189.719966 
L 626.407114 189.936456 
L 626.437443 190.145822 
L 626.467716 190.372921 
L 626.490442 190.550311 
L 626.508014 190.777408 
L 626.507839 191.025718 
L 626.507609 191.277596 
L 626.507546 191.373372 
L 626.517464 191.646537 
L 626.529993 191.845219 
L 626.517111 192.11475 
L 626.499136 192.359503 
L 626.476055 192.600689 
L 626.455582 192.820589 
L 626.435053 193.054654 
L 626.409477 193.30289 
L 626.378799 193.512177 
L 626.348122 193.778145 
L 626.322543 194.008648 
L 626.29697 194.228547 
L 626.268848 194.434197 
L 626.225525 194.646966 
L 626.179594 194.898766 
L 626.161613 195.150564 
L 626.156287 195.413045 
L 626.14091 195.625895 
L 626.133085 195.874204 
L 626.135406 196.104789 
L 626.145429 196.321203 
L 626.150306 196.548221 
L 626.139984 196.761071 
L 626.096603 197.012796 
L 626.101473 197.261113 
L 626.139342 197.530862 
L 626.126463 197.768495 
L 626.065339 197.991803 
L 626.072766 198.222451 
L 626.031938 198.445839 
L 625.991112 198.701124 
L 625.962989 198.924576 
L 625.92466 199.162129 
L 625.881284 199.421044 
L 625.840454 199.669208 
L 625.789479 199.921001 
L 625.7283 200.15855 
L 625.672225 200.417394 
L 625.621251 200.647831 
L 625.575434 200.810892 
L 625.516863 201.005863 
L 625.420137 201.275305 
L 625.346258 201.519904 
L 625.295285 201.746773 
L 625.236661 202.002056 
L 625.190791 202.197092 
L 625.142415 202.399186 
L 625.063439 202.675681 
L 624.997218 202.891944 
L 624.931049 203.076296 
L 624.857228 203.28543 
L 624.768157 203.505173 
L 624.658785 203.742569 
L 624.595111 203.997851 
L 624.506039 204.224646 
L 624.422019 204.437339 
L 624.332941 204.68898 
L 624.243869 204.922895 
L 624.134498 205.160369 
L 624.009824 205.426107 
L 623.892802 205.684872 
L 623.77323 205.929318 
L 623.694363 206.102987 
L 623.56974 206.375853 
L 623.523932 206.492839 
L 623.45771 206.673568 
L 623.373746 206.886262 
L 623.241469 207.15556 
L 623.134657 207.346888 
L 622.987187 207.580719 
L 622.84482 207.793195 
L 622.654095 208.058855 
L 622.592974 208.296406 
L 622.712145 208.527223 
L 622.907799 208.421212 
L 623.062869 208.173279 
L 623.225409 208.194951 
L 623.187137 208.432512 
L 623.125959 208.70908 
L 623.082583 208.94308 
L 623.018911 209.194795 
L 622.96029 209.446587 
L 622.894011 209.723092 
L 622.858338 209.921698 
L 622.794616 210.187592 
L 622.758899 210.364898 
L 622.695222 210.627238 
L 622.656947 210.85425 
L 622.60592 211.120146 
L 622.575249 211.364898 
L 622.542022 211.620185 
L 622.496152 211.847126 
L 622.470523 212.123777 
L 622.44245 212.322384 
L 622.414333 212.510309 
L 622.358257 212.769153 
L 622.32758 213.02807 
L 622.307113 213.208946 
L 622.289137 213.446579 
L 622.273717 213.670034 
L 622.26339 213.92184 
L 622.27076 214.198565 
L 622.295991 214.390197 
L 622.308462 214.659802 
L 622.310837 214.865604 
L 622.323308 215.142336 
L 622.345979 215.390649 
L 622.376249 215.663887 
L 622.388774 215.876741 
L 622.398754 216.086104 
L 622.411276 216.334423 
L 622.438998 216.575685 
L 622.471879 216.753147 
L 622.514853 216.948342 
L 622.560433 217.136487 
L 622.606007 217.335243 
L 622.648986 217.530439 
L 622.722456 217.768225 
L 622.816172 218.045178 
L 622.915041 218.272425 
L 623.011354 218.520965 
L 623.089872 218.772993 
L 623.13795 218.97175 
L 623.198664 219.234387 
L 623.28738 219.500659 
L 623.406489 219.770502 
L 623.525654 220.026174 
L 623.657462 220.303203 
L 623.741139 220.484302 
L 623.832358 220.704435 
L 623.94392 220.935252 
L 624.03769 221.141206 
L 624.151807 221.364973 
L 624.255722 221.609954 
L 624.321593 221.815842 
L 624.34688 221.90108 
L 624.40005 222.135303 
L 624.488717 222.369608 
L 624.562243 222.561318 
L 624.59263 222.639443 
L 624.693995 222.884494 
L 624.80556 223.133044 
L 624.919618 223.392269 
L 625.061632 223.61604 
L 625.18334 223.864662 
L 625.299954 224.102595 
L 625.414019 224.333413 
L 625.525584 224.560671 
L 625.659945 224.812848 
L 625.774053 225.057909 
L 625.867819 225.281597 
L 625.989479 225.555002 
L 626.073148 225.743224 
L 626.164365 225.963358 
L 626.283527 226.204852 
L 626.428087 226.449918 
L 626.562442 226.705663 
L 626.694303 226.943606 
L 626.818567 227.156765 
L 626.950427 227.398261 
L 627.064491 227.618469 
L 627.221741 227.895505 
L 627.356099 228.165423 
L 627.487953 228.414048 
L 627.604565 228.637817 
L 627.736372 228.914779 
L 627.868231 229.163405 
L 627.989941 229.4049 
L 628.136992 229.66777 
L 628.296746 229.934133 
L 628.380416 230.086897 
L 628.479335 230.292855 
L 628.573098 230.520111 
L 628.65671 230.757971 
L 628.712378 230.960291 
L 628.795988 231.226564 
L 628.861801 231.471479 
L 628.96826 231.720024 
L 629.08742 231.943794 
L 629.239518 232.220831 
L 629.310488 232.430282 
L 629.272211 232.657222 
L 629.102084 232.621372 
L 628.921863 232.525202 
L 628.741645 232.460929 
L 628.566411 232.446302 
L 628.39866 232.623298 
L 628.500074 232.829332 
L 628.649788 232.978618 
L 628.817255 233.124422 
L 628.966976 233.245441 
L 629.124341 233.373435 
L 629.289197 233.593792 
L 629.464197 233.863789 
L 629.578307 234.083998 
L 629.687258 234.346723 
L 629.808972 234.566927 
L 629.976378 234.769561 
L 630.120924 235.046527 
L 630.154448 235.246749 
L 630.155931 235.372901 
L 630.182097 235.606695 
L 630.203072 235.812227 
L 630.254732 236.07786 
L 630.308942 236.346992 
L 630.363057 236.566556 
L 630.38422 236.839381 
L 630.392447 237.020191 
L 630.400625 237.204491 
L 630.40654 237.470325 
L 630.392059 237.71501 
L 631.179249 238.249807 
L 631.377432 238.213345 
L 631.530155 238.279912 
L 631.703711 238.502305 
L 631.867214 238.756741 
L 631.995171 239.01487 
L 632.023312 239.078544 
L 632.120631 239.297845 
L 632.212844 239.520705 
L 632.32555 239.796703 
L 632.420221 239.994717 
L 632.535331 240.221003 
L 632.630046 240.429691 
L 632.750158 240.631201 
L 632.913708 240.9033 
L 633.024117 241.097841 
L 633.044121 241.133079 
L 633.143884 241.341706 
L 633.27179 241.589225 
L 633.425141 241.857894 
L 633.588691 242.119383 
L 633.754601 242.331234 
L 633.915454 242.560888 
L 634.078954 242.822376 
L 634.242503 243.083865 
L 634.393255 243.33837 
L 634.561854 243.589171 
L 634.666668 243.773017 
L 634.840418 244.052171 
L 635.001366 244.317213 
L 635.119073 244.550628 
L 635.203537 244.748705 
L 635.351836 245.013891 
L 635.520486 245.293045 
L 635.630446 245.494547 
L 635.69182 245.618338 
L 635.784036 245.830595 
L 635.871098 246.042845 
L 635.971009 246.283441 
L 636.078515 246.523968 
L 636.165582 246.725543 
L 636.252694 246.934302 
L 636.344951 247.171336 
L 636.432115 247.401318 
L 636.552417 247.659518 
L 636.639284 247.811519 
L 636.754396 248.027196 
L 636.8442 248.292643 
L 636.933955 248.543849 
L 637.016068 248.788072 
L 637.087983 249.021681 
L 637.167444 249.234006 
L 637.236851 249.485341 
L 637.296116 249.733189 
L 637.329837 249.949337 
L 637.378899 250.186572 
L 637.41781 250.448727 
L 637.438882 250.671986 
L 637.454999 250.948442 
L 637.45553 251.118646 
L 637.451055 251.306511 
L 637.446632 251.515732 
L 637.444855 251.763909 
L 637.442928 251.962457 
L 637.438698 252.235487 
L 637.447216 252.511941 
L 637.440195 252.710557 
L 637.415421 252.909232 
L 637.400945 253.160967 
L 637.39157 253.405659 
L 637.374394 253.611386 
L 637.359725 253.799382 
L 637.350107 253.976705 
L 637.323031 254.2498 
L 637.295759 254.476818 
L 637.258384 254.707472 
L 637.228419 254.888483 
L 637.188402 255.090715 
L 637.12544 255.286031 
L 637.054928 255.488536 
L 636.961615 255.733622 
L 636.906448 255.967895 
L 636.891775 256.14877 
L 636.884803 256.365112 
L 636.885673 256.63452 
L 636.878895 256.900428 
L 636.879759 257.17695 
L 636.87298 257.449987 
L 636.861147 257.726576 
L 636.844026 257.939425 
L 636.831858 258.116747 
L 636.809784 258.36855 
L 636.767412 258.63117 
L 636.727536 258.883039 
L 636.667366 259.156407 
L 636.518163 259.405314 
L 636.343177 259.530304 
L 636.290559 259.77519 
L 636.304079 260.030421 
L 636.312545 260.29271 
L 636.318126 260.459278 
L 636.316446 260.732316 
L 636.291871 261.001851 
L 636.259595 261.24311 
L 636.214625 261.502169 
L 636.174658 261.722204 
L 636.157151 261.814493 
L 636.112226 262.066431 
L 636.084956 262.300571 
L 636.045037 262.534715 
L 636.015364 262.800828 
L 635.990548 262.988822 
L 635.978667 263.244118 
L 635.984394 263.449718 
L 635.977567 263.712137 
L 635.968186 263.96744 
L 635.966507 264.240471 
L 635.944483 264.499395 
L 635.932316 264.680278 
L 635.907737 264.949813 
L 635.888165 265.187445 
L 635.871088 265.414473 
L 635.831074 265.616706 
L 635.796993 265.771048 
L 635.780909 265.843859 
L 635.718192 266.103054 
L 635.619883 266.358821 
L 635.506277 266.607527 
L 635.446108 266.884386 
L 635.408881 267.157618 
L 635.384065 267.35274 
L 635.364347 267.558468 
L 635.342269 267.813832 
L 635.31505 268.044418 
L 635.287927 268.303341 
L 635.23786 268.558909 
L 635.19294 268.821459 
L 635.140418 269.084077 
L 635.102856 269.265095 
L 635.065439 269.492181 
L 635.01797 269.754801 
L 634.983049 269.971206 
L 634.937938 270.166457 
L 634.915331 270.265866 
L 634.847566 270.535672 
L 634.794855 270.745093 
L 634.732091 270.990053 
L 634.679379 271.210149 
L 634.63431 271.423069 
L 634.586648 271.632491 
L 634.541488 271.813569 
L 634.498877 272.001706 
L 634.453905 272.253645 
L 634.398741 272.491479 
L 634.346029 272.704461 
L 634.288413 272.97776 
L 634.235847 273.236825 
L 634.185685 273.446247 
L 634.14557 273.627256 
L 634.082856 273.886382 
L 634.020093 274.134897 
L 633.972481 274.351447 
L 633.909664 274.58928 
L 633.844304 274.823622 
L 633.750951 275.033314 
L 633.660147 275.25711 
L 633.579588 275.512811 
L 633.519231 275.704568 
L 633.441269 275.981494 
L 633.370904 276.226516 
L 633.297993 276.489201 
L 633.230036 276.70232 
L 633.167177 276.925988 
L 633.079113 277.199414 
L 633.026451 277.430135 
L 633.001687 277.632371 
L 632.918531 277.86322 
L 632.830375 278.11899 
L 632.75982 278.317866 
L 632.694315 278.51319 
L 632.603653 278.779572 
L 632.530599 278.982078 
L 632.475292 279.173767 
L 632.435086 279.32288 
L 632.377375 279.567835 
L 632.335053 279.837507 
L 632.274841 280.093074 
L 632.199334 280.334542 
L 632.121377 280.590238 
L 632.030622 280.842385 
L 631.934772 281.06276 
L 631.869166 281.229733 
L 631.758214 281.506792 
L 631.654763 281.748458 
L 631.536115 282.007854 
L 631.422517 282.2602 
L 631.321708 282.533701 
L 631.215808 282.793099 
L 631.137559 282.967191 
L 631.041757 283.219401 
L 630.933161 283.439773 
L 628.652359 285.567771 
L 628.588107 286.174874 
L 628.540644 286.444616 
L 628.485536 286.693064 
L 628.42273 286.927416 
L 628.321877 287.190237 
L 628.220979 287.438957 
L 628.107386 287.677132 
L 627.980997 287.897573 
L 627.847058 288.146427 
L 627.733362 288.370431 
L 627.622269 288.601424 
L 627.48333 288.871633 
L 627.382483 289.127411 
L 627.322033 289.301437 
L 627.246483 289.528729 
L 627.165878 289.763148 
L 627.100378 289.947855 
L 626.999484 290.182403 
L 626.908736 290.427502 
L 626.815484 290.676153 
L 626.729737 290.892902 
L 626.63144 291.159292 
L 626.548243 291.36892 
L 626.470194 291.596211 
L 626.399885 291.869588 
L 626.332031 292.125225 
L 626.291976 292.309797 
L 626.241725 292.487323 
L 626.168671 292.700451 
L 626.062581 292.910145 
L 625.918448 293.152017 
L 625.79471 293.400804 
L 625.681071 293.635421 
L 625.580129 293.859296 
L 625.497026 294.104389 
L 625.436821 294.363518 
L 625.376471 294.558776 
L 625.298417 294.80387 
L 625.192476 295.04903 
L 625.134479 295.205332 
L 625.031135 295.475353 
L 624.945488 295.720377 
L 624.867485 295.95835 
L 624.791938 296.182089 
L 624.72144 296.395211 
L 624.640741 296.604777 
L 624.514553 296.878488 
L 624.44891 297.013566 
L 624.279435 297.283843 
L 624.081921 297.504702 
L 623.911958 297.611973 
L 623.726066 297.503031 
L 623.669403 297.269359 
L 623.666023 297.007009 
L 623.685737 296.819005 
L 623.718144 296.609718 
L 623.763051 296.347088 
L 623.797963 296.134164 
L 623.837772 295.86805 
L 623.885283 295.616102 
L 623.930191 295.349988 
L 623.952205 295.087495 
L 623.94402 294.906748 
L 623.905006 294.633914 
L 623.868638 294.3895 
L 623.834766 294.127348 
L 623.803492 293.886419 
L 623.782469 293.656034 
L 623.613838 293.380388 
L 623.428871 293.569269 
L 623.353324 293.796638 
L 623.295568 294.009623 
L 623.243062 294.279365 
L 623.223108 294.40356 
L 623.198247 294.584511 
L 623.181088 294.772515 
L 623.156378 294.999536 
L 623.13157 295.19822 
L 623.096708 295.418196 
L 623.0669 295.641726 
L 623.029537 295.882994 
L 622.987131 296.131382 
L 622.947273 296.383324 
L 622.902214 296.603369 
L 622.829316 296.851885 
L 622.748622 297.065083 
L 622.652727 297.278271 
L 622.567035 297.498589 
L 622.476194 297.708218 
L 622.405796 297.956742 
L 622.355639 298.173295 
L 622.305487 298.386281 
L 622.262886 298.574421 
L 622.187433 298.830065 
L 622.124586 299.043119 
L 622.033795 299.263436 
L 621.899957 299.540638 
L 621.80152 299.753904 
L 621.710876 300.027412 
L 621.64817 300.290109 
L 621.582871 300.538628 
L 621.507473 300.812005 
L 621.434572 301.057032 
L 621.366823 301.32678 
L 621.311519 301.532721 
L 621.258869 301.752828 
L 621.208571 301.930355 
L 621.148367 302.175314 
L 621.093216 302.420211 
L 621.040615 302.654496 
L 620.980263 302.86399 
L 620.935114 303.041518 
L 620.869811 303.293598 
L 620.814705 303.552666 
L 620.799703 303.634276 
L 620.752245 303.896906 
L 620.714836 304.120435 
L 620.677481 304.358213 
L 620.657916 304.599414 
L 620.635704 304.805143 
L 620.611143 305.081809 
L 620.596578 305.291036 
L 620.587063 305.493213 
L 620.572595 305.752071 
L 620.553129 306.011005 
L 620.536167 306.284104 
L 620.5142 306.557209 
L 620.502136 306.759316 
L 620.492718 307.000449 
L 620.4783 307.259376 
L 620.45624 307.514749 
L 620.406233 307.773818 
L 620.340931 308.029388 
L 620.240138 308.306463 
L 620.134204 308.548136 
L 620.058657 308.771877 
L 619.965414 309.027653 
L 619.884823 309.265635 
L 619.796728 309.52847 
L 619.718632 309.752204 
L 619.638087 309.99018 
L 619.547299 310.22467 
L 619.479401 310.455464 
L 619.406503 310.696931 
L 619.320913 310.959766 
L 619.230268 311.236766 
L 619.132026 311.510282 
L 619.101879 311.613252 
L 619.003539 311.861977 
L 618.892503 312.114268 
L 618.789022 312.334648 
L 618.740179 312.454581 
L 618.662936 312.661498 
L 618.556999 312.906661 
L 618.471263 313.123421 
L 618.375473 313.372077 
L 618.287232 313.588836 
L 618.158407 313.848309 
L 618.034726 314.107789 
L 617.920994 314.313997 
L 617.769278 314.563003 
L 617.660645 314.772772 
L 617.493727 315.032457 
L 617.339511 315.292068 
L 617.198086 315.562298 
L 617.051512 315.836082 
L 616.907543 316.113357 
L 616.750774 316.365923 
L 616.596554 316.622044 
L 616.472781 316.860226 
L 616.333856 317.130387 
L 616.222676 317.333113 
L 616.121647 317.542813 
L 616.020664 317.748961 
L 615.917186 317.972833 
L 615.785712 318.193359 
L 615.717478 318.310778 
L 615.558161 318.570389 
L 615.429242 318.787348 
L 620.589782 323.682278 
L 620.590727 323.683172 
L 620.566205 323.768878 
L 620.66805 323.768297 
L 622.131454 323.767163 
L 621.704929 325.5273 
L 620.6314 327.041264 
L 619.640795 328.633365 
L 618.52585 330.108242 
L 618.593109 331.23797 
L 617.328049 331.505135 
L 616.496983 332.725935 
L 615.249028 333.889731 
L 614.446706 334.542035 
L 613.949556 334.933801 
L 613.118927 335.752703 
L 612.64346 336.770187 
L 612.031359 338.718757 
L 611.839576 340.09315 
L 611.212052 340.472046 
L 610.916625 341.528503 
L 610.309888 342.147351 
L 609.570283 343.393043 
L 609.177562 344.159005 
L 609.053767 345.472319 
L 608.338844 347.356318 
L 607.767267 349.301623 
L 607.864861 351.532713 
L 606.433015 353.110479 
L 607.074237 355.227522 
L 606.866769 355.487424 
L 605.792585 355.132721 
L 604.783291 356.218548 
L 604.594518 356.421626 
L 603.5214 358.012834 
L 603.330226 358.380393 
L 603.1208 359.425277 
L 603.207833 361.119293 
L 602.470761 360.982018 
L 602.321622 361.328502 
L 601.650318 361.358714 
L 601.120403 361.380057 
L 601.091095 361.38361 
L 601.062293 361.391994 
L 601.0344 361.405048 
L 601.003414 361.426076 
L 600.982853 361.44438 
L 600.95441 361.477345 
L 600.939301 361.499427 
L 600.921299 361.531924 
L 600.239729 362.928982 
L 599.322969 364.456687 
L 599.220744 364.638939 
L 598.387994 366.22937 
L 597.339321 367.759458 
L 596.657037 369.378632 
L 596.577225 369.56978 
L 595.835084 370.893864 
L 595.834675 370.89459 
L 595.651362 371.220032 
L 595.579171 371.378452 
L 594.107135 374.623883 
L 593.984996 374.925274 
L 593.361893 376.657724 
L 593.733166 377.012444 
L 594.419093 380.366231 
L 594.505268 380.766852 
L 594.23455 381.727218 
L 594.345459 382.263422 
L 594.649167 383.73905 
L 595.15932 385.712938 
L 595.730387 387.93585 
L 596.321386 389.859965 
L 597.096133 391.674195 
L 597.090236 393.956384 
L 597.727193 395.853137 
L 597.874713 396.044565 
L 597.57837 398.154594 
L 597.981046 400.229998 
L 598.084133 402.320209 
L 598.237142 404.407894 
L 597.938754 406.516806 
L 598.789522 406.475831 
L 601.594602 408.883808 
L 601.872699 409.119714 
L 602.968801 411.512875 
L 602.015799 412.999489 
L 601.749487 415.164045 
L 601.644512 417.288434 
L 600.768022 419.125993 
L 600.710245 420.255484 
L 600.834285 421.688079 
L 600.866274 423.791696 
L 601.442705 425.802906 
L 601.579321 427.360956 
L 601.624497 427.881323 
L 601.700048 429.904698 
L 602.548811 431.666085 
L 602.615087 431.798962 
L 604.236957 433.136847 
L 605.484221 434.295601 
L 606.051566 434.509486 
L 606.705303 435.512831 
L 607.058108 436.469066 
L 607.270654 437.04283 
L 607.753359 437.054502 
L 607.244912 439.136078 
L 605.870315 441.196892 
L 605.394783 443.279466 
L 605.618484 445.378966 
L 606.541456 447.495467 
L 606.379894 448.539291 
L 606.216155 449.583485 
L 606.225739 449.957684 
L 605.794933 450.862309 
L 605.845393 451.079214 
L 606.077232 453.152885 
L 606.821486 457.892608 
L 607.861856 461.525987 
L 608.179948 462.636908 
L 605.352088 469.749467 
L 604.795474 470.526052 
L 605.034424 471.526904 
L 605.420594 472.488213 
L 606.199776 472.450956 
L 605.418792 474.600935 
L 604.819685 474.778521 
L 604.651568 476.404973 
L 604.259972 477.10674 
L 604.263082 477.258326 
L 604.306177 479.358602 
L 604.122787 481.447378 
L 603.914196 482.941086 
L 604.259664 484.843718 
L 604.455991 485.781764 
L 604.675851 486.862747 
L 604.855764 488.970485 
L 605.083637 491.058748 
L 605.677781 492.335937 
L 606.45804 492.844362 
L 606.465684 492.849877 
L 606.623654 492.952294 
L 607.296001 493.34859 
L 607.501969 494.244305 
L 607.57649 494.568312 
L 607.576133 495.506218 
L 606.918494 497.450027 
L 607.103083 497.826469 
L 607.204205 499.453891 
L 607.995622 502.142304 
L 608.404369 504.161606 
L 610.068647 507.77853 
L 609.780139 509.270838 
L 609.959829 510.055509 
L 609.960477 510.935763 
L 609.946259 511.772118 
L 609.924583 513.047535 
L 611.153948 517.572989 
L 611.951339 519.09003 
L 612.850765 521.035863 
L 613.489458 521.988806 
L 615.004451 521.276984 
L 615.011074 523.740136 
L 615.620009 520.26057 
L 615.757974 519.554067 
L 617.121346 518.283335 
L 618.396352 517.050079 
L 618.834404 514.822047 
L 619.217277 513.106564 
L 619.500748 512.865254 
L 619.783242 513.070748 
L 621.260821 513.788406 
L 621.641451 514.029444 
L 621.728924 514.419516 
L 622.135797 516.234499 
L 623.293791 517.592177 
L 623.500656 517.86725 
L 624.493878 518.510276 
L 624.414956 518.996842 
L 624.331523 522.59696 
L 626.114509 523.127281 
L 626.236377 519.868458 
L 626.582998 518.75578 
L 627.805901 519.108215 
L 627.417715 521.455782 
L 627.976492 523.497514 
L 628.038689 524.057204 
L 628.159792 525.146583 
L 627.389838 525.658606 
L 627.09605 526.277041 
L 626.322991 528.177577 
L 625.629701 529.016765 
L 624.791463 528.96707 
L 624.942126 528.325299 
L 623.46276 527.67596 
L 622.358358 526.201699 
L 620.983701 524.548269 
L 621.327128 527.036668 
L 619.766131 530.256678 
L 619.06999 531.459686 
L 619.037206 531.693347 
L 618.294193 533.251074 
L 618.453501 534.201182 
L 619.104382 538.479835 
L 619.721786 539.626453 
L 620.263548 541.677285 
L 621.403831 543.09855 
L 622.424409 544.645749 
L 622.766625 546.906421 
L 623.747322 548.49551 
L 624.967399 549.832754 
L 626.022554 550.510844 
L 625.692502 550.512992 
L 619.207899 550.555384 
L 619.093459 550.556068 
L 614.990782 550.555627 
L 614.9969 550.579777 
L 615.3254 551.825641 
L 615.397465 552.224464 
L 615.407573 552.270632 
L 615.449468 552.468766 
L 615.445845 552.492216 
L 615.639292 553.562823 
L 616.029129 555.370615 
L 616.342161 557.195916 
L 616.6679 558.962116 
L 616.796961 559.818557 
L 616.873647 560.327421 
L 616.951 560.795367 
L 617.002433 561.083052 
L 617.04289 561.309322 
L 617.083343 561.535591 
L 617.13478 561.823276 
L 617.226351 562.335458 
L 617.240282 562.60704 
L 617.259312 562.978016 
L 617.274186 563.267966 
L 617.294668 563.667259 
L 617.311473 563.994797 
L 617.537788 565.295703 
L 617.41164 566.185439 
L 617.363675 566.523763 
L 617.325823 566.790753 
L 617.292513 567.025678 
L 617.156547 567.371337 
L 617.003763 567.782165 
L 616.82628 568.210961 
L 616.661694 568.629376 
L 616.683433 569.065098 
L 616.701401 569.425239 
L 616.728389 569.966141 
L 616.749692 570.432853 
L 616.766473 570.829855 
L 616.794793 571.49985 
L 616.940845 572.846586 
L 617.050067 573.853711 
L 617.060054 574.534364 
L 617.076998 575.688974 
L 617.088717 575.849574 
L 617.18996 577.24368 
L 617.338942 579.190051 
L 617.320719 580.022392 
L 617.310799 580.475305 
L 617.292824 581.171035 
L 617.264948 582.704754 
L 617.238168 583.570989 
L 617.235304 583.783989 
L 617.188466 585.183127 
L 617.158496 585.761039 
L 617.133416 586.244773 
L 617.115276 586.594564 
L 617.092336 587.036899 
L 617.035978 587.721979 
L 616.991019 588.211708 
L 616.958265 588.56852 
L 616.769553 590.842845 
L 616.739095 591.227451 
L 616.499678 593.184671 
L 616.719811 595.738796 
L 616.512601 597.156251 
L 616.483814 599.275622 
L 616.658273 601.306274 
L 616.725023 603.443199 
L 617.053549 605.694067 
L 616.922168 606.570141 
L 616.9199 606.669786 
L 616.03226 606.652135 
L 615.15235 606.652271 
L 604.875054 606.688598 
L 601.901542 606.698941 
L 593.601804 606.702242 
L 590.704603 606.702961 
L 580.172577 606.659346 
L 580.174404 605.255119 
L 590.705447 605.294769 
L 590.715026 538.43021 
L 569.974218 523.65184 
L 562.496516 503.847524 
L 554.696819 483.198019 
L 552.512609 484.00169 
L 550.32766 484.735461 
L 548.846573 485.211289 
L 546.167276 486.007756 
L 543.668691 486.683593 
L 542.987788 486.853925 
L 541.166393 487.295293 
L 538.481479 487.87969 
L 536.239377 488.317092 
L 534.007174 488.702801 
L 531.226736 489.111364 
L 529.736741 489.3032 
L 527.945283 489.601298 
L 527.388616 489.623993 
L 531.085365 484.041502 
L 530.716665 482.252391 
L 530.392205 480.446628 
L 530.112374 478.626335 
L 530.000702 477.775353 
L 523.993776 477.083648 
L 516.532774 468.377539 
L 514.820553 464.699414 
L 510.900004 464.691069 
L 512.141419 450.052701 
L 512.420488 436.619547 
L 512.453435 421.266014 
L 512.441669 420.287421 
L 512.402989 419.310181 
L 512.33745 418.335739 
L 512.244075 417.390903 
L 512.117581 416.453615 
L 511.958283 415.526144 
L 511.766561 414.610724 
L 511.54288 413.709575 
L 511.287775 412.82486 
L 511.001861 411.958731 
L 510.685839 411.113266 
L 510.321248 410.247342 
L 509.92507 409.40894 
L 509.498365 408.6003 
L 509.042277 407.823594 
L 508.558032 407.080901 
L 508.046924 406.374211 
L 507.510323 405.705415 
L 506.949668 405.076314 
L 506.366464 404.488584 
L 505.762266 403.943807 
L 505.138698 403.443443 
L 504.49743 402.988825 
L 503.714741 402.211387 
L 511.726181 404.495307 
L 511.738113 403.511873 
L 511.741591 402.707094 
L 511.744088 400.362211 
L 511.749035 395.69339 
L 511.753725 391.288316 
L 510.749727 390.781678 
L 506.951053 388.862486 
L 501.955052 388.916737 
L 501.706291 389.179334 
L 501.439862 388.716498 
L 501.155392 388.275119 
L 500.953641 387.989507 
L 500.884297 387.897292 
L 500.483692 387.404263 
L 500.057851 386.954407 
L 499.609142 386.550243 
L 499.140081 386.194018 
L 498.653287 385.887733 
L 498.151473 385.633084 
L 497.63745 385.431508 
L 497.114085 385.284127 
L 496.584299 385.191757 
L 494.325589 384.917357 
L 493.182829 384.778137 
L 491.886431 384.621333 
L 491.252767 384.519843 
L 490.624052 384.369874 
L 490.002183 384.171871 
L 489.38904 383.926442 
L 488.786477 383.634325 
L 488.196307 383.296398 
L 487.620327 382.913686 
L 487.060263 382.48734 
L 486.517812 382.018658 
L 486.015423 381.530218 
L 485.532162 381.005471 
L 485.06052 380.435089 
L 484.722893 379.985886 
L 484.398458 379.518098 
L 484.087729 379.032485 
L 483.67887 378.329508 
L 483.404771 377.808158 
L 483.145798 377.271936 
L 483.087287 377.146099 
L 482.894041 376.749505 
L 482.498309 376.008467 
L 482.073004 375.30012 
L 481.619508 374.626755 
L 481.139299 373.990562 
L 480.633928 373.393606 
L 480.374895 373.12369 
L 480.104029 372.877476 
L 479.822446 372.655977 
L 479.822281 372.655928 
L 479.820456 372.65454 
L 479.416067 372.391237 
L 478.996616 372.178839 
L 478.565378 372.019018 
L 478.12572 371.913016 
L 477.681078 371.861661 
L 477.234925 371.865355 
L 476.790753 371.924069 
L 476.352023 372.037346 
L 476.351623 372.037472 
L 474.45567 372.648314 
L 472.48248 371.401035 
L 471.380576 370.053534 
L 469.981329 368.343579 
L 468.687616 366.76446 
L 467.333744 365.111879 
L 465.979809 363.459308 
L 465.7805 363.216032 
L 463.705996 360.682523 
L 459.964088 351.551367 
L 458.841247 351.125174 
L 458.744575 351.251586 
L 458.530142 351.535061 
L 458.264709 351.89199 
L 457.697713 352.677567 
L 457.157285 353.457191 
L 456.798483 353.992362 
L 456.382022 354.632059 
L 456.031102 355.186997 
L 455.669206 355.775844 
L 455.122686 356.698379 
L 454.839569 357.173394 
L 454.650005 357.476912 
L 454.456836 357.775078 
L 454.244882 358.090077 
L 453.933216 358.53194 
L 453.604479 358.972288 
L 453.35802 359.285841 
L 453.063282 359.643959 
L 452.692149 360.071042 
L 452.301754 360.492779 
L 451.915276 360.88439 
L 451.483436 361.293546 
L 451.091654 361.640517 
L 450.725484 361.945008 
L 450.362121 362.229168 
L 449.94607 362.533449 
L 449.549731 362.803005 
L 449.170973 363.043142 
L 448.753875 363.288916 
L 448.377213 363.494349 
L 447.981662 363.693186 
L 447.581028 363.877912 
L 447.204369 364.03711 
L 446.790166 364.19592 
L 446.338478 364.349819 
L 445.898336 364.481132 
L 445.464839 364.592712 
L 445.024867 364.688213 
L 444.615143 364.761838 
L 444.174009 364.824209 
L 443.800819 364.862711 
L 443.337968 364.896946 
L 441.591461 365.020922 
L 439.595475 365.162648 
L 436.68477 369.400556 
L 432.509134 371.092902 
L 432.507411 371.920628 
L 432.501539 374.740312 
L 432.496863 376.987598 
L 432.493256 378.718476 
L 432.490335 380.12133 
L 432.490949 381.462801 
L 430.52814 381.460844 
L 430.522789 369.814874 
L 431.293464 369.814185 
L 436.031803 367.89302 
L 439.051001 363.497218 
L 440.028517 363.427679 
L 441.170405 363.346488 
L 442.190533 363.273958 
L 442.987302 363.217682 
L 443.513256 363.180539 
L 443.552952 363.177734 
L 444.072748 363.127836 
L 444.5321 363.062015 
L 444.908518 362.992738 
L 445.228835 362.922803 
L 445.612943 362.825184 
L 445.940917 362.73004 
L 446.198662 362.647549 
L 446.570502 362.516453 
L 446.888294 362.392822 
L 447.254706 362.236724 
L 447.565289 362.092994 
L 447.853682 361.949785 
L 448.131703 361.802641 
L 448.271749 361.725078 
L 448.683067 361.483524 
L 448.905327 361.344307 
L 449.162269 361.175525 
L 449.340706 361.053252 
L 449.60753 360.862394 
L 449.84968 360.680723 
L 450.065871 360.511507 
L 450.276209 360.340333 
L 450.550399 360.107074 
L 450.782743 359.900237 
L 451.035073 359.665697 
L 451.197034 359.509524 
L 451.412708 359.29447 
L 451.669334 359.027625 
L 451.866693 358.813941 
L 452.047108 358.611894 
L 452.252698 358.373336 
L 452.489292 358.087526 
L 452.666441 357.865229 
L 452.807697 357.682656 
L 452.903436 357.556122 
L 453.139106 357.234925 
L 453.304382 357.000798 
L 453.458771 356.775119 
L 453.636873 356.505971 
L 453.802065 356.24718 
L 453.964531 355.983804 
L 454.100408 355.756402 
L 454.239569 355.516599 
L 454.416405 355.202723 
L 454.529691 354.995843 
L 454.695243 354.68516 
L 454.829799 354.424919 
L 455.010066 354.064735 
L 455.211887 353.644579 
L 455.431621 353.164684 
L 455.752596 352.4195 
L 456.152641 351.473334 
L 455.956019 351.311029 
L 454.501335 350.110539 
L 454.251221 349.904134 
L 454.09679 349.776676 
L 453.923329 349.633519 
L 453.730695 349.460705 
L 453.470194 349.176719 
L 453.387856 349.072726 
L 453.276211 348.918721 
L 453.149865 348.723482 
L 453.008228 348.471923 
L 452.902899 348.255997 
L 452.804347 348.024085 
L 452.716244 347.814847 
L 452.656548 347.687045 
L 452.565314 347.509197 
L 452.451501 347.311506 
L 452.365942 347.177475 
L 452.201242 346.948345 
L 452.089652 346.811536 
L 451.965977 346.674645 
L 451.844847 346.553914 
L 451.687794 346.414914 
L 451.550531 346.308047 
L 451.388052 346.197577 
L 451.231688 346.106377 
L 451.05062 346.017989 
L 451.122377 345.760421 
L 451.149241 345.660469 
L 451.18364 345.52941 
L 451.22382 345.371657 
L 451.259667 345.226306 
L 451.309289 345.017191 
L 451.421361 345.070636 
L 451.550447 345.139049 
L 451.724874 345.243709 
L 451.843819 345.323559 
L 452.005563 345.443888 
L 452.121425 345.538785 
L 452.276819 345.678583 
L 452.417183 345.818295 
L 452.549093 345.962405 
L 452.661731 346.09631 
L 452.720873 346.17104 
L 452.841514 346.33375 
L 452.946148 346.487216 
L 453.052158 346.65606 
L 453.168357 346.85907 
L 453.268008 347.051335 
L 453.360018 347.246482 
L 453.471278 347.51077 
L 453.573159 347.744447 
L 453.722184 348.021566 
L 453.861586 348.233257 
L 453.99959 348.409659 
L 454.174117 348.596086 
L 454.310575 348.718077 
L 454.499374 348.873796 
L 454.635198 348.985826 
L 454.786705 349.110787 
L 454.952116 349.247221 
L 455.159943 349.418635 
L 455.338178 349.565643 
L 455.472571 349.676495 
L 455.621768 349.799552 
L 455.772379 349.923767 
L 456.539794 350.556703 
L 458.248031 346.515787 
L 457.862464 345.872449 
L 455.915704 345.571139 
L 455.909251 345.275004 
L 457.776975 344.824347 
L 453.626765 338.015057 
L 452.727284 331.326191 
L 449.073835 327.720636 
L 447.931333 327.717626 
L 446.503273 328.982938 
L 446.366181 328.884578 
L 446.226586 328.778701 
L 446.055984 328.641127 
L 445.868252 328.478832 
L 445.68362 328.307389 
L 445.467005 328.090231 
L 445.342743 327.957311 
L 445.213148 327.811752 
L 445.087469 327.663439 
L 444.97162 327.520096 
L 444.847505 327.359 
L 437.495211 317.060876 
L 437.12636 316.574506 
L 436.737113 316.120199 
L 436.328896 315.699621 
L 435.903209 315.314309 
L 435.461607 314.965677 
L 435.005717 314.655001 
L 434.537197 314.383426 
L 434.057773 314.151942 
L 434.773089 301.441807 
L 432.718441 293.833573 
L 428.907766 288.587492 
L 426.952101 286.750325 
L 421.270154 281.414237 
L 420.891711 281.090852 
L 420.494943 280.813604 
L 420.082727 280.584494 
L 419.658047 280.405186 
L 419.223984 280.276978 
L 418.783683 280.200802 
L 418.340343 280.177212 
L 417.897169 280.206374 
L 417.457381 280.288075 
L 417.024162 280.421732 
L 416.600657 280.606373 
L 416.189929 280.840659 
L 415.794962 281.122886 
L 415.41862 281.451011 
L 415.06363 281.822659 
L 414.732562 282.235131 
L 414.427817 282.685437 
L 414.151604 283.170315 
L 413.905931 283.686251 
L 413.558565 284.436364 
L 413.179508 285.155923 
L 412.770122 285.842311 
L 412.331906 286.493046 
L 411.866439 287.105776 
L 411.375414 287.678264 
L 410.86061 288.208443 
L 409.904052 286.450922 
L 410.323507 286.168065 
L 412.002673 283.556115 
L 412.735386 280.578697 
L 407.368256 270.712111 
L 406.416142 268.960762 
L 406.598858 268.960651 
L 406.59942 267.804626 
L 389.177395 267.790936 
L 385.838657 267.794703 
L 385.848641 252.397764 
L 370.26589 244.16268 
L 362.779965 240.206574 
L 351.742303 237.736715 
L 351.771284 237.129431 
L 351.766047 236.520844 
L 351.72662 235.914711 
L 351.653251 235.314767 
L 351.546381 234.724717 
L 351.406683 234.148199 
L 351.235014 233.588765 
L 351.032426 233.049876 
L 350.800176 232.534846 
L 350.539696 232.046858 
L 350.252594 231.588925 
L 349.940635 231.163865 
L 349.605751 230.774309 
L 349.427911 230.591078 
L 348.706831 229.987943 
L 347.116914 229.070683 
L 344.559463 227.595262 
L 344.652945 219.185064 
L 343.998319 217.17772 
L 342.681723 216.737394 
L 341.66819 216.273691 
L 340.958158 215.967437 
L 339.735533 221.202678 
L 339.41967 222.748409 
L 339.078427 224.637717 
L 338.800427 226.625297 
L 338.680588 227.673724 
L 338.545305 229.280773 
L 338.469478 230.852233 
L 337.261483 230.699444 
L 330.871057 229.90075 
L 329.160285 229.686999 
L 327.217608 229.44458 
L 324.565473 227.017276 
L 324.564454 228.519628 
L 323.365003 228.517287 
L 320.96179 226.222884 
L 315.397084 222.068147 
L 313.36469 221.491137 
L 312.175371 222.222229 
L 311.309621 224.039872 
L 310.051405 222.663462 
L 311.231121 221.936414 
L 312.080754 220.153709 
L 311.192739 212.436353 
L 308.521971 211.499769 
L 306.176777 210.676724 
L 305.122076 212.998447 
L 304.4947 214.958318 
L 304.49601 214.376943 
L 302.343744 210.80119 
L 301.406428 210.928845 
L 300.360177 210.691914 
L 299.767739 210.181782 
L 298.433866 210.18032 
L 288.049157 210.124664 
L 286.172353 210.118211 
L 286.074698 210.167592 
L 284.420583 210.165942 
L 284.423892 208.033393 
L 283.816592 207.367865 
L 283.833468 207.045378 
L 282.881102 205.770215 
L 280.583788 203.672345 
L 280.12016 203.047913 
L 278.891976 201.841323 
L 276.654065 197.952304 
L 276.48857 197.147103 
L 275.488851 197.143553 
L 275.224769 195.124941 
L 273.803895 194.53053 
L 273.528834 196.012632 
L 273.140886 196.70333 
L 273.10518 196.757854 
L 273.063991 196.804239 
L 273.018263 196.841417 
L 272.969047 196.868556 
L 272.917461 196.885017 
L 272.86469 196.890436 
L 272.815495 196.890312 
L 272.734005 196.880701 
L 272.654724 196.85267 
L 272.579782 196.806969 
L 272.511176 196.744823 
L 272.450746 196.667883 
L 272.40011 196.57822 
L 271.999764 195.736092 
L 271.623851 194.080616 
L 271.288396 193.626807 
L 269.379437 194.246863 
L 267.527406 193.932484 
L 264.815204 192.273055 
L 264.3758 191.839187 
L 263.871239 191.804201 
L 263.370704 191.769502 
L 261.078839 188.583636 
L 256.310079 184.599332 
L 254.900286 183.277303 
L 246.031616 182.770345 
L 245.939383 186.464515 
L 245.916029 187.699547 
L 245.902577 188.934979 
L 245.889124 190.170342 
L 245.877118 191.273225 
L 245.857321 191.40518 
L 245.342292 194.838849 
L 245.321168 194.979883 
L 245.232073 196.936876 
L 244.082369 200.378363 
L 241.362238 205.189046 
L 240.096483 206.580657 
L 238.345712 210.530715 
L 237.879847 211.581844 
L 237.698378 211.991271 
L 234.636996 217.81865 
L 234.320545 217.598729 
L 233.442027 219.134702 
L 233.419019 219.453994 
L 233.389166 219.932222 
L 232.7883 228.998218 
L 232.273843 239.461163 
L 232.079289 243.430071 
L 229.917069 248.346191 
L 226.176502 249.787571 
L 224.518418 253.140643 
L 224.518633 255.896275 
L 224.519187 258.719919 
L 221.685529 258.721295 
L 218.223225 258.723081 
L 211.877721 258.726448 
L 211.880552 266.376622 
L 211.880314 266.383744 
L 207.006693 266.385446 
L 207.011995 267.033661 
L 196.68698 267.037149 
L 196.674129 257.874982 
L 182.971964 245.290513 
L 181.965551 244.984758 
L 179.678427 244.290093 
L 178.938357 240.502657 
L 172.95371 239.463712 
L 169.70714 239.618821 
L 165.856227 239.214763 
L 163.047816 238.208738 
L 162.635608 235.832504 
L 159.716402 235.27808 
L 155.800433 240.800099 
L 152.534668 241.723851 
L 142.050345 237.203372 
L 141.766273 237.350654 
L 135.646867 240.48553 
L 125.68874 244.031635 
L 111.04734 228.767747 
L 110.037297 224.878975 
L 107.472137 223.859958 
L 107.144724 223.657505 
L 101.558648 220.203552 
L 100.553423 219.582032 
L 100.550863 204.402287 
L 100.549865 197.044152 
L 100.54447 167.723594 
L 106.150258 169.216456 
L 108.343662 171.690966 
L 108.927637 172.349552 
L 110.220882 173.808338 
L 110.473684 174.093538 
L 111.84773 174.386809 
L 113.058266 174.6451 
L 114.253944 174.900296 
L 115.11267 175.083587 
L 115.705844 176.062192 
L 116.835985 177.926773 
L 117.969061 177.65652 
L 120.873709 176.963672 
L 120.845677 176.651848 
L 120.55124 173.37798 
L 120.106383 172.669879 
L 118.882864 170.722386 
L 117.841573 169.06495 
L 118.257077 168.817021 
L 117.923766 166.284215 
L 117.094146 163.744816 
L 115.505152 158.880089 
L 115.634991 158.635059 
L 116.291322 158.754401 
L 116.579608 158.793937 
L 116.825235 158.807118 
L 117.04503 158.803031 
L 117.269525 158.783343 
L 117.548336 158.736833 
L 117.852392 158.657607 
L 118.148825 158.565486 
L 118.686858 158.398294 
L 120.096058 157.96038 
L 120.096545 159.241142 
L 120.096614 159.490995 
L 120.836599 160.81401 
L 121.604838 162.187562 
L 122.347259 163.514968 
L 122.932727 164.819111 
L 123.358887 165.768385 
L 123.669636 166.206911 
L 123.77514 166.355266 
L 123.991969 166.055566 
L 124.853717 167.27065 
L 125.592343 168.312265 
L 126.331014 169.353813 
L 127.069631 170.395365 
L 127.808243 171.436919 
L 128.546852 172.478497 
L 129.459164 173.577698 
L 130.553662 174.745573 
L 131.736145 176.00735 
L 132.797072 176.848257 
L 133.72827 177.524812 
L 134.659495 178.201351 
L 135.590667 178.877895 
L 136.521885 179.554444 
L 137.318727 180.133417 
L 137.581713 180.275499 
L 138.590286 180.820388 
L 139.429531 181.273519 
L 140.268799 181.726563 
L 141.108065 182.17968 
L 141.924012 182.620222 
L 142.192593 182.765222 
L 142.693463 183.227525 
L 143.440364 183.916986 
L 144.187262 184.60638 
L 144.977158 185.335465 
L 146.003453 186.282843 
L 146.330949 185.344407 
L 146.374147 182.906887 
L 146.457424 182.872686 
L 146.537324 182.825285 
L 146.612763 182.765307 
L 146.682748 182.693579 
L 147.504211 181.743951 
L 148.893615 177.618178 
L 150.175757 176.219078 
L 150.462101 175.751621 
L 150.661422 175.400941 
L 150.841869 175.030869 
L 151.002479 174.643393 
L 151.142393 174.240572 
L 151.3613 174.610557 
L 152.51539 173.930741 
L 153.450136 173.380127 
L 153.745471 173.206203 
L 154.384897 173.003282 
L 155.319209 172.706867 
L 155.469312 172.659233 
L 155.469815 169.889585 
L 155.708046 169.697327 
L 156.172624 171.431902 
L 156.444429 171.582171 
L 157.453589 172.140098 
L 158.463211 172.698287 
L 159.417079 173.225651 
L 159.982298 174.920211 
L 160.407214 176.193986 
L 160.697112 176.382854 
L 161.838734 177.126334 
L 162.946823 177.847979 
L 163.41703 178.154197 
L 164.473906 178.345924 
L 166.200003 178.659072 
L 166.199765 177.526514 
L 164.832856 175.544933 
L 164.93726 175.441465 
L 165.02754 175.31472 
L 165.101061 175.168375 
L 165.155677 175.006701 
L 166.123239 176.407872 
L 167.247546 176.407411 
L 167.247639 177.66966 
L 167.247766 178.854822 
L 167.24777 178.92631 
L 168.959466 179.71275 
L 169.518947 179.330144 
L 169.644918 179.66328 
L 169.785366 179.984962 
L 169.939749 180.293947 
L 170.107482 180.589051 
L 170.287922 180.869165 
L 170.480389 181.133216 
L 170.684146 181.380199 
L 170.898423 181.609175 
L 173.267518 183.982535 
L 173.61644 184.380112 
L 173.927351 184.835064 
L 174.195458 185.340331 
L 174.416622 185.888109 
L 175.28821 188.400436 
L 176.425208 191.67857 
L 176.696586 193.807385 
L 176.985065 202.706537 
L 176.707852 206.830518 
L 177.01554 209.022154 
L 179.300453 209.380028 
L 180.644681 209.213019 
L 181.913996 210.035854 
L 181.921216 187.066731 
L 179.238165 186.11666 
L 177.12125 184.196625 
L 176.998819 182.278308 
L 173.518652 179.682822 
L 174.433279 177.902887 
L 176.760455 177.623522 
L 176.716095 176.928218 
L 177.099876 175.59623 
L 177.043576 174.953102 
L 176.139834 173.983773 
L 175.556031 172.08605 
L 175.6007 170.337768 
L 176.424409 167.745568 
L 176.075221 167.22423 
L 176.334757 166.916005 
L 176.613892 166.643152 
L 176.910147 166.408093 
L 177.220901 166.212899 
L 177.543409 166.059308 
L 177.874823 165.948668 
L 178.212209 165.881962 
L 178.552596 165.859769 
L 178.59015 165.859817 
L 178.67054 165.865808 
L 178.750008 165.883794 
L 178.827635 165.913569 
L 178.90253 165.954778 
L 178.992401 166.004408 
L 179.085562 166.040292 
L 179.180941 166.062026 
L 179.277444 166.069349 
L 179.277242 166.678466 
L 178.285315 168.855995 
L 178.1074 170.541745 
L 179.804995 172.062007 
L 179.989827 175.072686 
L 180.403641 178.491884 
L 181.923754 178.899678 
L 181.923915 174.852388 
L 182.38183 175.351678 
L 182.929372 175.948696 
L 182.929957 173.82009 
L 183.667761 173.818098 
L 183.668391 174.326473 
L 185.694553 175.524569 
L 187.36855 178.554863 
L 189.09696 180.465185 
L 189.748324 181.644499 
L 190.653869 184.760222 
L 192.21262 186.728121 
L 192.775032 182.535401 
L 194.394313 182.128296 
L 196.354106 182.525761 
L 198.04298 179.427465 
L 203.117396 177.18521 
L 205.540386 177.305401 
L 209.859984 175.680601 
L 210.160066 175.67185 
L 211.434944 175.632233 
L 212.310377 175.605076 
L 212.772844 175.590708 
L 213.844719 175.258489 
L 216.783904 174.758454 
L 217.109517 174.6523 
L 215.195712 168.047889 
L 214.250211 166.899252 
L 213.74951 164.439315 
L 213.653043 162.40203 
L 213.958319 160.599812 
L 213.888054 157.427108 
L 213.374931 156.897312 
L 213.275217 152.413656 
L 215.975269 147.736852 
L 218.041379 139.769006 
L 218.287297 139.608305 
L 219.058044 143.07161 
L 219.288115 148.472272 
L 220.811884 148.469109 
L 220.812989 149.532913 
L 220.005376 149.535179 
L 218.719866 150.849853 
L 217.665722 152.732506 
L 217.757173 153.790931 
L 217.757679 153.79676 
L 218.199991 153.795368 
L 218.375825 156.871042 
L 219.368338 159.796569 
L 219.052103 162.28848 
L 219.664662 163.913033 
L 220.890956 164.266731 
L 221.63679 161.284358 
L 223.172405 159.537109 
L 224.020654 158.956188 
L 224.079676 158.679402 
L 223.742069 157.886588 
L 226.63254 155.076495 
L 228.480195 154.113244 
L 228.457792 153.76974 
L 229.141731 153.768733 
L 229.958506 153.342936 
L 231.279708 152.82553 
L 231.602529 152.698967 
L 232.006596 152.543858 
L 232.414144 152.407635 
L 232.824716 152.290445 
L 233.237854 152.192421 
L 234.830683 151.996367 
L 235.927972 152.026003 
L 237.025534 152.190459 
L 238.123233 152.493703 
L 239.720145 153.199454 
L 240.608991 153.741643 
L 242.132849 153.734942 
L 241.988506 150.497443 
L 240.95976 147.64868 
L 241.895127 145.333017 
L 242.059542 142.364337 
L 241.869632 141.620915 
L 241.953272 140.883045 
L 242.48302 139.922248 
L 243.146361 136.779831 
L 243.477222 136.116329 
L 243.338715 134.190182 
L 243.587195 133.712888 
L 246.289757 131.811793 
L 246.290984 142.368796 
L 246.789265 142.369391 
L 260.538312 142.384468 
L 263.429885 142.3877 
L 263.890555 142.388213 
L 264.939781 142.389392 
L 264.939313 140.298014 
L 268.910801 140.540746 
L 269.700227 140.58906 
L 268.496973 142.955461 
L 267.078172 144.905897 
L 264.941044 147.853812 
L 264.942407 153.696051 
L 264.926544 163.272632 
L 269.957013 163.28687 
L 274.654723 159.095794 
L 271.52156 152.050397 
L 274.153219 145.969208 
L 274.230971 145.789305 
L 275.070873 143.847753 
L 275.334972 143.237265 
L 278.294505 140.180929 
L 284.316183 139.038821 
L 284.384989 138.453884 
L 284.93208 138.91296 
L 286.012825 139.157098 
L 286.589224 139.506523 
L 286.933443 140.213493 
L 288.029624 140.789618 
L 288.2606 141.015147 
L 289.212744 142.186811 
L 289.92062 143.330896 
L 290.049504 143.53041 
L 290.254766 143.817741 
L 290.472098 144.087229 
L 290.881281 144.564597 
L 291.041579 144.751647 
L 291.113624 144.850886 
L 291.173035 144.965274 
L 291.218209 145.091714 
L 291.247913 145.226788 
L 291.261348 145.366831 
L 291.258147 145.508053 
L 291.246669 145.738119 
L 291.24993 145.968698 
L 291.281649 146.305897 
L 291.344826 146.634352 
L 291.438365 146.948377 
L 291.560647 147.24252 
L 291.709546 147.511689 
L 291.771249 147.599035 
L 291.839434 147.676422 
L 291.919421 147.747611 
L 292.004882 147.805101 
L 292.094606 147.848084 
L 292.279858 147.942558 
L 292.452181 148.076469 
L 292.607302 148.246495 
L 292.741371 148.448425 
L 292.851064 148.677245 
L 292.926608 148.901262 
L 292.97871 149.137933 
L 293.006324 149.382511 
L 293.042577 149.975008 
L 293.125561 151.331061 
L 293.657557 154.282361 
L 293.835321 156.121985 
L 293.574328 159.032834 
L 294.553537 159.326684 
L 297.438554 158.037734 
L 303.064796 160.220375 
L 303.730449 156.673954 
L 303.72563 160.41704 
L 304.575528 160.419749 
L 304.570033 163.831855 
L 306.731431 168.166417 
L 311.855068 168.57254 
L 316.056859 167.172409 
L 319.155875 168.638617 
L 319.800415 167.361156 
L 320.426033 167.943684 
L 321.071179 168.483095 
L 321.73433 168.978117 
L 322.413921 169.427584 
L 323.108352 169.830426 
L 323.815971 170.185701 
L 324.535118 170.492567 
L 325.264093 170.750302 
L 339.264306 175.206717 
L 339.825436 175.40344 
L 339.820037 182.092625 
L 341.658182 182.09774 
L 344.677529 184.942141 
L 344.694751 184.958377 
L 344.697994 179.309984 
L 345.702044 181.095403 
L 347.277524 183.896399 
L 347.555527 184.390642 
L 348.245726 184.749887 
L 348.94827 181.688 
L 355.59033 188.516674 
L 359.569584 192.618307 
L 360.771537 193.676127 
L 362.446878 194.998198 
L 364.376974 196.247737 
L 365.087049 196.632069 
L 366.561817 197.424751 
L 368.145602 197.928398 
L 370.803249 198.478896 
L 370.804123 199.925549 
L 370.808062 199.92442 
L 371.736281 199.949262 
L 372.726548 199.931085 
L 373.715882 199.868262 
L 374.703245 199.76085 
L 376.41104 199.537103 
L 385.886658 198.296169 
L 405.925328 195.67143 
L 406.593959 195.606725 
L 407.264064 195.587734 
L 407.934029 195.614473 
L 408.602261 195.686874 
L 409.267162 195.804777 
L 409.927141 195.967885 
L 410.580628 196.175822 
L 411.226061 196.428085 
L 422.224111 201.135397 
L 422.661176 201.32318 
L 426.078579 202.78501 
L 427.041894 203.198241 
L 427.083652 203.215586 
L 432.559846 205.562474 
L 433.297002 205.850163 
L 434.043409 206.086849 
L 434.797256 206.271947 
L 435.55671 206.405018 
L 436.31994 206.485737 
L 437.085086 206.513916 
L 437.692545 207.350547 
L 437.690438 213.072202 
L 437.709223 213.743667 
L 437.765884 214.410972 
L 437.860076 215.069959 
L 437.9912 215.716516 
L 438.158444 216.346608 
L 438.360768 216.956319 
L 438.596904 217.54184 
L 438.86539 218.099527 
L 439.164541 218.625906 
L 439.492499 219.117689 
L 443.593983 224.800047 
L 443.85597 225.199006 
L 444.089906 225.630626 
L 444.293717 226.091063 
L 444.465589 226.576246 
L 444.604003 227.081856 
L 444.70773 227.603413 
L 444.775844 228.13628 
L 444.859653 228.86253 
L 444.974835 229.580349 
L 445.12097 230.287091 
L 445.297516 230.980167 
L 445.503833 231.657029 
L 445.739153 232.315172 
L 446.002611 232.952188 
L 446.310103 233.598782 
L 446.646514 234.21666 
L 447.010479 234.803303 
L 447.400512 235.356311 
L 447.81502 235.873444 
L 448.252315 236.352581 
L 448.710611 236.791777 
L 449.188051 237.189232 
L 449.682676 237.543341 
L 450.192475 237.852648 
L 451.327937 238.455809 
L 452.475371 239.013031 
L 453.633828 239.52384 
L 454.802346 239.987825 
L 455.979947 240.404589 
L 457.165666 240.773784 
L 458.358503 241.095117 
L 459.557479 241.368318 
L 460.761595 241.593149 
L 461.969851 241.769431 
L 462.18562 242.115636 
L 462.189202 242.723704 
L 462.227313 243.329463 
L 462.299707 243.929096 
L 462.405934 244.518811 
L 462.545321 245.094911 
L 462.716988 245.653757 
L 462.919857 246.191825 
L 463.152653 246.705731 
L 463.4139 247.192229 
L 463.701956 247.64827 
L 464.015006 248.070958 
L 464.351079 248.457648 
L 464.666016 248.819738 
L 464.959571 249.215305 
L 465.229931 249.6419 
L 465.475418 250.096884 
L 465.694508 250.577419 
L 465.885839 251.080543 
L 466.048235 251.603132 
L 466.180682 252.141937 
L 466.282362 252.693625 
L 466.399386 253.32086 
L 466.553959 253.932025 
L 466.744979 254.522766 
L 466.971074 255.088832 
L 467.230628 255.626188 
L 467.521784 256.130976 
L 467.842453 256.599588 
L 468.190342 257.028668 
L 468.562957 257.415138 
L 468.957636 257.756243 
L 469.37155 258.049528 
L 473.951894 260.961402 
L 473.13494 263.475138 
L 477.116305 273.442641 
L 479.458783 280.511582 
L 481.986648 285.13629 
L 484.386238 290.267464 
L 485.895986 292.220394 
L 487.496884 294.290198 
L 487.294546 294.900831 
L 487.131356 295.533915 
L 487.00857 296.18456 
L 486.927143 296.847733 
L 486.866752 297.826937 
L 486.862992 298.809759 
L 486.915886 299.78981 
L 487.025091 300.760731 
L 487.328465 302.697553 
L 487.684889 304.616675 
L 488.093829 306.515256 
L 488.554686 308.390496 
L 488.692359 308.868153 
L 488.852015 309.332274 
L 489.032979 309.780884 
L 489.234482 310.212071 
L 489.455663 310.624014 
L 489.695591 311.014967 
L 489.953242 311.383249 
L 490.22752 311.727318 
L 490.265602 312.179872 
L 489.786265 313.044482 
L 489.540822 313.520399 
L 489.319429 314.018789 
L 489.123135 314.537299 
L 488.952878 315.073457 
L 487.159419 321.29039 
L 486.949686 322.217728 
L 486.843234 323.178801 
L 486.842535 324.151303 
L 486.947612 325.112677 
L 487.156017 326.040598 
L 487.46292 326.913539 
L 487.861192 327.711232 
L 488.341596 328.415175 
L 488.892974 329.009024 
L 489.502539 329.478993 
L 490.156136 329.814185 
L 490.8386 330.006827 
L 491.534101 330.05243 
L 492.226484 329.94995 
L 492.899688 329.701756 
L 493.538096 329.313609 
L 498.987229 325.278876 
L 499.385696 324.956696 
L 499.765618 324.593434 
L 499.921825 324.426115 
L 501.103085 323.115126 
L 501.426534 323.163116 
L 501.7962 323.735999 
L 502.193036 324.272253 
L 502.615182 324.769371 
L 503.060664 325.225031 
L 503.5274 325.637104 
L 504.013202 326.003657 
L 504.51581 326.322982 
L 505.032865 326.593578 
L 505.561953 326.814191 
L 506.100593 326.983781 
L 506.646273 327.101554 
L 507.196443 327.166967 
L 510.899871 327.428302 
L 511.495159 327.471241 
L 514.694037 330.545622 
L 515.098656 329.724023 
L 517.578417 332.872976 
L 518.044557 333.582342 
L 518.4115 334.397456 
L 518.667244 335.291603 
L 518.803403 336.235494 
L 518.939222 337.279943 
L 519.179968 338.286818 
L 519.520752 339.235657 
L 519.954652 340.107182 
L 520.472848 340.883693 
L 521.064809 341.54941 
L 521.718518 342.090808 
L 522.420693 342.496892 
L 527.965715 345.074573 
L 528.530192 345.289737 
L 529.108145 345.417185 
L 529.69262 345.455418 
L 530.276567 345.403964 
L 530.852967 345.263448 
L 531.414872 345.035553 
L 531.955516 344.72304 
L 532.468393 344.329653 
L 532.947325 343.860149 
L 533.386542 343.320162 
L 533.780757 342.716207 
L 534.125222 342.055555 
L 534.415791 341.346163 
L 534.648957 340.596566 
L 534.821926 339.815796 
L 534.932596 339.013259 
L 536.056935 327.48208 
L 536.087821 327.164351 
L 537.062825 317.164723 
L 537.12207 316.256738 
L 537.11771 316.21851 
L 537.120195 315.91714 
L 537.102102 315.293005 
L 537.052725 314.672174 
L 536.972318 314.057706 
L 536.861267 313.452618 
L 536.74578 312.957975 
L 536.703632 312.79848 
L 536.659104 312.63678 
L 536.539861 312.253175 
L 532.784142 300.808845 
L 530.232336 294.528747 
L 530.871518 293.966524 
L 532.239662 292.76313 
L 534.208951 297.557288 
L 536.308337 302.953673 
L 537.948689 307.934205 
L 538.864317 311.407773 
L 539.089418 312.153891 
L 539.398109 313.416788 
L 539.559942 314.032641 
L 539.653308 314.443294 
L 539.820133 315.220086 
L 539.996216 315.970975 
L 540.153779 316.721876 
L 540.357672 317.666969 
L 540.533774 318.52144 
L 540.802556 319.867883 
L 540.997213 320.968355 
L 541.089918 321.589795 
L 541.230821 322.495213 
L 541.298574 322.959197 
L 541.375818 323.508539 
L 541.474599 324.316392 
L 542.177165 324.317712 
L 544.95396 357.255237 
L 545.937884 368.927979 
L 546.097641 370.823233 
L 554.898913 374.777666 
L 555.569288 371.261521 
L 556.367977 367.071585 
L 559.259596 360.163673 
L 563.4998 354.620005 
L 564.226817 353.688814 
L 571.382441 344.931265 
L 576.413834 334.275082 
L 576.575534 330.025688 
L 555.178418 328.440689 
L 555.457566 321.009595 
L 544.406356 320.186653 
L 540.49373 308.267872 
L 547.420446 306.557708 
L 564.438923 307.815862 
L 566.766212 307.988045 
L 567.22253 308.021844 
L 568.027617 308.081407 
L 575.330092 308.621737 
L 580.037262 313.230715 
L 582.166759 313.388378 
L 601.894322 299.070096 
L 609.889129 286.061489 
L 610.002519 269.043244 
L 608.743651 268.236403 
L 587.157944 254.407255 
L 577.646138 239.094128 
L 569.42158 225.916891 
L 566.486163 205.58682 
L 568.268517 189.503915 
L 570.051088 173.419093 
L 570.112731 172.862648 
L 565.459093 163.981878 
L 562.167672 154.769362 
L 561.821929 153.801397 
L 561.002644 151.508627 
L 557.432085 136.260729 
L 556.73385 134.372447 
L 555.523162 136.814971 
L 555.403549 136.753157 
L 555.278877 136.715577 
L 555.151653 136.702984 
L 554.859726 136.702931 
L 554.859124 134.114347 
L 552.267295 134.11663 
L 551.713597 135.346375 
L 551.027628 135.346544 
L 551.027301 131.243828 
L 551.0273 131.235583 
L 551.02634 118.93708 
L 551.025669 110.67532 
L 551.013112 109.697039 
L 551.32664 110.284169 
L 551.515461 110.552909 
L 551.666072 110.779281 
L 551.803982 111.023459 
L 551.951933 111.221481 
L 552.120344 111.451341 
L 552.278556 111.677642 
L 552.446916 111.907501 
L 552.572068 112.123332 
L 552.707524 112.392364 
L 552.822522 112.636681 
L 552.92227 112.866837 
L 553.022016 113.089864 
L 553.175227 113.362384 
L 553.274972 113.581921 
L 553.372221 113.829809 
L 553.459208 114.045859 
L 553.548699 114.251227 
L 553.640741 114.460092 
L 553.824455 114.711172 
L 553.97225 114.831152 
L 554.132593 114.915519 
L 554.280283 115.000035 
L 554.438178 115.105702 
L 554.618978 115.211371 
L 554.730956 115.267614 
L 554.894161 115.44777 
L 555.087973 115.677487 
L 555.207917 115.854372 
L 555.37888 116.094845 
L 555.562594 116.360092 
L 555.690191 116.558199 
L 555.850997 116.809356 
L 555.996496 117.032242 
L 556.147052 117.255058 
L 556.30026 117.50628 
L 556.438263 117.782366 
L 556.565964 118.023059 
L 556.663152 118.249649 
L 556.783354 118.518751 
L 556.895848 118.770199 
L 556.990438 118.979058 
L 557.100436 119.237557 
L 557.098509 119.489511 
L 557.053318 119.709703 
L 557.137859 119.96122 
L 557.275814 120.223134 
L 557.403455 120.424726 
L 557.569314 120.672393 
L 557.724967 120.891648 
L 557.890871 121.142806 
L 558.069374 121.365478 
L 558.227682 121.627319 
L 558.396136 121.881967 
L 558.595104 122.150712 
L 558.771158 122.401798 
L 558.957467 122.667055 
L 559.095315 122.889945 
L 559.250968 123.119877 
L 559.437276 123.392255 
L 559.613382 123.664635 
L 559.789493 123.940576 
L 559.919688 124.156418 
L 560.049878 124.372259 
L 560.220729 124.566591 
L 560.40168 124.743188 
L 560.554728 124.948274 
L 560.733331 125.199362 
L 560.896736 125.464695 
L 561.047383 125.715922 
L 561.197878 125.910328 
L 561.386533 126.122389 
L 561.554832 126.313232 
L 561.738432 126.539467 
L 561.871279 126.794264 
L 561.986322 127.042154 
L 562.172575 127.307414 
L 562.338166 127.43438 
L 562.394235 127.505089 
L 562.588088 127.759597 
L 562.738685 127.986048 
L 562.850569 128.160846 
L 563.02442 128.385617 
L 563.184753 128.445215 
L 563.352842 128.558009 
L 563.51073 128.674365 
L 563.658468 128.77306 
L 563.857116 128.910493 
L 564.03051 129.12256 
L 564.209114 129.380772 
L 564.354452 129.539786 
L 564.504742 129.663259 
L 564.700942 129.83622 
L 564.866536 129.973869 
L 565.065394 130.178735 
L 565.231092 130.358893 
L 565.389132 130.517829 
L 565.577735 130.705041 
L 565.776483 130.877934 
L 565.929324 131.012088 
L 566.079613 131.12495 
L 566.240104 131.244861 
L 566.413298 131.368199 
L 566.609393 131.505697 
L 566.767643 131.742685 
L 566.829219 131.980108 
L 566.875696 132.253138 
" style="fill:#1a1a1a;stroke:#ffffff;stroke-linejoin:miter;stroke-width:4;"/>
   </g>
  </g>
 </g>
 <defs>
  <clipPath id="pe0799b865d">
   <rect height="543.6" width="558" x="90" y="86.4"/>
  </clipPath>
 </defs>
</svg>
