<?xml version="1.0" encoding="utf-8" standalone="no"?>
<!DOCTYPE svg PUBLIC "-//W3C//DTD SVG 1.1//EN"
  "http://www.w3.org/Graphics/SVG/1.1/DTD/svg11.dtd">
<!-- Created with matplotlib (https://matplotlib.org/) -->
<svg height="720pt" version="1.1" viewBox="0 0 720 720" width="720pt" xmlns="http://www.w3.org/2000/svg" xmlns:xlink="http://www.w3.org/1999/xlink">
 <metadata>
  <rdf:RDF xmlns:cc="http://creativecommons.org/ns#" xmlns:dc="http://purl.org/dc/elements/1.1/" xmlns:rdf="http://www.w3.org/1999/02/22-rdf-syntax-ns#">
   <cc:Work>
    <dc:type rdf:resource="http://purl.org/dc/dcmitype/StillImage"/>
    <dc:date>2021-05-28T08:56:51.890911</dc:date>
    <dc:format>image/svg+xml</dc:format>
    <dc:creator>
     <cc:Agent>
      <dc:title>Matplotlib v3.3.3, https://matplotlib.org/</dc:title>
     </cc:Agent>
    </dc:creator>
   </cc:Work>
  </rdf:RDF>
 </metadata>
 <defs>
  <style type="text/css">*{stroke-linecap:butt;stroke-linejoin:round;}</style>
 </defs>
 <g id="figure_1">
  <g id="patch_1">
   <path d="M 0 720 
L 720 720 
L 720 0 
L 0 0 
z
" style="fill:none;"/>
  </g>
  <g id="axes_1">
   <g id="patch_2">
    <path clip-path="url(#pdc33a61104)" d="M 313.103922 280.802986 
L 315.126661 280.816237 
L 317.149225 280.782621 
L 318.95168 280.713279 
L 320.356784 280.619578 
L 321.854452 280.470402 
L 323.347673 280.270679 
L 324.860258 280.015918 
L 326.365596 279.709288 
L 327.862341 279.351037 
L 329.349148 278.94152 
L 329.479317 279.093071 
L 336.387309 277.469961 
L 346.040294 273.832436 
L 352.619962 270.667 
L 389.214713 252.481065 
L 397.184755 248.520585 
L 410.252747 242.285404 
L 412.076912 241.388535 
L 415.425451 239.742186 
L 421.426919 235.033765 
L 422.963789 233.730197 
L 424.006838 232.731875 
L 429.94452 225.731185 
L 439.533851 215.039431 
L 441.688522 212.979005 
L 444.460323 210.552799 
L 447.329348 208.281817 
L 450.289067 206.171218 
L 453.33275 204.225829 
L 463.206971 200.157407 
L 464.742729 199.524657 
L 467.293591 198.47368 
L 467.532931 198.365392 
L 472.172836 211.984615 
L 472.360178 212.53454 
L 511.362406 327.030149 
L 518.77801 349.322626 
L 520.453204 353.927102 
L 532.133841 383.818402 
L 536.121049 393.180433 
L 542.358872 407.827232 
L 542.701191 408.610277 
L 543.935961 411.434764 
L 547.726139 419.976081 
L 585.276688 504.605667 
L 589.275677 513.582566 
L 602.287851 542.214028 
L 610.107627 560.05109 
L 607.216889 558.777375 
L 603.169192 558.000502 
L 600.759987 557.890488 
L 597.858323 558.793894 
L 596.847936 559.425557 
L 594.896459 559.799424 
L 593.051024 560.646105 
L 591.273182 560.926581 
L 589.497388 560.945059 
L 587.67992 560.396561 
L 586.325953 558.68691 
L 585.528801 556.802949 
L 584.731682 554.918968 
L 583.309587 553.838463 
L 581.782116 553.491396 
L 581.420966 553.069011 
L 580.870289 551.082053 
L 580.228989 549.052536 
L 579.959526 547.256446 
L 579.978514 547.141173 
L 580.646672 545.372961 
L 581.306028 543.573279 
L 580.482282 541.594768 
L 579.202668 539.675878 
L 577.577794 537.649553 
L 576.270386 535.793385 
L 574.661618 534.081826 
L 573.186815 532.717639 
L 571.723023 531.091056 
L 570.050871 529.295092 
L 568.635181 527.312352 
L 566.847489 525.127421 
L 564.855657 523.465535 
L 563.039136 522.791275 
L 561.456069 521.279213 
L 559.609219 519.723436 
L 557.781506 518.041814 
L 556.491664 516.280237 
L 556.410512 516.153846 
L 555.586189 514.238249 
L 555.445945 512.191308 
L 555.222689 510.280144 
L 554.371087 508.364357 
L 552.814735 506.926194 
L 551.000897 505.863729 
L 549.322067 505.001544 
L 547.72404 504.328846 
L 545.881894 504.67216 
L 544.731128 506.436754 
L 545.136174 508.391057 
L 546.698962 508.906272 
L 548.453183 509.412086 
L 549.866715 510.429626 
L 549.974965 510.566989 
L 550.944147 512.609347 
L 550.558565 514.337686 
L 548.828083 514.345901 
L 547.019662 513.787163 
L 545.333558 512.683683 
L 543.67032 512.209897 
L 541.950339 513.319862 
L 540.581392 515.030355 
L 540.941556 516.911014 
L 542.435728 518.118066 
L 543.951565 518.832189 
L 545.721866 519.621468 
L 546.876527 521.172241 
L 547.738975 522.857281 
L 548.696784 523.903024 
L 549.522299 525.661115 
L 549.554327 527.581288 
L 549.258535 529.478041 
L 548.371886 531.234198 
L 546.959388 531.360183 
L 546.850299 531.348866 
L 545.031749 530.947389 
L 543.298389 530.074487 
L 541.735632 528.279344 
L 539.969926 526.8291 
L 538.090878 525.975935 
L 536.281465 525.574492 
L 534.444945 525.141388 
L 532.288926 524.800361 
L 530.569125 524.58843 
L 528.549971 524.227464 
L 526.669075 523.63672 
L 524.873178 522.605985 
L 522.931773 521.542647 
L 521.31832 520.439587 
L 520.728103 520.194093 
L 518.834835 520.064862 
L 516.903799 520.124155 
L 515.394345 518.486941 
L 514.846926 516.059462 
L 514.916151 513.982598 
L 514.668069 511.704151 
L 515.555874 509.780111 
L 516.40845 507.677531 
L 517.360616 505.670058 
L 517.59249 503.783266 
L 516.886523 501.868483 
L 515.323876 501.322058 
L 515.232566 501.352948 
L 513.640997 502.327558 
L 511.867343 503.311391 
L 510.195305 504.085932 
L 508.700162 505.617373 
L 507.071693 506.654699 
L 505.451638 506.527394 
L 504.688578 504.9481 
L 505.184707 503.042303 
L 505.944769 501.148755 
L 506.859675 499.256577 
L 508.266368 497.346705 
L 509.66561 495.227215 
L 510.771283 493.399278 
L 512.206488 492.633372 
L 513.443354 492.873071 
L 515.158618 492.444919 
L 516.81812 490.872849 
L 517.045156 490.635973 
L 518.048444 490.0163 
L 519.265046 489.547185 
L 521.234984 489.144527 
L 522.741493 489.009768 
L 523.494605 488.674771 
L 524.015834 488.072269 
L 524.305162 487.202301 
L 524.230097 486.480724 
L 524.099049 485.092643 
L 524.028052 483.895982 
L 524.161172 482.748342 
L 524.161082 481.31538 
L 523.706009 479.535151 
L 522.529666 477.82881 
L 520.98788 476.185398 
L 519.367008 475.517944 
L 517.781746 476.639259 
L 516.137406 478.032319 
L 514.62579 479.692038 
L 513.470302 481.472737 
L 511.92511 483.440547 
L 511.328856 484.055272 
L 509.71455 484.389627 
L 508.208798 483.528845 
L 507.662231 482.613485 
L 506.469658 480.780326 
L 505.397438 478.835141 
L 504.526505 476.84306 
L 504.318782 474.975584 
L 504.403481 473.06403 
L 504.340412 471.27427 
L 503.522622 469.368034 
L 502.058505 468.57865 
L 500.956531 469.104127 
L 499.33147 469.866865 
L 497.874396 471.528256 
L 496.273481 472.491317 
L 494.519531 472.745502 
L 492.921224 473.529963 
L 491.411531 475.063721 
L 489.68034 475.612991 
L 488.413692 477.342976 
L 488.704155 479.170868 
L 490.072491 480.830266 
L 491.513431 481.934205 
L 492.281729 483.51307 
L 492.203 484.35185 
L 491.736166 485.96418 
L 491.516247 486.470922 
L 490.639704 488.227383 
L 489.364402 490.604417 
L 488.870818 491.771049 
L 488.447907 493.656527 
L 487.668543 495.686247 
L 486.176284 496.80839 
L 484.453589 497.016222 
L 482.83544 497.89632 
L 481.28307 499.773597 
L 481.124615 501.60843 
L 481.075581 503.391643 
L 480.935924 505.142634 
L 479.902657 507.044647 
L 478.307604 508.533334 
L 478.088401 508.626168 
L 476.507023 509.443553 
L 474.888555 510.386554 
L 473.28923 511.18285 
L 471.378892 512.165789 
L 469.735006 512.825317 
L 468.027784 513.442264 
L 466.398004 514.689506 
L 464.779041 515.684883 
L 463.151286 516.638489 
L 461.527894 516.972925 
L 459.985895 516.090923 
L 458.623216 514.30801 
L 457.1188 513.258391 
L 457.020033 513.058333 
L 455.619245 511.495445 
L 454.584525 509.704445 
L 453.076152 507.909849 
L 451.501892 506.41929 
L 449.916635 505.211622 
L 448.211456 504.213254 
L 446.485982 503.518684 
L 444.756979 503.306921 
L 443.192621 503.012476 
L 441.658853 503.546787 
L 440.93648 505.283284 
L 439.878295 506.828444 
L 439.795957 506.89075 
L 438.252103 507.571977 
L 436.582291 508.04266 
L 435.212056 507.329874 
L 433.671516 506.227556 
L 434.120618 504.520615 
L 433.012654 504.072126 
L 431.408705 504.217883 
L 430.167617 505.898029 
L 428.767556 506.842639 
L 428.376553 506.756013 
L 426.768145 506.261713 
L 426.514212 506.163192 
L 425.967563 506.043056 
L 425.40638 506.020314 
L 425.406576 506.018121 
L 425.405137 506.010196 
L 425.401634 506.003184 
L 425.396428 505.997745 
L 425.390021 505.994439 
L 423.848021 505.514436 
L 421.680851 504.84245 
L 421.680259 504.842265 
L 420.09696 504.404742 
L 419.947784 503.11242 
L 419.962275 488.383397 
L 419.96815 481.421706 
L 416.43463 478.415081 
L 412.749045 475.279085 
L 409.063438 472.143107 
L 406.158799 469.671679 
L 405.413443 469.037475 
L 398.983394 466.230208 
L 386.240345 469.43557 
L 381.543879 472.915645 
L 380.067885 474.009372 
L 378.636873 475.06977 
L 368.500171 482.661189 
L 360.680424 488.517608 
L 353.406306 488.517971 
L 322.370874 488.520222 
L 321.759708 488.520276 
L 319.690357 488.542766 
L 313.95763 488.585994 
L 308.224904 488.629283 
L 303.284973 488.619324 
L 298.345042 488.609396 
L 288.465199 488.58965 
L 283.525268 488.579812 
L 278.585337 488.570004 
L 274.664938 488.562241 
L 274.669381 488.526024 
L 270.68472 488.554388 
L 268.705493 488.5505 
L 267.381266 488.549811 
L 263.057201 488.539316 
L 257.303067 488.525375 
L 203.743425 488.397667 
L 201.794932 488.393083 
L 148.253276 488.269092 
L 143.993237 488.293784 
L 142.593269 488.285043 
L 135.942805 488.243516 
L 127.892373 488.193348 
L 128.589813 155.475553 
L 128.590424 155.454941 
L 129.035564 155.497036 
L 133.950445 155.961774 
L 136.814091 156.188535 
L 139.425019 156.46593 
L 142.712972 156.91938 
L 143.173653 156.982904 
L 146.905991 157.638104 
L 148.959232 158.059063 
L 151.005685 158.521857 
L 153.044722 159.02634 
L 154.485896 159.413807 
L 155.075696 159.572389 
L 157.097943 160.159798 
L 159.11087 160.788382 
L 161.11383 161.457975 
L 163.106196 162.16833 
L 165.135722 162.938164 
L 167.152787 163.750294 
L 169.156764 164.604491 
L 171.146968 165.500446 
L 173.122754 166.437871 
L 175.083457 167.416476 
L 177.028448 168.435909 
L 178.957082 169.49584 
L 180.856896 170.588978 
L 181.50956 170.981619 
L 182.739328 171.721434 
L 184.603731 172.892818 
L 186.449531 174.102757 
L 188.675678 175.626061 
L 190.322651 176.795158 
L 192.082022 178.098815 
L 193.818303 179.442976 
L 196.262959 181.437205 
L 198.656805 183.511722 
L 200.997865 185.664831 
L 203.284218 187.894734 
L 204.45133 189.10116 
L 205.513958 190.19959 
L 207.685237 192.577477 
L 209.796239 195.026449 
L 211.845241 197.54444 
L 213.843453 200.14671 
L 215.775426 202.814649 
L 239.292051 236.501883 
L 240.651381 238.519152 
L 242.047239 240.502968 
L 243.750443 242.812805 
L 245.50319 245.072831 
L 247.304365 247.281639 
L 249.152836 249.437865 
L 251.901721 252.454374 
L 254.743145 255.35461 
L 257.673409 258.134792 
L 260.688742 260.791302 
L 263.785175 263.32069 
L 266.958688 265.719669 
L 270.205169 267.98512 
L 274.983429 270.98128 
L 276.380892 271.80961 
L 279.285002 273.403518 
L 282.340211 274.662394 
L 285.429 275.807127 
L 287.344292 276.45404 
L 289.270319 277.057036 
L 291.206328 277.615909 
L 293.151565 278.130412 
L 295.105258 278.600358 
L 297.066654 279.025563 
L 299.034962 279.405842 
L 301.009431 279.741049 
L 303.016119 280.0347 
L 305.027512 280.281792 
L 307.042804 280.482242 
L 309.061168 280.635949 
L 311.081816 280.742891 
L 313.103922 280.802986 
" style="fill:#1a1a1a;stroke:#ffffff;stroke-linejoin:miter;stroke-width:4;"/>
   </g>
  </g>
 </g>
 <defs>
  <clipPath id="pdc33a61104">
   <rect height="543.6" width="558" x="90" y="86.4"/>
  </clipPath>
 </defs>
</svg>
