<?xml version="1.0" encoding="utf-8" standalone="no"?>
<!DOCTYPE svg PUBLIC "-//W3C//DTD SVG 1.1//EN"
  "http://www.w3.org/Graphics/SVG/1.1/DTD/svg11.dtd">
<!-- Created with matplotlib (https://matplotlib.org/) -->
<svg height="720pt" version="1.1" viewBox="0 0 720 720" width="720pt" xmlns="http://www.w3.org/2000/svg" xmlns:xlink="http://www.w3.org/1999/xlink">
 <metadata>
  <rdf:RDF xmlns:cc="http://creativecommons.org/ns#" xmlns:dc="http://purl.org/dc/elements/1.1/" xmlns:rdf="http://www.w3.org/1999/02/22-rdf-syntax-ns#">
   <cc:Work>
    <dc:type rdf:resource="http://purl.org/dc/dcmitype/StillImage"/>
    <dc:date>2021-05-28T08:56:49.485562</dc:date>
    <dc:format>image/svg+xml</dc:format>
    <dc:creator>
     <cc:Agent>
      <dc:title>Matplotlib v3.3.3, https://matplotlib.org/</dc:title>
     </cc:Agent>
    </dc:creator>
   </cc:Work>
  </rdf:RDF>
 </metadata>
 <defs>
  <style type="text/css">*{stroke-linecap:butt;stroke-linejoin:round;}</style>
 </defs>
 <g id="figure_1">
  <g id="patch_1">
   <path d="M 0 720 
L 720 720 
L 720 0 
L 0 0 
z
" style="fill:none;"/>
  </g>
  <g id="axes_1">
   <g id="patch_2">
    <path clip-path="url(#p87da17e0c2)" d="M 320.543939 135.597442 
L 326.640889 130.975261 
L 330.15716 134.548607 
L 348.138276 163.403415 
L 352.264148 167.742208 
L 354.005291 169.573964 
L 370.580686 187.00754 
L 394.016126 203.813327 
L 393.705694 204.866331 
L 384.728774 235.304919 
L 375.752951 265.739878 
L 390.53553 304.212088 
L 431.953909 329.148419 
L 479.854791 358.126667 
L 588.559105 384.296663 
L 594.898687 385.823512 
L 594.327661 418.028489 
L 554.066297 442.645711 
L 454.719481 469.741335 
L 443.995462 469.442975 
L 420.290442 460.721041 
L 383.515618 459.69853 
L 379.461249 459.585816 
L 377.163258 459.521854 
L 365.443174 459.196019 
L 279.739149 456.815114 
L 244.856628 460.051393 
L 264.560373 482.60625 
L 320.213602 484.163569 
L 318.80783 498.226018 
L 426.562414 501.225437 
L 425.748102 509.266903 
L 400.410308 529.432446 
L 364.375018 546.005052 
L 360.713803 547.767219 
L 339.360392 558.257942 
L 324.798376 571.330333 
L 320.776227 579.259281 
L 317.400256 585.913162 
L 273.077586 578.429875 
L 272.273056 574.843335 
L 267.318075 552.754077 
L 253.334303 490.423781 
L 249.796222 490.421284 
L 249.298769 488.892519 
L 248.909775 487.852956 
L 248.568571 486.974921 
L 247.858994 485.261528 
L 247.392135 484.085527 
L 246.411856 482.003016 
L 245.058286 479.455035 
L 244.171449 477.838052 
L 243.144656 476.049577 
L 242.351178 474.628587 
L 241.464436 473.20762 
L 240.624312 471.737635 
L 240.154127 470.960524 
L 239.339147 469.795095 
L 237.784596 467.405215 
L 236.651001 465.993277 
L 232.039953 459.419969 
L 223.779241 449.994911 
L 213.206859 439.782904 
L 203.28964 430.710538 
L 195.406191 423.498916 
L 190.342744 418.656991 
L 185.878542 414.769572 
L 180.54339 410.482036 
L 174.881954 406.709163 
L 167.913937 402.135996 
L 160.619493 397.848802 
L 143.101313 388.78325 
L 153.569143 383.729969 
L 161.379202 383.73501 
L 208.230723 372.45774 
L 210.626534 371.728184 
L 213.197214 373.169097 
L 223.877218 379.155348 
L 227.107378 380.930439 
L 229.990495 382.445499 
L 231.403783 382.87015 
L 234.498421 383.66659 
L 238.594182 384.510755 
L 242.598906 385.370871 
L 246.451909 386.151333 
L 249.728522 386.868121 
L 253.658992 387.825788 
L 257.438887 389.433167 
L 260.731745 391.394744 
L 268.191393 397.689861 
L 280.113323 394.022661 
L 291.977198 390.202775 
L 304.843278 386.714788 
L 303.239868 384.526583 
L 337.682979 309.647933 
L 321.300632 267.024566 
L 307.775102 231.837628 
L 301.6286 215.850019 
L 301.608211 215.796951 
L 301.30958 215.020185 
L 300.399694 212.653783 
L 299.495952 210.303419 
L 297.920221 206.203332 
L 297.904699 132.818621 
L 301.3592 132.818302 
L 304.147591 130.491158 
L 317.199885 130.486838 
L 317.202916 135.385421 
L 318.673043 135.385521 
L 319.313735 135.409352 
L 319.941573 135.480468 
L 320.543939 135.597442 
" style="fill:#1a1a1a;stroke:#ffffff;stroke-linejoin:miter;stroke-width:4;"/>
   </g>
  </g>
 </g>
 <defs>
  <clipPath id="p87da17e0c2">
   <rect height="543.6" width="558" x="90" y="86.4"/>
  </clipPath>
 </defs>
</svg>
