<?xml version="1.0" encoding="utf-8" standalone="no"?>
<!DOCTYPE svg PUBLIC "-//W3C//DTD SVG 1.1//EN"
  "http://www.w3.org/Graphics/SVG/1.1/DTD/svg11.dtd">
<!-- Created with matplotlib (https://matplotlib.org/) -->
<svg height="720pt" version="1.1" viewBox="0 0 720 720" width="720pt" xmlns="http://www.w3.org/2000/svg" xmlns:xlink="http://www.w3.org/1999/xlink">
 <metadata>
  <rdf:RDF xmlns:cc="http://creativecommons.org/ns#" xmlns:dc="http://purl.org/dc/elements/1.1/" xmlns:rdf="http://www.w3.org/1999/02/22-rdf-syntax-ns#">
   <cc:Work>
    <dc:type rdf:resource="http://purl.org/dc/dcmitype/StillImage"/>
    <dc:date>2021-05-28T08:56:45.037757</dc:date>
    <dc:format>image/svg+xml</dc:format>
    <dc:creator>
     <cc:Agent>
      <dc:title>Matplotlib v3.3.3, https://matplotlib.org/</dc:title>
     </cc:Agent>
    </dc:creator>
   </cc:Work>
  </rdf:RDF>
 </metadata>
 <defs>
  <style type="text/css">*{stroke-linecap:butt;stroke-linejoin:round;}</style>
 </defs>
 <g id="figure_1">
  <g id="patch_1">
   <path d="M 0 720 
L 720 720 
L 720 0 
L 0 0 
z
" style="fill:none;"/>
  </g>
  <g id="axes_1">
   <g id="patch_2">
    <path clip-path="url(#p2e6b6ca110)" d="M 224.838421 160.214621 
L 227.203027 160.218898 
L 229.225146 160.2067 
L 231.110753 160.220568 
L 232.855369 160.232489 
L 233.880662 160.235578 
L 235.056419 160.233389 
L 236.031108 160.241484 
L 237.342621 160.232033 
L 238.615099 160.239576 
L 240.368898 160.242974 
L 242.450965 160.24917 
L 243.576477 160.250398 
L 245.58515 160.253285 
L 246.677529 160.257519 
L 247.803032 160.265341 
L 249.232178 160.259575 
L 250.241648 160.261001 
L 251.506995 160.268036 
L 252.825864 160.265596 
L 255.004041 160.265372 
L 256.276528 160.276246 
L 257.821134 160.276865 
L 259.938293 160.286205 
L 261.523014 160.286621 
L 264.064903 160.298257 
L 267.214015 160.299159 
L 271.000611 160.308627 
L 273.879308 160.316696 
L 276.436833 160.318327 
L 278.835644 160.323504 
L 279.895386 160.321562 
L 281.725731 160.334597 
L 282.615307 160.329673 
L 285.342084 160.331163 
L 286.367026 160.339197 
L 289.031525 160.344147 
L 290.338794 160.348373 
L 294.19428 160.354652 
L 295.728314 160.358314 
L 297.47423 160.361768 
L 298.340588 160.363486 
L 301.623727 160.370361 
L 304.154726 160.372506 
L 308.428226 160.381357 
L 310.985352 160.389591 
L 313.999495 160.390987 
L 318.114695 160.403446 
L 321.352162 160.40757 
L 324.844884 160.418008 
L 329.26471 160.426342 
L 335.589919 160.434758 
L 338.348545 160.44942 
L 341.593903 160.456735 
L 346.283565 160.464456 
L 347.470948 160.465649 
L 350.757605 160.469547 
L 354.718716 160.479193 
L 357.782765 160.487152 
L 362.036513 160.499236 
L 366.970548 160.507027 
L 370.624896 160.51728 
L 373.105623 160.522678 
L 374.208095 160.529791 
L 386.929649 160.550447 
L 391.53255 160.559718 
L 391.568687 160.683926 
L 394.750948 167.659113 
L 397.933144 174.634286 
L 401.527865 180.947265 
L 405.648955 187.021734 
L 409.677439 192.140245 
L 413.705912 197.258766 
L 420.027158 203.361258 
L 425.96442 208.173912 
L 431.357052 211.996503 
L 436.399607 215.19208 
L 441.208628 217.925603 
L 448.132551 221.327517 
L 456.355577 224.717276 
L 468.113516 229.077876 
L 476.29258 232.103051 
L 481.060942 234.07696 
L 486.643765 236.545015 
L 492.459839 239.409129 
L 498.741738 242.734928 
L 504.36511 246.028845 
L 511.62781 250.723985 
L 516.670302 254.434535 
L 524.534599 260.592847 
L 531.936448 267.15493 
L 536.604551 272.200381 
L 541.272639 277.245846 
L 547.527631 284.782634 
L 553.213919 292.640368 
L 556.177487 297.57443 
L 559.141004 302.50852 
L 559.725241 303.481224 
L 560.526192 305.280832 
L 560.528329 305.285716 
L 561.517225 307.552353 
L 561.519284 307.557149 
L 561.905052 308.455363 
L 561.90732 308.460623 
L 561.908806 308.464115 
L 562.488796 309.82999 
L 562.490777 309.834719 
L 563.440853 312.11363 
L 563.442731 312.11825 
L 564.373293 314.403121 
L 564.375118 314.407674 
L 564.897148 315.713621 
L 564.897513 315.714527 
L 564.897983 315.715743 
L 565.286089 316.698372 
L 565.287836 316.702859 
L 566.179215 318.999252 
L 566.180885 319.00365 
L 567.052594 321.305649 
L 567.054185 321.309937 
L 567.691096 323.029272 
L 567.691774 323.031106 
L 567.906199 323.61741 
L 567.907738 323.621632 
L 568.739977 325.934446 
L 568.741439 325.938557 
L 569.553878 328.256601 
L 569.555262 328.260624 
L 570.283846 330.393738 
L 570.28429 330.395042 
L 570.290032 330.412084 
L 570.313263 330.481005 
L 570.347875 330.583766 
L 570.349206 330.587723 
L 571.121916 332.91583 
L 571.123169 332.919676 
L 571.875949 335.25266 
L 571.87715 335.256396 
L 572.609973 337.594124 
L 572.611097 337.597771 
L 572.676915 337.81124 
L 572.677908 337.814423 
L 573.323886 339.940089 
L 573.324957 339.943648 
L 574.017712 342.290443 
L 574.018705 342.293914 
L 574.691374 344.645056 
L 574.692315 344.648438 
L 574.867619 345.273733 
L 575.344845 347.003816 
L 575.345708 347.007088 
L 575.347382 347.013366 
L 575.976061 349.359096 
L 575.978075 349.36659 
L 575.978911 349.369751 
L 576.591087 351.733224 
L 576.591846 351.736297 
L 576.854131 352.774847 
L 576.856119 352.782894 
L 577.183779 354.103629 
L 577.184512 354.106614 
L 577.756176 356.477673 
L 577.756831 356.480547 
L 577.760025 356.494254 
L 578.308201 358.855223 
L 578.308829 358.857986 
L 578.309825 358.862474 
L 578.313308 358.87795 
L 578.685015 360.532813 
L 578.68546 360.534825 
L 578.686508 360.539578 
L 578.687373 360.543558 
L 578.839617 361.235129 
L 578.839853 361.236146 
L 578.840429 361.238799 
L 578.843154 361.251467 
L 579.351106 363.620309 
L 579.35163 363.622852 
L 579.841933 366.007603 
L 579.842405 366.010035 
L 580.210111 367.869813 
L 580.213651 367.887611 
L 580.300585 368.337403 
L 580.312284 368.397872 
L 580.31273 368.400215 
L 580.762132 370.791027 
L 580.76536 370.808604 
L 581.191502 373.186937 
L 581.194417 373.203674 
L 581.58276 375.479958 
L 581.583838 375.486259 
L 581.591197 375.530502 
L 581.600317 375.585446 
L 581.602945 375.601365 
L 581.988576 377.986422 
L 581.990944 378.001523 
L 582.35628 380.389775 
L 582.358386 380.404059 
L 582.703376 382.795353 
L 582.705247 382.808796 
L 582.748438 383.118774 
L 582.749229 383.124545 
L 583.029865 385.203021 
L 583.0315 385.215646 
L 583.335719 387.612669 
L 583.337146 387.624454 
L 583.62094 390.024164 
L 583.622157 390.03511 
L 583.70123 390.737329 
L 583.704457 390.766008 
L 583.70459 390.76718 
L 583.885474 392.437353 
L 583.886534 392.44748 
L 584.129348 394.852145 
L 584.130224 394.861432 
L 584.352536 397.268387 
L 584.353255 397.276834 
L 584.452423 398.430193 
L 584.45277 398.434572 
L 584.553012 399.66151 
L 584.555011 399.685945 
L 584.555598 399.693552 
L 584.736774 402.10471 
L 584.737255 402.111477 
L 584.897823 404.524526 
L 584.8982 404.530475 
L 584.991862 406.105978 
L 584.992511 406.117853 
L 585.037187 406.927459 
L 585.03816 406.945305 
L 585.038405 406.950392 
L 585.038487 406.952028 
L 585.157732 409.366892 
L 585.157923 409.371138 
L 585.252063 411.666173 
L 585.420578 417.901244 
L 585.453358 419.979971 
L 585.47696 422.058802 
L 585.49294 424.137689 
L 585.502776 426.216609 
L 585.508049 428.295536 
L 585.510288 430.374468 
L 585.517899 432.708747 
L 585.521674 490.660812 
L 585.521675 490.672954 
L 585.522151 491.068637 
L 585.52216 491.072928 
L 585.522162 491.073569 
L 585.53698 493.051277 
L 585.537008 493.052471 
L 585.572563 495.029393 
L 585.572595 495.031914 
L 585.628858 497.007188 
L 585.628971 497.010948 
L 585.705891 498.984463 
L 585.70611 498.989505 
L 585.80366 500.961062 
L 585.803985 500.967298 
L 585.92214 502.936853 
L 585.922624 502.944328 
L 586.061356 504.911659 
L 586.061997 504.92035 
L 586.211646 506.773632 
L 586.211752 506.774893 
L 586.213562 506.7959 
L 586.221255 506.885304 
L 586.222081 506.895255 
L 586.222745 506.902397 
L 586.401837 508.857654 
L 586.402899 508.868821 
L 586.603076 510.828555 
L 586.6044 510.84096 
L 586.606253 510.857655 
L 586.824998 512.797852 
L 586.826584 512.811451 
L 586.853457 513.038033 
L 586.854011 513.042433 
L 586.854328 513.045242 
L 586.872915 513.195005 
L 587.067549 514.765368 
L 587.069448 514.780183 
L 587.237858 516.054959 
L 587.238806 516.061858 
L 587.29987 516.506872 
L 587.330755 516.731103 
L 587.332732 516.745498 
L 587.332943 516.746979 
L 587.333048 516.747775 
L 587.615802 518.703106 
L 587.616803 518.710093 
L 587.61704 518.711663 
L 587.618408 518.720618 
L 587.619487 518.727781 
L 587.62225 518.746111 
L 587.704531 519.28911 
L 587.705005 519.292139 
L 587.710186 519.325327 
L 587.921477 520.672443 
L 587.921766 520.674123 
L 588.182708 522.256143 
L 588.183575 522.261295 
L 588.187489 522.284489 
L 588.243416 522.612759 
L 588.245124 522.622775 
L 588.246753 522.632393 
L 588.247042 522.634161 
L 588.592552 524.589788 
L 588.592894 524.591645 
L 588.958744 526.543699 
L 588.958876 526.544451 
L 588.959243 526.546397 
L 589.34567 528.496228 
L 589.346089 528.498284 
L 589.752935 530.444986 
L 589.753432 530.447175 
L 589.753616 530.448037 
L 590.169516 532.341181 
L 590.181456 532.394152 
L 590.209627 532.518135 
L 590.393491 533.324462 
L 590.395297 533.332443 
L 590.396606 533.338213 
L 590.69056 534.593831 
L 590.690743 534.594561 
L 590.691476 534.597523 
L 592.229874 540.631581 
L 592.249776 540.709619 
L 592.250116 540.710857 
L 592.250534 540.712449 
L 592.283011 540.826029 
L 593.594125 545.411462 
L 515.871805 543.333938 
L 515.800799 543.332044 
L 512.157622 543.237016 
L 512.155003 543.236954 
L 512.146526 543.236747 
L 512.136597 543.236498 
L 510.845879 543.203883 
L 508.10657 543.136513 
L 504.84493 543.059568 
L 504.834794 543.05932 
L 504.82274 543.059031 
L 504.807756 543.05868 
L 504.535091 543.052417 
L 499.57036 542.942532 
L 499.48266 542.940624 
L 499.438098 542.939682 
L 499.420962 542.939313 
L 497.491863 542.898877 
L 497.478331 542.89859 
L 495.752345 542.863496 
L 495.680692 542.862047 
L 492.067405 542.791785 
L 492.053407 542.791521 
L 490.160481 542.756429 
L 490.154571 542.756328 
L 490.148401 542.756228 
L 490.09531 542.755279 
L 488.63274 542.729057 
L 488.350357 542.724007 
L 488.332807 542.723705 
L 486.603074 542.693737 
L 486.531811 542.692509 
L 482.828646 542.631732 
L 482.818044 542.631573 
L 482.657838 542.629081 
L 481.41425 542.609813 
L 481.19227 542.606365 
L 481.020606 542.603716 
L 477.432971 542.551314 
L 477.20267 542.548124 
L 475.496437 542.524785 
L 475.487286 542.524667 
L 473.748807 542.501938 
L 473.675704 542.500979 
L 468.242063 542.436449 
L 468.167171 542.435582 
L 468.163905 542.435543 
L 468.156206 542.435468 
L 466.407575 542.416833 
L 466.336572 542.41607 
L 462.704078 542.380609 
L 462.68925 542.38048 
L 460.831076 542.36403 
L 460.827966 542.364013 
L 460.824855 542.363996 
L 460.640363 542.362455 
L 460.563346 542.361814 
L 459.202685 542.350616 
L 459.174377 542.350377 
L 459.003028 542.34899 
L 458.822813 542.347575 
L 458.691177 542.34654 
L 457.357971 542.336402 
L 457.176123 542.335034 
L 453.498056 542.310267 
L 453.496138 542.31027 
L 453.493286 542.310253 
L 453.488827 542.310216 
L 446.164895 542.274231 
L 446.163236 542.274234 
L 446.161214 542.274237 
L 441.262881 542.260054 
L 441.261818 542.260056 
L 438.83162 542.255945 
L 438.829806 542.255948 
L 438.667506 542.255787 
L 437.202194 542.254343 
L 437.002229 542.254159 
L 436.997822 542.254145 
L 434.986329 542.253494 
L 434.82416 542.253444 
L 434.79816 542.253467 
L 431.500798 542.255383 
L 431.498154 542.255387 
L 431.314418 542.255618 
L 427.598708 542.262315 
L 426.171851 542.266123 
L 425.919603 542.266849 
L 424.166156 542.272554 
L 424.16512 542.272556 
L 418.065881 542.300345 
L 416.83446 542.307448 
L 416.832076 542.307452 
L 409.504752 542.360044 
L 409.502885 542.360069 
L 409.498867 542.360098 
L 409.315756 542.361679 
L 409.105194 542.363507 
L 407.916527 542.373815 
L 407.849701 542.374397 
L 407.637298 542.376295 
L 407.600982 542.376646 
L 406.38782 542.387794 
L 402.171535 542.430417 
L 402.16604 542.430471 
L 402.084568 542.431366 
L 400.33271 542.450829 
L 400.320527 542.450983 
L 400.317753 542.45101 
L 394.870349 542.518108 
L 394.867627 542.518113 
L 394.840436 542.518492 
L 394.834966 542.518546 
L 394.833463 542.518571 
L 394.491741 542.523175 
L 392.990138 542.543511 
L 392.97373 542.543761 
L 389.008202 542.601216 
L 387.50964 542.624295 
L 387.501241 542.62442 
L 387.487244 542.624644 
L 386.852095 542.634743 
L 385.699454 542.653166 
L 385.643386 542.654061 
L 385.618942 542.65448 
L 385.526248 542.656015 
L 383.685997 542.686622 
L 383.648204 542.687264 
L 383.111375 542.696307 
L 382.818129 542.701381 
L 380.179251 542.747801 
L 380.176866 542.74785 
L 380.169375 542.747996 
L 379.912004 542.752697 
L 378.448421 542.779615 
L 378.318815 542.781989 
L 378.308162 542.782185 
L 372.849296 542.889057 
L 372.845615 542.88913 
L 372.837968 542.889276 
L 370.98869 542.927721 
L 370.971997 542.928083 
L 370.86077 542.930492 
L 365.797983 543.041838 
L 365.519853 543.048039 
L 365.507048 543.048327 
L 361.951495 543.131839 
L 361.772694 543.136182 
L 359.923925 543.181341 
L 359.84847 543.183222 
L 358.190947 543.224725 
L 358.176691 543.225082 
L 358.071038 543.22777 
L 356.834831 543.259389 
L 356.733326 543.261981 
L 350.862684 543.419138 
L 350.84695 543.419564 
L 348.852785 543.475545 
L 348.831141 543.476159 
L 348.678548 543.480524 
L 346.672903 543.538253 
L 343.535088 543.631255 
L 343.522439 543.631631 
L 343.514689 543.631866 
L 343.246569 543.639977 
L 342.18394 543.672336 
L 340.604229 543.721082 
L 340.540336 543.723055 
L 326.944735 544.328677 
L 309.906211 544.96525 
L 294.22326 545.520515 
L 293.496745 545.554396 
L 292.265767 545.612131 
L 292.238422 545.61342 
L 290.822434 545.680496 
L 290.329323 545.704021 
L 288.432902 545.795199 
L 288.409005 545.796348 
L 284.945707 545.965921 
L 284.917274 545.967322 
L 282.822194 546.071896 
L 282.757137 546.075156 
L 279.239402 546.254064 
L 279.152677 546.258536 
L 277.896392 546.323495 
L 277.626863 546.337436 
L 277.596615 546.338995 
L 276.561756 546.392978 
L 272.946535 546.584309 
L 270.30926 546.726631 
L 270.277562 546.728348 
L 266.617108 546.92973 
L 266.137978 546.956444 
L 263.100436 547.127449 
L 262.993004 547.133508 
L 262.959854 547.135382 
L 262.872405 547.140365 
L 262.752688 547.147198 
L 261.56368 547.215076 
L 260.869405 547.255127 
L 260.424412 547.28094 
L 258.556865 547.388886 
L 258.515706 547.391307 
L 255.834329 547.548929 
L 255.726561 547.555254 
L 255.678093 547.558086 
L 255.643518 547.560119 
L 254.902412 547.604129 
L 249.779062 547.913418 
L 248.364659 548.000346 
L 248.328633 548.002558 
L 246.42166 548.120832 
L 246.071585 548.142691 
L 243.692676 548.292187 
L 242.255267 548.383608 
L 241.052727 548.460285 
L 241.01525 548.462677 
L 239.689265 548.548011 
L 239.677032 548.548808 
L 239.484177 548.561264 
L 239.406579 548.566296 
L 237.33336 548.701101 
L 237.215252 548.708774 
L 237.172048 548.711597 
L 233.74235 548.937883 
L 233.703448 548.940477 
L 230.673749 549.143665 
L 228.804804 549.270537 
L 227.601528 549.352843 
L 226.43358 549.433183 
L 226.393252 549.435956 
L 222.55946 549.702919 
L 222.536368 549.704555 
L 221.775147 549.75815 
L 219.326706 549.931921 
L 219.126494 549.94614 
L 219.084716 549.949116 
L 218.020498 550.02533 
L 216.770895 550.115295 
L 212.943308 550.394125 
L 211.821146 550.476777 
L 211.777942 550.479955 
L 210.72695 550.557786 
L 210.674856 550.561688 
L 206.039458 550.909351 
L 205.966139 550.914907 
L 204.58085 551.020242 
L 204.517587 551.02505 
L 204.472957 551.028451 
L 204.462798 551.029222 
L 203.465306 551.105631 
L 202.322318 551.19335 
L 202.308582 551.194394 
L 197.34921 551.580511 
L 197.215895 551.591002 
L 197.16984 551.594628 
L 197.159837 551.59542 
L 197.117074 551.598796 
L 195.23264 551.747788 
L 193.461985 551.888937 
L 193.322035 551.900105 
L 193.299332 551.901917 
L 192.401216 551.974053 
L 191.205603 552.070395 
L 189.916122 552.174611 
L 189.868643 552.178439 
L 189.382344 552.217951 
L 189.157751 552.236378 
L 187.701474 552.355177 
L 187.47517 552.373719 
L 184.076949 552.654239 
L 183.778573 552.679088 
L 182.618295 552.775834 
L 182.569365 552.779929 
L 180.076858 552.989408 
L 175.322518 553.394735 
L 175.272163 553.399055 
L 174.206048 553.491005 
L 168.028817 554.031249 
L 167.977036 554.035837 
L 167.444696 554.08303 
L 165.102877 554.291604 
L 160.73727 554.685419 
L 160.681188 554.690502 
L 156.865324 555.040086 
L 156.798151 555.04623 
L 155.861039 555.132816 
L 145.950473 556.050296 
L 144.405875 556.1933 
L 144.448138 556.118665 
L 156.272113 533.212549 
L 157.648622 530.545936 
L 161.193386 523.679049 
L 166.722998 512.967284 
L 175.926555 494.260265 
L 176.982107 492.114788 
L 184.518525 473.984841 
L 187.317713 466.309283 
L 190.090786 458.705393 
L 190.306438 457.982179 
L 195.804819 439.543773 
L 199.708594 424.138131 
L 199.999236 421.713058 
L 201.787245 406.794962 
L 203.118933 393.852717 
L 202.941143 383.76004 
L 202.468687 379.576828 
L 202.39348 377.88423 
L 201.997484 374.696397 
L 201.5711 371.037367 
L 201.356867 368.801212 
L 201.260236 368.268523 
L 200.296845 358.403135 
L 197.518909 342.194159 
L 194.563853 324.952182 
L 194.440983 324.032175 
L 193.842494 319.490899 
L 193.812797 319.287109 
L 192.117825 305.953546 
L 190.727493 295.016489 
L 187.266258 269.7119 
L 187.170843 269.014333 
L 186.037778 262.250543 
L 185.571084 259.229121 
L 184.853745 254.747524 
L 184.37818 252.086128 
L 183.529686 247.426346 
L 182.763193 243.799705 
L 181.943637 240.210409 
L 181.811609 239.415224 
L 180.965445 235.647567 
L 180.758838 234.810613 
L 180.483252 233.473983 
L 180.367046 232.910414 
L 179.358702 229.12942 
L 179.277406 228.798692 
L 178.036454 223.700428 
L 176.744067 218.689932 
L 175.190465 213.326979 
L 173.689722 208.431156 
L 172.426072 204.449327 
L 171.610213 201.801676 
L 170.635284 198.792595 
L 170.107909 197.242891 
L 169.530152 195.545215 
L 169.512957 195.494269 
L 168.424435 192.036732 
L 168.30915 191.670572 
L 164.292143 181.679532 
L 161.202331 173.99468 
L 168.045652 171.927694 
L 171.880909 170.786671 
L 174.263966 170.060287 
L 177.354524 169.116046 
L 179.961723 168.345764 
L 184.79125 166.888261 
L 187.082742 166.214265 
L 191.638801 164.949358 
L 194.09347 164.30983 
L 197.194256 163.557777 
L 200.464093 162.847167 
L 203.921622 162.216383 
L 206.081393 161.838357 
L 209.099503 161.398898 
L 211.300309 161.125147 
L 213.796725 160.859559 
L 216.173509 160.639184 
L 218.344037 160.47858 
L 220.331216 160.361803 
L 222.677792 160.262139 
L 224.838421 160.214621 
" style="fill:#1a1a1a;stroke:#ffffff;stroke-linejoin:miter;stroke-width:4;"/>
   </g>
  </g>
 </g>
 <defs>
  <clipPath id="p2e6b6ca110">
   <rect height="543.6" width="558" x="90" y="86.4"/>
  </clipPath>
 </defs>
</svg>
