<?xml version="1.0" encoding="utf-8" standalone="no"?>
<!DOCTYPE svg PUBLIC "-//W3C//DTD SVG 1.1//EN"
  "http://www.w3.org/Graphics/SVG/1.1/DTD/svg11.dtd">
<!-- Created with matplotlib (https://matplotlib.org/) -->
<svg height="720pt" version="1.1" viewBox="0 0 720 720" width="720pt" xmlns="http://www.w3.org/2000/svg" xmlns:xlink="http://www.w3.org/1999/xlink">
 <metadata>
  <rdf:RDF xmlns:cc="http://creativecommons.org/ns#" xmlns:dc="http://purl.org/dc/elements/1.1/" xmlns:rdf="http://www.w3.org/1999/02/22-rdf-syntax-ns#">
   <cc:Work>
    <dc:type rdf:resource="http://purl.org/dc/dcmitype/StillImage"/>
    <dc:date>2021-05-28T08:56:50.330703</dc:date>
    <dc:format>image/svg+xml</dc:format>
    <dc:creator>
     <cc:Agent>
      <dc:title>Matplotlib v3.3.3, https://matplotlib.org/</dc:title>
     </cc:Agent>
    </dc:creator>
   </cc:Work>
  </rdf:RDF>
 </metadata>
 <defs>
  <style type="text/css">*{stroke-linecap:butt;stroke-linejoin:round;}</style>
 </defs>
 <g id="figure_1">
  <g id="patch_1">
   <path d="M 0 720 
L 720 720 
L 720 0 
L 0 0 
z
" style="fill:none;"/>
  </g>
  <g id="axes_1">
   <g id="patch_2">
    <path clip-path="url(#p3ce1ce7459)" d="M 347.679326 140.516908 
L 347.654704 399.998457 
L 552.232392 399.542347 
L 552.353572 432.070455 
L 552.383838 464.307625 
L 552.340416 471.290997 
L 552.393276 474.350884 
L 552.481989 477.830835 
L 554.396772 481.077217 
L 557.938787 487.606578 
L 561.793314 493.536837 
L 568.913566 504.491777 
L 573.892255 513.057172 
L 580.953204 525.205247 
L 585.268295 535.68017 
L 588.858244 544.395011 
L 592.356662 556.133824 
L 594.434054 565.737804 
L 595.277394 576.514199 
L 595.271312 576.513658 
L 532.583826 571.361331 
L 348.666889 558.003704 
L 336.601979 557.058174 
L 323.669559 556.368694 
L 319.225774 556.158435 
L 310.533367 555.844366 
L 301.831889 555.658461 
L 293.125967 555.600814 
L 284.420306 555.671453 
L 275.719534 555.870342 
L 267.028279 556.197381 
L 258.351219 556.652375 
L 249.692958 557.235112 
L 241.058122 557.945251 
L 232.451315 558.782435 
L 223.877164 559.746213 
L 215.34022 560.836067 
L 206.84506 562.051399 
L 198.39621 563.391582 
L 189.998197 564.855889 
L 183.847536 566.013404 
L 158.173662 509.218206 
L 152.160618 495.229431 
L 148.049109 480.945151 
L 145.227446 466.492582 
L 143.403148 457.904947 
L 142.722606 446.278749 
L 142.858786 432.347497 
L 143.670494 417.347536 
L 143.33353 412.320508 
L 143.12038 407.290718 
L 143.031049 402.259433 
L 143.067116 400.475303 
L 143.071685 395.662951 
L 143.120539 140.043179 
L 143.124788 140.043175 
L 347.671697 139.885801 
L 347.679326 140.516908 
" style="fill:#1a1a1a;stroke:#ffffff;stroke-linejoin:miter;stroke-width:4;"/>
   </g>
  </g>
 </g>
 <defs>
  <clipPath id="p3ce1ce7459">
   <rect height="543.6" width="558" x="90" y="86.4"/>
  </clipPath>
 </defs>
</svg>
