<?xml version="1.0" encoding="utf-8" standalone="no"?>
<!DOCTYPE svg PUBLIC "-//W3C//DTD SVG 1.1//EN"
  "http://www.w3.org/Graphics/SVG/1.1/DTD/svg11.dtd">
<!-- Created with matplotlib (https://matplotlib.org/) -->
<svg height="720pt" version="1.1" viewBox="0 0 720 720" width="720pt" xmlns="http://www.w3.org/2000/svg" xmlns:xlink="http://www.w3.org/1999/xlink">
 <metadata>
  <rdf:RDF xmlns:cc="http://creativecommons.org/ns#" xmlns:dc="http://purl.org/dc/elements/1.1/" xmlns:rdf="http://www.w3.org/1999/02/22-rdf-syntax-ns#">
   <cc:Work>
    <dc:type rdf:resource="http://purl.org/dc/dcmitype/StillImage"/>
    <dc:date>2021-05-28T08:56:49.739880</dc:date>
    <dc:format>image/svg+xml</dc:format>
    <dc:creator>
     <cc:Agent>
      <dc:title>Matplotlib v3.3.3, https://matplotlib.org/</dc:title>
     </cc:Agent>
    </dc:creator>
   </cc:Work>
  </rdf:RDF>
 </metadata>
 <defs>
  <style type="text/css">*{stroke-linecap:butt;stroke-linejoin:round;}</style>
 </defs>
 <g id="figure_1">
  <g id="patch_1">
   <path d="M 0 720 
L 720 720 
L 720 0 
L 0 0 
z
" style="fill:none;"/>
  </g>
  <g id="axes_1">
   <g id="patch_2">
    <path clip-path="url(#p9ff7d552f8)" d="M 423.980369 170.891131 
L 430.102315 171.345999 
L 436.074457 171.223879 
L 440.801914 170.525946 
L 445.777975 169.539177 
L 450.256003 168.091193 
L 457.121817 165.255328 
L 474.171155 157.416634 
L 507.300085 254.413192 
L 531.213608 323.716523 
L 539.933177 350.013142 
L 582.514289 472.140483 
L 615.601352 570.27933 
L 515.205343 570.573776 
L 498.833251 570.498108 
L 498.288478 568.73181 
L 456.622613 433.159734 
L 454.913747 427.069874 
L 453.320183 421.046602 
L 451.877847 415.180164 
L 450.510317 409.133305 
L 448.188436 397.466767 
L 446.286718 385.996447 
L 444.98551 376.368773 
L 444.44179 371.714209 
L 443.917502 366.666229 
L 443.446893 360.672943 
L 428.087377 364.861317 
L 415.987736 367.462775 
L 401.990861 369.779126 
L 387.601073 371.521173 
L 378.459799 372.05321 
L 353.472754 372.590058 
L 338.525351 372.01038 
L 321.171175 369.838589 
L 306.393584 367.264989 
L 288.006829 363.499876 
L 273.342824 359.282733 
L 259.069855 354.439647 
L 235.795795 345.218927 
L 191.52818 326.225959 
L 183.941703 323.37115 
L 175.209508 321.132279 
L 168.154294 320.324 
L 134.400789 319.95954 
L 134.090046 273.782702 
L 134.023932 269.326222 
L 133.646901 265.485276 
L 132.89668 261.116675 
L 132.105593 257.228347 
L 131.315613 254.300383 
L 128.611647 246.901411 
L 125.077561 237.182146 
L 124.151973 234.01389 
L 123.258841 230.46371 
L 122.66178 226.683914 
L 122.493769 223.781803 
L 122.424825 221.146851 
L 122.398648 208.972721 
L 122.43157 181.840344 
L 122.479112 145.826224 
L 156.128922 145.846692 
L 203.982899 145.875211 
L 309.351769 146.022094 
L 330.655714 146.043454 
L 335.127119 146.461089 
L 339.096911 147.143939 
L 343.203973 148.249952 
L 347.676683 150.096291 
L 351.967175 152.260347 
L 357.176962 155.129542 
L 363.897448 158.779449 
L 369.448516 161.143715 
L 374.648692 163.03426 
L 379.380889 164.180196 
L 405.165355 168.084328 
L 423.980369 170.891131 
" style="fill:#1a1a1a;stroke:#ffffff;stroke-linejoin:miter;stroke-width:4;"/>
   </g>
  </g>
 </g>
 <defs>
  <clipPath id="p9ff7d552f8">
   <rect height="543.6" width="558" x="90" y="86.4"/>
  </clipPath>
 </defs>
</svg>
