<?xml version="1.0" encoding="utf-8" standalone="no"?>
<!DOCTYPE svg PUBLIC "-//W3C//DTD SVG 1.1//EN"
  "http://www.w3.org/Graphics/SVG/1.1/DTD/svg11.dtd">
<!-- Created with matplotlib (https://matplotlib.org/) -->
<svg height="720pt" version="1.1" viewBox="0 0 720 720" width="720pt" xmlns="http://www.w3.org/2000/svg" xmlns:xlink="http://www.w3.org/1999/xlink">
 <metadata>
  <rdf:RDF xmlns:cc="http://creativecommons.org/ns#" xmlns:dc="http://purl.org/dc/elements/1.1/" xmlns:rdf="http://www.w3.org/1999/02/22-rdf-syntax-ns#">
   <cc:Work>
    <dc:type rdf:resource="http://purl.org/dc/dcmitype/StillImage"/>
    <dc:date>2021-05-28T08:56:45.702652</dc:date>
    <dc:format>image/svg+xml</dc:format>
    <dc:creator>
     <cc:Agent>
      <dc:title>Matplotlib v3.3.3, https://matplotlib.org/</dc:title>
     </cc:Agent>
    </dc:creator>
   </cc:Work>
  </rdf:RDF>
 </metadata>
 <defs>
  <style type="text/css">*{stroke-linecap:butt;stroke-linejoin:round;}</style>
 </defs>
 <g id="figure_1">
  <g id="patch_1">
   <path d="M 0 720 
L 720 720 
L 720 0 
L 0 0 
z
" style="fill:none;"/>
  </g>
  <g id="axes_1">
   <g id="patch_2">
    <path clip-path="url(#pf7f35e08d6)" d="M 347.152115 270.126016 
L 350.826184 270.36609 
L 353.122222 270.313395 
L 354.956894 269.571415 
L 358.137346 270.349919 
L 391.019611 271.921466 
L 408.5386 272.77644 
L 415.744855 272.901974 
L 441.437577 274.132161 
L 441.005826 284.49343 
L 457.332213 300.017664 
L 471.495068 316.84571 
L 476.382797 317.096415 
L 479.50296 318.767657 
L 478.655303 339.080691 
L 474.940514 342.275397 
L 474.669063 342.576115 
L 474.356627 342.840222 
L 474.014007 343.056675 
L 473.598199 343.239207 
L 473.132911 343.356603 
L 472.732862 343.391803 
L 472.322848 343.367302 
L 471.887293 343.27222 
L 471.513543 343.12881 
L 471.155206 342.928966 
L 470.765374 342.624024 
L 470.375988 342.186764 
L 467.208995 337.859756 
L 461.093331 342.978602 
L 470.676686 356.070166 
L 474.821848 361.578908 
L 474.596301 366.936783 
L 482.264926 367.300838 
L 522.609883 412.482542 
L 542.615644 431.449251 
L 559.772186 447.564902 
L 562.149649 452.664847 
L 564.341639 458.610258 
L 565.148402 462.042051 
L 565.80411 465.364127 
L 566.152221 467.90715 
L 566.423986 470.696417 
L 566.619146 473.526843 
L 566.750474 486.446292 
L 566.578624 488.970939 
L 566.165959 491.062141 
L 561.538071 491.062496 
L 548.246554 491.06352 
L 542.78737 491.065658 
L 524.457826 491.072938 
L 505.379083 491.08071 
L 498.276455 491.08365 
L 486.670712 491.088462 
L 451.087634 491.15915 
L 433.08476 491.204421 
L 415.041161 491.290233 
L 397.071712 491.146864 
L 379.083762 491.00353 
L 359.10439 491.173463 
L 339.520369 491.22377 
L 330.843425 491.598499 
L 278.54284 491.76674 
L 259.339943 492.184172 
L 225.716379 491.056995 
L 171.249526 491.153854 
L 203.690465 343.11156 
L 209.314117 310.865086 
L 210.450952 290.05812 
L 209.455375 273.415599 
L 207.296943 259.271614 
L 204.482902 246.602156 
L 235.382345 227.152876 
L 239.61371 224.328377 
L 290.139357 224.215828 
L 290.004268 229.449439 
L 290.284342 232.742233 
L 290.656867 236.47722 
L 291.349446 239.179509 
L 292.45524 241.831961 
L 293.69788 243.796096 
L 294.687124 245.17082 
L 297.542572 248.730838 
L 300.393502 251.429731 
L 304.806762 254.863458 
L 308.437613 257.020427 
L 313.813724 259.371327 
L 324.039413 262.842006 
L 336.602022 267.347575 
L 342.512519 269.051873 
L 347.152115 270.126016 
" style="fill:#1a1a1a;stroke:#ffffff;stroke-linejoin:miter;stroke-width:4;"/>
   </g>
  </g>
 </g>
 <defs>
  <clipPath id="pf7f35e08d6">
   <rect height="543.6" width="558" x="90" y="86.4"/>
  </clipPath>
 </defs>
</svg>
