<?xml version="1.0" encoding="utf-8" standalone="no"?>
<!DOCTYPE svg PUBLIC "-//W3C//DTD SVG 1.1//EN"
  "http://www.w3.org/Graphics/SVG/1.1/DTD/svg11.dtd">
<!-- Created with matplotlib (https://matplotlib.org/) -->
<svg height="720pt" version="1.1" viewBox="0 0 720 720" width="720pt" xmlns="http://www.w3.org/2000/svg" xmlns:xlink="http://www.w3.org/1999/xlink">
 <metadata>
  <rdf:RDF xmlns:cc="http://creativecommons.org/ns#" xmlns:dc="http://purl.org/dc/elements/1.1/" xmlns:rdf="http://www.w3.org/1999/02/22-rdf-syntax-ns#">
   <cc:Work>
    <dc:type rdf:resource="http://purl.org/dc/dcmitype/StillImage"/>
    <dc:date>2021-05-28T08:56:47.169914</dc:date>
    <dc:format>image/svg+xml</dc:format>
    <dc:creator>
     <cc:Agent>
      <dc:title>Matplotlib v3.3.3, https://matplotlib.org/</dc:title>
     </cc:Agent>
    </dc:creator>
   </cc:Work>
  </rdf:RDF>
 </metadata>
 <defs>
  <style type="text/css">*{stroke-linecap:butt;stroke-linejoin:round;}</style>
 </defs>
 <g id="figure_1">
  <g id="patch_1">
   <path d="M 0 720 
L 720 720 
L 720 0 
L 0 0 
z
" style="fill:none;"/>
  </g>
  <g id="axes_1">
   <g id="patch_2">
    <path clip-path="url(#p6caf84a6a3)" d="M 326.541289 164.678867 
L 326.653846 164.678623 
L 326.655466 164.678618 
L 328.675431 164.676586 
L 328.691359 164.676562 
L 328.790704 164.676615 
L 330.022945 164.677305 
L 330.025645 164.67732 
L 330.148144 164.677516 
L 331.045795 164.679047 
L 331.14522 164.679218 
L 331.146331 164.679215 
L 332.635071 164.683575 
L 332.635722 164.683573 
L 335.636444 164.698615 
L 335.637683 164.698611 
L 335.638699 164.698608 
L 340.125344 164.736772 
L 340.128075 164.736811 
L 340.129822 164.736829 
L 340.130997 164.736826 
L 342.384183 164.763093 
L 342.495583 164.764544 
L 343.312306 164.775296 
L 343.392946 164.776393 
L 343.503346 164.777895 
L 343.608315 164.779365 
L 343.625656 164.779618 
L 344.459197 164.791495 
L 344.506378 164.792175 
L 344.619398 164.79381 
L 344.621304 164.793827 
L 344.623209 164.793845 
L 345.761527 164.811291 
L 345.770611 164.811429 
L 347.995879 164.849037 
L 348.039375 164.849846 
L 349.110587 164.86961 
L 349.115304 164.869689 
L 349.117305 164.86973 
L 349.163183 164.87065 
L 352.491835 164.939088 
L 352.536618 164.940105 
L 353.601611 164.964211 
L 353.607217 164.964335 
L 354.652456 164.989088 
L 354.793538 164.992471 
L 356.991326 165.048047 
L 357.096487 165.050856 
L 357.232472 165.054513 
L 357.994295 165.074948 
L 358.092437 165.077591 
L 358.098932 165.077759 
L 360.367492 165.142217 
L 360.411148 165.143519 
L 361.470784 165.175303 
L 361.481535 165.175623 
L 361.654523 165.180978 
L 362.550494 165.208789 
L 362.583017 165.209796 
L 362.586797 165.209902 
L 362.590418 165.210009 
L 363.750025 165.247226 
L 363.7586 165.247506 
L 365.972102 165.322023 
L 366.015996 165.32356 
L 367.073336 165.360779 
L 367.081626 165.361083 
L 368.263393 165.403968 
L 368.27389 165.40436 
L 368.301189 165.405359 
L 368.354914 165.407383 
L 371.396311 165.523922 
L 371.563346 165.530564 
L 371.572525 165.530936 
L 371.579909 165.531243 
L 371.586119 165.531506 
L 373.584201 165.613111 
L 375.262303 165.684562 
L 376.052998 165.719152 
L 376.05908 165.719415 
L 376.064273 165.719635 
L 376.065877 165.7197 
L 378.29769 165.820484 
L 378.341188 165.822492 
L 425.953921 168.025835 
L 426.039756 168.519618 
L 426.045932 168.554949 
L 426.33293 170.173875 
L 426.406681 170.582454 
L 426.407529 170.587143 
L 426.653803 171.930462 
L 426.757279 172.484383 
L 426.757631 172.486305 
L 426.757966 172.488063 
L 426.772517 172.565215 
L 426.907339 173.278452 
L 426.913048 173.308647 
L 426.913863 173.312891 
L 426.914311 173.315211 
L 427.143012 174.50457 
L 427.143571 174.507477 
L 427.143907 174.509189 
L 427.454303 176.086463 
L 427.528241 176.456081 
L 427.542115 176.525401 
L 427.54245 176.527042 
L 427.952862 178.537965 
L 427.953133 178.539278 
L 428.375332 180.542851 
L 428.375492 180.543601 
L 428.375796 180.545008 
L 428.378543 180.55783 
L 428.713893 182.10548 
L 428.715474 182.112677 
L 428.767357 182.348941 
L 428.813137 182.556607 
L 429.198559 184.279847 
L 429.25979 184.54958 
L 429.717289 186.531381 
L 429.718503 186.536585 
L 430.162709 188.407454 
L 430.16314 188.409259 
L 430.170803 188.441091 
L 430.188588 188.514903 
L 430.189211 188.517434 
L 430.189546 188.518817 
L 430.566447 190.06539 
L 430.671931 190.492128 
L 431.086715 192.146257 
L 431.166486 192.460105 
L 431.167204 192.462894 
L 431.283762 192.91878 
L 431.312873 193.032482 
L 431.317469 193.050272 
L 431.658881 194.367314 
L 431.672079 194.418152 
L 431.672957 194.421504 
L 431.674441 194.427176 
L 431.922138 195.367618 
L 431.924803 195.37772 
L 431.965604 195.530888 
L 432.191328 196.376349 
L 432.193546 196.384647 
L 432.72147 198.324149 
L 432.731043 198.35886 
L 433.263384 200.264879 
L 433.267261 200.27859 
L 433.267596 200.279785 
L 433.268505 200.282973 
L 433.277837 200.315902 
L 433.41555 200.801143 
L 433.41579 200.801987 
L 433.416061 200.802924 
L 433.821313 202.213212 
L 433.82176 202.214735 
L 433.822286 202.216563 
L 433.822669 202.217852 
L 434.273008 203.755683 
L 434.387456 204.141772 
L 434.387967 204.143483 
L 434.965164 206.062443 
L 434.965833 206.064646 
L 434.966216 206.065911 
L 434.966551 206.067036 
L 434.967237 206.069239 
L 435.436184 207.595056 
L 435.554658 207.975997 
L 435.555312 207.978083 
L 435.697829 208.433897 
L 435.710394 208.474065 
L 435.716054 208.492016 
L 436.155637 209.881357 
L 436.15637 209.883654 
L 436.295972 210.319962 
L 436.298794 210.328797 
L 436.299097 210.329734 
L 436.299495 210.330976 
L 436.307164 210.354809 
L 436.312186 210.370346 
L 436.61542 211.309743 
L 436.617031 211.314687 
L 436.768132 211.778735 
L 436.768945 211.781195 
L 436.769663 211.783375 
L 437.132911 212.888318 
L 437.138235 212.904464 
L 437.138506 212.905308 
L 437.138841 212.906316 
L 437.139048 212.906948 
L 437.315261 213.43761 
L 437.392972 213.670542 
L 437.502739 213.998123 
L 437.572414 214.205581 
L 437.628604 214.372851 
L 437.64346 214.41707 
L 438.017788 215.520248 
L 438.027479 215.548766 
L 438.028436 215.551555 
L 438.189595 216.021133 
L 438.453572 216.786974 
L 438.674236 217.421163 
L 438.675272 217.424092 
L 439.037947 218.456255 
L 439.040194 218.462629 
L 439.326437 219.268377 
L 439.332317 219.28492 
L 439.333417 219.28799 
L 440.001644 221.139922 
L 440.002823 221.143108 
L 440.400798 222.227058 
L 440.449479 222.359142 
L 440.682199 222.985979 
L 440.683442 222.989306 
L 441.075667 224.035696 
L 441.084781 224.059807 
L 441.360902 224.78872 
L 441.373904 224.822976 
L 441.37521 224.826397 
L 441.897205 226.187552 
L 442.07671 226.650771 
L 442.07808 226.654285 
L 442.55105 227.863257 
L 442.552213 227.866209 
L 442.553551 227.869583 
L 442.707379 228.258918 
L 442.731578 228.320093 
L 442.790554 228.469177 
L 442.792003 228.472786 
L 443.479562 230.189539 
L 443.516901 230.28178 
L 443.987417 231.436553 
L 443.999396 231.465722 
L 444.030504 231.541351 
L 444.251164 232.077332 
L 444.252725 232.081104 
L 444.584733 232.881239 
L 444.948777 233.750385 
L 444.9508 233.755211 
L 444.966696 233.79293 
L 444.997802 233.866776 
L 444.999427 233.870642 
L 445.004237 233.881981 
L 445.499076 235.048416 
L 445.515608 235.087072 
L 445.636427 235.369165 
L 445.741622 235.614524 
L 445.755239 235.646292 
L 445.756943 235.650205 
L 446.364315 237.052033 
L 446.509476 237.383809 
L 446.523443 237.415717 
L 446.525195 237.4197 
L 447.100235 238.721792 
L 447.300296 239.170365 
L 447.302318 239.17491 
L 447.304134 239.178939 
L 447.408757 239.412502 
L 447.923105 240.552849 
L 447.929172 240.566202 
L 447.961481 240.637276 
L 448.083584 240.905622 
L 448.091833 240.923754 
L 448.093696 240.927807 
L 448.119762 240.984685 
L 448.745178 242.34577 
L 448.889853 242.657657 
L 448.891907 242.662085 
L 448.893817 242.666161 
L 448.902814 242.68544 
L 449.547716 244.062422 
L 449.555183 244.078234 
L 449.702477 244.389762 
L 449.704435 244.393861 
L 450.0781 245.179294 
L 450.523495 246.106645 
L 450.525485 246.110792 
L 450.956508 246.999224 
L 451.350759 247.804256 
L 451.354866 247.812641 
L 451.356904 247.816764 
L 451.390941 247.88584 
L 451.521246 248.150223 
L 451.523603 248.155002 
L 451.525274 248.158375 
L 451.760665 248.633779 
L 452.196542 249.507539 
L 452.198627 249.511684 
L 452.461006 250.032823 
L 452.879801 250.86047 
L 452.909601 250.918932 
L 453.048443 251.191267 
L 453.05056 251.195413 
L 453.063549 251.220756 
L 453.428573 251.93254 
L 453.910521 252.863663 
L 453.91267 252.867786 
L 454.490953 253.972449 
L 454.772734 254.505779 
L 454.782682 254.524586 
L 454.784878 254.528708 
L 455.351626 255.591443 
L 455.412554 255.705269 
L 455.664876 256.173919 
L 455.667104 256.178018 
L 456.353767 257.441061 
L 456.557025 257.811522 
L 456.559285 257.815597 
L 457.303895 259.159732 
L 457.309386 259.169544 
L 457.459065 259.437276 
L 457.461341 259.441304 
L 457.491977 259.495848 
L 458.052473 260.490815 
L 458.370917 261.05102 
L 458.373208 261.055024 
L 458.395758 261.094438 
L 459.008125 262.161553 
L 459.050121 262.234126 
L 459.2925 262.652658 
L 459.294807 262.656615 
L 459.92217 263.730469 
L 460.223751 264.24205 
L 460.226058 264.245937 
L 460.807838 265.224429 
L 460.822875 265.249485 
L 461.066635 265.655957 
L 461.087862 265.691294 
L 461.089962 265.694783 
L 461.16459 265.819056 
L 461.166914 265.82292 
L 461.167836 265.824466 
L 461.168871 265.826175 
L 461.17008 265.828165 
L 461.82503 266.90931 
L 461.845015 266.942023 
L 462.114939 267.383583 
L 462.117278 267.387376 
L 462.534919 268.066066 
L 463.074748 268.935466 
L 463.077087 268.939189 
L 464.043892 270.474612 
L 464.046231 270.478265 
L 464.511474 271.207231 
L 464.548274 271.264784 
L 464.549801 271.267172 
L 464.961817 271.906989 
L 465.013205 271.986668 
L 465.022337 272.000857 
L 465.024676 272.004462 
L 465.578803 272.856797 
L 465.584737 272.865905 
L 466.00999 273.51413 
L 466.012312 273.517666 
L 466.033217 273.549273 
L 466.694038 274.54653 
L 466.710758 274.571535 
L 466.984147 274.980531 
L 467.006021 275.013192 
L 467.006753 275.014292 
L 467.009075 275.017734 
L 467.258407 275.388611 
L 467.362336 275.542781 
L 467.605334 275.902394 
L 468.012579 276.501202 
L 468.014886 276.50455 
L 468.03073 276.527634 
L 468.811733 277.663866 
L 468.990882 277.922161 
L 469.027374 277.974766 
L 469.029649 277.97802 
L 469.059507 278.020862 
L 469.771239 279.038342 
L 469.877497 279.189035 
L 470.051041 279.434844 
L 470.0533 279.438028 
L 470.595923 280.201173 
L 470.718578 280.373025 
L 471.083517 280.881343 
L 471.085744 280.884433 
L 471.62232 281.626016 
L 471.638322 281.64795 
L 472.124706 282.314121 
L 472.126901 282.317117 
L 472.186213 282.397806 
L 472.479974 282.797157 
L 473.174545 283.733085 
L 473.176709 283.735988 
L 473.817252 284.589313 
L 474.232923 285.138119 
L 474.235054 285.140904 
L 474.794926 285.873983 
L 475.299791 286.529105 
L 475.301859 286.531773 
L 475.880956 287.276177 
L 475.92606 287.334059 
L 476.372876 287.903188 
L 476.375023 287.905926 
L 476.377043 287.908501 
L 476.883301 288.548187 
L 477.328165 289.105758 
L 477.362357 289.148448 
L 477.374714 289.163871 
L 477.458555 289.26849 
L 477.463517 289.274668 
L 477.859488 289.766463 
L 478.550308 290.616678 
L 478.552232 290.619018 
L 479.508433 291.779861 
L 479.65203 291.952596 
L 480.487746 292.949838 
L 480.540858 293.012672 
L 480.758076 293.269483 
L 480.759873 293.271589 
L 480.82709 293.350734 
L 480.87745 293.409939 
L 481.372531 293.990739 
L 481.400772 294.023617 
L 481.873918 294.573867 
L 481.875635 294.575856 
L 482.844727 295.689313 
L 482.865064 295.712596 
L 482.999267 295.865327 
L 483.823828 296.796599 
L 483.849937 296.825824 
L 484.129085 297.138152 
L 484.130659 297.139907 
L 485.172184 298.29253 
L 485.269746 298.399504 
L 485.76253 298.937179 
L 485.767125 298.942186 
L 486.394588 299.620441 
L 486.414956 299.64241 
L 486.416355 299.643908 
L 487.129584 300.406254 
L 487.137773 300.415004 
L 487.569164 300.87176 
L 487.570484 300.873141 
L 487.575333 300.878241 
L 487.9212 301.241922 
L 488.046579 301.373403 
L 488.252612 301.588849 
L 488.730799 302.085823 
L 488.732007 302.087086 
L 489.476678 302.853337 
L 489.824739 303.208124 
L 489.899715 303.284481 
L 489.900828 303.285604 
L 490.418392 303.809048 
L 491.075851 304.467618 
L 491.076869 304.468647 
L 491.576455 304.964299 
L 491.5893 304.977047 
L 491.77128 305.156508 
L 491.822057 305.206472 
L 491.859066 305.242822 
L 492.25911 305.635187 
L 492.260001 305.636052 
L 492.594592 305.962073 
L 492.615561 305.982494 
L 493.053259 306.406188 
L 493.059268 306.411989 
L 493.061827 306.414468 
L 493.062225 306.414842 
L 493.446187 306.78396 
L 493.447903 306.78562 
L 493.449398 306.787047 
L 493.450177 306.787796 
L 493.45175 306.789292 
L 494.20105 307.50295 
L 494.244496 307.543974 
L 494.646602 307.923129 
L 494.654296 307.930356 
L 495.659269 308.866765 
L 495.850644 309.043339 
L 495.856843 309.049022 
L 496.842065 309.949177 
L 497.061428 310.147584 
L 497.066101 310.151793 
L 497.950505 310.944466 
L 498.252837 311.212712 
L 498.278858 311.235793 
L 498.28199 311.238552 
L 499.502808 312.30785 
L 499.504382 312.309206 
L 500.733231 313.363707 
L 501.391012 313.919247 
L 501.39915 313.926121 
L 501.968392 314.401916 
L 501.970157 314.403365 
L 501.972731 314.405493 
L 502.678323 314.988912 
L 503.209788 315.423762 
L 503.213316 315.426661 
L 504.457322 316.429199 
L 504.46263 316.433453 
L 504.663715 316.593492 
L 504.666529 316.595736 
L 505.710882 317.418109 
L 505.979541 317.627318 
L 514.991469 324.618784 
L 514.336517 324.055949 
L 515.317561 324.833427 
L 517.04604 326.183959 
L 519.902496 328.384493 
L 522.942507 330.742975 
L 526.65673 333.644311 
L 529.238261 335.688724 
L 531.746704 337.579308 
L 534.173272 339.443144 
L 535.886364 340.748623 
L 538.237819 342.612604 
L 539.981548 343.98578 
L 543.065169 346.366143 
L 545.068876 347.919334 
L 547.251753 349.60302 
L 549.148375 351.066154 
L 551.010739 352.524974 
L 552.754396 353.875602 
L 554.574576 355.316365 
L 556.425288 356.734467 
L 559.003348 358.707394 
L 561.079778 360.299557 
L 564.72012 363.203756 
L 568.260478 365.917328 
L 570.998308 368.055945 
L 573.430296 370.014701 
L 575.403361 371.568058 
L 577.446668 373.290265 
L 579.374123 375.047043 
L 581.974911 377.637798 
L 584.615017 380.283376 
L 587.827884 383.617913 
L 590.535924 386.502056 
L 592.597495 388.790191 
L 594.53208 391.084283 
L 598.020667 395.52898 
L 601.392117 400.1364 
L 604.411354 404.488 
L 607.032171 408.589118 
L 609.653354 413.025572 
L 611.932994 417.211419 
L 614.670933 422.432578 
L 576.167877 448.621605 
L 543.8193 469.719701 
L 523.722261 481.146882 
L 486.955093 502.154949 
L 474.443165 509.279267 
L 461.621975 515.376701 
L 449.453006 520.214446 
L 438.712242 523.618682 
L 427.358192 526.624537 
L 416.084269 528.372205 
L 404.278569 529.60691 
L 392.676056 529.983409 
L 382.543117 529.440845 
L 370.979387 528.273542 
L 354.388152 525.462802 
L 344.335949 524.234406 
L 334.937717 523.233001 
L 325.990079 523.088274 
L 245.205321 522.990445 
L 227.272683 522.889904 
L 216.192061 523.397424 
L 211.723195 524.041296 
L 206.404325 525.632226 
L 201.830676 527.378188 
L 196.672642 529.755588 
L 191.728536 532.840567 
L 185.349965 537.425386 
L 178.811599 541.853413 
L 171.316417 546.914192 
L 163.359529 551.723438 
L 139.694125 476.786516 
L 141.431655 467.443467 
L 143.055228 460.254305 
L 145.204705 452.400722 
L 147.596804 445.059881 
L 150.302266 437.945906 
L 153.055279 431.637001 
L 156.362912 424.986961 
L 158.948069 420.350032 
L 161.272659 416.529442 
L 161.271327 312.20116 
L 123.329067 312.145407 
L 123.524035 310.882664 
L 123.555353 310.568204 
L 123.641594 309.709783 
L 123.642048 309.705255 
L 123.643737 309.688549 
L 123.64455 309.680524 
L 123.658063 309.547085 
L 123.854538 307.635456 
L 123.854788 307.633039 
L 123.934418 306.873343 
L 123.939864 306.82137 
L 124.165004 304.717284 
L 124.166523 304.703228 
L 124.166711 304.701445 
L 124.166789 304.700718 
L 124.222197 304.192619 
L 124.231732 304.105214 
L 124.491058 301.773984 
L 124.491355 301.771403 
L 124.617621 300.662223 
L 124.618639 300.653236 
L 124.828143 298.847841 
L 124.828456 298.845166 
L 124.828958 298.840942 
L 125.047444 297.001648 
L 125.153005 296.128596 
L 125.16387 296.039123 
L 125.177746 295.924893 
L 125.178075 295.922124 
L 125.539869 293.005281 
L 125.540182 293.002676 
L 125.540527 292.999907 
L 125.54332 292.977896 
L 125.562882 292.823773 
L 125.685624 291.858506 
L 125.697642 291.764923 
L 125.735925 291.466906 
L 125.737306 291.456159 
L 125.772499 291.182616 
L 125.777991 291.139908 
L 125.914479 290.089075 
L 125.914871 290.086165 
L 126.116799 288.554666 
L 126.301482 287.177307 
L 126.301592 287.176486 
L 126.302 287.173482 
L 126.304999 287.151541 
L 126.663833 284.535716 
L 126.668748 284.500047 
L 126.701162 284.267538 
L 126.701319 284.266435 
L 126.701586 284.264464 
L 127.110675 281.380043 
L 127.113188 281.362395 
L 127.113628 281.359321 
L 127.114036 281.356482 
L 127.142521 281.15985 
L 127.306046 280.03314 
L 127.537655 278.461152 
L 127.538143 278.457913 
L 127.538881 278.453008 
L 127.805298 276.676017 
L 127.813645 276.621126 
L 127.974548 275.563925 
L 127.975051 275.560616 
L 128.195605 274.129986 
L 128.412041 272.745976 
L 128.415091 272.726474 
L 128.416789 272.715585 
L 128.423834 272.670855 
L 128.424369 272.667475 
L 128.430832 272.62664 
L 128.458681 272.450652 
L 128.526505 272.022074 
L 128.606471 271.518233 
L 128.882117 269.803158 
L 128.885514 269.782036 
L 128.885829 269.780112 
L 128.886064 269.778586 
L 129.359557 266.897609 
L 129.360139 266.894066 
L 129.470259 266.235221 
L 129.845946 264.017645 
L 129.84656 264.014054 
L 129.857057 263.95287 
L 129.975955 263.260759 
L 130.344667 261.142308 
L 130.345313 261.138623 
L 130.34972 261.113675 
L 130.701635 259.12933 
L 130.855688 258.271667 
L 130.856365 258.267912 
L 130.906575 257.990332 
L 130.978419 257.593407 
L 131.010208 257.417968 
L 131.013578 257.39938 
L 131.379009 255.405865 
L 131.379686 255.402134 
L 131.380095 255.399927 
L 131.601978 254.208098 
L 131.914598 252.545019 
L 131.915323 252.541146 
L 132.071183 251.721688 
L 132.079689 251.677023 
L 132.45721 249.716166 
L 132.462425 249.689221 
L 132.463181 249.685278 
L 132.513122 249.428762 
L 132.639616 248.779973 
L 132.644942 248.752887 
L 133.022473 246.838614 
L 133.023229 246.834788 
L 133.230157 245.798287 
L 133.307925 245.41124 
L 133.333549 245.284118 
L 133.594301 243.995427 
L 133.595546 243.989231 
L 133.699217 243.481464 
L 133.703283 243.461537 
L 133.704639 243.454871 
L 133.801818 242.979565 
L 133.802858 242.974448 
L 133.803347 242.972101 
L 134.179154 241.153393 
L 134.180021 241.149239 
L 134.283867 240.651417 
L 134.2958 240.594215 
L 134.298054 240.583488 
L 134.775757 238.318991 
L 134.77664 238.314789 
L 134.837306 238.030701 
L 135.020962 237.171932 
L 135.108782 236.764023 
L 135.184651 236.41205 
L 135.202594 236.329097 
L 135.374632 235.535574 
L 135.384471 235.490225 
L 135.385401 235.485976 
L 135.859851 233.323453 
L 135.874327 233.257705 
L 135.881423 233.225687 
L 136.005296 232.667213 
L 136.006258 232.662893 
L 136.209651 231.751073 
L 136.638218 229.850048 
L 136.639148 229.845893 
L 136.647066 229.811011 
L 137.16144 227.565815 
L 137.183208 227.471168 
L 137.27418 227.077792 
L 137.283187 227.038872 
L 137.284213 227.034435 
L 137.285333 227.0296 
L 137.285538 227.028731 
L 137.603505 225.664018 
L 137.94019 224.233825 
L 137.941247 224.229295 
L 137.941594 224.227816 
L 137.941799 224.226971 
L 137.942083 224.22575 
L 138.324358 222.619627 
L 138.609194 221.434861 
L 138.610283 221.43033 
L 138.798531 220.652822 
L 139.290184 218.642261 
L 139.291305 218.637684 
L 139.306123 218.577587 
L 139.648963 217.192808 
L 139.983112 215.856096 
L 139.98428 215.851448 
L 140.348186 214.409696 
L 140.682218 213.099067 
L 140.687979 213.076436 
L 140.689179 213.071765 
L 141.080027 211.553175 
L 141.082805 211.5424 
L 141.08762 211.523877 
L 141.404737 210.303446 
L 141.405969 210.298704 
L 141.522397 209.853218 
L 141.545036 209.766919 
L 142.133371 207.537196 
L 142.134634 207.532407 
L 142.163354 207.424555 
L 142.292837 206.938588 
L 142.566039 205.918617 
L 142.56675 205.915987 
L 142.567381 205.913616 
L 142.568155 205.910729 
L 142.86559 204.808347 
L 142.873833 204.777827 
L 142.875064 204.773249 
L 143.626107 202.025432 
L 143.627449 202.020549 
L 143.892333 201.06321 
L 144.390162 199.280107 
L 144.391536 199.275177 
L 144.759947 197.968846 
L 145.165951 196.541992 
L 145.167373 196.537014 
L 145.183168 196.481887 
L 145.26731 196.188175 
L 145.404557 195.709525 
L 145.422675 195.646721 
L 145.953474 193.81118 
L 145.954927 193.806155 
L 145.979712 193.721116 
L 146.138203 193.177446 
L 146.143811 193.158241 
L 146.373219 192.375086 
L 146.37562 192.366892 
L 146.381623 192.346418 
L 146.399158 192.286782 
L 146.404624 192.268164 
L 146.752683 191.087766 
L 146.754168 191.082718 
L 147.244005 189.436532 
L 148.947361 185.066097 
L 149.571702 183.157442 
L 150.086792 181.582762 
L 150.780969 179.46064 
L 151.72719 179.308975 
L 157.798408 178.335931 
L 158.372483 178.244102 
L 158.413634 178.237585 
L 160.751234 177.86683 
L 160.785589 177.861439 
L 163.459963 177.443773 
L 164.894562 177.222568 
L 165.220674 177.172517 
L 165.252395 177.167651 
L 169.03657 176.59469 
L 169.689672 176.49717 
L 169.72052 176.492589 
L 172.633031 176.062714 
L 174.159942 175.84055 
L 174.189917 175.836206 
L 174.900704 175.733601 
L 175.083489 175.707247 
L 177.165241 175.409738 
L 177.303875 175.390074 
L 178.195991 175.26408 
L 178.333577 175.244537 
L 178.631484 175.202632 
L 178.660569 175.198572 
L 179.450506 175.088045 
L 180.182939 174.985868 
L 180.733125 174.909363 
L 180.747033 174.907441 
L 180.832767 174.895597 
L 181.917471 174.7459 
L 183.071876 174.587885 
L 183.098073 174.584305 
L 183.104201 174.583464 
L 183.132414 174.579619 
L 183.214083 174.568492 
L 186.252196 174.158991 
L 186.260611 174.157885 
L 186.960807 174.064853 
L 187.571871 173.983817 
L 187.578094 173.982999 
L 187.605434 173.979392 
L 187.644189 173.974293 
L 188.492818 173.862578 
L 188.537733 173.856685 
L 191.377381 173.487968 
L 191.409293 173.483829 
L 192.053131 173.401284 
L 192.079598 173.397915 
L 192.767035 173.310256 
L 195.111817 173.014541 
L 195.877325 172.919127 
L 196.529265 172.838297 
L 196.554858 172.835141 
L 196.677508 172.82006 
L 198.177425 172.635766 
L 198.643749 172.578925 
L 198.657895 172.57719 
L 201.006478 172.294059 
L 201.031183 172.291118 
L 201.746669 172.205913 
L 202.483796 172.118623 
L 203.628713 171.984067 
L 205.484708 171.768573 
L 205.508539 171.765822 
L 207.609574 171.525832 
L 207.636041 171.522838 
L 207.708394 171.5147 
L 208.978449 171.371731 
L 209.025985 171.366394 
L 209.144128 171.353184 
L 209.151623 171.352339 
L 209.963921 171.261837 
L 209.98688 171.2593 
L 210.723557 171.17798 
L 211.604114 171.081022 
L 213.061435 170.922472 
L 213.275891 170.899289 
L 214.444104 170.773852 
L 214.466173 170.771506 
L 215.332637 170.679314 
L 218.471204 170.351294 
L 218.925206 170.304618 
L 218.946387 170.302463 
L 218.976078 170.299459 
L 219.042097 170.292751 
L 220.68471 170.125583 
L 220.709923 170.123016 
L 221.853984 170.008531 
L 222.126587 169.981156 
L 222.5519 169.93868 
L 223.280287 169.866691 
L 223.353626 169.859443 
L 223.407197 169.854159 
L 223.427505 169.852171 
L 223.493317 169.845745 
L 225.354117 169.664384 
L 225.647632 169.636052 
L 227.890029 169.422474 
L 227.909447 169.420653 
L 229.525043 169.269711 
L 231.739729 169.066793 
L 232.373685 169.009541 
L 232.392214 169.007887 
L 232.557328 168.993102 
L 233.326929 168.924209 
L 233.380056 168.919466 
L 235.535023 168.729724 
L 235.574877 168.726267 
L 236.858324 168.615359 
L 236.875742 168.613873 
L 238.99736 168.43403 
L 239.012 168.432811 
L 240.173748 168.336112 
L 240.475828 168.311162 
L 241.343263 168.240024 
L 241.360014 168.238657 
L 242.114112 168.177425 
L 242.559176 168.141493 
L 252.16656 167.5526 
L 262.604368 166.877475 
L 270.93304 166.235175 
L 270.972181 166.233083 
L 271.939913 166.181384 
L 272.59088 166.147066 
L 272.75513 166.138464 
L 272.759878 166.138215 
L 272.767627 166.137815 
L 274.689854 166.039181 
L 275.918513 165.977956 
L 276.011992 165.973327 
L 276.02525 165.972676 
L 277.246877 165.913304 
L 277.256515 165.912852 
L 280.852874 165.746177 
L 280.915056 165.743429 
L 281.672357 165.709895 
L 281.73708 165.707044 
L 281.745813 165.706666 
L 282.761213 165.662649 
L 282.807437 165.660654 
L 283.939994 165.61276 
L 284.049527 165.608154 
L 286.22766 165.519584 
L 286.235505 165.519279 
L 286.405888 165.512703 
L 289.507354 165.394613 
L 289.575491 165.392058 
L 289.585717 165.391675 
L 290.718586 165.350901 
L 290.723271 165.350746 
L 290.725525 165.350668 
L 294.069629 165.237324 
L 294.076156 165.237117 
L 294.155552 165.234598 
L 295.052144 165.206051 
L 295.20981 165.201064 
L 295.214399 165.20091 
L 295.21586 165.200858 
L 296.832438 165.151627 
L 297.012081 165.146245 
L 297.340942 165.136655 
L 297.364094 165.135974 
L 298.491433 165.103513 
L 298.548217 165.101885 
L 298.563192 165.101441 
L 298.597539 165.100491 
L 299.303647 165.080953 
L 299.69274 165.070242 
L 299.701315 165.070005 
L 299.70646 165.069872 
L 300.62448 165.045396 
L 303.053764 164.984461 
L 303.063816 164.984196 
L 303.983698 164.962629 
L 304.193037 164.957746 
L 304.193958 164.957719 
L 304.197309 164.957662 
L 304.213966 164.95726 
L 304.215634 164.957255 
L 307.552716 164.886093 
L 307.554415 164.886064 
L 307.561879 164.885901 
L 308.635068 164.865259 
L 308.684978 164.86431 
L 308.688344 164.864253 
L 311.271243 164.819049 
L 312.014426 164.807225 
L 312.036673 164.806853 
L 312.166791 164.80484 
L 312.207729 164.804223 
L 312.935907 164.793291 
L 313.064898 164.791352 
L 313.177072 164.789675 
L 313.179533 164.789644 
L 313.180676 164.789618 
L 317.669399 164.733841 
L 317.67086 164.733837 
L 318.425229 164.726304 
L 322.161625 164.696831 
L 322.16226 164.696829 
L 323.236423 164.690779 
L 323.39095 164.690009 
L 324.265044 164.685971 
L 326.541289 164.678867 
" style="fill:#1a1a1a;stroke:#ffffff;stroke-linejoin:miter;stroke-width:4;"/>
   </g>
  </g>
 </g>
 <defs>
  <clipPath id="p6caf84a6a3">
   <rect height="543.6" width="558" x="90" y="86.4"/>
  </clipPath>
 </defs>
</svg>
