<?xml version="1.0" encoding="utf-8" standalone="no"?>
<!DOCTYPE svg PUBLIC "-//W3C//DTD SVG 1.1//EN"
  "http://www.w3.org/Graphics/SVG/1.1/DTD/svg11.dtd">
<!-- Created with matplotlib (https://matplotlib.org/) -->
<svg height="720pt" version="1.1" viewBox="0 0 720 720" width="720pt" xmlns="http://www.w3.org/2000/svg" xmlns:xlink="http://www.w3.org/1999/xlink">
 <metadata>
  <rdf:RDF xmlns:cc="http://creativecommons.org/ns#" xmlns:dc="http://purl.org/dc/elements/1.1/" xmlns:rdf="http://www.w3.org/1999/02/22-rdf-syntax-ns#">
   <cc:Work>
    <dc:type rdf:resource="http://purl.org/dc/dcmitype/StillImage"/>
    <dc:date>2021-05-28T08:56:53.144059</dc:date>
    <dc:format>image/svg+xml</dc:format>
    <dc:creator>
     <cc:Agent>
      <dc:title>Matplotlib v3.3.3, https://matplotlib.org/</dc:title>
     </cc:Agent>
    </dc:creator>
   </cc:Work>
  </rdf:RDF>
 </metadata>
 <defs>
  <style type="text/css">*{stroke-linecap:butt;stroke-linejoin:round;}</style>
 </defs>
 <g id="figure_1">
  <g id="patch_1">
   <path d="M 0 720 
L 720 720 
L 720 0 
L 0 0 
z
" style="fill:none;"/>
  </g>
  <g id="axes_1">
   <g id="patch_2">
    <path clip-path="url(#p91285ab9b6)" d="M 596.476105 484.878833 
L 596.546206 550.457225 
L 579.550802 550.492964 
L 566.263424 550.540651 
L 552.201012 550.535801 
L 548.235566 550.514745 
L 543.024809 550.454771 
L 538.12859 550.462454 
L 528.372135 550.437043 
L 523.834242 550.471414 
L 515.552672 550.460354 
L 506.568559 550.445558 
L 493.505035 550.496175 
L 485.222006 550.480478 
L 477.328534 550.522744 
L 466.495894 550.512459 
L 456.680978 550.558135 
L 448.475898 550.571922 
L 442.088337 550.553421 
L 436.277398 550.545147 
L 429.581884 550.542924 
L 410.672257 550.575331 
L 401.067022 550.591986 
L 370.200338 550.579999 
L 340.24297 550.60682 
L 332.719806 550.620466 
L 321.17129 550.610215 
L 305.041921 550.613793 
L 296.852593 550.691585 
L 287.525265 550.928111 
L 279.61339 550.911643 
L 272.10563 550.876191 
L 259.057772 550.81344 
L 255.14794 550.763073 
L 232.784753 550.694034 
L 168.703601 376.207745 
L 167.77542 373.699656 
L 166.618109 370.525722 
L 165.557281 367.637761 
L 164.664989 365.035629 
L 163.869387 362.891116 
L 163.171962 360.904595 
L 162.594421 359.178337 
L 161.078306 354.684534 
L 158.045868 345.547017 
L 155.201857 336.259258 
L 152.672984 327.420534 
L 150.246146 318.270185 
L 147.213013 306.22724 
L 144.087931 291.964949 
L 141.585823 279.181113 
L 139.528114 267.03053 
L 137.55724 253.611448 
L 135.468955 235.581311 
L 134.634531 226.491259 
L 133.994502 218.206396 
L 133.450578 209.576099 
L 133.055444 202.029573 
L 132.970728 199.59965 
L 132.810126 195.544494 
L 132.716326 191.831548 
L 132.600232 187.986974 
L 132.531483 185.432927 
L 132.014467 166.049205 
L 421.446024 165.471889 
L 424.583817 165.533046 
L 427.816904 165.736246 
L 430.959187 166.070837 
L 434.055048 166.533992 
L 437.193531 167.140607 
L 440.831846 168.019852 
L 444.777937 169.192695 
L 449.032333 170.721908 
L 453.269208 172.530371 
L 457.106571 174.427788 
L 461.00152 176.621859 
L 465.091815 179.238295 
L 470.519298 183.253573 
L 476.962697 188.417507 
L 480.382242 191.023063 
L 484.007345 193.507283 
L 487.83435 195.843946 
L 490.873533 197.50452 
L 493.833187 198.964869 
L 497.567872 200.597626 
L 502.27153 202.336781 
L 507.962399 203.991978 
L 514.067822 205.245956 
L 519.351342 205.881715 
L 526.486057 205.88232 
L 526.320038 220.436555 
L 526.372951 222.882443 
L 526.762507 228.808531 
L 527.336664 234.207891 
L 527.986989 238.574333 
L 529.053427 244.701464 
L 530.260315 249.947176 
L 531.587984 255.025032 
L 533.819337 262.189988 
L 534.506281 263.97783 
L 537.247652 270.902833 
L 539.785966 276.458541 
L 542.818646 282.161264 
L 552.600964 297.362202 
L 568.343177 320.229519 
L 575.316568 331.183833 
L 581.268869 341.888458 
L 586.731179 353.174994 
L 590.997794 363.318554 
L 595.217131 374.98521 
L 598.286975 384.189665 
L 600.687966 394.155589 
L 602.490389 402.914019 
L 603.127799 406.309681 
L 603.686122 409.831284 
L 604.483983 415.113761 
L 605.016848 419.547453 
L 605.338361 423.887108 
L 605.714191 429.641968 
L 605.821795 431.497371 
L 605.985533 435.653343 
L 605.882938 439.359863 
L 605.701329 442.410812 
L 605.30899 445.965291 
L 604.915885 448.796406 
L 604.522181 451.061423 
L 604.180725 452.791728 
L 603.865368 454.238908 
L 603.155629 457.290653 
L 602.603383 459.461555 
L 598.514903 472.859405 
L 597.806579 475.53613 
L 597.170679 478.229001 
L 596.85346 480.248424 
L 596.610283 482.589586 
L 596.476105 484.878833 
" style="fill:#1a1a1a;stroke:#ffffff;stroke-linejoin:miter;stroke-width:4;"/>
   </g>
  </g>
 </g>
 <defs>
  <clipPath id="p91285ab9b6">
   <rect height="543.6" width="558" x="90" y="86.4"/>
  </clipPath>
 </defs>
</svg>
