<?xml version="1.0" encoding="utf-8" standalone="no"?>
<!DOCTYPE svg PUBLIC "-//W3C//DTD SVG 1.1//EN"
  "http://www.w3.org/Graphics/SVG/1.1/DTD/svg11.dtd">
<!-- Created with matplotlib (https://matplotlib.org/) -->
<svg height="720pt" version="1.1" viewBox="0 0 720 720" width="720pt" xmlns="http://www.w3.org/2000/svg" xmlns:xlink="http://www.w3.org/1999/xlink">
 <metadata>
  <rdf:RDF xmlns:cc="http://creativecommons.org/ns#" xmlns:dc="http://purl.org/dc/elements/1.1/" xmlns:rdf="http://www.w3.org/1999/02/22-rdf-syntax-ns#">
   <cc:Work>
    <dc:type rdf:resource="http://purl.org/dc/dcmitype/StillImage"/>
    <dc:date>2021-05-28T08:56:52.691488</dc:date>
    <dc:format>image/svg+xml</dc:format>
    <dc:creator>
     <cc:Agent>
      <dc:title>Matplotlib v3.3.3, https://matplotlib.org/</dc:title>
     </cc:Agent>
    </dc:creator>
   </cc:Work>
  </rdf:RDF>
 </metadata>
 <defs>
  <style type="text/css">*{stroke-linecap:butt;stroke-linejoin:round;}</style>
 </defs>
 <g id="figure_1">
  <g id="patch_1">
   <path d="M 0 720 
L 720 720 
L 720 0 
L 0 0 
z
" style="fill:none;"/>
  </g>
  <g id="axes_1">
   <g id="patch_2">
    <path clip-path="url(#p583100440c)" d="M 590.462706 491.565299 
L 583.697791 558.153143 
L 404.552037 558.476188 
L 387.698051 557.406119 
L 372.632036 555.164108 
L 357.188334 551.608168 
L 310.039716 535.0274 
L 255.910725 515.072817 
L 242.268786 511.016392 
L 230.376396 508.237195 
L 215.803321 505.925448 
L 203.21288 504.774446 
L 192.255261 504.55198 
L 143.617249 504.742942 
L 140.054588 452.74538 
L 138.361229 428.603781 
L 135.319652 391.975598 
L 135.323527 334.710553 
L 135.744504 157.923812 
L 188.628153 158.154685 
L 223.812786 158.13246 
L 231.638348 158.377347 
L 239.414187 159.478408 
L 245.322291 160.883308 
L 299.431887 178.561167 
L 306.538749 180.017446 
L 312.529809 180.775401 
L 318.647942 181.088316 
L 331.240653 181.094272 
L 427.670837 181.201998 
L 486.395849 181.294784 
L 486.396691 182.573517 
L 486.547978 223.631099 
L 492.950355 232.215744 
L 505.096946 247.595055 
L 510.051074 251.269358 
L 511.656953 252.165913 
L 512.875421 252.671498 
L 515.075656 253.986612 
L 517.411127 255.099126 
L 522.684626 257.300411 
L 528.138589 259.918266 
L 532.180354 261.864895 
L 534.734163 263.047162 
L 537.216146 264.337114 
L 539.302536 265.591412 
L 540.38176 266.344105 
L 541.676797 267.168427 
L 543.227121 268.233803 
L 543.943254 268.888984 
L 545.598349 270.538177 
L 546.9297 271.972337 
L 548.009216 273.227277 
L 549.376859 275.235372 
L 550.456606 276.884917 
L 551.42924 278.53474 
L 562.256391 294.626761 
L 567.053299 301.424816 
L 571.624089 307.267541 
L 576.914149 315.905805 
L 582.545463 323.981927 
L 588.064342 332.850927 
L 598.930023 349.569794 
L 601.36167 355.647662 
L 602.531609 361.172829 
L 602.680348 366.625815 
L 602.319484 373.96945 
L 600.506383 393.819526 
L 597.744431 421.012051 
L 592.205986 475.544154 
L 590.462706 491.565299 
" style="fill:#1a1a1a;stroke:#ffffff;stroke-linejoin:miter;stroke-width:4;"/>
   </g>
  </g>
 </g>
 <defs>
  <clipPath id="p583100440c">
   <rect height="543.6" width="558" x="90" y="86.4"/>
  </clipPath>
 </defs>
</svg>
