<?xml version="1.0" encoding="utf-8" standalone="no"?>
<!DOCTYPE svg PUBLIC "-//W3C//DTD SVG 1.1//EN"
  "http://www.w3.org/Graphics/SVG/1.1/DTD/svg11.dtd">
<!-- Created with matplotlib (https://matplotlib.org/) -->
<svg height="720pt" version="1.1" viewBox="0 0 720 720" width="720pt" xmlns="http://www.w3.org/2000/svg" xmlns:xlink="http://www.w3.org/1999/xlink">
 <metadata>
  <rdf:RDF xmlns:cc="http://creativecommons.org/ns#" xmlns:dc="http://purl.org/dc/elements/1.1/" xmlns:rdf="http://www.w3.org/1999/02/22-rdf-syntax-ns#">
   <cc:Work>
    <dc:type rdf:resource="http://purl.org/dc/dcmitype/StillImage"/>
    <dc:date>2021-05-28T08:56:49.090604</dc:date>
    <dc:format>image/svg+xml</dc:format>
    <dc:creator>
     <cc:Agent>
      <dc:title>Matplotlib v3.3.3, https://matplotlib.org/</dc:title>
     </cc:Agent>
    </dc:creator>
   </cc:Work>
  </rdf:RDF>
 </metadata>
 <defs>
  <style type="text/css">*{stroke-linecap:butt;stroke-linejoin:round;}</style>
 </defs>
 <g id="figure_1">
  <g id="patch_1">
   <path d="M 0 720 
L 720 720 
L 720 0 
L 0 0 
z
" style="fill:none;"/>
  </g>
  <g id="axes_1">
   <g id="patch_2">
    <path clip-path="url(#p624797ba35)" d="M 333.608769 156.257291 
L 349.603114 156.273167 
L 365.597175 156.259366 
L 377.56726 156.249111 
L 391.500459 156.237256 
L 405.328703 156.225563 
L 455.218435 156.184153 
L 486.63801 156.158647 
L 485.721918 168.976546 
L 485.646433 179.226792 
L 485.744561 189.728608 
L 485.048805 200.018413 
L 484.697511 210.456624 
L 484.454251 220.7028 
L 484.287147 227.873237 
L 485.348608 231.080938 
L 488.832526 241.609205 
L 493.006982 251.897044 
L 495.659055 262.293117 
L 498.980513 272.328201 
L 502.57273 283.18155 
L 505.982951 293.485086 
L 507.060405 296.740513 
L 511.56367 304.199559 
L 519.552347 314.316638 
L 525.54544 324.636214 
L 526.625275 333.712339 
L 526.506544 344.994151 
L 526.587947 355.045056 
L 526.454918 365.602272 
L 526.372649 376.327592 
L 526.429795 377.674827 
L 526.486795 378.916079 
L 526.566042 380.092896 
L 526.778957 381.341658 
L 527.025122 382.454154 
L 527.381613 383.403902 
L 527.894929 384.433005 
L 528.496839 385.498332 
L 528.954117 386.201993 
L 529.53365 386.984839 
L 530.759419 388.382913 
L 532.249826 389.881904 
L 534.314613 391.734196 
L 536.343377 393.440183 
L 541.31027 397.596844 
L 553.74276 407.903478 
L 567.871258 419.864847 
L 573.84846 424.682545 
L 575.845673 426.656023 
L 576.822195 427.985447 
L 578.462876 430.228463 
L 580.701739 433.496081 
L 582.012199 436.33403 
L 582.563236 438.942965 
L 582.785583 442.27407 
L 582.893677 449.44877 
L 582.867792 470.241243 
L 582.872728 475.018027 
L 582.841489 484.312346 
L 582.884085 486.21751 
L 583.009685 506.589689 
L 582.955491 515.620781 
L 582.974198 517.790471 
L 583.017784 522.323397 
L 583.263156 524.663219 
L 583.04542 527.714657 
L 582.735036 530.874608 
L 582.264373 533.176267 
L 581.901538 534.718046 
L 581.17493 536.893172 
L 580.407654 538.875606 
L 579.563646 540.760311 
L 577.764423 543.176114 
L 572.176655 550.119599 
L 564.124465 559.823726 
L 563.795692 560.241353 
L 562.891633 559.735483 
L 561.754943 559.031559 
L 560.538399 558.22188 
L 559.385692 557.507514 
L 558.375929 556.930185 
L 557.336447 556.480405 
L 556.186347 555.935985 
L 555.100053 555.486626 
L 554.077893 555.121917 
L 552.883068 554.747677 
L 551.938728 554.371622 
L 550.994749 554.01691 
L 549.83028 553.56824 
L 548.650155 553.130009 
L 547.611934 552.744197 
L 546.604816 552.347502 
L 545.706591 551.928574 
L 544.635673 551.44725 
L 543.598494 551.146309 
L 542.450717 550.771822 
L 541.364774 550.34379 
L 540.529317 549.914005 
L 539.92975 549.588811 
L 539.000125 549.138357 
L 538.023412 548.688325 
L 536.796136 548.22924 
L 535.677762 547.72704 
L 534.687345 547.41521 
L 533.53925 547.008745 
L 532.50104 546.644053 
L 531.415396 546.216047 
L 530.565252 545.87133 
L 529.605231 545.495522 
L 528.581753 545.066859 
L 527.653093 544.690806 
L 526.677682 544.315216 
L 525.669217 543.854773 
L 524.597952 543.352137 
L 523.622219 542.965887 
L 522.648122 542.69628 
L 521.579855 542.406234 
L 520.463146 542.031533 
L 519.425928 541.709281 
L 518.405733 541.503873 
L 517.279637 541.553941 
L 516.249096 541.709755 
L 515.203822 541.929542 
L 514.323601 541.669903 
L 513.952872 540.918184 
L 513.346612 540.115162 
L 512.309714 539.835327 
L 511.131866 539.535517 
L 510.079601 539.277033 
L 509.107538 539.156265 
L 508.025205 538.983293 
L 506.958575 538.788763 
L 505.780717 538.510068 
L 504.854717 538.325103 
L 503.756694 538.130799 
L 502.675022 538.000264 
L 501.624133 537.848184 
L 500.635312 537.631876 
L 499.504913 537.384725 
L 498.501069 537.221543 
L 497.324864 537.049022 
L 496.211154 536.86562 
L 495.081385 536.660905 
L 493.951292 536.413736 
L 492.930436 536.176356 
L 491.91025 535.960299 
L 490.764784 535.755803 
L 489.744597 535.539747 
L 488.692655 535.302573 
L 487.876244 535.116932 
L 486.777532 534.890883 
L 485.74228 534.71748 
L 484.675678 534.554754 
L 483.592692 534.328469 
L 482.651277 534.154391 
L 481.475109 533.992559 
L 480.330652 533.841143 
L 479.247315 533.60422 
L 478.133223 533.388844 
L 477.410678 533.202739 
L 476.342402 532.923166 
L 475.322179 532.707095 
L 474.33339 532.501481 
L 473.31319 532.306753 
L 472.27762 532.101373 
L 471.100754 531.897092 
L 469.954935 531.660624 
L 468.903016 531.42348 
L 467.72578 531.166105 
L 466.751688 530.896521 
L 465.776237 530.542069 
L 464.739348 530.262485 
L 463.625281 530.047095 
L 462.479791 529.831953 
L 461.412818 529.648125 
L 460.467447 529.197711 
L 459.429878 528.865034 
L 458.732329 528.742197 
L 458.268702 528.660542 
L 457.279876 528.454935 
L 456.149777 528.218465 
L 455.192035 528.012633 
L 454.092663 527.733296 
L 453.27621 527.547646 
L 452.129749 527.268752 
L 451.124258 526.999609 
L 450.182197 526.782901 
L 449.145946 526.556419 
L 448.110046 526.340577 
L 447.026016 526.050574 
L 446.126675 525.623533 
L 446.094786 525.594096 
L 445.138018 525.409381 
L 444.086327 525.140266 
L 443.035023 524.913376 
L 441.936919 524.697591 
L 440.948714 524.502421 
L 439.912428 524.222639 
L 438.970368 523.984613 
L 437.981164 523.72571 
L 436.756773 523.425754 
L 435.610919 523.146638 
L 434.653481 522.919284 
L 433.774174 522.681018 
L 432.910605 522.452986 
L 431.749009 522.16345 
L 430.870088 521.96741 
L 429.740895 521.751857 
L 428.641485 521.451189 
L 427.700376 521.266263 
L 426.743933 521.102668 
L 425.787447 520.928412 
L 424.783249 520.722617 
L 423.621329 520.422404 
L 422.476121 520.175089 
L 421.580446 519.894402 
L 420.48102 519.583098 
L 419.57066 519.376837 
L 418.48794 519.139712 
L 417.310991 518.860664 
L 416.165429 518.602901 
L 415.051303 518.355363 
L 414.046434 518.107161 
L 413.026134 517.848515 
L 411.974181 517.579414 
L 410.827968 517.268349 
L 409.838751 517.009479 
L 408.928072 516.771448 
L 408.221174 516.563637 
L 407.184551 516.273208 
L 406.164957 516.067661 
L 405.034796 515.799024 
L 404.04594 515.561478 
L 403.294951 515.54494 
L 402.154381 515.605356 
L 401.224669 515.154958 
L 400.13625 514.536185 
L 399.146379 514.224203 
L 398.077649 513.88093 
L 397.260198 513.599812 
L 396.127699 513.182765 
L 395.168231 512.817463 
L 394.193702 512.494835 
L 393.203174 512.151103 
L 392.088022 511.829369 
L 391.159957 511.474713 
L 390.200499 511.120095 
L 389.176895 510.65995 
L 388.201713 510.284208 
L 386.97599 509.89964 
L 385.969037 509.492352 
L 385.5608 509.388899 
L 384.460729 509.045859 
L 383.344861 508.671034 
L 382.448543 508.35861 
L 381.583951 508.067051 
L 380.671589 507.722862 
L 379.539051 507.284501 
L 378.531816 506.877238 
L 377.398596 506.385993 
L 376.39066 505.936296 
L 375.413801 505.4546 
L 374.40723 505.089751 
L 373.181483 504.694529 
L 372.363 504.360303 
L 371.372444 504.00592 
L 370.380899 503.598651 
L 369.294423 503.106965 
L 368.303562 502.73147 
L 367.266884 502.441059 
L 366.528229 502.201714 
L 365.459842 501.879778 
L 364.341999 501.388321 
L 363.350115 500.959734 
L 362.374928 500.594664 
L 361.336898 500.208747 
L 360.220068 499.79173 
L 359.30701 499.394434 
L 358.220556 498.902774 
L 357.228667 498.474168 
L 356.189674 498.035368 
L 355.213814 497.627888 
L 354.069334 497.255184 
L 348.819382 495.259414 
L 351.526479 411.588687 
L 345.174658 406.426361 
L 339.454522 401.631862 
L 330.028039 393.699808 
L 300.212341 368.68841 
L 292.335292 362.048059 
L 253.045297 347.730816 
L 245.466652 347.684921 
L 245.467061 347.302593 
L 208.394536 326.385018 
L 205.619527 325.095776 
L 158.13122 289.584665 
L 154.972338 281.861274 
L 154.846455 270.900062 
L 154.777211 263.467309 
L 154.748695 260.404314 
L 154.76112 253.594249 
L 154.779912 250.051757 
L 154.834891 239.67504 
L 154.786655 228.098669 
L 154.736844 216.239516 
L 154.787919 192.219619 
L 154.864227 156.352423 
L 172.433808 156.333608 
L 189.850959 156.315086 
L 216.480178 156.290927 
L 242.961095 156.267164 
L 261.910833 156.344069 
L 295.975272 156.220378 
L 333.608769 156.257291 
" style="fill:#1a1a1a;stroke:#ffffff;stroke-linejoin:miter;stroke-width:4;"/>
   </g>
  </g>
 </g>
 <defs>
  <clipPath id="p624797ba35">
   <rect height="543.6" width="558" x="90" y="86.4"/>
  </clipPath>
 </defs>
</svg>
