<?xml version="1.0" encoding="utf-8" standalone="no"?>
<!DOCTYPE svg PUBLIC "-//W3C//DTD SVG 1.1//EN"
  "http://www.w3.org/Graphics/SVG/1.1/DTD/svg11.dtd">
<!-- Created with matplotlib (https://matplotlib.org/) -->
<svg height="720pt" version="1.1" viewBox="0 0 720 720" width="720pt" xmlns="http://www.w3.org/2000/svg" xmlns:xlink="http://www.w3.org/1999/xlink">
 <metadata>
  <rdf:RDF xmlns:cc="http://creativecommons.org/ns#" xmlns:dc="http://purl.org/dc/elements/1.1/" xmlns:rdf="http://www.w3.org/1999/02/22-rdf-syntax-ns#">
   <cc:Work>
    <dc:type rdf:resource="http://purl.org/dc/dcmitype/StillImage"/>
    <dc:date>2021-05-28T08:56:49.339706</dc:date>
    <dc:format>image/svg+xml</dc:format>
    <dc:creator>
     <cc:Agent>
      <dc:title>Matplotlib v3.3.3, https://matplotlib.org/</dc:title>
     </cc:Agent>
    </dc:creator>
   </cc:Work>
  </rdf:RDF>
 </metadata>
 <defs>
  <style type="text/css">*{stroke-linecap:butt;stroke-linejoin:round;}</style>
 </defs>
 <g id="figure_1">
  <g id="patch_1">
   <path d="M 0 720 
L 720 720 
L 720 0 
L 0 0 
z
" style="fill:none;"/>
  </g>
  <g id="axes_1">
   <g id="patch_2">
    <path clip-path="url(#p9137a61a5c)" d="M 183.093842 128.118367 
L 212.339887 128.126012 
L 226.573056 128.121039 
L 242.443777 128.13074 
L 247.728353 128.126674 
L 247.753057 128.12737 
L 276.487385 128.123197 
L 285.185148 128.128333 
L 292.518349 128.134164 
L 303.104618 128.131806 
L 320.472518 128.127869 
L 345.422314 128.131561 
L 345.430074 128.13156 
L 353.566528 128.132647 
L 354.694412 128.133085 
L 354.829795 128.133232 
L 356.118137 128.134643 
L 356.118404 131.863399 
L 356.118445 132.355479 
L 356.11871 136.014241 
L 356.118793 137.023854 
L 356.128925 140.670789 
L 356.098244 149.058596 
L 356.098277 150.31145 
L 356.087458 152.079437 
L 356.099095 153.900854 
L 356.093344 155.59507 
L 356.087611 157.991403 
L 356.093486 161.074575 
L 356.093522 162.499136 
L 356.076215 165.490736 
L 356.087884 168.553557 
L 356.087943 170.853216 
L 356.09382 174.038138 
L 356.088069 175.71709 
L 356.088124 177.853944 
L 356.094004 181.13554 
L 356.123082 185.190472 
L 356.163708 187.647849 
L 356.175349 189.662589 
L 356.186997 191.957174 
L 356.250789 194.501035 
L 356.308799 197.004205 
L 356.355204 198.927372 
L 356.355222 199.609136 
L 356.343671 201.140548 
L 356.390066 202.631253 
L 356.401677 203.506339 
L 356.424884 205.210732 
L 356.436493 206.024774 
L 356.419171 208.436373 
L 356.384483 210.964972 
L 356.35557 213.320603 
L 356.315075 215.910272 
L 356.315151 218.876421 
L 356.315199 220.784325 
L 356.321065 223.597857 
L 356.326904 225.353118 
L 356.332726 226.441904 
L 356.318315 226.834024 
L 356.323677 227.74584 
L 356.3237 228.681546 
L 356.345933 229.59775 
L 356.434748 230.468485 
L 356.501363 231.105281 
L 356.612385 231.904532 
L 356.7234 232.970188 
L 356.908434 234.2048 
L 357.123041 235.082021 
L 357.404266 236.193167 
L 357.596675 236.953425 
L 358.502016 240.358396 
L 360.52368 245.824773 
L 362.514551 250.702277 
L 364.66257 256.592087 
L 366.129504 262.159808 
L 366.601034 266.163048 
L 366.758234 270.166291 
L 366.601113 274.445631 
L 366.18206 278.58692 
L 365.343917 282.31409 
L 363.872256 286.212562 
L 361.022265 292.936166 
L 358.579426 297.013258 
L 355.485188 301.376478 
L 351.495292 306.240427 
L 347.831145 310.675211 
L 345.876959 313.321787 
L 343.922823 316.39753 
L 342.457293 320.045462 
L 340.828971 324.694806 
L 336.432642 337.498368 
L 330.991292 351.886114 
L 341.790814 355.693134 
L 359.922568 361.557523 
L 375.815548 365.847836 
L 389.947064 369.082603 
L 405.760832 372.042365 
L 427.807567 375.183469 
L 480.184338 382.346805 
L 494.831556 385.029702 
L 505.409867 387.831341 
L 517.005054 391.586497 
L 526.362332 395.22225 
L 536.532955 400.049766 
L 546.025195 405.294301 
L 557.237849 412.737962 
L 559.456384 414.294857 
L 566.87386 419.863333 
L 572.467046 424.824156 
L 578.546355 430.696066 
L 584.746837 437.580194 
L 589.792022 443.806168 
L 594.533011 450.183922 
L 598.422622 456.460263 
L 602.555066 463.647607 
L 606.322402 471.340955 
L 609.72457 479.641488 
L 612.488182 488.017775 
L 614.673928 496.773462 
L 616.191051 504.769848 
L 617.069858 512.285283 
L 617.704964 521.167058 
L 617.994501 587.829472 
L 536.543197 587.961643 
L 496.65632 588.127937 
L 454.845489 588.281633 
L 454.831681 588.106211 
L 454.839423 587.756808 
L 454.854448 587.312157 
L 454.86946 586.854867 
L 454.855447 586.499086 
L 454.834478 586.016302 
L 454.820452 585.654145 
L 454.791921 585.336493 
L 454.756437 584.866334 
L 454.749823 584.39629 
L 454.757583 584.015146 
L 454.765203 583.614987 
L 454.772938 583.322716 
L 454.758921 582.884425 
L 454.75942 582.54141 
L 454.752817 582.090368 
L 454.717161 581.740961 
L 454.667013 581.334308 
L 454.631352 581.023018 
L 454.566836 580.590986 
L 454.451654 580.247684 
L 454.358232 579.872781 
L 454.279193 579.510605 
L 454.149657 579.027686 
L 454.041729 578.703525 
L 453.883303 578.252344 
L 453.717612 577.870908 
L 453.55904 577.451493 
L 453.436594 577.159072 
L 453.285272 576.796777 
L 453.17007 576.485367 
L 453.033262 576.11031 
L 452.918084 575.722653 
L 452.810311 575.277853 
L 452.731423 574.839431 
L 452.616394 574.39463 
L 452.472178 574.083092 
L 452.234357 573.600025 
L 451.866348 573.161189 
L 451.642755 572.792387 
L 451.368791 572.309304 
L 451.16681 571.953256 
L 450.96497 571.603584 
L 450.633098 571.190254 
L 450.228798 570.789419 
L 449.824471 570.496723 
L 449.412884 570.222903 
L 448.921935 569.872942 
L 448.481466 569.57373 
L 448.055366 569.280907 
L 447.78834 569.058232 
L 447.283029 568.612759 
L 446.755924 568.250033 
L 446.192833 567.76005 
L 445.810284 567.359345 
L 445.254272 566.92022 
L 444.784901 566.601867 
L 444.293756 566.315392 
L 443.802608 566.047794 
L 443.289816 565.786695 
L 442.74816 565.461961 
L 442.379798 565.289898 
L 441.975283 565.092329 
L 441.527528 564.863115 
L 440.992979 564.595515 
L 440.566847 564.410684 
L 440.003406 564.200214 
L 439.519347 564.009015 
L 438.963165 563.766793 
L 438.573032 563.588353 
L 438.161399 563.397274 
L 437.655725 563.205937 
L 437.099396 562.995595 
L 436.535956 562.753373 
L 435.979766 562.568284 
L 435.5391 562.415221 
L 434.997139 562.230259 
L 434.505977 562.045438 
L 434.007541 561.873232 
L 433.653547 561.701161 
L 433.162384 561.50984 
L 432.663953 561.280503 
L 432.15828 561.044789 
L 431.840424 560.904613 
L 431.385389 560.707045 
L 430.901342 560.48396 
L 430.453576 560.305521 
L 429.991151 560.14607 
L 429.427684 559.986489 
L 428.929112 559.877792 
L 428.59672 559.820126 
L 428.148659 559.749575 
L 427.657182 559.698137 
L 427.12261 559.583064 
L 426.64565 559.493385 
L 426.110934 559.403816 
L 425.633988 559.307762 
L 425.20057 559.218324 
L 424.716368 559.116019 
L 424.203428 558.943693 
L 423.748388 558.752505 
L 423.293216 558.624812 
L 422.960825 558.529144 
L 422.505505 558.471347 
L 422.072085 558.388162 
L 421.68905 558.311368 
L 421.154317 558.234428 
L 415.088974 553.518784 
L 414.87257 553.118226 
L 414.54775 552.73664 
L 414.23033 552.336077 
L 413.956167 551.935367 
L 413.400123 551.451895 
L 412.959756 551.095557 
L 412.403707 550.669081 
L 411.876541 550.274497 
L 411.602221 550.077199 
L 411.04617 549.644472 
L 410.497375 549.230874 
L 410.049586 548.957059 
L 409.688465 548.772384 
L 409.204549 548.460426 
L 408.648492 548.091209 
L 408.251232 547.801021 
L 407.760204 547.410304 
L 407.247691 546.977595 
L 406.720374 546.627507 
L 406.315995 546.379199 
L 405.853689 546.105374 
L 405.340881 545.825183 
L 404.857106 545.468735 
L 404.402069 545.195036 
L 403.838751 544.800319 
L 403.369343 544.482126 
L 402.849421 544.151044 
L 402.415996 543.915488 
L 401.946443 543.647915 
L 401.484289 543.380606 
L 400.993108 543.074916 
L 400.487555 542.750336 
L 400.018131 542.406642 
L 399.577768 541.967689 
L 399.036361 541.47784 
L 398.487551 541.0705 
L 397.967626 540.675925 
L 397.519987 540.287841 
L 397.130109 539.836265 
L 396.689741 539.41644 
L 396.227732 538.939359 
L 395.751205 538.538523 
L 395.209649 538.074054 
L 394.79815 537.692361 
L 394.408267 537.291541 
L 394.01854 536.884471 
L 393.6937 536.483779 
L 393.397744 536.134093 
L 392.964616 535.669765 
L 392.531487 535.22444 
L 392.033326 534.823619 
L 391.535021 534.422661 
L 391.087376 533.971085 
L 390.762675 533.570394 
L 390.423462 533.087193 
L 390.178292 532.648498 
L 389.940251 532.209817 
L 389.731095 531.853759 
L 389.413651 531.389685 
L 389.103321 530.944502 
L 388.814604 530.588442 
L 388.453771 530.155997 
L 387.912189 529.659779 
L 387.464552 529.24621 
L 386.951854 528.819889 
L 386.424669 528.419058 
L 385.948113 528.081623 
L 385.391882 527.731561 
L 384.864823 527.336982 
L 384.366509 526.923414 
L 383.882708 526.516223 
L 383.434908 526.217032 
L 383.008735 525.962359 
L 382.582691 525.682309 
L 382.069873 525.319498 
L 381.643829 524.994943 
L 381.174397 524.651248 
L 380.67622 524.269436 
L 380.235531 523.976635 
L 379.773354 523.683834 
L 379.275018 523.397284 
L 378.805441 523.117223 
L 378.249345 522.735287 
L 377.736507 522.416984 
L 377.223669 522.098668 
L 376.761475 521.818633 
L 376.328183 521.513071 
L 375.829716 521.188393 
L 375.403679 520.946476 
L 374.854694 520.628175 
L 374.298451 520.335239 
L 373.735092 519.972308 
L 373.272896 519.654133 
L 372.781683 519.323082 
L 372.261725 518.998519 
L 371.712737 518.673719 
L 371.171005 518.368171 
L 370.687034 518.081626 
L 370.246479 517.845963 
L 369.719119 517.572157 
L 369.263906 517.361997 
L 368.787347 517.018321 
L 368.231083 516.712651 
L 367.761497 516.48974 
L 367.313541 516.323961 
L 366.829567 516.100926 
L 366.374494 515.859001 
L 365.926678 515.610588 
L 365.464332 515.305043 
L 365.03103 515.031378 
L 364.503665 514.713083 
L 364.070363 514.471046 
L 363.608031 514.22276 
L 363.109539 513.980724 
L 362.957842 513.923332 
L 362.345802 513.46191 
L 361.837062 513.139629 
L 361.300715 512.861604 
L 360.938265 512.703828 
L 360.373173 512.470309 
L 359.880514 512.293795 
L 359.402227 512.079015 
L 358.858907 511.877251 
L 358.431423 511.732366 
L 358.04037 511.631736 
L 357.670946 511.493089 
L 357.243604 511.354455 
L 356.729299 511.190683 
L 356.359733 511.051924 
L 355.925275 510.932419 
L 355.461645 510.800288 
L 354.940239 510.642893 
L 354.476608 510.472758 
L 353.933285 510.289999 
L 353.462539 510.164232 
L 353.078743 510.082731 
L 352.6588 509.994981 
L 352.238714 509.868977 
L 351.695677 509.749839 
L 351.217959 509.662215 
L 350.740098 509.57458 
L 350.327685 509.543962 
L 350.125043 509.525466 
L 349.661841 509.4951 
L 349.162494 509.458347 
L 348.757339 509.446732 
L 348.192671 509.333973 
L 347.649921 509.29736 
L 347.273667 509.272993 
L 346.84661 509.223363 
L 346.426809 509.154618 
L 345.948948 509.067123 
L 345.550633 508.966486 
L 345.362362 508.897109 
L 344.94213 508.745856 
L 344.49301 508.594603 
L 343.971457 508.418212 
L 343.609129 508.285834 
L 343.152894 508.15371 
L 342.740207 508.065827 
L 342.240714 507.978335 
L 341.798996 507.896966 
L 341.299646 507.828477 
L 340.807267 507.728221 
L 340.300644 507.659733 
L 339.801007 507.553102 
L 339.243595 507.478491 
L 338.845423 507.409749 
L 338.519828 507.372507 
L 338.100026 507.322881 
L 337.622306 507.273395 
L 337.14486 507.287405 
L 336.833926 507.326423 
L 336.363896 507.365947 
L 335.849885 507.272071 
L 335.408021 507.13345 
L 335.009832 507.039332 
L 334.626176 507.002332 
L 334.177631 506.990851 
L 333.699909 506.928616 
L 333.229301 506.828364 
L 332.686258 506.709126 
L 332.143359 506.621754 
L 331.622235 506.572399 
L 331.072353 506.542172 
L 330.898597 506.523554 
L 330.464566 506.512062 
L 329.921669 506.456458 
L 329.407657 506.362586 
L 329.002067 506.255719 
L 328.632779 506.167853 
L 328.176685 506.073866 
L 327.800139 505.979613 
L 327.264352 505.860378 
L 326.779372 505.791896 
L 326.251132 505.755284 
L 325.838732 505.750056 
L 325.353607 505.668824 
L 324.788932 505.549704 
L 324.275049 505.493977 
L 323.797471 505.46999 
L 323.399442 505.452011 
L 322.994152 505.383277 
L 322.5019 505.333801 
L 322.046093 505.290685 
L 321.481565 505.254215 
L 321.011097 505.172847 
L 320.489828 505.104497 
L 320.062908 505.054893 
L 319.664877 505.017901 
L 319.252186 504.955545 
L 318.825109 504.89319 
L 318.470482 504.868822 
L 318.043418 504.800092 
L 317.580062 504.69336 
L 317.087533 504.574128 
L 316.537517 504.50577 
L 316.04513 504.392789 
L 315.552745 504.298924 
L 315.140037 504.204817 
L 314.596843 504.047461 
L 314.104309 503.890089 
L 313.611775 503.732605 
L 313.090355 503.600627 
L 312.59071 503.494137 
L 312.170468 503.342775 
L 311.801029 503.204035 
L 311.424189 503.046294 
L 310.888106 502.869926 
L 310.4461 502.674185 
L 309.888241 502.472578 
L 309.431852 502.327708 
L 309.018866 502.182723 
L 308.461005 501.955614 
L 308.026096 501.740872 
L 307.526009 501.507121 
L 307.02578 501.273507 
L 306.576658 501.103273 
L 306.119975 500.875895 
L 305.590854 500.623158 
L 305.054621 500.408676 
L 304.627117 500.251067 
L 304.090737 499.998443 
L 303.648567 499.771078 
L 303.112041 499.486714 
L 302.546641 499.20234 
L 302.090098 498.987604 
L 301.611782 498.77937 
L 301.140872 498.615516 
L 300.575751 498.426529 
L 300.068693 498.256428 
L 299.540007 498.118208 
L 299.061981 497.967095 
L 298.526037 497.816124 
L 298.12045 497.709273 
L 297.765524 497.602292 
L 297.352677 497.476427 
L 296.889168 497.344328 
L 296.338707 497.199723 
L 296.005554 497.098992 
L 295.708548 496.998258 
L 295.281051 496.827902 
L 294.868059 496.689299 
L 294.303223 496.532071 
L 293.897782 496.469726 
L 293.384037 496.452148 
L 292.891932 496.396425 
L 292.399242 496.213576 
L 291.956922 495.979716 
L 291.427509 495.631852 
L 290.941638 495.35998 
L 290.521238 495.176999 
L 290.064985 495.051154 
L 289.609169 495.014433 
L 289.168463 495.174495 
L 286.854791 493.713545 
L 286.722537 493.224627 
L 286.547313 492.79947 
L 286.096994 492.375092 
L 285.538985 492.128871 
L 285.046142 491.908009 
L 284.589446 491.693282 
L 284.161782 491.491178 
L 283.726855 491.250946 
L 283.161293 490.941345 
L 282.624602 490.606101 
L 282.174881 490.321491 
L 281.703368 489.998879 
L 281.137497 489.632023 
L 280.666278 489.385533 
L 280.107971 489.075808 
L 279.680301 488.854705 
L 279.266725 488.569955 
L 278.758487 488.10757 
L 278.265075 487.727819 
L 277.699801 487.481716 
L 277.279394 487.304981 
L 276.830107 487.09662 
L 276.35179 486.894639 
L 275.895544 486.787917 
L 275.400831 486.385414 
L 275.082452 486.072402 
L 274.653911 485.666892 
L 274.102278 485.211141 
L 273.94273 485.08452 
L 273.471522 484.857162 
L 272.941516 484.382157 
L 272.614149 483.938256 
L 272.236117 483.481986 
L 271.713662 483.076864 
L 271.234749 482.735119 
L 270.69791 482.355377 
L 270.269657 482.007251 
L 269.840976 481.557376 
L 269.375986 481.08224 
L 268.867751 480.632613 
L 268.432236 480.265362 
L 267.917318 479.949126 
L 267.431142 479.601134 
L 267.060673 479.214623 
L 266.690188 478.828112 
L 266.189044 478.333981 
L 265.687914 477.846225 
L 265.157752 477.358473 
L 264.714825 476.946732 
L 264.322562 476.547599 
L 263.7924 476.072599 
L 263.291415 475.622975 
L 262.725232 475.14173 
L 262.245876 474.685727 
L 261.795393 474.216844 
L 261.287441 473.818103 
L 260.815342 473.368351 
L 260.372412 472.975726 
L 259.900442 472.532225 
L 259.537226 472.171232 
L 259.14466 471.702218 
L 258.904087 471.251823 
L 259.032682 470.857522 
L 259.038168 470.406344 
L 258.725154 469.943445 
L 258.455989 469.569438 
L 258.135875 469.119167 
L 257.793826 468.637282 
L 257.517267 468.231523 
L 257.153878 467.80051 
L 256.761175 467.306119 
L 256.325202 466.856252 
L 255.896781 466.457252 
L 255.482746 466.058126 
L 255.025154 465.608375 
L 254.66206 465.253622 
L 254.139282 464.778641 
L 253.652788 464.348022 
L 253.311474 464.031271 
L 252.759959 463.619914 
L 252.295541 463.297306 
L 251.976894 463.19659 
L 251.462406 463.007367 
L 251.013098 462.818147 
L 250.592829 462.666803 
L 250.136554 462.515727 
L 249.715988 462.300876 
L 249.193208 461.851263 
L 248.931292 461.477245 
L 248.676635 461.10949 
L 248.429103 460.722607 
L 248.152372 460.278709 
L 247.868534 459.88558 
L 247.432556 459.397576 
L 247.148716 458.998196 
L 246.864874 458.586053 
L 246.537633 458.148552 
L 246.152177 457.666791 
L 245.796042 457.2803 
L 245.316954 456.868687 
L 244.866744 456.463446 
L 244.387513 456.051833 
L 243.9665 455.697232 
L 243.574061 455.259979 
L 243.14548 454.85461 
L 242.608168 454.373374 
L 241.715973 453.321991 
L 241.377251 453.138485 
L 240.343133 452.783756 
L 239.901508 452.631796 
L 239.365945 452.441846 
L 239.162631 451.958947 
L 239.155045 451.679166 
L 239.089376 451.316759 
L 238.987559 450.954483 
L 238.820567 450.623959 
L 238.530603 450.249336 
L 238.276927 449.861819 
L 237.870953 449.385442 
L 237.407361 448.941077 
L 237.016069 448.515703 
L 236.668169 448.090198 
L 236.305754 447.67107 
L 236.015795 447.264557 
L 235.65353 446.88356 
L 235.218816 446.46457 
L 234.841898 446.051821 
L 234.631483 445.664185 
L 234.290828 445.187799 
L 233.841609 444.768812 
L 233.645722 444.438418 
L 233.449813 444.0064 
L 233.087398 443.606277 
L 232.631219 443.320932 
L 232.153272 443.003712 
L 231.834257 442.578204 
L 231.42117 442.09558 
L 231.030168 441.797223 
L 230.660343 441.301841 
L 230.35583 440.819086 
L 229.979038 440.425329 
L 229.529812 440.000107 
L 229.399258 439.784091 
L 229.109143 439.352078 
L 228.963746 438.888049 
L 228.47834 438.399188 
L 228.01458 437.903948 
L 227.63038 437.427696 
L 227.282474 437.027572 
L 226.782564 436.538715 
L 226.304583 436.170618 
L 225.92796 435.916892 
L 225.420953 435.523547 
L 224.942807 435.060052 
L 224.645593 434.723441 
L 224.290414 434.272564 
L 223.985915 433.885185 
L 223.65252 433.415064 
L 223.427416 432.944912 
L 223.065128 432.532166 
L 222.623319 432.221197 
L 222.18843 431.738706 
L 221.949099 431.300198 
L 221.717059 430.995442 
L 221.361881 430.569944 
L 220.890851 430.074709 
L 220.608281 429.750835 
L 220.202444 429.299981 
L 219.883406 428.842599 
L 219.607944 428.48697 
L 219.332485 428.150356 
L 218.818045 427.661494 
L 218.303758 427.22365 
L 217.847226 426.728289 
L 217.53546 426.334551 
L 217.173038 425.928171 
L 216.832365 425.477182 
L 216.621939 425.115041 
L 216.179949 424.67706 
L 215.759734 424.296219 
L 215.202027 423.826494 
L 214.694823 423.33127 
L 214.231053 422.886918 
L 213.767438 422.493448 
L 213.441438 422.169584 
L 213.122579 421.833106 
L 212.593601 421.357001 
L 212.166126 420.931659 
L 211.810931 420.480787 
L 211.491902 420.042535 
L 211.136707 419.597914 
L 210.593352 419.121951 
L 210.028381 418.664995 
L 209.579133 418.265148 
L 209.27476 417.87765 
L 208.810959 417.395172 
L 208.390744 416.995195 
L 208.04283 416.652336 
L 207.586436 416.201623 
L 207.238519 415.795257 
L 207.129742 415.636373 
L 206.88316 415.287131 
L 206.499082 414.842518 
L 206.085953 414.391785 
L 205.69478 414.093441 
L 205.223894 413.6936 
L 204.955673 413.331612 
L 204.629357 412.867986 
L 204.172827 412.404511 
L 203.60784 411.979313 
L 203.13695 411.579474 
L 202.600856 411.109766 
L 202.173206 410.665414 
L 201.760062 410.176429 
L 201.535413 409.903305 
L 201.260106 409.668459 
L 200.738532 409.217876 
L 200.318143 408.792526 
L 199.86177 408.405312 
L 199.340025 407.910225 
L 198.854593 407.440383 
L 198.434192 406.976904 
L 198.108031 406.589552 
L 197.810934 406.259313 
L 197.28934 405.808732 
L 196.77488 405.370777 
L 196.325738 404.95181 
L 195.840317 404.590095 
L 194.471104 403.415949 
L 194.333456 403.301715 
L 193.898681 402.9145 
L 193.492959 402.546406 
L 193.036383 402.076549 
L 192.645015 401.632082 
L 192.297059 401.200207 
L 191.963622 400.82561 
L 191.557741 400.406499 
L 191.217052 400.006526 
L 190.970441 399.657152 
L 190.535654 399.19368 
L 190.18043 398.736304 
L 189.702242 398.361977 
L 189.166269 397.987663 
L 188.709865 397.594193 
L 188.275082 397.1561 
L 187.833029 396.73076 
L 187.383903 396.407172 
L 186.927325 395.911953 
L 186.586452 395.435586 
L 186.253003 394.990983 
L 186.013495 394.558974 
L 185.810295 394.177713 
L 185.578033 393.707585 
L 185.41824 393.364444 
L 185.142564 392.881562 
L 184.794588 392.411585 
L 184.453726 391.986087 
L 184.055088 391.49712 
L 183.605758 391.033643 
L 183.214228 390.57004 
L 182.967926 390.328805 
L 182.598183 389.903327 
L 182.163376 389.414357 
L 181.627085 388.919284 
L 181.069468 388.557719 
L 180.598712 388.329663 
L 180.265263 387.910428 
L 179.989599 387.49118 
L 179.714082 387.084684 
L 179.525406 386.792444 
L 179.191942 386.32883 
L 178.829444 385.871598 
L 178.416275 385.414378 
L 178.090092 385.077902 
L 177.756647 384.684172 
L 177.502934 384.379308 
L 177.125892 383.890327 
L 176.835865 383.521964 
L 176.719981 383.388601 
L 176.379261 382.994997 
L 175.973201 382.525026 
L 175.545662 382.099689 
L 175.154263 381.680595 
L 174.762872 381.242499 
L 174.299177 380.810909 
L 173.770135 380.328466 
L 173.349864 379.941258 
L 172.907788 379.509539 
L 172.530912 379.071453 
L 172.16131 378.684096 
L 171.791709 378.303266 
L 171.385799 377.922294 
L 170.987148 377.496953 
L 170.784256 377.281102 
L 170.334933 376.811268 
L 169.900104 376.35417 
L 169.530348 375.94145 
L 169.160586 375.509602 
L 168.82002 375.179509 
L 168.320012 374.716189 
L 167.841774 374.233613 
L 167.435851 373.782772 
L 167.051558 373.319288 
L 166.674679 372.893831 
L 166.355743 372.51284 
L 166.022117 372.087373 
L 165.710291 371.642636 
L 165.463634 371.223386 
L 165.216845 370.797773 
L 164.99925 370.41652 
L 164.781516 370.048144 
L 164.404476 369.578171 
L 163.98416 369.133712 
L 163.57098 368.663873 
L 163.22299 368.282903 
L 162.867735 367.844679 
L 162.62836 367.463557 
L 162.345399 366.987073 
L 162.135072 366.644074 
L 161.866629 366.212079 
L 161.576417 365.722845 
L 161.315243 365.322727 
L 160.988885 364.858994 
L 160.785651 364.490502 
L 160.625842 364.115612 
L 160.5895 363.97573 
L 160.50198 363.549828 
L 160.414452 363.098423 
L 160.341482 362.767903 
L 160.232337 362.373873 
L 160.094325 362.062497 
L 159.898334 361.649499 
L 159.673316 361.223745 
L 159.491884 360.893365 
L 159.266857 360.442245 
L 159.048949 359.997487 
L 158.816807 359.552745 
L 158.62796 359.184238 
L 158.461044 358.891997 
L 158.20003 358.517258 
L 157.888169 358.047146 
L 157.590678 357.558041 
L 157.365674 357.183168 
L 157.169864 356.852792 
L 156.894173 356.433565 
L 156.582482 356.052589 
L 156.15476 355.595509 
L 155.864679 355.182649 
L 155.61788 354.718771 
L 155.465474 354.4074 
L 155.117315 353.943799 
L 154.740582 353.588343 
L 154.233298 353.156788 
L 153.85642 352.794957 
L 153.537459 352.432986 
L 153.196724 352.001138 
L 152.863077 351.524783 
L 152.616255 351.04828 
L 152.362321 350.584543 
L 152.166364 350.254169 
L 151.818327 349.784194 
L 151.687764 349.631711 
L 151.376078 349.28249 
L 150.962875 348.850787 
L 150.5064 348.41922 
L 149.962949 347.968538 
L 149.412238 347.517994 
L 149.02807 347.086285 
L 148.70167 346.590802 
L 148.368018 346.120825 
L 147.940442 345.708254 
L 147.54903 345.327302 
L 147.114171 344.851102 
L 146.874783 344.482736 
L 146.606332 344.044371 
L 146.374049 343.644137 
L 146.120111 343.193016 
L 145.960452 342.919903 
L 145.662956 342.424414 
L 145.409027 341.998808 
L 145.191264 341.60481 
L 144.930068 341.160192 
L 144.654522 340.791849 
L 144.321013 340.379005 
L 144.016433 340.023409 
L 143.502001 339.553721 
L 143.030868 339.122162 
L 142.545486 338.728737 
L 142.052711 338.284421 
L 141.71906 337.839837 
L 141.428992 337.471487 
L 141.088224 337.071397 
L 140.761996 336.652302 
L 140.558742 336.283816 
L 140.449593 335.883287 
L 140.413091 335.711653 
L 140.332814 335.285751 
L 140.252566 334.942484 
L 140.135966 334.446696 
L 140.077487 334.077908 
L 140.040773 333.709126 
L 139.945818 333.238723 
L 139.851179 332.857318 
L 139.712976 332.456935 
L 139.509711 332.024804 
L 139.205102 331.605703 
L 138.791885 331.186633 
L 138.545213 330.78013 
L 138.407168 330.424252 
L 138.095284 329.966899 
L 137.819557 329.515787 
L 138.281726 329.025364 
L 138.773969 329.1135 
L 139.280417 329.08088 
L 139.692611 328.946513 
L 140.061358 328.761527 
L 140.480633 328.525521 
L 140.856669 328.423043 
L 141.413614 328.288511 
L 141.926798 327.944218 
L 142.092469 327.454254 
L 142.20021 326.977169 
L 142.351396 326.582583 
L 142.524519 326.270624 
L 142.726687 325.939668 
L 142.928526 325.481436 
L 143.07969 325.023217 
L 143.303335 324.641249 
L 143.801965 324.227078 
L 144.293551 323.978178 
L 144.799668 323.761153 
L 145.240893 323.633169 
L 145.674865 323.524302 
L 146.108835 323.409059 
L 146.629485 323.268302 
L 147.063437 323.102179 
L 147.598605 322.916777 
L 148.083257 322.820523 
L 148.53177 322.768922 
L 149.023702 322.729924 
L 149.544679 322.709933 
L 149.993202 322.690075 
L 150.347777 322.670366 
L 150.825335 322.637748 
L 151.20154 322.598907 
L 151.635538 322.560051 
L 152.026263 322.521206 
L 152.547083 322.456712 
L 153.089675 322.373085 
L 153.487504 322.296098 
L 154.001064 322.187101 
L 154.42793 322.103618 
L 154.956006 322.02636 
L 155.476835 321.98737 
L 156.019589 321.961002 
L 156.533333 322.017389 
L 156.916952 322.054807 
L 157.474077 322.009308 
L 157.929701 321.894066 
L 158.153878 321.84289 
L 158.710993 321.765502 
L 159.231973 321.75188 
L 159.7746 321.77002 
L 160.230364 321.68667 
L 160.606401 321.565186 
L 160.982244 321.284696 
L 161.177017 320.940995 
L 161.371759 320.501771 
L 161.472442 320.202711 
L 161.623786 319.814503 
L 161.731729 319.470949 
L 161.904852 319.082736 
L 162.049092 318.77729 
L 162.214809 318.37634 
L 162.409567 317.981746 
L 162.611422 317.523518 
L 162.798921 317.128813 
L 163.01515 316.657955 
L 163.166314 316.193364 
L 163.281497 315.786176 
L 163.374925 315.448989 
L 163.497384 315.092668 
L 163.612581 314.723597 
L 163.705963 314.291024 
L 163.78469 313.832952 
L 163.899707 313.349493 
L 163.949684 312.904305 
L 163.956272 312.541761 
L 163.977367 312.18559 
L 163.983932 311.708659 
L 163.976145 311.397 
L 164.004341 310.945441 
L 164.032551 310.538375 
L 164.068172 310.156823 
L 164.111058 309.838776 
L 164.146681 309.463474 
L 164.196526 309.050039 
L 164.203092 308.617613 
L 164.224177 308.185058 
L 164.266752 307.739871 
L 164.237139 307.282064 
L 164.12783 306.798911 
L 163.946046 306.341391 
L 163.815263 305.96638 
L 163.763729 305.470449 
L 163.777395 304.98714 
L 163.762331 304.580097 
L 163.667383 304.090565 
L 163.645057 303.677261 
L 163.608222 303.295851 
L 163.624732 302.801415 
L 163.596501 302.661394 
L 163.439492 302.184003 
L 163.325373 301.840242 
L 163.267473 301.601892 
L 163.204798 301.343828 
L 163.134226 300.96204 
L 163.092684 300.555003 
L 163.051277 300.122589 
L 162.973826 299.645429 
L 162.889152 299.193636 
L 162.775552 298.74185 
L 162.632795 298.321588 
L 162.454283 297.825063 
L 162.332766 297.500294 
L 162.204796 297.029397 
L 162.141879 296.552233 
L 162.078831 296.113311 
L 162.044542 295.687271 
L 161.995348 295.388249 
L 161.881755 294.917336 
L 161.732143 294.433568 
L 161.646898 294.070786 
L 161.611555 293.905401 
L 161.555361 293.529984 
L 161.535315 293.173949 
L 161.573745 292.678132 
L 161.56823 292.309342 
L 161.461894 291.832189 
L 161.218324 291.335293 
L 161.05366 290.972293 
L 160.88213 290.507396 
L 160.775534 290.106502 
L 160.712614 289.629451 
L 160.663947 289.203289 
L 160.608285 288.719873 
L 160.5162 288.29346 
L 160.416593 287.937069 
L 160.317105 287.555288 
L 160.210235 287.192399 
L 160.074742 286.797751 
L 159.881575 286.339235 
L 159.745669 285.988979 
L 159.588399 285.606963 
L 159.409483 285.199324 
L 159.259049 284.868074 
L 159.044257 284.409564 
L 158.814911 283.938181 
L 158.628883 283.505042 
L 158.500223 283.161285 
L 158.263912 282.677153 
L 158.048832 282.256647 
L 157.804852 281.829773 
L 157.488561 281.42167 
L 157.186789 281.007187 
L 156.892401 280.541947 
L 156.648154 280.172205 
L 156.368016 279.751467 
L 156.224594 279.496587 
L 156.024161 279.038087 
L 155.938253 278.834323 
L 155.816736 278.528682 
L 155.681232 278.11492 
L 155.552459 277.82192 
L 155.272579 277.32491 
L 154.963678 276.891428 
L 154.647246 276.495953 
L 154.345337 276.11335 
L 154.115208 275.826365 
L 153.820401 275.437384 
L 153.42468 275.016177 
L 153.079335 274.627073 
L 152.690994 274.142357 
L 152.317159 273.657637 
L 151.892783 273.160042 
L 151.561964 272.751945 
L 151.267304 272.343838 
L 150.936486 271.941992 
L 150.605798 271.502017 
L 150.260872 271.017528 
L 149.9303 270.545799 
L 149.614145 270.10582 
L 149.225662 269.67835 
L 148.844032 269.308147 
L 148.571013 268.919162 
L 148.269489 268.4348 
L 148.025502 268.020681 
L 147.839447 267.587544 
L 147.617095 267.167168 
L 147.380367 266.752921 
L 147.136378 266.338677 
L 146.86362 265.886311 
L 146.583596 265.421071 
L 146.26756 264.968467 
L 145.922496 264.515621 
L 145.69261 264.171507 
L 145.448352 263.808144 
L 145.196834 263.444783 
L 144.823006 262.972818 
L 144.376838 262.481483 
L 143.90903 261.990154 
L 143.585719 261.505675 
L 143.407053 261.047284 
L 143.337012 260.563748 
L 143.273534 260.201099 
L 143.174302 259.736685 
L 143.075347 259.25302 
L 143.019008 258.909496 
L 142.898272 258.425849 
L 142.841272 258.22858 
L 142.626305 257.776324 
L 142.411221 257.393965 
L 142.145442 256.97334 
L 141.930354 256.58473 
L 141.563626 256.119127 
L 141.182528 255.64079 
L 140.938515 255.220297 
L 140.752195 254.825416 
L 140.544607 254.354032 
L 140.329791 253.895527 
L 140.100576 253.417773 
L 139.885606 252.965519 
L 139.713531 252.640655 
L 139.48418 252.181904 
L 139.405388 251.997267 
L 139.190566 251.526011 
L 139.040382 251.150259 
L 138.85434 250.742627 
L 138.674852 250.430379 
L 138.445384 250.009883 
L 138.194244 249.576641 
L 137.921347 249.130529 
L 137.634327 248.646167 
L 137.383202 248.219301 
L 137.132071 247.773183 
L 136.880672 247.378071 
L 136.578997 246.919091 
L 136.377891 246.632228 
L 136.148138 246.256237 
L 135.911657 245.778487 
L 135.775867 245.415596 
L 135.69049 245.097334 
L 135.519074 244.638943 
L 135.238774 244.243715 
L 134.676472 243.860055 
L 134.207442 243.622899 
L 133.826191 243.151053 
L 133.45206 242.723599 
L 133.005086 242.423042 
L 132.602183 241.957341 
L 132.705659 241.474507 
L 132.837768 241.042795 
L 132.745789 240.584632 
L 132.508904 240.183154 
L 132.3227 239.781899 
L 132.194701 239.323621 
L 132.173722 239.145607 
L 132.132554 238.655813 
L 132.119763 238.293388 
L 132.121075 237.994603 
L 132.13731 237.587802 
L 132.1459 237.295392 
L 132.133107 236.926466 
L 132.055514 236.493939 
L 132.064349 236.13152 
L 132.066074 235.756477 
L 132.061064 235.260547 
L 132.062519 234.923496 
L 132.07151 234.561202 
L 132.094873 234.179777 
L 132.147539 233.734962 
L 132.206787 233.417283 
L 132.309732 233.036211 
L 132.434716 232.578998 
L 132.509159 232.12155 
L 132.554297 231.721116 
L 132.56974 231.517714 
L 132.592839 231.19367 
L 132.60156 230.869381 
L 132.62545 230.373555 
L 132.634309 230.036639 
L 132.650409 229.648841 
L 132.681567 229.172153 
L 132.719845 228.701838 
L 132.751299 228.368242 
L 132.76538 228.218896 
L 132.688053 227.73535 
L 132.638831 227.410952 
L 132.582468 227.067417 
L 132.483382 226.609268 
L 132.376884 226.163736 
L 132.306812 225.667574 
L 132.316185 225.184392 
L 132.318167 224.733077 
L 132.305383 224.389667 
L 132.162853 223.912279 
L 132.055696 223.613013 
L 131.86962 223.18638 
L 131.697921 222.753368 
L 131.490338 222.301114 
L 131.296993 221.855369 
L 131.161462 221.441598 
L 131.047439 221.0597 
L 130.933422 220.690441 
L 130.819273 220.353048 
L 130.640584 219.888284 
L 130.447372 219.417037 
L 130.275412 219.054045 
L 130.06767 218.601804 
L 129.838313 218.143193 
L 129.687993 217.818312 
L 129.501909 217.378941 
L 129.323216 216.907814 
L 129.122728 216.442945 
L 128.900487 216.016073 
L 128.641953 215.620853 
L 128.318481 215.18101 
L 127.893645 214.746947 
L 127.490595 214.325892 
L 127.362449 213.874003 
L 127.320467 213.543228 
L 127.300812 213.11081 
L 127.375245 212.627871 
L 127.477918 212.316818 
L 127.733156 211.859954 
L 128.089101 211.498947 
L 128.539657 211.00491 
L 128.859977 210.554653 
L 129.05675 210.224821 
L 129.137772 209.881896 
L 129.153615 209.570356 
L 129.169858 209.189071 
L 129.056086 208.762556 
L 128.855475 208.316801 
L 128.61146 207.921702 
L 128.396063 207.571225 
L 128.130385 207.118738 
L 127.958556 206.73662 
L 127.830676 206.240226 
L 127.774445 205.877576 
L 127.682587 205.387673 
L 127.647877 205.050657 
L 127.591785 204.681632 
L 127.484623 204.382504 
L 127.276742 203.955641 
L 127.018204 203.56691 
L 126.795815 203.140052 
L 126.623851 202.783312 
L 126.401735 202.331076 
L 126.2085 201.859829 
L 126.015288 201.414073 
L 125.865234 201.019322 
L 125.700639 200.611825 
L 125.557838 200.19807 
L 125.408175 199.707933 
L 125.229471 199.230432 
L 125.079137 198.886437 
L 124.856884 198.453329 
L 124.627633 197.962841 
L 124.434414 197.504333 
L 124.291342 197.166838 
L 124.09812 196.701967 
L 123.868743 196.25611 
L 123.797075 196.11599 
L 123.610974 195.657493 
L 123.468159 195.249989 
L 123.361133 194.944487 
L 123.232833 194.517976 
L 123.097285 194.091468 
L 122.954482 193.677714 
L 122.818664 193.327465 
L 122.690115 192.958211 
L 122.504154 192.49984 
L 122.339692 192.079591 
L 122.189494 191.691217 
L 122.010928 191.213716 
L 121.824959 190.736093 
L 121.696402 190.385967 
L 121.553327 190.010342 
L 121.396389 189.539211 
L 121.268236 189.093699 
L 121.154327 188.667309 
L 120.97576 188.189809 
L 120.761022 187.693067 
L 120.603417 187.336449 
L 120.481854 187.037077 
L 120.31027 186.578701 
L 120.160464 186.107693 
L 120.046824 185.643175 
L 120.005499 185.18526 
L 120.065419 184.734079 
L 120.089025 184.295535 
L 120.076624 183.856739 
L 120.078208 183.500698 
L 120.094682 183.030278 
L 120.082403 182.540738 
L 120.084517 182.083061 
L 120.093083 181.777899 
L 120.182039 181.301331 
L 120.372076 180.84436 
L 120.634202 180.470251 
L 121.090983 180.198733 
L 121.583547 180.047957 
L 122.119132 179.954686 
L 122.603781 179.950179 
L 123.081296 179.907544 
L 123.523568 179.667661 
L 124.031953 179.186481 
L 124.250787 178.78037 
L 124.498522 178.36815 
L 125.006648 177.950466 
L 125.434146 177.793209 
L 125.890936 177.534321 
L 126.095257 177.14723 
L 126.292555 176.677631 
L 126.497137 176.227033 
L 126.745122 175.75742 
L 126.971476 175.275186 
L 127.169066 174.780085 
L 127.315691 174.34188 
L 127.440813 173.852926 
L 127.558417 173.440095 
L 127.690784 172.944638 
L 127.967691 172.481642 
L 128.479652 172.814294 
L 128.513856 173.278461 
L 128.534174 173.58374 
L 128.510423 174.028659 
L 128.587892 174.486688 
L 128.709181 174.855945 
L 128.838143 175.148941 
L 129.02437 175.556558 
L 129.311429 176.040779 
L 129.844509 176.506952 
L 130.343284 176.578829 
L 130.834928 176.618829 
L 131.326577 176.671706 
L 131.818748 176.597319 
L 132.355653 176.211522 
L 132.509419 175.786192 
L 132.670706 175.290853 
L 132.803081 174.808273 
L 132.913696 174.35094 
L 133.038821 173.861861 
L 133.127247 173.499807 
L 133.215943 173.061483 
L 133.304786 172.635797 
L 133.371563 172.25461 
L 133.423694 171.92432 
L 133.483618 171.454 
L 133.536155 171.028324 
L 133.6032 170.602507 
L 133.684769 170.138819 
L 133.780995 169.656 
L 133.818875 169.287322 
L 133.857025 168.842511 
L 133.866272 168.397471 
L 133.853732 167.946049 
L 133.847267 167.787033 
L 133.863778 167.348491 
L 133.865742 166.884313 
L 133.867208 166.572777 
L 133.811249 166.140257 
L 133.726507 165.682229 
L 133.69986 165.198932 
L 133.738003 164.735007 
L 133.899153 164.28416 
L 134.016374 163.973104 
L 134.184117 163.636781 
L 134.373931 163.268811 
L 134.527823 162.824354 
L 134.62378 162.379665 
L 134.654808 161.922104 
L 134.707465 161.470926 
L 134.738224 161.057746 
L 134.718704 160.593586 
L 134.684117 160.237431 
L 134.635548 159.766767 
L 134.49288 159.333883 
L 134.458293 158.977728 
L 134.452894 158.583572 
L 134.41871 158.125656 
L 134.40604 157.744116 
L 134.393114 157.400844 
L 134.387579 157.025678 
L 134.367508 156.650516 
L 134.326208 156.198977 
L 134.320673 155.823824 
L 134.380457 155.391758 
L 134.411083 155.003968 
L 134.427454 154.57179 
L 134.43669 154.133113 
L 134.243199 153.725497 
L 134.035458 153.286006 
L 133.937836 153.041882 
L 133.825378 152.723128 
L 133.685546 152.264241 
L 133.595573 151.875848 
L 133.441207 151.429591 
L 133.279589 150.970586 
L 133.096605 150.486083 
L 132.862368 150.058352 
L 132.794728 149.612834 
L 133.271734 149.673592 
L 133.743136 149.594461 
L 133.62467 149.161196 
L 133.547967 148.887312 
L 133.430188 148.390415 
L 133.290632 147.912651 
L 133.150507 147.472891 
L 132.967661 146.981888 
L 132.840833 146.656763 
L 132.672353 146.16588 
L 132.524843 145.74525 
L 132.398981 145.337378 
L 132.2794 145.012251 
L 132.146413 144.591616 
L 131.990818 144.253498 
L 131.792467 143.845134 
L 131.60084 143.487636 
L 131.338242 142.996031 
L 131.104016 142.5683 
L 130.91265 142.185437 
L 130.736647 141.726311 
L 130.603521 141.318429 
L 130.346947 140.947836 
L 130.119563 140.545606 
L 129.892185 140.156003 
L 129.686019 139.798385 
L 129.36521 139.344677 
L 129.001246 138.858728 
L 128.520269 138.486313 
L 128.068609 138.076023 
L 127.849037 137.629412 
L 127.780294 137.291894 
L 127.553309 136.857912 
L 127.131258 136.396971 
L 126.890037 135.937364 
L 126.755656 135.643871 
L 126.564698 135.222879 
L 126.438692 134.827747 
L 126.356797 134.356605 
L 126.289686 133.860194 
L 126.185188 133.484308 
L 126.066443 133.089298 
L 125.904251 132.681175 
L 125.750023 132.209555 
L 125.689225 131.802152 
L 125.578687 131.311754 
L 125.474051 130.948619 
L 125.406664 130.477586 
L 125.367098 130.114944 
L 125.334095 129.822171 
L 125.243979 129.452781 
L 125.140714 128.956143 
L 125.116756 128.485473 
L 125.082084 128.149833 
L 147.9459 128.127001 
L 154.958486 128.129129 
L 168.653525 128.118889 
L 183.093842 128.118367 
" style="fill:#1a1a1a;stroke:#ffffff;stroke-linejoin:miter;stroke-width:4;"/>
   </g>
  </g>
 </g>
 <defs>
  <clipPath id="p9137a61a5c">
   <rect height="543.6" width="558" x="90" y="86.4"/>
  </clipPath>
 </defs>
</svg>
