<?xml version="1.0" encoding="utf-8" standalone="no"?>
<!DOCTYPE svg PUBLIC "-//W3C//DTD SVG 1.1//EN"
  "http://www.w3.org/Graphics/SVG/1.1/DTD/svg11.dtd">
<!-- Created with matplotlib (https://matplotlib.org/) -->
<svg height="720pt" version="1.1" viewBox="0 0 720 720" width="720pt" xmlns="http://www.w3.org/2000/svg" xmlns:xlink="http://www.w3.org/1999/xlink">
 <metadata>
  <rdf:RDF xmlns:cc="http://creativecommons.org/ns#" xmlns:dc="http://purl.org/dc/elements/1.1/" xmlns:rdf="http://www.w3.org/1999/02/22-rdf-syntax-ns#">
   <cc:Work>
    <dc:type rdf:resource="http://purl.org/dc/dcmitype/StillImage"/>
    <dc:date>2021-05-28T08:56:49.837687</dc:date>
    <dc:format>image/svg+xml</dc:format>
    <dc:creator>
     <cc:Agent>
      <dc:title>Matplotlib v3.3.3, https://matplotlib.org/</dc:title>
     </cc:Agent>
    </dc:creator>
   </cc:Work>
  </rdf:RDF>
 </metadata>
 <defs>
  <style type="text/css">*{stroke-linecap:butt;stroke-linejoin:round;}</style>
 </defs>
 <g id="figure_1">
  <g id="patch_1">
   <path d="M 0 720 
L 720 720 
L 720 0 
L 0 0 
z
" style="fill:none;"/>
  </g>
  <g id="axes_1">
   <g id="patch_2">
    <path clip-path="url(#p1921515ffb)" d="M 387.411873 196.628115 
L 461.681384 196.684922 
L 589.223412 196.694846 
L 589.482854 205.101624 
L 590.336795 209.943729 
L 590.708114 214.169303 
L 590.991559 220.769708 
L 591.019373 256.612696 
L 591.015634 264.134144 
L 591.01769 274.147496 
L 591.013241 294.150911 
L 591.026817 315.195854 
L 591.032965 324.728752 
L 586.50819 328.468565 
L 584.279591 330.293825 
L 529.78092 374.932083 
L 468.968606 424.752191 
L 446.801309 442.91196 
L 368.220288 507.292268 
L 323.294776 544.109872 
L 323.253507 544.148347 
L 311.634476 553.674859 
L 309.056709 555.774725 
L 280.667172 555.933236 
L 201.079394 555.992743 
L 147.11902 555.825905 
L 147.100875 554.732089 
L 146.967035 549.826635 
L 147.078337 546.69163 
L 147.440178 534.551267 
L 147.410445 525.521053 
L 147.437406 517.792802 
L 147.724106 513.020095 
L 147.811454 508.426419 
L 147.843364 502.831232 
L 147.796503 490.175626 
L 147.774973 479.540301 
L 147.388053 431.945583 
L 147.36425 400.167447 
L 147.911159 389.463399 
L 149.103476 381.767498 
L 151.133728 374.831654 
L 154.814987 365.562093 
L 192.459342 280.427615 
L 196.827233 270.528597 
L 201.10562 260.028444 
L 203.997454 251.609133 
L 205.618861 244.229976 
L 207.125379 236.188431 
L 207.940118 227.105806 
L 207.933733 219.398469 
L 207.454601 211.768472 
L 206.103618 203.025364 
L 204.364419 194.758933 
L 201.849971 185.856312 
L 197.838707 174.010428 
L 245.619817 163.456432 
L 253.443452 161.857643 
L 260.199967 160.841154 
L 266.333784 160.407257 
L 273.26723 160.483832 
L 282.644772 161.382033 
L 290.971163 163.2132 
L 299.648621 166.00601 
L 326.411648 178.352486 
L 345.491974 187.374786 
L 352.057686 190.358894 
L 359.444838 192.862848 
L 367.418662 195.078727 
L 375.990354 196.237587 
L 387.411873 196.628115 
" style="fill:#1a1a1a;stroke:#ffffff;stroke-linejoin:miter;stroke-width:4;"/>
   </g>
  </g>
 </g>
 <defs>
  <clipPath id="p1921515ffb">
   <rect height="543.6" width="558" x="90" y="86.4"/>
  </clipPath>
 </defs>
</svg>
