<?xml version="1.0" encoding="utf-8" standalone="no"?>
<!DOCTYPE svg PUBLIC "-//W3C//DTD SVG 1.1//EN"
  "http://www.w3.org/Graphics/SVG/1.1/DTD/svg11.dtd">
<!-- Created with matplotlib (https://matplotlib.org/) -->
<svg height="720pt" version="1.1" viewBox="0 0 720 720" width="720pt" xmlns="http://www.w3.org/2000/svg" xmlns:xlink="http://www.w3.org/1999/xlink">
 <metadata>
  <rdf:RDF xmlns:cc="http://creativecommons.org/ns#" xmlns:dc="http://purl.org/dc/elements/1.1/" xmlns:rdf="http://www.w3.org/1999/02/22-rdf-syntax-ns#">
   <cc:Work>
    <dc:type rdf:resource="http://purl.org/dc/dcmitype/StillImage"/>
    <dc:date>2021-05-28T08:56:47.982332</dc:date>
    <dc:format>image/svg+xml</dc:format>
    <dc:creator>
     <cc:Agent>
      <dc:title>Matplotlib v3.3.3, https://matplotlib.org/</dc:title>
     </cc:Agent>
    </dc:creator>
   </cc:Work>
  </rdf:RDF>
 </metadata>
 <defs>
  <style type="text/css">*{stroke-linecap:butt;stroke-linejoin:round;}</style>
 </defs>
 <g id="figure_1">
  <g id="patch_1">
   <path d="M 0 720 
L 720 720 
L 720 0 
L 0 0 
z
" style="fill:none;"/>
  </g>
  <g id="axes_1">
   <g id="patch_2">
    <path clip-path="url(#p35ef60c728)" d="M 351.337821 147.77863 
L 353.56566 147.782445 
L 374.330168 147.735898 
L 392.360123 147.702254 
L 401.278021 147.687985 
L 421.270277 147.65627 
L 435.429859 147.634119 
L 438.992059 147.640339 
L 442.066707 147.64571 
L 442.963662 147.48826 
L 444.928348 147.493794 
L 445.788581 147.501303 
L 446.440263 147.480269 
L 447.999962 148.029344 
L 448.847844 148.261356 
L 449.6507 148.465457 
L 450.608011 148.666899 
L 451.592271 148.793564 
L 452.398748 148.862172 
L 453.341889 148.930531 
L 456.690283 149.017918 
L 466.703123 148.937043 
L 470.167318 148.722614 
L 472.617723 147.418231 
L 536.875474 147.571405 
L 537.348411 249.579079 
L 537.685255 261.917415 
L 539.368479 274.99359 
L 542.153599 288.444196 
L 546.256909 300.669277 
L 550.686322 311.200088 
L 595.523228 396.677041 
L 597.87085 401.368801 
L 599.777401 406.493111 
L 600.926794 411.888603 
L 601.195274 418.634968 
L 600.584466 427.433871 
L 600.348007 434.289055 
L 600.389972 438.721025 
L 600.637573 442.363975 
L 600.967324 447.062351 
L 601.965026 460.03315 
L 602.634051 466.033133 
L 602.979752 472.47036 
L 602.709438 478.023452 
L 602.105955 482.450496 
L 600.654434 487.72396 
L 598.94599 492.114158 
L 596.31533 496.780685 
L 583.760932 515.199353 
L 542.167305 568.981769 
L 541.896708 568.591578 
L 541.529575 567.869985 
L 541.483394 567.628893 
L 541.433755 567.099661 
L 541.371015 566.37552 
L 541.278786 565.939596 
L 541.042238 565.226184 
L 540.730818 564.615682 
L 540.265806 563.88585 
L 540.07464 563.348622 
L 539.795195 562.682094 
L 539.452316 562.174205 
L 539.063861 561.499477 
L 538.697286 560.833651 
L 538.486592 560.463944 
L 538.210108 560.0576 
L 537.843273 559.373308 
L 537.608624 558.827197 
L 537.253721 558.217119 
L 536.920438 557.606821 
L 536.610377 557.126484 
L 536.233354 556.479511 
L 535.811814 555.758582 
L 535.47827 555.120309 
L 535.133223 554.426654 
L 534.940407 553.740776 
L 534.606321 553.05608 
L 534.36155 552.57508 
L 534.017347 551.964984 
L 533.738155 551.326433 
L 533.416326 550.762557 
L 533.095341 550.272916 
L 532.707633 549.644613 
L 532.33145 549.090525 
L 532.009078 548.470884 
L 531.665107 547.869949 
L 531.463556 547.379365 
L 531.140598 546.703957 
L 530.807308 546.09366 
L 530.595052 545.603095 
L 530.315381 544.936588 
L 530.058302 544.325608 
L 529.723691 543.603961 
L 529.412235 542.993443 
L 529.046683 542.411362 
L 528.66965 541.773533 
L 528.303837 541.16366 
L 527.872145 540.49852 
L 527.428495 539.749823 
L 527.083459 539.065495 
L 526.871976 538.630515 
L 526.571244 538.029304 
L 526.293102 537.474331 
L 526.027005 537.021529 
L 525.67213 536.429922 
L 525.361233 535.875354 
L 525.016735 535.237286 
L 524.805251 534.802489 
L 524.570893 534.293498 
L 524.323406 533.570984 
L 524.142884 533.015089 
L 523.895633 532.311024 
L 523.704147 531.736681 
L 523.425809 531.181709 
L 522.723 530.574812 
L 521.896072 530.517387 
L 521.353856 530.633707 
L 520.779663 530.806237 
L 520.215588 530.913637 
L 519.467277 531.050456 
L 518.907971 530.646613 
L 518.845776 529.978259 
L 519.457493 529.294261 
L 520.138016 528.916408 
L 520.967528 528.267679 
L 521.123689 527.681016 
L 520.986273 527.068911 
L 520.79405 526.448145 
L 520.459899 525.754109 
L 520.115936 525.162667 
L 519.684816 524.553278 
L 519.165931 523.870359 
L 518.692107 523.31718 
L 518.118369 522.606932 
L 517.653622 521.90492 
L 517.463213 521.423461 
L 517.150399 520.701413 
L 516.903466 520.034649 
L 516.666652 519.3121 
L 516.46424 518.737796 
L 516.10881 518.090607 
L 515.720535 517.415685 
L 515.388308 516.898458 
L 515.03396 516.344154 
L 514.744888 515.798528 
L 514.433954 515.225313 
L 514.22307 514.864752 
L 513.967598 514.393101 
L 513.578564 513.671921 
L 513.081787 513.007432 
L 512.574961 512.445172 
L 512.11261 511.94756 
L 511.267137 511.221161 
L 510.651834 510.67866 
L 510.209975 510.069294 
L 509.745216 509.367266 
L 509.456985 508.896039 
L 509.199341 508.238622 
L 509.006281 507.543441 
L 508.966694 506.939939 
L 508.979971 506.224277 
L 508.81059 505.677506 
L 508.313807 505.022344 
L 507.818173 504.478533 
L 507.201194 503.787384 
L 506.628993 503.188491 
L 505.90297 502.46115 
L 505.407007 501.880224 
L 504.942806 501.233964 
L 504.631365 500.642103 
L 504.27748 500.115593 
L 503.823913 499.441541 
L 503.622077 498.932312 
L 503.473749 498.329553 
L 503.423543 497.753882 
L 503.2763 497.244189 
L 503.162423 496.80849 
L 503.015722 496.34524 
L 502.914369 496.048846 
L 502.55996 495.475895 
L 501.888613 494.794353 
L 501.679822 494.591951 
L 501.108178 494.058153 
L 500.569075 493.514789 
L 499.898437 492.861222 
L 499.194024 492.133481 
L 498.664209 491.450773 
L 498.486569 491.12709 
L 498.120457 490.498594 
L 497.721023 489.814555 
L 497.355127 489.195366 
L 497.045588 488.770806 
L 496.603733 488.17077 
L 496.086178 487.599393 
L 495.556903 486.97227 
L 494.940964 486.35536 
L 494.444749 485.765131 
L 493.720851 485.214221 
L 492.942031 484.626677 
L 492.119465 484.002277 
L 491.264684 483.424744 
L 490.476332 482.957896 
L 489.688999 482.56563 
L 488.912606 482.182322 
L 488.180192 481.826728 
L 487.468623 481.424288 
L 486.624994 480.865206 
L 485.934694 480.397617 
L 485.156713 479.884311 
L 484.390148 479.408103 
L 483.775545 478.911873 
L 483.028688 478.259001 
L 482.33517 477.53125 
L 481.961599 477.190736 
L 481.151356 476.714955 
L 480.451218 476.340474 
L 479.597725 475.864974 
L 478.820563 475.426089 
L 478.25074 475.031626 
L 477.417283 474.426088 
L 476.596567 473.959655 
L 475.852444 473.557463 
L 475.250687 473.228518 
L 474.463056 472.808304 
L 473.807462 472.53539 
L 473.109448 472.337354 
L 472.585043 472.128399 
L 472.126958 471.993194 
L 471.275133 471.666514 
L 470.564874 471.366292 
L 469.789292 471.057595 
L 469.004115 470.850925 
L 468.206909 470.542269 
L 467.518507 470.242008 
L 466.753344 469.905136 
L 466.086781 469.613778 
L 465.366075 469.33241 
L 464.591578 469.116417 
L 463.861086 468.946586 
L 463.218015 468.803675 
L 462.629065 468.641833 
L 461.995871 468.424669 
L 461.253064 468.124859 
L 460.488916 467.853082 
L 459.747196 467.645973 
L 459.201446 467.46522 
L 458.459466 467.239663 
L 457.630561 467.014997 
L 456.866151 466.724553 
L 456.100911 466.359895 
L 455.259497 466.00525 
L 454.453495 465.863903 
L 453.887776 465.831843 
L 453.366065 465.855287 
L 452.712072 465.712566 
L 452.122029 465.457845 
L 451.411759 465.157633 
L 450.705256 465.164028 
L 449.943568 465.115324 
L 449.125863 464.918234 
L 448.405692 464.683318 
L 447.816192 464.475041 
L 447.008883 464.240815 
L 446.267181 464.043057 
L 445.525717 463.854807 
L 444.78456 463.703657 
L 444.032152 463.506103 
L 443.203809 463.337011 
L 442.397826 463.205015 
L 441.570289 463.101217 
L 440.796872 462.978103 
L 440.023147 462.817891 
L 439.174839 462.797858 
L 438.357935 462.665885 
L 437.60498 462.421893 
L 436.842197 462.270969 
L 436.135715 462.286697 
L 435.50491 462.264638 
L 434.665883 462.105098 
L 433.847911 461.889551 
L 432.998533 461.785799 
L 432.509007 461.743715 
L 431.659845 461.649289 
L 430.853904 461.526625 
L 430.222576 461.467434 
L 429.493119 461.38118 
L 428.784192 461.192496 
L 428.250398 461.095112 
L 427.531337 460.97154 
L 427.030416 460.911195 
L 426.377224 460.842721 
L 425.625858 460.7289 
L 424.863097 460.596451 
L 424.155192 460.482185 
L 423.306311 460.406213 
L 422.784029 460.373885 
L 422.11911 460.240524 
L 421.301348 460.024985 
L 420.548935 459.836751 
L 419.785887 459.676513 
L 418.979068 459.479422 
L 418.139205 459.245641 
L 417.397448 459.038556 
L 416.622932 458.822756 
L 415.815042 458.542108 
L 414.985858 458.298801 
L 414.221953 458.054825 
L 413.632417 457.837238 
L 412.954936 457.564743 
L 412.278216 457.338542 
L 411.470868 457.095014 
L 410.762198 456.934314 
L 409.999929 456.820523 
L 409.269087 456.613423 
L 408.601908 456.350985 
L 407.801938 456.062831 
L 407.094274 455.961191 
L 406.245253 455.924541 
L 405.396137 455.85094 
L 404.601472 455.712181 
L 403.991797 455.582548 
L 403.403983 455.462237 
L 402.565572 455.304892 
L 401.727374 455.147548 
L 401.161301 455.064296 
L 400.573321 454.962619 
L 399.724179 454.795971 
L 399.147213 454.64783 
L 398.450273 454.462431 
L 397.916936 454.295742 
L 397.089394 454.03617 
L 396.490442 453.822979 
L 395.782798 453.563567 
L 394.966271 453.508379 
L 394.23686 453.443721 
L 393.68173 453.36996 
L 392.876025 453.193929 
L 392.222787 453.027266 
L 391.373714 452.888599 
L 390.589871 452.721834 
L 389.816827 452.583209 
L 389.065742 452.416566 
L 388.455942 452.240517 
L 387.704806 452.045901 
L 386.986168 451.842099 
L 386.518036 451.721735 
L 385.962833 451.629144 
L 385.298676 451.546084 
L 384.503983 451.407319 
L 383.905267 451.287019 
L 383.088519 451.064736 
L 382.424381 450.823699 
L 381.836391 450.629144 
L 381.18303 450.415898 
L 380.59516 450.193551 
L 379.909131 449.924581 
L 379.223082 449.739355 
L 378.569792 449.554067 
L 377.76422 449.341092 
L 377.219743 449.174249 
L 376.381296 448.924219 
L 375.74989 448.757359 
L 374.976766 448.507206 
L 374.279937 448.294028 
L 373.800928 448.108797 
L 373.071193 447.83057 
L 372.319933 447.599046 
L 371.53601 447.404482 
L 370.806636 447.191385 
L 370.05535 446.950501 
L 369.391013 446.709489 
L 368.639703 446.459281 
L 367.899287 446.199746 
L 367.267879 446.033072 
L 366.690661 445.866315 
L 366.015668 445.653282 
L 365.296948 445.421499 
L 364.491349 445.208514 
L 363.859894 445.106771 
L 363.043375 444.893807 
L 362.357223 444.67149 
L 361.682128 444.411816 
L 360.898318 444.180178 
L 360.168701 443.957909 
L 359.428285 443.781957 
L 358.666338 443.633985 
L 358.143575 443.504245 
L 357.403154 443.244697 
L 356.706343 443.040871 
L 355.976938 442.818604 
L 355.203633 442.503389 
L 354.506723 442.262429 
L 353.711941 442.01233 
L 353.015059 441.864238 
L 352.438248 441.781046 
L 351.89379 441.7071 
L 351.10988 441.512567 
L 350.445727 441.271729 
L 349.825013 441.0213 
L 349.160664 440.706046 
L 348.442026 440.418687 
L 348.006403 440.288968 
L 347.472811 440.112975 
L 346.841225 439.881219 
L 346.002951 439.621883 
L 345.229732 439.260213 
L 344.554681 439.028541 
L 343.803144 438.778366 
L 343.008551 438.602509 
L 342.464086 438.445006 
L 341.767094 438.166935 
L 341.124702 437.898085 
L 340.623768 437.684933 
L 339.948497 437.443939 
L 339.1647 437.221621 
L 338.380615 436.971328 
L 337.672723 436.62837 
L 336.823325 436.285319 
L 336.115535 436.063039 
L 335.527529 435.877648 
L 334.678326 435.609015 
L 334.068408 435.395874 
L 333.513111 435.191953 
L 332.685626 434.886163 
L 331.836185 434.61735 
L 331.248102 434.395044 
L 330.692805 434.191124 
L 329.886961 433.810876 
L 329.081015 433.384368 
L 328.383896 433.069187 
L 327.567505 432.911849 
L 326.968675 432.763599 
L 326.293268 432.392793 
L 325.476494 431.929008 
L 324.74688 431.706594 
L 324.050004 431.4843 
L 323.538438 431.382528 
L 322.776117 431.188135 
L 321.937804 430.919325 
L 321.251793 430.669219 
L 320.587312 430.391097 
L 319.879433 430.057291 
L 319.040625 429.352197 
L 318.201774 428.712014 
L 317.373876 428.17402 
L 316.633323 427.784529 
L 315.794808 427.441635 
L 314.98896 427.144956 
L 314.379053 426.931824 
L 313.660324 426.626036 
L 312.963355 426.282888 
L 312.364214 425.939733 
L 311.710755 425.540934 
L 311.068145 425.188539 
L 310.229625 424.845667 
L 310.01184 424.752838 
L 309.358244 424.456233 
L 308.694019 424.196766 
L 307.997017 423.77006 
L 307.33254 423.408385 
L 306.635596 423.083908 
L 305.840612 422.768746 
L 305.034729 422.453606 
L 304.304924 422.092059 
L 303.55351 421.656136 
L 302.714753 421.145984 
L 301.9959 420.877302 
L 301.277186 420.580663 
L 300.61273 420.228316 
L 299.795899 419.671863 
L 299.131345 419.291541 
L 298.314532 418.902191 
L 297.835439 418.689013 
L 297.127469 418.327263 
L 296.321433 417.965686 
L 295.580951 417.69705 
L 294.927712 417.46538 
L 294.197899 417.103655 
L 293.478907 416.704994 
L 292.771048 416.306292 
L 292.00877 416.046861 
L 291.257439 415.805859 
L 290.462469 415.500031 
L 289.656568 415.110684 
L 288.981297 414.888367 
L 288.317059 414.628746 
L 287.641852 414.350845 
L 287.391278 414.248759 
L 286.640194 414.100827 
L 286.193581 413.952499 
L 285.485649 413.600245 
L 284.821359 413.322159 
L 284.157009 412.941863 
L 283.514209 412.533897 
L 282.718934 411.949437 
L 282.032642 411.532049 
L 281.33578 411.244704 
L 280.60598 410.88317 
L 279.75663 410.503038 
L 279.015987 410.178662 
L 278.373433 409.863419 
L 277.545544 409.501897 
L 276.881371 409.260914 
L 276.162702 409.066499 
L 275.444097 408.816299 
L 274.779763 408.603311 
L 274.071862 408.353091 
L 273.418486 408.074989 
L 272.68888 407.787694 
L 271.904817 407.481875 
L 271.185732 407.055233 
L 270.53243 406.805108 
L 269.868168 406.619896 
L 269.09511 406.42541 
L 268.354711 406.193907 
L 267.646869 406.045736 
L 266.841302 405.944365 
L 266.013732 405.703527 
L 265.316756 405.369748 
L 264.761238 405.175201 
L 264.031619 404.813493 
L 263.411148 404.749059 
L 262.736127 404.703219 
L 261.995838 404.592214 
L 261.277162 404.39779 
L 260.580125 404.129106 
L 259.817878 403.888162 
L 259.077463 403.730899 
L 258.250191 403.601601 
L 257.651269 403.50917 
L 256.911004 403.407677 
L 256.159692 403.25958 
L 255.310403 403.065253 
L 254.515448 402.694355 
L 253.742131 402.407176 
L 253.110648 402.231233 
L 252.52253 402.018105 
L 251.814601 401.67503 
L 251.171856 401.294872 
L 250.464132 401.035358 
L 249.70178 400.757466 
L 248.852257 400.321605 
L 248.144395 400.090049 
L 247.414573 399.728552 
L 246.564947 399.255557 
L 245.846145 398.931157 
L 245.040313 398.578955 
L 244.256005 398.189575 
L 243.602468 397.77216 
L 243.166594 397.484681 
L 242.349861 397.132484 
L 241.652926 396.82651 
L 241.064584 396.455593 
L 240.280178 395.945555 
L 239.604827 395.546819 
L 238.896762 395.157308 
L 238.134402 394.730788 
L 237.37168 394.164923 
L 237.055473 393.626728 
L 236.978446 393.013801 
L 236.966686 392.308243 
L 237.020552 391.797449 
L 236.899907 391.129043 
L 236.638037 390.581396 
L 236.169298 390.015329 
L 235.483017 389.607309 
L 234.677407 389.49645 
L 233.926391 389.617715 
L 233.240737 389.766806 
L 232.631189 389.785926 
L 231.847316 389.637926 
L 231.171953 389.229887 
L 230.616042 388.663996 
L 229.864085 387.958804 
L 229.340866 387.290638 
L 229.057315 386.873039 
L 228.741156 386.51109 
L 228.152593 385.907965 
L 227.444578 385.462876 
L 226.845529 385.166221 
L 226.061289 384.730409 
L 225.440281 384.313122 
L 224.666598 383.73798 
L 223.817074 383.311461 
L 223.011166 382.931462 
L 222.237598 382.476999 
L 221.486182 382.143352 
L 220.778231 381.809619 
L 220.091928 381.476007 
L 219.3948 381.021575 
L 218.686796 380.669193 
L 218.065803 380.344794 
L 217.216227 379.816051 
L 216.431692 379.26891 
L 215.701603 378.665894 
L 214.960715 377.951564 
L 214.361239 377.348468 
L 213.881611 376.800898 
L 213.423609 376.253468 
L 212.693525 375.576217 
L 211.843788 374.991911 
L 211.222716 374.55598 
L 210.492569 373.934499 
L 209.914928 373.331361 
L 209.402475 372.607432 
L 209.107837 372.134274 
L 208.834969 371.558679 
L 208.464196 370.964651 
L 208.071453 370.324388 
L 207.646214 369.702494 
L 207.155589 369.052921 
L 206.50151 368.375704 
L 205.923974 367.735449 
L 205.367884 367.030077 
L 204.975361 366.547611 
L 204.528381 365.963044 
L 203.928732 365.294878 
L 203.372802 364.571021 
L 202.838464 363.912213 
L 202.337085 363.401992 
L 201.487184 362.68769 
L 200.724441 362.131191 
L 200.070833 361.704473 
L 199.308037 361.129507 
L 198.654186 360.461454 
L 198.054615 359.747012 
L 197.400677 359.125402 
L 196.74679 358.522242 
L 196.26709 357.956211 
L 195.830944 357.343833 
L 195.318378 356.740588 
L 194.849572 356.165394 
L 194.369896 355.608506 
L 193.846811 354.99614 
L 193.083819 354.34676 
L 192.462662 353.734393 
L 191.972096 353.112802 
L 191.503157 352.491002 
L 191.14326 351.887795 
L 190.685136 351.228856 
L 190.259999 350.72781 
L 189.671336 350.013369 
L 189.126241 349.419499 
L 188.864707 349.159659 
L 188.167153 348.482356 
L 187.665609 347.842157 
L 187.240288 347.276019 
L 186.782263 346.654382 
L 186.356917 345.995359 
L 185.790041 345.27155 
L 185.190449 344.640675 
L 184.852269 344.148779 
L 184.481495 343.564082 
L 183.925397 342.858884 
L 183.402194 342.209405 
L 182.780705 341.559926 
L 181.996074 340.836197 
L 181.342067 340.121875 
L 181.326131 340.104738 
L 180.720737 339.453764 
L 180.197363 338.813411 
L 179.804562 338.16385 
L 179.422914 337.597827 
L 179.683343 336.993907 
L 179.932964 336.269531 
L 179.2244 335.573624 
L 178.418054 334.98927 
L 177.590068 334.470053 
L 176.947714 334.340631 
L 176.261164 333.784008 
L 175.890069 333.087962 
L 175.323225 332.457024 
L 174.854316 331.853881 
L 174.538233 331.464171 
L 174.058454 330.879499 
L 173.589616 330.378566 
L 172.826789 329.738541 
L 172.249123 329.144763 
L 171.692934 328.420939 
L 171.136978 327.780656 
L 170.624673 327.205395 
L 170.221231 326.667212 
L 169.567147 326.008499 
L 168.880358 325.294086 
L 168.313457 324.570284 
L 167.844409 323.920701 
L 167.01623 323.345705 
L 166.40593 322.640461 
L 166.296554 322.352705 
L 166.023725 321.805113 
L 165.641985 321.211302 
L 165.074947 320.52462 
L 164.519113 319.930782 
L 163.9523 319.392754 
L 163.396386 318.854703 
L 162.796761 318.223656 
L 162.186398 317.657742 
L 161.641481 317.147645 
L 161.04188 316.525923 
L 160.540432 315.932177 
L 160.125949 315.347394 
L 159.678921 314.772168 
L 159.515246 314.586569 
L 158.828498 313.900137 
L 158.152801 313.176363 
L 157.607455 312.50829 
L 157.08416 311.914407 
L 156.451978 311.283612 
L 155.667417 310.615667 
L 155.024207 309.947614 
L 154.587876 309.363061 
L 154.151579 308.72274 
L 153.769904 308.073146 
L 153.431541 307.534835 
L 153.028076 306.987314 
L 152.504749 306.38429 
L 152.014133 305.84611 
L 151.501805 305.270839 
L 151.098333 304.797572 
L 150.564013 304.101668 
L 150.138834 303.600654 
L 149.691579 302.941707 
L 149.211906 302.329252 
L 148.786489 301.828238 
L 148.328548 301.252874 
L 147.892318 300.631187 
L 147.445271 300.046659 
L 146.998066 299.489722 
L 146.289612 298.775366 
L 145.668203 298.09813 
L 145.221185 297.532051 
L 144.817553 296.928966 
L 144.457394 296.251374 
L 144.238985 295.796541 
L 143.987922 295.304677 
L 143.758577 294.701214 
L 143.485596 294.107184 
L 143.180249 293.578315 
L 142.743902 292.993565 
L 142.340375 292.353363 
L 142.002083 291.768593 
L 141.78362 291.295129 
L 141.58716 290.803317 
L 141.368545 290.125615 
L 141.215292 289.540663 
L 141.105645 288.927994 
L 140.984919 288.259597 
L 140.788221 287.684042 
L 140.657181 287.312608 
L 140.493138 286.774286 
L 140.230918 286.050232 
L 139.957908 285.372643 
L 139.684871 284.685711 
L 139.335464 284.026748 
L 139.051532 283.349182 
L 138.778494 282.662251 
L 138.538111 282.01257 
L 138.286994 281.353403 
L 138.046584 280.694379 
L 137.795332 280.063189 
L 137.587603 279.450558 
L 137.39098 278.902796 
L 137.128859 278.29026 
L 136.877745 277.640419 
L 136.615524 276.925673 
L 136.451298 276.331584 
L 136.287121 275.67242 
L 136.166473 275.041124 
L 136.045802 274.326267 
L 136.002016 274.140587 
L 135.837685 273.434963 
L 135.629909 272.738754 
L 135.520523 272.302347 
L 135.378058 271.680439 
L 135.268408 270.993352 
L 135.202443 270.464152 
L 135.136138 269.739858 
L 135.091881 269.238424 
L 135.058361 268.672039 
L 135.04681 268.142727 
L 135.067742 267.446409 
L 135.121271 266.916961 
L 135.164228 266.359743 
L 135.152522 265.700611 
L 135.108107 265.14341 
L 135.020248 264.52137 
L 135.040939 263.815728 
L 135.149124 263.295492 
L 135.246367 262.77548 
L 135.397877 262.060424 
L 135.495014 261.345299 
L 135.505125 260.834591 
L 135.51537 260.295908 
L 135.503614 259.701705 
L 135.557118 259.00532 
L 135.621783 258.475849 
L 135.773212 257.807236 
L 135.870561 257.324341 
L 136.054935 256.711245 
L 136.249916 256.070334 
L 136.53208 255.355191 
L 136.781723 254.732817 
L 137.031181 254.045369 
L 137.291529 253.339413 
L 137.56275 252.698527 
L 137.992334 252.087318 
L 138.3472 251.56584 
L 138.77779 251.006721 
L 139.153992 250.457224 
L 139.464901 249.908246 
L 139.711112 249.433618 
L 140.075356 248.745001 
L 140.603097 248.08349 
L 141.152818 247.477317 
L 141.46301 246.826112 
L 141.827948 246.230379 
L 142.246291 245.504368 
L 142.548203 245.187238 
L 143.151599 244.469603 
L 143.898308 244.001639 
L 144.501972 243.302471 
L 145.008572 242.743015 
L 145.764206 242.015211 
L 146.106932 241.363757 
L 146.395585 240.749916 
L 146.587136 240.247794 
L 147.027945 239.595772 
L 147.850282 239.053218 
L 148.16078 238.43915 
L 148.492295 237.76011 
L 148.727508 237.24839 
L 149.059344 236.606485 
L 149.424552 236.019896 
L 149.810411 235.321911 
L 150.196271 234.623927 
L 150.496248 234.074974 
L 150.806452 233.423772 
L 151.311731 232.697219 
L 151.806378 231.989502 
L 152.040909 231.394407 
L 152.535562 230.695851 
L 152.976532 230.090274 
L 153.287062 229.485514 
L 153.846981 228.767991 
L 154.277273 228.171944 
L 154.663802 227.557337 
L 155.126305 226.923942 
L 155.556279 226.290596 
L 155.986472 225.666775 
L 156.48214 225.098021 
L 157.129989 224.49147 
L 157.831309 223.79176 
L 158.532943 223.119824 
L 159.278642 222.512726 
L 160.121862 221.849459 
L 160.95475 221.251124 
L 161.634152 220.523669 
L 162.248871 219.861622 
L 163.092471 219.263266 
L 163.699116 218.935094 
L 164.425282 218.606494 
L 165.270425 218.175092 
L 166.081873 217.641915 
L 166.806636 217.118406 
L 167.497975 216.520731 
L 168.210549 215.858121 
L 169.05508 215.35247 
L 169.822052 214.689567 
L 170.404259 214.046223 
L 171.183079 213.476181 
L 171.983268 212.89657 
L 172.653354 212.354728 
L 173.3988 211.719828 
L 174.177654 211.168054 
L 174.448017 210.971876 
L 175.140957 210.559789 
L 175.801742 210.21288 
L 176.452534 209.968183 
L 176.995166 209.788984 
L 177.710004 209.395504 
L 178.337895 209.002403 
L 179.192828 208.45962 
L 179.745408 208.169067 
L 180.427404 207.74768 
L 181.108743 207.252262 
L 181.920132 206.691303 
L 182.645317 206.251179 
L 183.403849 205.857449 
L 184.086219 205.492033 
L 184.779145 205.079951 
L 185.537173 204.658431 
L 186.361056 204.282854 
L 187.173747 203.87949 
L 187.95299 203.392835 
L 188.721865 202.943319 
L 189.414504 202.503467 
L 190.085269 202.045192 
L 190.876068 201.623407 
L 191.527161 201.406528 
L 192.276156 201.207553 
L 193.12358 201.054619 
L 193.959469 200.827493 
L 194.599007 200.536404 
L 195.281972 200.235701 
L 196.11715 199.90655 
L 196.334154 199.849794 
L 197.050547 199.63242 
L 197.853911 199.414669 
L 198.472293 199.21651 
L 199.102133 199.064771 
L 199.905524 198.856346 
L 200.719842 198.65706 
L 201.403706 198.439937 
L 202.194274 198.009018 
L 202.973134 197.45728 
L 203.75434 197.202661 
L 204.590822 197.04045 
L 205.418597 197.128737 
L 206.212658 197.115266 
L 206.919817 197.111461 
L 207.65943 197.079633 
L 208.289714 197.00195 
L 209.094351 196.932673 
L 209.561638 196.856033 
L 210.386877 196.647406 
L 211.038034 196.458329 
L 211.787641 196.315113 
L 212.569775 196.162525 
L 213.265624 196.103179 
L 214.005019 196.062012 
L 214.820241 195.955619 
L 215.18973 195.89801 
L 216.026287 195.754274 
L 216.623657 195.630566 
L 217.460505 195.514623 
L 218.047612 195.474514 
L 218.873855 195.395692 
L 219.590886 195.243422 
L 220.393973 195.007237 
L 221.219558 194.84504 
L 221.958592 194.757637 
L 222.752575 194.707059 
L 223.513526 194.637879 
L 224.305273 194.327484 
L 224.943901 193.934384 
L 225.694124 193.86541 
L 226.498422 193.749721 
L 227.17119 193.551284 
L 227.963909 193.352241 
L 228.614996 193.135363 
L 229.319869 192.843977 
L 229.948526 192.562253 
L 230.718382 192.233438 
L 231.509574 191.867262 
L 232.192848 191.594572 
L 232.919644 191.330937 
L 233.678259 190.955703 
L 234.390928 190.31178 
L 235.051283 189.638524 
L 235.831664 189.163049 
L 236.599763 188.730751 
L 237.128773 188.503516 
L 237.909679 188.211252 
L 238.703081 187.875812 
L 239.308428 187.604012 
L 240.057419 187.395904 
L 240.838933 187.168916 
L 241.685772 186.951124 
L 242.207144 186.827762 
L 242.825518 186.620299 
L 243.443795 186.385045 
L 244.073066 186.168218 
L 244.377531 186.13874 
L 245.147473 185.837726 
L 245.962098 185.6571 
L 246.743228 185.374532 
L 247.523535 185.017914 
L 248.18497 184.73595 
L 248.857016 184.426173 
L 249.485899 184.14444 
L 250.190499 183.834599 
L 250.993233 183.53334 
L 251.829126 183.296926 
L 252.565575 182.884813 
L 253.23675 182.482338 
L 253.974145 182.181394 
L 254.688355 181.695091 
L 255.284134 181.367184 
L 255.955896 181.029601 
L 256.649498 180.682668 
L 257.472561 180.223578 
L 258.057445 179.905019 
L 258.837925 179.529758 
L 259.596274 179.136073 
L 260.342703 178.603084 
L 260.891572 177.876488 
L 261.256225 177.22504 
L 261.632868 176.722038 
L 262.074177 176.135166 
L 262.895205 175.547178 
L 265.309336 173.909659 
L 265.678282 173.805641 
L 266.438548 173.634661 
L 267.176583 173.40794 
L 267.87991 172.93101 
L 268.386575 172.36246 
L 268.838837 171.784729 
L 269.356132 171.178858 
L 270.166975 170.543739 
L 270.838334 170.131764 
L 271.454739 169.66468 
L 272.048334 169.086287 
L 272.841889 168.471847 
L 273.432475 168.039737 
L 274.135105 167.460766 
L 274.815919 166.900305 
L 275.530203 166.432664 
L 276.266649 166.011258 
L 276.949398 165.682806 
L 277.653967 165.345188 
L 278.401967 164.997794 
L 279.170945 164.567001 
L 279.950553 164.098868 
L 280.643309 163.66839 
L 281.292929 163.284621 
L 281.996513 162.826147 
L 282.753551 162.246891 
L 283.34693 161.663385 
L 283.995136 161.071178 
L 284.806625 160.510301 
L 285.098536 160.276785 
L 285.909787 159.706384 
L 286.601437 159.108992 
L 287.291929 158.390906 
L 287.917777 157.765833 
L 288.750518 157.14915 
L 289.496353 156.542127 
L 290.264013 155.934879 
L 291.107049 155.234617 
L 291.775941 154.525901 
L 292.423305 153.863689 
L 293.037874 153.183055 
L 293.663266 152.465283 
L 294.289679 151.895979 
L 295.089319 151.22378 
L 295.509129 150.674079 
L 296.243616 149.992847 
L 297.089608 149.673084 
L 297.882671 149.511018 
L 298.686778 149.386232 
L 299.457369 149.150159 
L 300.227067 148.81206 
L 301.038868 148.28811 
L 301.709941 147.830076 
L 301.950223 147.645209 
L 324.432041 147.601652 
L 337.363538 147.651394 
L 351.337821 147.77863 
" style="fill:#1a1a1a;stroke:#ffffff;stroke-linejoin:miter;stroke-width:4;"/>
   </g>
  </g>
 </g>
 <defs>
  <clipPath id="p35ef60c728">
   <rect height="543.6" width="558" x="90" y="86.4"/>
  </clipPath>
 </defs>
</svg>
