<?xml version="1.0" encoding="utf-8" standalone="no"?>
<!DOCTYPE svg PUBLIC "-//W3C//DTD SVG 1.1//EN"
  "http://www.w3.org/Graphics/SVG/1.1/DTD/svg11.dtd">
<!-- Created with matplotlib (https://matplotlib.org/) -->
<svg height="720pt" version="1.1" viewBox="0 0 720 720" width="720pt" xmlns="http://www.w3.org/2000/svg" xmlns:xlink="http://www.w3.org/1999/xlink">
 <metadata>
  <rdf:RDF xmlns:cc="http://creativecommons.org/ns#" xmlns:dc="http://purl.org/dc/elements/1.1/" xmlns:rdf="http://www.w3.org/1999/02/22-rdf-syntax-ns#">
   <cc:Work>
    <dc:type rdf:resource="http://purl.org/dc/dcmitype/StillImage"/>
    <dc:date>2021-05-28T08:56:48.642045</dc:date>
    <dc:format>image/svg+xml</dc:format>
    <dc:creator>
     <cc:Agent>
      <dc:title>Matplotlib v3.3.3, https://matplotlib.org/</dc:title>
     </cc:Agent>
    </dc:creator>
   </cc:Work>
  </rdf:RDF>
 </metadata>
 <defs>
  <style type="text/css">*{stroke-linecap:butt;stroke-linejoin:round;}</style>
 </defs>
 <g id="figure_1">
  <g id="patch_1">
   <path d="M 0 720 
L 720 720 
L 720 0 
L 0 0 
z
" style="fill:none;"/>
  </g>
  <g id="axes_1">
   <g id="patch_2">
    <path clip-path="url(#pf2c5cddb37)" d="M 585.073794 132.94378 
L 585.073846 134.346147 
L 620.726063 134.345606 
L 620.621149 247.209401 
L 620.523901 357.285712 
L 620.400265 469.466019 
L 620.367849 501.679652 
L 620.32309 546.157347 
L 620.28579 583.45622 
L 122.593901 582.677732 
L 121.138884 582.674617 
L 120.883017 573.2705 
L 120.377424 550.44617 
L 119.68963 521.067433 
L 119.489521 494.647002 
L 118.916908 463.238288 
L 118.348165 427.895443 
L 118.030638 405.583992 
L 117.605101 377.995701 
L 117.512391 357.352562 
L 117.273937 331.40406 
L 118.041144 319.23639 
L 119.081844 297.874472 
L 120.616711 273.246197 
L 121.77174 250.977178 
L 122.56477 233.590388 
L 122.952872 233.690159 
L 125.022098 234.222169 
L 126.777841 234.685225 
L 129.080252 235.277104 
L 132.027486 236.065851 
L 134.383957 236.684872 
L 135.988198 237.069516 
L 138.003136 237.605577 
L 140.156468 238.136788 
L 141.865431 238.628967 
L 143.861893 239.135023 
L 146.114192 239.704171 
L 148.1291 240.254352 
L 150.202008 240.806157 
L 152.812946 241.420548 
L 154.714369 241.923749 
L 156.27765 242.33894 
L 157.526442 242.677738 
L 160.024586 243.323263 
L 162.66183 244.01653 
L 164.110294 244.409703 
L 166.621113 245.066568 
L 168.25878 245.49905 
L 169.905784 245.915216 
L 171.618645 246.369837 
L 173.603276 246.872502 
L 175.149286 247.306967 
L 176.628836 247.681671 
L 178.149141 248.061995 
L 179.491494 248.40737 
L 180.779095 248.761188 
L 182.076658 249.106373 
L 183.17638 249.375298 
L 184.297184 249.672006 
L 185.513645 249.970916 
L 186.833607 250.307771 
L 188.203613 250.690175 
L 189.49252 251.024765 
L 190.964176 251.372421 
L 191.86287 251.529512 
L 193.05189 251.692011 
L 193.673722 251.712067 
L 194.179761 251.676743 
L 194.663971 251.599257 
L 195.173138 251.545389 
L 195.767432 251.534309 
L 196.418572 251.400984 
L 197.085528 251.234346 
L 197.447211 251.104835 
L 199.797148 250.32029 
L 200.201123 250.120108 
L 200.201721 247.412503 
L 225.902892 235.407335 
L 228.566654 232.967037 
L 291.203996 134.374244 
L 301.996786 134.36737 
L 335.147204 134.347399 
L 411.106029 134.31201 
L 442.853704 134.308925 
L 466.819629 134.322447 
L 515.919631 134.353016 
L 576.808795 134.346562 
L 576.808715 132.94421 
L 585.073794 132.94378 
" style="fill:#1a1a1a;stroke:#ffffff;stroke-linejoin:miter;stroke-width:4;"/>
   </g>
  </g>
 </g>
 <defs>
  <clipPath id="pf2c5cddb37">
   <rect height="543.6" width="558" x="90" y="86.4"/>
  </clipPath>
 </defs>
</svg>
