<?xml version="1.0" encoding="utf-8" standalone="no"?>
<!DOCTYPE svg PUBLIC "-//W3C//DTD SVG 1.1//EN"
  "http://www.w3.org/Graphics/SVG/1.1/DTD/svg11.dtd">
<!-- Created with matplotlib (https://matplotlib.org/) -->
<svg height="720pt" version="1.1" viewBox="0 0 720 720" width="720pt" xmlns="http://www.w3.org/2000/svg" xmlns:xlink="http://www.w3.org/1999/xlink">
 <metadata>
  <rdf:RDF xmlns:cc="http://creativecommons.org/ns#" xmlns:dc="http://purl.org/dc/elements/1.1/" xmlns:rdf="http://www.w3.org/1999/02/22-rdf-syntax-ns#">
   <cc:Work>
    <dc:type rdf:resource="http://purl.org/dc/dcmitype/StillImage"/>
    <dc:date>2021-05-28T08:56:52.744347</dc:date>
    <dc:format>image/svg+xml</dc:format>
    <dc:creator>
     <cc:Agent>
      <dc:title>Matplotlib v3.3.3, https://matplotlib.org/</dc:title>
     </cc:Agent>
    </dc:creator>
   </cc:Work>
  </rdf:RDF>
 </metadata>
 <defs>
  <style type="text/css">*{stroke-linecap:butt;stroke-linejoin:round;}</style>
 </defs>
 <g id="figure_1">
  <g id="patch_1">
   <path d="M 0 720 
L 720 720 
L 720 0 
L 0 0 
z
" style="fill:none;"/>
  </g>
  <g id="axes_1">
   <g id="patch_2">
    <path clip-path="url(#pa67372e399)" d="M 498.609749 228.806945 
L 504.042051 276.772066 
L 506.653408 293.9445 
L 509.4719 308.443211 
L 513.627188 327.193189 
L 518.798185 345.379 
L 522.244993 356.835974 
L 527.166183 369.201791 
L 532.333052 381.749378 
L 538.727278 393.205234 
L 544.629146 403.206267 
L 552.25189 415.571088 
L 560.610422 426.480641 
L 595.723619 466.908422 
L 520.489516 467.087618 
L 525.12284 477.67404 
L 563.163302 565.031448 
L 500.099279 565.129194 
L 495.387518 565.126511 
L 471.609717 535.724648 
L 468.423152 537.307303 
L 413.74329 469.667597 
L 411.84378 467.247591 
L 391.943035 467.07343 
L 382.229964 467.04604 
L 362.93678 467.033061 
L 362.946074 464.697276 
L 361.911268 462.574872 
L 361.179806 460.376738 
L 360.760439 458.129208 
L 360.658241 455.859319 
L 360.828613 449.096083 
L 361.109868 437.914288 
L 361.569804 419.258551 
L 347.292269 419.281337 
L 343.688098 419.678984 
L 303.367201 419.802984 
L 275.687212 419.726255 
L 275.201946 421.48493 
L 274.62938 422.936986 
L 273.884691 424.44901 
L 272.566435 426.335494 
L 271.236314 427.94296 
L 270.136137 429.020452 
L 248.007538 429.032982 
L 236.192932 428.996891 
L 236.186219 427.087022 
L 236.202539 419.077578 
L 208.454772 419.047917 
L 208.453328 419.657231 
L 186.913084 419.715816 
L 176.559798 419.613153 
L 144.486854 419.575737 
L 144.645617 410.652184 
L 144.457712 400.828733 
L 144.303132 394.493749 
L 144.279983 391.538 
L 144.692179 381.290226 
L 145.092454 371.339312 
L 145.013355 360.959609 
L 144.938398 351.120734 
L 144.833668 344.986136 
L 144.973045 340.628642 
L 145.050963 330.797777 
L 144.887562 320.2959 
L 144.733938 310.420571 
L 145.18953 296.592054 
L 144.964877 293.730384 
L 144.812531 293.018939 
L 144.508696 292.396543 
L 143.901526 291.655744 
L 142.276381 290.618178 
L 144.014486 289.251742 
L 145.419701 288.333352 
L 145.753271 284.373205 
L 146.015956 281.853019 
L 146.162324 276.812907 
L 146.165576 269.748851 
L 148.178914 268.795069 
L 176.409745 268.823005 
L 232.138739 268.866008 
L 233.25146 269.507757 
L 241.866629 269.509337 
L 255.366079 269.507051 
L 269.853614 269.50477 
L 273.685581 269.497964 
L 273.541744 268.230512 
L 273.539548 265.823338 
L 273.586246 262.698821 
L 273.751804 243.062382 
L 273.826773 241.203477 
L 273.786033 238.565119 
L 273.668792 236.10669 
L 273.24491 233.618457 
L 272.783107 231.609959 
L 271.93791 229.451743 
L 270.862574 227.143762 
L 269.672344 224.955785 
L 268.568914 222.919461 
L 259.261313 205.829684 
L 252.058177 192.432653 
L 249.57253 185.917093 
L 248.200315 176.922616 
L 248.056093 155.352411 
L 248.257785 151.838331 
L 477.338421 151.270806 
L 484.366995 166.336965 
L 489.175808 179.066983 
L 492.784516 191.797543 
L 495.594729 206.749148 
L 498.609749 228.806945 
" style="fill:#1a1a1a;stroke:#ffffff;stroke-linejoin:miter;stroke-width:4;"/>
   </g>
  </g>
 </g>
 <defs>
  <clipPath id="pa67372e399">
   <rect height="543.6" width="558" x="90" y="86.4"/>
  </clipPath>
 </defs>
</svg>
