<?xml version="1.0" encoding="utf-8" standalone="no"?>
<!DOCTYPE svg PUBLIC "-//W3C//DTD SVG 1.1//EN"
  "http://www.w3.org/Graphics/SVG/1.1/DTD/svg11.dtd">
<!-- Created with matplotlib (https://matplotlib.org/) -->
<svg height="720pt" version="1.1" viewBox="0 0 720 720" width="720pt" xmlns="http://www.w3.org/2000/svg" xmlns:xlink="http://www.w3.org/1999/xlink">
 <metadata>
  <rdf:RDF xmlns:cc="http://creativecommons.org/ns#" xmlns:dc="http://purl.org/dc/elements/1.1/" xmlns:rdf="http://www.w3.org/1999/02/22-rdf-syntax-ns#">
   <cc:Work>
    <dc:type rdf:resource="http://purl.org/dc/dcmitype/StillImage"/>
    <dc:date>2021-05-28T08:56:50.291810</dc:date>
    <dc:format>image/svg+xml</dc:format>
    <dc:creator>
     <cc:Agent>
      <dc:title>Matplotlib v3.3.3, https://matplotlib.org/</dc:title>
     </cc:Agent>
    </dc:creator>
   </cc:Work>
  </rdf:RDF>
 </metadata>
 <defs>
  <style type="text/css">*{stroke-linecap:butt;stroke-linejoin:round;}</style>
 </defs>
 <g id="figure_1">
  <g id="patch_1">
   <path d="M 0 720 
L 720 720 
L 720 0 
L 0 0 
z
" style="fill:none;"/>
  </g>
  <g id="axes_1">
   <g id="patch_2">
    <path clip-path="url(#pc6816b9c42)" d="M 402.530451 266.730306 
L 413.825499 272.498319 
L 424.566509 276.713034 
L 436.857479 280.594679 
L 451.196717 284.64263 
L 465.369539 287.192743 
L 488.289178 288.743274 
L 549.671247 288.793895 
L 611.174198 289.170125 
L 611.144697 293.691819 
L 611.144226 306.352541 
L 610.948007 323.10569 
L 611.242532 341.890236 
L 611.254639 349.048506 
L 611.254466 359.479902 
L 575.648387 359.741252 
L 575.700991 571.673683 
L 574.14389 571.6904 
L 573.978097 571.690195 
L 572.596866 571.689583 
L 562.632795 571.688065 
L 562.623292 571.688065 
L 532.069251 571.682908 
L 510.800157 571.688408 
L 497.835991 571.691702 
L 488.8556 571.683556 
L 478.204138 571.67638 
L 443.01548 571.682211 
L 442.985226 571.681238 
L 436.513624 571.686919 
L 417.078008 571.673365 
L 399.647772 571.680313 
L 363.832453 571.669632 
L 346.14854 571.670361 
L 329.377309 571.684668 
L 320.78955 571.681695 
L 292.790043 571.713594 
L 292.776164 571.560228 
L 292.702553 570.911208 
L 292.653917 570.431096 
L 292.606117 569.844422 
L 292.567401 569.257762 
L 292.526996 568.831076 
L 292.453535 568.164241 
L 292.414309 567.613195 
L 292.366023 567.088718 
L 292.361849 566.600189 
L 292.349109 566.049309 
L 292.354182 565.525164 
L 292.376186 565.054617 
L 292.3903 564.504077 
L 292.376556 564.077574 
L 292.355112 563.517789 
L 292.316898 562.86895 
L 292.268598 562.353363 
L 292.228532 561.899954 
L 292.172535 561.260011 
L 292.159461 560.753513 
L 292.111663 560.175746 
L 292.072101 559.669082 
L 292.032206 559.20694 
L 291.966285 558.664462 
L 291.900718 558.086527 
L 291.862658 557.428954 
L 291.859165 556.842615 
L 291.865582 556.167561 
L 291.870799 555.607942 
L 291.866635 555.101597 
L 291.855248 554.426375 
L 291.816866 553.795508 
L 291.796098 553.173561 
L 291.740416 552.489079 
L 291.657236 551.910976 
L 291.548222 551.252728 
L 291.456968 550.567909 
L 291.392076 549.927794 
L 291.370297 549.412391 
L 291.340621 548.799337 
L 291.311468 548.132837 
L 291.254964 547.546008 
L 291.145757 546.887744 
L 291.088397 546.398727 
L 291.041622 545.705509 
L 291.029744 545.074808 
L 291.016338 544.621564 
L 290.994057 544.168341 
L 290.971584 543.715275 
L 290.958028 543.279865 
L 290.910396 542.684283 
L 290.862109 542.159789 
L 290.788663 541.492954 
L 290.72341 540.870673 
L 290.667919 540.186191 
L 290.629023 539.590624 
L 290.581731 538.968493 
L 290.526068 538.292919 
L 290.451942 537.679374 
L 290.369248 537.047998 
L 290.286925 536.381166 
L 290.230905 535.732141 
L 290.18262 535.216555 
L 290.126613 534.558796 
L 290.052826 533.91851 
L 289.96109 533.313687 
L 289.815829 532.73508 
L 289.591038 532.120346 
L 289.490745 531.479895 
L 289.461583 530.795578 
L 289.325551 530.181513 
L 289.251595 529.559217 
L 289.142741 528.874229 
L 289.007217 528.2158 
L 288.835944 527.557032 
L 288.760124 527.14765 
L 288.686164 526.516447 
L 288.612378 525.885069 
L 288.440101 525.350661 
L 288.22454 524.709201 
L 288.150583 524.086906 
L 288.068237 523.410991 
L 287.824985 522.875893 
L 287.742639 522.200153 
L 287.615329 521.6039 
L 287.471071 520.909843 
L 287.428967 520.678605 
L 287.302495 519.984541 
L 287.211089 519.335353 
L 287.136292 518.810694 
L 287.034124 518.356782 
L 286.808654 517.812962 
L 286.521784 517.215367 
L 286.270649 516.582652 
L 286.099041 515.977158 
L 285.953603 515.407286 
L 285.772428 514.872882 
L 285.600132 514.347209 
L 285.401846 513.750439 
L 285.212958 513.100412 
L 285.068027 512.486176 
L 284.966211 511.996808 
L 284.794935 511.346949 
L 284.605875 510.705656 
L 284.441984 510.233601 
L 284.225239 509.716501 
L 283.955455 509.17233 
L 283.650459 508.618932 
L 283.362739 508.101333 
L 283.111094 507.521892 
L 282.930421 506.934042 
L 282.759314 506.275276 
L 282.622429 505.741015 
L 282.495784 505.064943 
L 282.369141 504.397603 
L 282.198199 503.712114 
L 281.9828 503.061922 
L 281.788694 502.515472 
L 281.581919 502.092513 
L 281.427644 501.703071 
L 281.253945 501.11852 
L 281.08842 500.471455 
L 280.914173 499.815834 
L 280.571473 499.170578 
L 280.220233 498.543315 
L 279.913474 497.950969 
L 279.642108 497.340603 
L 279.38 496.774615 
L 279.109345 496.25317 
L 278.847597 495.722621 
L 278.531036 495.032643 
L 278.224265 494.413748 
L 277.916778 493.741583 
L 277.682264 493.299753 
L 277.349172 492.716674 
L 276.935124 492.018854 
L 276.672464 491.381762 
L 276.463742 490.841781 
L 276.247 490.408504 
L 275.860541 489.817061 
L 275.510565 489.331957 
L 275.265156 488.659072 
L 275.162793 488.12707 
L 275.052257 487.657269 
L 274.896887 487.143468 
L 274.527851 486.516388 
L 274.087291 485.818753 
L 273.789962 485.288568 
L 273.465759 484.705488 
L 273.213815 484.299122 
L 272.827348 483.69893 
L 272.432532 483.160763 
L 271.956567 482.463474 
L 271.659049 481.89785 
L 271.432878 481.393683 
L 271.259349 480.826792 
L 271.22506 480.279309 
L 271.217623 480.160821 
L 271.673475 479.623414 
L 272.088285 479.450542 
L 272.161646 478.756932 
L 271.57331 478.371648 
L 271.039049 478.074897 
L 270.379733 477.681412 
L 269.815723 477.056308 
L 269.517656 476.428332 
L 269.671984 475.875995 
L 270.291747 475.825485 
L 270.966701 476.005528 
L 271.512761 475.644846 
L 271.003027 475.134475 
L 270.842367 475.002838 
L 270.226252 474.484646 
L 269.565299 473.913723 
L 268.940289 473.395693 
L 268.29748 472.851138 
L 267.648144 472.582028 
L 267.008953 472.44599 
L 266.378671 472.301233 
L 265.907947 472.181395 
L 265.384211 472.070991 
L 264.824894 471.943151 
L 264.167911 471.798581 
L 263.706463 471.723105 
L 263.050201 471.640714 
L 262.606888 471.609404 
L 262.0483 471.570469 
L 261.622974 471.556811 
L 261.109224 471.570782 
L 260.569147 471.602754 
L 260.020003 471.63473 
L 259.54201 471.66598 
L 259.054948 471.697392 
L 258.497084 471.729546 
L 258.027814 471.769702 
L 257.549278 471.747682 
L 256.864878 471.505666 
L 256.203911 470.925652 
L 256.029469 470.278945 
L 256.352612 469.760444 
L 256.91667 469.452844 
L 257.57982 469.295434 
L 258.07524 469.22837 
L 258.561941 469.161484 
L 259.057536 469.094438 
L 259.641547 469.026469 
L 260.004621 469.005217 
L 260.616222 469.034699 
L 261.148113 469.073992 
L 261.839772 469.138395 
L 262.354063 469.168788 
L 262.858377 469.101724 
L 263.431856 468.847396 
L 263.851588 468.247994 
L 263.785526 467.813284 
L 263.683332 467.290209 
L 263.899014 466.657347 
L 264.553099 466.499928 
L 265.164886 466.556154 
L 265.034557 465.873274 
L 264.807651 465.289095 
L 264.475083 464.759468 
L 264.15104 464.220562 
L 263.547275 463.124938 
L 263.097996 462.43622 
L 262.631982 461.863326 
L 261.9908 461.505297 
L 261.465441 461.217282 
L 260.790477 461.046172 
L 260.124408 460.875041 
L 259.538596 460.756472 
L 258.96166 460.637725 
L 258.287065 460.519889 
L 257.718859 460.383324 
L 257.079109 460.176205 
L 256.438818 459.924916 
L 255.967192 459.698539 
L 255.43274 459.401624 
L 254.782475 459.017072 
L 254.266172 458.755589 
L 253.749525 458.458685 
L 253.268804 458.214498 
L 252.752515 457.944125 
L 252.25418 457.700295 
L 251.818486 457.544645 
L 251.338511 457.380629 
L 250.867774 457.251891 
L 250.21985 457.116043 
L 249.57195 456.998028 
L 248.941824 456.88874 
L 248.356535 456.823257 
L 247.842411 456.79289 
L 247.399456 456.805951 
L 246.930175 456.837222 
L 246.452359 456.895186 
L 245.885958 456.97189 
L 245.213537 457.076233 
L 244.682894 457.170198 
L 244.196551 457.272739 
L 243.718924 457.36616 
L 243.188466 457.486867 
L 242.68468 457.62503 
L 242.278575 457.771189 
L 241.583452 458.284427 
L 241.18118 458.865825 
L 240.903603 459.499259 
L 240.652171 460.096859 
L 240.356807 460.730632 
L 240.007525 461.28478 
L 239.463646 461.858724 
L 238.855849 462.246697 
L 238.211939 462.555021 
L 237.718143 462.808634 
L 237.144667 463.062978 
L 236.597682 463.317119 
L 236.429959 463.380938 
L 235.784963 463.58272 
L 235.174977 463.721978 
L 234.529432 463.861425 
L 234.113711 463.936679 
L 233.609581 464.030482 
L 232.964397 464.196636 
L 232.293076 464.416422 
L 231.737558 464.69731 
L 231.128502 464.934206 
L 230.438301 465.038724 
L 229.916195 465.097081 
L 229.243415 465.157054 
L 228.561563 465.20814 
L 227.897496 465.250121 
L 227.375027 465.273023 
L 226.808448 465.323016 
L 226.321562 465.36337 
L 225.70179 465.405002 
L 225.179143 465.41898 
L 224.745269 465.449882 
L 224.09899 465.4917 
L 223.470143 465.515679 
L 222.938238 465.494223 
L 222.2475 465.51877 
L 221.81379 465.567488 
L 221.318378 465.652213 
L 220.858545 465.745656 
L 220.256565 465.795825 
L 219.681457 465.881457 
L 219.06278 466.038527 
L 218.434115 466.080342 
L 218.05343 466.110701 
L 217.380652 466.170526 
L 216.946775 466.192523 
L 216.353507 466.22505 
L 215.680205 466.240512 
L 214.997798 466.211789 
L 214.376932 466.137785 
L 213.765331 466.117242 
L 213.295871 466.12179 
L 212.613831 466.137415 
L 211.922897 466.153062 
L 211.284621 466.105966 
L 210.832588 466.083785 
L 210.20356 466.089975 
L 209.716497 466.121431 
L 209.079298 466.189787 
L 208.431932 466.133981 
L 207.784558 466.06036 
L 207.127745 465.933629 
L 206.48056 465.895465 
L 205.850995 465.830571 
L 205.266258 465.827471 
L 204.584404 465.869668 
L 203.954829 465.822591 
L 203.324879 465.713317 
L 202.800954 465.594059 
L 202.126 465.422993 
L 201.646548 465.312274 
L 200.980649 465.149921 
L 200.474515 465.039389 
L 199.826607 464.903595 
L 199.160715 464.75925 
L 198.725372 464.621267 
L 198.111944 464.414196 
L 197.579129 464.268379 
L 197.126552 464.201683 
L 196.470278 464.119324 
L 195.848684 463.983346 
L 195.262133 463.784649 
L 194.613108 463.533389 
L 193.928875 463.326877 
L 193.333425 463.119627 
L 192.808582 462.902564 
L 192.336941 462.676221 
L 191.705155 462.371527 
L 191.117855 462.10192 
L 190.55708 461.832128 
L 190.040942 461.58834 
L 189.559851 461.29109 
L 188.917724 460.835319 
L 188.265959 460.317724 
L 187.668491 459.897041 
L 187.053035 459.458901 
L 186.391459 458.808044 
L 185.775458 458.325541 
L 185.088475 457.799231 
L 184.535121 457.369273 
L 183.848311 456.878594 
L 183.267366 456.333548 
L 182.668233 455.753054 
L 182.042418 455.137308 
L 181.488514 454.654081 
L 180.871417 454.038315 
L 180.359965 453.341474 
L 179.991202 452.75878 
L 179.506804 452.115008 
L 178.978296 451.498346 
L 178.405488 450.873304 
L 178.072872 450.361349 
L 177.750972 450.053552 
L 177.18869 449.605979 
L 176.679988 449.211113 
L 176.062706 448.586442 
L 175.375159 447.99796 
L 174.837555 447.372554 
L 174.318114 446.764624 
L 173.762913 446.139402 
L 173.127465 445.461645 
L 172.439917 444.882072 
L 171.813909 444.257409 
L 171.160648 443.570928 
L 170.66845 443.051523 
L 170.15845 442.505753 
L 169.585273 441.862901 
L 168.95018 441.211713 
L 168.369199 440.666659 
L 167.823419 440.103458 
L 167.232986 439.48734 
L 166.580288 438.863042 
L 166.09643 438.290364 
L 165.53195 437.611879 
L 164.905549 436.951764 
L 164.367937 436.299642 
L 163.883889 435.700259 
L 163.553468 435.428102 
L 163.044552 435.015603 
L 162.374966 434.462578 
L 161.819566 433.819373 
L 161.334779 433.140172 
L 161.08166 432.600746 
L 160.765519 431.964255 
L 160.441227 431.389931 
L 160.143261 430.797622 
L 159.942574 430.168936 
L 159.697066 429.50499 
L 159.026372 428.836343 
L 158.338445 428.23914 
L 157.712782 427.649943 
L 157.068214 426.95456 
L 156.558219 426.417706 
L 156.030582 425.898676 
L 155.396187 425.327457 
L 154.850421 424.755357 
L 154.26814 424.08597 
L 153.64173 423.408048 
L 153.113724 422.853563 
L 152.639463 422.360708 
L 151.996016 421.762965 
L 151.3607 421.103039 
L 150.850136 420.521649 
L 150.545629 420.160406 
L 150.177404 419.639921 
L 149.729103 419.066885 
L 149.325846 418.591114 
L 148.948887 418.079541 
L 148.598257 417.523399 
L 148.256164 416.949263 
L 147.878122 416.331148 
L 147.456301 415.74011 
L 146.918306 415.070182 
L 146.4698 414.47935 
L 146.065631 413.897036 
L 145.706278 413.376357 
L 145.364365 412.820055 
L 145.093415 412.263019 
L 144.786351 411.644153 
L 144.497821 411.122932 
L 144.138292 410.566796 
L 143.786744 409.930504 
L 143.435179 409.29437 
L 143.164249 408.746242 
L 142.974662 408.375006 
L 142.721708 407.853401 
L 142.531762 407.428719 
L 142.30567 406.951307 
L 142.060318 406.287366 
L 141.841296 405.614329 
L 141.649315 404.994376 
L 141.511644 404.480416 
L 141.319305 403.807174 
L 141.102123 403.329583 
L 140.812292 402.657281 
L 140.540236 401.993686 
L 140.268931 401.40102 
L 140.105121 400.931787 
L 139.700169 400.269481 
L 139.103197 399.920093 
L 138.480992 399.71305 
L 137.894024 399.487842 
L 137.233277 398.943565 
L 136.846867 398.361072 
L 136.610412 397.714769 
L 136.400815 397.103908 
L 136.271856 396.581019 
L 136.303564 396.171962 
L 136.537344 395.601066 
L 136.640821 395.434595 
L 136.965159 394.912872 
L 137.31461 394.38525 
L 137.530574 393.796722 
L 137.524128 393.121657 
L 137.368104 392.536794 
L 137.203378 391.987566 
L 136.950779 391.492685 
L 136.465772 390.804398 
L 136.008357 390.222658 
L 135.507201 389.676729 
L 134.997147 389.157702 
L 134.406103 388.479408 
L 133.805823 387.783496 
L 133.392699 387.192285 
L 132.997181 386.583268 
L 132.592051 385.90315 
L 132.196008 385.25866 
L 131.844805 384.649096 
L 131.503051 384.101689 
L 131.142411 383.456657 
L 130.818245 382.891269 
L 130.484476 382.272771 
L 130.124372 381.65448 
L 129.86288 381.177247 
L 129.537427 380.487501 
L 129.238873 379.841913 
L 128.984793 379.19597 
L 128.677877 378.603659 
L 128.362257 378.011544 
L 128.037931 377.44614 
L 127.749354 376.907108 
L 127.566825 376.349333 
L 127.465452 375.932643 
L 127.229902 375.375402 
L 126.888152 374.845655 
L 126.745361 374.673758 
L 129.19225 370.37399 
L 129.449498 370.191684 
L 129.842847 369.619306 
L 130.130187 369.074405 
L 130.434954 368.502964 
L 130.783287 367.859871 
L 131.20334 367.28713 
L 131.676213 366.696041 
L 132.210272 366.00676 
L 132.781582 365.512383 
L 133.300417 365.098552 
L 133.828529 364.711423 
L 134.462105 364.251947 
L 135.008178 363.891201 
L 135.554627 363.583726 
L 136.118892 363.293867 
L 136.674255 362.986388 
L 137.211801 362.661279 
L 137.827769 362.210897 
L 138.504558 361.626868 
L 139.171714 360.96285 
L 139.865727 360.32521 
L 140.427773 359.777728 
L 140.956079 359.417169 
L 141.528667 359.056064 
L 142.101261 358.703867 
L 142.277363 358.595662 
L 142.954886 358.073642 
L 143.428339 357.53583 
L 143.883243 356.909474 
L 144.302384 356.26567 
L 144.669823 355.746758 
L 145.080065 355.094208 
L 145.445655 354.397684 
L 145.581578 353.77444 
L 145.744009 353.142101 
L 145.968517 352.517922 
L 146.263851 351.884311 
L 146.515804 351.34869 
L 146.802239 350.706333 
L 146.973553 350.082723 
L 147.082967 349.459667 
L 147.201264 348.845497 
L 147.303076 348.364795 
L 147.465687 347.741363 
L 147.594742 347.331368 
L 147.881166 346.697762 
L 148.220433 346.019224 
L 148.489634 345.439056 
L 148.697272 344.903982 
L 148.903458 344.218 
L 149.058092 343.683301 
L 149.318016 343.067856 
L 149.65729 342.398227 
L 150.031966 341.719341 
L 150.415355 341.022443 
L 150.763887 340.379376 
L 150.877161 340.182825 
L 151.217157 339.593191 
L 151.566244 339.012304 
L 151.766477 338.628316 
L 152.061257 337.950151 
L 152.303947 337.361439 
L 152.581134 336.692365 
L 152.841602 336.112378 
L 153.127863 335.452033 
L 153.414678 334.854042 
L 153.656804 334.212076 
L 153.864282 333.65917 
L 154.043963 332.973395 
L 154.268137 332.322495 
L 154.483945 331.716348 
L 154.708473 331.074356 
L 154.888692 330.45076 
L 155.034284 329.925132 
L 155.15424 329.479878 
L 155.334089 328.811726 
L 155.523962 328.276836 
L 155.757579 327.670314 
L 156.044768 327.116688 
L 156.349178 326.5007 
L 156.627098 325.893807 
L 156.851456 325.252008 
L 157.040406 324.610575 
L 157.193941 323.98715 
L 157.269619 323.550983 
L 157.38811 322.954647 
L 157.585956 322.313036 
L 157.845352 321.626332 
L 158.037045 321.277981 
L 158.324238 320.724356 
L 158.752106 320.03619 
L 159.233019 319.356209 
L 159.564878 318.828762 
L 159.887641 318.283678 
L 160.271422 317.640248 
L 160.59365 317.032986 
L 160.907519 316.487907 
L 161.264955 315.862481 
L 161.587389 315.281767 
L 161.954271 314.709591 
L 162.320255 314.048704 
L 162.563129 313.486543 
L 162.80602 312.924382 
L 163.03055 312.3004 
L 163.281789 311.684789 
L 163.516156 311.167346 
L 163.837635 310.48009 
L 164.089066 309.90011 
L 164.437255 309.221417 
L 164.776905 308.596333 
L 165.108584 308.042165 
L 165.360931 307.551105 
L 165.727086 306.907843 
L 166.12032 306.317491 
L 166.496107 305.754237 
L 166.854309 305.217698 
L 167.326868 304.582263 
L 167.68561 304.081181 
L 168.08846 303.570837 
L 168.58792 302.97958 
L 168.990219 302.40704 
L 169.33081 301.879418 
L 169.882914 301.216525 
L 170.445551 300.731259 
L 171.105325 300.209618 
L 171.651093 299.831078 
L 172.179429 299.470537 
L 172.743003 299.082908 
L 173.297668 298.704348 
L 173.938933 298.094007 
L 174.52662 297.457299 
L 175.107056 296.980761 
L 175.730349 296.352771 
L 176.371625 295.760037 
L 176.756136 295.178776 
L 177.210933 294.543687 
L 177.727274 293.845516 
L 178.092896 293.148988 
L 178.48811 292.699942 
L 178.83689 292.547318 
L 179.463561 292.046465 
L 180.027532 291.368186 
L 180.467487 290.726118 
L 181.022556 290.03022 
L 181.692738 289.351194 
L 182.354419 288.734701 
L 183.024992 288.144596 
L 183.62494 287.55503 
L 184.32221 286.982538 
L 184.975546 286.454953 
L 185.531022 285.874317 
L 186.03327 285.267523 
L 186.544443 284.687257 
L 187.143655 283.999883 
L 187.760827 283.339051 
L 188.19265 282.821525 
L 188.342415 282.634045 
L 188.906584 282.017968 
L 189.293938 281.482804 
L 189.583953 280.966042 
L 189.847289 280.467107 
L 190.0841 279.941635 
L 190.294246 279.425241 
L 190.521786 278.801963 
L 190.68761 278.285937 
L 196.684103 271.076756 
L 196.918219 271.029179 
L 197.546418 270.812495 
L 197.989076 270.712236 
L 198.663091 270.797541 
L 199.282769 270.67869 
L 199.95508 270.417293 
L 200.556599 270.174092 
L 201.228535 269.850691 
L 201.776448 269.51896 
L 202.306938 269.231777 
L 202.899165 268.917669 
L 203.411867 268.639402 
L 204.047836 268.191659 
L 204.515859 267.851582 
L 204.983857 267.493672 
L 205.619638 267.010492 
L 206.246502 266.518391 
L 206.431852 266.357447 
L 207.005512 265.856811 
L 207.694293 265.346712 
L 208.197928 265.024244 
L 208.833884 264.576523 
L 209.398655 264.084782 
L 209.804387 263.691637 
L 210.271457 263.111753 
L 210.738142 262.48733 
L 211.240056 261.844902 
L 211.697853 261.193935 
L 212.041086 260.712264 
L 212.507973 260.105657 
L 213.098486 259.427213 
L 213.644707 258.740229 
L 214.031685 258.125098 
L 214.400876 257.518884 
L 214.734861 256.939582 
L 215.165956 256.244421 
L 215.57964 255.664562 
L 216.028734 255.084688 
L 216.460007 254.433909 
L 216.856271 253.907504 
L 217.305191 253.283267 
L 217.754097 252.623399 
L 218.167587 251.990269 
L 218.456871 251.331341 
L 218.816981 250.645294 
L 219.115358 250.039635 
L 219.422472 249.42489 
L 219.677476 249.005945 
L 220.037777 248.355547 
L 220.354141 247.79407 
L 220.741143 247.170035 
L 221.084404 246.688524 
L 221.400962 246.171412 
L 221.787768 245.494106 
L 222.085967 244.870632 
L 222.34912 244.282961 
L 222.709223 243.605841 
L 222.99873 243.00892 
L 223.314922 242.403062 
L 223.516917 242.019963 
L 223.850528 241.351937 
L 224.193022 240.692623 
L 224.421177 240.211703 
L 224.71918 239.525876 
L 224.973066 238.87603 
L 225.227544 238.350561 
L 225.587657 237.691082 
L 225.877333 237.112135 
L 226.114005 236.551042 
L 226.350663 235.999032 
L 226.604925 235.411366 
L 226.867927 234.823539 
L 227.095127 234.173722 
L 227.323065 233.621698 
L 227.541946 233.060788 
L 227.743202 232.52659 
L 227.988402 231.912398 
L 228.198556 231.378197 
L 228.460976 230.683827 
L 228.531209 230.523459 
L 228.740985 229.918189 
L 228.907235 229.473083 
L 229.055294 228.948182 
L 229.203356 228.387633 
L 229.333045 227.729473 
L 229.454582 227.186924 
L 229.59413 226.706373 
L 229.813 226.154546 
L 230.040582 225.575817 
L 230.267982 224.934891 
L 230.504261 224.29398 
L 230.669933 223.751064 
L 230.800389 223.217438 
L 230.903754 222.594902 
L 231.006941 221.919094 
L 231.07548 221.448022 
L 231.152719 220.923307 
L 231.176953 220.416796 
L 231.174488 219.928268 
L 231.136623 219.422114 
L 231.080939 218.898152 
L 231.113864 218.356164 
L 231.421185 217.777054 
L 231.852686 217.188287 
L 232.133664 216.644802 
L 232.751667 216.117284 
L 233.406623 215.953886 
L 234.088245 215.772506 
L 234.68165 215.671506 
L 235.239284 215.544146 
L 235.84176 215.487507 
L 236.399579 215.386854 
L 237.026112 214.806047 
L 237.368821 214.200027 
L 237.465379 213.99511 
L 237.736907 213.318556 
L 237.964493 212.730921 
L 238.156686 212.143458 
L 238.357779 211.564916 
L 238.540678 210.897654 
L 238.591233 210.328761 
L 239.02806 204.784795 
L 239.528706 204.380377 
L 240.076111 203.95086 
L 240.60609 203.566064 
L 241.215786 203.171805 
L 241.896114 202.732805 
L 242.470393 202.321094 
L 243.0089 201.88285 
L 243.565393 201.488962 
L 244.253303 200.801243 
L 244.5521 200.248689 
L 245.124879 199.56154 
L 245.635742 198.901313 
L 245.785694 198.722942 
L 246.243917 198.169629 
L 246.834704 197.535745 
L 247.443076 196.857142 
L 247.82159 196.330932 
L 248.181933 195.680546 
L 248.463119 195.181447 
L 248.744114 194.637984 
L 249.008863 193.988839 
L 249.041972 193.899051 
L 249.21599 193.240702 
L 249.461205 192.599792 
L 249.998768 191.94829 
L 250.572691 191.492046 
L 251.225389 190.839994 
L 251.789278 190.144119 
L 252.371547 189.563514 
L 252.864808 188.921113 
L 253.287628 188.367991 
L 253.719345 187.814866 
L 254.124014 187.190839 
L 254.493442 186.602456 
L 254.818555 185.996625 
L 255.117363 185.488613 
L 255.407273 184.927334 
L 255.794311 184.312222 
L 256.155039 183.777289 
L 256.489262 183.224726 
L 256.911336 182.529432 
L 257.280768 181.941225 
L 257.641484 181.370663 
L 258.01964 180.737914 
L 258.415398 180.104985 
L 258.846746 179.480775 
L 259.181164 178.972577 
L 259.61308 178.463819 
L 260.186065 177.794495 
L 260.608908 177.276833 
L 261.005041 176.706083 
L 261.489409 176.037334 
L 262.017906 175.350387 
L 262.520471 174.779075 
L 263.058067 174.163229 
L 263.489804 173.627732 
L 263.912825 173.110264 
L 264.494723 172.467487 
L 265.032299 171.789446 
L 265.534298 171.138159 
L 266.142705 170.46865 
L 266.494559 169.91591 
L 266.784647 169.381357 
L 267.082528 168.686812 
L 267.390229 168.134263 
L 267.8305 167.545511 
L 268.19144 167.028399 
L 268.684712 166.350568 
L 269.195617 165.708169 
L 269.354302 165.529608 
L 269.87466 164.975952 
L 270.501068 164.377353 
L 271.066297 163.9213 
L 271.586666 163.394368 
L 272.177279 162.698147 
L 272.581768 162.03869 
L 272.792155 161.548864 
L 272.993475 161.023602 
L 273.283195 160.417964 
L 273.669885 159.74068 
L 274.083645 159.143225 
L 274.462371 158.634843 
L 274.867428 158.09082 
L 275.237255 157.573533 
L 275.62469 157.020609 
L 275.994515 156.494415 
L 276.311139 155.986404 
L 276.591806 155.371863 
L 276.916577 154.712768 
L 277.277687 154.204392 
L 277.638428 153.633838 
L 277.945981 153.072577 
L 278.084616 152.423311 
L 278.303549 151.862413 
L 278.682274 151.336217 
L 279.24642 150.693631 
L 279.854851 150.023958 
L 280.392669 149.417013 
L 280.692622 149.113363 
L 281.257687 148.648217 
L 281.937723 148.147086 
L 282.557118 147.895008 
L 283.176722 147.740759 
L 283.787405 147.515426 
L 284.361949 147.210286 
L 284.865659 146.887704 
L 285.422029 146.440554 
L 286.065875 145.7529 
L 286.435547 145.209051 
L 286.80863 144.686406 
L 333.995764 207.661567 
L 340.662984 216.093853 
L 349.908905 226.378063 
L 358.5704 234.956184 
L 370.415083 245.6537 
L 379.939304 252.753371 
L 387.691371 258.078045 
L 395.886194 263.180745 
L 402.530451 266.730306 
" style="fill:#1a1a1a;stroke:#ffffff;stroke-linejoin:miter;stroke-width:4;"/>
   </g>
  </g>
 </g>
 <defs>
  <clipPath id="pc6816b9c42">
   <rect height="543.6" width="558" x="90" y="86.4"/>
  </clipPath>
 </defs>
</svg>
