<?xml version="1.0" encoding="utf-8" standalone="no"?>
<!DOCTYPE svg PUBLIC "-//W3C//DTD SVG 1.1//EN"
  "http://www.w3.org/Graphics/SVG/1.1/DTD/svg11.dtd">
<!-- Created with matplotlib (https://matplotlib.org/) -->
<svg height="720pt" version="1.1" viewBox="0 0 720 720" width="720pt" xmlns="http://www.w3.org/2000/svg" xmlns:xlink="http://www.w3.org/1999/xlink">
 <metadata>
  <rdf:RDF xmlns:cc="http://creativecommons.org/ns#" xmlns:dc="http://purl.org/dc/elements/1.1/" xmlns:rdf="http://www.w3.org/1999/02/22-rdf-syntax-ns#">
   <cc:Work>
    <dc:type rdf:resource="http://purl.org/dc/dcmitype/StillImage"/>
    <dc:date>2021-05-28T08:56:46.506562</dc:date>
    <dc:format>image/svg+xml</dc:format>
    <dc:creator>
     <cc:Agent>
      <dc:title>Matplotlib v3.3.3, https://matplotlib.org/</dc:title>
     </cc:Agent>
    </dc:creator>
   </cc:Work>
  </rdf:RDF>
 </metadata>
 <defs>
  <style type="text/css">*{stroke-linecap:butt;stroke-linejoin:round;}</style>
 </defs>
 <g id="figure_1">
  <g id="patch_1">
   <path d="M 0 720 
L 720 720 
L 720 0 
L 0 0 
z
" style="fill:none;"/>
  </g>
  <g id="axes_1">
   <g id="patch_2">
    <path clip-path="url(#pb43ada32a6)" d="M 619.974129 288.906184 
L 621.532066 303.754729 
L 621.866887 306.945931 
L 621.913162 307.386991 
L 622.346589 311.518023 
L 623.406105 321.616644 
L 624.617607 341.109343 
L 624.81441 344.602416 
L 625.030479 349.741145 
L 625.159671 354.888061 
L 625.201879 360.039014 
L 625.157084 365.189961 
L 625.02531 370.336694 
L 625.002839 370.976424 
L 617.803275 370.971428 
L 594.485608 370.933626 
L 566.546582 339.031232 
L 564.915986 337.266916 
L 563.235151 335.640281 
L 561.508238 334.155353 
L 559.739486 332.815777 
L 557.933252 331.62487 
L 556.093983 330.58553 
L 554.226209 329.700346 
L 552.334517 328.971487 
L 551.36266 328.660949 
L 550.386449 328.391454 
L 549.40648 328.163405 
L 548.423385 327.976966 
L 547.437794 327.832227 
L 546.450326 327.729317 
L 544.472316 327.64913 
L 530.511599 327.675459 
L 528.325851 327.679825 
L 506.595991 327.725127 
L 459.25239 327.828361 
L 399.567847 377.291949 
L 391.86061 415.549095 
L 391.636153 444.250692 
L 387.837093 444.2543 
L 379.300825 444.271562 
L 372.923019 444.284628 
L 368.233276 444.307243 
L 366.145333 419.415 
L 359.99617 409.763224 
L 359.99459 400.444892 
L 356.013713 380.903867 
L 356.853022 373.124864 
L 357.096408 370.869096 
L 355.933206 367.909372 
L 354.761953 365.215162 
L 353.477935 362.532895 
L 352.119811 359.955145 
L 350.690602 357.487647 
L 349.193502 355.135884 
L 347.631837 352.9051 
L 346.009096 350.800284 
L 344.328877 348.826117 
L 342.59494 346.986988 
L 340.811122 345.287013 
L 338.981434 343.729941 
L 337.109931 342.319289 
L 335.200774 341.05817 
L 333.258237 339.949387 
L 331.286624 338.995436 
L 329.460297 338.260182 
L 327.61673 337.657777 
L 325.759346 337.189369 
L 323.891624 336.855794 
L 288.872874 331.885105 
L 277.925356 331.908741 
L 269.135591 331.927997 
L 258.055653 331.952589 
L 249.449725 331.972018 
L 239.113968 332.014225 
L 238.135888 332.014669 
L 230.944946 332.014596 
L 208.680789 371.701463 
L 201.643275 371.733168 
L 201.636202 371.037961 
L 214.860951 347.467952 
L 211.562375 342.271397 
L 210.389098 340.42306 
L 209.181519 338.5207 
L 169.91869 408.492579 
L 160.61169 425.079307 
L 157.565969 430.555756 
L 154.684175 435.963596 
L 153.537456 438.186902 
L 151.462499 442.326743 
L 150.032049 445.244947 
L 147.539671 450.539017 
L 145.114268 455.919732 
L 142.756926 461.384705 
L 141.984746 463.210575 
L 139.829761 468.499354 
L 137.738255 473.859206 
L 135.711052 479.287999 
L 133.748977 484.783564 
L 131.8528 490.343715 
L 130.02328 495.96621 
L 128.261133 501.648826 
L 126.567085 507.389285 
L 124.941787 513.185291 
L 123.3859 519.034567 
L 121.90004 524.934743 
L 120.484806 530.88347 
L 119.140747 536.878378 
L 117.868407 542.917082 
L 116.668293 548.997176 
L 112.802001 569.231842 
L 112.802306 569.015261 
L 112.799515 561.968271 
L 112.798121 554.686017 
L 112.80507 532.266384 
L 112.805421 521.332807 
L 112.821233 445.281729 
L 112.857702 371.83182 
L 112.88473 316.703101 
L 112.886594 308.274315 
L 143.51039 307.640456 
L 171.604816 305.528731 
L 197.202026 303.420788 
L 214.683087 301.842036 
L 229.852512 301.665902 
L 235.164485 292.196884 
L 238.65508 285.975244 
L 242.638506 278.783489 
L 246.413098 271.545347 
L 250.582599 263.019363 
L 255.213832 252.808581 
L 257.803396 246.863433 
L 261.158119 239.161528 
L 264.215631 232.142105 
L 268.691298 221.867129 
L 272.3118 212.917782 
L 276.350319 201.025613 
L 279.873846 188.084502 
L 282.890819 173.467889 
L 285.05936 159.484322 
L 286.412424 151.222706 
L 286.930265 147.571433 
L 288.57347 147.569273 
L 295.479933 147.55683 
L 369.728134 147.439107 
L 369.725754 223.89941 
L 372.805866 223.888786 
L 372.807729 297.720016 
L 376.084547 297.709994 
L 376.083223 147.429914 
L 378.865138 147.426368 
L 384.63298 147.419088 
L 530.526958 147.253826 
L 556.354796 147.224629 
L 612.614697 147.168158 
L 612.607747 149.42799 
L 612.595287 154.420657 
L 612.582828 159.413325 
L 612.570358 164.405993 
L 612.5579 169.398662 
L 612.545441 174.391348 
L 612.532982 179.384017 
L 612.520524 184.376686 
L 612.508066 189.369355 
L 612.495597 194.362025 
L 612.483139 199.354694 
L 612.501399 201.641275 
L 612.532539 203.927464 
L 612.576558 206.213061 
L 612.633458 208.497865 
L 612.031881 213.216986 
L 616.921876 259.816969 
L 617.813235 268.311765 
L 619.974129 288.906184 
" style="fill:#1a1a1a;stroke:#ffffff;stroke-linejoin:miter;stroke-width:4;"/>
   </g>
  </g>
 </g>
 <defs>
  <clipPath id="pb43ada32a6">
   <rect height="543.6" width="558" x="90" y="86.4"/>
  </clipPath>
 </defs>
</svg>
