<?xml version="1.0" encoding="utf-8" standalone="no"?>
<!DOCTYPE svg PUBLIC "-//W3C//DTD SVG 1.1//EN"
  "http://www.w3.org/Graphics/SVG/1.1/DTD/svg11.dtd">
<!-- Created with matplotlib (https://matplotlib.org/) -->
<svg height="720pt" version="1.1" viewBox="0 0 720 720" width="720pt" xmlns="http://www.w3.org/2000/svg" xmlns:xlink="http://www.w3.org/1999/xlink">
 <metadata>
  <rdf:RDF xmlns:cc="http://creativecommons.org/ns#" xmlns:dc="http://purl.org/dc/elements/1.1/" xmlns:rdf="http://www.w3.org/1999/02/22-rdf-syntax-ns#">
   <cc:Work>
    <dc:type rdf:resource="http://purl.org/dc/dcmitype/StillImage"/>
    <dc:date>2021-05-28T08:56:52.014580</dc:date>
    <dc:format>image/svg+xml</dc:format>
    <dc:creator>
     <cc:Agent>
      <dc:title>Matplotlib v3.3.3, https://matplotlib.org/</dc:title>
     </cc:Agent>
    </dc:creator>
   </cc:Work>
  </rdf:RDF>
 </metadata>
 <defs>
  <style type="text/css">*{stroke-linecap:butt;stroke-linejoin:round;}</style>
 </defs>
 <g id="figure_1">
  <g id="patch_1">
   <path d="M 0 720 
L 720 720 
L 720 0 
L 0 0 
z
" style="fill:none;"/>
  </g>
  <g id="axes_1">
   <g id="patch_2">
    <path clip-path="url(#p1cbeda4c3e)" d="M 149.727322 170.520565 
L 154.281967 170.627972 
L 160.53642 170.51957 
L 166.577912 170.894016 
L 174.014972 172.036309 
L 181.504824 173.756224 
L 188.995311 175.813174 
L 197.003618 178.639518 
L 204.703493 182.14044 
L 207.224866 183.465452 
L 212.921255 186.45891 
L 220.209989 190.971599 
L 226.880464 196.15939 
L 233.25134 201.434645 
L 255.63759 222.299146 
L 263.135534 228.352239 
L 269.907146 232.625347 
L 276.831984 236.079814 
L 285.356323 239.002096 
L 293.361766 240.577333 
L 301.72731 241.47801 
L 316.5871 241.654104 
L 365.926744 241.611388 
L 437.134979 241.52537 
L 589.814004 241.778159 
L 589.989095 341.586067 
L 590.119781 442.709354 
L 590.195142 474.862881 
L 591.029697 528.931286 
L 589.826812 543.571075 
L 563.148948 545.455756 
L 556.81052 545.60569 
L 518.289762 545.424601 
L 488.187792 545.441784 
L 455.459442 545.611562 
L 422.731069 545.778877 
L 395.65926 545.88043 
L 371.417633 545.803074 
L 338.287463 545.709039 
L 311.656861 545.515414 
L 289.87073 545.554036 
L 265.495669 545.53576 
L 228.390734 545.539721 
L 197.211158 545.414542 
L 167.74564 545.437107 
L 156.689864 545.674635 
L 149.7519 545.558465 
L 146.984488 545.557431 
L 146.983653 493.892714 
L 146.981239 342.650213 
L 146.98117 340.247739 
L 146.971527 191.406958 
L 146.970303 170.530402 
L 149.727322 170.520565 
" style="fill:#1a1a1a;stroke:#ffffff;stroke-linejoin:miter;stroke-width:4;"/>
   </g>
  </g>
 </g>
 <defs>
  <clipPath id="p1cbeda4c3e">
   <rect height="543.6" width="558" x="90" y="86.4"/>
  </clipPath>
 </defs>
</svg>
