<?xml version="1.0" encoding="utf-8"?>
<!-- Generator: Adobe Illustrator 24.2.1, SVG Export Plug-In . SVG Version: 6.00 Build 0)  -->
<svg version="1.1" id="Layer_1" xmlns="http://www.w3.org/2000/svg" xmlns:xlink="http://www.w3.org/1999/xlink" x="0px" y="0px"
	 viewBox="0 0 163 76" enable-background="new 0 0 163 76" xml:space="preserve">
<g>
	<path fill="#FFFFFF" d="M161.5,66.7c0,4.4-3.6,8-8,8H9.1c-4.4,0-8-3.6-8-8v-57c0-4.4,3.6-8,8-8h144.4c4.4,0,8,3.6,8,8V66.7z"/>
	<path fill="none" stroke="#808080" stroke-width="0.75" stroke-miterlimit="10" d="M161.5,66.7c0,4.4-3.6,8-8,8H9.1
		c-4.4,0-8-3.6-8-8v-57c0-4.4,3.6-8,8-8h144.4c4.4,0,8,3.6,8,8V66.7z"/>
</g>
<g>
	<path d="M36.1,27.8h12.3v2.5h-9.4v7.6h8.7v2.4h-8.7v10.4h-3V27.8z"/>
	<path d="M57.3,27.8v22.9h-3V27.8H57.3z"/>
	<path d="M64.2,27.8h3v20.4h9.8v2.5H64.2V27.8z"/>
	<path d="M83.3,30.3h-7v-2.5h17v2.5h-7v20.4h-3V30.3z"/>
	<path d="M109.4,40h-8.9v8.3h9.9v2.5H97.5V27.8h12.4v2.5h-9.4v7.2h8.9V40z"/>
	<path d="M116,28.1c1.5-0.3,3.6-0.5,5.7-0.5c3.2,0,5.2,0.6,6.6,1.9c1.2,1,1.8,2.6,1.8,4.4c0,3-1.9,5-4.3,5.8v0.1
		c1.8,0.6,2.8,2.2,3.4,4.6c0.7,3.2,1.3,5.4,1.8,6.3h-3.1c-0.4-0.6-0.9-2.6-1.5-5.5c-0.7-3.2-1.9-4.4-4.6-4.5h-2.8v9.9h-3V28.1z
		 M118.9,38.6h3c3.2,0,5.2-1.7,5.2-4.4c0-3-2.1-4.2-5.3-4.3c-1.4,0-2.4,0.1-2.9,0.3V38.6z"/>
</g>
</svg>
