<?xml version="1.0" encoding="utf-8"?>
<!-- Generator: Adobe Illustrator 24.2.1, SVG Export Plug-In . SVG Version: 6.00 Build 0)  -->
<svg version="1.1" id="Layer_1" xmlns="http://www.w3.org/2000/svg" xmlns:xlink="http://www.w3.org/1999/xlink" x="0px" y="0px"
	 viewBox="0 0 130 68" enable-background="new 0 0 130 68" xml:space="preserve">
<path fill="#FFFFFF" d="M124.6,55.4c0,3.3-2.7,6-6,6H11.1c-3.3,0-6-2.7-6-6V13c0-3.3,2.7-6,6-6h107.5c3.3,0,6,2.7,6,6V55.4z"/>
<path fill="#F2F2F2" stroke="#808080" stroke-width="0.5586" stroke-miterlimit="10" d="M124.6,55.4c0,3.3-2.7,6-6,6H11.1
	c-3.3,0-6-2.7-6-6V13c0-3.3,2.7-6,6-6h107.5c3.3,0,6,2.7,6,6V55.4z"/>
<g>
	<path d="M31.2,26.5h9.2v1.9h-7V34h6.5v1.8h-6.5v7.7h-2.2L31.2,26.5L31.2,26.5z"/>
	<path d="M47,26.5v17.1h-2.2V26.5H47z"/>
	<path d="M52.2,26.5h2.2v15.2h7.3v1.9h-9.5V26.5z"/>
	<path d="M66.4,28.3h-5.2v-1.9h12.7v1.9h-5.2v15.2h-2.2V28.3z"/>
	<path d="M85.8,35.6h-6.6v6.2h7.4v1.9H77V26.5h9.2v1.9h-7v5.4h6.6V35.6z"/>
	<path d="M90.8,26.7c1.1-0.2,2.7-0.4,4.2-0.4c2.4,0,3.9,0.4,4.9,1.4c0.9,0.7,1.3,1.9,1.3,3.3c0,2.2-1.4,3.7-3.2,4.3v0.1
		c1.3,0.4,2.1,1.6,2.5,3.4c0.5,2.4,1,4,1.3,4.7h-2.3c-0.3-0.4-0.7-1.9-1.1-4.1c-0.5-2.4-1.4-3.3-3.4-3.4H93v7.4h-2.2V26.7z
		 M92.9,34.5h2.2c2.4,0,3.9-1.3,3.9-3.3c0-2.2-1.6-3.1-3.9-3.2c-1,0-1.8,0.1-2.2,0.2V34.5z"/>
</g>
<g>
</g>
<g>
</g>
<g>
</g>
<g>
</g>
<g>
</g>
<g>
</g>
<g>
</g>
<g>
</g>
<g>
</g>
<g>
</g>
<g>
</g>
<g>
</g>
<g>
</g>
<g>
</g>
<g>
</g>
</svg>
