<?xml version="1.0" encoding="utf-8"?>
<!-- Generator: Adobe Illustrator 24.2.2, SVG Export Plug-In . SVG Version: 6.00 Build 0)  -->
<svg version="1.1" baseProfile="tiny" id="Layer_1" xmlns="http://www.w3.org/2000/svg" xmlns:xlink="http://www.w3.org/1999/xlink"
	 x="0px" y="0px" viewBox="0 0 396 72" overflow="visible" xml:space="preserve">
<g>
	<g>
		<path fill="#101820" d="M2.1,6.9h9.5v17.7h0.1c1.8-2.7,5-4.4,9.3-4.4c7.3,0,12.6,6.1,12.6,15.6c0,11.1-6.9,16.7-14,16.7
			c-3.6,0-7.1-1.3-9.2-5h-0.1l-0.4,4.3H1.8c0.1-2,0.3-5.8,0.3-9.2L2.1,6.9z M11.6,38.7c0,0.6,0.1,1.2,0.2,1.7
			c0.6,2.5,2.8,4.6,5.6,4.6c4.1,0,6.6-3.2,6.6-8.7c0-4.8-2.1-8.6-6.6-8.6c-2.6,0-4.9,2-5.6,4.7c-0.1,0.6-0.2,1.1-0.2,1.8V38.7z"/>
		<path fill="#101820" d="M36.4,6.9h9.5v45h-9.5V6.9z"/>
		<path fill="#101820" d="M77.2,44.4c0,2.9,0.1,5.8,0.5,7.5h-8.6l-0.6-3.1h-0.2c-2,2.5-5.1,3.8-8.8,3.8c-6.2,0-9.9-4.6-9.9-9.5
			c0-8,7.1-11.8,18-11.8v-0.4c0-1.6-0.9-4-5.6-4c-3.1,0-6.5,1.1-8.5,2.3L51.9,23c2.1-1.2,6.3-2.8,11.9-2.8
			c10.2,0,13.4,6.1,13.4,13.3V44.4z M68,37.2c-5,0-8.9,1.2-8.9,4.9c0,2.5,1.6,3.7,3.8,3.7c2.3,0,4.3-1.6,4.9-3.5
			c0.1-0.5,0.2-1.1,0.2-1.6V37.2z"/>
		<path fill="#101820" d="M104.6,51c-1.7,0.8-4.9,1.5-8.5,1.5c-9.9,0-16.2-6.1-16.2-15.8c0-9,6.1-16.4,17.5-16.4
			c2.5,0,5.3,0.4,7.3,1.2l-1.5,7.1c-1.1-0.5-2.8-0.9-5.3-0.9c-5,0-8.3,3.6-8.2,8.6c0,5.7,3.8,8.7,8.4,8.7c2.3,0,4-0.4,5.4-1
			L104.6,51z"/>
		<path fill="#101820" d="M117.5,33.9h0.1c0.7-1.3,1.4-2.6,2.2-3.7l6.2-9.3h11.5l-11,12.5L139,51.8h-11.7l-7.4-12.7l-2.4,3v9.7H108
			v-45h9.5V33.9z"/>
		<path fill="#101820" d="M140,6.9h9.5v45H140V6.9z"/>
		<path fill="#101820" d="M160.1,17.1c-3,0-4.9-2.1-4.9-4.8c0-2.7,2-4.8,5.1-4.8c3.1,0,4.9,2.1,5,4.8
			C165.2,15,163.3,17.1,160.1,17.1L160.1,17.1z M155.4,51.8V20.9h9.5v30.9H155.4z"/>
		<path fill="#101820" d="M170.7,30.8c0-3.9-0.1-7.1-0.2-9.9h8.3l0.4,4.3h0.2c1.3-2,4.3-5,9.5-5c6.3,0,11,4.2,11,13.3v18.3h-9.5
			V34.7c0-4-1.4-6.7-4.8-6.7c-2.6,0-4.2,1.8-4.9,3.6c-0.3,0.6-0.3,1.5-0.3,2.4v17.8h-9.5V30.8z"/>
		<path fill="#101820" d="M211.5,39.4c0.3,4,4.2,5.9,8.6,5.9c3.3,0,3.9,0,6.6-0.1l0,7.2c-3.4,0-3.8,0.1-8,0.1
			c-10.4,0-16.3-6.1-16.3-15.7c0-7.8,4.9-16.5,15.5-16.5c9.9,0,13.7,7.8,13.7,15.4c0,1.6-0.2,3.1-0.3,3.8H211.5z M222.7,32.9
			c0-2.3-1-6.3-5.3-6.3c-4.1,0-5.7,3.7-5.9,6.3H222.7z"/>
	</g>
</g>
<g>
	<path fill="#2A7DE1" d="M241.8,20.6l4.3,14.7c0.8,2.7,1.3,5.2,1.8,7.7h0.2c0.5-2.6,1-5,1.8-7.7l4.1-14.7h10.4l-11.8,31.7h-9.9
		l-11.5-31.7H241.8z"/>
	<path fill="#2A7DE1" d="M277.6,11.8c0,2.7-2,4.9-5.3,4.9c-3.1,0-5.1-2.2-5.1-4.9c0-2.8,2.1-4.9,5.3-4.9S277.5,9,277.6,11.8z
		 M267.4,52.3V20.6h9.9v31.7H267.4z"/>
	<path fill="#2A7DE1" d="M283.7,43.7c1.8,1.1,5.6,2.3,8.5,2.3c3,0,4.2-1,4.2-2.6c0-1.7-1-2.5-4.6-3.7c-6.6-2.2-9.1-5.8-9.1-9.5
		c0-6,5.1-10.4,12.9-10.4c3.7,0,6.9,0.9,8.9,1.9l-1.7,6.8c-1.4-0.8-4.2-1.8-6.9-1.8c-2.4,0-3.8,1-3.8,2.5c0,1.6,1.2,2.3,5.1,3.7
		c6,2.1,8.5,5.2,8.6,9.8c0,6-4.6,10.3-13.7,10.3c-4.2,0-7.8-1-10.2-2.3L283.7,43.7z"/>
	<path fill="#2A7DE1" d="M320.6,11.8c0,2.7-2,4.9-5.3,4.9c-3.1,0-5.1-2.2-5.1-4.9c0-2.8,2.1-4.9,5.3-4.9S320.6,9,320.6,11.8z
		 M310.5,52.3V20.6h9.9v31.7H310.5z"/>
	<path fill="#2A7DE1" d="M358.1,36.1c0,11.6-8.2,16.9-16.7,16.9c-9.3,0-16.4-6.1-16.4-16.3c0-10.3,6.7-16.9,17-16.9
		C351.6,19.8,358.1,26.5,358.1,36.1z M335.2,36.4c0,5.4,2.3,9.5,6.5,9.5c3.9,0,6.3-3.8,6.3-9.6c0-4.7-1.8-9.5-6.3-9.5
		C337,26.9,335.2,31.7,335.2,36.4z"/>
	<path fill="#2A7DE1" d="M362.8,30.7c0-4-0.1-7.3-0.3-10.1h8.6l0.5,4.4h0.2c1.3-2.1,4.5-5.1,9.8-5.1c6.5,0,11.3,4.3,11.3,13.7v18.7
		H383V34.7c0-4.1-1.4-6.9-5-6.9c-2.7,0-4.3,1.9-5.1,3.7c-0.3,0.6-0.3,1.6-0.3,2.5v18.3h-9.9V30.7z"/>
</g>
</svg>
