<?xml version="1.0" encoding="utf-8"?>
<!-- Generator: Adobe Illustrator 24.2.1, SVG Export Plug-In . SVG Version: 6.00 Build 0)  -->
<svg version="1.1" id="Layer_1" xmlns="http://www.w3.org/2000/svg" xmlns:xlink="http://www.w3.org/1999/xlink" x="0px" y="0px"
	 viewBox="0 0 325 68" enable-background="new 0 0 325 68" xml:space="preserve">
<g>
	<path fill="#F2F2F2" d="M319.5,53.4c0,4.4-3.6,8.1-8.1,8.1H12.6c-4.4,0-8.1-3.6-8.1-8.1V14.6c0-4.4,3.6-8.1,8.1-8.1h298.9
		c4.4,0,8.1,3.6,8.1,8.1V53.4z"/>
	<path fill="none" stroke="#808080" stroke-width="0.5622" stroke-miterlimit="10" d="M319.5,53.4c0,4.4-3.6,8.1-8.1,8.1H12.6
		c-4.4,0-8.1-3.6-8.1-8.1V14.6c0-4.4,3.6-8.1,8.1-8.1h298.9c4.4,0,8.1,3.6,8.1,8.1V53.4z"/>
</g>
<g>
	<rect x="28.6" y="24.9" fill="none" width="274.4" height="22.7"/>
	<path d="M30.6,26.1c1.1-0.2,2.8-0.4,4.3-0.4c2.4,0,4,0.4,5.1,1.4c0.9,0.8,1.4,2,1.4,3.3c0,2.3-1.5,3.8-3.3,4.5v0.1
		c1.4,0.5,2.2,1.7,2.6,3.5c0.6,2.4,1,4.1,1.4,4.8h-2.3c-0.3-0.5-0.7-2-1.2-4.2c-0.5-2.4-1.5-3.3-3.5-3.4h-2.1v7.6h-2.3V26.1z
		 M32.8,34.1h2.3c2.4,0,4-1.3,4-3.3c0-2.3-1.6-3.2-4-3.3c-1.1,0-1.9,0.1-2.2,0.2V34.1z"/>
	<path d="M55.4,35.2h-6.8v6.3h7.6v1.9h-9.9V25.9h9.5v1.9h-7.2v5.5h6.8V35.2z"/>
	<path d="M61,25.9h9.4v1.9h-7.2v5.8h6.6v1.9h-6.6v7.9H61V25.9z"/>
	<path d="M77.7,25.9v17.5h-2.3V25.9H77.7z"/>
	<path d="M83.5,43.4V25.9H86l5.6,8.9c1.3,2.1,2.3,3.9,3.1,5.7l0.1,0c-0.2-2.3-0.3-4.5-0.3-7.2v-7.3h2.1v17.5h-2.3l-5.6-8.9
		c-1.2-1.9-2.4-4-3.3-5.9l-0.1,0c0.1,2.2,0.2,4.3,0.2,7.2v7.5H83.5z"/>
	<path d="M111.5,35.2h-6.8v6.3h7.6v1.9h-9.9V25.9h9.5v1.9h-7.2v5.5h6.8V35.2z"/>
	<path d="M127.1,43.4V36l-5.5-10.1h2.6l2.5,4.8c0.7,1.3,1.2,2.4,1.7,3.6h0.1c0.5-1.1,1.1-2.3,1.8-3.6l2.5-4.8h2.6l-5.9,10.1v7.5
		H127.1z"/>
	<path d="M153.1,34.5c0,6-3.7,9.2-8.1,9.2c-4.6,0-7.9-3.6-7.9-8.9c0-5.6,3.5-9.2,8.1-9.2C150,25.6,153.1,29.3,153.1,34.5z
		 M139.5,34.7c0,3.7,2,7.1,5.6,7.1c3.6,0,5.6-3.3,5.6-7.3c0-3.5-1.8-7.1-5.6-7.1C141.4,27.4,139.5,30.9,139.5,34.7z"/>
	<path d="M160.1,25.9v10.4c0,3.9,1.7,5.6,4.1,5.6c2.6,0,4.3-1.7,4.3-5.6V25.9h2.3v10.2c0,5.4-2.8,7.6-6.6,7.6
		c-3.6,0-6.3-2.1-6.3-7.5V25.9H160.1z"/>
	<path d="M176.5,26.1c1.1-0.2,2.8-0.4,4.3-0.4c2.4,0,4,0.4,5.1,1.4c0.9,0.8,1.4,2,1.4,3.3c0,2.3-1.5,3.8-3.3,4.5v0.1
		c1.4,0.5,2.2,1.7,2.6,3.5c0.6,2.4,1,4.1,1.4,4.8h-2.3c-0.3-0.5-0.7-2-1.2-4.2c-0.5-2.4-1.5-3.3-3.5-3.4h-2.1v7.6h-2.3V26.1z
		 M178.8,34.1h2.3c2.4,0,4-1.3,4-3.3c0-2.3-1.6-3.2-4-3.3c-1.1,0-1.9,0.1-2.2,0.2V34.1z"/>
	<path d="M199.3,40.6c1,0.6,2.5,1.1,4.1,1.1c2.3,0,3.7-1.2,3.7-3c0-1.6-0.9-2.6-3.3-3.5c-2.9-1-4.6-2.5-4.6-5c0-2.7,2.3-4.8,5.7-4.8
		c1.8,0,3.1,0.4,3.9,0.9l-0.6,1.8c-0.6-0.3-1.7-0.8-3.3-0.8c-2.4,0-3.3,1.4-3.3,2.6c0,1.6,1.1,2.4,3.5,3.4c3,1.1,4.5,2.6,4.5,5.1
		c0,2.7-2,5-6.1,5c-1.7,0-3.5-0.5-4.5-1.1L199.3,40.6z"/>
	<path d="M223.3,35.2h-6.8v6.3h7.6v1.9h-9.9V25.9h9.5v1.9h-7.2v5.5h6.8V35.2z"/>
	<path d="M231.7,37.9l-1.8,5.5h-2.3l6-17.5h2.7l6,17.5h-2.4l-1.9-5.5H231.7z M237.5,36.1l-1.7-5c-0.4-1.1-0.6-2.2-0.9-3.2h-0.1
		c-0.3,1-0.5,2.1-0.9,3.2l-1.7,5.1H237.5z"/>
	<path d="M246.6,26.1c1.1-0.2,2.8-0.4,4.3-0.4c2.4,0,4,0.4,5.1,1.4c0.9,0.8,1.4,2,1.4,3.3c0,2.3-1.5,3.8-3.3,4.5v0.1
		c1.4,0.5,2.2,1.7,2.6,3.5c0.6,2.4,1,4.1,1.4,4.8h-2.3c-0.3-0.5-0.7-2-1.2-4.2c-0.5-2.4-1.5-3.3-3.5-3.4h-2.1v7.6h-2.3V26.1z
		 M248.9,34.1h2.3c2.4,0,4-1.3,4-3.3c0-2.3-1.6-3.2-4-3.3c-1.1,0-1.9,0.1-2.2,0.2V34.1z"/>
	<path d="M274.7,42.8c-0.8,0.4-2.5,0.8-4.6,0.8c-4.9,0-8.7-3.1-8.7-8.9c0-5.5,3.7-9.2,9.2-9.2c2.2,0,3.6,0.5,4.2,0.8l-0.5,1.8
		c-0.9-0.4-2.1-0.7-3.5-0.7c-4.1,0-6.8,2.6-6.8,7.2c0,4.3,2.5,7,6.7,7c1.4,0,2.8-0.3,3.7-0.7L274.7,42.8z"/>
	<path d="M281.7,25.9v7.3h8.5v-7.3h2.3v17.5h-2.3v-8.2h-8.5v8.2h-2.3V25.9H281.7z"/>
</g>
<g>
</g>
<g>
</g>
<g>
</g>
<g>
</g>
<g>
</g>
<g>
</g>
<g>
</g>
<g>
</g>
<g>
</g>
<g>
</g>
<g>
</g>
<g>
</g>
<g>
</g>
<g>
</g>
<g>
</g>
</svg>
