<?xml version="1.0" encoding="utf-8"?>
<!-- Generator: Adobe Illustrator 24.2.1, SVG Export Plug-In . SVG Version: 6.00 Build 0)  -->
<svg version="1.1" id="Layer_1" xmlns="http://www.w3.org/2000/svg" xmlns:xlink="http://www.w3.org/1999/xlink" x="0px" y="0px"
	 viewBox="0 0 130 68" enable-background="new 0 0 130 68" xml:space="preserve">
<path fill="#FFFFFF" d="M124.6,55.4c0,3.3-2.7,6-6,6H11.1c-3.3,0-6-2.7-6-6V13c0-3.3,2.7-6,6-6h107.5c3.3,0,6,2.7,6,6V55.4z"/>
<path fill="#F2F2F2" stroke="#808080" stroke-width="0.5586" stroke-miterlimit="10" d="M124.6,55.4c0,3.3-2.7,6-6,6H11.1
	c-3.3,0-6-2.7-6-6V13c0-3.3,2.7-6,6-6h107.5c3.3,0,6,2.7,6,6V55.4z"/>
<g>
	<rect x="29" y="24.9" fill="none" width="80" height="23.1"/>
	<path d="M31,26c1.1-0.2,2.8-0.4,4.3-0.4c2.4,0,4,0.4,5.1,1.4c0.9,0.8,1.4,2,1.4,3.3c0,2.3-1.5,3.8-3.3,4.5V35
		c1.4,0.5,2.2,1.7,2.6,3.5c0.6,2.4,1,4.1,1.4,4.8h-2.3c-0.3-0.5-0.7-2-1.2-4.2c-0.5-2.4-1.5-3.3-3.5-3.4h-2.1v7.6H31V26z M33.2,34
		h2.3c2.4,0,4-1.3,4-3.3c0-2.3-1.6-3.3-4-3.3c-1.1,0-1.9,0.1-2.2,0.2V34z"/>
	<path d="M55.9,35.1h-6.8v6.3h7.6v1.9h-9.9V25.8h9.5v1.9h-7.2v5.5h6.8V35.1z"/>
	<path d="M61.1,40.6c1,0.6,2.5,1.1,4.1,1.1c2.3,0,3.7-1.2,3.7-3c0-1.6-0.9-2.6-3.3-3.5c-2.9-1-4.6-2.5-4.6-5c0-2.7,2.3-4.8,5.7-4.8
		c1.8,0,3.1,0.4,3.9,0.9l-0.6,1.8c-0.6-0.3-1.7-0.8-3.3-0.8c-2.4,0-3.3,1.4-3.3,2.6c0,1.6,1.1,2.4,3.5,3.4c3,1.1,4.5,2.6,4.5,5.1
		c0,2.7-2,5-6.1,5c-1.7,0-3.5-0.5-4.5-1.1L61.1,40.6z"/>
	<path d="M85.1,35.1h-6.8v6.3h7.6v1.9H76V25.8h9.5v1.9h-7.2v5.5h6.8V35.1z"/>
	<path d="M94.4,27.7h-5.3v-1.9h13v1.9h-5.4v15.6h-2.3V27.7z"/>
</g>
<g>
</g>
<g>
</g>
<g>
</g>
<g>
</g>
<g>
</g>
<g>
</g>
<g>
</g>
<g>
</g>
<g>
</g>
<g>
</g>
<g>
</g>
<g>
</g>
<g>
</g>
<g>
</g>
<g>
</g>
</svg>
