<?xml version="1.0" encoding="utf-8"?>
<!-- Generator: Adobe Illustrator 24.2.1, SVG Export Plug-In . SVG Version: 6.00 Build 0)  -->
<svg version="1.1" id="Layer_1" xmlns="http://www.w3.org/2000/svg" xmlns:xlink="http://www.w3.org/1999/xlink" x="0px" y="0px"
	 viewBox="0 0 356.9 324.2" enable-background="new 0 0 356.9 324.2" xml:space="preserve">
<g>
	<g>
		<g>
			
				<line fill="none" stroke="#FFFFFF" stroke-width="3" stroke-linecap="round" stroke-miterlimit="10" x1="60.5" y1="121.7" x2="61.5" y2="121.7"/>
			
				<line fill="none" stroke="#FFFFFF" stroke-width="3" stroke-linecap="round" stroke-miterlimit="10" stroke-dasharray="2.1096,21.0959" x1="82.6" y1="121.7" x2="211.3" y2="121.7"/>
			
				<line fill="none" stroke="#FFFFFF" stroke-width="3" stroke-linecap="round" stroke-miterlimit="10" x1="221.8" y1="121.7" x2="222.8" y2="121.7"/>
		</g>
	</g>
	<g>
		<g>
			
				<line fill="none" stroke="#FFFFFF" stroke-width="3" stroke-linecap="round" stroke-miterlimit="10" x1="60.5" y1="121.7" x2="61.4" y2="122.1"/>
			
				<line fill="none" stroke="#FFFFFF" stroke-width="3" stroke-linecap="round" stroke-miterlimit="10" stroke-dasharray="2.1096,21.0959" x1="80.3" y1="131.5" x2="195.6" y2="188.5"/>
			
				<line fill="none" stroke="#FFFFFF" stroke-width="3" stroke-linecap="round" stroke-miterlimit="10" x1="205.1" y1="193.2" x2="206" y2="193.6"/>
		</g>
	</g>
	<g>
		<g>
			
				<line fill="none" stroke="#FFFFFF" stroke-width="3" stroke-linecap="round" stroke-miterlimit="10" x1="58.3" y1="124.7" x2="58.9" y2="125.5"/>
			
				<line fill="none" stroke="#FFFFFF" stroke-width="3" stroke-linecap="round" stroke-miterlimit="10" stroke-dasharray="2.1096,21.0959" x1="71" y1="142.8" x2="144.7" y2="248.3"/>
			
				<line fill="none" stroke="#FFFFFF" stroke-width="3" stroke-linecap="round" stroke-miterlimit="10" x1="150.7" y1="256.9" x2="151.3" y2="257.8"/>
		</g>
	</g>
	<g>
		
			<line fill="none" stroke="#2E2D2C" stroke-width="3" stroke-linecap="round" stroke-linejoin="round" stroke-miterlimit="10" x1="231.2" y1="167.6" x2="279.3" y2="167.6"/>
		
			<polygon fill="none" stroke="#FFFFFF" stroke-width="3" stroke-linecap="round" stroke-linejoin="round" stroke-miterlimit="10" points="
			255.3,206.5 231.2,167.6 279.3,167.6 		"/>
		
			<line fill="none" stroke="#FFFFFF" stroke-width="3" stroke-linecap="round" stroke-linejoin="round" stroke-miterlimit="10" x1="244" y1="225.8" x2="266.5" y2="225.8"/>
		
			<line fill="none" stroke="#FFFFFF" stroke-width="3" stroke-linecap="round" stroke-linejoin="round" stroke-miterlimit="10" x1="255.3" y1="206.5" x2="255.3" y2="225.8"/>
		
			<line fill="none" stroke="#FFFFFF" stroke-width="3" stroke-linecap="round" stroke-linejoin="round" stroke-miterlimit="10" x1="283.6" y1="149.3" x2="272.3" y2="167.6"/>
	</g>
	<g>
		
			<ellipse fill="none" stroke="#FFFFFF" stroke-width="3" stroke-linecap="round" stroke-linejoin="round" stroke-miterlimit="10" cx="314.4" cy="54.2" rx="26.1" ry="47.1"/>
		
			<line fill="none" stroke="#FFFFFF" stroke-width="3" stroke-linecap="round" stroke-linejoin="round" stroke-miterlimit="10" x1="314.4" y1="121.7" x2="314.4" y2="76.6"/>
	</g>
	<g>
		<path fill="none" stroke="#FFFFFF" stroke-width="3" stroke-linecap="round" stroke-linejoin="round" stroke-miterlimit="10" d="
			M251.4,50.4c-2.5,3.8-3.9,8.3-4,13.2c0,13.4,10.8,24.3,24.2,24.4c13.4,0,24.3-10.8,24.4-24.2c0-4.9-1.4-9.4-3.9-13.3"/>
		
			<polyline fill="none" stroke="#FFFFFF" stroke-width="3" stroke-linecap="round" stroke-linejoin="round" stroke-miterlimit="10" points="
			292.1,50.5 272,15.5 251.4,50.4 		"/>
		<path fill="none" stroke="#FFFFFF" stroke-width="3" stroke-linejoin="bevel" stroke-miterlimit="10" d="M287.8,64.9
			c0,6.3-7.2,11.4-16,11.4s-16-5.1-16-11.4"/>
		<path fill="none" stroke="#FFFFFF" stroke-width="3" stroke-linejoin="bevel" stroke-miterlimit="10" d="M283.5,52.6
			c0,5.3-5.2,9.5-11.7,9.5c-6.4,0-11.7-4.3-11.7-9.5"/>
		<path fill="none" stroke="#FFFFFF" stroke-width="3" stroke-linejoin="bevel" stroke-miterlimit="10" d="M279.4,42
			c0,3.1-3.4,5.6-7.6,5.6c-4.2,0-7.6-2.5-7.6-5.6"/>
		
			<rect x="268.7" y="88" fill="none" stroke="#FFFFFF" stroke-width="3" stroke-linecap="round" stroke-linejoin="round" stroke-miterlimit="10" width="5.5" height="31.5"/>
	</g>
	<g>
		<path fill="none" stroke="#FFFFFF" stroke-width="3" stroke-linecap="round" stroke-linejoin="round" stroke-miterlimit="10" d="
			M181.2,254.8c3.7-8.9,11.6-9.9,11.6-9.9v43.9v24.5c0,0-3.7,5.8-8.8,0l2.5-26.6l-5.3-2.5V254.8z"/>
		<g>
			<path fill="none" stroke="#FFFFFF" stroke-width="3" stroke-linecap="round" stroke-linejoin="round" stroke-miterlimit="10" d="
				M218.5,246.8v16.7c0,0.8-0.2,1.6-0.7,2.3c-5.5,8.2-10.1,2.8-11.8,0.2c-0.5-0.7-0.7-1.6-0.7-2.5v-16.7"/>
			
				<line fill="none" stroke="#FFFFFF" stroke-width="3" stroke-linecap="round" stroke-linejoin="round" stroke-miterlimit="10" x1="211.7" y1="314.6" x2="211.7" y2="270.2"/>
		</g>
		
			<line fill="none" stroke="#FFFFFF" stroke-width="3" stroke-linecap="round" stroke-linejoin="round" stroke-miterlimit="10" x1="212.1" y1="263.4" x2="212.1" y2="246.8"/>
	</g>
	<g>
		<path fill="none" stroke="#FFFFFF" stroke-width="3" stroke-linecap="round" stroke-linejoin="round" stroke-miterlimit="10" d="
			M17,85.3V74.4c0-2.2,1-4.2,2.7-5.6l6.2-4.9c0.9-0.7,2-1.1,3.2-1.1h0.4c1.7,0,3.1,1.3,3.2,3l1.1,13.9c0.1,1,0.4,2,1,2.8L43,94.5
			c0.4,0.5,0.6,1.1,0.8,1.8l5.6,19.7"/>
		<path fill="none" stroke="#FFFFFF" stroke-width="3" stroke-linecap="round" stroke-linejoin="round" stroke-miterlimit="10" d="
			M11.9,113.7l10.8-10.8c0.6-0.6,1.1-1.4,1.4-2.3l4-11.2"/>
		
			<line fill="none" stroke="#FFFFFF" stroke-width="3" stroke-linecap="round" stroke-linejoin="round" stroke-miterlimit="10" x1="49.5" y1="81.3" x2="40.6" y2="70.2"/>
		
			<circle fill="none" stroke="#FFFFFF" stroke-width="3" stroke-linecap="round" stroke-linejoin="round" stroke-miterlimit="10" cx="32.4" cy="49.7" r="7.2"/>
	</g>
</g>
</svg>
