<?xml version="1.0" encoding="utf-8" standalone="no"?>
<!DOCTYPE svg PUBLIC "-//W3C//DTD SVG 1.1//EN"
  "http://www.w3.org/Graphics/SVG/1.1/DTD/svg11.dtd">
<!-- Created with matplotlib (https://matplotlib.org/) -->
<svg height="720pt" version="1.1" viewBox="0 0 720 720" width="720pt" xmlns="http://www.w3.org/2000/svg" xmlns:xlink="http://www.w3.org/1999/xlink">
 <metadata>
  <rdf:RDF xmlns:cc="http://creativecommons.org/ns#" xmlns:dc="http://purl.org/dc/elements/1.1/" xmlns:rdf="http://www.w3.org/1999/02/22-rdf-syntax-ns#">
   <cc:Work>
    <dc:type rdf:resource="http://purl.org/dc/dcmitype/StillImage"/>
    <dc:date>2021-05-07T11:03:02.960056</dc:date>
    <dc:format>image/svg+xml</dc:format>
    <dc:creator>
     <cc:Agent>
      <dc:title>Matplotlib v3.3.3, https://matplotlib.org/</dc:title>
     </cc:Agent>
    </dc:creator>
   </cc:Work>
  </rdf:RDF>
 </metadata>
 <defs>
  <style type="text/css">*{stroke-linecap:butt;stroke-linejoin:round;}</style>
 </defs>
 <g id="figure_1">
  <g id="patch_1">
   <path d="M 0 720 
L 720 720 
L 720 0 
L 0 0 
z
" style="fill:none;"/>
  </g>
  <g id="axes_1">
   <g id="patch_2">
    <path clip-path="url(#p8666085b3e)" d="M 517.479541 193.094593 
L 516.263457 196.342044 
L 516.266546 209.052091 
L 516.267901 214.812341 
L 516.270282 224.807303 
L 516.271903 231.466348 
L 516.274176 240.811481 
L 516.275978 248.357492 
L 516.278047 256.73749 
L 516.280197 265.226352 
L 516.281993 272.5719 
L 516.284369 282.103271 
L 516.285941 288.47294 
L 516.288615 298.986682 
L 516.289999 304.532243 
L 516.292809 315.842438 
L 516.293902 320.245227 
L 515.93913 332.749786 
L 515.935862 336.285435 
L 516.301815 351.99191 
L 515.867087 366.765526 
L 516.310621 383.390039 
L 515.857792 400.174765 
L 516.320139 416.913315 
L 516.295688 433.314902 
L 516.329724 451.03313 
L 516.338593 482.697472 
L 516.141938 485.838495 
L 515.504524 512.355265 
L 514.539132 512.544543 
L 512.418736 512.950977 
L 510.01201 513.46885 
L 507.958357 513.745797 
L 505.781126 513.908316 
L 503.571114 514.151453 
L 501.298399 514.361979 
L 498.900429 514.555337 
L 497.102068 514.70424 
L 495.366909 514.821171 
L 492.972384 514.900677 
L 490.737167 514.900525 
L 488.690468 514.917831 
L 486.738013 514.919424 
L 484.787389 514.872451 
L 483.11959 514.860154 
L 480.696907 514.809553 
L 478.33628 514.775898 
L 476.162588 514.840591 
L 474.112943 514.939144 
L 471.970233 515.020768 
L 469.701058 515.10121 
L 467.712972 515.281231 
L 465.505851 515.410848 
L 463.198628 515.734938 
L 460.825909 516.155618 
L 459.402947 516.388427 
L 457.027285 516.922929 
L 454.933953 517.491787 
L 452.869837 518.126204 
L 450.732694 519.165425 
L 448.535173 520.090857 
L 446.406714 520.773268 
L 444.40996 521.278135 
L 442.44304 521.815632 
L 440.41354 522.352489 
L 438.153976 523.261331 
L 438.055322 523.305407 
L 437.933872 473.739797 
L 431.35714 473.747233 
L 390.992115 473.750201 
L 388.563877 471.213532 
L 385.894312 468.589514 
L 379.696493 470.063553 
L 372.682927 470.519334 
L 364.936965 470.146539 
L 357.772232 468.115606 
L 355.64524 467.235226 
L 351.044435 465.330905 
L 341.941823 459.88807 
L 335.736105 456.458523 
L 329.867988 452.110377 
L 327.180059 449.794892 
L 324.21716 446.886218 
L 322.131656 444.598678 
L 319.442353 441.576808 
L 316.439627 438.493113 
L 312.598709 434.680746 
L 308.86844 431.46169 
L 304.096663 427.706319 
L 299.403621 424.46681 
L 294.194394 421.079006 
L 289.424609 418.340834 
L 284.765712 416.308993 
L 281.982345 415.288986 
L 281.96825 410.348689 
L 281.607018 399.874556 
L 281.479191 396.172594 
L 281.234154 389.04957 
L 281.156951 386.823533 
L 280.861104 378.227334 
L 280.609236 370.91974 
L 280.357764 363.624967 
L 280.105209 356.316798 
L 279.856094 349.085521 
L 279.685974 344.137157 
L 279.518052 339.263829 
L 279.157058 336.208882 
L 279.123657 335.367719 
L 279.103126 334.388398 
L 279.20853 331.947668 
L 279.522423 329.511398 
L 280.044848 327.069452 
L 280.774916 324.641719 
L 281.982473 321.624454 
L 283.510806 318.646054 
L 285.35522 315.715571 
L 287.51009 312.84196 
L 289.968923 310.033889 
L 293.168237 310.034123 
L 305.005815 296.977201 
L 307.564833 294.300073 
L 286.482047 289.359486 
L 271.002488 287.526908 
L 243.6224 287.746171 
L 220.520459 287.758686 
L 220.919983 210.090466 
L 221.004044 193.754596 
L 283.154353 193.795877 
L 339.719782 193.432607 
L 369.838572 193.271257 
L 384.885906 193.175823 
L 399.692114 193.1115 
L 517.479541 193.094593 
" style="stroke:#ffffff;stroke-linejoin:miter;stroke-width:2;"/>
   </g>
  </g>
 </g>
 <defs>
  <clipPath id="p8666085b3e">
   <rect height="543.6" width="558" x="90" y="86.4"/>
  </clipPath>
 </defs>
</svg>
