<?xml version="1.0" encoding="utf-8" standalone="no"?>
<!DOCTYPE svg PUBLIC "-//W3C//DTD SVG 1.1//EN"
  "http://www.w3.org/Graphics/SVG/1.1/DTD/svg11.dtd">
<!-- Created with matplotlib (https://matplotlib.org/) -->
<svg height="720pt" version="1.1" viewBox="0 0 720 720" width="720pt" xmlns="http://www.w3.org/2000/svg" xmlns:xlink="http://www.w3.org/1999/xlink">
 <metadata>
  <rdf:RDF xmlns:cc="http://creativecommons.org/ns#" xmlns:dc="http://purl.org/dc/elements/1.1/" xmlns:rdf="http://www.w3.org/1999/02/22-rdf-syntax-ns#">
   <cc:Work>
    <dc:type rdf:resource="http://purl.org/dc/dcmitype/StillImage"/>
    <dc:date>2021-05-07T11:03:01.250183</dc:date>
    <dc:format>image/svg+xml</dc:format>
    <dc:creator>
     <cc:Agent>
      <dc:title>Matplotlib v3.3.3, https://matplotlib.org/</dc:title>
     </cc:Agent>
    </dc:creator>
   </cc:Work>
  </rdf:RDF>
 </metadata>
 <defs>
  <style type="text/css">*{stroke-linecap:butt;stroke-linejoin:round;}</style>
 </defs>
 <g id="figure_1">
  <g id="patch_1">
   <path d="M 0 720 
L 720 720 
L 720 0 
L 0 0 
z
" style="fill:none;"/>
  </g>
  <g id="axes_1">
   <g id="patch_2">
    <path clip-path="url(#pdfc6e931ac)" d="M 370.592497 160.767326 
L 381.472641 160.72775 
L 384.555077 160.731653 
L 385.354541 162.761861 
L 386.933196 166.127199 
L 387.238455 166.745552 
L 389.698992 171.729806 
L 392.902116 178.268106 
L 396.105204 184.80644 
L 399.308274 191.344765 
L 402.498297 197.89039 
L 403.10845 199.186353 
L 405.732391 204.474467 
L 408.02567 209.139068 
L 411.211371 215.62028 
L 420.040799 226.191683 
L 420.096354 226.30097 
L 439.236957 263.959142 
L 452.186353 285.35912 
L 465.33745 306.994336 
L 478.498178 327.190964 
L 480.913184 330.635329 
L 480.91703 330.640778 
L 483.252849 333.928197 
L 486.929407 339.017274 
L 486.932697 339.021745 
L 493.062478 347.28355 
L 493.064926 347.286774 
L 499.309718 355.430688 
L 499.310158 355.431244 
L 499.310541 355.431756 
L 499.313811 355.435936 
L 499.314347 355.436603 
L 502.061759 358.936011 
L 505.666481 363.452732 
L 505.67065 363.457958 
L 506.286666 364.221496 
L 510.015217 368.792382 
L 512.143284 371.362871 
L 512.145158 371.365117 
L 512.145828 371.365917 
L 518.725076 379.142317 
L 518.728155 379.145941 
L 518.733203 379.151767 
L 525.419353 386.800167 
L 525.422069 386.803213 
L 530.714587 392.683654 
L 533.233159 395.421666 
L 534.928194 397.221775 
L 536.642883 398.992294 
L 538.382865 400.724906 
L 539.274884 401.584711 
L 540.423225 402.660714 
L 540.490108 402.721701 
L 543.45411 405.343383 
L 543.570659 405.441581 
L 546.564776 407.87615 
L 546.718485 407.995548 
L 549.771392 410.271792 
L 550.001027 410.435835 
L 551.540976 411.508789 
L 559.110167 416.316903 
L 559.558313 416.597665 
L 568.242898 421.931824 
L 568.524595 422.102345 
L 577.520668 427.428863 
L 577.535704 427.437543 
L 586.605685 432.610473 
L 586.863859 432.754317 
L 595.103018 437.284569 
L 607.938617 444.640308 
L 607.916425 444.661664 
L 607.333601 445.222333 
L 607.292345 445.262032 
L 607.286549 445.267588 
L 606.778418 445.754621 
L 604.826539 447.610843 
L 602.867238 449.451204 
L 602.864893 449.453413 
L 602.864111 449.45415 
L 601.325158 450.882633 
L 601.080894 451.109372 
L 601.024098 451.161796 
L 600.86738 451.306211 
L 600.737277 451.426099 
L 600.680958 451.478009 
L 600.67316 451.485173 
L 600.644428 451.511507 
L 599.918927 452.17746 
L 599.803199 452.283313 
L 599.740797 452.340334 
L 599.708557 452.36995 
L 599.351173 452.697259 
L 599.260783 452.77979 
L 598.948716 453.064208 
L 598.896705 453.1115 
L 598.780537 453.217131 
L 598.545896 453.430579 
L 598.517679 453.456223 
L 598.234228 453.713483 
L 597.407134 454.461388 
L 596.922841 454.897512 
L 594.923424 456.684089 
L 594.777187 456.813875 
L 592.915632 458.455719 
L 592.914735 458.4565 
L 590.896909 460.214656 
L 588.869963 461.958513 
L 588.379678 462.377013 
L 588.378915 462.377661 
L 588.37779 462.37862 
L 586.834013 463.688003 
L 584.789097 465.403061 
L 582.735329 467.103618 
L 581.89136 467.796112 
L 580.67286 468.789519 
L 578.601464 470.460987 
L 576.52154 472.117687 
L 575.31576 473.06827 
L 574.433182 473.75953 
L 572.336049 475.386785 
L 570.230635 476.99907 
L 568.653467 478.192955 
L 568.116903 478.596432 
L 565.994891 480.178803 
L 563.864713 481.746162 
L 561.909837 483.166083 
L 561.726444 483.298395 
L 559.580125 484.835482 
L 557.425867 486.357377 
L 555.263768 487.86397 
L 555.093032 487.982049 
L 555.084431 487.988012 
L 553.093865 489.355259 
L 550.916253 490.831178 
L 548.731028 492.291661 
L 548.182568 492.655016 
L 548.181424 492.655753 
L 548.180356 492.656467 
L 546.538247 493.736661 
L 544.338004 495.166114 
L 542.130377 496.579973 
L 542.125533 496.583034 
L 541.200488 497.169463 
L 539.915461 497.978217 
L 537.693293 499.360735 
L 535.464008 500.727525 
L 534.153084 501.521883 
L 534.151311 501.522956 
L 533.227661 502.078521 
L 530.984331 503.413678 
L 528.734111 504.732931 
L 527.027787 505.720099 
L 526.477097 506.036255 
L 524.213327 507.323584 
L 521.942935 508.594852 
L 519.840995 509.754257 
L 519.666683 509.849656 
L 519.665958 509.850058 
L 517.382531 511.089135 
L 515.09269 512.312039 
L 512.796552 513.518724 
L 512.587958 513.627376 
L 510.496556 514.707896 
L 510.494172 514.709125 
L 508.185665 515.883241 
L 505.871107 517.041004 
L 505.275082 517.335993 
L 505.268635 517.33919 
L 503.550575 518.182349 
L 501.224144 519.307274 
L 498.89193 520.415736 
L 498.890576 520.416385 
L 497.890901 520.88561 
L 496.554008 521.507667 
L 494.210435 522.583023 
L 491.861326 523.641803 
L 490.460227 524.26422 
L 490.453169 524.267352 
L 489.506776 524.68394 
L 487.146842 525.709413 
L 484.781639 526.718154 
L 484.779236 526.719161 
L 482.969307 527.47831 
L 482.411224 527.710163 
L 480.035711 528.685374 
L 477.655176 529.643763 
L 475.430821 530.522311 
L 475.400049 530.534355 
L 475.269715 530.585308 
L 472.879384 531.509943 
L 470.484318 532.417667 
L 468.084573 533.308435 
L 467.854763 533.392753 
L 467.840875 533.397859 
L 465.680244 534.182204 
L 463.271428 535.03895 
L 460.858199 535.878628 
L 460.857036 535.879032 
L 460.207174 536.101975 
L 458.440654 536.70124 
L 456.018888 537.506717 
L 453.592977 538.295059 
L 452.538662 538.631927 
L 452.525784 538.636007 
L 451.163016 539.066223 
L 448.7291 539.820207 
L 446.291306 540.556922 
L 446.284495 540.558941 
L 444.810687 540.995428 
L 443.849748 541.276414 
L 441.404484 541.978592 
L 438.955608 542.663478 
L 437.058294 543.181537 
L 437.055393 543.182323 
L 436.503235 543.331029 
L 435.275751 543.658251 
L 435.246806 543.665949 
L 434.047422 543.981222 
L 431.588283 544.614011 
L 431.555541 544.622208 
L 429.267168 545.194607 
L 429.125914 545.229419 
L 426.660391 545.82738 
L 424.191809 546.407892 
L 421.720206 546.970934 
L 421.447859 547.031877 
L 419.245831 547.516483 
L 416.768607 548.044516 
L 414.288704 548.555012 
L 414.287178 548.555327 
L 413.597006 548.694178 
L 411.806182 549.047969 
L 409.321153 549.523344 
L 406.833695 549.981136 
L 405.722579 550.179802 
L 404.344035 550.4213 
L 401.851869 550.843882 
L 399.357731 551.248813 
L 397.825378 551.488683 
L 397.823394 551.488976 
L 397.82244 551.489134 
L 396.861449 551.636093 
L 394.363251 552.005723 
L 391.863177 552.357658 
L 389.907632 552.620435 
L 389.907079 552.620503 
L 389.900457 552.621386 
L 389.36132 552.691897 
L 386.857777 553.008441 
L 384.352662 553.307266 
L 381.970902 553.574791 
L 381.912427 553.581151 
L 381.845994 553.588374 
L 379.337925 553.85174 
L 376.828551 554.097343 
L 374.317852 554.325206 
L 374.018255 554.351209 
L 371.806192 554.535304 
L 369.293321 554.727639 
L 366.779641 554.902188 
L 366.05719 554.94905 
L 364.265189 555.058928 
L 361.749641 555.197926 
L 359.233588 555.319093 
L 358.08986 555.368288 
L 358.083752 555.368546 
L 356.716955 555.422473 
L 354.199835 555.508044 
L 351.682307 555.575827 
L 350.112328 555.609064 
L 349.165228 555.625776 
L 349.164483 555.625778 
L 346.646441 555.657919 
L 344.380249 555.671618 
L 344.128237 555.67225 
L 342.133581 555.670959 
L 341.610119 555.66877 
L 339.091992 555.64748 
L 336.574008 555.608379 
L 336.325786 555.603548 
L 333.923123 555.548481 
L 331.520764 555.480458 
L 330.319692 555.442595 
L 327.91775 555.361173 
L 325.515991 555.274903 
L 324.315158 555.230968 
L 310.875029 554.738549 
L 290.315565 553.985708 
L 287.951192 553.899172 
L 286.257178 553.837166 
L 278.848004 553.566022 
L 277.882574 548.948217 
L 277.858661 548.833835 
L 277.858353 548.832232 
L 277.858102 548.830985 
L 277.843448 548.752396 
L 276.710659 542.67574 
L 276.710119 542.672757 
L 276.709984 542.672022 
L 276.493534 541.40754 
L 276.49257 541.401729 
L 276.491239 541.393691 
L 276.355852 540.581672 
L 276.335109 540.456814 
L 276.326317 540.403469 
L 276.020072 538.49696 
L 276.019937 538.496092 
L 276.019571 538.493888 
L 275.719993 536.533443 
L 275.719684 536.531372 
L 275.435141 534.567775 
L 275.434871 534.565816 
L 275.434774 534.565059 
L 275.165382 532.599224 
L 275.165131 532.597353 
L 274.910717 530.627921 
L 274.910504 530.62614 
L 274.909305 530.616454 
L 274.908047 530.606367 
L 274.866866 530.27578 
L 274.863983 530.252422 
L 274.863345 530.247234 
L 274.671202 528.654045 
L 274.670989 528.652353 
L 274.515426 527.295728 
L 274.511592 527.262305 
L 274.511243 527.259255 
L 274.450656 526.712422 
L 274.448621 526.693963 
L 274.447827 526.686749 
L 274.44682 526.677731 
L 274.446645 526.67615 
L 274.445908 526.669113 
L 274.237704 524.699979 
L 274.237626 524.699177 
L 274.237471 524.697685 
L 274.236016 524.683189 
L 274.213274 524.457374 
L 274.16831 524.009219 
L 274.167611 524.002272 
L 274.043604 522.718496 
L 274.042205 522.703576 
L 273.898888 521.122127 
L 273.885202 520.971307 
L 273.884968 520.968478 
L 273.88456 520.964047 
L 273.864772 520.735865 
L 273.863605 520.72217 
L 273.702533 518.768276 
L 273.701169 518.751464 
L 273.700195 518.738971 
L 273.552796 516.765402 
L 273.552014 516.754156 
L 273.42014 514.785096 
L 273.419651 514.777903 
L 273.419043 514.767882 
L 273.413378 514.677847 
L 273.412046 514.656691 
L 273.411967 514.655422 
L 273.301775 512.789056 
L 273.301302 512.780304 
L 273.199148 510.799083 
L 273.198792 510.791556 
L 273.11179 508.808097 
L 273.11155 508.801816 
L 273.039719 506.816341 
L 273.039558 506.811263 
L 272.982919 504.823816 
L 272.982836 504.82003 
L 272.941407 502.830811 
L 272.941383 502.828272 
L 272.915203 500.837394 
L 272.915182 500.836191 
L 272.904271 498.844521 
L 272.90427 498.843875 
L 272.904262 498.839554 
L 272.903912 498.441078 
L 272.903911 498.428851 
L 272.901132 440.067662 
L 272.895528 437.716905 
L 272.893879 435.623296 
L 272.889996 433.529692 
L 272.882753 431.436096 
L 272.870986 429.342533 
L 272.853607 427.249026 
L 272.82947 425.155624 
L 272.705385 418.876535 
L 272.636066 416.565298 
L 272.635926 416.561022 
L 272.54812 414.12911 
L 272.54806 414.127462 
L 272.54788 414.12234 
L 272.547163 414.104367 
L 272.514266 413.289046 
L 272.513788 413.277087 
L 272.444821 411.690462 
L 272.444543 411.684471 
L 272.32631 409.254386 
L 272.325956 409.247572 
L 272.192549 406.819392 
L 272.192116 406.811731 
L 272.190644 406.787123 
L 272.116832 405.551523 
L 272.116576 405.547114 
L 272.043554 404.385612 
L 272.043025 404.377106 
L 271.879327 401.953159 
L 271.878682 401.943806 
L 271.699887 399.522165 
L 271.699107 399.511966 
L 271.565914 397.830003 
L 271.565817 397.828822 
L 271.56344 397.79994 
L 271.505215 397.092764 
L 271.504319 397.081741 
L 271.295349 394.66509 
L 271.294299 394.653221 
L 271.07029 392.239277 
L 271.069085 392.226562 
L 270.862441 390.133413 
L 270.861859 390.127602 
L 270.830055 389.815435 
L 270.828678 389.801897 
L 270.574647 387.393721 
L 270.573096 387.379337 
L 270.304083 384.974224 
L 270.30234 384.959016 
L 270.018383 382.557122 
L 270.016448 382.54109 
L 270.009732 382.485758 
L 270.004313 382.441203 
L 270.00352 382.434857 
L 269.717566 380.142504 
L 269.71542 380.125649 
L 269.401633 377.730526 
L 269.399256 377.712825 
L 269.068342 375.305134 
L 269.068014 375.302774 
L 269.059399 375.241878 
L 268.995386 374.788911 
L 268.992779 374.770987 
L 268.722022 372.89808 
L 268.721674 372.895631 
L 268.360643 370.494044 
L 268.360257 370.491484 
L 267.98623 368.105918 
L 267.984224 368.093161 
L 267.983799 368.090489 
L 267.983626 368.089465 
L 267.871522 367.393012 
L 267.870885 367.389004 
L 267.870114 367.384217 
L 267.869786 367.382191 
L 267.596082 365.715645 
L 267.593517 365.70006 
L 267.592784 365.69554 
L 267.592321 365.692757 
L 267.188676 363.315121 
L 267.186324 363.301317 
L 267.185842 363.298423 
L 266.764901 360.910625 
L 266.764361 360.907619 
L 266.523091 359.57756 
L 266.521627 359.569456 
L 266.328495 358.523574 
L 266.327937 358.52048 
L 265.877165 356.140322 
L 265.876549 356.137138 
L 265.875067 356.129591 
L 265.412143 353.767301 
L 265.410911 353.760978 
L 265.410275 353.757683 
L 265.058873 352.015386 
L 264.929789 351.385678 
L 264.929096 351.382272 
L 264.433781 349.014531 
L 264.43305 349.011036 
L 263.922945 346.647673 
L 263.922156 346.644089 
L 263.446494 344.503417 
L 263.445764 344.500211 
L 263.397299 344.285235 
L 263.396472 344.281562 
L 262.856862 341.927331 
L 262.855978 341.923569 
L 262.301674 339.574115 
L 262.300751 339.570241 
L 261.731772 337.225698 
L 261.730791 337.221714 
L 261.705305 337.118227 
L 261.688199 337.04882 
L 261.683971 337.031657 
L 261.683644 337.030344 
L 261.147156 334.882171 
L 261.146137 334.87812 
L 260.547903 332.543711 
L 260.546827 332.539571 
L 259.934013 330.210429 
L 259.93288 330.206177 
L 259.77499 329.615734 
L 259.774491 329.613887 
L 259.305506 327.882415 
L 259.304334 327.878096 
L 258.662457 325.559846 
L 258.661228 325.555416 
L 258.004867 323.242811 
L 258.003581 323.238293 
L 257.717801 322.248727 
L 257.717456 322.247503 
L 257.717187 322.24659 
L 257.332794 320.931423 
L 257.33145 320.926838 
L 256.646237 318.625837 
L 256.644854 318.621185 
L 255.945272 316.326185 
L 255.943814 316.321422 
L 255.516742 314.945905 
L 255.515648 314.942389 
L 255.513978 314.937092 
L 255.22992 314.032536 
L 255.228404 314.027707 
L 254.500238 311.745068 
L 254.498664 311.740149 
L 253.908889 309.927837 
L 253.478691 308.948265 
L 251.296526 303.979343 
L 249.114323 299.010448 
L 244.927265 291.09724 
L 240.321445 283.507245 
L 236.884132 278.426161 
L 233.446807 273.345091 
L 227.996508 266.736681 
L 222.205688 260.534894 
L 218.492684 256.798149 
L 213.144846 252.069863 
L 209.004115 248.752692 
L 204.378484 245.403414 
L 200.095858 242.51908 
L 195.984986 240.033601 
L 192.473836 238.045757 
L 186.45124 234.999226 
L 177.793364 230.607841 
L 171.738397 227.194152 
L 166.640014 223.768221 
L 163.098926 221.0154 
L 159.385875 217.797264 
L 155.415049 213.947687 
L 151.043188 209.101057 
L 146.388583 202.955484 
L 143.422245 197.800827 
L 140.4559 192.646181 
L 137.421364 186.528828 
L 134.774416 180.171282 
L 132.431228 173.146867 
L 130.087993 166.122437 
L 130.061383 165.997352 
L 130.85383 165.999542 
L 171.495877 166.11259 
L 274.856065 166.408942 
L 274.855756 161.121691 
L 285.722011 161.080931 
L 370.592497 160.767326 
" style="stroke:#ffffff;stroke-linejoin:miter;stroke-width:2;"/>
   </g>
  </g>
 </g>
 <defs>
  <clipPath id="pdfc6e931ac">
   <rect height="543.6" width="558" x="90" y="86.4"/>
  </clipPath>
 </defs>
</svg>
