<?xml version="1.0" encoding="utf-8" standalone="no"?>
<!DOCTYPE svg PUBLIC "-//W3C//DTD SVG 1.1//EN"
  "http://www.w3.org/Graphics/SVG/1.1/DTD/svg11.dtd">
<!-- Created with matplotlib (https://matplotlib.org/) -->
<svg height="720pt" version="1.1" viewBox="0 0 720 720" width="720pt" xmlns="http://www.w3.org/2000/svg" xmlns:xlink="http://www.w3.org/1999/xlink">
 <metadata>
  <rdf:RDF xmlns:cc="http://creativecommons.org/ns#" xmlns:dc="http://purl.org/dc/elements/1.1/" xmlns:rdf="http://www.w3.org/1999/02/22-rdf-syntax-ns#">
   <cc:Work>
    <dc:type rdf:resource="http://purl.org/dc/dcmitype/StillImage"/>
    <dc:date>2021-05-28T08:56:48.881334</dc:date>
    <dc:format>image/svg+xml</dc:format>
    <dc:creator>
     <cc:Agent>
      <dc:title>Matplotlib v3.3.3, https://matplotlib.org/</dc:title>
     </cc:Agent>
    </dc:creator>
   </cc:Work>
  </rdf:RDF>
 </metadata>
 <defs>
  <style type="text/css">*{stroke-linecap:butt;stroke-linejoin:round;}</style>
 </defs>
 <g id="figure_1">
  <g id="patch_1">
   <path d="M 0 720 
L 720 720 
L 720 0 
L 0 0 
z
" style="fill:none;"/>
  </g>
  <g id="axes_1">
   <g id="patch_2">
    <path clip-path="url(#pa431c54ab6)" d="M 566.684539 406.327009 
L 566.319354 410.810767 
L 566.100917 414.649056 
L 565.974896 418.196777 
L 565.918124 426.45187 
L 565.90151 452.830886 
L 565.852472 530.70162 
L 144.333439 529.61788 
L 144.294098 529.630448 
L 144.265077 410.220665 
L 145.047265 410.221925 
L 145.125072 409.110348 
L 145.12515 409.109277 
L 145.125669 409.102315 
L 145.394842 405.598564 
L 145.39492 405.597493 
L 145.541281 403.866838 
L 145.629236 402.874316 
L 145.629756 402.868395 
L 145.919231 399.809698 
L 145.924682 399.754714 
L 145.925072 399.750786 
L 146.290902 396.252884 
L 146.291109 396.251039 
L 146.787419 391.980315 
L 146.852242 391.454904 
L 147.284882 388.107771 
L 147.285271 388.104677 
L 147.780005 384.569583 
L 148.005888 383.028922 
L 148.306885 381.049322 
L 148.503796 379.811076 
L 148.935831 377.093974 
L 149.340478 374.660811 
L 149.340763 374.659026 
L 150.407738 368.393984 
L 150.955035 365.241565 
L 151.722096 360.833593 
L 152.693712 355.250164 
L 156.017769 336.148936 
L 157.118258 329.197265 
L 158.150585 322.7192 
L 159.288087 314.403764 
L 160.2206 306.054637 
L 160.947367 297.678484 
L 161.414275 290.327588 
L 161.467761 289.282236 
L 161.781415 280.872201 
L 161.888039 272.455283 
L 161.787574 264.038354 
L 161.480066 255.62802 
L 160.965769 247.231065 
L 160.49733 241.5232 
L 157.613661 209.671099 
L 155.091755 193.16942 
L 154.060092 186.419096 
L 153.949947 185.69838 
L 565.926089 186.314592 
L 589.684088 186.514001 
L 591.578786 212.969542 
L 592.875593 242.714781 
L 593.499826 267.894516 
L 593.734923 285.543347 
L 593.646965 293.186259 
L 593.095091 302.277241 
L 591.949193 312.076387 
L 590.209883 322.575964 
L 587.752786 332.133814 
L 584.941495 341.323717 
L 581.757975 349.961686 
L 576.458672 363.62729 
L 574.009796 370.580048 
L 571.662604 378.614695 
L 569.329149 388.52484 
L 568.592889 392.366117 
L 567.892949 396.574243 
L 567.259098 401.108033 
L 566.684539 406.327009 
" style="fill:#1a1a1a;stroke:#ffffff;stroke-linejoin:miter;stroke-width:4;"/>
   </g>
  </g>
 </g>
 <defs>
  <clipPath id="pa431c54ab6">
   <rect height="543.6" width="558" x="90" y="86.4"/>
  </clipPath>
 </defs>
</svg>
