<?xml version="1.0" encoding="utf-8" standalone="no"?>
<!DOCTYPE svg PUBLIC "-//W3C//DTD SVG 1.1//EN"
  "http://www.w3.org/Graphics/SVG/1.1/DTD/svg11.dtd">
<!-- Created with matplotlib (https://matplotlib.org/) -->
<svg height="720pt" version="1.1" viewBox="0 0 720 720" width="720pt" xmlns="http://www.w3.org/2000/svg" xmlns:xlink="http://www.w3.org/1999/xlink">
 <metadata>
  <rdf:RDF xmlns:cc="http://creativecommons.org/ns#" xmlns:dc="http://purl.org/dc/elements/1.1/" xmlns:rdf="http://www.w3.org/1999/02/22-rdf-syntax-ns#">
   <cc:Work>
    <dc:type rdf:resource="http://purl.org/dc/dcmitype/StillImage"/>
    <dc:date>2021-05-07T11:03:03.661856</dc:date>
    <dc:format>image/svg+xml</dc:format>
    <dc:creator>
     <cc:Agent>
      <dc:title>Matplotlib v3.3.3, https://matplotlib.org/</dc:title>
     </cc:Agent>
    </dc:creator>
   </cc:Work>
  </rdf:RDF>
 </metadata>
 <defs>
  <style type="text/css">*{stroke-linecap:butt;stroke-linejoin:round;}</style>
 </defs>
 <g id="figure_1">
  <g id="patch_1">
   <path d="M 0 720 
L 720 720 
L 720 0 
L 0 0 
z
" style="fill:none;"/>
  </g>
  <g id="axes_1">
   <g id="patch_2">
    <path clip-path="url(#p3b3ef78bd6)" d="M 211.463093 176.575884 
L 265.977082 200.062299 
L 314.605076 190.954899 
L 317.837828 190.23135 
L 331.736909 194.065646 
L 345.451893 198.649584 
L 348.334211 199.699656 
L 351.226991 200.530686 
L 355.902637 201.96632 
L 358.728334 202.948826 
L 361.179739 203.801952 
L 369.395666 206.233559 
L 373.528329 207.57552 
L 375.302049 208.150661 
L 376.844444 208.715345 
L 384.768052 211.196931 
L 385.638224 211.478334 
L 386.468697 211.641055 
L 387.457111 211.595908 
L 393.265454 216.078034 
L 409.240196 221.172656 
L 417.731504 227.429312 
L 417.558507 261.727186 
L 420.756 260.997106 
L 422.913018 260.503083 
L 429.456506 259.005098 
L 431.053974 259.007509 
L 435.688505 284.659029 
L 442.913309 287.74537 
L 466.197329 288.400496 
L 479.60026 288.622375 
L 514.891389 301.170448 
L 579.346543 301.366106 
L 581.249395 301.363851 
L 581.18988 305.18533 
L 581.192679 308.129455 
L 581.375992 309.679628 
L 576.492315 309.687952 
L 558.028572 309.690742 
L 540.824102 309.693538 
L 529.844438 309.691605 
L 528.426323 308.906706 
L 457.402107 308.854111 
L 421.423122 308.819943 
L 418.85721 309.986479 
L 418.853065 318.626261 
L 418.666526 324.790633 
L 418.331744 327.872978 
L 417.906624 332.716486 
L 416.115737 333.839735 
L 413.900597 335.510972 
L 415.971775 336.779979 
L 416.745587 337.686023 
L 417.132812 338.447252 
L 417.326971 339.317393 
L 417.613281 342.817395 
L 417.032648 359.730537 
L 417.228435 371.808681 
L 417.436683 384.653135 
L 417.33738 396.676898 
L 417.159749 402.006385 
L 417.293224 409.509382 
L 417.388753 421.542942 
L 417.489562 434.237968 
L 416.979428 446.408559 
L 416.454102 458.942227 
L 416.483605 462.557294 
L 416.68061 470.305375 
L 416.920087 482.32007 
L 416.717751 493.234134 
L 457.593343 493.279895 
L 470.788162 493.40546 
L 498.240282 493.333806 
L 498.242122 492.588577 
L 533.605461 492.624854 
L 533.584663 502.420905 
L 533.593218 504.756795 
L 548.650427 504.800936 
L 576.852379 504.785612 
L 576.695559 504.933006 
L 574.941588 506.398322 
L 573.455469 507.515715 
L 569.995872 510.007038 
L 565.350597 513.151633 
L 560.690345 516.318904 
L 547.377432 525.463546 
L 545.653034 526.767556 
L 543.972195 528.141348 
L 542.846417 529.163629 
L 541.960683 530.100712 
L 541.059778 531.272724 
L 539.817991 532.865933 
L 538.722753 534.733639 
L 537.944043 536.198445 
L 537.433385 537.53498 
L 537.009455 539.202461 
L 534.643237 550.617709 
L 518.516399 550.599731 
L 470.798818 550.547171 
L 416.125656 550.592067 
L 391.372782 550.47014 
L 373.295748 550.460323 
L 360.450894 550.602642 
L 343.881682 550.638709 
L 329.138872 550.648297 
L 313.586919 550.658945 
L 303.638023 550.558904 
L 298.043082 550.59155 
L 282.41683 550.624485 
L 266.822824 550.509702 
L 248.924828 550.52017 
L 235.567165 550.536025 
L 158.726025 550.474785 
L 158.618564 538.717143 
L 158.512953 527.165393 
L 158.404607 515.314864 
L 158.298032 503.658672 
L 158.190641 491.912303 
L 158.084518 480.314433 
L 157.976608 468.513455 
L 157.871437 457.0177 
L 157.590796 429.70749 
L 157.209956 404.56074 
L 157.116637 394.881105 
L 157.055174 386.59547 
L 156.798671 371.740425 
L 156.717509 364.937604 
L 156.624008 357.103148 
L 157.269739 310.356638 
L 157.980273 258.929183 
L 158.232696 240.660264 
L 158.624378 212.318007 
L 158.817022 198.378368 
L 159.013183 187.003618 
L 159.006306 184.681 
L 159.271361 182.18805 
L 159.320433 178.559955 
L 159.348533 175.580552 
L 159.37386 173.055609 
L 159.515044 165.883933 
L 207.164874 165.746759 
L 211.409635 165.741055 
L 212.436084 169.436696 
L 212.498588 176.057431 
L 211.463093 176.575884 
" style="stroke:#ffffff;stroke-linejoin:miter;stroke-width:2;"/>
   </g>
  </g>
 </g>
 <defs>
  <clipPath id="p3b3ef78bd6">
   <rect height="543.6" width="558" x="90" y="86.4"/>
  </clipPath>
 </defs>
</svg>
