<?xml version="1.0" encoding="utf-8" standalone="no"?>
<!DOCTYPE svg PUBLIC "-//W3C//DTD SVG 1.1//EN"
  "http://www.w3.org/Graphics/SVG/1.1/DTD/svg11.dtd">
<!-- Created with matplotlib (https://matplotlib.org/) -->
<svg height="720pt" version="1.1" viewBox="0 0 720 720" width="720pt" xmlns="http://www.w3.org/2000/svg" xmlns:xlink="http://www.w3.org/1999/xlink">
 <metadata>
  <rdf:RDF xmlns:cc="http://creativecommons.org/ns#" xmlns:dc="http://purl.org/dc/elements/1.1/" xmlns:rdf="http://www.w3.org/1999/02/22-rdf-syntax-ns#">
   <cc:Work>
    <dc:type rdf:resource="http://purl.org/dc/dcmitype/StillImage"/>
    <dc:date>2021-05-07T11:03:01.896530</dc:date>
    <dc:format>image/svg+xml</dc:format>
    <dc:creator>
     <cc:Agent>
      <dc:title>Matplotlib v3.3.3, https://matplotlib.org/</dc:title>
     </cc:Agent>
    </dc:creator>
   </cc:Work>
  </rdf:RDF>
 </metadata>
 <defs>
  <style type="text/css">*{stroke-linecap:butt;stroke-linejoin:round;}</style>
 </defs>
 <g id="figure_1">
  <g id="patch_1">
   <path d="M 0 720 
L 720 720 
L 720 0 
L 0 0 
z
" style="fill:none;"/>
  </g>
  <g id="axes_1">
   <g id="patch_2">
    <path clip-path="url(#pc431bf17ef)" d="M 431.447184 218.253729 
L 437.196153 218.271987 
L 438.51656 218.193152 
L 439.783969 218.009819 
L 441.078692 217.7233 
L 514.676218 236.133903 
L 529.98156 236.114163 
L 532.464299 236.512522 
L 532.649883 238.303636 
L 532.991661 239.864901 
L 533.438084 241.586783 
L 534.065985 243.553325 
L 535.087544 245.940524 
L 536.029848 247.753647 
L 537.022045 249.400201 
L 538.512955 251.60305 
L 542.047192 256.117516 
L 542.557619 255.04561 
L 543.074952 254.36964 
L 543.758256 253.729955 
L 544.648716 252.962218 
L 545.539357 252.304025 
L 546.575128 251.627382 
L 547.652587 251.078457 
L 549.829006 250.455143 
L 550.990021 250.289423 
L 552.823496 250.213881 
L 574.167292 250.039391 
L 596.963918 250.0109 
L 596.981629 261.43465 
L 596.999245 272.799576 
L 597.016987 284.228641 
L 597.08392 295.33088 
L 597.253412 298.162273 
L 597.336385 322.148999 
L 597.093937 333.62466 
L 597.373896 351.897715 
L 597.150585 369.97529 
L 597.154784 372.676388 
L 597.172495 384.043122 
L 597.190113 395.351117 
L 597.200337 401.923046 
L 597.208 406.844712 
L 597.226011 418.402213 
L 586.342226 418.41618 
L 586.248731 429.466617 
L 586.204005 439.219108 
L 586.281621 450.453686 
L 586.352558 461.787594 
L 586.315938 472.353262 
L 585.621022 474.608876 
L 585.684044 482.706461 
L 584.851833 483.997667 
L 584.868093 494.661597 
L 584.932181 527.473479 
L 584.858038 527.492769 
L 584.100358 527.762323 
L 583.244845 528.107123 
L 582.475005 528.462613 
L 581.680874 528.828718 
L 580.935573 529.162799 
L 580.202402 529.421508 
L 579.566366 529.454447 
L 578.6977 529.412762 
L 578.061527 529.359994 
L 577.412976 529.242679 
L 576.701926 529.171588 
L 575.888361 529.107398 
L 575.019889 529.022088 
L 574.15141 528.947383 
L 573.270613 528.980205 
L 572.389971 528.959495 
L 571.692591 528.873995 
L 571.129803 528.80992 
L 570.273295 528.681648 
L 569.612727 528.574724 
L 568.976466 528.467749 
L 568.169054 528.339417 
L 567.23933 528.178851 
L 566.578496 528.071929 
L 565.819992 527.975713 
L 564.87808 527.86893 
L 564.08282 527.66544 
L 563.21403 527.547961 
L 562.492399 527.483876 
L 561.78275 527.387813 
L 560.84075 527.227266 
L 560.082349 527.195615 
L 559.458499 527.174592 
L 558.687799 527.142936 
L 557.733699 527.089939 
L 556.828603 527.144182 
L 556.143435 527.155412 
L 555.446181 527.134482 
L 554.540884 527.049252 
L 553.598848 526.867097 
L 552.950551 526.760166 
L 552.008456 526.556866 
L 551.176353 526.342634 
L 550.368781 526.117575 
L 549.487734 525.84966 
L 548.594482 525.62471 
L 547.713673 525.51784 
L 546.783756 525.389675 
L 546.086636 525.304187 
L 545.401361 525.251072 
L 544.655232 525.219393 
L 543.701123 525.17699 
L 542.771432 525.188535 
L 541.866326 525.221407 
L 541.156859 525.254055 
L 540.423127 525.297508 
L 539.811397 525.330244 
L 538.955146 525.363078 
L 538.123349 525.35289 
L 537.21819 525.353612 
L 536.594286 525.300212 
L 535.713545 525.236532 
L 534.832776 525.140487 
L 534.171961 525.033581 
L 533.511545 525.023199 
L 532.606432 525.066894 
L 532.31285 525.088625 
L 531.370974 525.153748 
L 530.441447 525.132893 
L 529.756307 525.015223 
L 528.838678 524.897638 
L 528.129148 524.876737 
L 527.309667 524.877356 
L 526.771593 524.931363 
L 525.9888 524.996498 
L 525.107913 524.975585 
L 524.190589 524.911768 
L 523.456493 524.880106 
L 522.53897 524.827086 
L 521.817371 524.784592 
L 520.89986 524.753165 
L 519.957852 524.592645 
L 519.064736 524.453656 
L 518.208407 524.454306 
L 517.364324 524.422576 
L 516.49588 524.358913 
L 515.59071 524.499124 
L 514.881422 524.639296 
L 514.098488 524.618497 
L 513.303548 524.629677 
L 512.410449 524.501486 
L 511.676316 524.448429 
L 511.003625 524.438074 
L 510.331042 524.492281 
L 509.425724 524.55735 
L 508.496346 524.611888 
L 507.590992 524.655367 
L 506.771618 524.72056 
L 505.854381 524.839413 
L 505.010435 524.904427 
L 504.423308 524.969301 
L 503.603773 524.937759 
L 502.77194 524.906 
L 501.903523 525.003434 
L 500.97412 525.186656 
L 500.203776 525.369886 
L 499.408872 525.531577 
L 498.601472 525.575147 
L 497.732956 525.468314 
L 497.023461 525.468808 
L 496.081739 525.480378 
L 495.262227 525.620512 
L 494.345148 525.846905 
L 493.476516 525.8152 
L 492.559306 525.80517 
L 491.666553 526.042117 
L 490.810449 526.161113 
L 490.052117 526.172258 
L 489.159094 526.24812 
L 488.315517 526.517392 
L 487.483913 526.765079 
L 486.566734 526.91612 
L 485.662112 527.249824 
L 484.855318 527.637146 
L 483.962459 527.809557 
L 483.253039 527.85322 
L 482.396659 527.821526 
L 481.565214 528.004845 
L 480.782969 528.392159 
L 479.841729 528.972943 
L 478.912532 529.274317 
L 478.142105 529.532726 
L 477.371907 529.769755 
L 476.491659 530.124833 
L 475.746072 530.555072 
L 475.012628 531.049858 
L 474.230497 531.501547 
L 473.411569 531.953263 
L 472.678113 532.297567 
L 471.90789 532.674286 
L 471.003425 533.222662 
L 470.05003 533.86801 
L 469.109204 534.545348 
L 468.363602 535.104482 
L 467.483799 535.717602 
L 466.713818 536.233819 
L 465.882634 536.706936 
L 465.002523 537.137379 
L 464.134958 537.86858 
L 463.389638 538.449117 
L 462.60766 539.126441 
L 461.86214 539.589074 
L 461.091743 539.858075 
L 460.248097 540.062824 
L 459.404958 540.71885 
L 458.561743 541.471402 
L 457.657478 541.987591 
L 456.850519 542.407337 
L 455.994816 542.7516 
L 455.273616 543.063722 
L 454.772324 543.354153 
L 453.819022 543.902817 
L 453.085617 544.26849 
L 452.254262 544.634526 
L 451.533169 545.021774 
L 450.665214 545.516561 
L 449.956524 545.97894 
L 449.03979 546.516741 
L 448.404067 546.850345 
L 447.597152 547.151789 
L 446.790238 547.453001 
L 445.873272 547.700826 
L 444.980571 547.937824 
L 444.161588 548.217907 
L 443.354583 548.465587 
L 442.572113 548.691856 
L 441.911896 548.928546 
L 440.99489 549.305287 
L 440.090158 549.681991 
L 439.381222 549.983309 
L 438.549839 550.327762 
L 437.632983 550.650717 
L 436.813874 550.995155 
L 435.945967 551.371833 
L 435.077974 551.823637 
L 434.295837 552.253968 
L 433.53812 552.748597 
L 432.706796 553.125228 
L 431.936713 553.566319 
L 431.093308 554.039683 
L 430.176975 554.81373 
L 429.309299 555.459012 
L 428.64926 555.642153 
L 427.768731 555.814795 
L 426.924819 555.869081 
L 426.154239 555.869694 
L 425.566909 555.805731 
L 424.771911 555.742026 
L 423.81785 555.839433 
L 423.096535 555.936718 
L 422.497548 556.227291 
L 421.690498 556.442809 
L 420.846666 556.529274 
L 420.027249 556.691255 
L 419.183413 556.788495 
L 418.327383 556.918139 
L 417.483548 557.015613 
L 416.651953 557.080663 
L 415.746861 557.24255 
L 414.878647 557.436563 
L 413.998556 557.705739 
L 413.130192 557.814023 
L 412.335499 558.061705 
L 411.54067 558.245037 
L 410.819017 558.299357 
L 410.02391 558.310617 
L 409.36357 558.33268 
L 408.409499 558.408718 
L 407.688125 558.484419 
L 406.856381 558.614037 
L 406.208286 558.743406 
L 405.327895 558.991208 
L 404.398538 559.024223 
L 403.578918 559.067906 
L 402.674032 559.208422 
L 401.928173 559.305539 
L 401.414453 559.359814 
L 400.814945 559.349624 
L 400.154591 559.3501 
L 399.261677 559.318528 
L 398.368693 559.233401 
L 397.548945 559.191125 
L 396.729452 559.17025 
L 395.836348 559.031359 
L 394.967797 558.88183 
L 394.184832 558.817936 
L 393.30404 558.700621 
L 392.557877 558.626072 
L 391.77485 558.5408 
L 391.126637 558.466117 
L 391.069106 558.45883 
L 390.453592 558.380695 
L 389.707316 558.241819 
L 388.789889 558.081374 
L 387.884472 557.921105 
L 387.125958 557.803414 
L 386.367344 557.642965 
L 385.719092 557.546906 
L 385.033792 557.472299 
L 384.079658 557.37647 
L 383.443693 557.301774 
L 382.501496 557.152164 
L 381.8532 557.045332 
L 381.10694 556.917023 
L 380.201563 556.767363 
L 379.28387 556.607137 
L 378.537628 556.489646 
L 377.62003 556.382975 
L 376.788227 556.329932 
L 376.250009 556.276718 
L 375.797447 556.212568 
L 375.087748 556.073649 
L 374.439417 555.934413 
L 373.619614 555.74188 
L 372.775326 555.570761 
L 371.870087 555.378136 
L 371.05022 555.271334 
L 370.414234 555.186061 
L 369.631131 555.047034 
L 368.676762 554.822304 
L 367.991508 554.640383 
L 367.551084 554.501095 
L 366.669847 554.125761 
L 365.886618 553.782678 
L 364.98115 553.450561 
L 364.271423 553.311436 
L 363.671867 553.129399 
L 362.766172 552.818663 
L 361.921927 552.540229 
L 361.089735 552.272363 
L 360.135323 552.026047 
L 359.327744 551.661623 
L 358.385214 551.211254 
L 357.577838 551.093838 
L 356.758291 551.180519 
L 356.024356 551.084381 
L 355.192059 550.773548 
L 354.396569 550.441305 
L 353.515693 550.270228 
L 352.732754 550.238743 
L 352.011208 550.207173 
L 351.10605 550.197219 
L 350.42095 550.090241 
L 349.478745 549.822536 
L 348.829972 549.576012 
L 347.887752 549.286928 
L 347.202626 549.180142 
L 346.260509 548.815723 
L 345.35481 548.494203 
L 344.437214 548.248057 
L 344.179989 548.140674 
L 343.250085 547.744064 
L 342.650161 547.50827 
L 341.781405 547.12235 
L 341.059304 546.918903 
L 340.227241 546.60829 
L 339.406996 546.179311 
L 338.831862 545.932667 
L 338.024144 545.643401 
L 337.204058 545.289569 
L 336.516433 545.094205 
L 336.261845 545.021851 
L 335.51547 544.850596 
L 334.769098 544.668545 
L 333.937149 544.422285 
L 333.17842 544.208078 
L 332.529842 543.94016 
L 331.930134 543.693554 
L 331.146641 543.361265 
L 330.510375 543.114732 
L 329.629092 542.739611 
L 328.760166 542.39667 
L 327.927997 542.032065 
L 327.389377 541.763995 
L 326.863015 541.474549 
L 326.042937 541.142103 
L 325.21085 540.809907 
L 324.390673 540.423908 
L 323.509426 540.070171 
L 322.677337 539.737977 
L 322.06537 539.502188 
L 321.184341 539.255773 
L 320.376673 538.998882 
L 319.507776 538.688122 
L 318.700106 538.43102 
L 317.782415 538.141689 
L 317.072594 537.959807 
L 316.179234 537.552347 
L 315.297843 537.123469 
L 314.477964 536.758875 
L 314.074029 536.576772 
L 313.462019 536.319395 
L 312.507306 535.922819 
L 311.675246 535.622786 
L 310.953032 535.247472 
L 310.034921 534.732708 
L 309.190352 534.293007 
L 308.259958 533.91797 
L 307.599189 533.714453 
L 306.999608 533.543002 
L 306.179642 533.264546 
L 305.322958 532.781873 
L 304.453833 532.353006 
L 303.535673 531.827472 
L 302.691178 531.430724 
L 301.956744 531.087607 
L 301.3693 530.830412 
L 300.451175 530.455172 
L 299.606774 530.122988 
L 298.921416 529.887314 
L 298.272877 529.662171 
L 297.40413 529.426761 
L 296.51063 529.094459 
L 295.555862 528.558399 
L 294.674579 528.183088 
L 293.76869 527.646959 
L 292.936199 527.121309 
L 292.201443 526.595519 
L 291.36919 526.198972 
L 290.59791 525.834323 
L 289.826767 525.426893 
L 289.055662 525.040865 
L 288.284501 524.740757 
L 287.366391 524.236825 
L 286.534115 523.829274 
L 285.665015 523.421798 
L 284.906187 523.02517 
L 284.11031 522.521042 
L 283.228617 521.802016 
L 282.310458 521.28727 
L 281.367673 520.718837 
L 280.425189 520.182536 
L 279.482136 519.356491 
L 278.563736 518.702062 
L 277.767977 518.122601 
L 276.849349 517.360851 
L 276.261448 516.738331 
L 275.342822 515.965808 
L 274.632696 515.504532 
L 273.702197 514.94686 
L 272.845298 514.378287 
L 272.000274 513.71298 
L 271.045359 513.112354 
L 270.249655 512.694196 
L 269.466002 512.157905 
L 268.645741 511.621456 
L 267.751656 510.977793 
L 266.808829 510.280436 
L 266.098416 509.658098 
L 265.375904 509.014209 
L 265.155368 508.831851 
L 264.261454 508.1666 
L 263.465986 507.877337 
L 262.633996 507.760011 
L 261.752803 507.4601 
L 260.932559 506.923634 
L 260.173767 506.56999 
L 259.304875 506.398954 
L 258.399534 506.184789 
L 257.579328 505.809645 
L 256.759248 505.488247 
L 255.841266 505.080861 
L 254.984194 504.544474 
L 254.200785 504.02957 
L 253.270042 503.353795 
L 252.644889 502.516507 
L 253.108851 501.850118 
L 253.43808 501.194531 
L 253.742773 500.43166 
L 254.267705 499.679262 
L 255.050337 499.528035 
L 255.809377 499.881908 
L 256.581099 500.718984 
L 257.193674 501.38443 
L 257.843231 502.146539 
L 258.687744 502.532465 
L 258.588792 501.737586 
L 258.526442 500.95364 
L 258.231898 500.212603 
L 257.999122 500.06244 
L 257.129956 499.623018 
L 256.187563 499.290792 
L 255.306793 499.205717 
L 254.462519 499.088202 
L 253.6547 498.648692 
L 252.944557 498.176653 
L 252.148406 497.532857 
L 251.804943 496.888608 
L 251.718236 496.093924 
L 251.827263 495.320332 
L 251.936287 494.557748 
L 251.959736 493.838027 
L 252.117519 493.150305 
L 252.422319 492.430383 
L 253.033077 491.753005 
L 253.949477 491.064806 
L 254.89045 490.37636 
L 255.733631 489.913707 
L 256.663552 490.009718 
L 257.447288 490.578177 
L 258.231088 491.307915 
L 258.782717 492.069977 
L 259.18753 492.843028 
L 259.739033 493.551536 
L 260.40067 494.324213 
L 261.30695 495.04321 
L 262.088978 494.569834 
L 262.051098 493.742691 
L 262.01411 493.527912 
L 261.841891 492.819061 
L 261.584035 492.121152 
L 261.314205 491.595122 
L 260.860437 490.897266 
L 260.431337 490.135046 
L 259.989799 489.426588 
L 259.340355 488.599916 
L 258.72749 487.784198 
L 257.808966 486.957899 
L 256.890465 486.271309 
L 256.229044 485.61675 
L 255.45711 484.801034 
L 254.917874 484.092531 
L 254.63574 483.426812 
L 254.512194 482.610591 
L 254.425474 481.923228 
L 254.265584 481.246747 
L 254.081189 480.720593 
L 253.83558 480.011872 
L 253.590048 479.356684 
L 253.099443 478.530205 
L 252.805015 477.982622 
L 252.608446 477.370545 
L 252.35076 476.779937 
L 252.007273 476.11433 
L 251.700447 475.362707 
L 251.369275 474.71842 
L 250.988636 473.880964 
L 250.633073 473.193742 
L 250.252837 472.581702 
L 249.933878 471.905455 
L 249.798908 471.679792 
L 249.51671 470.971083 
L 249.185519 470.305438 
L 248.707258 469.532455 
L 248.2413 468.748891 
L 247.958672 467.95403 
L 247.847578 467.234507 
L 247.748655 466.461178 
L 247.551975 465.806131 
L 247.367614 465.161841 
L 247.170819 464.560349 
L 246.82728 463.744409 
L 246.655034 463.14286 
L 246.409433 462.45571 
L 246.200828 461.972543 
L 245.881596 461.156378 
L 245.501317 460.512164 
L 245.182227 459.771335 
L 244.655346 459.127358 
L 244.079323 458.322134 
L 243.442006 457.560204 
L 242.853935 457.002027 
L 242.180053 456.250715 
L 241.665345 455.54235 
L 241.064829 454.769338 
L 240.623569 454.082266 
L 240.084085 453.395318 
L 239.569414 452.708355 
L 239.030399 452.128728 
L 238.454311 451.420455 
L 237.780255 450.593787 
L 237.179836 449.874755 
L 236.640694 449.230588 
L 236.040377 448.565323 
L 235.807563 448.26466 
L 235.17021 447.502501 
L 234.679803 446.794124 
L 234.165126 446.107142 
L 233.699346 445.452262 
L 233.074186 444.636531 
L 232.62093 444.09975 
L 232.204152 443.520178 
L 231.640536 442.918998 
L 230.782889 442.114197 
L 230.060047 441.319992 
L 229.680016 440.826307 
L 229.104116 440.096235 
L 228.552607 439.409309 
L 227.988757 438.700811 
L 227.131552 438.003544 
L 226.311033 437.359777 
L 225.404559 436.576431 
L 224.571532 435.825152 
L 223.714384 435.160062 
L 222.808031 434.44128 
L 221.987462 433.78672 
L 221.044584 433.100169 
L 220.113987 432.5423 
L 219.195765 432.049187 
L 218.314043 431.512837 
L 217.591704 430.987258 
L 216.734327 430.332757 
L 216.513984 430.150407 
L 215.644144 429.399188 
L 214.725805 428.723399 
L 214.064398 428.21911 
L 213.145817 427.543323 
L 212.190652 426.856584 
L 211.517183 426.352314 
L 210.684434 425.740941 
L 209.839737 425.312074 
L 209.166359 424.979688 
L 208.382904 424.593702 
L 207.648223 424.175446 
L 206.742329 423.703702 
L 205.860928 423.339243 
L 204.967335 423.017774 
L 204.392103 422.782192 
L 203.559711 422.48199 
L 202.654078 422.171336 
L 201.870786 421.871485 
L 201.050644 421.571498 
L 200.304079 421.357344 
L 199.459584 421.035783 
L 198.626977 420.63908 
L 197.831278 420.285483 
L 197.035454 419.867325 
L 196.239629 419.448956 
L 195.34602 418.998792 
L 194.611392 418.612718 
L 193.852601 418.301827 
L 192.934638 418.077139 
L 192.029044 417.777266 
L 191.309273 417.234952 
L 190.989865 417.108004 
L 190.166061 416.661951 
L 189.403434 416.236973 
L 188.456728 415.716405 
L 187.620061 415.216817 
L 186.710588 414.781903 
L 185.837054 414.250218 
L 185.025563 413.825529 
L 184.263476 413.432728 
L 183.353676 412.955078 
L 182.505965 412.595007 
L 181.633961 412.256776 
L 180.764151 412.165571 
L 179.991348 411.955679 
L 179.266473 411.637992 
L 178.342181 410.891535 
L 177.625564 410.122304 
L 176.677005 409.386872 
L 175.717772 408.866543 
L 174.967954 408.473729 
L 174.242445 408.080687 
L 173.517303 407.752187 
L 172.682101 407.392102 
L 171.920047 407.02092 
L 171.145435 406.628146 
L 170.346491 406.225058 
L 169.460621 405.682586 
L 168.698282 405.289794 
L 167.849258 404.757871 
L 166.889019 404.097821 
L 165.965668 403.4697 
L 165.117031 403.013115 
L 164.330966 402.674149 
L 163.471249 402.33591 
L 162.623827 402.008026 
L 161.911234 401.711708 
L 161.064378 401.427006 
L 160.302664 401.109575 
L 159.491762 400.749482 
L 158.594847 400.346742 
L 157.870241 400.050635 
L 156.936824 399.691155 
L 156.089332 399.342106 
L 155.351839 398.981247 
L 154.492138 398.653831 
L 153.669892 398.401058 
L 152.737366 398.127712 
L 151.890264 397.843037 
L 151.031127 397.558359 
L 150.270322 397.33767 
L 149.484898 397.095449 
L 148.736716 396.928507 
L 148.02538 396.771881 
L 147.105126 396.498307 
L 146.479128 396.298178 
L 145.620031 396.035095 
L 144.748616 395.750462 
L 143.828687 395.520072 
L 142.871952 395.300536 
L 141.964622 395.123683 
L 141.02014 394.893333 
L 140.626104 394.766512 
L 166.753907 361.390943 
L 167.981968 359.208991 
L 168.360856 358.314896 
L 168.549805 357.616534 
L 168.643107 356.667035 
L 168.64766 350.826394 
L 168.723537 335.728393 
L 168.744926 325.514195 
L 168.18081 314.464911 
L 168.516724 303.875522 
L 168.418987 293.238173 
L 168.658079 282.862665 
L 168.840892 272.120363 
L 168.768329 261.870667 
L 168.404461 251.818129 
L 157.409569 251.556617 
L 163.603301 248.917385 
L 166.433028 247.957713 
L 169.154897 247.539578 
L 172.530922 247.470737 
L 177.506333 248.450349 
L 184.679558 251.677255 
L 202.421707 258.53116 
L 203.205435 256.850971 
L 204.240954 254.816034 
L 220.087882 254.779849 
L 229.834249 249.854637 
L 249.244824 254.398451 
L 249.244495 255.365399 
L 254.086772 255.366125 
L 254.088678 250.656702 
L 295.641752 250.568891 
L 307.067025 250.544695 
L 323.15379 250.511228 
L 334.253513 250.493725 
L 335.172926 223.038046 
L 335.518465 185.582167 
L 335.985262 157.046395 
L 339.482163 157.040186 
L 346.707635 158.833083 
L 348.819491 159.41292 
L 349.87555 159.7757 
L 351.20105 160.374865 
L 360.980306 162.406621 
L 357.666739 164.62348 
L 356.754442 165.558865 
L 356.049747 166.642158 
L 355.668581 167.810349 
L 355.523205 168.952238 
L 355.52662 170.846436 
L 355.676908 172.429029 
L 356.003907 173.933542 
L 356.477942 175.204327 
L 357.394764 176.785874 
L 358.715625 178.379327 
L 360.192841 180.089833 
L 362.733197 182.784862 
L 364.889577 185.091236 
L 367.075346 187.345648 
L 370.904304 190.98568 
L 375.274973 195.053433 
L 378.67113 198.240329 
L 384.067283 203.302029 
L 388.61498 207.499339 
L 393.989532 212.499911 
L 395.43663 213.899117 
L 396.410899 214.676213 
L 397.561924 215.375234 
L 398.417521 215.737328 
L 400.039995 216.280019 
L 402.097421 216.871229 
L 403.017154 217.100304 
L 403.828411 217.397604 
L 404.757696 217.733671 
L 405.745777 217.991804 
L 406.630449 218.12034 
L 407.819185 218.186802 
L 418.681522 218.219013 
L 431.447184 218.253729 
" style="stroke:#ffffff;stroke-linejoin:miter;stroke-width:2;"/>
   </g>
  </g>
 </g>
 <defs>
  <clipPath id="pc431bf17ef">
   <rect height="543.6" width="558" x="90" y="86.4"/>
  </clipPath>
 </defs>
</svg>
