<?xml version="1.0" encoding="utf-8" standalone="no"?>
<!DOCTYPE svg PUBLIC "-//W3C//DTD SVG 1.1//EN"
  "http://www.w3.org/Graphics/SVG/1.1/DTD/svg11.dtd">
<!-- Created with matplotlib (https://matplotlib.org/) -->
<svg height="720pt" version="1.1" viewBox="0 0 720 720" width="720pt" xmlns="http://www.w3.org/2000/svg" xmlns:xlink="http://www.w3.org/1999/xlink">
 <metadata>
  <rdf:RDF xmlns:cc="http://creativecommons.org/ns#" xmlns:dc="http://purl.org/dc/elements/1.1/" xmlns:rdf="http://www.w3.org/1999/02/22-rdf-syntax-ns#">
   <cc:Work>
    <dc:type rdf:resource="http://purl.org/dc/dcmitype/StillImage"/>
    <dc:date>2021-05-28T08:56:53.121118</dc:date>
    <dc:format>image/svg+xml</dc:format>
    <dc:creator>
     <cc:Agent>
      <dc:title>Matplotlib v3.3.3, https://matplotlib.org/</dc:title>
     </cc:Agent>
    </dc:creator>
   </cc:Work>
  </rdf:RDF>
 </metadata>
 <defs>
  <style type="text/css">*{stroke-linecap:butt;stroke-linejoin:round;}</style>
 </defs>
 <g id="figure_1">
  <g id="patch_1">
   <path d="M 0 720 
L 720 720 
L 720 0 
L 0 0 
z
" style="fill:none;"/>
  </g>
  <g id="axes_1">
   <g id="patch_2">
    <path clip-path="url(#p714af77cbc)" d="M 540.212548 505.9273 
L 198.284609 505.646053 
L 198.313273 499.051003 
L 198.358826 488.694514 
L 198.403867 478.338174 
L 198.448827 468.001837 
L 198.421093 458.020166 
L 198.393285 448.018679 
L 198.365477 438.017193 
L 198.337668 428.015707 
L 198.30986 418.014222 
L 198.282051 408.012737 
L 198.254242 398.011252 
L 198.226433 388.009768 
L 198.198624 378.007912 
L 198.170814 368.006429 
L 198.143004 358.004946 
L 198.115194 348.003463 
L 198.107753 345.329932 
L 198.087384 338.001981 
L 198.059573 328.000648 
L 198.031249 317.999167 
L 198.003278 307.932028 
L 198.040023 306.115353 
L 198.066472 288.201085 
L 198.093001 270.234099 
L 198.11953 252.267113 
L 198.145975 234.357125 
L 197.915968 222.041113 
L 197.700877 210.496239 
L 218.968222 210.491117 
L 351.392496 210.493957 
L 372.332076 210.491061 
L 530.12166 210.4727 
L 540.299123 210.479304 
L 540.299047 210.556598 
L 540.212548 505.9273 
" style="fill:#1a1a1a;stroke:#ffffff;stroke-linejoin:miter;stroke-width:4;"/>
   </g>
  </g>
 </g>
 <defs>
  <clipPath id="p714af77cbc">
   <rect height="543.6" width="558" x="90" y="86.4"/>
  </clipPath>
 </defs>
</svg>
