<?xml version="1.0" encoding="utf-8" standalone="no"?>
<!DOCTYPE svg PUBLIC "-//W3C//DTD SVG 1.1//EN"
  "http://www.w3.org/Graphics/SVG/1.1/DTD/svg11.dtd">
<!-- Created with matplotlib (https://matplotlib.org/) -->
<svg height="720pt" version="1.1" viewBox="0 0 720 720" width="720pt" xmlns="http://www.w3.org/2000/svg" xmlns:xlink="http://www.w3.org/1999/xlink">
 <metadata>
  <rdf:RDF xmlns:cc="http://creativecommons.org/ns#" xmlns:dc="http://purl.org/dc/elements/1.1/" xmlns:rdf="http://www.w3.org/1999/02/22-rdf-syntax-ns#">
   <cc:Work>
    <dc:type rdf:resource="http://purl.org/dc/dcmitype/StillImage"/>
    <dc:date>2021-05-28T08:56:46.541471</dc:date>
    <dc:format>image/svg+xml</dc:format>
    <dc:creator>
     <cc:Agent>
      <dc:title>Matplotlib v3.3.3, https://matplotlib.org/</dc:title>
     </cc:Agent>
    </dc:creator>
   </cc:Work>
  </rdf:RDF>
 </metadata>
 <defs>
  <style type="text/css">*{stroke-linecap:butt;stroke-linejoin:round;}</style>
 </defs>
 <g id="figure_1">
  <g id="patch_1">
   <path d="M 0 720 
L 720 720 
L 720 0 
L 0 0 
z
" style="fill:none;"/>
  </g>
  <g id="axes_1">
   <g id="patch_2">
    <path clip-path="url(#p6e8111e077)" d="M 579.345208 373.322244 
L 579.379082 535.681971 
L 501.552353 535.579358 
L 351.946051 535.885581 
L 311.300524 535.730745 
L 311.299448 530.621598 
L 311.335484 522.028265 
L 311.424943 500.640608 
L 311.515363 479.157294 
L 311.606764 457.673614 
L 311.667682 432.411167 
L 311.810026 401.800499 
L 311.867627 389.444609 
L 311.98563 367.953379 
L 312.07649 346.470023 
L 312.167875 324.986388 
L 312.166199 323.218833 
L 270.846248 323.225304 
L 270.835379 275.179023 
L 267.288933 275.164626 
L 161.271238 275.126124 
L 161.531124 247.077585 
L 161.542028 244.284523 
L 158.585977 244.285161 
L 158.582499 233.058948 
L 158.578542 220.212931 
L 158.756288 183.392787 
L 158.75538 180.514419 
L 312.792756 180.636556 
L 353.192862 180.670611 
L 579.421458 181.129521 
L 579.345208 373.322244 
" style="fill:#1a1a1a;stroke:#ffffff;stroke-linejoin:miter;stroke-width:4;"/>
   </g>
  </g>
 </g>
 <defs>
  <clipPath id="p6e8111e077">
   <rect height="543.6" width="558" x="90" y="86.4"/>
  </clipPath>
 </defs>
</svg>
