<?xml version="1.0" encoding="utf-8" standalone="no"?>
<!DOCTYPE svg PUBLIC "-//W3C//DTD SVG 1.1//EN"
  "http://www.w3.org/Graphics/SVG/1.1/DTD/svg11.dtd">
<!-- Created with matplotlib (https://matplotlib.org/) -->
<svg height="720pt" version="1.1" viewBox="0 0 720 720" width="720pt" xmlns="http://www.w3.org/2000/svg" xmlns:xlink="http://www.w3.org/1999/xlink">
 <metadata>
  <rdf:RDF xmlns:cc="http://creativecommons.org/ns#" xmlns:dc="http://purl.org/dc/elements/1.1/" xmlns:rdf="http://www.w3.org/1999/02/22-rdf-syntax-ns#">
   <cc:Work>
    <dc:type rdf:resource="http://purl.org/dc/dcmitype/StillImage"/>
    <dc:date>2021-05-07T11:02:58.211074</dc:date>
    <dc:format>image/svg+xml</dc:format>
    <dc:creator>
     <cc:Agent>
      <dc:title>Matplotlib v3.3.3, https://matplotlib.org/</dc:title>
     </cc:Agent>
    </dc:creator>
   </cc:Work>
  </rdf:RDF>
 </metadata>
 <defs>
  <style type="text/css">*{stroke-linecap:butt;stroke-linejoin:round;}</style>
 </defs>
 <g id="figure_1">
  <g id="patch_1">
   <path d="M 0 720 
L 720 720 
L 720 0 
L 0 0 
z
" style="fill:none;"/>
  </g>
  <g id="axes_1">
   <g id="patch_2">
    <path clip-path="url(#p790b7f4166)" d="M 274.990181 158.135599 
L 274.579346 178.765534 
L 274.328116 191.130615 
L 274.175933 198.609553 
L 274.267221 201.119647 
L 274.641818 203.605017 
L 275.295193 206.035763 
L 276.219528 208.382765 
L 276.211226 210.965729 
L 293.444766 210.980081 
L 302.120919 211.01037 
L 319.897159 211.202961 
L 321.593887 213.879058 
L 370.436401 288.676568 
L 373.282784 286.926433 
L 394.522187 319.439676 
L 398.730944 319.442642 
L 455.062567 319.334553 
L 421.083114 222.732763 
L 416.944421 211.026059 
L 484.146908 210.8279 
L 560.819788 318.284346 
L 571.707172 337.744679 
L 579.637974 353.37109 
L 585.624359 367.764385 
L 589.590825 378.799487 
L 590.182209 380.981981 
L 594.456908 396.757809 
L 597.751973 412.043266 
L 600.564381 433.101874 
L 601.304384 458.334559 
L 600.580346 475.975553 
L 596.457702 522.423532 
L 593.305488 558.264401 
L 402.920325 557.336606 
L 352.855881 557.75972 
L 270.732697 557.800695 
L 265.985359 557.804392 
L 261.477017 557.575477 
L 234.160887 557.604126 
L 223.184121 557.615808 
L 184.890785 557.657658 
L 139.631378 557.708746 
L 139.82898 546.709416 
L 140.108933 535.878147 
L 140.352454 524.971261 
L 140.594542 514.128113 
L 140.234675 503.265311 
L 141.064305 492.339036 
L 141.066864 490.17133 
L 140.625151 481.677432 
L 140.033614 470.623596 
L 140.024217 468.393281 
L 138.9856 459.750944 
L 138.995414 448.929747 
L 138.39354 438.189614 
L 137.85945 427.181139 
L 136.714557 416.390873 
L 136.77607 406.458481 
L 136.695616 401.757553 
L 137.123274 394.802412 
L 139.141037 384.653701 
L 140.819659 372.795279 
L 142.321649 362.184662 
L 145.342689 340.742789 
L 148.355155 319.436314 
L 151.403673 298.009705 
L 154.409597 276.733094 
L 154.874813 274.615486 
L 157.599587 255.339744 
L 157.69031 253.242615 
L 160.578834 234.136412 
L 163.733857 210.369265 
L 165.392298 200.048257 
L 165.689423 198.540617 
L 166.047335 197.3322 
L 166.593119 196.007806 
L 167.360753 194.319134 
L 168.2311 192.878647 
L 168.862529 191.818981 
L 169.483324 190.971725 
L 170.272362 190.047437 
L 171.450434 188.805335 
L 172.659034 187.626324 
L 181.989825 179.358267 
L 185.256115 176.494603 
L 188.511908 173.651442 
L 190.93668 171.398932 
L 191.978275 170.38865 
L 193.207603 169.063795 
L 193.317515 168.93053 
L 194.300243 167.739015 
L 195.488367 165.961442 
L 196.665892 163.875325 
L 197.331082 162.203296 
L 197.842524 160.59758 
L 198.275985 158.652797 
L 223.000997 158.737646 
L 259.017437 158.600523 
L 262.236845 158.160797 
L 274.990181 158.135599 
" style="stroke:#ffffff;stroke-linejoin:miter;stroke-width:2;"/>
   </g>
  </g>
 </g>
 <defs>
  <clipPath id="p790b7f4166">
   <rect height="543.6" width="558" x="90" y="86.4"/>
  </clipPath>
 </defs>
</svg>
