<?xml version="1.0" encoding="utf-8" standalone="no"?>
<!DOCTYPE svg PUBLIC "-//W3C//DTD SVG 1.1//EN"
  "http://www.w3.org/Graphics/SVG/1.1/DTD/svg11.dtd">
<!-- Created with matplotlib (https://matplotlib.org/) -->
<svg height="720pt" version="1.1" viewBox="0 0 720 720" width="720pt" xmlns="http://www.w3.org/2000/svg" xmlns:xlink="http://www.w3.org/1999/xlink">
 <metadata>
  <rdf:RDF xmlns:cc="http://creativecommons.org/ns#" xmlns:dc="http://purl.org/dc/elements/1.1/" xmlns:rdf="http://www.w3.org/1999/02/22-rdf-syntax-ns#">
   <cc:Work>
    <dc:type rdf:resource="http://purl.org/dc/dcmitype/StillImage"/>
    <dc:date>2021-05-07T11:03:06.373502</dc:date>
    <dc:format>image/svg+xml</dc:format>
    <dc:creator>
     <cc:Agent>
      <dc:title>Matplotlib v3.3.3, https://matplotlib.org/</dc:title>
     </cc:Agent>
    </dc:creator>
   </cc:Work>
  </rdf:RDF>
 </metadata>
 <defs>
  <style type="text/css">*{stroke-linecap:butt;stroke-linejoin:round;}</style>
 </defs>
 <g id="figure_1">
  <g id="patch_1">
   <path d="M 0 720 
L 720 720 
L 720 0 
L 0 0 
z
" style="fill:none;"/>
  </g>
  <g id="axes_1">
   <g id="patch_2">
    <path clip-path="url(#pb86723dbae)" d="M 473.579932 223.945569 
L 473.598265 237.025215 
L 477.205106 236.63896 
L 499.013222 239.332568 
L 499.023248 242.090688 
L 569.166232 250.718523 
L 569.242129 284.130956 
L 495.185314 284.231218 
L 473.631345 284.265612 
L 445.08044 284.306522 
L 439.117241 284.324591 
L 435.274988 286.944162 
L 427.157444 292.457868 
L 423.987542 294.702807 
L 421.171695 296.899795 
L 419.395475 298.483897 
L 417.428191 300.595561 
L 414.789382 303.531954 
L 411.118668 307.847093 
L 409.188619 310.049486 
L 404.631416 315.361152 
L 396.915609 324.255753 
L 385.269997 337.95635 
L 379.225938 344.983638 
L 372.573391 352.691497 
L 363.897605 363.199064 
L 344.910191 385.548711 
L 340.090431 391.028548 
L 327.757766 403.960878 
L 322.859848 409.097049 
L 321.811266 410.196653 
L 308.134097 424.586334 
L 286.476017 447.919233 
L 269.454146 466.15477 
L 262.3671 474.499007 
L 249.108211 489.639534 
L 241.184033 498.47382 
L 239.681322 500.283212 
L 237.857136 502.68318 
L 236.8385 504.30752 
L 235.820169 506.042497 
L 234.611571 508.788721 
L 233.595617 511.372108 
L 232.170028 517.340527 
L 231.970829 544.172958 
L 169.12469 544.554092 
L 169.108051 542.431306 
L 168.972663 524.328739 
L 168.91306 506.517303 
L 169.068848 503.481894 
L 168.990884 479.135274 
L 168.986829 477.151199 
L 168.894724 432.122862 
L 168.879963 424.909329 
L 168.814759 393.039694 
L 169.03235 353.910518 
L 168.823596 341.409292 
L 168.757871 314.905001 
L 169.22906 259.731154 
L 184.523378 254.81529 
L 191.37523 252.571558 
L 201.558605 249.254135 
L 247.135576 234.407187 
L 280.716235 223.468741 
L 318.117141 211.286572 
L 336.483259 205.304643 
L 339.214 204.41523 
L 355.054398 199.256159 
L 373.62445 193.142431 
L 382.293953 190.384948 
L 392.356395 187.108 
L 410.753392 181.043941 
L 415.896185 179.186508 
L 432.018634 173.709208 
L 435.307244 172.803846 
L 438.68271 172.213397 
L 440.774802 171.950277 
L 443.485768 171.881823 
L 446.244345 171.845908 
L 448.718167 172.03835 
L 451.525319 172.393287 
L 455.094835 173.268462 
L 473.515348 179.33152 
L 473.515185 181.453196 
L 473.506049 185.165341 
L 473.538134 194.158263 
L 473.555487 206.520569 
L 473.564121 212.678319 
L 473.579932 223.945569 
" style="stroke:#ffffff;stroke-linejoin:miter;stroke-width:2;"/>
   </g>
  </g>
 </g>
 <defs>
  <clipPath id="pb86723dbae">
   <rect height="543.6" width="558" x="90" y="86.4"/>
  </clipPath>
 </defs>
</svg>
