<?xml version="1.0" encoding="utf-8" standalone="no"?>
<!DOCTYPE svg PUBLIC "-//W3C//DTD SVG 1.1//EN"
  "http://www.w3.org/Graphics/SVG/1.1/DTD/svg11.dtd">
<!-- Created with matplotlib (https://matplotlib.org/) -->
<svg height="720pt" version="1.1" viewBox="0 0 720 720" width="720pt" xmlns="http://www.w3.org/2000/svg" xmlns:xlink="http://www.w3.org/1999/xlink">
 <metadata>
  <rdf:RDF xmlns:cc="http://creativecommons.org/ns#" xmlns:dc="http://purl.org/dc/elements/1.1/" xmlns:rdf="http://www.w3.org/1999/02/22-rdf-syntax-ns#">
   <cc:Work>
    <dc:type rdf:resource="http://purl.org/dc/dcmitype/StillImage"/>
    <dc:date>2021-05-07T11:03:03.123242</dc:date>
    <dc:format>image/svg+xml</dc:format>
    <dc:creator>
     <cc:Agent>
      <dc:title>Matplotlib v3.3.3, https://matplotlib.org/</dc:title>
     </cc:Agent>
    </dc:creator>
   </cc:Work>
  </rdf:RDF>
 </metadata>
 <defs>
  <style type="text/css">*{stroke-linecap:butt;stroke-linejoin:round;}</style>
 </defs>
 <g id="figure_1">
  <g id="patch_1">
   <path d="M 0 720 
L 720 720 
L 720 0 
L 0 0 
z
" style="fill:none;"/>
  </g>
  <g id="axes_1">
   <g id="patch_2">
    <path clip-path="url(#p38a18a20f4)" d="M 600.97201 146.045162 
L 577.346283 252.263249 
L 575.593607 259.872167 
L 573.722377 267.463092 
L 571.73284 275.034827 
L 569.625358 282.586228 
L 567.624281 289.376574 
L 567.51414 289.740661 
L 567.400244 290.116116 
L 567.401476 290.116098 
L 567.034443 291.316291 
L 566.959919 291.558665 
L 566.860589 291.881121 
L 566.675851 292.478787 
L 566.675001 292.481737 
L 566.673996 292.484793 
L 566.673035 292.4881 
L 566.67223 292.490603 
L 566.59509 292.739609 
L 566.52186 292.975279 
L 566.492876 293.068679 
L 566.466238 293.154195 
L 566.443869 293.226233 
L 566.426573 293.281647 
L 566.387108 293.408456 
L 566.339867 293.559683 
L 566.160375 294.133934 
L 566.046986 294.495198 
L 565.976681 294.719072 
L 565.931383 294.862773 
L 565.812316 295.240537 
L 565.780672 295.340801 
L 565.463558 296.340902 
L 565.364289 296.652491 
L 565.270136 296.947492 
L 565.183783 297.217431 
L 565.118907 297.420015 
L 565.115644 297.430151 
L 565.107822 297.454694 
L 565.0665 297.583488 
L 565.029648 297.698159 
L 564.823462 298.338982 
L 564.370322 299.740269 
L 563.896119 301.189949 
L 563.388427 302.726435 
L 563.072042 303.676028 
L 562.649243 304.93557 
L 562.270915 306.05377 
L 561.957623 306.973049 
L 561.253045 309.022081 
L 560.868619 310.128363 
L 560.464406 311.283108 
L 560.085289 312.358432 
L 559.804497 313.15012 
L 559.37671 314.348612 
L 558.936221 315.573293 
L 553.667191 330.175857 
L 550.955636 337.691284 
L 535.163687 381.461861 
L 534.77833 382.53035 
L 534.408797 383.554954 
L 518.99357 426.30934 
L 518.965229 426.186979 
L 518.93421 426.272856 
L 516.108818 434.097845 
L 516.07923 434.179753 
L 514.272719 439.437413 
L 512.637237 444.730589 
L 511.173874 450.055743 
L 509.883612 455.409334 
L 508.767294 460.787769 
L 507.825655 466.187437 
L 507.059359 471.604727 
L 506.986361 472.611669 
L 505.807806 488.870234 
L 504.812015 536.457295 
L 504.685972 542.480809 
L 504.631621 570.354838 
L 499.198845 568.776282 
L 490.424425 565.895384 
L 484.402599 563.768803 
L 474.852418 558.964738 
L 466.816644 554.419422 
L 458.813956 549.202398 
L 425.998822 524.053153 
L 411.999692 514.239816 
L 397.086633 504.470572 
L 381.867017 494.70165 
L 370.529119 487.863944 
L 360.928092 482.654897 
L 349.285469 477.691661 
L 339.890271 474.356775 
L 330.495391 471.429345 
L 321.312218 469.170284 
L 306.996673 465.961645 
L 291.470786 462.029945 
L 277.35542 457.695207 
L 261.62539 451.672268 
L 235.02004 440.399592 
L 184.799841 419.423372 
L 155.122371 406.347844 
L 137.02799 397.316328 
L 137.116102 339.967437 
L 137.104425 297.529611 
L 137.39466 290.984993 
L 138.578968 283.963729 
L 141.252047 275.037484 
L 145.118912 266.824274 
L 150.030602 259.443185 
L 155.390565 252.77572 
L 161.943481 246.107353 
L 171.971788 236.800732 
L 177.242048 239.886393 
L 181.948431 242.102728 
L 186.553319 244.036619 
L 192.27084 245.929331 
L 197.127954 247.338396 
L 203.401479 248.948228 
L 209.724992 250.073733 
L 215.592761 250.715258 
L 221.207402 251.155186 
L 228.15149 251.355086 
L 237.118892 250.90209 
L 243.627859 250.542344 
L 250.582222 250.448676 
L 257.147496 250.710515 
L 263.434796 251.150142 
L 269.221675 251.856514 
L 275.787785 252.917568 
L 285.63705 254.597988 
L 295.985455 256.021686 
L 310.604255 258.11303 
L 322.680096 259.336775 
L 336.208435 260.487239 
L 346.830989 261.060093 
L 358.361464 261.704916 
L 369.619217 261.987753 
L 380.967687 262.198165 
L 389.410429 261.830827 
L 398.192607 260.936714 
L 403.627872 260.056672 
L 407.241605 259.316162 
L 411.491099 258.159961 
L 414.784583 256.747854 
L 415.466701 256.589014 
L 416.220043 256.415638 
L 417.320489 256.158559 
L 418.188209 255.95527 
L 419.115073 255.731107 
L 421.560279 255.140407 
L 422.589692 254.883373 
L 423.524461 254.653221 
L 424.839312 254.316222 
L 426.140859 253.981519 
L 427.195985 253.716359 
L 428.252999 253.432469 
L 429.54914 253.086566 
L 430.830972 252.745891 
L 432.217944 252.364122 
L 432.639112 252.256377 
L 433.331118 251.975986 
L 435.582132 251.022351 
L 438.931927 249.683117 
L 442.344724 248.266501 
L 446.712825 246.480926 
L 450.27704 245.040277 
L 453.358843 243.782261 
L 455.97155 242.772604 
L 458.383544 241.920236 
L 461.546024 240.905353 
L 465.378625 239.788789 
L 468.702106 238.93594 
L 471.09731 238.333948 
L 475.707357 237.19672 
L 483.185362 235.429847 
L 486.642913 234.556699 
L 490.690161 233.602194 
L 494.121078 232.931703 
L 496.89884 232.285746 
L 499.230825 231.859005 
L 501.669963 231.351177 
L 503.099707 231.120157 
L 505.473727 225.950186 
L 506.947601 225.951244 
L 509.754752 224.38236 
L 511.919094 223.114292 
L 512.608484 222.699501 
L 513.373867 222.232662 
L 514.134923 221.761768 
L 514.961491 221.242674 
L 515.967942 220.600648 
L 519.138621 218.491962 
L 522.229614 216.309277 
L 525.649699 213.738305 
L 527.55407 212.227803 
L 528.686645 211.302974 
L 529.432788 210.678998 
L 531.446102 208.950434 
L 533.373376 207.225615 
L 533.531228 207.084448 
L 536.033663 204.793634 
L 542.988334 198.435104 
L 544.616842 196.943653 
L 546.243857 195.455851 
L 547.872245 193.970534 
L 549.499607 192.482914 
L 551.126392 190.995832 
L 552.754256 189.507786 
L 553.113823 189.178894 
L 553.439562 188.880295 
L 553.764247 188.580946 
L 554.08788 188.280882 
L 554.410458 187.980105 
L 556.051901 186.421083 
L 557.66383 184.84458 
L 559.247321 183.248468 
L 559.560388 182.927161 
L 559.872268 182.605138 
L 560.182938 182.282366 
L 560.492443 181.95888 
L 560.800738 181.634661 
L 561.108225 181.309371 
L 561.414502 180.983366 
L 561.719592 180.656647 
L 562.023494 180.329231 
L 562.326163 180.001084 
L 563.820105 178.351437 
L 564.115245 178.019415 
L 564.409175 177.686715 
L 564.701895 177.353318 
L 564.993383 177.01926 
L 565.283638 176.684506 
L 565.572615 176.349056 
L 565.860383 176.012927 
L 566.146963 175.676173 
L 566.432333 175.338741 
L 566.716493 175.000683 
L 568.048208 173.386668 
L 568.412624 172.936367 
L 570.062639 170.84834 
L 570.330239 170.501784 
L 570.596561 170.154603 
L 570.861651 169.806833 
L 571.125464 169.458438 
L 571.388022 169.109436 
L 571.649281 168.759809 
L 571.909262 168.409575 
L 572.167943 168.058733 
L 572.425325 167.707285 
L 572.681407 167.35523 
L 573.942479 165.586154 
L 575.170992 163.802563 
L 575.4128 163.444152 
L 575.653286 163.085152 
L 575.892428 162.725617 
L 576.130247 162.365493 
L 576.366745 162.004833 
L 577.529357 160.19334 
L 578.679191 158.334777 
L 580.183899 155.790983 
L 580.42198 155.386106 
L 581.626873 153.130939 
L 582.689293 150.83064 
L 583.6066 148.490946 
L 584.376534 146.117666 
L 587.11545 146.10585 
L 589.846076 146.094578 
L 592.615017 146.087763 
L 593.998717 146.071578 
L 600.97201 146.045162 
" style="stroke:#ffffff;stroke-linejoin:miter;stroke-width:2;"/>
   </g>
  </g>
 </g>
 <defs>
  <clipPath id="p38a18a20f4">
   <rect height="543.6" width="558" x="90" y="86.4"/>
  </clipPath>
 </defs>
</svg>
