<?xml version="1.0" encoding="utf-8" standalone="no"?>
<!DOCTYPE svg PUBLIC "-//W3C//DTD SVG 1.1//EN"
  "http://www.w3.org/Graphics/SVG/1.1/DTD/svg11.dtd">
<!-- Created with matplotlib (https://matplotlib.org/) -->
<svg height="720pt" version="1.1" viewBox="0 0 720 720" width="720pt" xmlns="http://www.w3.org/2000/svg" xmlns:xlink="http://www.w3.org/1999/xlink">
 <metadata>
  <rdf:RDF xmlns:cc="http://creativecommons.org/ns#" xmlns:dc="http://purl.org/dc/elements/1.1/" xmlns:rdf="http://www.w3.org/1999/02/22-rdf-syntax-ns#">
   <cc:Work>
    <dc:type rdf:resource="http://purl.org/dc/dcmitype/StillImage"/>
    <dc:date>2021-05-07T11:02:59.305426</dc:date>
    <dc:format>image/svg+xml</dc:format>
    <dc:creator>
     <cc:Agent>
      <dc:title>Matplotlib v3.3.3, https://matplotlib.org/</dc:title>
     </cc:Agent>
    </dc:creator>
   </cc:Work>
  </rdf:RDF>
 </metadata>
 <defs>
  <style type="text/css">*{stroke-linecap:butt;stroke-linejoin:round;}</style>
 </defs>
 <g id="figure_1">
  <g id="patch_1">
   <path d="M 0 720 
L 720 720 
L 720 0 
L 0 0 
z
" style="fill:none;"/>
  </g>
  <g id="axes_1">
   <g id="patch_2">
    <path clip-path="url(#p070a03fe1c)" d="M 334.313791 210.7957 
L 365.728673 210.738839 
L 365.708699 220.983312 
L 549.708453 221.009183 
L 549.70844 221.020399 
L 549.775867 347.38478 
L 549.788992 379.24866 
L 549.782213 386.263944 
L 551.991082 386.246316 
L 552.143501 423.676077 
L 552.176443 496.281495 
L 480.897619 496.307424 
L 480.94854 532.082651 
L 480.978666 553.133712 
L 443.796238 553.146509 
L 331.901592 542.659541 
L 213.48033 539.743115 
L 190.534725 532.186184 
L 185.954669 532.186251 
L 186.112079 413.113853 
L 186.10221 390.897295 
L 186.096098 377.150621 
L 190.266341 377.143526 
L 190.293513 377.304867 
L 190.321597 377.46616 
L 190.350638 377.627405 
L 190.380637 377.788602 
L 190.411548 377.949752 
L 190.443417 378.110877 
L 190.476198 378.271931 
L 190.509937 378.43296 
L 190.544588 378.593918 
L 190.580196 378.754829 
L 190.616762 378.915692 
L 190.704841 379.109115 
L 190.794288 379.302375 
L 190.885103 379.495471 
L 190.97733 379.688381 
L 191.070879 379.88115 
L 191.165841 380.073731 
L 191.26217 380.26615 
L 191.359866 380.458381 
L 191.45893 380.650449 
L 191.559407 380.84233 
L 191.661206 381.034024 
L 191.764371 381.225531 
L 191.86895 381.416852 
L 191.97485 381.607963 
L 192.082117 381.79891 
L 192.190752 381.989624 
L 192.300753 382.180175 
L 192.412122 382.370516 
L 192.524812 382.560647 
L 192.63887 382.750568 
L 192.754294 382.94028 
L 192.871085 383.129782 
L 192.989244 383.319074 
L 193.108724 383.508156 
L 193.229525 383.697006 
L 193.351693 383.885645 
L 193.475228 384.074075 
L 193.600085 384.26225 
L 193.726308 384.450214 
L 193.853853 384.637946 
L 193.982719 384.825445 
L 194.112952 385.012688 
L 194.244506 385.199722 
L 194.377427 385.386499 
L 194.511623 385.573044 
L 194.647187 385.759334 
L 194.784071 385.945367 
L 194.922277 386.131168 
L 195.061803 386.316713 
L 195.202697 386.502002 
L 195.344866 386.687035 
L 195.488356 386.87179 
L 195.633167 387.056312 
L 195.779299 387.240555 
L 195.926752 387.424519 
L 196.075526 387.608228 
L 196.225576 387.791681 
L 196.376992 387.974832 
L 196.529638 388.157727 
L 196.68365 388.340321 
L 196.838937 388.522658 
L 196.995546 388.704695 
L 197.15343 388.886452 
L 197.312589 389.067908 
L 197.473068 389.249084 
L 197.634869 389.429959 
L 197.797899 389.610556 
L 197.96225 389.79085 
L 198.127922 389.970843 
L 198.294823 390.150534 
L 198.463045 390.329901 
L 198.632497 390.508988 
L 198.803269 390.687751 
L 198.975271 390.866212 
L 199.148593 391.044349 
L 199.323145 391.222161 
L 199.499017 391.39967 
L 199.676119 391.576856 
L 199.854496 391.753716 
L 200.034102 391.930252 
L 200.214983 392.106463 
L 200.397139 392.282349 
L 200.580569 392.457888 
L 200.765184 392.633102 
L 200.951119 392.807968 
L 201.138237 392.982509 
L 201.326631 393.156703 
L 201.516299 393.330549 
L 201.707151 393.504047 
L 201.899278 393.677198 
L 202.092588 393.850023 
L 202.287173 394.022456 
L 202.482987 394.194563 
L 202.68003 394.3663 
L 202.878302 394.537689 
L 203.077758 394.708707 
L 203.278443 394.879355 
L 203.480357 395.049631 
L 203.683499 395.219561 
L 203.887871 395.389119 
L 204.093381 395.558284 
L 204.300165 395.727078 
L 204.508133 395.895524 
L 204.717283 396.063554 
L 204.927618 396.231213 
L 205.139181 396.398502 
L 205.351927 396.565396 
L 205.565857 396.731897 
L 205.780969 396.898005 
L 205.997311 397.063741 
L 206.21479 397.229061 
L 206.433453 397.393988 
L 206.653299 397.55852 
L 206.874282 397.72266 
L 207.096494 397.886382 
L 207.319843 398.049711 
L 207.54433 398.212623 
L 207.770046 398.375141 
L 207.996854 398.537243 
L 208.224844 398.698928 
L 208.453972 398.860174 
L 208.684283 399.021025 
L 208.915732 399.181461 
L 209.148318 399.341479 
L 209.382041 399.501058 
L 209.616902 399.660198 
L 209.8529 399.818943 
L 210.089989 399.977226 
L 210.328262 400.135093 
L 210.567627 400.292543 
L 210.808128 400.44953 
L 211.049767 400.606078 
L 211.292497 400.762209 
L 211.53632 400.917877 
L 211.781279 401.073106 
L 212.027376 401.227895 
L 212.274518 401.382222 
L 212.522798 401.536109 
L 212.772169 401.689534 
L 213.022586 401.842519 
L 213.27414 401.995041 
L 213.526786 402.147101 
L 213.780523 402.298698 
L 214.035307 402.449833 
L 214.291181 402.600505 
L 214.548102 402.750714 
L 214.806114 402.900462 
L 215.065217 403.049723 
L 215.325366 403.198522 
L 215.586561 403.346858 
L 215.848847 403.494686 
L 216.112179 403.642074 
L 216.376511 403.788954 
L 216.641934 403.935371 
L 216.908403 404.08128 
L 217.175918 404.226726 
L 217.444433 404.371687 
L 217.713994 404.516139 
L 217.9846 404.660106 
L 218.256206 404.803587 
L 218.528858 404.946583 
L 218.802509 405.089047 
L 219.077207 405.231049 
L 219.352904 405.372542 
L 219.629602 405.513527 
L 219.907299 405.654003 
L 220.185996 405.793971 
L 220.465693 405.93343 
L 220.74639 406.072404 
L 221.028041 406.210847 
L 221.310738 406.34878 
L 221.594388 406.486183 
L 221.878994 406.6231 
L 222.164599 406.759486 
L 222.451203 406.89534 
L 222.738717 407.030686 
L 223.02723 407.1655 
L 223.316697 407.299783 
L 223.607119 407.433558 
L 223.898494 407.566778 
L 224.190824 407.69949 
L 224.484108 407.831647 
L 224.7783 407.963296 
L 225.073446 408.09439 
L 225.369547 408.224954 
L 225.666556 408.354985 
L 225.964519 408.484463 
L 226.263344 408.613409 
L 226.563124 408.741801 
L 226.863858 408.869638 
L 227.165454 408.996944 
L 227.467959 409.123696 
L 227.771372 409.249893 
L 228.075694 409.375559 
L 228.380878 409.500647 
L 228.686971 409.625182 
L 228.993972 409.749162 
L 229.301836 409.872587 
L 229.610562 409.995459 
L 229.920196 410.117753 
L 230.230694 410.239493 
L 230.542053 410.360655 
L 230.854276 410.481263 
L 231.167361 410.601294 
L 231.481263 410.720771 
L 231.796073 410.839647 
L 232.111701 410.957969 
L 232.428145 411.075714 
L 232.745452 411.192882 
L 233.063621 411.309495 
L 233.382562 411.425508 
L 233.702365 411.540921 
L 234.022985 411.655779 
L 234.344422 411.770038 
L 234.666675 411.883719 
L 234.989746 411.996823 
L 235.313588 412.109327 
L 235.638247 412.22123 
L 235.963722 412.332557 
L 236.289969 412.443306 
L 236.617033 412.553432 
L 236.944822 412.662981 
L 237.273428 412.771929 
L 237.602805 412.880278 
L 237.932999 412.988003 
L 238.263918 413.095151 
L 238.595563 413.201699 
L 238.928025 413.307647 
L 239.261212 413.412972 
L 239.59517 413.517697 
L 239.929854 413.621821 
L 240.265263 413.725345 
L 240.601443 413.828224 
L 240.938349 413.930525 
L 241.275935 414.032203 
L 241.614292 414.133258 
L 241.953374 414.23369 
L 242.293135 414.333522 
L 242.633623 414.432731 
L 242.974835 414.531316 
L 243.316728 414.629279 
L 243.659346 414.726642 
L 244.002643 414.823358 
L 244.346575 414.919452 
L 244.691277 415.014922 
L 245.036614 415.109747 
L 245.38263 415.203971 
L 245.729281 415.29755 
L 246.076657 415.390505 
L 246.424667 415.482838 
L 246.773311 415.574501 
L 247.122634 415.665565 
L 247.472592 415.755982 
L 247.823229 415.845754 
L 248.174455 415.934902 
L 248.526361 416.023405 
L 248.878854 416.111262 
L 249.231982 416.198472 
L 249.585744 416.28506 
L 249.940094 416.370979 
L 250.295078 416.456275 
L 250.650697 416.540925 
L 251.006857 416.624906 
L 251.363652 416.708265 
L 251.721035 416.790954 
L 252.079007 416.872997 
L 252.437567 416.954395 
L 252.796669 417.035124 
L 253.156406 417.11523 
L 253.516639 417.194644 
L 253.877507 417.273435 
L 254.238871 417.351558 
L 254.600824 417.429011 
L 254.963365 417.505819 
L 255.326403 417.581958 
L 255.689984 417.657451 
L 256.054107 417.732275 
L 256.418773 417.806431 
L 256.783936 417.879917 
L 257.149641 417.952758 
L 257.515889 418.024907 
L 257.882589 418.096411 
L 258.249831 418.167245 
L 258.617616 418.237411 
L 258.985852 418.306909 
L 259.354585 418.375714 
L 259.723815 418.443874 
L 260.093496 418.511365 
L 260.46372 418.578164 
L 260.834349 418.644295 
L 261.205521 418.709756 
L 261.577099 418.77455 
L 261.949174 418.838651 
L 262.321654 418.902084 
L 262.694631 418.964825 
L 263.06806 419.026898 
L 263.441894 419.088302 
L 263.81618 419.149014 
L 264.190917 419.209058 
L 264.566059 419.26841 
L 264.941607 419.32707 
L 265.317606 419.385062 
L 265.694011 419.442385 
L 266.070776 419.498994 
L 266.447992 419.554934 
L 266.825614 419.610182 
L 267.203596 419.664739 
L 267.581983 419.718627 
L 267.960731 419.771801 
L 268.339884 419.824306 
L 268.719397 419.876097 
L 269.09927 419.927219 
L 269.479503 419.97765 
L 269.860095 420.027366 
L 270.241048 420.076414 
L 270.622315 420.12477 
L 271.003988 420.172412 
L 271.385929 420.219385 
L 271.768276 420.265643 
L 272.150892 420.311211 
L 272.533868 420.356087 
L 272.917112 420.400248 
L 273.300716 420.443741 
L 273.684635 420.486519 
L 274.068822 420.528584 
L 274.453323 420.569979 
L 274.838093 420.610661 
L 275.223178 420.650651 
L 275.608531 420.689926 
L 275.994199 420.72851 
L 276.380089 420.76638 
L 276.766294 420.803558 
L 277.152722 420.840046 
L 277.539418 420.875818 
L 277.926383 420.910877 
L 278.313571 420.945244 
L 278.701028 420.978897 
L 279.088708 421.011858 
L 279.47661 421.044105 
L 279.864782 421.075638 
L 280.253131 421.10648 
L 280.641703 421.136607 
L 281.030498 421.166043 
L 281.419515 421.194765 
L 281.808711 421.222773 
L 282.198129 421.250066 
L 282.587725 421.276668 
L 282.977498 421.302556 
L 283.367448 421.32773 
L 283.757622 421.352189 
L 284.147927 421.375935 
L 284.538409 421.398989 
L 284.929024 421.421329 
L 285.319816 421.442955 
L 285.710785 421.463866 
L 286.101885 421.484064 
L 286.493118 421.50357 
L 286.884482 421.522339 
L 287.276024 421.540417 
L 287.667652 421.557758 
L 288.059412 421.574408 
L 288.451257 421.590344 
L 288.843235 421.605566 
L 289.235344 421.620074 
L 289.627539 421.633844 
L 290.019821 421.646924 
L 290.412188 421.659289 
L 290.804642 421.670941 
L 291.197182 421.681878 
L 291.589808 421.692102 
L 291.982475 421.701611 
L 292.375227 421.710406 
L 292.768066 421.718488 
L 293.160945 421.725855 
L 293.553865 421.732509 
L 293.946825 421.738448 
L 294.339826 421.743674 
L 294.732867 421.748185 
L 295.125903 421.751983 
L 295.519026 421.755043 
L 295.912143 421.757413 
L 296.305255 421.759069 
L 296.698362 421.759988 
L 297.091509 421.760216 
L 297.484651 421.759707 
L 297.877789 421.758508 
L 298.270921 421.756571 
L 298.664002 421.753944 
L 299.057124 421.75058 
L 299.45015 421.746502 
L 299.84317 421.741733 
L 300.236186 421.736227 
L 300.629105 421.730008 
L 301.022018 421.723074 
L 301.399511 421.715824 
L 301.776953 421.707905 
L 302.154299 421.699342 
L 302.531595 421.690111 
L 302.908886 421.680213 
L 303.286035 421.66967 
L 303.663134 421.658459 
L 304.040183 421.646603 
L 304.417091 421.63408 
L 304.793947 421.620889 
L 305.170709 421.607054 
L 305.547374 421.592551 
L 305.923943 421.57738 
L 306.30037 421.561565 
L 306.676748 421.545105 
L 307.052938 421.527977 
L 307.429078 421.510182 
L 307.805031 421.491719 
L 308.180887 421.472635 
L 308.556648 421.45286 
L 308.932222 421.43244 
L 309.307654 421.411376 
L 309.682945 421.389645 
L 310.058094 421.367269 
L 310.433102 421.344225 
L 310.807922 421.320537 
L 311.182556 421.296181 
L 311.557048 421.271181 
L 311.931398 421.245513 
L 312.305515 421.219201 
L 312.679492 421.192245 
L 313.053281 421.164621 
L 313.426837 421.136352 
L 313.800206 421.107416 
L 314.173388 421.077836 
L 314.546383 421.047611 
L 314.919145 421.016719 
L 315.29172 420.985205 
L 315.664062 420.953001 
L 316.036172 420.920175 
L 316.408049 420.886682 
L 316.779693 420.852568 
L 317.151105 420.817763 
L 317.522284 420.782337 
L 317.89323 420.746267 
L 318.263898 420.709529 
L 318.634333 420.672147 
L 319.004535 420.634144 
L 319.374414 420.595473 
L 319.74406 420.556158 
L 320.113427 420.516176 
L 320.482516 420.475572 
L 320.851327 420.434324 
L 321.21986 420.392432 
L 321.588114 420.349895 
L 321.956045 420.306715 
L 322.323697 420.26289 
L 322.691026 420.21842 
L 323.058076 420.173307 
L 323.424802 420.127549 
L 323.791204 420.08117 
L 324.157283 420.034124 
L 324.523037 419.986457 
L 324.888468 419.938145 
L 325.253575 419.889213 
L 325.618358 419.839613 
L 325.982772 419.789392 
L 326.346816 419.738526 
L 326.710536 419.68704 
L 327.073933 419.63491 
L 327.436914 419.582135 
L 327.799572 419.528739 
L 328.16186 419.474722 
L 328.523733 419.420038 
L 328.885282 419.364756 
L 329.246417 419.30883 
L 329.607182 419.25226 
L 329.967531 419.195068 
L 330.327512 419.137256 
L 330.687077 419.0788 
L 331.046273 419.019722 
L 331.405055 418.960023 
L 331.763375 418.899704 
L 332.121326 418.83874 
L 332.478862 418.777156 
L 332.835938 418.71495 
L 336.201331 418.120581 
L 361.636632 413.681286 
L 387.072766 409.242727 
L 412.509093 404.804537 
L 418.629179 403.737043 
L 418.764732 403.713517 
L 418.900424 403.690244 
L 419.0363 403.6672 
L 419.172315 403.644387 
L 419.308514 403.621827 
L 419.444851 403.599497 
L 419.581327 403.57742 
L 419.717987 403.555573 
L 419.854786 403.533979 
L 419.991723 403.512615 
L 420.128798 403.491482 
L 420.266013 403.470601 
L 420.403411 403.449973 
L 420.540903 403.429575 
L 420.678578 403.409431 
L 420.816393 403.389516 
L 420.9543 403.369832 
L 421.092391 403.350423 
L 421.230576 403.331245 
L 421.368898 403.312297 
L 421.50736 403.293602 
L 421.64596 403.275137 
L 421.784699 403.256948 
L 421.92353 403.238966 
L 422.0625 403.22126 
L 422.201563 403.203784 
L 422.340765 403.186562 
L 422.480106 403.169569 
L 422.619539 403.15283 
L 422.759111 403.136344 
L 422.898776 403.120088 
L 423.038579 403.104085 
L 423.17843 403.088335 
L 423.318465 403.072815 
L 423.458547 403.057571 
L 423.598768 403.042535 
L 423.739082 403.027774 
L 423.879489 403.013244 
L 424.019989 402.99899 
L 424.160628 402.984943 
L 424.301314 402.971172 
L 424.442138 402.957632 
L 424.58301 402.944367 
L 424.723975 402.931333 
L 424.865078 402.918529 
L 425.006229 402.906001 
L 425.147473 402.893703 
L 425.28881 402.881658 
L 425.43024 402.869867 
L 425.571717 402.858329 
L 425.713287 402.84702 
L 425.854951 402.835989 
L 425.996661 402.825187 
L 426.138465 402.814638 
L 426.280316 402.804343 
L 426.42226 402.794301 
L 426.564297 402.784512 
L 426.706381 402.774953 
L 426.848513 402.765648 
L 426.990692 402.756618 
L 427.132964 402.747819 
L 427.275284 402.739273 
L 427.417696 402.730981 
L 427.56011 402.722918 
L 427.702618 402.715132 
L 427.845172 402.707599 
L 427.987774 402.700296 
L 428.130424 402.693247 
L 428.273121 402.686473 
L 428.415865 402.67993 
L 428.558657 402.673641 
L 428.701496 402.667604 
L 428.844336 402.661821 
L 428.98727 402.656291 
L 429.130206 402.651014 
L 429.273189 402.645967 
L 429.416219 402.641197 
L 429.559251 402.63668 
L 429.702331 402.632394 
L 429.845458 402.628383 
L 429.988586 402.624603 
L 430.132675 402.621074 
L 430.276765 402.617799 
L 430.420857 402.614777 
L 430.564996 402.612009 
L 430.709137 402.609516 
L 430.853326 402.607254 
L 430.997516 402.605246 
L 431.141709 402.603513 
L 431.285903 402.602034 
L 431.430144 402.600785 
L 431.574387 402.599813 
L 431.718587 402.599094 
L 431.862833 402.598628 
L 432.007082 402.598416 
L 432.151333 402.598479 
L 432.295539 402.598774 
L 432.439793 402.599321 
L 432.584049 402.600145 
L 432.728261 402.601222 
L 432.872475 402.60253 
L 433.01669 402.604114 
L 433.160862 402.605951 
L 433.305036 402.608041 
L 433.449211 402.610385 
L 433.593343 402.613006 
L 433.737476 402.615856 
L 433.881611 402.61896 
L 434.025702 402.622341 
L 434.16975 402.625952 
L 434.313799 402.629839 
L 434.457805 402.63398 
L 434.601766 402.63835 
L 434.745729 402.642998 
L 434.889649 402.647899 
L 435.033525 402.653053 
L 435.177357 402.65846 
L 435.321145 402.664144 
L 435.464935 402.670058 
L 435.608635 402.676226 
L 435.752337 402.682647 
L 435.89595 402.689345 
L 436.039519 402.696273 
L 436.183044 402.703477 
L 436.326571 402.710912 
L 436.469963 402.718623 
L 436.613356 402.726565 
L 436.756661 402.734783 
L 436.899921 402.743232 
L 437.043137 402.751957 
L 437.186264 402.760935 
L 437.329347 402.770144 
L 437.472387 402.779629 
L 437.615337 402.789345 
L 437.758197 402.799337 
L 437.901014 402.809583 
L 438.043741 402.820059 
L 438.186424 402.830811 
L 438.328972 402.841794 
L 438.471522 402.853054 
L 438.613937 402.864544 
L 438.756262 402.87631 
L 438.898544 402.888307 
L 439.040736 402.900558 
L 439.182839 402.913084 
L 439.324852 402.925842 
L 439.466775 402.938853 
L 439.608564 402.952117 
L 439.750309 402.965635 
L 439.891964 402.979383 
L 440.033484 402.993408 
L 440.17496 403.007686 
L 440.316301 403.022195 
L 440.457507 403.036957 
L 440.598669 403.051973 
L 440.739696 403.067243 
L 440.880634 403.082765 
L 441.021437 403.098542 
L 441.16215 403.114549 
L 441.302727 403.130809 
L 441.443216 403.147346 
L 441.583569 403.164091 
L 441.723833 403.181112 
L 441.863962 403.198386 
L 442.003955 403.215891 
L 442.143859 403.23365 
L 442.283628 403.251639 
L 442.423262 403.269905 
L 442.56276 403.288401 
L 442.702124 403.307151 
L 442.841398 403.326154 
L 442.980491 403.345388 
L 443.119495 403.364876 
L 443.258318 403.384617 
L 443.397006 403.404589 
L 443.535604 403.424814 
L 443.674022 403.445292 
L 443.812304 403.466002 
L 443.950406 403.486965 
L 444.088418 403.508158 
L 444.226249 403.529605 
L 444.363945 403.551306 
L 444.501461 403.573237 
L 444.638841 403.595422 
L 444.776086 403.617861 
L 444.913151 403.64053 
L 445.05008 403.663429 
L 445.189797 403.687084 
L 445.329334 403.710969 
L 445.468689 403.735131 
L 445.607864 403.759524 
L 445.746904 403.78417 
L 445.885718 403.809092 
L 446.024396 403.834246 
L 446.162894 403.859653 
L 446.301166 403.885314 
L 446.439302 403.911228 
L 446.577212 403.937373 
L 446.714987 403.963795 
L 446.852535 403.990447 
L 446.989903 404.017353 
L 447.12709 404.044513 
L 447.264051 404.071903 
L 447.400831 404.09957 
L 447.53743 404.127468 
L 447.673848 404.155596 
L 447.81004 404.184001 
L 447.946006 404.212637 
L 448.081791 404.241526 
L 448.217349 404.270646 
L 448.352727 404.30002 
L 448.487878 404.329648 
L 448.622849 404.359506 
L 448.757593 404.389618 
L 448.892111 404.419983 
L 449.026403 404.45058 
L 449.160467 404.481407 
L 449.294352 404.512487 
L 449.42801 404.543822 
L 449.561395 404.575387 
L 449.6946 404.607183 
L 449.827579 404.639232 
L 449.960331 404.671535 
L 450.092811 404.704046 
L 450.22511 404.736811 
L 450.357138 404.76983 
L 450.488939 404.803079 
L 450.620513 404.836559 
L 450.751861 404.870292 
L 450.882937 404.904234 
L 451.013787 404.938452 
L 451.14441 404.972878 
L 451.274761 405.007557 
L 451.404885 405.042445 
L 451.534737 405.077586 
L 451.664363 405.11298 
L 451.793717 405.148583 
L 451.922845 405.184439 
L 452.0517 405.220504 
L 452.180283 405.256821 
L 452.30864 405.29337 
L 452.436679 405.33015 
L 452.564492 405.367137 
L 452.692078 405.404378 
L 452.819346 405.441849 
L 452.946388 405.479552 
L 453.073112 405.517485 
L 453.19961 405.555649 
L 453.32579 405.594044 
L 453.451743 405.632647 
L 453.577379 405.671503 
L 453.702788 405.710567 
L 453.827879 405.749862 
L 454.080532 405.829369 
L 454.333457 405.908622 
L 454.586699 405.987621 
L 454.840213 406.066413 
L 455.094044 406.144927 
L 455.348148 406.223234 
L 455.602524 406.301287 
L 455.857217 406.379086 
L 456.112228 406.456654 
L 456.367465 406.533968 
L 456.623066 406.611052 
L 456.878893 406.687882 
L 457.135037 406.764481 
L 457.391454 406.840826 
L 457.648142 406.91694 
L 457.905148 406.992778 
L 458.162426 407.068408 
L 458.419976 407.143784 
L 458.677798 407.218906 
L 458.935937 407.293774 
L 459.194303 407.368412 
L 459.452987 407.442796 
L 459.711942 407.516949 
L 459.971169 407.590825 
L 460.230669 407.66447 
L 460.49044 407.737885 
L 460.750483 407.811023 
L 461.010798 407.88393 
L 461.271386 407.956606 
L 461.532244 408.029005 
L 461.793376 408.101174 
L 462.054778 408.173089 
L 462.316453 408.24475 
L 462.5784 408.316157 
L 462.840619 408.387334 
L 463.103064 408.458234 
L 463.365827 408.528903 
L 463.628815 408.599318 
L 463.892076 408.669479 
L 464.155609 408.73941 
L 464.419368 408.809064 
L 464.787009 408.905615 
L 465.155103 409.001659 
L 465.52374 409.097241 
L 465.892876 409.192316 
L 466.262465 409.286906 
L 466.632597 409.381012 
L 467.003183 409.474633 
L 467.374266 409.567747 
L 467.745802 409.660376 
L 468.117883 409.752498 
L 468.49037 409.844136 
L 468.863401 409.935289 
L 469.236839 410.025934 
L 469.610776 410.116095 
L 469.98521 410.205749 
L 470.360052 410.294895 
L 470.735392 410.383557 
L 471.111185 410.471735 
L 471.487476 410.559404 
L 471.864174 410.646567 
L 472.241325 410.733245 
L 472.618928 410.819393 
L 472.996984 410.905079 
L 473.375492 410.990235 
L 473.754454 411.074907 
L 474.133822 411.159048 
L 474.513643 411.242704 
L 474.893871 411.325877 
L 475.274597 411.408519 
L 475.655684 411.490653 
L 476.037224 411.572303 
L 476.419171 411.653423 
L 476.801571 411.734059 
L 477.184377 411.814164 
L 477.567591 411.893785 
L 477.951211 411.972875 
L 478.335284 412.051458 
L 478.719719 412.129557 
L 479.10456 412.207125 
L 479.489809 412.284186 
L 479.875464 412.36074 
L 480.261526 412.436763 
L 480.647995 412.512302 
L 481.034826 412.587311 
L 481.422018 412.661812 
L 481.809662 412.735806 
L 482.197668 412.80927 
L 482.586035 412.882226 
L 482.974763 412.954675 
L 483.363898 413.026594 
L 483.753395 413.098006 
L 484.143298 413.16891 
L 484.533517 413.239284 
L 484.924144 413.309151 
L 485.315131 413.378487 
L 485.706434 413.447293 
L 486.098144 413.515615 
L 486.490169 413.583384 
L 486.882556 413.650645 
L 487.275304 413.717399 
L 487.668368 413.783623 
L 488.061793 413.849317 
L 488.455579 413.914503 
L 488.849681 413.979159 
L 489.244144 414.043285 
L 489.638877 414.106881 
L 490.034018 414.169969 
L 490.429428 414.232527 
L 490.825199 414.294578 
L 491.22124 414.356076 
L 491.617643 414.417067 
L 492.014361 414.477527 
L 492.411395 414.53748 
L 492.808745 414.59688 
L 493.206364 414.65575 
L 493.604299 414.714113 
L 494.00255 414.771945 
L 494.401116 414.829224 
L 494.799952 414.885997 
L 495.199104 414.942238 
L 495.598526 414.99795 
L 512.179188 384.548685 
L 511.859167 384.503978 
L 511.539462 384.458693 
L 511.220072 384.412879 
L 510.900998 384.366465 
L 510.582239 384.319521 
L 510.263841 384.272001 
L 509.945759 384.223905 
L 509.627992 384.175278 
L 509.310586 384.126075 
L 508.993495 384.076318 
L 508.676766 384.026009 
L 508.360397 383.975123 
L 508.044344 383.923706 
L 507.728652 383.871714 
L 507.413367 383.819191 
L 507.098397 383.766092 
L 506.783834 383.712439 
L 506.469632 383.658233 
L 506.155791 383.603473 
L 505.842357 383.548184 
L 505.529284 383.492318 
L 505.216617 383.435898 
L 504.904312 383.378948 
L 504.592459 383.321445 
L 504.280967 383.263389 
L 503.969836 383.204779 
L 503.659157 383.145615 
L 503.348886 383.085921 
L 503.039066 383.025674 
L 502.729608 382.964896 
L 502.420602 382.903542 
L 502.112003 382.841681 
L 501.803857 382.779243 
L 501.496117 382.716297 
L 501.188829 382.652776 
L 500.881994 382.588746 
L 500.575566 382.524164 
L 500.26959 382.459027 
L 499.964112 382.393361 
L 499.659041 382.327163 
L 499.354468 382.260436 
L 499.050348 382.193155 
L 498.746679 382.125343 
L 498.443464 382.057001 
L 498.140746 381.988128 
L 497.838527 381.918725 
L 497.536759 381.848791 
L 497.235491 381.778327 
L 496.934674 381.70731 
L 496.634401 381.635784 
L 496.334581 381.563728 
L 496.035304 381.491142 
L 495.73648 381.418048 
L 495.4382 381.344401 
L 495.140418 381.270246 
L 494.843179 381.19556 
L 494.546439 381.120344 
L 494.250197 381.04462 
L 493.954498 380.968366 
L 493.659344 380.891604 
L 493.364687 380.814312 
L 493.205542 380.772267 
L 493.046488 380.730083 
L 492.88766 380.687738 
L 492.728968 380.645232 
L 492.570412 380.602587 
L 492.412037 380.559804 
L 492.253798 380.516836 
L 492.095741 380.473752 
L 491.937865 380.430508 
L 491.780124 380.387101 
L 491.622565 380.343557 
L 491.465142 380.29985 
L 491.307901 380.256006 
L 491.150795 380.212 
L 490.993916 380.167855 
L 490.837128 380.123572 
L 490.680566 380.079127 
L 490.524141 380.034521 
L 490.367896 379.989776 
L 490.211788 379.944893 
L 490.055861 379.899849 
L 489.900115 379.854666 
L 489.744551 379.809321 
L 489.589123 379.763838 
L 489.433876 379.718217 
L 489.27881 379.672434 
L 489.123926 379.626489 
L 488.969178 379.58043 
L 488.814611 379.534208 
L 488.660272 379.487825 
L 488.506022 379.441327 
L 488.352 379.394667 
L 488.198159 379.347845 
L 488.044454 379.300886 
L 487.89093 379.253787 
L 487.737588 379.20655 
L 487.584473 379.159152 
L 487.431493 379.111615 
L 487.27865 379.06394 
L 487.126033 379.016103 
L 486.973598 378.968127 
L 486.658031 378.869018 
L 486.341783 378.770462 
L 486.024855 378.672483 
L 485.707201 378.575081 
L 485.388867 378.478256 
L 485.069852 378.382008 
L 484.750111 378.286361 
L 484.429736 378.191267 
L 484.10868 378.09675 
L 483.786944 378.002833 
L 483.464573 377.90947 
L 483.141523 377.81673 
L 482.817837 377.724543 
L 482.493471 377.632957 
L 482.168471 377.541948 
L 481.84279 377.451538 
L 481.51652 377.361729 
L 481.18957 377.272496 
L 480.862031 377.183864 
L 480.533858 377.095808 
L 480.205004 377.008352 
L 479.875607 376.921496 
L 479.54553 376.83524 
L 479.214909 376.749584 
L 478.883654 376.664528 
L 478.551764 376.580071 
L 478.219331 376.496192 
L 477.886264 376.412935 
L 477.552607 376.330278 
L 477.218362 376.248244 
L 476.883574 376.166787 
L 476.548196 376.085952 
L 476.21223 376.005718 
L 475.87572 375.926106 
L 475.538622 375.847094 
L 475.20098 375.768682 
L 474.86275 375.690892 
L 474.524022 375.613726 
L 474.184705 375.537159 
L 473.844891 375.461215 
L 473.504488 375.385871 
L 473.163587 375.311149 
L 472.822143 375.237051 
L 472.480201 375.163575 
L 472.137717 375.090721 
L 471.794689 375.018468 
L 471.451209 374.94686 
L 471.107186 374.875852 
L 470.762666 374.80549 
L 470.417648 374.735727 
L 470.072133 374.66661 
L 469.72612 374.598116 
L 469.379655 374.530222 
L 469.032693 374.462996 
L 468.685279 374.39637 
L 468.337368 374.330389 
L 467.988959 374.265031 
L 467.640144 374.200296 
L 467.290831 374.136207 
L 466.941112 374.07274 
L 466.590896 374.009896 
L 466.240274 373.94772 
L 465.889199 373.886144 
L 465.537674 373.825237 
L 465.185741 373.764929 
L 464.833357 373.70529 
L 464.488012 373.647527 
L 464.142261 373.590363 
L 463.796103 373.533799 
L 463.449584 373.47788 
L 463.10266 373.422561 
L 462.755374 373.367864 
L 462.407682 373.313767 
L 462.05963 373.260292 
L 461.711216 373.20744 
L 461.362397 373.155211 
L 461.013262 373.10358 
L 460.663767 373.052572 
L 460.313911 373.00221 
L 459.963695 372.952447 
L 459.613118 372.903307 
L 459.262226 372.854789 
L 458.911018 372.806893 
L 458.559451 372.75962 
L 458.207568 372.712969 
L 457.85537 372.66694 
L 457.502857 372.621534 
L 457.149984 372.576774 
L 456.796841 372.532612 
L 456.443383 372.489096 
L 456.089656 372.44618 
L 455.735614 372.403909 
L 455.381257 372.362283 
L 455.02663 372.321256 
L 454.671735 372.280875 
L 454.316524 372.241117 
L 453.96109 372.20198 
L 453.60534 372.163489 
L 453.249321 372.12562 
L 452.893079 372.088373 
L 452.536567 372.051772 
L 452.179786 372.015793 
L 451.822782 371.980459 
L 451.465507 371.945748 
L 451.10801 371.911682 
L 450.750288 371.878238 
L 450.392298 371.845439 
L 450.034129 371.813263 
L 449.675691 371.781732 
L 449.317075 371.750823 
L 448.958235 371.720559 
L 448.599172 371.690918 
L 448.23993 371.661921 
L 447.880465 371.63357 
L 447.520822 371.605841 
L 447.161001 371.578758 
L 446.800956 371.552319 
L 446.440733 371.526503 
L 446.080378 371.501355 
L 445.719799 371.476806 
L 445.359088 371.452925 
L 444.998199 371.429666 
L 444.637132 371.407052 
L 444.275932 371.385084 
L 443.9146 371.36376 
L 443.55309 371.343059 
L 443.191448 371.323003 
L 442.829673 371.303615 
L 442.467766 371.284826 
L 442.105726 371.266705 
L 441.743555 371.249229 
L 441.38125 371.232375 
L 441.018859 371.216167 
L 440.656336 371.200626 
L 440.293726 371.185707 
L 439.931029 371.171434 
L 439.5682 371.157782 
L 439.205284 371.144799 
L 438.842282 371.13246 
L 438.479238 371.120766 
L 438.116062 371.109695 
L 437.752845 371.099291 
L 437.389541 371.08951 
L 437.02615 371.080373 
L 436.662718 371.071905 
L 436.299246 371.064058 
L 435.935732 371.056856 
L 435.572131 371.050299 
L 435.208489 371.04441 
L 434.844807 371.039143 
L 434.481128 371.034521 
L 434.117409 371.030544 
L 433.753648 371.027212 
L 433.389847 371.024525 
L 433.02605 371.022482 
L 432.662257 371.021085 
L 432.298424 371.020332 
L 431.93464 371.020247 
L 431.570816 371.020784 
L 431.206996 371.021966 
L 430.84318 371.023793 
L 430.479415 371.026264 
L 430.115654 371.02938 
L 429.751898 371.033142 
L 429.388192 371.037548 
L 429.024536 371.042598 
L 428.660885 371.048294 
L 428.297284 371.054634 
L 427.933732 371.061596 
L 427.570232 371.069226 
L 427.206781 371.077501 
L 426.84338 371.08642 
L 426.482356 371.095911 
L 426.121428 371.106023 
L 425.760595 371.116804 
L 425.399812 371.128183 
L 425.03908 371.140229 
L 424.678488 371.152875 
L 424.317947 371.166188 
L 423.957502 371.180122 
L 423.597152 371.194702 
L 423.236944 371.209903 
L 422.876785 371.225725 
L 422.516769 371.242216 
L 422.156893 371.259305 
L 421.797113 371.277061 
L 421.437475 371.295416 
L 421.077932 371.314439 
L 420.71853 371.334084 
L 420.35927 371.35435 
L 420.000151 371.37526 
L 419.641219 371.396792 
L 419.282383 371.418946 
L 418.923734 371.441767 
L 418.565226 371.465187 
L 418.206905 371.489252 
L 417.848725 371.513937 
L 417.490733 371.539268 
L 417.132927 371.56522 
L 416.775308 371.591816 
L 416.417831 371.619034 
L 416.060586 371.646874 
L 415.703528 371.675335 
L 415.346657 371.70444 
L 414.989973 371.734167 
L 414.633521 371.764515 
L 414.277302 371.795508 
L 413.92127 371.827122 
L 413.56547 371.859358 
L 413.209858 371.892215 
L 412.854523 371.925716 
L 412.499421 371.959839 
L 412.144506 371.994561 
L 411.789869 372.029926 
L 411.43551 372.065913 
L 411.081339 372.102545 
L 410.727491 372.139775 
L 410.373829 372.177626 
L 410.020492 372.216121 
L 409.667387 372.255215 
L 409.31456 372.294954 
L 408.962012 372.33529 
L 408.609741 372.376248 
L 408.257794 372.41785 
L 407.90608 372.460051 
L 407.554689 372.502872 
L 407.203623 372.546315 
L 406.852788 372.59038 
L 406.502323 372.635065 
L 406.152137 372.680372 
L 405.802273 372.726277 
L 405.452734 372.772804 
L 405.103518 372.819951 
L 404.754626 372.867697 
L 404.406058 372.916087 
L 404.057859 372.965052 
L 403.709984 373.014662 
L 403.362432 373.064869 
L 403.01525 373.115698 
L 402.668391 373.167125 
L 402.321902 373.219173 
L 401.975828 373.271819 
L 401.630077 373.325087 
L 401.284696 373.378952 
L 400.939684 373.433439 
L 400.595041 373.488524 
L 400.250813 373.544207 
L 399.906955 373.600511 
L 399.563465 373.657413 
L 399.220391 373.714937 
L 398.877731 373.773035 
L 398.535487 373.831754 
L 398.193611 373.891072 
L 392.073073 374.958892 
L 366.635728 379.397194 
L 341.198486 383.836165 
L 325.209104 386.622466 
L 325.115763 379.200407 
L 325.098045 291.867025 
L 257.539063 291.851753 
L 185.858776 291.82664 
L 185.823557 261.954681 
L 185.836579 221.231604 
L 185.834624 220.961702 
L 190.005834 220.961837 
L 258.215318 220.967342 
L 325.044158 220.976813 
L 325.012436 179.388153 
L 325.00012 163.253491 
L 334.177966 163.254802 
L 334.227848 198.721957 
L 334.313791 210.7957 
" style="stroke:#ffffff;stroke-linejoin:miter;stroke-width:2;"/>
   </g>
  </g>
 </g>
 <defs>
  <clipPath id="p070a03fe1c">
   <rect height="543.6" width="558" x="90" y="86.4"/>
  </clipPath>
 </defs>
</svg>
