<?xml version="1.0" encoding="utf-8" standalone="no"?>
<!DOCTYPE svg PUBLIC "-//W3C//DTD SVG 1.1//EN"
  "http://www.w3.org/Graphics/SVG/1.1/DTD/svg11.dtd">
<!-- Created with matplotlib (https://matplotlib.org/) -->
<svg height="720pt" version="1.1" viewBox="0 0 720 720" width="720pt" xmlns="http://www.w3.org/2000/svg" xmlns:xlink="http://www.w3.org/1999/xlink">
 <metadata>
  <rdf:RDF xmlns:cc="http://creativecommons.org/ns#" xmlns:dc="http://purl.org/dc/elements/1.1/" xmlns:rdf="http://www.w3.org/1999/02/22-rdf-syntax-ns#">
   <cc:Work>
    <dc:type rdf:resource="http://purl.org/dc/dcmitype/StillImage"/>
    <dc:date>2021-05-07T11:03:02.572523</dc:date>
    <dc:format>image/svg+xml</dc:format>
    <dc:creator>
     <cc:Agent>
      <dc:title>Matplotlib v3.3.3, https://matplotlib.org/</dc:title>
     </cc:Agent>
    </dc:creator>
   </cc:Work>
  </rdf:RDF>
 </metadata>
 <defs>
  <style type="text/css">*{stroke-linecap:butt;stroke-linejoin:round;}</style>
 </defs>
 <g id="figure_1">
  <g id="patch_1">
   <path d="M 0 720 
L 720 720 
L 720 0 
L 0 0 
z
" style="fill:none;"/>
  </g>
  <g id="axes_1">
   <g id="patch_2">
    <path clip-path="url(#p0412592575)" d="M 233.635203 226.606921 
L 234.617308 227.047177 
L 235.783571 226.674495 
L 236.933396 226.41029 
L 238.189835 226.325392 
L 239.328116 226.673692 
L 240.48539 227.220118 
L 241.731357 227.855479 
L 242.923274 228.347294 
L 244.010122 228.804454 
L 245.098793 229.459397 
L 246.294056 230.311691 
L 247.419249 231.092439 
L 248.507562 231.729308 
L 249.543714 232.366962 
L 250.685658 233.093822 
L 251.756799 233.731061 
L 252.705346 234.315579 
L 253.916652 235.041326 
L 255.075032 235.659715 
L 256.356018 236.348938 
L 257.461074 236.877691 
L 258.708898 237.729245 
L 260.078229 238.507691 
L 261.167996 239.270787 
L 262.205224 240.034598 
L 262.874189 240.586014 
L 263.806348 241.314778 
L 265.017988 242.040568 
L 266.298618 242.675567 
L 267.455849 243.185856 
L 268.650724 244.002012 
L 269.652917 244.712366 
L 270.776608 245.385022 
L 271.935002 246.039222 
L 273.251724 246.782307 
L 274.550978 247.543094 
L 275.604222 248.144561 
L 276.657867 248.782218 
L 277.990992 249.416797 
L 279.131465 250.035215 
L 280.343496 250.79717 
L 281.626719 251.720313 
L 282.786519 252.482982 
L 283.91316 253.461928 
L 285.199291 254.673243 
L 286.556648 256.046172 
L 287.824908 257.239779 
L 288.83361 258.097556 
L 288.93404 258.182941 
L 290.270138 259.159929 
L 291.288712 259.797585 
L 292.446696 260.379845 
L 293.586397 260.89052 
L 294.916596 261.236979 
L 295.301588 261.322829 
L 296.42229 261.671569 
L 297.595955 262.091482 
L 298.753555 262.619869 
L 299.824675 263.275215 
L 300.913306 263.930548 
L 302.072033 264.602881 
L 303.14423 265.330182 
L 304.251119 266.075181 
L 305.304745 266.71282 
L 306.514143 267.222389 
L 307.723919 267.732313 
L 308.722751 268.136055 
L 309.793518 268.737566 
L 310.847842 269.447127 
L 311.866391 270.066753 
L 313.110857 270.594379 
L 314.250153 271.032759 
L 315.442069 271.542701 
L 316.668226 271.962234 
L 317.876893 272.364094 
L 318.962226 272.677039 
L 320.136188 273.096967 
L 321.171901 273.716551 
L 322.418923 274.478121 
L 323.507528 275.115392 
L 324.526852 275.825376 
L 325.66913 276.623886 
L 327.041334 277.726388 
L 328.183586 278.489065 
L 329.410885 279.034792 
L 330.749885 280.29959 
L 331.828 281.693631 
L 333.078344 282.81533 
L 334.450182 283.899691 
L 335.663247 284.787834 
L 336.77049 285.532819 
L 337.824058 286.170478 
L 338.877305 286.789671 
L 340.052746 287.390028 
L 342.285956 289.011208 
L 342.514257 289.201707 
L 343.816414 290.286834 
L 344.923995 291.08609 
L 346.208614 292.135466 
L 347.545757 293.220217 
L 348.777067 294.198033 
L 350.025923 295.175802 
L 351.204683 296.136289 
L 352.491486 297.437649 
L 353.742919 298.685548 
L 354.905252 299.736434 
L 356.102986 300.840784 
L 357.475153 301.94324 
L 358.739665 302.722546 
L 359.862209 303.269431 
L 361.072681 303.905188 
L 362.230581 304.487495 
L 363.425029 305.249839 
L 364.671989 306.029481 
L 365.971164 306.790338 
L 367.008298 307.536099 
L 368.307804 308.333111 
L 369.675568 308.967347 
L 371.010875 309.854368 
L 372.206381 310.724471 
L 373.541284 311.575304 
L 374.682064 312.193786 
L 375.71847 312.885322 
L 376.774609 313.775019 
L 377.882906 314.664292 
L 379.043382 315.534779 
L 380.150244 316.279792 
L 381.39719 317.059481 
L 382.607302 317.641377 
L 383.835978 318.312972 
L 384.905959 318.842541 
L 386.259106 319.783048 
L 387.330916 320.492289 
L 388.651601 321.685581 
L 389.937627 322.915052 
L 391.204686 323.964793 
L 392.453831 324.978428 
L 393.717579 325.685771 
L 394.541196 326.0195 
L 395.766235 326.330946 
L 396.90439 326.679351 
L 398.045152 327.298202 
L 399.341323 327.752803 
L 400.51601 328.26317 
L 401.884869 329.04134 
L 403.255124 329.90993 
L 404.626508 330.940471 
L 405.946466 332.043391 
L 407.25003 333.29094 
L 408.500635 334.46689 
L 409.503444 335.285008 
L 410.644929 335.975467 
L 411.876177 336.953683 
L 413.001623 337.806459 
L 414.160959 338.551139 
L 415.407544 339.294664 
L 416.760295 340.199431 
L 418.044095 341.158796 
L 419.362551 342.135542 
L 420.433604 342.77324 
L 421.731222 343.372119 
L 422.854088 343.954809 
L 423.873929 344.513996 
L 424.047354 344.609088 
L 425.135916 345.246069 
L 426.171907 345.883759 
L 427.296599 346.646868 
L 428.438434 347.427369 
L 429.774404 348.368312 
L 431.094687 349.543524 
L 432.362445 350.683362 
L 433.573946 351.4092 
L 434.661758 351.956156 
L 435.907241 352.61002 
L 437.029675 353.120447 
L 438.152884 353.775491 
L 439.504529 354.535979 
L 440.558798 355.263696 
L 441.491513 356.046469 
L 442.86288 357.058998 
L 444.038973 357.731345 
L 445.09471 358.621049 
L 446.20257 359.456171 
L 447.239631 360.183903 
L 448.363961 360.947061 
L 449.715597 361.707557 
L 450.840245 362.488439 
L 452.020404 363.592903 
L 453.201278 364.805793 
L 454.364641 365.964465 
L 455.542571 366.85307 
L 456.717946 367.43504 
L 457.875786 368.035488 
L 459.050806 368.599737 
L 459.998829 369.166648 
L 461.069112 369.713951 
L 462.122269 370.333256 
L 463.314387 370.843265 
L 464.348905 371.300952 
L 465.507856 372.045632 
L 466.685049 372.80806 
L 467.98337 373.497005 
L 469.035771 374.00856 
L 470.314415 374.463615 
L 471.313132 374.831616 
L 472.574263 375.287038 
L 473.782463 375.652783 
L 475.042808 376.000099 
L 476.148136 376.600912 
L 476.954194 376.916969 
L 477.971568 377.42887 
L 479.199086 378.010504 
L 480.198198 378.41431 
L 481.407498 378.90628 
L 482.633192 379.307819 
L 483.946112 379.672832 
L 485.049946 380.075512 
L 486.383664 380.836438 
L 487.541499 381.400752 
L 488.698625 381.929233 
L 489.943284 382.474709 
L 491.048958 383.093963 
L 492.119962 383.731352 
L 493.295655 384.367578 
L 494.522845 384.931146 
L 495.189502 385.266756 
L 496.365582 385.921097 
L 497.505511 386.467671 
L 498.750198 387.013153 
L 500.082826 387.629793 
L 501.430073 388.173655 
L 502.536038 388.595273 
L 503.710667 389.123434 
L 504.394853 389.494837 
L 505.622742 390.094566 
L 506.763075 390.695023 
L 508.125934 390.807299 
L 509.248379 391.353927 
L 510.389074 391.990895 
L 511.355662 392.64711 
L 512.373018 393.159067 
L 513.600151 393.704926 
L 514.879487 394.214209 
L 516.177071 394.81316 
L 517.370679 395.521381 
L 518.618604 396.409278 
L 519.655296 397.118978 
L 520.760553 397.702097 
L 522.129289 398.444244 
L 523.345151 399.656843 
L 524.475219 401.014076 
L 525.69034 402.136256 
L 526.935702 402.754067 
L 528.062517 403.768938 
L 529.139343 405.036883 
L 530.217224 406.412618 
L 531.327615 407.536318 
L 532.701414 408.819012 
L 533.899014 409.941598 
L 535.096613 411.063795 
L 536.117925 411.99012 
L 537.381922 412.733759 
L 538.521459 413.244242 
L 539.873402 414.076798 
L 541.16962 414.729007 
L 542.242659 415.385531 
L 543.014746 415.792024 
L 544.102154 416.357128 
L 545.471583 417.153524 
L 546.560035 417.809014 
L 547.663832 418.211734 
L 548.854498 418.614121 
L 550.049157 419.41236 
L 550.549043 420.595978 
L 551.412361 421.451868 
L 552.604446 421.943898 
L 553.156156 423.090942 
L 553.21963 424.261311 
L 553.422514 425.447902 
L 575.769968 438.619983 
L 574.552336 439.119003 
L 573.236192 440.249362 
L 572.026525 441.576383 
L 570.816577 442.886001 
L 569.533621 443.85365 
L 568.334956 444.496572 
L 567.224953 445.282289 
L 565.904773 445.980577 
L 565.469487 446.128954 
L 564.320434 446.44717 
L 563.081652 446.549932 
L 561.935885 447.227919 
L 560.830987 448.554143 
L 559.691466 449.916931 
L 558.742391 451.133576 
L 557.60173 452.352104 
L 556.509993 453.245925 
L 555.282508 454.537487 
L 554.195502 455.917618 
L 553.788277 457.146745 
L 553.309887 458.268479 
L 552.639975 459.44601 
L 551.884282 460.786958 
L 551.178943 461.910952 
L 550.528732 463.322376 
L 549.945999 464.499467 
L 549.258561 465.641209 
L 548.518204 466.765544 
L 547.864312 467.781082 
L 547.177996 469.085093 
L 546.613503 470.333809 
L 546.10084 471.49172 
L 545.552407 472.596129 
L 544.620117 473.704344 
L 543.510923 474.598503 
L 542.659331 475.724359 
L 542.092704 476.828425 
L 541.648341 477.931392 
L 540.892339 479.307437 
L 540.082002 480.521883 
L 539.256005 481.916401 
L 538.637194 483.020854 
L 537.793655 484.415738 
L 537.035126 485.557847 
L 536.400305 486.82465 
L 536.043112 487.90839 
L 535.530894 489.228325 
L 534.771995 490.316203 
L 533.647884 491.587516 
L 532.871487 492.693482 
L 532.411804 494.012677 
L 532.037104 495.096784 
L 531.663166 496.253199 
L 531.203868 497.644348 
L 530.743426 498.891554 
L 530.124282 499.996011 
L 529.76826 500.645582 
L 529.041785 501.987551 
L 528.442708 503.362125 
L 528.06842 504.500109 
L 527.572623 505.693815 
L 527.006013 506.797568 
L 526.040267 508.193594 
L 525.386123 509.262628 
L 524.82098 510.52872 
L 524.670893 510.930123 
L 524.496637 511.396263 
L 524.395497 511.713914 
L 521.319387 510.71046 
L 512.089742 507.961542 
L 507.510399 506.687479 
L 500.12312 504.803894 
L 495.838252 503.902248 
L 493.455417 503.433642 
L 491.75113 503.09839 
L 488.560931 502.62625 
L 483.828687 502.087871 
L 479.013324 501.55693 
L 474.653218 501.248101 
L 469.427459 500.953689 
L 432.344565 499.249445 
L 383.825438 497.008502 
L 343.877592 495.101583 
L 277.642997 492.008228 
L 238.306984 490.167748 
L 213.019103 489.011586 
L 213.16835 483.664007 
L 213.831063 468.228811 
L 219.865069 316.602563 
L 219.9394 313.434969 
L 221.555966 278.389453 
L 221.577974 276.923772 
L 200.960283 276.187034 
L 162.230032 274.408678 
L 162.945112 261.925817 
L 163.114811 252.165953 
L 163.755277 240.392768 
L 164.924725 229.001187 
L 171.609329 204.686086 
L 172.387618 204.894375 
L 173.545283 205.458477 
L 174.60008 206.222221 
L 175.790554 206.533928 
L 177.068632 206.898734 
L 178.311651 207.263959 
L 179.468558 207.738035 
L 180.556916 208.339061 
L 181.643757 208.796181 
L 182.957256 209.232598 
L 184.130933 209.63471 
L 185.409379 210.035676 
L 186.722466 210.382065 
L 187.877902 210.730317 
L 189.016188 211.060507 
L 190.119427 211.409156 
L 191.25774 211.775537 
L 192.449668 212.249594 
L 193.255846 212.565163 
L 194.498891 212.930364 
L 195.707624 213.332102 
L 196.984549 213.588851 
L 198.296857 213.86326 
L 199.34724 214.158435 
L 200.555579 214.542134 
L 201.745639 214.81806 
L 202.90072 215.112092 
L 204.126605 215.49539 
L 205.037515 215.810173 
L 206.211217 216.212336 
L 207.349489 216.578692 
L 208.627542 216.925444 
L 209.765813 217.291801 
L 210.904831 217.694313 
L 212.165731 218.113426 
L 213.426269 218.46055 
L 214.668888 218.771534 
L 215.981237 219.064069 
L 217.101275 219.340769 
L 218.362515 219.75985 
L 219.465792 220.126631 
L 220.638319 220.384507 
L 221.845192 220.605848 
L 223.07031 220.935319 
L 224.103494 221.248954 
L 225.417687 221.721522 
L 226.607778 222.051377 
L 227.815388 222.344676 
L 228.899966 222.549457 
L 230.074029 222.987754 
L 231.388211 223.496126 
L 232.545129 223.970628 
L 233.221562 225.332271 
L 233.635203 226.606921 
" style="stroke:#ffffff;stroke-linejoin:miter;stroke-width:2;"/>
   </g>
  </g>
 </g>
 <defs>
  <clipPath id="p0412592575">
   <rect height="543.6" width="558" x="90" y="86.4"/>
  </clipPath>
 </defs>
</svg>
