<?xml version="1.0" encoding="utf-8" standalone="no"?>
<!DOCTYPE svg PUBLIC "-//W3C//DTD SVG 1.1//EN"
  "http://www.w3.org/Graphics/SVG/1.1/DTD/svg11.dtd">
<!-- Created with matplotlib (https://matplotlib.org/) -->
<svg height="720pt" version="1.1" viewBox="0 0 720 720" width="720pt" xmlns="http://www.w3.org/2000/svg" xmlns:xlink="http://www.w3.org/1999/xlink">
 <metadata>
  <rdf:RDF xmlns:cc="http://creativecommons.org/ns#" xmlns:dc="http://purl.org/dc/elements/1.1/" xmlns:rdf="http://www.w3.org/1999/02/22-rdf-syntax-ns#">
   <cc:Work>
    <dc:type rdf:resource="http://purl.org/dc/dcmitype/StillImage"/>
    <dc:date>2021-05-07T11:03:03.791378</dc:date>
    <dc:format>image/svg+xml</dc:format>
    <dc:creator>
     <cc:Agent>
      <dc:title>Matplotlib v3.3.3, https://matplotlib.org/</dc:title>
     </cc:Agent>
    </dc:creator>
   </cc:Work>
  </rdf:RDF>
 </metadata>
 <defs>
  <style type="text/css">*{stroke-linecap:butt;stroke-linejoin:round;}</style>
 </defs>
 <g id="figure_1">
  <g id="patch_1">
   <path d="M 0 720 
L 720 720 
L 720 0 
L 0 0 
z
" style="fill:none;"/>
  </g>
  <g id="axes_1">
   <g id="patch_2">
    <path clip-path="url(#p15398d398b)" d="M 478.962666 231.23705 
L 487.610928 231.282256 
L 496.394434 230.94444 
L 504.223546 230.162154 
L 514.315177 228.737153 
L 523.572171 227.058808 
L 533.712435 224.549343 
L 540.381535 222.74901 
L 548.887145 220.051708 
L 559.318059 240.44691 
L 569.888109 255.490038 
L 570.063318 255.849118 
L 571.137637 257.927769 
L 572.899359 261.387102 
L 577.037247 269.177988 
L 578.649042 272.450104 
L 580.384367 275.799051 
L 582.740348 280.726632 
L 583.16924 281.601305 
L 584.931251 285.423364 
L 586.998282 289.927666 
L 589.396611 295.394664 
L 591.369437 300.061084 
L 592.941602 304.026922 
L 594.390218 307.915952 
L 595.466638 310.957997 
L 596.584973 314.346777 
L 597.579206 317.427534 
L 598.781676 321.62537 
L 599.771957 325.327271 
L 600.353013 327.59965 
L 601.390866 331.759303 
L 602.18033 335.225825 
L 602.929576 339.077772 
L 603.429253 341.735662 
L 604.221413 346.358225 
L 604.933168 351.79018 
L 605.517358 355.915446 
L 605.77057 358.689446 
L 606.065856 361.887225 
L 606.196574 365.046817 
L 606.32729 368.206409 
L 606.419117 372.329436 
L 606.385964 375.759098 
L 606.352184 378.919025 
L 606.236774 382.348855 
L 606.080088 385.936365 
L 605.959213 387.015592 
L 605.68247 391.794468 
L 605.202063 397.421509 
L 604.597313 402.624938 
L 603.829494 408.445256 
L 602.824682 414.503037 
L 602.337481 417.201447 
L 601.525258 421.596076 
L 600.670659 425.451283 
L 599.449134 430.655977 
L 598.103614 435.591154 
L 596.63518 440.719273 
L 595.210153 445.079772 
L 594.67907 446.583707 
L 593.739406 449.205985 
L 592.268691 453.332217 
L 590.55187 457.728693 
L 588.589076 462.433955 
L 586.666884 466.907925 
L 585.030392 470.456476 
L 583.193755 474.242106 
L 581.679011 477.096792 
L 579.263592 481.648856 
L 576.397608 486.972505 
L 574.719965 490.521139 
L 571.115578 496.578473 
L 568.207103 501.285676 
L 565.410451 505.419202 
L 556.403757 515.378485 
L 517.024952 568.133405 
L 479.829186 530.292992 
L 473.949235 525.150674 
L 468.777994 521.213325 
L 461.458939 516.173687 
L 454.776122 512.682815 
L 447.801261 509.742495 
L 439.653046 506.873531 
L 423.136784 501.273735 
L 410.220765 498.278058 
L 398.627283 496.241831 
L 387.624374 495.716558 
L 376.62251 495.603766 
L 364.230445 496.731454 
L 353.381318 498.955487 
L 340.333408 501.734517 
L 324.061347 505.620851 
L 311.158476 507.712562 
L 299.131773 508.290274 
L 287.248468 507.630576 
L 275.803002 506.145183 
L 263.54643 503.012219 
L 252.535004 499.326596 
L 241.960952 494.677782 
L 223.595858 483.999138 
L 207.614937 473.624367 
L 131.580883 425.702471 
L 168.399245 374.594332 
L 242.067102 272.355037 
L 248.226278 263.511444 
L 251.982857 257.51845 
L 254.798954 252.508711 
L 258.03057 246.12459 
L 260.530994 240.6251 
L 262.715989 234.733953 
L 266.251334 224.32706 
L 273.424441 202.532033 
L 277.378203 191.731795 
L 281.129229 183.482631 
L 286.031387 174.544091 
L 291.145593 166.487997 
L 297.516558 158.036585 
L 305.573195 148.266595 
L 305.75454 148.40666 
L 316.493472 156.191158 
L 324.747692 161.531119 
L 373.10583 196.206039 
L 382.294412 202.071124 
L 390.683582 207.219891 
L 402.513876 213.286114 
L 413.421415 218.046672 
L 423.201665 221.406311 
L 430.42561 223.68708 
L 441.464467 226.597522 
L 451.888822 228.871449 
L 461.731858 230.189779 
L 469.836949 230.873971 
L 478.962666 231.23705 
" style="stroke:#ffffff;stroke-linejoin:miter;stroke-width:2;"/>
   </g>
  </g>
 </g>
 <defs>
  <clipPath id="p15398d398b">
   <rect height="543.6" width="558" x="90" y="86.4"/>
  </clipPath>
 </defs>
</svg>
