<?xml version="1.0" encoding="utf-8" standalone="no"?>
<!DOCTYPE svg PUBLIC "-//W3C//DTD SVG 1.1//EN"
  "http://www.w3.org/Graphics/SVG/1.1/DTD/svg11.dtd">
<!-- Created with matplotlib (https://matplotlib.org/) -->
<svg height="720pt" version="1.1" viewBox="0 0 720 720" width="720pt" xmlns="http://www.w3.org/2000/svg" xmlns:xlink="http://www.w3.org/1999/xlink">
 <metadata>
  <rdf:RDF xmlns:cc="http://creativecommons.org/ns#" xmlns:dc="http://purl.org/dc/elements/1.1/" xmlns:rdf="http://www.w3.org/1999/02/22-rdf-syntax-ns#">
   <cc:Work>
    <dc:type rdf:resource="http://purl.org/dc/dcmitype/StillImage"/>
    <dc:date>2021-05-28T08:56:49.408523</dc:date>
    <dc:format>image/svg+xml</dc:format>
    <dc:creator>
     <cc:Agent>
      <dc:title>Matplotlib v3.3.3, https://matplotlib.org/</dc:title>
     </cc:Agent>
    </dc:creator>
   </cc:Work>
  </rdf:RDF>
 </metadata>
 <defs>
  <style type="text/css">*{stroke-linecap:butt;stroke-linejoin:round;}</style>
 </defs>
 <g id="figure_1">
  <g id="patch_1">
   <path d="M 0 720 
L 720 720 
L 720 0 
L 0 0 
z
" style="fill:none;"/>
  </g>
  <g id="axes_1">
   <g id="patch_2">
    <path clip-path="url(#p1f973498de)" d="M 522.432146 163.496751 
L 522.436229 166.554791 
L 528.778004 175.198431 
L 529.095922 179.189428 
L 532.035137 183.568802 
L 534.053677 188.524184 
L 535.979263 195.167501 
L 538.466579 205.216736 
L 540.418125 213.634294 
L 541.125431 215.128766 
L 543.760634 221.692858 
L 546.410717 233.871976 
L 547.266875 242.2802 
L 548.358836 247.64336 
L 552.668134 251.287427 
L 559.422705 247.761599 
L 563.971072 247.012811 
L 567.041363 246.503924 
L 570.660136 248.899048 
L 572.140057 255.104641 
L 572.126312 262.155417 
L 571.277779 265.447575 
L 567.217261 266.457403 
L 562.62676 269.895252 
L 560.115162 274.893564 
L 559.116346 278.563958 
L 559.06876 283.162784 
L 559.047132 285.251924 
L 559.04151 285.79792 
L 559.019772 294.24724 
L 559.065564 310.729567 
L 560.292285 314.351942 
L 563.48725 335.219623 
L 564.407347 341.973821 
L 568.485283 342.828598 
L 570.465949 345.701694 
L 571.795568 347.630409 
L 571.802634 347.640642 
L 571.898763 347.780085 
L 574.899543 352.132886 
L 580.407133 365.321095 
L 577.252185 373.418323 
L 577.242042 373.415905 
L 577.241185 373.418118 
L 573.602689 372.548884 
L 570.885036 378.563815 
L 572.35831 384.19263 
L 577.587563 384.85409 
L 580.237406 392.354323 
L 580.1173 398.749641 
L 584.894302 399.628461 
L 584.657463 402.812992 
L 583.325173 404.91742 
L 579.02654 406.667445 
L 579.237014 409.987188 
L 582.14706 413.075459 
L 584.682902 414.649603 
L 585.572881 417.456202 
L 586.055689 420.09012 
L 586.200778 422.014041 
L 586.184411 422.014147 
L 586.185357 422.026765 
L 582.071704 422.043412 
L 582.065688 457.750323 
L 582.065573 458.439671 
L 582.041711 493.364307 
L 582.053605 502.625687 
L 598.402755 530.629001 
L 601.266529 535.528091 
L 601.26288 535.528099 
L 611.197032 552.54464 
L 476.148694 552.851119 
L 474.69844 549.371239 
L 473.964 547.271932 
L 471.132276 547.267896 
L 373.187136 547.675244 
L 373.18742 553.142451 
L 278.23409 552.836012 
L 240.897688 552.719116 
L 240.169695 552.716852 
L 238.385534 543.185364 
L 236.577515 533.526588 
L 235.166631 527.098053 
L 233.755749 520.669521 
L 233.355987 518.675155 
L 233.094558 517.37089 
L 231.828108 511.052515 
L 230.561644 504.734121 
L 229.295148 498.415751 
L 228.028675 492.097385 
L 227.875699 491.348575 
L 227.621174 490.102698 
L 227.33032 488.856783 
L 225.506848 481.045863 
L 223.333108 473.082892 
L 220.877729 465.758182 
L 218.191942 458.769392 
L 215.736257 452.822155 
L 214.381451 449.953701 
L 212.804288 446.614496 
L 209.872254 440.406873 
L 206.220847 432.743857 
L 201.699965 423.13574 
L 198.664387 416.037863 
L 195.628737 408.939978 
L 192.226343 400.439258 
L 188.8239 391.938578 
L 185.997117 384.076372 
L 183.170313 376.214179 
L 182.267148 373.477828 
L 181.204281 370.257686 
L 181.085434 369.897591 
L 179.000533 363.581011 
L 176.077843 354.014931 
L 173.155123 344.448864 
L 170.948646 337.770012 
L 168.742127 331.091169 
L 167.761967 328.530316 
L 166.131529 324.270452 
L 164.110613 319.177047 
L 162.089697 314.083648 
L 160.068729 308.990255 
L 158.047778 303.896868 
L 154.721306 294.905138 
L 152.943171 289.378221 
L 151.165001 283.851309 
L 149.539723 278.187281 
L 147.914394 272.523304 
L 146.289067 266.859284 
L 144.663724 261.195292 
L 143.038366 255.531304 
L 141.412992 249.86732 
L 139.787603 244.203316 
L 138.162198 238.539363 
L 136.53676 232.875369 
L 134.911324 227.211378 
L 133.02504 219.948122 
L 129.02358 206.620442 
L 127.839572 198.937435 
L 126.802968 186.027273 
L 126.920253 166.340013 
L 178.395524 166.60792 
L 235.550099 166.340559 
L 273.612758 165.723265 
L 275.840188 165.715175 
L 276.585304 165.675148 
L 297.00541 165.34493 
L 371.495904 164.344859 
L 447.419303 163.417555 
L 502.693048 163.257549 
L 504.208873 163.2759 
L 522.432146 163.496751 
" style="fill:#1a1a1a;stroke:#ffffff;stroke-linejoin:miter;stroke-width:4;"/>
   </g>
  </g>
 </g>
 <defs>
  <clipPath id="p1f973498de">
   <rect height="543.6" width="558" x="90" y="86.4"/>
  </clipPath>
 </defs>
</svg>
