<?xml version="1.0" encoding="utf-8" standalone="no"?>
<!DOCTYPE svg PUBLIC "-//W3C//DTD SVG 1.1//EN"
  "http://www.w3.org/Graphics/SVG/1.1/DTD/svg11.dtd">
<!-- Created with matplotlib (https://matplotlib.org/) -->
<svg height="720pt" version="1.1" viewBox="0 0 720 720" width="720pt" xmlns="http://www.w3.org/2000/svg" xmlns:xlink="http://www.w3.org/1999/xlink">
 <metadata>
  <rdf:RDF xmlns:cc="http://creativecommons.org/ns#" xmlns:dc="http://purl.org/dc/elements/1.1/" xmlns:rdf="http://www.w3.org/1999/02/22-rdf-syntax-ns#">
   <cc:Work>
    <dc:type rdf:resource="http://purl.org/dc/dcmitype/StillImage"/>
    <dc:date>2021-05-07T11:03:05.289849</dc:date>
    <dc:format>image/svg+xml</dc:format>
    <dc:creator>
     <cc:Agent>
      <dc:title>Matplotlib v3.3.3, https://matplotlib.org/</dc:title>
     </cc:Agent>
    </dc:creator>
   </cc:Work>
  </rdf:RDF>
 </metadata>
 <defs>
  <style type="text/css">*{stroke-linecap:butt;stroke-linejoin:round;}</style>
 </defs>
 <g id="figure_1">
  <g id="patch_1">
   <path d="M 0 720 
L 720 720 
L 720 0 
L 0 0 
z
" style="fill:none;"/>
  </g>
  <g id="axes_1">
   <g id="patch_2">
    <path clip-path="url(#p43d6c955bc)" d="M 542.362211 166.065784 
L 538.993329 167.951656 
L 533.821543 171.133358 
L 527.363699 175.427028 
L 521.165923 179.955389 
L 515.615375 184.408666 
L 508.054664 191.5003 
L 504.122537 195.712499 
L 500.681202 199.911066 
L 497.952962 203.596929 
L 494.793325 208.475591 
L 491.212633 215.507208 
L 489.104837 220.973979 
L 487.718438 225.7872 
L 485.456774 236.818751 
L 484.434821 242.455734 
L 450.645679 424.438097 
L 442.46178 468.629823 
L 427.178388 550.898701 
L 373.711156 550.985043 
L 351.119541 550.979796 
L 333.719143 550.988008 
L 325.58173 551.002063 
L 308.985661 551.048686 
L 300.011103 551.046087 
L 195.695751 550.793076 
L 195.637789 522.636586 
L 197.019692 516.846777 
L 200.073369 510.661462 
L 204.957161 503.750534 
L 258.0781 439.337141 
L 328.670676 357.591571 
L 331.386648 354.562457 
L 333.722873 351.263258 
L 338.589388 344.093616 
L 343.259285 336.131763 
L 346.83792 329.202202 
L 372.132316 290.156858 
L 396.660857 249.972071 
L 421.891169 209.41998 
L 448.112746 166.735669 
L 452.741737 166.9474 
L 480.242615 166.002222 
L 500.660491 165.600718 
L 509.723437 165.351314 
L 523.652688 165.506462 
L 542.362211 166.065784 
" style="stroke:#ffffff;stroke-linejoin:miter;stroke-width:2;"/>
   </g>
  </g>
 </g>
 <defs>
  <clipPath id="p43d6c955bc">
   <rect height="543.6" width="558" x="90" y="86.4"/>
  </clipPath>
 </defs>
</svg>
