<?xml version="1.0" encoding="utf-8" standalone="no"?>
<!DOCTYPE svg PUBLIC "-//W3C//DTD SVG 1.1//EN"
  "http://www.w3.org/Graphics/SVG/1.1/DTD/svg11.dtd">
<!-- Created with matplotlib (https://matplotlib.org/) -->
<svg height="720pt" version="1.1" viewBox="0 0 720 720" width="720pt" xmlns="http://www.w3.org/2000/svg" xmlns:xlink="http://www.w3.org/1999/xlink">
 <metadata>
  <rdf:RDF xmlns:cc="http://creativecommons.org/ns#" xmlns:dc="http://purl.org/dc/elements/1.1/" xmlns:rdf="http://www.w3.org/1999/02/22-rdf-syntax-ns#">
   <cc:Work>
    <dc:type rdf:resource="http://purl.org/dc/dcmitype/StillImage"/>
    <dc:date>2021-05-07T11:03:03.495633</dc:date>
    <dc:format>image/svg+xml</dc:format>
    <dc:creator>
     <cc:Agent>
      <dc:title>Matplotlib v3.3.3, https://matplotlib.org/</dc:title>
     </cc:Agent>
    </dc:creator>
   </cc:Work>
  </rdf:RDF>
 </metadata>
 <defs>
  <style type="text/css">*{stroke-linecap:butt;stroke-linejoin:round;}</style>
 </defs>
 <g id="figure_1">
  <g id="patch_1">
   <path d="M 0 720 
L 720 720 
L 720 0 
L 0 0 
z
" style="fill:none;"/>
  </g>
  <g id="axes_1">
   <g id="patch_2">
    <path clip-path="url(#p164d6e7281)" d="M 341.368941 124.477835 
L 341.9108 124.819422 
L 342.399344 125.121461 
L 343.141634 125.542849 
L 343.77942 125.87875 
L 344.406105 126.230573 
L 345.836373 127.073254 
L 346.450756 127.345704 
L 346.626771 127.478539 
L 347.651059 128.501495 
L 348.126588 128.792438 
L 348.795398 129.33767 
L 349.393482 129.786058 
L 350.431034 130.480564 
L 351.513038 131.183315 
L 351.873384 131.355693 
L 352.778483 131.608582 
L 353.295406 131.923183 
L 353.973175 132.335535 
L 354.431269 132.665895 
L 355.039577 133.061689 
L 355.776414 133.452799 
L 356.409238 133.800419 
L 357.006485 134.169283 
L 357.650802 134.516899 
L 358.271695 134.88059 
L 358.961172 135.287552 
L 359.839122 135.642066 
L 360.411825 136.059105 
L 361.218756 136.439946 
L 361.932764 136.809509 
L 362.622489 137.216482 
L 363.361689 137.516428 
L 364.251969 137.838723 
L 364.992662 138.085011 
L 365.780268 138.326117 
L 366.693343 138.670058 
L 367.459228 138.846624 
L 368.212089 139.071466 
L 369.126679 139.361749 
L 369.822019 139.559371 
L 370.724459 139.870985 
L 370.909187 139.942016 
L 371.685284 140.177731 
L 372.439872 140.338046 
L 373.343387 140.606776 
L 374.141168 140.901751 
L 374.858214 141.158506 
L 375.564179 141.388437 
L 376.318341 141.570291 
L 377.118951 141.757843 
L 378.034398 142.015903 
L 378.671981 142.186285 
L 379.310628 142.319065 
L 379.997279 142.398591 
L 380.84673 142.511228 
L 381.5681 142.606903 
L 382.371949 142.670979 
L 383.239865 142.966343 
L 383.921495 143.233687 
L 384.811975 143.550697 
L 385.668587 143.824423 
L 386.536933 144.103628 
L 387.33667 144.323399 
L 388.112311 144.569893 
L 388.918565 144.977561 
L 389.648158 145.196936 
L 390.425971 145.368223 
L 391.104364 145.75365 
L 391.866317 146.08053 
L 392.52712 146.256507 
L 393.199205 146.443253 
L 393.986999 146.673699 
L 394.728768 146.876899 
L 395.642875 147.183342 
L 396.325391 147.423849 
L 397.077796 147.664755 
L 397.783309 147.910747 
L 398.648175 148.318832 
L 399.420748 148.678033 
L 400.040713 149.063166 
L 400.696529 149.427055 
L 401.392278 149.608514 
L 402.284449 149.861108 
L 403.151702 150.172534 
L 403.834401 150.40227 
L 404.540563 150.626821 
L 405.385651 150.895161 
L 406.253076 151.201317 
L 407.06213 151.507061 
L 407.894411 151.818301 
L 408.611205 152.080453 
L 409.502966 152.354481 
L 410.381456 152.682067 
L 411.096088 153.030211 
L 411.612279 153.366361 
L 411.886873 153.572144 
L 412.529649 153.984206 
L 413.033477 154.352471 
L 413.864425 154.712089 
L 414.660664 155.060619 
L 415.293882 155.392198 
L 416.04256 155.772643 
L 416.74348 156.190496 
L 417.481543 156.533342 
L 418.325314 156.850063 
L 419.064212 157.155412 
L 419.83657 157.525298 
L 420.467367 157.942743 
L 421.109887 158.360195 
L 421.625651 158.723175 
L 421.990771 159.031503 
L 422.35347 159.436469 
L 422.809749 159.83665 
L 423.312063 160.258692 
L 423.887067 160.579085 
L 424.646588 160.991851 
L 425.512273 161.362447 
L 426.39272 161.620219 
L 427.306563 161.931955 
L 428.139463 162.216361 
L 428.531084 162.422846 
L 429.010765 162.812468 
L 429.665455 163.213958 
L 430.332706 163.577851 
L 430.848883 163.919296 
L 431.235471 164.303025 
L 431.318168 164.700892 
L 431.039865 165.064329 
L 430.75005 165.416902 
L 430.798855 165.766298 
L 431.453753 166.156919 
L 432.283377 166.570192 
L 433.176184 166.801344 
L 433.964571 166.999469 
L 434.808736 167.305422 
L 435.574558 167.482008 
L 436.374676 167.685729 
L 437.196281 167.959262 
L 437.948853 168.189511 
L 438.805607 168.46335 
L 439.443353 168.622974 
L 440.337671 168.794977 
L 441.221143 168.940155 
L 441.825257 169.056578 
L 442.648566 169.260399 
L 443.414841 169.420932 
L 444.275526 169.549746 
L 445.125774 169.619519 
L 445.930463 169.662055 
L 446.210063 169.685318 
L 447.037504 169.738727 
L 447.81898 169.770487 
L 448.671188 169.770335 
L 449.325882 169.742258 
L 450.201974 169.726149 
L 450.439642 169.719597 
L 471.610468 172.853363 
L 464.752674 174.15598 
L 470.811032 174.081641 
L 478.488562 173.826998 
L 486.867048 173.625934 
L 491.572001 173.570699 
L 497.369783 173.677008 
L 502.878178 173.953858 
L 509.020732 174.491879 
L 514.986396 175.235632 
L 522.606229 176.415968 
L 541.997496 180.624249 
L 543.082199 180.816112 
L 543.729477 180.934965 
L 544.721997 181.126464 
L 545.367024 181.247357 
L 546.486334 181.447756 
L 548.140504 181.764719 
L 548.989145 181.909965 
L 549.952889 182.108097 
L 550.916664 182.312831 
L 551.779716 182.491145 
L 552.513331 182.643048 
L 553.275691 182.801544 
L 554.268231 183.012894 
L 555.347322 183.242968 
L 556.615904 183.491738 
L 557.579643 183.689862 
L 558.428305 183.854958 
L 559.3345 184.033263 
L 560.312618 184.224782 
L 561.233237 184.429532 
L 562.053134 184.607862 
L 562.729228 184.759774 
L 563.692945 184.944686 
L 565.145731 185.235257 
L 566.886228 185.591892 
L 569.058253 186.054223 
L 569.978835 186.252375 
L 571.13165 186.493895 
L 572.3543 186.751474 
L 573.505083 187.022307 
L 574.742086 187.253434 
L 576.338741 187.59689 
L 577.863446 187.907295 
L 579.25871 188.204513 
L 580.495742 188.462091 
L 582.049234 188.79895 
L 583.214341 189.043325 
L 584.632789 189.371984 
L 585.452744 189.590005 
L 586.100088 189.775002 
L 586.948811 190.019465 
L 587.536937 190.203866 
L 599.623801 193.99368 
L 595.053794 196.932646 
L 590.51056 199.899541 
L 583.036744 204.707778 
L 579.648026 206.902953 
L 572.35269 211.748332 
L 568.591466 214.029341 
L 558.620537 220.586163 
L 553.891464 223.638892 
L 549.981707 226.211396 
L 545.55737 229.099529 
L 542.839259 230.934573 
L 540.493741 232.666654 
L 538.260231 234.552982 
L 536.622535 236.079151 
L 534.393952 238.366165 
L 532.980049 240.012274 
L 531.975623 241.315399 
L 530.747909 242.824309 
L 529.743685 244.264581 
L 529.03737 245.533344 
L 528.331034 246.784964 
L 527.606471 248.363303 
L 527.333743 249.013505 
L 526.936678 249.951322 
L 526.516403 251.040045 
L 526.189577 251.923952 
L 525.816112 252.969555 
L 525.535911 253.680991 
L 525.315409 254.248979 
L 525.086777 254.804759 
L 524.806165 255.450918 
L 524.760007 255.643743 
L 524.068753 257.274411 
L 523.300852 259.200477 
L 522.635381 260.902024 
L 521.918544 262.603587 
L 521.179858 264.471497 
L 520.360734 266.503914 
L 519.310947 268.879031 
L 518.722031 270.202487 
L 518.209632 271.136021 
L 517.79989 272.010447 
L 517.264326 273.008917 
L 517.059596 273.552469 
L 516.880361 273.954232 
L 516.80976 274.136396 
L 516.730611 274.644283 
L 516.703118 275.07867 
L 516.928609 275.543571 
L 517.238136 275.818794 
L 517.58978 276.06952 
L 517.969424 276.259059 
L 518.574034 276.528078 
L 520.642902 277.344144 
L 516.957273 280.887627 
L 513.702089 284.192312 
L 511.458509 287.423284 
L 510.225917 290.164521 
L 509.754648 292.543398 
L 509.445219 335.094157 
L 508.077031 358.702777 
L 508.140915 390.765976 
L 507.588068 412.162034 
L 506.510954 434.09422 
L 505.951918 452.409622 
L 506.086786 506.124022 
L 505.703811 523.256197 
L 505.029658 526.882906 
L 504.082905 529.884429 
L 500.05659 536.495536 
L 451.466104 591.178761 
L 377.198781 594.067598 
L 352.134566 594.574539 
L 323.643692 594.75105 
L 292.446887 594.347961 
L 263.333164 593.289223 
L 212.810353 590.918764 
L 200.570263 590.454497 
L 188.968208 590.283395 
L 138.905966 590.310072 
L 138.376199 506.299372 
L 186.146796 506.412333 
L 190.256642 506.413493 
L 197.856713 506.392678 
L 201.583193 506.386403 
L 209.551602 506.382737 
L 219.897298 506.385079 
L 244.3823 506.34653 
L 251.381239 469.616406 
L 255.129007 449.886375 
L 270.602544 368.637731 
L 271.070542 366.12102 
L 272.106257 361.195825 
L 272.74115 359.046893 
L 273.706403 356.606175 
L 275.34616 353.466808 
L 276.793097 351.288659 
L 278.042478 349.643053 
L 279.618417 347.768542 
L 281.419111 345.887945 
L 284.881494 342.721783 
L 287.423334 340.733554 
L 290.261569 338.711802 
L 293.218901 336.794831 
L 295.587289 335.374314 
L 297.130049 334.53234 
L 288.562134 334.282623 
L 282.183316 334.213354 
L 278.032994 334.324704 
L 268.682748 334.503962 
L 256.088884 334.92595 
L 253.969065 334.831419 
L 258.114476 328.756357 
L 263.376367 322.222142 
L 281.601669 303.67023 
L 294.095835 290.974181 
L 314.364818 270.560526 
L 331.639107 252.865634 
L 333.863203 250.268644 
L 334.428377 249.608722 
L 335.578495 247.579632 
L 336.448638 244.986641 
L 340.84521 230.367777 
L 341.229884 228.020803 
L 341.22568 225.606952 
L 335.834831 199.738196 
L 334.077274 195.156968 
L 331.444066 190.106726 
L 330.467533 187.514434 
L 330.074959 185.368925 
L 329.581067 180.899005 
L 329.657581 164.216623 
L 330.16143 129.587445 
L 330.433391 124.543565 
L 331.507873 124.56952 
L 332.610804 124.470286 
L 333.52735 124.305243 
L 335.148575 123.731587 
L 336.437615 121.64895 
L 337.353191 122.266156 
L 338.4381 122.941913 
L 339.148967 123.350119 
L 339.770054 123.651886 
L 340.56955 124.03547 
L 341.368941 124.477835 
" style="stroke:#ffffff;stroke-linejoin:miter;stroke-width:2;"/>
   </g>
  </g>
 </g>
 <defs>
  <clipPath id="p164d6e7281">
   <rect height="543.6" width="558" x="90" y="86.4"/>
  </clipPath>
 </defs>
</svg>
