<?xml version="1.0" encoding="utf-8" standalone="no"?>
<!DOCTYPE svg PUBLIC "-//W3C//DTD SVG 1.1//EN"
  "http://www.w3.org/Graphics/SVG/1.1/DTD/svg11.dtd">
<!-- Created with matplotlib (https://matplotlib.org/) -->
<svg height="720pt" version="1.1" viewBox="0 0 720 720" width="720pt" xmlns="http://www.w3.org/2000/svg" xmlns:xlink="http://www.w3.org/1999/xlink">
 <metadata>
  <rdf:RDF xmlns:cc="http://creativecommons.org/ns#" xmlns:dc="http://purl.org/dc/elements/1.1/" xmlns:rdf="http://www.w3.org/1999/02/22-rdf-syntax-ns#">
   <cc:Work>
    <dc:type rdf:resource="http://purl.org/dc/dcmitype/StillImage"/>
    <dc:date>2021-05-28T08:56:47.640246</dc:date>
    <dc:format>image/svg+xml</dc:format>
    <dc:creator>
     <cc:Agent>
      <dc:title>Matplotlib v3.3.3, https://matplotlib.org/</dc:title>
     </cc:Agent>
    </dc:creator>
   </cc:Work>
  </rdf:RDF>
 </metadata>
 <defs>
  <style type="text/css">*{stroke-linecap:butt;stroke-linejoin:round;}</style>
 </defs>
 <g id="figure_1">
  <g id="patch_1">
   <path d="M 0 720 
L 720 720 
L 720 0 
L 0 0 
z
" style="fill:none;"/>
  </g>
  <g id="axes_1">
   <g id="patch_2">
    <path clip-path="url(#p8c895da9ae)" d="M 590.233809 412.345683 
L 589.843139 469.121784 
L 588.80364 510.739454 
L 576.254173 510.765985 
L 558.066301 510.816716 
L 545.148763 510.853392 
L 498.168404 510.986497 
L 498.166249 518.125101 
L 492.691518 518.124 
L 492.69189 516.658289 
L 470.746083 509.770716 
L 459.726733 517.236416 
L 441.810024 517.291266 
L 440.639255 520.37585 
L 439.753164 522.922702 
L 419.693696 512.533465 
L 411.58357 507.642079 
L 405.958316 506.15717 
L 402.141345 506.26152 
L 399.06397 506.895334 
L 395.86465 508.350018 
L 388.861949 512.3506 
L 370.09931 511.752517 
L 369.625713 490.919684 
L 369.454201 487.151772 
L 368.826275 483.237946 
L 367.995334 479.40094 
L 367.245373 477.102345 
L 365.954525 473.630379 
L 364.789621 471.185852 
L 363.251008 468.448478 
L 361.58827 465.907125 
L 355.379336 457.495557 
L 352.663132 461.92091 
L 346.13586 455.885513 
L 341.714026 462.546845 
L 334.802975 456.156443 
L 328.000747 466.40426 
L 321.285605 460.195262 
L 326.369283 452.530333 
L 319.841905 446.49508 
L 313.733396 455.697771 
L 305.710402 448.279888 
L 301.621503 454.440881 
L 287.266746 441.169133 
L 282.156212 448.868393 
L 275.239945 442.476584 
L 271.65533 447.861257 
L 266.046396 442.675286 
L 270.899137 435.358501 
L 264.371598 429.323232 
L 260.538006 435.099322 
L 252.717879 427.867427 
L 261.92837 414.021024 
L 252.792934 405.572785 
L 263.024918 390.18364 
L 150.13986 285.862826 
L 147.292788 283.23207 
L 147.238425 269.938522 
L 163.437646 267.867913 
L 173.443881 266.225953 
L 186.432927 263.387057 
L 193.121649 261.55022 
L 200.553157 259.23943 
L 206.04061 257.27037 
L 214.900381 253.944316 
L 223.07356 250.417369 
L 231.44499 246.364661 
L 239.787912 241.622857 
L 249.44497 236.00098 
L 258.073645 231.056218 
L 269.173532 224.589813 
L 275.688284 221.066806 
L 285.346652 216.120059 
L 294.434644 212.186775 
L 303.522988 208.455993 
L 311.697611 205.604494 
L 324.914849 201.070567 
L 337.294166 198.495883 
L 346.817831 196.49911 
L 356.202311 195.10673 
L 362.692199 194.214633 
L 369.089322 193.762058 
L 376.611053 193.576045 
L 391.583247 193.477298 
L 405.505585 193.714968 
L 416.14647 194.62491 
L 428.713635 196.995023 
L 448.52852 202.01253 
L 469.704203 208.890886 
L 481.142186 213.260152 
L 493.487104 218.692465 
L 503.893551 223.125972 
L 532.487064 235.677894 
L 554.877937 243.585515 
L 567.834253 246.920257 
L 579.644981 248.241578 
L 590.299981 248.589193 
L 590.761575 369.090794 
L 590.233809 412.345683 
" style="fill:#1a1a1a;stroke:#ffffff;stroke-linejoin:miter;stroke-width:4;"/>
   </g>
  </g>
 </g>
 <defs>
  <clipPath id="p8c895da9ae">
   <rect height="543.6" width="558" x="90" y="86.4"/>
  </clipPath>
 </defs>
</svg>
