<?xml version="1.0" encoding="utf-8" standalone="no"?>
<!DOCTYPE svg PUBLIC "-//W3C//DTD SVG 1.1//EN"
  "http://www.w3.org/Graphics/SVG/1.1/DTD/svg11.dtd">
<!-- Created with matplotlib (https://matplotlib.org/) -->
<svg height="720pt" version="1.1" viewBox="0 0 720 720" width="720pt" xmlns="http://www.w3.org/2000/svg" xmlns:xlink="http://www.w3.org/1999/xlink">
 <metadata>
  <rdf:RDF xmlns:cc="http://creativecommons.org/ns#" xmlns:dc="http://purl.org/dc/elements/1.1/" xmlns:rdf="http://www.w3.org/1999/02/22-rdf-syntax-ns#">
   <cc:Work>
    <dc:type rdf:resource="http://purl.org/dc/dcmitype/StillImage"/>
    <dc:date>2021-05-28T08:56:51.747595</dc:date>
    <dc:format>image/svg+xml</dc:format>
    <dc:creator>
     <cc:Agent>
      <dc:title>Matplotlib v3.3.3, https://matplotlib.org/</dc:title>
     </cc:Agent>
    </dc:creator>
   </cc:Work>
  </rdf:RDF>
 </metadata>
 <defs>
  <style type="text/css">*{stroke-linecap:butt;stroke-linejoin:round;}</style>
 </defs>
 <g id="figure_1">
  <g id="patch_1">
   <path d="M 0 720 
L 720 720 
L 720 0 
L 0 0 
z
" style="fill:none;"/>
  </g>
  <g id="axes_1">
   <g id="patch_2">
    <path clip-path="url(#ped4b1f52b9)" d="M 474.224406 569.876987 
L 463.312793 579.043184 
L 459.085932 574.689459 
L 451.262739 566.883477 
L 438.781262 555.859786 
L 428.641125 547.484896 
L 417.367696 538.841013 
L 393.462253 521.793829 
L 365.896127 503.401201 
L 334.845491 483.68024 
L 325.651287 475.569258 
L 318.515351 468.304178 
L 311.536606 460.675164 
L 305.031713 452.803015 
L 298.848086 446.991713 
L 291.871631 440.454079 
L 279.830898 431.794643 
L 230.990297 395.970443 
L 131.87511 324.831502 
L 213.528529 256.567603 
L 225.531108 246.990028 
L 230.875794 242.875484 
L 235.911658 238.121841 
L 241.338338 231.650942 
L 245.184869 225.182404 
L 247.97799 218.715408 
L 250.594891 211.979385 
L 252.161686 206.591352 
L 253.364539 200.047421 
L 253.681791 193.569913 
L 253.758694 179.848669 
L 254.286707 168.747417 
L 255.158547 161.800358 
L 256.695888 154.298366 
L 258.237078 148.330416 
L 260.223723 142.702709 
L 262.347898 137.356816 
L 365.820642 189.279659 
L 383.005431 198.482042 
L 399.551219 209.005252 
L 422.941493 224.626558 
L 430.044326 229.060881 
L 442.928848 238.220087 
L 442.1126 238.904629 
L 441.722451 239.31626 
L 440.873903 240.029934 
L 439.354362 241.275096 
L 437.084851 243.097372 
L 435.229799 244.600732 
L 433.433997 246.073692 
L 431.743179 247.407455 
L 430.60642 248.438161 
L 427.096601 251.256394 
L 424.146364 253.644037 
L 421.654617 255.952923 
L 419.570354 258.183118 
L 417.944375 260.256388 
L 416.572423 261.977633 
L 415.150909 264.324169 
L 414.034539 266.396774 
L 413.071684 268.742711 
L 412.059288 271.713954 
L 411.275041 274.783318 
L 410.879699 282.261354 
L 411.716882 287.736713 
L 414.067765 293.94723 
L 417.931084 300.366349 
L 424.388422 307.102193 
L 445.961213 327.679733 
L 462.372935 343.335183 
L 464.86021 351.216981 
L 462.82108 359.735466 
L 456.269771 366.826391 
L 464.0441 371.406498 
L 471.225318 375.3895 
L 479.269559 379.5691 
L 487.08521 383.630003 
L 513.230835 397.330622 
L 522.4131 402.266265 
L 528.298146 405.429639 
L 541.009489 412.82302 
L 547.507162 416.70692 
L 557.14204 419.619657 
L 572.502206 424.031334 
L 588.211128 428.543313 
L 590.042893 429.193309 
L 591.861524 429.679055 
L 595.953358 430.754554 
L 599.81806 431.865184 
L 601.818726 432.490119 
L 602.90997 432.83733 
L 603.955822 433.184613 
L 606.12489 433.817719 
L 605.969066 434.107064 
L 605.753611 434.535968 
L 605.250467 435.352392 
L 604.54945 436.376443 
L 603.471248 438.092321 
L 602.287284 439.826773 
L 601.101057 441.601555 
L 600.31027 442.791651 
L 599.681233 443.746493 
L 598.872426 444.950446 
L 598.399243 445.659888 
L 598.176009 446.05182 
L 597.676527 446.80072 
L 597.019442 447.832953 
L 596.175697 449.154219 
L 580.359831 473.55468 
L 571.955644 486.208798 
L 568.00449 491.420002 
L 564.589746 494.638865 
L 564.278614 494.905976 
L 563.769995 495.391318 
L 562.284433 496.612772 
L 561.205823 497.474097 
L 560.214935 498.238155 
L 559.513159 498.818653 
L 558.398678 499.768176 
L 556.408435 501.422235 
L 553.502871 503.903238 
L 551.074759 505.894282 
L 549.124369 507.517717 
L 546.536985 509.600722 
L 543.232796 512.112814 
L 541.760465 513.398956 
L 540.816782 514.17575 
L 539.613596 515.204572 
L 538.490394 516.068934 
L 537.153463 517.180121 
L 535.468973 518.599946 
L 534.66683 519.278979 
L 531.565306 521.933371 
L 529.035853 524.10009 
L 528.558226 524.562411 
L 527.209802 525.717324 
L 525.230718 527.441289 
L 523.313919 529.079944 
L 521.555056 530.504446 
L 519.423846 532.395752 
L 517.526556 534.053126 
L 517.371012 534.189726 
L 516.823907 534.66182 
L 515.96182 535.401866 
L 515.149466 536.097263 
L 514.649852 536.519488 
L 504.295945 544.67893 
L 501.498362 546.883607 
L 494.035575 553.187056 
L 487.857871 558.349601 
L 474.224406 569.876987 
" style="fill:#1a1a1a;stroke:#ffffff;stroke-linejoin:miter;stroke-width:4;"/>
   </g>
  </g>
 </g>
 <defs>
  <clipPath id="ped4b1f52b9">
   <rect height="543.6" width="558" x="90" y="86.4"/>
  </clipPath>
 </defs>
</svg>
