<?xml version="1.0" encoding="utf-8" standalone="no"?>
<!DOCTYPE svg PUBLIC "-//W3C//DTD SVG 1.1//EN"
  "http://www.w3.org/Graphics/SVG/1.1/DTD/svg11.dtd">
<!-- Created with matplotlib (https://matplotlib.org/) -->
<svg height="720pt" version="1.1" viewBox="0 0 720 720" width="720pt" xmlns="http://www.w3.org/2000/svg" xmlns:xlink="http://www.w3.org/1999/xlink">
 <metadata>
  <rdf:RDF xmlns:cc="http://creativecommons.org/ns#" xmlns:dc="http://purl.org/dc/elements/1.1/" xmlns:rdf="http://www.w3.org/1999/02/22-rdf-syntax-ns#">
   <cc:Work>
    <dc:type rdf:resource="http://purl.org/dc/dcmitype/StillImage"/>
    <dc:date>2021-05-07T11:03:06.099453</dc:date>
    <dc:format>image/svg+xml</dc:format>
    <dc:creator>
     <cc:Agent>
      <dc:title>Matplotlib v3.3.3, https://matplotlib.org/</dc:title>
     </cc:Agent>
    </dc:creator>
   </cc:Work>
  </rdf:RDF>
 </metadata>
 <defs>
  <style type="text/css">*{stroke-linecap:butt;stroke-linejoin:round;}</style>
 </defs>
 <g id="figure_1">
  <g id="patch_1">
   <path d="M 0 720 
L 720 720 
L 720 0 
L 0 0 
z
" style="fill:none;"/>
  </g>
  <g id="axes_1">
   <g id="patch_2">
    <path clip-path="url(#pd9306727f0)" d="M 484.239829 203.184761 
L 484.149323 207.279501 
L 483.962 226.534687 
L 483.99096 243.328449 
L 484.826192 267.646837 
L 485.161577 271.15601 
L 485.934678 273.987746 
L 486.817227 276.634682 
L 487.919888 279.650946 
L 489.903383 284.329022 
L 495.625004 297.588996 
L 495.193738 299.761091 
L 494.208884 301.423984 
L 492.894216 302.717609 
L 492.380759 303.247826 
L 490.921197 304.230314 
L 490.155352 305.585233 
L 489.828559 307.001472 
L 489.831326 308.602238 
L 492.585475 314.695993 
L 502.270409 335.524421 
L 506.676233 344.941976 
L 511.301012 354.051561 
L 512.948116 357.659977 
L 514.711573 362.091953 
L 516.03645 366.770429 
L 516.369794 369.171402 
L 516.595272 372.680673 
L 516.161197 375.51303 
L 515.728011 378.899506 
L 514.635409 382.196574 
L 512.776109 385.830084 
L 510.477724 389.402308 
L 507.849807 392.78997 
L 503.249798 398.025731 
L 497.071149 403.958728 
L 486.665608 416.279639 
L 486.167841 423.837173 
L 486.23882 464.677069 
L 486.261997 478.036488 
L 486.316966 509.662059 
L 485.983672 513.215239 
L 479.796716 512.117119 
L 474.545431 511.457515 
L 466.377422 509.275313 
L 452.449945 506.037141 
L 448.305583 505.287714 
L 441.361476 503.45014 
L 432.477574 500.220682 
L 432.011673 500.025139 
L 430.590669 497.19786 
L 421.369922 495.186313 
L 414.843896 492.451951 
L 405.486115 487.899544 
L 400.206486 484.590647 
L 399.79514 484.287815 
L 397.831283 483.005238 
L 396.057718 481.687176 
L 381.544567 474.348859 
L 366.220222 464.47074 
L 354.41275 456.993783 
L 343.32038 447.07627 
L 341.389381 445.71002 
L 338.972784 444.766479 
L 336.625629 443.592243 
L 335.224684 442.567985 
L 333.228311 441.307847 
L 330.813447 440.292882 
L 328.392757 439.509243 
L 326.317495 438.852476 
L 324.090123 437.945928 
L 321.834987 436.879082 
L 319.829257 435.974509 
L 317.351319 434.959236 
L 315.406838 434.126021 
L 313.36291 433.505286 
L 310.900462 433.112264 
L 308.660282 432.72083 
L 306.460067 431.992051 
L 304.492545 430.821145 
L 302.397096 429.719919 
L 300.288291 429.134222 
L 298.181819 428.4596 
L 296.043504 427.785033 
L 293.909234 426.968032 
L 292.05858 426.206476 
L 289.980427 425.656461 
L 287.998296 425.072095 
L 285.67191 424.324499 
L 283.222758 423.398463 
L 280.777712 422.330029 
L 278.67583 421.478019 
L 276.29331 420.427748 
L 274.009702 419.218506 
L 272.170012 418.013241 
L 270.63701 417.218646 
L 268.479581 416.046113 
L 266.070401 414.800551 
L 264.157812 413.985217 
L 262.343512 413.010876 
L 260.125904 411.713447 
L 258.601631 410.581493 
L 257.140446 409.432355 
L 255.621393 408.087276 
L 254.192575 406.920272 
L 252.824518 405.86067 
L 251.242956 404.479548 
L 250.004532 403.296721 
L 248.61044 402.005779 
L 247.654457 400.949471 
L 246.354116 399.712753 
L 245.241344 398.584061 
L 243.936961 397.525124 
L 243.520951 396.419822 
L 242.852005 395.276872 
L 241.650634 393.881217 
L 241.146088 392.508636 
L 240.353315 391.257938 
L 238.675149 389.947288 
L 237.787436 388.678098 
L 237.117335 387.588729 
L 236.802035 386.253097 
L 236.953213 385.294794 
L 237.101435 384.425067 
L 235.927823 383.189326 
L 234.503636 381.844897 
L 234.029151 380.525807 
L 233.942947 380.169603 
L 233.690739 378.852482 
L 233.181554 377.675529 
L 232.322194 376.548791 
L 231.40092 375.368547 
L 230.736031 374.065667 
L 230.104723 372.692076 
L 229.716534 371.747074 
L 229.05105 370.462042 
L 228.291252 369.158519 
L 227.622911 368.015921 
L 226.794795 366.907363 
L 226.189515 365.765114 
L 225.495105 364.373013 
L 224.797806 363.105499 
L 224.603494 362.002202 
L 224.541087 360.68637 
L 224.544107 359.300158 
L 224.671546 358.003846 
L 223.65998 356.627331 
L 222.768794 355.518111 
L 223.053052 354.276615 
L 223.30028 353.265447 
L 223.419577 352.288965 
L 223.413306 351.275846 
L 223.280285 350.261752 
L 222.986868 349.317394 
L 222.631009 348.336993 
L 222.56046 347.34141 
L 222.46739 345.9899 
L 222.374257 344.638426 
L 222.430491 343.661316 
L 221.95776 342.289068 
L 221.854218 341.346348 
L 221.50594 340.081778 
L 221.404728 339.050168 
L 221.689515 337.790509 
L 222.038644 336.513629 
L 222.099444 335.341241 
L 222.129611 334.115328 
L 221.996588 333.101234 
L 221.966023 331.785768 
L 221.903646 330.487784 
L 222.219098 329.264152 
L 222.696129 327.935089 
L 222.882532 326.81687 
L 223.134983 325.592541 
L 223.228839 324.36694 
L 223.608043 323.143971 
L 224.118007 321.761695 
L 224.563163 320.414453 
L 224.61592 319.579778 
L 224.806954 318.266246 
L 225.028154 317.023772 
L 225.347743 315.640209 
L 225.794647 314.25762 
L 226.202185 313.158834 
L 226.508447 312.326109 
L 226.796164 310.960062 
L 227.141788 309.807454 
L 227.935398 308.481005 
L 228.530987 307.472782 
L 228.880684 306.160242 
L 228.909741 305.00537 
L 228.899306 304.134652 
L 229.562685 302.948961 
L 230.484827 301.570293 
L 230.815943 301.00422 
L 231.103632 299.620325 
L 231.357833 298.32499 
L 231.705764 297.10134 
L 232.209402 295.968202 
L 233.156956 294.82049 
L 234.235308 293.531669 
L 235.310211 292.367435 
L 236.132693 291.147706 
L 237.082585 289.911455 
L 238.026044 288.941524 
L 238.618818 288.057538 
L 239.445377 286.678227 
L 240.176532 285.333269 
L 240.652963 284.004207 
L 241.192464 282.711154 
L 242.046862 281.491758 
L 242.80399 280.378105 
L 243.439024 279.050351 
L 244.234433 277.670709 
L 244.858372 276.787056 
L 245.843011 275.426551 
L 246.759894 274.261012 
L 247.548869 273.111995 
L 248.690405 271.841688 
L 249.665692 270.854243 
L 250.836616 269.637462 
L 252.10662 268.279242 
L 253.119666 267.078652 
L 254.705597 265.740895 
L 256.6041 264.601031 
L 258.595278 263.5682 
L 259.39055 263.450151 
L 261.618884 263.059386 
L 263.774822 263.02352 
L 266.024583 263.041808 
L 268.368696 263.096123 
L 270.810024 263.080356 
L 273.1593 262.921546 
L 275.28638 262.778579 
L 276.810343 262.666444 
L 278.746357 262.557535 
L 281.222452 262.399706 
L 283.318314 262.25676 
L 285.506657 262.185537 
L 286.902123 262.143436 
L 288.710823 262.069284 
L 290.962919 261.998342 
L 293.150144 261.998164 
L 294.671183 261.992772 
L 297.077742 262.083458 
L 299.423535 262.066743 
L 301.672146 262.138239 
L 303.826405 262.173429 
L 305.567929 262.240704 
L 307.184503 262.235925 
L 309.305703 262.32398 
L 311.521909 262.430879 
L 313.770456 262.502415 
L 316.149838 262.414997 
L 318.182571 262.235739 
L 320.310778 262.057478 
L 322.530438 262.004065 
L 324.499485 261.860192 
L 326.726713 261.504799 
L 328.769883 260.917106 
L 330.780056 260.382311 
L 332.216091 259.985342 
L 332.950047 259.795632 
L 334.862976 259.349048 
L 337.02948 258.904455 
L 339.458718 258.070912 
L 341.471889 257.429698 
L 343.611724 256.771615 
L 345.977901 255.937411 
L 348.130047 254.799568 
L 350.091719 253.678246 
L 351.613514 252.393046 
L 353.447312 251.306094 
L 355.472024 250.166926 
L 357.833075 249.564015 
L 359.693394 248.672711 
L 360.637595 247.684952 
L 361.651846 246.413689 
L 363.460729 245.041891 
L 365.333961 243.653258 
L 366.597647 242.543535 
L 367.77163 241.237888 
L 368.814244 240.109043 
L 369.859133 238.890958 
L 370.743146 237.760803 
L 371.404866 236.628673 
L 371.117993 235.435801 
L 371.592227 234.213138 
L 372.798625 232.872093 
L 373.432619 231.597898 
L 374.349636 230.414531 
L 375.54971 229.339842 
L 377.035053 228.249944 
L 378.810437 226.94921 
L 380.459034 225.664996 
L 382.49031 224.295178 
L 383.785274 223.203989 
L 385.971012 221.995101 
L 388.278336 221.000982 
L 390.77134 220.167776 
L 393.163663 219.565212 
L 395.33313 218.99637 
L 397.628702 218.446041 
L 399.321234 217.944309 
L 401.813156 217.164651 
L 403.99074 216.275948 
L 406.265913 215.170464 
L 406.365235 215.12222 
L 408.640108 214.127428 
L 410.683357 213.539799 
L 412.663603 212.951472 
L 414.673886 212.398858 
L 416.816765 211.651912 
L 419.029173 210.638961 
L 421.180795 209.501461 
L 423.258896 208.807046 
L 425.36641 208.184392 
L 427.758167 207.599341 
L 429.190769 207.344515 
L 431.579563 206.884051 
L 433.902418 206.529312 
L 436.124492 206.387437 
L 438.126047 206.190391 
L 440.410596 206.102342 
L 442.567822 206.012999 
L 444.631353 205.905125 
L 446.819772 205.834314 
L 449.196393 205.871151 
L 451.635488 205.926538 
L 453.314587 205.939999 
L 455.278427 205.991414 
L 457.244109 205.98967 
L 459.304674 205.970727 
L 461.555035 205.970893 
L 463.965783 205.883869 
L 465.712697 205.755879 
L 467.523242 205.592894 
L 469.937458 205.381251 
L 472.225571 205.150815 
L 474.450555 204.884684 
L 476.642537 204.706796 
L 478.710103 204.403657 
L 481.133135 203.836809 
L 483.267896 203.391939 
L 484.239829 203.184761 
" style="stroke:#ffffff;stroke-linejoin:miter;stroke-width:2;"/>
   </g>
  </g>
 </g>
 <defs>
  <clipPath id="pd9306727f0">
   <rect height="543.6" width="558" x="90" y="86.4"/>
  </clipPath>
 </defs>
</svg>
