<?xml version="1.0" encoding="utf-8" standalone="no"?>
<!DOCTYPE svg PUBLIC "-//W3C//DTD SVG 1.1//EN"
  "http://www.w3.org/Graphics/SVG/1.1/DTD/svg11.dtd">
<!-- Created with matplotlib (https://matplotlib.org/) -->
<svg height="720pt" version="1.1" viewBox="0 0 720 720" width="720pt" xmlns="http://www.w3.org/2000/svg" xmlns:xlink="http://www.w3.org/1999/xlink">
 <metadata>
  <rdf:RDF xmlns:cc="http://creativecommons.org/ns#" xmlns:dc="http://purl.org/dc/elements/1.1/" xmlns:rdf="http://www.w3.org/1999/02/22-rdf-syntax-ns#">
   <cc:Work>
    <dc:type rdf:resource="http://purl.org/dc/dcmitype/StillImage"/>
    <dc:date>2021-05-07T11:03:01.172853</dc:date>
    <dc:format>image/svg+xml</dc:format>
    <dc:creator>
     <cc:Agent>
      <dc:title>Matplotlib v3.3.3, https://matplotlib.org/</dc:title>
     </cc:Agent>
    </dc:creator>
   </cc:Work>
  </rdf:RDF>
 </metadata>
 <defs>
  <style type="text/css">*{stroke-linecap:butt;stroke-linejoin:round;}</style>
 </defs>
 <g id="figure_1">
  <g id="patch_1">
   <path d="M 0 720 
L 720 720 
L 720 0 
L 0 0 
z
" style="fill:none;"/>
  </g>
  <g id="axes_1">
   <g id="patch_2">
    <path clip-path="url(#pf46453c845)" d="M 553.552437 518.210518 
L 545.551138 518.439772 
L 537.349137 517.585853 
L 512.141343 512.316671 
L 477.596085 504.987485 
L 471.256028 502.836232 
L 464.288988 499.287132 
L 456.851832 494.848719 
L 447.847925 487.996788 
L 440.868007 482.610477 
L 435.119735 478.547918 
L 429.12733 475.081804 
L 423.624811 473.005498 
L 418.306202 471.723592 
L 412.315547 470.93957 
L 383.773157 470.899471 
L 242.603086 470.623729 
L 178.489754 470.57019 
L 133.406743 470.531766 
L 133.429426 336.248653 
L 133.463473 312.512865 
L 133.492026 309.370089 
L 133.689001 303.037159 
L 134.339587 294.893933 
L 134.725936 291.192145 
L 135.208846 287.475002 
L 135.849362 283.259462 
L 136.068371 281.973106 
L 136.575409 279.101939 
L 137.169072 276.168669 
L 137.484556 274.687501 
L 137.945928 272.624086 
L 138.256994 271.296442 
L 138.961376 268.467501 
L 139.406166 266.799775 
L 139.682122 265.788663 
L 140.23237 263.840223 
L 141.225202 260.58819 
L 142.781356 255.931008 
L 143.462226 254.088528 
L 144.487819 251.344707 
L 145.315289 249.298851 
L 147.168719 244.964973 
L 149.722184 239.718022 
L 152.521012 234.58448 
L 154.723204 230.85506 
L 156.894058 227.595281 
L 159.636463 223.822752 
L 162.121976 220.655281 
L 165.407843 216.928105 
L 168.665536 213.712528 
L 172.066432 210.729136 
L 174.695894 208.677452 
L 176.352148 207.542385 
L 178.891918 205.874191 
L 181.493798 204.357048 
L 183.847992 203.142755 
L 187.038744 201.725142 
L 190.508569 200.508508 
L 194.164531 199.543432 
L 197.51086 198.881341 
L 201.16731 198.520963 
L 203.747877 198.450596 
L 209.042991 197.960228 
L 222.138019 198.265897 
L 289.795883 198.229207 
L 495.425059 198.092675 
L 542.266081 198.035307 
L 544.402605 218.379941 
L 548.794519 247.50687 
L 552.557959 270.87579 
L 555.693588 289.502978 
L 560.078355 307.111984 
L 565.110902 330.253455 
L 594.635612 453.849514 
L 604.593257 492.290321 
L 581.751062 507.00582 
L 572.55245 512.329559 
L 566.552921 515.047844 
L 559.886143 516.900296 
L 553.552437 518.210518 
" style="stroke:#ffffff;stroke-linejoin:miter;stroke-width:2;"/>
   </g>
  </g>
 </g>
 <defs>
  <clipPath id="pf46453c845">
   <rect height="543.6" width="558" x="90" y="86.4"/>
  </clipPath>
 </defs>
</svg>
