<?xml version="1.0" encoding="utf-8" standalone="no"?>
<!DOCTYPE svg PUBLIC "-//W3C//DTD SVG 1.1//EN"
  "http://www.w3.org/Graphics/SVG/1.1/DTD/svg11.dtd">
<!-- Created with matplotlib (https://matplotlib.org/) -->
<svg height="720pt" version="1.1" viewBox="0 0 720 720" width="720pt" xmlns="http://www.w3.org/2000/svg" xmlns:xlink="http://www.w3.org/1999/xlink">
 <metadata>
  <rdf:RDF xmlns:cc="http://creativecommons.org/ns#" xmlns:dc="http://purl.org/dc/elements/1.1/" xmlns:rdf="http://www.w3.org/1999/02/22-rdf-syntax-ns#">
   <cc:Work>
    <dc:type rdf:resource="http://purl.org/dc/dcmitype/StillImage"/>
    <dc:date>2021-05-28T08:56:45.615884</dc:date>
    <dc:format>image/svg+xml</dc:format>
    <dc:creator>
     <cc:Agent>
      <dc:title>Matplotlib v3.3.3, https://matplotlib.org/</dc:title>
     </cc:Agent>
    </dc:creator>
   </cc:Work>
  </rdf:RDF>
 </metadata>
 <defs>
  <style type="text/css">*{stroke-linecap:butt;stroke-linejoin:round;}</style>
 </defs>
 <g id="figure_1">
  <g id="patch_1">
   <path d="M 0 720 
L 720 720 
L 720 0 
L 0 0 
z
" style="fill:none;"/>
  </g>
  <g id="axes_1">
   <g id="patch_2">
    <path clip-path="url(#p1e98275b8b)" d="M 334.893994 172.643823 
L 339.101863 173.252578 
L 341.212502 173.180027 
L 342.80071 172.772138 
L 343.355155 171.147631 
L 374.452111 175.364804 
L 374.598094 175.831838 
L 374.885823 176.505418 
L 375.281693 177.440838 
L 375.35287 177.715202 
L 375.311245 178.684021 
L 375.404117 179.431371 
L 375.460407 180.241217 
L 375.699802 181.200428 
L 375.737782 181.998006 
L 375.703325 182.945022 
L 375.833258 183.916772 
L 376.163002 184.651583 
L 376.621338 185.548067 
L 376.896938 186.494779 
L 376.971603 187.391827 
L 376.864257 188.264144 
L 376.811096 189.111711 
L 376.794542 189.959026 
L 376.668867 190.769128 
L 376.579051 191.50451 
L 376.47092 192.127706 
L 376.381109 192.875336 
L 376.309982 193.672959 
L 376.238892 194.557763 
L 376.258526 195.168441 
L 376.241973 196.102961 
L 376.188786 196.800858 
L 376.172176 197.511241 
L 376.046169 198.383562 
L 375.756174 199.330873 
L 375.55768 200.228439 
L 375.322234 201.076041 
L 375.031789 201.799215 
L 374.723029 202.497406 
L 374.487471 203.158105 
L 374.197058 203.955967 
L 373.815926 204.866306 
L 373.270747 205.788926 
L 372.798004 206.562327 
L 372.289065 207.460199 
L 371.798019 208.233384 
L 371.380195 209.019023 
L 371.016522 209.617527 
L 370.580025 210.378209 
L 370.307868 211.051383 
L 369.926283 211.812054 
L 369.67243 212.398045 
L 369.181424 213.25868 
L 368.690341 213.932143 
L 367.742724 214.481746 
L 366.794618 214.719787 
L 365.645498 214.883106 
L 364.277368 214.847563 
L 362.963815 214.874254 
L 361.559157 215.025893 
L 360.993936 215.126169 
L 359.845167 215.351979 
L 358.440483 215.441131 
L 357.47326 215.367812 
L 356.177953 215.257326 
L 354.809501 215.308993 
L 353.49633 215.38539 
L 352.164888 215.536774 
L 351.088627 215.700354 
L 349.793784 215.913926 
L 348.790733 216.06478 
L 347.42269 216.228641 
L 346.109542 216.355014 
L 345.124404 216.431128 
L 344.030161 216.507264 
L 343.081631 216.583372 
L 341.877561 216.647284 
L 340.983566 216.685902 
L 339.8527 216.724814 
L 338.539156 216.763985 
L 337.298844 216.8404 
L 336.168006 216.941509 
L 334.946047 217.130112 
L 333.596723 217.493397 
L 332.502594 217.818906 
L 331.189876 218.094711 
L 330.095703 218.320523 
L 329.001525 218.533842 
L 327.88906 218.78462 
L 326.612983 219.209868 
L 325.373543 219.697573 
L 324.116342 220.509118 
L 323.552463 221.257562 
L 323.171332 222.155416 
L 322.662434 223.053297 
L 322.152705 223.701786 
L 321.71621 224.313051 
L 321.335023 225.086221 
L 321.063374 226.021041 
L 320.645666 226.981098 
L 319.35177 227.655721 
L 317.947541 227.919328 
L 316.999437 228.120128 
L 315.942315 228.582568 
L 315.01259 228.945037 
L 313.973322 229.208323 
L 312.69641 229.272239 
L 311.455313 229.099543 
L 310.29004 230.060499 
L 310.985233 230.944428 
L 311.771589 231.840585 
L 312.119644 232.537906 
L 312.74158 233.334426 
L 313.783429 234.155571 
L 314.551443 234.976776 
L 315.063937 235.823511 
L 315.412389 236.608039 
L 315.651002 237.35538 
L 315.890413 238.277108 
L 315.982982 238.999715 
L 316.130425 239.722336 
L 316.42441 240.693803 
L 316.626739 241.366416 
L 316.829144 242.200946 
L 316.921174 242.537254 
L 317.196374 243.322067 
L 317.708841 244.044095 
L 318.531362 244.865289 
L 319.390542 245.649242 
L 320.121893 246.371003 
L 320.963132 247.242141 
L 322.20557 248.112752 
L 323.42937 248.883646 
L 324.617242 249.72926 
L 325.914284 250.649589 
L 326.682223 251.346358 
L 327.523103 252.155303 
L 328.217839 252.877049 
L 328.876394 253.748253 
L 329.425444 254.520271 
L 330.065678 255.354221 
L 330.815756 256.325104 
L 331.218307 256.860254 
L 331.858561 257.744199 
L 332.444219 258.528434 
L 333.121066 259.387387 
L 333.724639 260.109178 
L 334.821053 261.042266 
L 335.807923 261.788719 
L 336.885975 262.597128 
L 337.727214 263.518022 
L 338.55017 264.488892 
L 339.518776 265.334803 
L 340.90729 266.217617 
L 342.277499 267.100705 
L 343.428412 267.946335 
L 344.470224 268.792233 
L 345.256081 269.476511 
L 345.585271 269.775293 
L 346.462781 270.696182 
L 346.956849 271.343532 
L 347.597096 272.252198 
L 348.219408 273.185878 
L 349.060637 274.119269 
L 349.919734 274.965451 
L 350.723934 275.674712 
L 351.674161 276.3837 
L 352.95318 277.229308 
L 353.90304 277.925803 
L 354.780856 278.834203 
L 355.16512 279.444317 
L 355.787377 280.353258 
L 356.518761 281.162235 
L 357.59718 282.057857 
L 358.383049 282.804358 
L 359.078152 283.625811 
L 359.57185 284.273162 
L 360.139155 285.007705 
L 360.889222 285.966079 
L 361.67552 286.887236 
L 362.333617 287.621516 
L 362.754464 288.194146 
L 363.230605 288.916214 
L 363.815908 289.787661 
L 364.365321 290.65914 
L 364.932684 291.543084 
L 365.390129 292.190444 
L 365.957469 293.024686 
L 366.451623 293.833932 
L 366.799594 294.444055 
L 367.074782 295.216135 
L 367.258763 295.86377 
L 367.479448 296.748272 
L 367.700113 297.582803 
L 367.791741 297.856894 
L 368.194671 298.59147 
L 368.707087 299.313508 
L 369.529934 300.222168 
L 370.188436 301.006176 
L 370.920149 301.964801 
L 371.596977 302.811271 
L 372.127277 303.483359 
L 372.840709 304.417002 
L 373.444248 305.163789 
L 374.339954 306.022464 
L 375.217346 306.768953 
L 376.2591 307.689576 
L 377.318847 308.560469 
L 378.269481 309.481355 
L 378.818456 310.203167 
L 379.367082 310.95021 
L 379.989311 311.784175 
L 380.611211 312.605671 
L 381.397421 313.477108 
L 382.238594 314.310787 
L 383.04273 315.057316 
L 383.992961 315.890975 
L 384.961881 316.799146 
L 385.985339 317.682542 
L 387.191125 318.628124 
L 388.4518 319.535972 
L 389.310473 320.182771 
L 390.242757 321.028952 
L 391.175025 321.837655 
L 392.271365 322.733312 
L 393.404245 323.653924 
L 393.915799 324.076873 
L 394.920922 324.910304 
L 395.944347 325.656797 
L 396.876224 326.403013 
L 397.808106 327.162016 
L 398.758327 328.02042 
L 399.872938 328.866351 
L 400.932572 329.625062 
L 402.26645 330.570382 
L 403.435568 331.416059 
L 404.422386 332.274483 
L 405.409225 333.095673 
L 406.487183 333.929096 
L 407.510985 334.849979 
L 408.370045 335.621222 
L 408.662225 335.88254 
L 409.393473 336.604326 
L 410.344113 337.562457 
L 410.983802 338.15982 
L 411.82452 338.931313 
L 412.646927 339.590618 
L 413.688653 340.486515 
L 414.602624 341.382434 
L 415.44339 342.29086 
L 415.9191 342.863489 
L 416.613765 343.659995 
L 417.308798 344.481487 
L 418.149527 345.302954 
L 419.336448 345.749817 
L 420.742372 346.458282 
L 422.094529 347.42835 
L 423.190812 348.38646 
L 424.123048 349.22016 
L 424.744053 349.692846 
L 425.73122 350.601249 
L 426.864119 351.509407 
L 427.869209 352.46751 
L 428.728627 353.301249 
L 429.605984 354.222142 
L 430.301048 355.168321 
L 430.703936 355.840687 
L 431.289539 356.761876 
L 431.801869 357.508936 
L 432.405744 358.355434 
L 433.246472 359.226607 
L 434.105919 360.160021 
L 435.257091 361.130375 
L 436.389478 361.764428 
L 437.504031 362.597856 
L 438.600253 363.456274 
L 439.750988 364.227258 
L 441.102343 364.960705 
L 442.308002 365.694177 
L 443.203633 366.590378 
L 444.299865 367.498525 
L 444.921647 368.183105 
L 445.780631 368.966829 
L 446.803981 369.788053 
L 447.644679 370.522054 
L 448.521983 371.368289 
L 449.508744 372.239198 
L 450.659913 373.159856 
L 451.682862 373.881115 
L 452.779066 374.63984 
L 453.126119 374.863675 
L 456.578329 377.164349 
L 457.802225 377.873108 
L 458.934651 378.69405 
L 460.231765 379.552199 
L 461.546865 380.435087 
L 462.295938 381.082171 
L 463.11829 381.841166 
L 464.178252 382.749327 
L 465.402175 383.669954 
L 466.717655 384.64005 
L 467.868314 385.398773 
L 468.928244 386.232223 
L 470.243294 387.115115 
L 470.937428 387.575282 
L 471.503836 388.110452 
L 472.545502 389.068591 
L 473.62374 389.939274 
L 474.975398 390.859641 
L 476.162657 391.643103 
L 477.587165 392.476254 
L 478.738218 393.384407 
L 479.560962 394.292856 
L 480.237229 395.002151 
L 481.42448 395.785615 
L 482.410747 396.370204 
L 483.452373 397.25339 
L 484.420754 398.124584 
L 485.042463 398.808903 
L 485.316723 399.120228 
L 486.19393 399.91648 
L 487.344639 400.799625 
L 488.221839 401.471438 
L 489.281331 402.25517 
L 490.450716 403.200559 
L 491.218135 403.959839 
L 492.350827 404.743316 
L 493.775293 405.638696 
L 495.145262 406.571318 
L 496.040818 407.442528 
L 496.845187 408.301258 
L 497.740745 409.184716 
L 498.818542 410.018151 
L 500.152258 410.95105 
L 500.956201 411.610361 
L 501.778148 412.244953 
L 502.947065 413.015936 
L 504.116371 413.886618 
L 505.395189 414.856982 
L 506.801342 415.777382 
L 507.860835 416.523618 
L 508.975228 417.381817 
L 509.505777 418.09141 
L 510.364718 418.975098 
L 511.278497 419.771377 
L 512.064556 420.542884 
L 513.215615 421.513516 
L 514.51229 422.371446 
L 515.809352 423.329345 
L 516.503869 423.98892 
L 517.198396 424.685754 
L 518.002787 425.58197 
L 519.026028 426.465392 
L 519.738476 427.100005 
L 520.926088 428.070389 
L 521.821601 428.904129 
L 522.406647 429.501281 
L 523.010072 430.360512 
L 524.106563 431.305926 
L 525.220499 431.915253 
L 526.133941 432.724005 
L 526.701497 433.645242 
L 527.542089 434.566416 
L 528.309825 435.325463 
L 529.205342 436.208931 
L 529.954711 436.868502 
L 531.160265 437.776694 
L 532.438586 438.54743 
L 533.388169 439.044592 
L 534.593306 439.765858 
L 535.853735 440.723746 
L 536.730913 441.507766 
L 537.6996 442.440954 
L 538.868884 443.411349 
L 540.092741 444.369245 
L 540.459332 445.278483 
L 541.190801 446.124989 
L 541.51997 446.548258 
L 542.652607 447.381459 
L 543.602616 448.153003 
L 544.370387 449.098933 
L 545.302832 450.069607 
L 546.288668 450.654219 
L 547.330187 451.599894 
L 548.134522 452.433654 
L 549.339575 453.055227 
L 550.489743 453.614344 
L 551.403505 454.398364 
L 551.897452 455.244878 
L 552.391344 455.892266 
L 553.523962 456.713247 
L 554.38286 457.6467 
L 554.913381 458.40625 
L 555.863707 459.215007 
L 556.959756 460.035995 
L 557.87314 460.782538 
L 558.604216 461.579077 
L 559.517976 462.400333 
L 560.395139 463.234087 
L 561.381706 464.067583 
L 562.550566 464.93829 
L 563.574153 465.871726 
L 564.213748 466.631043 
L 564.944836 467.365094 
L 565.365875 468.012738 
L 565.622587 468.722597 
L 565.788159 469.432713 
L 565.807286 469.980928 
L 566.319903 470.927141 
L 567.670223 471.299337 
L 568.783698 471.597095 
L 571.391027 472.292166 
L 572.245051 472.651735 
L 572.335148 476.084334 
L 572.339962 505.07324 
L 572.346847 548.226295 
L 572.346854 548.255225 
L 531.340884 521.765468 
L 521.662608 515.513173 
L 518.705777 513.602908 
L 436.086504 434.14672 
L 433.137265 431.310848 
L 372.43705 383.648857 
L 368.116465 380.660126 
L 363.681022 378.252002 
L 358.666392 376.132733 
L 353.332229 374.442412 
L 346.614608 373.007459 
L 339.606093 372.237694 
L 332.940544 372.148592 
L 327.396558 372.546883 
L 320.520844 373.662318 
L 316.086699 374.778248 
L 312.524981 375.9266 
L 307.55279 377.962186 
L 303.853646 379.866865 
L 299.886204 382.38158 
L 296.784168 384.797978 
L 293.543111 387.932532 
L 290.366543 392.010705 
L 289.869561 392.797968 
L 287.596638 396.529447 
L 284.083835 402.296083 
L 280.144025 408.763893 
L 278.890523 410.821834 
L 274.449332 418.102687 
L 273.014851 420.381381 
L 271.69788 422.412002 
L 270.089795 424.817332 
L 267.554417 428.457692 
L 266.102422 430.466056 
L 266.102315 430.466815 
L 263.427264 434.034533 
L 260.654572 437.56732 
L 257.817268 441.026491 
L 254.886557 444.449163 
L 251.898804 447.79518 
L 248.821735 451.103254 
L 245.736653 454.29118 
L 242.568534 457.440942 
L 239.382724 460.491601 
L 236.118973 463.503603 
L 232.246676 466.939195 
L 228.273326 470.32056 
L 225.360908 472.713649 
L 221.00552 476.162899 
L 216.543479 479.54798 
L 210.954762 483.590774 
L 192.041532 489.143226 
L 184.815049 495.240629 
L 165.653146 484.445602 
L 206.606646 443.668062 
L 217.919123 431.015765 
L 225.362836 420.014199 
L 231.741607 407.467471 
L 234.664801 400.830549 
L 236.657069 394.739308 
L 239.257932 384.399379 
L 240.916344 370.125938 
L 241.873054 344.349433 
L 245.318235 333.212433 
L 247.821174 319.867632 
L 248.305716 313.946791 
L 248.607935 309.098937 
L 248.636996 305.740939 
L 248.785359 298.015985 
L 248.965061 288.21473 
L 249.11148 277.194398 
L 249.139362 272.169262 
L 249.317234 265.144908 
L 249.375282 259.528557 
L 249.400208 255.520245 
L 249.520656 252.741626 
L 249.793149 249.233803 
L 250.248299 245.41065 
L 250.977804 242.249089 
L 251.525033 239.647719 
L 252.681364 236.257952 
L 253.926541 233.036009 
L 255.357237 229.7447 
L 258.255951 221.840033 
L 265.472914 207.418902 
L 265.124723 206.158647 
L 265.124126 204.969056 
L 266.283813 202.625609 
L 273.136454 188.673191 
L 277.55852 179.788019 
L 279.509558 177.047859 
L 281.882769 174.415777 
L 284.520088 172.252243 
L 287.104918 170.701586 
L 290.164873 169.583371 
L 293.153301 168.687476 
L 297.427231 168.217894 
L 302.070707 168.144775 
L 306.081163 168.432284 
L 309.511252 168.936223 
L 325.342514 171.275973 
L 334.893994 172.643823 
" style="fill:#1a1a1a;stroke:#ffffff;stroke-linejoin:miter;stroke-width:4;"/>
   </g>
  </g>
 </g>
 <defs>
  <clipPath id="p1e98275b8b">
   <rect height="543.6" width="558" x="90" y="86.4"/>
  </clipPath>
 </defs>
</svg>
