<?xml version="1.0" encoding="utf-8" standalone="no"?>
<!DOCTYPE svg PUBLIC "-//W3C//DTD SVG 1.1//EN"
  "http://www.w3.org/Graphics/SVG/1.1/DTD/svg11.dtd">
<!-- Created with matplotlib (https://matplotlib.org/) -->
<svg height="720pt" version="1.1" viewBox="0 0 720 720" width="720pt" xmlns="http://www.w3.org/2000/svg" xmlns:xlink="http://www.w3.org/1999/xlink">
 <metadata>
  <rdf:RDF xmlns:cc="http://creativecommons.org/ns#" xmlns:dc="http://purl.org/dc/elements/1.1/" xmlns:rdf="http://www.w3.org/1999/02/22-rdf-syntax-ns#">
   <cc:Work>
    <dc:type rdf:resource="http://purl.org/dc/dcmitype/StillImage"/>
    <dc:date>2021-05-07T11:03:03.953096</dc:date>
    <dc:format>image/svg+xml</dc:format>
    <dc:creator>
     <cc:Agent>
      <dc:title>Matplotlib v3.3.3, https://matplotlib.org/</dc:title>
     </cc:Agent>
    </dc:creator>
   </cc:Work>
  </rdf:RDF>
 </metadata>
 <defs>
  <style type="text/css">*{stroke-linecap:butt;stroke-linejoin:round;}</style>
 </defs>
 <g id="figure_1">
  <g id="patch_1">
   <path d="M 0 720 
L 720 720 
L 720 0 
L 0 0 
z
" style="fill:none;"/>
  </g>
  <g id="axes_1">
   <g id="patch_2">
    <path clip-path="url(#p249f4548e2)" d="M 239.900154 274.308518 
L 280.819609 274.580889 
L 301.307077 274.418267 
L 318.273641 274.664641 
L 355.656518 274.869817 
L 363.22573 274.532289 
L 389.812584 274.580615 
L 424.96494 274.649162 
L 486.307779 274.767212 
L 546.88376 274.887009 
L 573.312893 274.940269 
L 573.264791 303.690742 
L 573.036174 440.383687 
L 546.972687 440.42755 
L 542.576327 439.972698 
L 539.104227 439.871676 
L 527.710596 439.784292 
L 502.890118 439.668439 
L 490.157606 439.852279 
L 487.05655 440.071721 
L 482.809868 440.98851 
L 479.532475 442.221806 
L 476.662918 441.373608 
L 473.594945 440.683716 
L 467.66543 440.049778 
L 457.682934 439.777984 
L 453.723106 439.256013 
L 450.054874 438.535183 
L 448.137407 438.141807 
L 445.761161 437.352503 
L 443.176236 436.166824 
L 440.59106 434.584397 
L 434.169205 429.900801 
L 425.477567 422.281113 
L 423.711198 420.174667 
L 421.046234 417.50508 
L 418.246916 415.477551 
L 415.110642 413.611178 
L 411.772268 412.012631 
L 407.692547 410.789864 
L 403.916397 409.780435 
L 400.1406 409.30597 
L 395.050568 409.368828 
L 388.940386 409.918574 
L 384.558292 410.087142 
L 379.232403 410.310929 
L 369.187355 410.703993 
L 363.772074 410.715657 
L 360.569949 411.042595 
L 356.33445 412.013621 
L 356.073863 396.083371 
L 351.39483 394.593914 
L 346.128524 392.982406 
L 341.757827 392.332621 
L 318.863734 392.354102 
L 299.140502 392.365606 
L 281.542601 392.379743 
L 261.715263 392.396082 
L 242.896072 392.350622 
L 224.143007 392.66034 
L 208.943501 392.483612 
L 206.609914 396.137737 
L 185.753677 395.800915 
L 165.049786 397.130798 
L 165.010139 359.039099 
L 164.76956 353.367758 
L 164.718189 304.019699 
L 164.687107 274.178194 
L 205.323423 274.248097 
L 239.900154 274.308518 
" style="stroke:#ffffff;stroke-linejoin:miter;stroke-width:2;"/>
   </g>
  </g>
 </g>
 <defs>
  <clipPath id="p249f4548e2">
   <rect height="543.6" width="558" x="90" y="86.4"/>
  </clipPath>
 </defs>
</svg>
