<?xml version="1.0" encoding="utf-8" standalone="no"?>
<!DOCTYPE svg PUBLIC "-//W3C//DTD SVG 1.1//EN"
  "http://www.w3.org/Graphics/SVG/1.1/DTD/svg11.dtd">
<!-- Created with matplotlib (https://matplotlib.org/) -->
<svg height="720pt" version="1.1" viewBox="0 0 720 720" width="720pt" xmlns="http://www.w3.org/2000/svg" xmlns:xlink="http://www.w3.org/1999/xlink">
 <metadata>
  <rdf:RDF xmlns:cc="http://creativecommons.org/ns#" xmlns:dc="http://purl.org/dc/elements/1.1/" xmlns:rdf="http://www.w3.org/1999/02/22-rdf-syntax-ns#">
   <cc:Work>
    <dc:type rdf:resource="http://purl.org/dc/dcmitype/StillImage"/>
    <dc:date>2021-05-28T08:56:45.900124</dc:date>
    <dc:format>image/svg+xml</dc:format>
    <dc:creator>
     <cc:Agent>
      <dc:title>Matplotlib v3.3.3, https://matplotlib.org/</dc:title>
     </cc:Agent>
    </dc:creator>
   </cc:Work>
  </rdf:RDF>
 </metadata>
 <defs>
  <style type="text/css">*{stroke-linecap:butt;stroke-linejoin:round;}</style>
 </defs>
 <g id="figure_1">
  <g id="patch_1">
   <path d="M 0 720 
L 720 720 
L 720 0 
L 0 0 
z
" style="fill:none;"/>
  </g>
  <g id="axes_1">
   <g id="patch_2">
    <path clip-path="url(#p6015b5af5f)" d="M 590.905166 144.94854 
L 590.23365 157.777427 
L 590.37551 227.50471 
L 590.49255 326.447576 
L 590.414863 434.585658 
L 590.327894 448.104837 
L 590.401844 484.285539 
L 587.922384 483.030756 
L 587.921516 493.202132 
L 579.690604 492.177292 
L 577.449938 483.584394 
L 576.449132 476.018159 
L 567.257211 472.197541 
L 568.220566 467.961027 
L 573.591521 462.488609 
L 573.592617 460.957818 
L 573.070086 460.939415 
L 572.553638 460.884793 
L 572.049205 460.794613 
L 571.562582 460.669886 
L 571.157051 460.566322 
L 570.736727 460.491493 
L 570.306431 460.446291 
L 569.871147 460.431237 
L 569.667805 460.431116 
L 567.824719 460.486889 
L 565.997886 460.654531 
L 564.203388 460.932584 
L 562.457112 461.318578 
L 560.774483 461.809126 
L 559.170357 462.399862 
L 557.658934 463.085577 
L 556.253631 463.860187 
L 558.144371 465.170379 
L 553.684256 471.684919 
L 553.442389 476.078584 
L 556.603489 480.847812 
L 561.496956 483.283865 
L 561.801801 484.900129 
L 559.723753 488.247591 
L 559.963947 489.994983 
L 547.363057 490.697064 
L 542.410651 495.170275 
L 561.254615 501.693075 
L 561.917538 506.514061 
L 573.379935 511.339362 
L 587.907774 513.727015 
L 587.86868 571.45146 
L 580.995756 569.383567 
L 573.717205 569.803281 
L 561.345149 568.903896 
L 559.679124 563.396026 
L 561.180137 553.031917 
L 559.618121 530.667171 
L 558.148697 525.317176 
L 551.992228 517.078792 
L 547.272866 510.764984 
L 546.075336 509.388344 
L 544.623624 508.118542 
L 542.940143 506.975186 
L 541.050847 505.976023 
L 528.222973 500.011456 
L 527.062738 499.436009 
L 525.95946 498.815307 
L 524.917315 498.151713 
L 523.94029 497.447749 
L 523.032073 496.706114 
L 522.196137 495.929593 
L 521.435658 495.121165 
L 520.753568 494.28395 
L 517.724159 495.245489 
L 508.455893 493.269062 
L 508.455867 493.089403 
L 508.455181 490.110934 
L 508.454677 486.938734 
L 502.366926 486.939894 
L 497.127894 483.418566 
L 496.832166 483.824873 
L 496.434075 484.192657 
L 495.945238 484.511186 
L 495.379925 484.771215 
L 502.781291 489.751189 
L 502.782577 492.597456 
L 493.436331 491.810474 
L 487.713693 491.328639 
L 485.167676 490.559073 
L 479.167739 488.745484 
L 472.986232 486.877019 
L 471.416532 486.40237 
L 469.115748 483.201206 
L 466.055273 478.94255 
L 460.890394 477.617215 
L 455.423622 476.214412 
L 449.959353 474.812269 
L 448.487617 474.434622 
L 445.972084 470.075407 
L 444.68214 470.558577 
L 444.679418 477.519068 
L 443.866655 477.638779 
L 438.807667 478.383709 
L 435.345383 478.893675 
L 433.746242 479.33077 
L 428.6849 480.714535 
L 422.43588 482.423004 
L 421.250572 481.493183 
L 420.492983 482.505524 
L 419.623336 483.479304 
L 418.646275 484.409342 
L 417.567014 485.290649 
L 416.016559 486.465429 
L 409.074181 489.981552 
L 401.551015 500.350166 
L 397.103062 502.736707 
L 396.72412 502.916969 
L 396.315641 503.0677 
L 395.883008 503.186826 
L 395.432092 503.272777 
L 395.198187 509.398588 
L 393.424907 511.757002 
L 387.867856 509.376116 
L 383.590827 507.543828 
L 379.54662 505.81129 
L 375.502398 504.078583 
L 372.790349 502.916754 
L 371.336071 502.552351 
L 366.917988 501.44521 
L 362.37364 500.306466 
L 357.829281 499.167907 
L 353.285046 498.029129 
L 347.823953 496.659751 
L 346.399973 496.302681 
L 342.085331 494.847644 
L 337.043092 493.147389 
L 332.001106 491.447144 
L 326.958829 489.746912 
L 321.916696 488.046639 
L 316.172125 485.933328 
L 309.769369 482.762317 
L 303.843022 479.827291 
L 298.903153 477.064856 
L 294.903832 474.447232 
L 290.904487 471.829668 
L 286.90512 469.212112 
L 282.905459 466.594563 
L 278.906045 463.976846 
L 274.239962 460.92318 
L 273.065902 461.676366 
L 272.494632 461.303529 
L 270.81203 460.201456 
L 268.504516 457.815805 
L 265.334396 454.538322 
L 261.314435 451.202375 
L 257.154672 447.750455 
L 253.147895 444.425544 
L 253.147521 443.797631 
L 253.144885 440.578906 
L 245.51453 441.679443 
L 242.60126 442.099618 
L 240.996173 442.331131 
L 239.34981 442.530237 
L 237.84014 442.647123 
L 236.624572 442.6966 
L 235.434452 442.706871 
L 234.104467 442.673745 
L 232.543491 442.574386 
L 228.989676 442.274465 
L 228.286638 442.890258 
L 236.890517 455.115959 
L 241.382641 461.497804 
L 243.18741 467.86308 
L 240.937592 468.48616 
L 246.575841 472.651516 
L 253.20079 477.545824 
L 255.609543 479.325373 
L 257.203827 487.553038 
L 257.355611 488.336692 
L 241.627895 490.077911 
L 235.492664 490.757092 
L 229.373321 486.071154 
L 226.161481 483.611789 
L 221.511759 483.151156 
L 215.037555 482.509815 
L 208.482906 481.860695 
L 201.042898 481.123667 
L 199.674056 480.406921 
L 192.671563 476.7408 
L 189.509528 475.085685 
L 177.632968 468.866913 
L 147.279468 465.115153 
L 147.270581 435.602873 
L 147.268685 430.452106 
L 147.197852 289.174297 
L 147.180257 264.986265 
L 147.175869 258.97504 
L 147.149291 215.640718 
L 147.094866 147.981656 
L 147.094834 146.331074 
L 149.868296 146.331794 
L 156.821425 146.41265 
L 167.901368 146.247327 
L 197.431295 146.231621 
L 228.679026 146.318748 
L 265.865068 146.315991 
L 290.293411 146.328712 
L 312.127164 146.30183 
L 338.815978 146.436596 
L 372.018567 146.502046 
L 396.313184 146.555887 
L 423.444169 146.485204 
L 456.244083 146.36875 
L 489.043973 146.250583 
L 519.211744 146.238623 
L 557.816703 146.364663 
L 564.168986 146.260307 
L 590.905166 144.94854 
" style="fill:#1a1a1a;stroke:#ffffff;stroke-linejoin:miter;stroke-width:4;"/>
   </g>
  </g>
 </g>
 <defs>
  <clipPath id="p6015b5af5f">
   <rect height="543.6" width="558" x="90" y="86.4"/>
  </clipPath>
 </defs>
</svg>
