<?xml version="1.0" encoding="utf-8" standalone="no"?>
<!DOCTYPE svg PUBLIC "-//W3C//DTD SVG 1.1//EN"
  "http://www.w3.org/Graphics/SVG/1.1/DTD/svg11.dtd">
<!-- Created with matplotlib (https://matplotlib.org/) -->
<svg height="720pt" version="1.1" viewBox="0 0 720 720" width="720pt" xmlns="http://www.w3.org/2000/svg" xmlns:xlink="http://www.w3.org/1999/xlink">
 <metadata>
  <rdf:RDF xmlns:cc="http://creativecommons.org/ns#" xmlns:dc="http://purl.org/dc/elements/1.1/" xmlns:rdf="http://www.w3.org/1999/02/22-rdf-syntax-ns#">
   <cc:Work>
    <dc:type rdf:resource="http://purl.org/dc/dcmitype/StillImage"/>
    <dc:date>2021-05-07T11:03:03.872133</dc:date>
    <dc:format>image/svg+xml</dc:format>
    <dc:creator>
     <cc:Agent>
      <dc:title>Matplotlib v3.3.3, https://matplotlib.org/</dc:title>
     </cc:Agent>
    </dc:creator>
   </cc:Work>
  </rdf:RDF>
 </metadata>
 <defs>
  <style type="text/css">*{stroke-linecap:butt;stroke-linejoin:round;}</style>
 </defs>
 <g id="figure_1">
  <g id="patch_1">
   <path d="M 0 720 
L 720 720 
L 720 0 
L 0 0 
z
" style="fill:none;"/>
  </g>
  <g id="axes_1">
   <g id="patch_2">
    <path clip-path="url(#pf30f28c502)" d="M 148.783576 226.975584 
L 151.72111 227.276852 
L 168.463446 213.721011 
L 183.084759 214.781099 
L 185.29461 211.404035 
L 225.27039 214.250088 
L 265.288233 217.105692 
L 305.201731 219.637149 
L 337.651067 222.309677 
L 361.522857 224.154019 
L 400.997095 226.901069 
L 440.988966 230.027221 
L 480.886144 232.678491 
L 480.109282 272.424837 
L 519.542545 275.297708 
L 559.402828 278.204883 
L 585.48159 280.084239 
L 599.364378 280.86282 
L 599.349559 282.411743 
L 598.261055 319.447636 
L 598.211005 322.79513 
L 594.148046 483.032851 
L 593.701813 499.344674 
L 593.601318 504.995965 
L 588.056302 504.58984 
L 575.66357 503.678728 
L 566.994676 503.071625 
L 560.064361 502.537104 
L 551.799967 501.887525 
L 544.618485 501.405913 
L 522.730681 499.780953 
L 496.518063 497.886692 
L 451.578248 494.631962 
L 398.589545 490.747973 
L 388.415008 490.007031 
L 342.301041 486.761441 
L 337.762162 486.421138 
L 326.16199 485.551632 
L 314.797155 484.75194 
L 304.980846 484.039819 
L 256.233481 480.462591 
L 243.634421 479.475262 
L 138.635622 471.823575 
L 139.829085 425.754917 
L 140.406378 406.225501 
L 140.685674 386.182331 
L 141.007499 377.529292 
L 141.161324 370.048037 
L 141.058571 366.047067 
L 141.052327 363.53669 
L 140.864842 360.828416 
L 140.332 357.088874 
L 139.772426 353.048477 
L 139.37216 349.351731 
L 139.171344 346.201323 
L 139.141084 340.870147 
L 139.136407 334.20604 
L 139.206283 326.405159 
L 139.278277 324.15872 
L 139.493542 320.448592 
L 139.962067 315.442535 
L 140.539952 311.025087 
L 141.345309 306.876622 
L 141.762112 304.2353 
L 142.290239 300.761972 
L 142.572467 297.872885 
L 142.665346 295.199307 
L 142.624762 291.358247 
L 142.736427 288.469474 
L 142.890879 287.085064 
L 143.314864 284.521531 
L 143.667724 281.025451 
L 144.251176 267.742865 
L 143.542182 248.147726 
L 148.492882 248.498516 
L 148.735088 238.354337 
L 148.846553 232.207359 
L 148.783576 226.975584 
" style="stroke:#ffffff;stroke-linejoin:miter;stroke-width:2;"/>
   </g>
  </g>
 </g>
 <defs>
  <clipPath id="pf30f28c502">
   <rect height="543.6" width="558" x="90" y="86.4"/>
  </clipPath>
 </defs>
</svg>
