<?xml version="1.0" encoding="utf-8" standalone="no"?>
<!DOCTYPE svg PUBLIC "-//W3C//DTD SVG 1.1//EN"
  "http://www.w3.org/Graphics/SVG/1.1/DTD/svg11.dtd">
<!-- Created with matplotlib (https://matplotlib.org/) -->
<svg height="720pt" version="1.1" viewBox="0 0 720 720" width="720pt" xmlns="http://www.w3.org/2000/svg" xmlns:xlink="http://www.w3.org/1999/xlink">
 <metadata>
  <rdf:RDF xmlns:cc="http://creativecommons.org/ns#" xmlns:dc="http://purl.org/dc/elements/1.1/" xmlns:rdf="http://www.w3.org/1999/02/22-rdf-syntax-ns#">
   <cc:Work>
    <dc:type rdf:resource="http://purl.org/dc/dcmitype/StillImage"/>
    <dc:date>2021-05-28T08:56:50.681020</dc:date>
    <dc:format>image/svg+xml</dc:format>
    <dc:creator>
     <cc:Agent>
      <dc:title>Matplotlib v3.3.3, https://matplotlib.org/</dc:title>
     </cc:Agent>
    </dc:creator>
   </cc:Work>
  </rdf:RDF>
 </metadata>
 <defs>
  <style type="text/css">*{stroke-linecap:butt;stroke-linejoin:round;}</style>
 </defs>
 <g id="figure_1">
  <g id="patch_1">
   <path d="M 0 720 
L 720 720 
L 720 0 
L 0 0 
z
" style="fill:none;"/>
  </g>
  <g id="axes_1">
   <g id="patch_2">
    <path clip-path="url(#p7aedc7e011)" d="M 599.151058 490.588844 
L 594.659434 517.611927 
L 594.51715 518.470561 
L 589.337572 549.632523 
L 588.82774 551.801307 
L 588.03091 553.911266 
L 586.956768 555.936986 
L 585.618181 557.854051 
L 584.031306 559.639405 
L 582.215247 561.271536 
L 580.191873 562.730802 
L 577.985539 563.999596 
L 575.622832 565.062688 
L 573.132206 565.907225 
L 570.543636 566.52309 
L 567.888292 566.902823 
L 565.198175 567.041872 
L 562.505633 566.938551 
L 559.843129 566.594135 
L 557.242713 566.012674 
L 531.698039 559.046725 
L 528.463275 557.949321 
L 525.451783 556.48624 
L 522.72475 554.687201 
L 520.33754 552.588751 
L 518.33866 550.233534 
L 516.768744 547.669382 
L 515.659681 544.948396 
L 515.033991 542.125866 
L 514.406739 539.575086 
L 513.228582 537.158735 
L 511.538158 534.955966 
L 509.390755 533.038968 
L 497.967054 524.529209 
L 496.103063 526.749504 
L 481.366548 518.441271 
L 478.624192 518.325233 
L 461.563328 517.618999 
L 459.028819 517.442226 
L 456.514995 517.123955 
L 454.033598 516.665652 
L 451.596211 516.069485 
L 449.214255 515.338204 
L 446.898851 514.475258 
L 444.660869 513.484681 
L 442.510719 512.371092 
L 440.458487 511.139714 
L 438.513755 509.796297 
L 436.68562 508.34712 
L 434.982651 506.798954 
L 433.492595 506.669265 
L 428.050793 510.212095 
L 427.331183 510.664258 
L 425.580965 511.64594 
L 423.745319 512.516604 
L 398.642382 523.420103 
L 395.701383 524.469035 
L 392.600082 525.139757 
L 389.410425 525.416699 
L 386.206409 525.29346 
L 383.06245 524.772864 
L 380.051474 523.867037 
L 377.243348 522.596989 
L 374.70327 520.992165 
L 372.49016 519.089825 
L 370.655409 516.934133 
L 369.241574 514.575088 
L 368.281498 512.067465 
L 367.797434 509.46944 
L 367.800653 506.841342 
L 368.291053 504.244129 
L 369.257248 501.738082 
L 377.519312 484.937387 
L 378.303647 483.48847 
L 379.20793 482.087244 
L 380.227838 480.740389 
L 381.358538 479.454267 
L 383.566736 477.117738 
L 383.391302 475.894751 
L 382.127764 474.964937 
L 380.940825 473.969688 
L 379.835529 472.913173 
L 378.816599 471.799935 
L 377.88832 470.634691 
L 377.054656 469.422362 
L 376.319156 468.168118 
L 375.684931 466.877294 
L 373.561863 461.809627 
L 371.677971 456.678886 
L 370.036003 451.492634 
L 368.63843 446.258549 
L 368.135345 443.634722 
L 367.891676 440.986223 
L 367.908997 438.330237 
L 368.187205 435.684027 
L 368.562321 433.891862 
L 369.127965 432.133552 
L 369.879747 430.422702 
L 370.811872 428.772521 
L 363.436892 423.179063 
L 356.481822 417.901447 
L 345.427451 404.034918 
L 333.782142 391.537066 
L 322.990872 372.433894 
L 304.649613 345.497626 
L 308.41314 338.704482 
L 287.312519 330.835408 
L 285.405711 330.042832 
L 283.587512 329.121026 
L 281.87096 328.076626 
L 280.268312 326.917077 
L 278.791064 325.650697 
L 277.44977 324.286553 
L 276.254063 322.834396 
L 275.212494 321.304655 
L 274.332509 319.708232 
L 273.620426 318.056612 
L 273.08132 316.361567 
L 272.612903 314.870682 
L 272.002753 313.414608 
L 271.254628 312.002361 
L 270.373209 310.642712 
L 269.363911 309.344112 
L 268.233006 308.114557 
L 266.987521 306.961724 
L 265.635176 305.89274 
L 264.184335 304.914225 
L 262.636122 303.86923 
L 261.19397 302.726955 
L 259.86696 301.494546 
L 258.663455 300.179829 
L 257.591016 298.791045 
L 256.656442 297.336964 
L 255.865613 295.826733 
L 255.223487 294.269877 
L 254.734124 292.676224 
L 254.400618 291.055771 
L 254.225049 289.418762 
L 254.208551 287.775515 
L 253.214549 286.839926 
L 247.648386 286.363542 
L 242.101294 285.755956 
L 236.577879 285.017656 
L 231.082744 284.149281 
L 225.620403 283.151566 
L 220.195459 282.025299 
L 214.812357 280.771422 
L 209.47561 279.391007 
L 204.189638 277.885166 
L 198.958816 276.255178 
L 196.610286 275.419304 
L 194.33166 274.462355 
L 192.1322 273.38827 
L 190.020936 272.201384 
L 188.006416 270.906558 
L 186.096867 269.509053 
L 184.300075 268.014599 
L 182.623371 266.42925 
L 181.073599 264.759491 
L 179.657052 263.01213 
L 178.44336 261.290652 
L 177.359292 259.512081 
L 176.40884 257.682922 
L 175.595531 255.809947 
L 174.922319 253.900041 
L 174.391699 251.960201 
L 174.005609 249.997577 
L 173.691823 248.557551 
L 173.213976 247.148093 
L 172.576338 245.781727 
L 171.784559 244.470563 
L 170.84565 243.226276 
L 169.767956 242.059861 
L 168.561042 240.98171 
L 149.666424 225.625654 
L 148.155594 224.296655 
L 146.777475 222.874166 
L 145.540618 221.367067 
L 144.452793 219.784751 
L 143.520733 218.13706 
L 142.750274 216.434295 
L 142.146215 214.687034 
L 141.712297 212.906182 
L 141.45127 211.102849 
L 141.364733 209.288278 
L 141.374439 193.826025 
L 138.57601 191.565106 
L 143.483658 187.910786 
L 150.533951 187.382876 
L 352.243723 149.358128 
L 355.804675 162.10343 
L 359.387186 173.322152 
L 363.43565 183.648213 
L 367.795093 194.101677 
L 372.932059 204.809901 
L 378.691155 216.027926 
L 387.539549 230.728123 
L 394.215025 240.566459 
L 403.031953 252.433219 
L 416.045967 267.739178 
L 433.466392 286.14036 
L 459.070151 310.904255 
L 479.635697 329.649127 
L 496.382999 343.975643 
L 521.87276 364.771572 
L 537.898039 377.717618 
L 544.570849 383.839937 
L 550.94505 390.370639 
L 556.124018 395.758484 
L 561.004507 401.881292 
L 565.088269 407.432713 
L 569.720209 414.347215 
L 576.931829 424.645759 
L 570.629097 427.897822 
L 567.684527 429.417178 
L 579.440128 446.388571 
L 596.741883 477.315833 
L 597.291206 478.352488 
L 597.496338 478.789469 
L 597.690507 479.220489 
L 598.222527 480.557217 
L 598.734114 482.192414 
L 599.10453 483.852957 
L 599.332 485.530695 
L 599.415349 487.217365 
L 599.403904 488.031788 
L 599.42399 488.135096 
L 599.151058 490.588844 
" style="fill:#1a1a1a;stroke:#ffffff;stroke-linejoin:miter;stroke-width:4;"/>
   </g>
  </g>
 </g>
 <defs>
  <clipPath id="p7aedc7e011">
   <rect height="543.6" width="558" x="90" y="86.4"/>
  </clipPath>
 </defs>
</svg>
