<?xml version="1.0" encoding="utf-8" standalone="no"?>
<!DOCTYPE svg PUBLIC "-//W3C//DTD SVG 1.1//EN"
  "http://www.w3.org/Graphics/SVG/1.1/DTD/svg11.dtd">
<!-- Created with matplotlib (https://matplotlib.org/) -->
<svg height="720pt" version="1.1" viewBox="0 0 720 720" width="720pt" xmlns="http://www.w3.org/2000/svg" xmlns:xlink="http://www.w3.org/1999/xlink">
 <metadata>
  <rdf:RDF xmlns:cc="http://creativecommons.org/ns#" xmlns:dc="http://purl.org/dc/elements/1.1/" xmlns:rdf="http://www.w3.org/1999/02/22-rdf-syntax-ns#">
   <cc:Work>
    <dc:type rdf:resource="http://purl.org/dc/dcmitype/StillImage"/>
    <dc:date>2021-05-07T11:03:07.200386</dc:date>
    <dc:format>image/svg+xml</dc:format>
    <dc:creator>
     <cc:Agent>
      <dc:title>Matplotlib v3.3.3, https://matplotlib.org/</dc:title>
     </cc:Agent>
    </dc:creator>
   </cc:Work>
  </rdf:RDF>
 </metadata>
 <defs>
  <style type="text/css">*{stroke-linecap:butt;stroke-linejoin:round;}</style>
 </defs>
 <g id="figure_1">
  <g id="patch_1">
   <path d="M 0 720 
L 720 720 
L 720 0 
L 0 0 
z
" style="fill:none;"/>
  </g>
  <g id="axes_1">
   <g id="patch_2">
    <path clip-path="url(#p732761fc03)" d="M 257.681743 211.060133 
L 429.529965 211.752704 
L 603.507819 212.502488 
L 602.84393 503.621223 
L 601.826242 503.616237 
L 495.065527 503.807966 
L 490.774655 503.816074 
L 431.886149 503.930111 
L 429.768094 503.748369 
L 427.40235 503.545377 
L 417.704678 503.501854 
L 257.461951 504.554444 
L 226.308752 504.751122 
L 144.479242 505.275165 
L 134.492181 505.339867 
L 135.185678 495.054761 
L 144.257075 459.813084 
L 152.595446 427.690402 
L 152.94311 426.451755 
L 153.728859 425.326123 
L 156.740645 420.901762 
L 157.219163 419.430464 
L 158.698985 415.248068 
L 159.743452 412.227572 
L 162.926478 405.94761 
L 166.544511 398.304841 
L 167.629664 393.815956 
L 169.280763 387.777957 
L 169.798821 384.297332 
L 170.010888 381.050589 
L 169.960552 377.960075 
L 168.881235 364.52204 
L 167.606132 362.026863 
L 166.771256 360.641522 
L 166.768474 359.327907 
L 166.969575 350.904065 
L 167.356456 347.501592 
L 168.817055 334.201354 
L 169.186198 322.415109 
L 169.033097 312.139105 
L 168.81121 310.749684 
L 168.545221 309.206053 
L 168.016163 307.50958 
L 167.794438 306.197409 
L 167.003335 304.811742 
L 165.59754 302.657438 
L 164.807068 301.580884 
L 162.306508 299.39515 
L 158.797771 296.713847 
L 158.095522 295.945795 
L 157.391981 294.559562 
L 156.994609 293.016767 
L 156.553274 291.397012 
L 156.549829 289.774325 
L 156.501951 287.842892 
L 156.933423 284.826447 
L 157.538917 281.267985 
L 159.299544 264.913564 
L 159.354165 249.381772 
L 161.685486 233.680406 
L 163.431977 231.273475 
L 164.035772 222.105029 
L 164.966749 222.108524 
L 164.053075 221.559492 
L 164.032637 211.916348 
L 257.681616 211.305445 
L 257.681743 211.060133 
" style="stroke:#ffffff;stroke-linejoin:miter;stroke-width:2;"/>
   </g>
  </g>
 </g>
 <defs>
  <clipPath id="p732761fc03">
   <rect height="543.6" width="558" x="90" y="86.4"/>
  </clipPath>
 </defs>
</svg>
