<?xml version="1.0" encoding="utf-8" standalone="no"?>
<!DOCTYPE svg PUBLIC "-//W3C//DTD SVG 1.1//EN"
  "http://www.w3.org/Graphics/SVG/1.1/DTD/svg11.dtd">
<!-- Created with matplotlib (https://matplotlib.org/) -->
<svg height="720pt" version="1.1" viewBox="0 0 720 720" width="720pt" xmlns="http://www.w3.org/2000/svg" xmlns:xlink="http://www.w3.org/1999/xlink">
 <metadata>
  <rdf:RDF xmlns:cc="http://creativecommons.org/ns#" xmlns:dc="http://purl.org/dc/elements/1.1/" xmlns:rdf="http://www.w3.org/1999/02/22-rdf-syntax-ns#">
   <cc:Work>
    <dc:type rdf:resource="http://purl.org/dc/dcmitype/StillImage"/>
    <dc:date>2021-05-07T11:03:05.541972</dc:date>
    <dc:format>image/svg+xml</dc:format>
    <dc:creator>
     <cc:Agent>
      <dc:title>Matplotlib v3.3.3, https://matplotlib.org/</dc:title>
     </cc:Agent>
    </dc:creator>
   </cc:Work>
  </rdf:RDF>
 </metadata>
 <defs>
  <style type="text/css">*{stroke-linecap:butt;stroke-linejoin:round;}</style>
 </defs>
 <g id="figure_1">
  <g id="patch_1">
   <path d="M 0 720 
L 720 720 
L 720 0 
L 0 0 
z
" style="fill:none;"/>
  </g>
  <g id="axes_1">
   <g id="patch_2">
    <path clip-path="url(#p38bf06fc80)" d="M 565.877481 497.362219 
L 491.941509 573.308518 
L 454.921214 540.350932 
L 440.464404 527.555995 
L 428.596536 518.625215 
L 416.7277 509.362943 
L 406.596855 502.869135 
L 390.995747 493.509598 
L 374.554262 485.07787 
L 353.75634 474.53909 
L 333.378991 463.999895 
L 319.886265 456.488831 
L 293.457849 439.508039 
L 213.636082 389.264705 
L 127.917297 335.592497 
L 139.618947 319.230162 
L 145.69625 309.709212 
L 161.733754 279.347591 
L 169.718675 266.052278 
L 180.630343 252.497751 
L 199.949638 228.421719 
L 216.340565 209.055681 
L 242.66018 182.10556 
L 252.611144 171.197854 
L 263.056056 158.251059 
L 274.325338 143.091482 
L 288.320937 157.640755 
L 295.74463 165.011008 
L 302.487949 170.454526 
L 309.950301 175.520404 
L 320.241928 182.032304 
L 383.979301 221.041447 
L 410.218622 237.080328 
L 419.737309 243.231828 
L 424.25555 246.202238 
L 428.597447 249.309124 
L 448.569518 263.800341 
L 468.461002 277.342736 
L 509.448479 302.811889 
L 558.437503 332.800816 
L 610.082703 364.735482 
L 608.159293 370.683001 
L 606.360415 376.944049 
L 604.964891 383.58363 
L 603.572851 391.929894 
L 602.783413 399.658773 
L 602.305305 412.009357 
L 602.23567 427.274786 
L 601.948403 434.481271 
L 600.859237 441.761654 
L 599.440527 447.756055 
L 597.070962 455.250148 
L 594.541832 462.444938 
L 591.058855 469.641444 
L 586.145076 476.840576 
L 581.585175 482.129193 
L 576.74564 486.706786 
L 565.877481 497.362219 
" style="stroke:#ffffff;stroke-linejoin:miter;stroke-width:2;"/>
   </g>
  </g>
 </g>
 <defs>
  <clipPath id="p38bf06fc80">
   <rect height="543.6" width="558" x="90" y="86.4"/>
  </clipPath>
 </defs>
</svg>
