<?xml version="1.0" encoding="utf-8" standalone="no"?>
<!DOCTYPE svg PUBLIC "-//W3C//DTD SVG 1.1//EN"
  "http://www.w3.org/Graphics/SVG/1.1/DTD/svg11.dtd">
<!-- Created with matplotlib (https://matplotlib.org/) -->
<svg height="720pt" version="1.1" viewBox="0 0 720 720" width="720pt" xmlns="http://www.w3.org/2000/svg" xmlns:xlink="http://www.w3.org/1999/xlink">
 <metadata>
  <rdf:RDF xmlns:cc="http://creativecommons.org/ns#" xmlns:dc="http://purl.org/dc/elements/1.1/" xmlns:rdf="http://www.w3.org/1999/02/22-rdf-syntax-ns#">
   <cc:Work>
    <dc:type rdf:resource="http://purl.org/dc/dcmitype/StillImage"/>
    <dc:date>2021-05-28T08:56:52.411238</dc:date>
    <dc:format>image/svg+xml</dc:format>
    <dc:creator>
     <cc:Agent>
      <dc:title>Matplotlib v3.3.3, https://matplotlib.org/</dc:title>
     </cc:Agent>
    </dc:creator>
   </cc:Work>
  </rdf:RDF>
 </metadata>
 <defs>
  <style type="text/css">*{stroke-linecap:butt;stroke-linejoin:round;}</style>
 </defs>
 <g id="figure_1">
  <g id="patch_1">
   <path d="M 0 720 
L 720 720 
L 720 0 
L 0 0 
z
" style="fill:none;"/>
  </g>
  <g id="axes_1">
   <g id="patch_2">
    <path clip-path="url(#pbcbe37f1ff)" d="M 272.994661 142.924344 
L 286.301618 161.642112 
L 299.660208 178.657688 
L 311.302233 191.619591 
L 326.732169 206.813741 
L 340.024766 219.091877 
L 357.202521 233.648526 
L 374.456843 246.838664 
L 394.283833 260.646351 
L 414.057647 272.987279 
L 427.277238 280.544747 
L 433.230318 283.737019 
L 442.462344 288.694465 
L 458.136916 296.365903 
L 487.156378 310.198674 
L 502.67774 318.754737 
L 517.58143 328.19593 
L 530.315668 337.76762 
L 542.122682 348.351217 
L 554.087202 359.944671 
L 565.8739 372.741189 
L 575.444701 385.371789 
L 584.355447 399.991265 
L 589.48368 410.100475 
L 594.171019 421.204291 
L 597.861651 432.761672 
L 600.551337 443.236737 
L 602.127296 451.906942 
L 603.939073 465.726362 
L 604.246784 476.883346 
L 602.615557 508.732747 
L 602.765136 573.475656 
L 598.009477 570.12137 
L 593.898566 566.422289 
L 588.667053 561.935348 
L 582.166802 557.025404 
L 573.205455 551.937728 
L 564.098972 548.308686 
L 555.070702 546.016374 
L 547.239422 545.180205 
L 539.706931 545.283328 
L 536.381645 534.172476 
L 534.088938 526.424242 
L 532.800181 523.936991 
L 530.328027 521.371652 
L 527.265131 519.128652 
L 512.313386 512.048033 
L 471.695242 493.117098 
L 469.203759 491.391322 
L 466.255153 489.574691 
L 464.233318 488.474659 
L 462.182207 487.66905 
L 460.192195 487.157709 
L 458.021588 486.720296 
L 455.82159 486.528257 
L 453.742443 486.458652 
L 451.874581 486.511307 
L 451.09039 486.635621 
L 449.360917 482.184079 
L 448.203041 480.309694 
L 446.770997 478.525205 
L 446.227557 477.827142 
L 445.614394 477.097626 
L 423.215405 462.314352 
L 418.54551 459.274611 
L 417.464319 460.358991 
L 412.55821 457.217309 
L 396.738422 445.080326 
L 375.712021 431.377406 
L 336.901687 406.588327 
L 326.942723 399.613136 
L 302.125954 378.272072 
L 261.157954 341.275214 
L 261.227711 336.565041 
L 261.228151 323.210559 
L 261.223073 321.568202 
L 262.082082 321.409677 
L 263.308174 321.2686 
L 263.306242 318.82802 
L 263.305175 312.106922 
L 263.30089 299.919271 
L 259.120269 299.92093 
L 259.126384 296.512416 
L 259.18799 262.465989 
L 217.36755 262.478652 
L 217.358894 262.478654 
L 217.418518 250.566166 
L 217.487434 228.442916 
L 175.609316 228.452721 
L 175.619425 194.405182 
L 133.753216 194.44427 
L 133.776117 162.169466 
L 133.797888 161.306179 
L 175.629257 161.303364 
L 259.338871 161.301717 
L 261.430841 161.485947 
L 261.450566 148.534805 
L 272.994661 142.924344 
" style="fill:#1a1a1a;stroke:#ffffff;stroke-linejoin:miter;stroke-width:4;"/>
   </g>
  </g>
 </g>
 <defs>
  <clipPath id="pbcbe37f1ff">
   <rect height="543.6" width="558" x="90" y="86.4"/>
  </clipPath>
 </defs>
</svg>
