<?xml version="1.0" encoding="utf-8" standalone="no"?>
<!DOCTYPE svg PUBLIC "-//W3C//DTD SVG 1.1//EN"
  "http://www.w3.org/Graphics/SVG/1.1/DTD/svg11.dtd">
<!-- Created with matplotlib (https://matplotlib.org/) -->
<svg height="720pt" version="1.1" viewBox="0 0 720 720" width="720pt" xmlns="http://www.w3.org/2000/svg" xmlns:xlink="http://www.w3.org/1999/xlink">
 <metadata>
  <rdf:RDF xmlns:cc="http://creativecommons.org/ns#" xmlns:dc="http://purl.org/dc/elements/1.1/" xmlns:rdf="http://www.w3.org/1999/02/22-rdf-syntax-ns#">
   <cc:Work>
    <dc:type rdf:resource="http://purl.org/dc/dcmitype/StillImage"/>
    <dc:date>2021-05-07T11:03:03.070299</dc:date>
    <dc:format>image/svg+xml</dc:format>
    <dc:creator>
     <cc:Agent>
      <dc:title>Matplotlib v3.3.3, https://matplotlib.org/</dc:title>
     </cc:Agent>
    </dc:creator>
   </cc:Work>
  </rdf:RDF>
 </metadata>
 <defs>
  <style type="text/css">*{stroke-linecap:butt;stroke-linejoin:round;}</style>
 </defs>
 <g id="figure_1">
  <g id="patch_1">
   <path d="M 0 720 
L 720 720 
L 720 0 
L 0 0 
z
" style="fill:none;"/>
  </g>
  <g id="axes_1">
   <g id="patch_2">
    <path clip-path="url(#pbe5f6bafea)" d="M 482.818051 157.634684 
L 485.898438 157.87697 
L 488.687567 157.58075 
L 491.152294 156.622748 
L 492.213917 158.32814 
L 493.17957 159.976763 
L 509.23179 159.974834 
L 511.847201 159.970001 
L 511.895499 192.183508 
L 510.996805 192.839905 
L 510.136659 193.367584 
L 509.152349 193.830517 
L 508.483798 194.128428 
L 507.577046 194.455193 
L 506.720106 194.792951 
L 505.775138 195.150731 
L 504.7904 195.645459 
L 503.879007 196.235731 
L 503.015639 196.953525 
L 502.504128 197.601434 
L 501.701773 198.414782 
L 501.050577 199.177302 
L 500.3493 199.949631 
L 499.762588 200.596773 
L 499.288559 201.234885 
L 498.926337 201.937525 
L 498.675909 202.694097 
L 498.199382 203.490361 
L 498.012059 204.216333 
L 498.125374 204.924618 
L 497.863994 205.596835 
L 497.514809 206.267881 
L 497.102077 206.991136 
L 496.690244 207.661403 
L 496.226521 208.43665 
L 495.727364 209.095563 
L 494.987437 209.920083 
L 494.272928 210.734607 
L 493.872298 211.489437 
L 493.499338 212.075932 
L 492.764512 212.605157 
L 491.831896 212.963143 
L 491.032134 213.63954 
L 490.307783 214.284933 
L 489.706673 215.048039 
L 488.931812 215.713839 
L 488.081714 216.389449 
L 487.147073 216.884769 
L 486.301838 217.275515 
L 485.506634 217.656245 
L 484.547085 218.151173 
L 483.691315 218.415156 
L 482.935707 218.680322 
L 482.645794 218.792964 
L 482.07856 219.02867 
L 481.284541 219.346212 
L 480.477488 219.695163 
L 479.597732 219.906182 
L 478.819958 219.991609 
L 477.943192 220.023324 
L 477.102549 220.129169 
L 476.299619 220.235606 
L 475.359762 220.287511 
L 474.471585 220.245036 
L 473.596183 220.181563 
L 472.758308 220.12928 
L 472.119761 220.132117 
L 471.431859 220.092172 
L 470.580926 220.071277 
L 469.692723 220.028825 
L 468.766134 220.03875 
L 467.815543 219.984904 
L 467.214732 219.988106 
L 466.350777 219.988211 
L 465.461199 220.030334 
L 464.746761 220.074362 
L 464.195552 220.099361 
L 463.331155 220.14165 
L 462.50329 220.226526 
L 461.525231 220.32024 
L 460.760505 220.384906 
L 460.158539 220.451488 
L 459.318341 220.536376 
L 458.390377 220.630672 
L 457.426051 220.640034 
L 456.500126 220.607784 
L 455.611469 220.596925 
L 454.759873 220.618221 
L 453.87968 220.850243 
L 453.565548 220.920336 
L 452.779032 221.533594 
L 452.029123 222.210404 
L 451.402679 223.004715 
L 451.002526 223.717582 
L 450.500874 224.524045 
L 450.038358 225.246525 
L 449.65312 225.832835 
L 449.202212 226.587097 
L 448.890567 227.269342 
L 448.528398 227.961397 
L 448.139465 228.769215 
L 447.893009 229.293897 
L 447.578823 230.113078 
L 447.327984 230.901451 
L 447.028918 231.562697 
L 446.69143 232.286731 
L 446.478327 233.054499 
L 446.290137 233.843648 
L 446.00133 234.642236 
L 445.674839 235.46122 
L 445.440693 235.986099 
L 445.068027 236.56201 
L 444.692819 237.296051 
L 444.367938 238.020282 
L 443.943352 238.711562 
L 443.517402 239.476817 
L 443.143118 240.158287 
L 442.944181 240.831103 
L 442.806748 241.557663 
L 442.706338 242.326786 
L 442.592701 243.148493 
L 442.46191 243.484606 
L 442.097664 244.30321 
L 441.835629 245.00723 
L 441.83975 245.524231 
L 441.828273 246.209952 
L 441.690143 246.989291 
L 441.454885 247.587938 
L 441.141409 248.375535 
L 441.004887 249.059912 
L 440.891238 249.871022 
L 440.770265 250.365464 
L 440.609287 251.017883 
L 440.43276 251.838815 
L 440.306522 252.660325 
L 440.219148 253.39806 
L 440.14369 254.177988 
L 440.122851 254.673588 
L 439.947014 255.473532 
L 439.745578 256.294278 
L 439.595792 257.020433 
L 439.558719 257.74815 
L 439.459001 258.475112 
L 439.385372 259.13907 
L 439.196944 259.92822 
L 439.072341 260.654768 
L 439.096979 261.425465 
L 439.109053 262.206541 
L 439.161597 262.808673 
L 439.149681 263.536576 
L 439.125665 264.232697 
L 438.987759 264.990863 
L 438.875268 265.738803 
L 438.915247 266.351335 
L 439.052816 267.102191 
L 439.093716 267.661945 
L 439.280444 268.476736 
L 439.258232 269.056908 
L 439.29502 269.859365 
L 439.331782 270.661843 
L 439.359649 271.252984 
L 439.500214 271.835111 
L 439.616114 272.395837 
L 439.668657 272.997969 
L 439.671134 273.599522 
L 439.624011 274.179322 
L 439.526356 274.779717 
L 439.414074 275.516873 
L 439.766093 276.175487 
L 440.165662 276.992812 
L 440.115324 277.762515 
L 440.114131 278.585598 
L 440.138782 279.366892 
L 440.215535 280.021989 
L 440.490968 280.774594 
L 440.76526 281.601173 
L 441.004346 282.279399 
L 441.331452 282.937621 
L 441.595447 283.616054 
L 441.895568 284.390039 
L 442.158434 285.153045 
L 442.311769 285.714153 
L 442.561136 286.529742 
L 442.823767 287.303345 
L 443.187671 288.004131 
L 443.527118 288.673148 
L 443.728246 289.371979 
L 443.827869 290.154038 
L 443.861919 290.36554 
L 444.049341 291.148768 
L 444.611895 291.947041 
L 445.075473 292.680779 
L 445.016925 293.197192 
L 444.957209 293.766198 
L 445.081753 294.559247 
L 445.346443 295.206076 
L 445.69709 295.959674 
L 446.359966 296.737891 
L 446.673112 297.48051 
L 446.872408 298.2955 
L 447.34695 299.124189 
L 447.611184 299.802831 
L 447.775508 300.45912 
L 448.290739 301.087879 
L 448.730285 301.758055 
L 449.24392 302.492374 
L 449.621533 303.119571 
L 450.1722 303.886086 
L 450.661378 304.588406 
L 451.286096 305.408466 
L 451.826479 306.03762 
L 452.390862 306.730545 
L 452.990889 307.529204 
L 453.568057 308.211521 
L 454.170146 308.883634 
L 455.046102 309.654001 
L 455.762751 310.232529 
L 456.518224 310.716645 
L 457.469851 311.456214 
L 458.322036 312.152422 
L 458.927572 312.624224 
L 459.654251 313.339867 
L 460.556276 314.057871 
L 461.497373 314.681484 
L 462.327617 315.187377 
L 463.293411 315.821774 
L 464.260827 316.371621 
L 465.17975 316.815516 
L 465.962692 317.162492 
L 466.783564 317.489071 
L 467.514573 317.941256 
L 468.35761 318.426361 
L 469.202245 318.826895 
L 470.034302 319.227461 
L 470.867281 319.575227 
L 471.694984 320.229095 
L 472.472156 320.924336 
L 473.341242 321.357059 
L 474.226113 321.589478 
L 475.198781 321.822841 
L 476.006133 322.191411 
L 476.774204 322.686144 
L 477.752991 323.288976 
L 478.545255 323.826079 
L 479.436034 324.459534 
L 480.315847 324.997809 
L 481.135576 325.387773 
L 482.091749 325.85307 
L 483.045622 326.45572 
L 483.83419 327.203944 
L 484.387563 327.812112 
L 485.31469 328.50933 
L 486.269247 329.069571 
L 487.031992 329.880801 
L 491.413482 335.769462 
L 496.077438 340.209009 
L 502.130559 346.074279 
L 507.863259 350.431507 
L 508.563818 351.214125 
L 509.339542 351.975672 
L 509.502023 352.155483 
L 511.587479 354.120187 
L 515.283805 356.823242 
L 517.861588 358.446807 
L 521.503786 359.641191 
L 522.065083 361.319927 
L 522.249114 361.436034 
L 525.758259 363.353569 
L 528.501183 364.444655 
L 530.138208 364.889637 
L 535.639566 366.812346 
L 538.865932 368.10806 
L 540.940192 368.499709 
L 543.384041 369.151732 
L 544.503087 369.450287 
L 547.717039 370.4316 
L 551.850873 371.973873 
L 553.776745 372.479488 
L 555.341807 373.157823 
L 560.685747 374.279445 
L 563.153665 375.301953 
L 565.637165 375.845264 
L 568.525893 376.573294 
L 573.257406 378.831446 
L 575.364461 379.975944 
L 576.496054 380.421358 
L 577.19484 381.201807 
L 578.519761 382.346931 
L 579.380377 382.851638 
L 580.181122 383.560631 
L 580.931996 384.19569 
L 581.845449 384.915608 
L 582.671428 385.677361 
L 583.547184 386.428686 
L 584.285275 387.127133 
L 585.098804 387.783339 
L 586.04997 388.49284 
L 586.838307 389.117275 
L 587.801659 389.921728 
L 588.539959 390.567191 
L 589.315645 391.371169 
L 589.853267 392.068945 
L 590.391087 392.745527 
L 590.966203 393.453852 
L 591.391292 394.077536 
L 591.816274 394.827765 
L 592.266114 395.535773 
L 592.666118 396.222645 
L 593.203946 396.909826 
L 593.829188 397.681696 
L 594.191472 398.37878 
L 594.528624 399.118274 
L 594.715659 399.66732 
L 594.927774 400.374891 
L 595.102019 401.156071 
L 595.276204 401.905438 
L 595.425317 402.728819 
L 595.474488 403.488466 
L 595.548554 404.237703 
L 595.635314 404.871004 
L 595.772016 405.620401 
L 595.796236 406.11638 
L 596.021057 406.697209 
L 596.095088 407.414862 
L 596.006317 408.089838 
L 595.967745 408.891527 
L 595.95401 409.630049 
L 596.003133 410.347515 
L 595.739115 411.074783 
L 595.562591 411.781204 
L 595.461339 412.519379 
L 595.096933 413.246311 
L 595.133504 413.98498 
L 595.232675 414.692017 
L 595.24367 415.382811 
L 595.181163 415.968395 
L 594.97989 416.681817 
L 594.677541 417.352742 
L 594.526489 417.810625 
L 593.773215 418.992592 
L 593.321012 419.708788 
L 592.467966 420.508187 
L 591.577438 421.307636 
L 590.649171 422.096518 
L 589.884104 422.622 
L 589.269214 423.369266 
L 588.416384 424.137103 
L 587.676415 424.609996 
L 586.760693 425.388252 
L 585.945562 426.10349 
L 584.980196 426.58612 
L 584.165371 426.932092 
L 583.325804 426.982605 
L 582.699306 427.044191 
L 582.034364 427.812715 
L 581.20714 428.095343 
L 580.342575 428.061306 
L 579.440201 428.396545 
L 578.512474 428.794994 
L 577.597198 429.478316 
L 576.907435 429.877387 
L 576.03046 429.991123 
L 575.191189 429.862109 
L 574.339015 430.123774 
L 573.474066 430.406207 
L 572.60927 430.604299 
L 571.795047 430.602227 
L 570.9806 430.64215 
L 570.116179 430.734872 
L 569.201302 430.91179 
L 568.349095 431.120471 
L 567.484499 431.297558 
L 566.782655 431.453964 
L 566.09347 431.684127 
L 565.404213 431.872295 
L 564.614432 432.112928 
L 563.849978 432.290144 
L 563.18585 432.457119 
L 562.245744 432.781801 
L 561.518857 433.032983 
L 560.791945 433.284372 
L 559.964731 433.566991 
L 559.187818 433.628085 
L 558.273053 433.899971 
L 557.408148 434.214226 
L 556.580586 434.644608 
L 555.991696 434.81192 
L 555.101767 435.020432 
L 554.149186 435.429492 
L 553.321675 435.880863 
L 552.556888 436.216442 
L 551.804865 436.478226 
L 550.865139 436.69717 
L 550.175888 436.885345 
L 549.511531 437.041728 
L 548.63444 437.261038 
L 548.032916 437.396572 
L 547.318502 437.552997 
L 546.641768 437.66719 
L 545.977809 437.760406 
L 545.000194 438.053151 
L 544.047595 438.441023 
L 543.295563 438.713429 
L 542.767097 438.927387 
L 542.493313 439.038218 
L 541.837547 439.521621 
L 541.240144 439.872654 
L 540.369969 440.355401 
L 539.434832 440.849132 
L 538.889349 441.145349 
L 537.74639 441.726898 
L 537.226798 441.95737 
L 536.226648 442.396383 
L 535.447317 442.769469 
L 533.979596 443.471786 
L 533.317097 443.73525 
L 532.301214 444.085883 
L 531.423822 444.46352 
L 530.584073 444.788368 
L 529.744313 445.081424 
L 528.854137 445.490678 
L 528.051711 445.889449 
L 527.111701 446.277343 
L 526.271942 446.570401 
L 525.657936 446.758732 
L 525.047499 447.046614 
L 524.424002 447.321 
L 523.226056 447.744019 
L 522.248556 448.121329 
L 521.383808 448.361631 
L 520.406222 448.664968 
L 519.754318 448.916523 
L 518.825183 449.341337 
L 518.123692 449.593869 
L 517.285102 449.806869 
L 516.320132 450.141803 
L 515.467975 450.371689 
L 514.52785 450.675227 
L 513.625465 450.968344 
L 512.823233 451.29317 
L 512.021051 451.660366 
L 511.093553 451.984882 
L 510.44185 452.215433 
L 509.677235 452.445477 
L 508.762583 452.58027 
L 508.010985 452.57818 
L 507.159063 452.586585 
L 506.519925 452.806343 
L 505.918477 452.973685 
L 505.254099 453.119698 
L 504.414524 453.3496 
L 503.574923 453.558286 
L 502.634829 453.861832 
L 501.870413 454.070892 
L 501.143726 454.258913 
L 500.178627 454.47791 
L 499.514473 454.602731 
L 498.574772 454.821895 
L 497.659928 454.998877 
L 496.695051 455.196661 
L 495.805189 455.458194 
L 494.840167 455.740571 
L 494.075925 455.865043 
L 493.462026 455.94785 
L 492.74774 455.988146 
L 492.046264 456.01802 
L 491.3322 456.058317 
L 490.417686 456.09814 
L 489.803673 456.085988 
L 489.127153 456.158045 
L 488.425614 456.156337 
L 487.586271 456.164742 
L 486.721959 456.120162 
L 485.907718 456.107559 
L 485.018084 456.126377 
L 484.354298 456.12466 
L 483.602664 456.090997 
L 482.6758 455.909122 
L 481.849127 455.790975 
L 480.959808 455.68325 
L 480.421249 455.65005 
L 479.544505 455.521121 
L 478.742894 455.350382 
L 477.954092 455.14782 
L 477.002231 454.892204 
L 476.225589 454.774016 
L 475.286274 454.697714 
L 474.43438 454.727104 
L 473.58241 454.71454 
L 473.281795 454.692566 
L 472.455289 454.511026 
L 471.553286 454.498071 
L 470.714034 454.37994 
L 469.875201 454.019089 
L 469.023529 453.826975 
L 468.159436 453.761439 
L 467.21981 453.653558 
L 466.430887 453.556373 
L 465.591634 453.438224 
L 465.028001 453.289083 
L 464.489691 453.097739 
L 463.662911 452.916204 
L 463.061875 452.830265 
L 462.397802 452.81796 
L 461.420889 452.667705 
L 460.506634 452.53882 
L 459.667473 452.336103 
L 458.690689 452.090889 
L 457.976481 452.015233 
L 457.350265 451.908123 
L 456.448483 451.715853 
L 455.772391 451.555801 
L 455.308742 451.501973 
L 454.394472 451.362265 
L 453.605586 451.117742 
L 452.791586 450.904617 
L 451.989943 450.733664 
L 451.225767 450.731613 
L 450.586961 450.61392 
L 449.92325 450.496249 
L 449.058662 450.472885 
L 448.194514 450.386144 
L 447.355361 450.173024 
L 446.466123 449.938567 
L 445.702475 449.567273 
L 444.938632 449.238348 
L 444.049433 449.035476 
L 443.523512 448.897115 
L 442.547003 448.482998 
L 441.595321 448.005878 
L 440.91912 447.761469 
L 440.142933 447.442968 
L 439.278637 447.240285 
L 438.464888 446.837226 
L 437.751371 446.529496 
L 436.799469 446.273677 
L 436.03566 445.976361 
L 435.334205 445.86912 
L 434.444772 445.87737 
L 433.54279 445.90662 
L 432.590886 445.651011 
L 431.789389 445.406302 
L 430.950563 445.066459 
L 430.865963 445.031147 
L 429.878528 449.703408 
L 428.926709 454.12155 
L 428.399791 455.679999 
L 427.765865 457.715384 
L 426.443694 460.960731 
L 425.227044 463.736147 
L 424.327923 465.88481 
L 423.788266 467.322753 
L 411.646436 468.948017 
L 409.649091 481.496065 
L 399.965724 480.400039 
L 398.928411 486.770002 
L 384.003736 485.05612 
L 371.520618 476.927665 
L 355.498125 471.044088 
L 351.121573 471.443226 
L 344.907768 472.010019 
L 340.687631 472.390317 
L 339.640401 472.484695 
L 339.640053 472.593599 
L 330.430054 477.97343 
L 320.543376 483.74709 
L 319.892789 482.957674 
L 314.826812 482.957791 
L 313.152501 483.654061 
L 306.951683 491.685823 
L 300.64661 495.06335 
L 295.564654 497.37714 
L 290.121747 499.488665 
L 285.521039 501.014443 
L 283.955164 498.093819 
L 270.933511 495.832887 
L 265.247715 498.466508 
L 240.544518 515.519955 
L 172.616103 560.657426 
L 172.39823 560.485087 
L 171.623446 559.933185 
L 170.711406 559.285845 
L 169.761299 558.72293 
L 168.823908 558.107202 
L 167.961878 557.417836 
L 167.187495 556.823754 
L 167.01269 556.664565 
L 166.188748 555.890796 
L 165.60297 555.107236 
L 164.917055 554.302152 
L 164.155148 553.644682 
L 163.44393 552.903023 
L 162.882907 552.203988 
L 162.297094 551.399422 
L 161.83678 550.59495 
L 161.463679 549.907143 
L 161.090944 549.134994 
L 160.830323 548.479067 
L 160.620185 547.781341 
L 160.472699 547.083734 
L 160.325585 546.322772 
L 160.103237 545.54028 
L 160.043273 544.853593 
L 160.07131 544.135456 
L 160.061327 543.564871 
L 160.051463 542.909943 
L 160.091502 542.318754 
L 160.358088 541.516809 
L 160.323258 540.819518 
L 160.138649 540.047791 
L 159.891166 539.275902 
L 159.756348 538.49394 
L 159.884753 537.786501 
L 160.213929 536.974327 
L 160.505452 536.193571 
L 160.756823 535.618135 
L 161.275876 534.802018 
L 161.654384 534.148337 
L 162.008394 533.452293 
L 162.336515 532.904225 
L 162.702655 532.239939 
L 162.968331 531.64934 
L 163.247075 530.91078 
L 163.463399 530.129896 
L 163.603428 529.62338 
L 163.794776 528.81071 
L 164.023691 528.040411 
L 164.251612 527.42845 
L 164.731433 526.606143 
L 165.386193 525.847857 
L 165.740169 525.109632 
L 166.056307 524.476798 
L 166.209033 523.885884 
L 166.424659 523.295131 
L 166.7036 522.503792 
L 166.99494 521.776024 
L 167.24822 521.153647 
L 167.539586 520.42565 
L 167.805204 519.79287 
L 168.058517 519.191688 
L 168.147349 518.906711 
L 168.388797 518.104815 
L 168.567272 517.418726 
L 168.733301 516.637689 
L 168.962381 515.825209 
L 169.177995 515.223838 
L 169.431644 514.51689 
L 169.710254 513.831318 
L 169.838398 513.12388 
L 170.129935 512.343333 
L 170.358053 511.710365 
L 169.633001 511.295969 
L 168.845811 510.733484 
L 168.723189 510.025482 
L 169.139698 509.38236 
L 169.44358 508.612398 
L 169.509127 507.926013 
L 169.587599 507.144634 
L 169.615802 506.384315 
L 169.656604 505.623775 
L 169.785164 504.863766 
L 169.913318 504.145938 
L 170.017125 503.32235 
L 170.132376 502.731289 
L 170.297754 502.171967 
L 170.45047 501.570456 
L 170.666071 500.958509 
L 171.045568 500.146493 
L 171.487704 499.32402 
L 171.815673 498.828733 
L 172.118618 498.269867 
L 172.484864 497.647787 
L 172.850839 497.025914 
L 173.191904 496.382666 
L 173.545718 495.70782 
L 174.088017 494.917449 
L 174.466227 494.379928 
L 174.932897 493.652806 
L 175.287074 492.872194 
L 175.627989 492.29251 
L 176.119644 491.618142 
L 176.762089 490.849069 
L 177.542556 490.038312 
L 177.944931 489.680506 
L 178.787854 488.933455 
L 179.241802 488.269538 
L 179.633479 487.499692 
L 179.949606 486.845875 
L 180.416482 486.086963 
L 181.146524 485.371201 
L 182.077197 484.582107 
L 182.895343 483.750326 
L 183.638116 482.971197 
L 184.242268 482.328921 
L 185.085002 481.613458 
L 185.789914 480.908136 
L 186.16743 480.560747 
L 187.110647 479.761232 
L 187.827569 479.172053 
L 188.63206 478.604373 
L 189.561816 478.036997 
L 190.517469 477.29025 
L 191.398122 476.532798 
L 192.128146 475.795868 
L 192.770234 475.121971 
L 193.537372 474.469553 
L 194.430743 473.638115 
L 195.336363 472.901813 
L 195.902463 472.364932 
L 196.581868 471.744005 
L 197.412211 470.975783 
L 197.757641 470.669199 
L 194.039682 461.621571 
L 191.090494 461.296146 
L 186.322498 460.772124 
L 184.064952 459.866309 
L 182.594761 457.990236 
L 181.740019 455.998792 
L 183.760488 445.786869 
L 171.187709 437.920775 
L 153.573023 388.98302 
L 143.994057 388.972712 
L 143.989213 386.163981 
L 142.23406 381.835757 
L 142.067912 377.832962 
L 142.033661 363.066683 
L 142.015303 350.96128 
L 141.933052 315.779856 
L 141.92105 307.860488 
L 141.904912 297.196889 
L 154.126156 297.280269 
L 158.518148 297.310257 
L 166.770281 296.953844 
L 171.257884 296.98036 
L 178.613803 297.02384 
L 183.413238 297.052203 
L 191.528256 297.043683 
L 196.208654 296.910549 
L 203.054923 296.715826 
L 208.445369 296.562541 
L 215.869649 294.468916 
L 220.235997 293.612527 
L 230.773564 290.777965 
L 243.523016 287.170532 
L 247.471174 286.061328 
L 250.75879 285.322463 
L 251.806062 285.013167 
L 252.779909 284.457361 
L 253.583103 283.840097 
L 254.093988 283.284758 
L 254.604611 282.544486 
L 254.726627 282.170256 
L 255.979999 279.333267 
L 255.929617 277.71984 
L 256.013537 275.593864 
L 256.21404 273.956455 
L 256.548508 272.124377 
L 257.736477 266.267772 
L 258.571689 262.699324 
L 258.859793 261.526116 
L 259.177371 260.719422 
L 259.630999 260.091935 
L 262.789055 260.964439 
L 266.500476 261.771108 
L 268.223812 262.108438 
L 270.57141 262.545926 
L 273.092717 262.88552 
L 275.700799 263.127288 
L 278.30887 263.344624 
L 281.670338 263.610069 
L 284.075341 263.656562 
L 286.132382 263.53237 
L 287.928493 263.286235 
L 289.463707 262.942615 
L 290.795933 262.501472 
L 291.954201 261.962735 
L 293.393934 261.306425 
L 294.608698 260.315003 
L 295.446069 259.359319 
L 296.701348 257.342264 
L 299.713197 251.928455 
L 303.603325 244.745533 
L 308.94824 235.042987 
L 311.824427 229.728471 
L 313.591288 227.251945 
L 314.986772 225.718571 
L 316.615803 224.656367 
L 318.617801 223.790208 
L 321.225904 223.277024 
L 323.089388 223.314522 
L 324.999756 223.587654 
L 326.863799 224.057258 
L 328.961162 224.80161 
L 331.012303 225.821 
L 333.250093 227.075891 
L 334.893359 228.516017 
L 335.286606 227.989639 
L 336.992234 226.908329 
L 338.69794 225.882377 
L 339.878643 225.050712 
L 340.632848 224.413239 
L 341.255596 223.665181 
L 341.714392 223.055688 
L 342.008617 222.141813 
L 342.364455 220.547198 
L 342.360648 213.999186 
L 344.870323 214.000128 
L 354.234336 214.022445 
L 355.737373 214.026017 
L 355.720652 200.78436 
L 355.720401 199.813831 
L 365.070107 199.759782 
L 365.05825 198.71637 
L 365.053563 196.619348 
L 370.345284 187.727436 
L 368.431266 186.98751 
L 370.693555 183.388747 
L 372.604896 180.801736 
L 374.050421 179.042148 
L 375.33152 177.704467 
L 378.216929 175.194003 
L 380.921815 173.808879 
L 383.778574 172.578383 
L 385.236731 172.014029 
L 386.844796 171.443138 
L 388.381251 170.922122 
L 388.774665 171.402485 
L 392.155438 169.227216 
L 411.901392 165.347585 
L 411.907501 163.773044 
L 424.433364 163.787828 
L 441.48808 163.812584 
L 441.491252 162.300652 
L 441.493029 161.66774 
L 454.109136 161.178278 
L 467.152489 160.633298 
L 467.178385 160.631613 
L 471.224538 160.468525 
L 475.351822 160.290209 
L 477.764258 157.47541 
L 479.122951 155.742574 
L 479.968805 156.314747 
L 482.818051 157.634684 
" style="stroke:#ffffff;stroke-linejoin:miter;stroke-width:2;"/>
   </g>
  </g>
 </g>
 <defs>
  <clipPath id="pbe5f6bafea">
   <rect height="543.6" width="558" x="90" y="86.4"/>
  </clipPath>
 </defs>
</svg>
