<?xml version="1.0" encoding="utf-8" standalone="no"?>
<!DOCTYPE svg PUBLIC "-//W3C//DTD SVG 1.1//EN"
  "http://www.w3.org/Graphics/SVG/1.1/DTD/svg11.dtd">
<!-- Created with matplotlib (https://matplotlib.org/) -->
<svg height="720pt" version="1.1" viewBox="0 0 720 720" width="720pt" xmlns="http://www.w3.org/2000/svg" xmlns:xlink="http://www.w3.org/1999/xlink">
 <metadata>
  <rdf:RDF xmlns:cc="http://creativecommons.org/ns#" xmlns:dc="http://purl.org/dc/elements/1.1/" xmlns:rdf="http://www.w3.org/1999/02/22-rdf-syntax-ns#">
   <cc:Work>
    <dc:type rdf:resource="http://purl.org/dc/dcmitype/StillImage"/>
    <dc:date>2021-05-28T08:56:51.655986</dc:date>
    <dc:format>image/svg+xml</dc:format>
    <dc:creator>
     <cc:Agent>
      <dc:title>Matplotlib v3.3.3, https://matplotlib.org/</dc:title>
     </cc:Agent>
    </dc:creator>
   </cc:Work>
  </rdf:RDF>
 </metadata>
 <defs>
  <style type="text/css">*{stroke-linecap:butt;stroke-linejoin:round;}</style>
 </defs>
 <g id="figure_1">
  <g id="patch_1">
   <path d="M 0 720 
L 720 720 
L 720 0 
L 0 0 
z
" style="fill:none;"/>
  </g>
  <g id="axes_1">
   <g id="patch_2">
    <path clip-path="url(#p3b3f329b61)" d="M 426.614649 300.247269 
L 435.00633 306.083061 
L 439.12011 301.422034 
L 446.124732 306.292206 
L 440.917316 312.1965 
L 446.936193 316.38133 
L 450.782799 312.036157 
L 458.20456 317.19404 
L 463.688611 310.981107 
L 479.092523 321.69077 
L 483.480269 316.719144 
L 492.089645 322.705019 
L 498.64461 315.27889 
L 505.649059 320.149049 
L 500.193827 326.334278 
L 507.399762 331.344642 
L 514.699149 323.075146 
L 522.115313 328.231893 
L 526.860327 322.856518 
L 533.864663 327.726794 
L 536.779387 324.155747 
L 543.442118 330.943477 
L 545.226381 332.994228 
L 546.877448 335.203156 
L 548.127492 337.175773 
L 549.512684 339.977482 
L 550.317459 341.832338 
L 551.209131 344.928617 
L 551.882951 348.086886 
L 552.066998 351.127411 
L 552.575209 367.938505 
L 572.709164 368.421129 
L 586.048658 368.741007 
L 586.490119 381.037152 
L 586.578155 393.574458 
L 586.356358 406.714314 
L 586.066281 419.405512 
L 586.18486 432.41699 
L 585.777315 445.369805 
L 586.461725 458.885158 
L 586.435774 471.379043 
L 586.343718 489.846738 
L 586.338194 496.99094 
L 586.224996 498.152357 
L 585.995755 499.006585 
L 585.53607 500.100231 
L 584.046132 502.769169 
L 552.346717 543.593767 
L 551.871868 543.439671 
L 550.902581 542.972765 
L 549.829652 542.519745 
L 548.964743 542.130898 
L 548.174303 541.728704 
L 547.473248 541.338825 
L 546.548319 540.858389 
L 545.517896 540.194567 
L 544.501493 539.386246 
L 543.692718 538.576564 
L 542.749086 537.636053 
L 541.611973 536.631141 
L 540.594506 535.730906 
L 539.578546 535.001273 
L 538.681439 534.270962 
L 537.577971 533.739311 
L 536.770326 533.060879 
L 535.753252 532.199743 
L 534.839392 531.285626 
L 533.969447 530.252595 
L 533.249728 529.442261 
L 532.247117 528.528543 
L 531.590068 528.09922 
L 530.558885 527.356437 
L 529.497439 526.522044 
L 528.332374 525.714743 
L 527.406607 525.11599 
L 526.494991 524.43827 
L 525.613981 523.878805 
L 524.688557 523.306489 
L 523.778475 522.812863 
L 522.779377 522.346279 
L 521.838738 521.760784 
L 520.854475 521.280714 
L 519.691284 520.683661 
L 518.617212 520.11236 
L 517.588323 519.645826 
L 516.73895 519.283355 
L 515.576573 518.817577 
L 514.578238 518.44294 
L 513.595141 518.094406 
L 512.508081 517.746553 
L 511.70381 517.449547 
L 510.556005 516.970519 
L 509.497218 516.451761 
L 508.647496 516.062884 
L 507.603999 515.596406 
L 506.530316 515.077673 
L 505.576627 514.702686 
L 504.458926 514.223614 
L 503.311862 513.81064 
L 502.225194 513.515355 
L 501.152673 513.154308 
L 500.154223 512.727093 
L 499.051491 512.287124 
L 497.962537 511.729039 
L 497.068046 511.314373 
L 496.143769 510.886525 
L 495.041832 510.551938 
L 494.177979 510.255294 
L 493.298886 509.932497 
L 492.434979 509.609418 
L 491.27224 509.117506 
L 490.512348 508.82018 
L 489.469237 508.406248 
L 488.411151 507.966473 
L 487.247587 507.343007 
L 486.517507 507.058581 
L 485.623463 506.709428 
L 484.609818 506.282246 
L 483.789896 505.906565 
L 482.790688 505.413595 
L 481.776988 504.960031 
L 480.808048 504.545752 
L 479.780514 504.197566 
L 478.841812 503.861952 
L 477.694332 503.396151 
L 476.801029 503.125973 
L 475.743788 502.804247 
L 474.640186 502.246227 
L 473.715579 501.79224 
L 472.553572 501.379311 
L 471.884628 501.304779 
L 471.096857 501.23119 
L 470.009718 500.856955 
L 469.040345 500.376917 
L 468.057221 500.04164 
L 467.074125 499.706337 
L 466.031319 499.305649 
L 465.032926 498.931015 
L 464.005867 498.661836 
L 462.935163 498.471673 
L 462.011721 498.1754 
L 461.045032 498.02391 
L 460.212842 497.937477 
L 459.112775 497.826335 
L 458.132313 497.78025 
L 457.032648 497.708724 
L 456.022023 497.636537 
L 455.174993 497.576282 
L 454.402483 497.554978 
L 453.406727 497.456644 
L 452.351797 497.410941 
L 451.238676 497.470689 
L 450.139064 497.425603 
L 449.084079 497.353467 
L 447.999707 497.334509 
L 447.005071 497.354219 
L 446.009769 497.334575 
L 445.000693 497.433022 
L 443.860051 497.756144 
L 442.95841 498.261704 
L 442.057887 498.898769 
L 441.035495 499.194539 
L 440.024846 499.096211 
L 439.160545 498.733829 
L 438.831465 498.473111 
L 437.784888 497.651697 
L 436.655006 497.514441 
L 435.527393 497.627069 
L 434.549253 497.87021 
L 433.571917 498.205527 
L 432.684024 498.579278 
L 431.685624 498.191718 
L 430.807201 497.921255 
L 429.91434 497.730072 
L 429.171619 497.695526 
L 428.043715 497.808159 
L 426.9318 498.025889 
L 425.924222 498.282288 
L 424.767626 498.500326 
L 423.773793 498.625171 
L 422.690917 498.777091 
L 421.563361 498.915879 
L 420.7623 499.039634 
L 419.961472 499.16313 
L 418.909589 499.45922 
L 417.858482 499.860666 
L 416.793605 500.367284 
L 415.831598 500.768067 
L 414.85812 501.55003 
L 414.747286 502.471148 
L 414.888852 503.416761 
L 414.450459 504.247793 
L 413.433801 505.188003 
L 412.469844 505.352188 
L 411.458476 505.187852 
L 411.145811 505.097976 
L 410.178319 504.828213 
L 409.180638 504.506173 
L 408.317593 504.327873 
L 407.18691 504.085567 
L 406.145698 503.895391 
L 405.013461 503.46897 
L 403.956259 503.173699 
L 403.1088 503.047704 
L 402.155504 502.725336 
L 401.157391 502.337819 
L 399.995016 501.8853 
L 399.235128 501.587988 
L 398.148426 501.306001 
L 397.19513 500.97043 
L 396.047216 500.452123 
L 394.899705 499.986662 
L 393.826716 499.546686 
L 393.081745 499.27553 
L 392.158261 498.953118 
L 391.144873 498.526017 
L 390.101404 498.098941 
L 389.073468 497.698276 
L 388.015424 497.284689 
L 386.987917 496.949532 
L 386.183661 496.678969 
L 385.215811 496.383044 
L 384.248016 496.113297 
L 383.250294 495.778067 
L 382.147135 495.299077 
L 379.823901 494.9857 
L 379.244261 494.87271 
L 378.174396 494.67201 
L 377.042036 494.195635 
L 376.056986 493.62583 
L 374.89296 492.95221 
L 373.998395 492.51327 
L 373.07439 492.100531 
L 371.914006 491.769203 
L 370.992199 491.553994 
L 370.025654 491.326198 
L 368.940169 491.059996 
L 367.856477 490.951475 
L 366.963036 490.630865 
L 366.098282 490.204541 
L 365.15828 489.68697 
L 364.084067 489.091661 
L 362.981512 488.627959 
L 362.250967 488.279633 
L 361.263734 487.512282 
L 360.231387 486.692964 
L 359.144419 486.282033 
L 358.00144 486.174135 
L 356.962133 486.065288 
L 355.862122 485.838475 
L 354.731892 485.54649 
L 353.736221 485.358342 
L 352.890407 485.326591 
L 351.807782 485.310281 
L 350.961188 485.186615 
L 349.801864 484.947218 
L 348.850205 484.719384 
L 347.720378 484.4665 
L 346.710508 484.3312 
L 346.205092 484.243756 
L 345.417403 484.079861 
L 344.302844 483.879749 
L 343.381347 483.69099 
L 342.237262 483.477723 
L 341.405589 483.367242 
L 340.529233 483.256862 
L 339.593914 483.160279 
L 338.541131 483.170053 
L 337.490118 483.337482 
L 336.539877 483.228006 
L 335.531483 483.237189 
L 334.68596 483.205705 
L 333.559001 483.216125 
L 332.431344 483.173985 
L 331.466209 483.064511 
L 330.515271 482.902219 
L 329.683246 482.765075 
L 328.463937 482.47375 
L 328.107862 482.437585 
L 326.964587 482.316763 
L 326.177648 482.245078 
L 325.1532 482.12302 
L 324.663025 482.061682 
L 323.548432 481.848404 
L 322.670943 481.619682 
L 321.734896 481.457344 
L 321.037781 481.450498 
L 320.149319 481.550887 
L 319.156922 481.665434 
L 318.149602 481.766801 
L 317.157553 481.9075 
L 316.162949 481.811548 
L 315.180013 481.439048 
L 314.211622 481.040139 
L 313.282401 480.564368 
L 313.203947 440.583895 
L 313.542218 427.054822 
L 313.535164 404.59268 
L 313.790049 354.075429 
L 271.242727 329.436501 
L 243.135598 312.201466 
L 207.535662 291.734381 
L 183.266749 276.64023 
L 151.421845 258.942167 
L 168.550011 232.860001 
L 172.139062 226.251859 
L 174.469921 220.035022 
L 176.450254 212.567415 
L 177.273595 206.2984 
L 177.642388 198.434819 
L 177.170743 189.319239 
L 176.257982 180.822829 
L 188.130247 180.097215 
L 256.827343 175.694748 
L 271.97286 174.602364 
L 313.425953 172.806233 
L 313.48429 183.533488 
L 316.539448 185.656382 
L 437.675005 269.838264 
L 426.695189 282.256565 
L 436.498313 289.073888 
L 426.614649 300.247269 
" style="fill:#1a1a1a;stroke:#ffffff;stroke-linejoin:miter;stroke-width:4;"/>
   </g>
  </g>
 </g>
 <defs>
  <clipPath id="p3b3f329b61">
   <rect height="543.6" width="558" x="90" y="86.4"/>
  </clipPath>
 </defs>
</svg>
