<?xml version="1.0" encoding="utf-8" standalone="no"?>
<!DOCTYPE svg PUBLIC "-//W3C//DTD SVG 1.1//EN"
  "http://www.w3.org/Graphics/SVG/1.1/DTD/svg11.dtd">
<!-- Created with matplotlib (https://matplotlib.org/) -->
<svg height="720pt" version="1.1" viewBox="0 0 720 720" width="720pt" xmlns="http://www.w3.org/2000/svg" xmlns:xlink="http://www.w3.org/1999/xlink">
 <metadata>
  <rdf:RDF xmlns:cc="http://creativecommons.org/ns#" xmlns:dc="http://purl.org/dc/elements/1.1/" xmlns:rdf="http://www.w3.org/1999/02/22-rdf-syntax-ns#">
   <cc:Work>
    <dc:type rdf:resource="http://purl.org/dc/dcmitype/StillImage"/>
    <dc:date>2021-05-07T11:03:00.907183</dc:date>
    <dc:format>image/svg+xml</dc:format>
    <dc:creator>
     <cc:Agent>
      <dc:title>Matplotlib v3.3.3, https://matplotlib.org/</dc:title>
     </cc:Agent>
    </dc:creator>
   </cc:Work>
  </rdf:RDF>
 </metadata>
 <defs>
  <style type="text/css">*{stroke-linecap:butt;stroke-linejoin:round;}</style>
 </defs>
 <g id="figure_1">
  <g id="patch_1">
   <path d="M 0 720 
L 720 720 
L 720 0 
L 0 0 
z
" style="fill:none;"/>
  </g>
  <g id="axes_1">
   <g id="patch_2">
    <path clip-path="url(#p763a981105)" d="M 589.838451 531.534377 
L 592.527678 540.884148 
L 587.834553 540.874678 
L 574.863635 540.853578 
L 573.739552 540.846312 
L 571.2102 540.840799 
L 567.48422 540.830325 
L 562.453469 540.822367 
L 558.116341 540.810023 
L 554.992231 540.801893 
L 550.953476 540.79204 
L 547.602394 540.788058 
L 546.391737 540.78684 
L 541.610149 540.778953 
L 538.301177 540.771481 
L 535.488478 540.756503 
L 529.039284 540.747907 
L 524.532821 540.739394 
L 520.971636 540.728731 
L 517.670709 540.724518 
L 513.474845 540.711792 
L 510.401619 540.710366 
L 507.794369 540.701955 
L 503.437101 540.692914 
L 500.856491 540.690724 
L 497.508997 540.6837 
L 496.625656 540.681946 
L 494.845518 540.678417 
L 493.281414 540.674677 
L 489.350354 540.668263 
L 488.01746 540.663946 
L 485.300732 540.65889 
L 484.2557 540.650683 
L 481.475474 540.649161 
L 480.568461 540.654191 
L 478.702238 540.640876 
L 477.621722 540.64286 
L 475.175891 540.637571 
L 472.568234 540.635905 
L 469.63311 540.627662 
L 465.772291 540.617992 
L 462.56145 540.61707 
L 459.969736 540.605184 
L 458.353952 540.604759 
L 456.195293 540.595219 
L 454.62041 540.594586 
L 453.32298 540.583479 
L 451.102108 540.583707 
L 449.757386 540.5862 
L 448.467237 540.579014 
L 447.437978 540.577557 
L 445.980819 540.583447 
L 444.833255 540.575456 
L 443.719463 540.571132 
L 441.671416 540.568183 
L 440.523843 540.566928 
L 438.400964 540.560599 
L 436.612788 540.557128 
L 435.315366 540.549424 
L 433.978145 540.559077 
L 432.984351 540.550809 
L 431.785547 540.553045 
L 430.740156 540.549889 
L 428.961344 540.537712 
L 427.038775 540.523546 
L 424.977019 540.536006 
L 422.566063 540.531637 
L 420.363082 540.580176 
L 417.97051 540.681981 
L 415.944378 540.801267 
L 413.731304 540.965321 
L 411.307931 541.190431 
L 408.762581 541.461724 
L 406.518635 541.741356 
L 403.441365 542.190256 
L 401.23926 542.576403 
L 397.713958 543.220738 
L 394.380026 543.946614 
L 391.218459 544.714823 
L 388.715674 545.368089 
L 384.070309 546.66017 
L 381.733899 547.348645 
L 376.809706 548.83746 
L 374.151401 549.624289 
L 371.000264 550.588815 
L 368.570494 551.330804 
L 364.66006 552.49634 
L 357.682598 554.60773 
L 357.509749 554.177039 
L 357.455034 554.040668 
L 357.188679 553.471942 
L 356.20722 551.376363 
L 352.612876 543.701753 
L 352.321577 543.079782 
L 351.380072 541.355239 
L 350.802054 540.296538 
L 348.268509 535.655944 
L 347.347582 533.969114 
L 344.088115 529.219244 
L 342.480613 526.876733 
L 342.456443 526.855295 
L 339.020796 524.042604 
L 337.57608 522.517775 
L 334.322466 519.292112 
L 330.912575 516.186514 
L 327.352502 513.206482 
L 323.648527 510.357383 
L 319.807248 507.64422 
L 315.835499 505.071838 
L 311.740379 502.644832 
L 310.678363 502.050367 
L 310.524839 501.956256 
L 310.259228 501.819551 
L 305.176621 499.203447 
L 300.609118 496.970681 
L 296.046779 495.024536 
L 290.476117 492.948507 
L 285.248504 491.297946 
L 278.847518 489.663031 
L 217.314232 473.095844 
L 211.748554 471.306698 
L 206.685719 469.510869 
L 201.447393 467.287325 
L 195.795742 464.467291 
L 190.541617 461.38394 
L 185.447216 457.868427 
L 179.663878 453.35872 
L 175.742806 449.827558 
L 171.640928 445.58207 
L 167.704007 441.19104 
L 163.929449 436.511153 
L 160.65247 431.537929 
L 157.701533 426.058632 
L 155.427665 420.928624 
L 153.494321 416.08077 
L 151.885695 410.655157 
L 150.604412 404.795146 
L 149.810247 398.068529 
L 149.522164 382.376001 
L 145.472322 161.79227 
L 421.829232 161.873532 
L 421.652452 181.185456 
L 423.214902 193.849489 
L 424.999532 201.38602 
L 431.030846 214.459609 
L 433.874001 221.584392 
L 436.323986 227.1404 
L 438.773974 232.696411 
L 441.223912 238.252382 
L 443.673826 243.808401 
L 446.123717 249.364402 
L 448.573585 254.920407 
L 451.023429 260.476417 
L 453.473249 266.032452 
L 455.923073 271.588447 
L 458.37282 277.14449 
L 461.053016 282.566033 
L 463.733161 287.98758 
L 468.747081 296.807884 
L 471.793216 301.804166 
L 474.839379 306.800454 
L 477.885462 311.796748 
L 480.931545 316.793048 
L 483.389069 320.971698 
L 484.866442 323.483729 
L 488.192282 330.035241 
L 491.518057 336.586761 
L 495.92341 345.970452 
L 500.328717 355.354156 
L 503.471244 361.550312 
L 503.650379 361.903541 
L 505.252415 365.062291 
L 506.613737 367.746474 
L 510.874517 375.458776 
L 515.135267 383.17109 
L 520.263696 391.509706 
L 525.392051 399.848361 
L 529.967621 406.810926 
L 534.543082 413.773482 
L 541.357311 423.198422 
L 546.860997 430.715344 
L 551.28039 436.804619 
L 553.657613 440.080162 
L 555.699684 442.89393 
L 559.401084 448.727783 
L 563.449313 455.583334 
L 567.150254 462.768398 
L 570.426685 470.579557 
L 573.175164 478.241563 
L 573.613563 479.463725 
L 573.997202 480.685849 
L 574.22778 481.420383 
L 576.136708 487.618291 
L 578.045669 493.816201 
L 579.954583 500.014136 
L 581.863477 506.212052 
L 582.257523 507.491451 
L 582.860076 509.447795 
L 584.986668 515.753767 
L 587.113264 522.059744 
L 589.838451 531.534377 
" style="stroke:#ffffff;stroke-linejoin:miter;stroke-width:2;"/>
   </g>
  </g>
 </g>
 <defs>
  <clipPath id="p763a981105">
   <rect height="543.6" width="558" x="90" y="86.4"/>
  </clipPath>
 </defs>
</svg>
