<?xml version="1.0" encoding="utf-8" standalone="no"?>
<!DOCTYPE svg PUBLIC "-//W3C//DTD SVG 1.1//EN"
  "http://www.w3.org/Graphics/SVG/1.1/DTD/svg11.dtd">
<!-- Created with matplotlib (https://matplotlib.org/) -->
<svg height="720pt" version="1.1" viewBox="0 0 720 720" width="720pt" xmlns="http://www.w3.org/2000/svg" xmlns:xlink="http://www.w3.org/1999/xlink">
 <metadata>
  <rdf:RDF xmlns:cc="http://creativecommons.org/ns#" xmlns:dc="http://purl.org/dc/elements/1.1/" xmlns:rdf="http://www.w3.org/1999/02/22-rdf-syntax-ns#">
   <cc:Work>
    <dc:type rdf:resource="http://purl.org/dc/dcmitype/StillImage"/>
    <dc:date>2021-05-07T11:03:07.064242</dc:date>
    <dc:format>image/svg+xml</dc:format>
    <dc:creator>
     <cc:Agent>
      <dc:title>Matplotlib v3.3.3, https://matplotlib.org/</dc:title>
     </cc:Agent>
    </dc:creator>
   </cc:Work>
  </rdf:RDF>
 </metadata>
 <defs>
  <style type="text/css">*{stroke-linecap:butt;stroke-linejoin:round;}</style>
 </defs>
 <g id="figure_1">
  <g id="patch_1">
   <path d="M 0 720 
L 720 720 
L 720 0 
L 0 0 
z
" style="fill:none;"/>
  </g>
  <g id="axes_1">
   <g id="patch_2">
    <path clip-path="url(#p5bf0e5c9dc)" d="M 576.220571 518.923236 
L 576.21672 533.123613 
L 557.478437 533.14076 
L 540.795205 533.156168 
L 523.736115 533.172073 
L 506.975993 533.187846 
L 473.082986 533.220136 
L 456.266123 533.236351 
L 440.154766 533.252048 
L 408.514817 533.217714 
L 405.170128 534.054091 
L 392.719871 534.038634 
L 387.782233 534.032523 
L 380.336855 534.023342 
L 370.692795 534.011498 
L 353.704984 533.990703 
L 347.01659 533.982569 
L 336.503013 533.969831 
L 332.133512 533.964542 
L 317.413077 533.784595 
L 302.306638 533.928738 
L 285.984604 533.862149 
L 269.464365 533.889784 
L 265.007695 533.449466 
L 207.600956 533.340412 
L 177.033483 533.383422 
L 161.488632 533.287934 
L 164.910099 498.990886 
L 165.256166 492.759423 
L 165.346417 472.250239 
L 165.36322 465.54019 
L 165.439025 435.313491 
L 165.945569 414.539678 
L 164.843501 370.16972 
L 164.658343 357.546358 
L 165.244044 301.012805 
L 164.911171 288.71419 
L 164.581429 276.531092 
L 165.00275 264.181043 
L 165.42541 251.791719 
L 164.428324 213.794032 
L 163.7202 199.431131 
L 162.946281 183.784329 
L 162.903435 182.345909 
L 246.809456 217.032854 
L 302.735634 240.0968 
L 356.938555 263.433649 
L 385.046427 274.824407 
L 398.204194 279.945833 
L 419.063845 288.656747 
L 439.580646 299.157741 
L 466.785541 313.918728 
L 483.910632 323.166843 
L 490.071093 327.159477 
L 495.634937 332.741369 
L 500.299343 338.705888 
L 503.915983 345.815653 
L 505.801296 350.259826 
L 512.277284 384.216538 
L 514.169578 391.04954 
L 518.032465 397.720431 
L 521.702871 402.24546 
L 526.592328 406.29165 
L 532.795383 410.176788 
L 540.027328 412.47057 
L 547.162925 413.651694 
L 555.047836 414.116258 
L 576.511368 414.241854 
L 576.450323 416.002227 
L 575.728217 420.587463 
L 575.69879 427.938758 
L 575.635248 432.177727 
L 575.587518 456.005143 
L 575.558931 470.280938 
L 576.230667 481.596049 
L 576.220571 518.923236 
" style="stroke:#ffffff;stroke-linejoin:miter;stroke-width:2;"/>
   </g>
  </g>
 </g>
 <defs>
  <clipPath id="p5bf0e5c9dc">
   <rect height="543.6" width="558" x="90" y="86.4"/>
  </clipPath>
 </defs>
</svg>
