<?xml version="1.0" encoding="utf-8" standalone="no"?>
<!DOCTYPE svg PUBLIC "-//W3C//DTD SVG 1.1//EN"
  "http://www.w3.org/Graphics/SVG/1.1/DTD/svg11.dtd">
<!-- Created with matplotlib (https://matplotlib.org/) -->
<svg height="720pt" version="1.1" viewBox="0 0 720 720" width="720pt" xmlns="http://www.w3.org/2000/svg" xmlns:xlink="http://www.w3.org/1999/xlink">
 <metadata>
  <rdf:RDF xmlns:cc="http://creativecommons.org/ns#" xmlns:dc="http://purl.org/dc/elements/1.1/" xmlns:rdf="http://www.w3.org/1999/02/22-rdf-syntax-ns#">
   <cc:Work>
    <dc:type rdf:resource="http://purl.org/dc/dcmitype/StillImage"/>
    <dc:date>2021-05-07T11:03:00.625942</dc:date>
    <dc:format>image/svg+xml</dc:format>
    <dc:creator>
     <cc:Agent>
      <dc:title>Matplotlib v3.3.3, https://matplotlib.org/</dc:title>
     </cc:Agent>
    </dc:creator>
   </cc:Work>
  </rdf:RDF>
 </metadata>
 <defs>
  <style type="text/css">*{stroke-linecap:butt;stroke-linejoin:round;}</style>
 </defs>
 <g id="figure_1">
  <g id="patch_1">
   <path d="M 0 720 
L 720 720 
L 720 0 
L 0 0 
z
" style="fill:none;"/>
  </g>
  <g id="axes_1">
   <g id="patch_2">
    <path clip-path="url(#p30515a18aa)" d="M 147.919125 512.958955 
L 148.123348 204.138009 
L 169.962164 204.097891 
L 369.964743 203.7499 
L 390.881847 203.718634 
L 589.882049 203.441232 
L 590.080875 203.441045 
L 588.765287 210.47349 
L 585.327799 226.385578 
L 579.818574 253.318288 
L 572.153887 281.470264 
L 563.202291 306.395178 
L 552.942344 329.299805 
L 543.74438 346.536479 
L 532.373851 366.326348 
L 524.606174 379.845938 
L 516.083426 394.680006 
L 509.504582 406.130516 
L 497.738833 425.796746 
L 487.146125 442.218013 
L 477.556692 456.158861 
L 467.436713 470.010367 
L 458.568778 481.993408 
L 445.073597 500.23098 
L 406.535339 500.57022 
L 362.124322 503.610937 
L 297.094051 507.670889 
L 225.719549 511.738126 
L 147.919125 512.958955 
" style="stroke:#ffffff;stroke-linejoin:miter;stroke-width:2;"/>
   </g>
  </g>
 </g>
 <defs>
  <clipPath id="p30515a18aa">
   <rect height="543.6" width="558" x="90" y="86.4"/>
  </clipPath>
 </defs>
</svg>
