<?xml version="1.0" encoding="utf-8" standalone="no"?>
<!DOCTYPE svg PUBLIC "-//W3C//DTD SVG 1.1//EN"
  "http://www.w3.org/Graphics/SVG/1.1/DTD/svg11.dtd">
<!-- Created with matplotlib (https://matplotlib.org/) -->
<svg height="720pt" version="1.1" viewBox="0 0 720 720" width="720pt" xmlns="http://www.w3.org/2000/svg" xmlns:xlink="http://www.w3.org/1999/xlink">
 <metadata>
  <rdf:RDF xmlns:cc="http://creativecommons.org/ns#" xmlns:dc="http://purl.org/dc/elements/1.1/" xmlns:rdf="http://www.w3.org/1999/02/22-rdf-syntax-ns#">
   <cc:Work>
    <dc:type rdf:resource="http://purl.org/dc/dcmitype/StillImage"/>
    <dc:date>2021-05-28T08:56:46.069676</dc:date>
    <dc:format>image/svg+xml</dc:format>
    <dc:creator>
     <cc:Agent>
      <dc:title>Matplotlib v3.3.3, https://matplotlib.org/</dc:title>
     </cc:Agent>
    </dc:creator>
   </cc:Work>
  </rdf:RDF>
 </metadata>
 <defs>
  <style type="text/css">*{stroke-linecap:butt;stroke-linejoin:round;}</style>
 </defs>
 <g id="figure_1">
  <g id="patch_1">
   <path d="M 0 720 
L 720 720 
L 720 0 
L 0 0 
z
" style="fill:none;"/>
  </g>
  <g id="axes_1">
   <g id="patch_2">
    <path clip-path="url(#p9a271db332)" d="M 397.555595 246.786786 
L 416.981471 247.620792 
L 449.45502 246.848406 
L 461.335162 246.082943 
L 480.036352 243.576585 
L 498.226907 240.243953 
L 513.951787 236.501125 
L 533.913251 230.475134 
L 534.524862 239.097928 
L 535.206235 246.360672 
L 535.912862 253.05739 
L 537.603932 266.909133 
L 540.075434 283.41197 
L 543.092985 300.197114 
L 544.870249 308.896986 
L 546.744731 317.337279 
L 548.815751 326.003217 
L 551.03662 334.764956 
L 605.186222 529.818258 
L 605.894217 532.359506 
L 510.210203 532.106518 
L 467.855383 532.123459 
L 456.851384 532.09949 
L 456.860134 534.159955 
L 455.992109 534.227331 
L 454.687506 534.324416 
L 453.118976 534.432715 
L 452.256942 534.5068 
L 451.772904 534.563526 
L 450.961633 534.699214 
L 444.612188 535.727329 
L 439.398366 536.670343 
L 433.065311 537.861067 
L 427.841996 538.933094 
L 422.803576 539.970956 
L 421.010539 540.343598 
L 418.064244 540.952585 
L 416.792059 541.206745 
L 415.192586 541.517439 
L 413.716325 541.805216 
L 412.49941 542.020055 
L 411.328614 542.229195 
L 409.55243 542.516982 
L 408.123475 542.73773 
L 406.445558 542.970022 
L 403.956348 543.275178 
L 402.826959 543.400159 
L 401.462469 543.531054 
L 400.070317 543.673236 
L 397.85296 543.855386 
L 396.672818 543.929947 
L 395.557219 543.987613 
L 394.757824 544.022471 
L 388.534074 544.165155 
L 376.815043 544.243229 
L 366.565299 544.263721 
L 358.055158 544.270433 
L 343.109534 544.292188 
L 321.256687 544.340705 
L 302.083346 544.366545 
L 278.995908 544.365447 
L 275.812857 544.370404 
L 268.059959 544.410434 
L 263.936809 544.405651 
L 259.727132 544.395515 
L 258.085916 544.381249 
L 254.240021 544.370316 
L 252.704858 544.378339 
L 249.825986 544.388659 
L 248.003588 544.397194 
L 246.832622 544.399043 
L 243.797438 544.403764 
L 242.428232 544.405933 
L 240.752245 544.414201 
L 239.33694 544.422059 
L 237.385029 544.430645 
L 235.79913 544.433169 
L 234.187914 544.43566 
L 232.34848 544.444206 
L 230.199806 544.453559 
L 229.20862 544.449534 
L 228.023815 544.457043 
L 226.094761 544.460034 
L 224.813154 544.462092 
L 223.884008 544.474833 
L 222.768363 544.476627 
L 221.247006 544.484687 
L 219.945369 544.486708 
L 219.055614 544.488143 
L 217.654149 544.490405 
L 216.278725 544.498342 
L 214.761985 544.495185 
L 213.595292 544.500968 
L 202.484583 544.481769 
L 202.41433 473.573016 
L 202.5488 471.097694 
L 202.792505 468.566236 
L 203.110414 466.38267 
L 203.747696 463.470917 
L 204.457559 460.576622 
L 208.554926 446.089764 
L 209.108372 443.742406 
L 209.819653 440.442608 
L 210.135696 438.877798 
L 210.477894 437.006849 
L 210.872454 434.557727 
L 211.266413 431.496492 
L 211.659604 427.653097 
L 211.841608 424.354161 
L 211.944426 420.346366 
L 211.780332 415.852587 
L 211.672495 413.846373 
L 211.295848 407.623745 
L 210.973636 402.931352 
L 210.439613 398.137281 
L 209.640018 392.425432 
L 209.080481 388.617585 
L 208.441686 384.945915 
L 206.635346 375.47558 
L 204.229136 364.699604 
L 201.15262 354.746989 
L 196.924112 342.132041 
L 192.648225 331.16399 
L 187.174042 318.960058 
L 181.208805 307.385337 
L 174.220257 295.540631 
L 158.44383 270.814607 
L 148.64025 254.378102 
L 145.600978 248.211849 
L 143.057147 242.20456 
L 140.309819 234.716678 
L 139.621382 232.783515 
L 137.385179 225.036175 
L 136.054624 219.54558 
L 134.845114 213.873484 
L 133.776358 207.248327 
L 133.124619 202.52697 
L 132.549214 196.688737 
L 132.158811 190.280963 
L 132.105783 187.636268 
L 132.272163 171.899032 
L 176.138739 172.423397 
L 185.307804 173.586302 
L 196.656299 176.80746 
L 206.515802 180.914795 
L 264.046678 208.240784 
L 294.294005 221.507026 
L 312.843377 228.474979 
L 331.900944 234.542363 
L 355.796655 239.959389 
L 375.00184 243.662137 
L 397.555595 246.786786 
" style="fill:#1a1a1a;stroke:#ffffff;stroke-linejoin:miter;stroke-width:4;"/>
   </g>
  </g>
 </g>
 <defs>
  <clipPath id="p9a271db332">
   <rect height="543.6" width="558" x="90" y="86.4"/>
  </clipPath>
 </defs>
</svg>
