<?xml version="1.0" encoding="utf-8" standalone="no"?>
<!DOCTYPE svg PUBLIC "-//W3C//DTD SVG 1.1//EN"
  "http://www.w3.org/Graphics/SVG/1.1/DTD/svg11.dtd">
<!-- Created with matplotlib (https://matplotlib.org/) -->
<svg height="720pt" version="1.1" viewBox="0 0 720 720" width="720pt" xmlns="http://www.w3.org/2000/svg" xmlns:xlink="http://www.w3.org/1999/xlink">
 <metadata>
  <rdf:RDF xmlns:cc="http://creativecommons.org/ns#" xmlns:dc="http://purl.org/dc/elements/1.1/" xmlns:rdf="http://www.w3.org/1999/02/22-rdf-syntax-ns#">
   <cc:Work>
    <dc:type rdf:resource="http://purl.org/dc/dcmitype/StillImage"/>
    <dc:date>2021-05-28T08:56:50.405161</dc:date>
    <dc:format>image/svg+xml</dc:format>
    <dc:creator>
     <cc:Agent>
      <dc:title>Matplotlib v3.3.3, https://matplotlib.org/</dc:title>
     </cc:Agent>
    </dc:creator>
   </cc:Work>
  </rdf:RDF>
 </metadata>
 <defs>
  <style type="text/css">*{stroke-linecap:butt;stroke-linejoin:round;}</style>
 </defs>
 <g id="figure_1">
  <g id="patch_1">
   <path d="M 0 720 
L 720 720 
L 720 0 
L 0 0 
z
" style="fill:none;"/>
  </g>
  <g id="axes_1">
   <g id="patch_2">
    <path clip-path="url(#p7c54114565)" d="M 477.053106 174.807528 
L 490.654286 174.807655 
L 506.531554 174.80138 
L 506.457785 198.213524 
L 497.456983 194.678294 
L 504.615845 207.993218 
L 505.356525 209.692234 
L 506.55814 215.004929 
L 507.862268 225.031385 
L 504.997449 252.128509 
L 502.031659 280.182309 
L 497.6714 321.429905 
L 495.12873 349.004618 
L 495.11583 352.842245 
L 491.552516 390.523216 
L 491.147172 395.311958 
L 491.437019 424.706318 
L 494.194786 436.96336 
L 499.190245 445.842309 
L 513.666539 464.098842 
L 532.372222 487.387589 
L 534.589808 490.162548 
L 536.981839 493.14417 
L 539.142964 496.289324 
L 540.841574 499.23039 
L 541.76967 501.96743 
L 542.621554 505.358219 
L 542.857176 508.708393 
L 542.939052 512.303763 
L 542.788385 514.836947 
L 542.455661 541.596108 
L 539.455009 541.59862 
L 437.814177 541.38062 
L 382.162774 527.399624 
L 361.027381 527.152407 
L 324.310267 526.422469 
L 312.917305 522.983684 
L 305.609005 494.402898 
L 303.089922 494.400212 
L 292.771343 496.069258 
L 289.369891 496.619696 
L 284.32769 497.433148 
L 284.600493 459.218639 
L 271.210351 452.247507 
L 246.019409 446.571106 
L 236.860097 441.577144 
L 235.301445 441.627447 
L 233.991853 441.446145 
L 232.619658 441.132607 
L 220.124736 438.367637 
L 217.692498 437.738469 
L 214.895477 437.097651 
L 208.378585 435.602444 
L 195.422699 432.893161 
L 195.287762 427.081674 
L 195.197802 423.570871 
L 195.136628 420.708794 
L 195.083802 418.596722 
L 195.060948 417.561823 
L 195.107637 415.74552 
L 195.222903 412.575074 
L 195.25236 409.01982 
L 195.247036 405.692899 
L 195.247691 401.571727 
L 195.256352 397.986258 
L 195.251658 395.334089 
L 195.234541 393.448013 
L 195.224179 392.065615 
L 195.218139 390.977623 
L 214.1766 390.92509 
L 248.891935 391.000031 
L 280.908935 390.895828 
L 307.349206 390.342795 
L 333.790631 390.512153 
L 344.105662 390.756829 
L 344.0537 389.00327 
L 343.943451 387.355908 
L 343.896794 385.538639 
L 343.719194 384.257289 
L 343.805559 383.232093 
L 343.715893 382.043925 
L 343.758013 380.785768 
L 343.931126 378.991692 
L 344.060451 377.337448 
L 344.102244 375.892908 
L 344.04394 374.815296 
L 344.182598 365.472029 
L 366.065943 329.685389 
L 388.373168 288.885307 
L 389.69471 266.485188 
L 394.175301 266.4868 
L 413.88944 268.95353 
L 420.690411 253.661552 
L 435.295906 221.074695 
L 440.507159 209.447256 
L 440.519266 174.827471 
L 458.741686 174.820158 
L 471.032794 174.815132 
L 477.053106 174.807528 
" style="fill:#1a1a1a;stroke:#ffffff;stroke-linejoin:miter;stroke-width:4;"/>
   </g>
  </g>
 </g>
 <defs>
  <clipPath id="p7c54114565">
   <rect height="543.6" width="558" x="90" y="86.4"/>
  </clipPath>
 </defs>
</svg>
