<?xml version="1.0" encoding="utf-8" standalone="no"?>
<!DOCTYPE svg PUBLIC "-//W3C//DTD SVG 1.1//EN"
  "http://www.w3.org/Graphics/SVG/1.1/DTD/svg11.dtd">
<!-- Created with matplotlib (https://matplotlib.org/) -->
<svg height="720pt" version="1.1" viewBox="0 0 720 720" width="720pt" xmlns="http://www.w3.org/2000/svg" xmlns:xlink="http://www.w3.org/1999/xlink">
 <metadata>
  <rdf:RDF xmlns:cc="http://creativecommons.org/ns#" xmlns:dc="http://purl.org/dc/elements/1.1/" xmlns:rdf="http://www.w3.org/1999/02/22-rdf-syntax-ns#">
   <cc:Work>
    <dc:type rdf:resource="http://purl.org/dc/dcmitype/StillImage"/>
    <dc:date>2021-05-07T11:03:01.012434</dc:date>
    <dc:format>image/svg+xml</dc:format>
    <dc:creator>
     <cc:Agent>
      <dc:title>Matplotlib v3.3.3, https://matplotlib.org/</dc:title>
     </cc:Agent>
    </dc:creator>
   </cc:Work>
  </rdf:RDF>
 </metadata>
 <defs>
  <style type="text/css">*{stroke-linecap:butt;stroke-linejoin:round;}</style>
 </defs>
 <g id="figure_1">
  <g id="patch_1">
   <path d="M 0 720 
L 720 720 
L 720 0 
L 0 0 
z
" style="fill:none;"/>
  </g>
  <g id="axes_1">
   <g id="patch_2">
    <path clip-path="url(#p8d22ab17e4)" d="M 340.866094 289.285629 
L 426.660753 289.266191 
L 433.851947 284.680989 
L 474.301836 284.370404 
L 483.407003 284.268637 
L 520.617509 284.004047 
L 537.839535 278.068226 
L 553.014854 272.849201 
L 561.815757 272.834702 
L 561.823913 278.181772 
L 563.043042 311.819876 
L 563.25471 341.254688 
L 562.380992 369.990494 
L 560.108828 411.518942 
L 559.631582 426.762966 
L 560.019769 462.505021 
L 560.828496 489.085692 
L 461.891982 455.677395 
L 448.343614 451.55998 
L 434.969496 449.24276 
L 423.653723 447.822213 
L 410.624956 447.124908 
L 327.658955 446.912147 
L 307.431 446.408522 
L 294.572371 444.991499 
L 281.026046 442.315523 
L 265.761587 437.302338 
L 255.641394 433.36007 
L 246.122858 428.240911 
L 235.14026 421.462633 
L 226.155926 415.111053 
L 217.898052 408.121393 
L 211.3389 401.765389 
L 205.02185 395.154247 
L 199.310441 388.159892 
L 192.383063 379.257371 
L 181.841689 363.477715 
L 174.74529 352.830906 
L 206.101662 328.738359 
L 209.408787 326.056288 
L 213.263264 322.539743 
L 216.897374 318.773761 
L 220.296533 314.773568 
L 223.447002 310.555278 
L 226.336172 306.135844 
L 227.531795 304.114285 
L 229.781092 300.072697 
L 231.524255 296.265516 
L 233.165718 291.644147 
L 234.688842 286.294127 
L 236.059879 280.491637 
L 236.913521 276.447817 
L 237.582344 271.612847 
L 237.973497 268.009963 
L 238.041834 267.380495 
L 238.06867 267.133548 
L 238.372028 262.200737 
L 238.585378 256.732113 
L 238.604213 241.745431 
L 238.680478 235.870715 
L 239.015549 231.365093 
L 239.012589 227.647362 
L 246.065522 227.634387 
L 249.749207 227.616641 
L 311.902951 227.314322 
L 311.910759 227.314308 
L 312.257178 265.968128 
L 340.704657 266.051402 
L 340.84597 285.079073 
L 340.866094 289.285629 
" style="stroke:#ffffff;stroke-linejoin:miter;stroke-width:2;"/>
   </g>
  </g>
 </g>
 <defs>
  <clipPath id="p8d22ab17e4">
   <rect height="543.6" width="558" x="90" y="86.4"/>
  </clipPath>
 </defs>
</svg>
