<?xml version="1.0" encoding="utf-8" standalone="no"?>
<!DOCTYPE svg PUBLIC "-//W3C//DTD SVG 1.1//EN"
  "http://www.w3.org/Graphics/SVG/1.1/DTD/svg11.dtd">
<!-- Created with matplotlib (https://matplotlib.org/) -->
<svg height="720pt" version="1.1" viewBox="0 0 720 720" width="720pt" xmlns="http://www.w3.org/2000/svg" xmlns:xlink="http://www.w3.org/1999/xlink">
 <metadata>
  <rdf:RDF xmlns:cc="http://creativecommons.org/ns#" xmlns:dc="http://purl.org/dc/elements/1.1/" xmlns:rdf="http://www.w3.org/1999/02/22-rdf-syntax-ns#">
   <cc:Work>
    <dc:type rdf:resource="http://purl.org/dc/dcmitype/StillImage"/>
    <dc:date>2021-05-28T08:56:48.130597</dc:date>
    <dc:format>image/svg+xml</dc:format>
    <dc:creator>
     <cc:Agent>
      <dc:title>Matplotlib v3.3.3, https://matplotlib.org/</dc:title>
     </cc:Agent>
    </dc:creator>
   </cc:Work>
  </rdf:RDF>
 </metadata>
 <defs>
  <style type="text/css">*{stroke-linecap:butt;stroke-linejoin:round;}</style>
 </defs>
 <g id="figure_1">
  <g id="patch_1">
   <path d="M 0 720 
L 720 720 
L 720 0 
L 0 0 
z
" style="fill:none;"/>
  </g>
  <g id="axes_1">
   <g id="patch_2">
    <path clip-path="url(#p45c6e68c38)" d="M 497.695666 159.733606 
L 519.919471 160.333391 
L 532.611803 160.11127 
L 567.180357 160.021747 
L 572.915463 159.822349 
L 585.859703 159.79558 
L 585.840048 180.997368 
L 585.976221 205.160188 
L 586.009692 217.931702 
L 586.159798 228.981307 
L 586.175291 238.259915 
L 586.198074 251.921148 
L 586.017946 256.783963 
L 586.943365 261.858388 
L 588.91887 265.214205 
L 590.694012 267.755769 
L 592.092104 269.4653 
L 593.758809 271.359507 
L 594.297376 272.515101 
L 591.455255 273.721114 
L 589.470517 274.186082 
L 580.656712 276.109456 
L 569.847795 278.99259 
L 569.910571 316.0746 
L 569.943653 340.612795 
L 529.415935 340.66304 
L 529.661427 352.035934 
L 529.454541 363.029986 
L 529.539931 374.512786 
L 529.49331 385.477518 
L 529.489072 397.046687 
L 529.532416 408.13674 
L 530.086727 419.444022 
L 529.571288 430.646248 
L 529.885619 441.939095 
L 529.610078 453.124535 
L 530.119247 464.518218 
L 529.64879 475.602802 
L 529.877492 486.950831 
L 529.687197 498.14234 
L 485.716466 498.211863 
L 465.774725 498.255276 
L 445.549582 498.317147 
L 416.185702 498.380284 
L 403.37454 499.131265 
L 378.510612 498.901066 
L 378.038955 516.049481 
L 377.7635 555.871011 
L 377.764345 556.46304 
L 369.942566 556.473839 
L 350.702616 556.500573 
L 235.028793 556.666394 
L 234.977042 527.990308 
L 187.148651 520.585503 
L 187.141814 518.218358 
L 172.271516 515.90658 
L 169.81212 516.238082 
L 169.799619 505.012528 
L 169.788838 495.342457 
L 169.78295 490.057592 
L 169.771118 479.447693 
L 169.74924 471.729554 
L 169.75547 468.543621 
L 169.755581 466.7227 
L 157.195187 461.519105 
L 154.761241 460.76799 
L 152.847129 460.463367 
L 151.160304 460.298204 
L 149.279314 460.329028 
L 147.430787 460.387779 
L 146.004253 460.6136 
L 143.702624 461.120351 
L 144.494005 459.841729 
L 144.805145 459.672726 
L 145.652233 459.173717 
L 146.355144 458.783815 
L 146.661591 458.627807 
L 147.292654 458.377974 
L 148.392435 457.925255 
L 149.293904 457.550588 
L 150.159459 457.269304 
L 150.844709 457.050507 
L 151.547905 456.78503 
L 152.160936 456.550785 
L 152.990436 456.269558 
L 153.657526 456.004137 
L 154.548576 455.698666 
L 154.945286 455.55808 
L 155.378014 455.386323 
L 156.369818 455.073756 
L 157.235409 454.808012 
L 158.191158 454.4955 
L 159.435394 454.089201 
L 160.914014 453.573704 
L 161.959778 453.16773 
L 163.13179 452.730448 
L 164.303771 452.277609 
L 165.565919 451.793539 
L 166.918177 451.262659 
L 168.234411 450.747415 
L 168.901501 450.466442 
L 169.75934 450.113037 
L 170.295584 449.972596 
L 170.804986 449.858477 
L 171.905783 449.545074 
L 172.727342 449.331266 
L 173.926729 448.975215 
L 174.84674 448.676239 
L 175.700965 448.363211 
L 176.752292 447.964864 
L 177.68859 447.580865 
L 178.986231 447.040453 
L 180.185338 446.556864 
L 181.400905 446.073251 
L 182.860892 445.343854 
L 197.164307 439.587557 
L 208.965155 434.378054 
L 221.88297 428.818201 
L 235.069401 422.699192 
L 248.002121 416.698015 
L 261.17402 410.573342 
L 274.073517 404.575488 
L 287.279709 398.435168 
L 299.393544 392.802916 
L 300.645067 387.679534 
L 300.208514 349.809844 
L 300.198051 311.663902 
L 300.127706 273.872226 
L 299.725778 235.72772 
L 299.793209 198.003002 
L 299.915806 165.511215 
L 301.19083 160.267054 
L 312.905195 160.258107 
L 326.808877 160.247609 
L 339.036248 160.238467 
L 352.10004 160.228828 
L 365.17256 160.219288 
L 378.098651 160.209973 
L 412.726117 160.18505 
L 425.100713 160.176308 
L 437.897577 160.167364 
L 445.518135 159.80857 
L 461.695298 159.785146 
L 497.695666 159.733606 
" style="fill:#1a1a1a;stroke:#ffffff;stroke-linejoin:miter;stroke-width:4;"/>
   </g>
  </g>
 </g>
 <defs>
  <clipPath id="p45c6e68c38">
   <rect height="543.6" width="558" x="90" y="86.4"/>
  </clipPath>
 </defs>
</svg>
