<?xml version="1.0" encoding="utf-8" standalone="no"?>
<!DOCTYPE svg PUBLIC "-//W3C//DTD SVG 1.1//EN"
  "http://www.w3.org/Graphics/SVG/1.1/DTD/svg11.dtd">
<!-- Created with matplotlib (https://matplotlib.org/) -->
<svg height="720pt" version="1.1" viewBox="0 0 720 720" width="720pt" xmlns="http://www.w3.org/2000/svg" xmlns:xlink="http://www.w3.org/1999/xlink">
 <metadata>
  <rdf:RDF xmlns:cc="http://creativecommons.org/ns#" xmlns:dc="http://purl.org/dc/elements/1.1/" xmlns:rdf="http://www.w3.org/1999/02/22-rdf-syntax-ns#">
   <cc:Work>
    <dc:type rdf:resource="http://purl.org/dc/dcmitype/StillImage"/>
    <dc:date>2021-05-07T11:03:02.607171</dc:date>
    <dc:format>image/svg+xml</dc:format>
    <dc:creator>
     <cc:Agent>
      <dc:title>Matplotlib v3.3.3, https://matplotlib.org/</dc:title>
     </cc:Agent>
    </dc:creator>
   </cc:Work>
  </rdf:RDF>
 </metadata>
 <defs>
  <style type="text/css">*{stroke-linecap:butt;stroke-linejoin:round;}</style>
 </defs>
 <g id="figure_1">
  <g id="patch_1">
   <path d="M 0 720 
L 720 720 
L 720 0 
L 0 0 
z
" style="fill:none;"/>
  </g>
  <g id="axes_1">
   <g id="patch_2">
    <path clip-path="url(#p1044f0d679)" d="M 608.403343 155.957696 
L 610.167544 203.768023 
L 610.138216 235.200822 
L 608.617452 287.814789 
L 607.719234 308.360423 
L 603.11059 307.046815 
L 596.021861 305.111283 
L 592.082096 303.951185 
L 589.401362 303.221412 
L 585.485978 302.09035 
L 582.266015 301.174848 
L 578.760933 300.205234 
L 575.583599 299.316073 
L 575.232714 299.21789 
L 571.862275 298.265978 
L 569.141889 297.490182 
L 566.607773 296.820088 
L 564.308735 296.113807 
L 561.784822 295.473547 
L 559.373414 294.738798 
L 557.264414 294.158244 
L 555.25975 293.584907 
L 553.193044 293.092583 
L 551.018449 292.770451 
L 548.945816 292.686669 
L 547.086837 292.818043 
L 544.994106 293.129883 
L 542.790189 293.669816 
L 540.486504 294.546682 
L 538.306849 295.690291 
L 536.561264 296.76396 
L 534.867313 297.934199 
L 532.965936 299.374524 
L 530.947253 300.859115 
L 529.019945 302.375729 
L 526.86361 304.000011 
L 524.814759 305.50649 
L 522.724191 307.088151 
L 520.334891 308.821405 
L 518.070088 310.469579 
L 515.326797 312.522812 
L 513.098033 314.273176 
L 510.214774 316.436323 
L 505.944137 319.569215 
L 503.006444 321.799861 
L 499.850692 324.134888 
L 496.804851 326.438597 
L 493.370273 328.990114 
L 490.121854 331.394925 
L 487.183867 333.602075 
L 485.305301 334.946261 
L 483.22194 336.177024 
L 481.081242 337.287045 
L 478.937367 338.111924 
L 476.693833 338.726388 
L 474.484405 339.13352 
L 472.397823 339.305861 
L 470.316577 339.318758 
L 467.484233 339.348755 
L 465.064508 339.380707 
L 462.375645 339.392117 
L 459.445258 339.406404 
L 456.002977 339.418073 
L 452.448811 339.45713 
L 452.262789 339.459226 
L 448.996617 339.494664 
L 443.858793 339.498281 
L 441.392938 339.511892 
L 439.685243 339.661182 
L 438.122329 339.943402 
L 436.356548 340.41924 
L 434.372618 341.11582 
L 432.572515 341.865747 
L 430.387715 342.756998 
L 428.052026 343.757987 
L 426.076524 344.76644 
L 424.237359 345.684784 
L 422.395447 346.488677 
L 420.576234 347.149004 
L 416.40945 348.932282 
L 415.333559 349.409743 
L 414.394364 349.837756 
L 413.792959 349.940928 
L 413.10046 350.146789 
L 411.486672 350.827146 
L 409.735693 351.502991 
L 408.079627 352.299412 
L 406.222174 353.002047 
L 404.097725 353.949332 
L 402.238795 354.714902 
L 400.415557 355.53683 
L 398.698312 356.284853 
L 396.900253 357.057394 
L 394.934839 357.848929 
L 392.85966 358.724174 
L 390.502687 359.707327 
L 388.275767 360.618494 
L 385.582707 361.811853 
L 382.656962 363.018731 
L 378.874621 364.642916 
L 375.215487 366.235764 
L 372.549458 367.357282 
L 369.158211 368.728011 
L 365.632771 370.232674 
L 362.123605 371.818428 
L 358.956508 373.127716 
L 355.770365 374.465992 
L 353.095363 375.613413 
L 350.31731 376.752388 
L 347.350085 378.080688 
L 345.095145 379.350254 
L 342.822331 381.007108 
L 340.696489 382.8152 
L 338.180352 385.070247 
L 336.138741 386.841973 
L 333.560142 389.093642 
L 330.173232 392.11789 
L 326.844063 395.011097 
L 323.967089 397.569973 
L 321.172568 400.08806 
L 317.849225 402.98775 
L 315.256715 405.24278 
L 312.358437 407.791028 
L 309.377333 410.447164 
L 306.189666 413.258645 
L 303.821208 415.340072 
L 301.100118 417.728019 
L 291.088535 426.610335 
L 281.482955 435.082476 
L 270.074722 445.096712 
L 266.650235 448.256641 
L 264.312301 450.583542 
L 260.999294 453.821126 
L 257.798872 457.094688 
L 254.547952 460.242075 
L 251.213442 463.568707 
L 248.738375 466.014748 
L 245.843682 468.899013 
L 242.930476 471.814978 
L 239.594087 475.100156 
L 236.557177 478.083559 
L 233.479496 481.156798 
L 229.453219 485.098243 
L 227.226664 487.333628 
L 225.674605 488.904438 
L 223.995144 490.745079 
L 222.106188 493.442429 
L 220.584424 496.063195 
L 219.514504 498.376219 
L 217.89644 502.345072 
L 215.891912 507.146363 
L 214.291027 510.910758 
L 212.825796 514.531647 
L 211.520289 517.628876 
L 209.918734 521.363494 
L 208.614993 524.542416 
L 207.330952 527.499785 
L 206.425577 529.450707 
L 205.356785 531.498223 
L 204.425747 533.444542 
L 202.428671 536.707351 
L 201.184428 538.23448 
L 200.752543 538.764632 
L 199.401263 540.08385 
L 198.325074 540.969307 
L 197.441653 541.571037 
L 196.565261 542.15566 
L 195.530535 542.735373 
L 194.146804 543.340071 
L 192.712632 543.939712 
L 189.508526 545.251081 
L 185.037236 547.132683 
L 180.694544 548.928505 
L 178.829624 549.700655 
L 177.536067 550.236642 
L 176.586912 550.625303 
L 175.676543 550.99713 
L 174.83693 551.323757 
L 174.097126 551.659627 
L 173.250155 551.984396 
L 172.443543 552.371725 
L 171.663727 552.669425 
L 170.252235 553.20263 
L 169.562901 553.497082 
L 168.076519 554.089622 
L 167.205298 554.448772 
L 166.484187 554.750291 
L 165.499662 555.161034 
L 164.860994 555.381927 
L 152.454681 560.442304 
L 134.705557 548.741435 
L 128.065154 544.379471 
L 128.044008 521.669765 
L 128.008989 493.484056 
L 128.005626 488.584554 
L 128.001827 483.031037 
L 127.998446 478.094579 
L 127.992085 468.838703 
L 127.986387 460.508439 
L 127.980347 451.586961 
L 127.956641 410.578786 
L 128.413702 367.423947 
L 127.832456 348.076296 
L 128.386502 326.616792 
L 128.238309 254.147487 
L 127.84298 253.123133 
L 127.939099 215.177189 
L 128.045946 189.378413 
L 127.883778 184.036952 
L 128.020851 180.827772 
L 127.861673 156.781265 
L 128.504647 156.781687 
L 229.597209 156.809834 
L 273.789956 156.612229 
L 420.055047 155.975324 
L 425.192145 156.27852 
L 506.70339 156.274082 
L 557.8252 155.961982 
L 566.106567 155.988548 
L 594.003545 156.109945 
L 608.403343 155.957696 
" style="stroke:#ffffff;stroke-linejoin:miter;stroke-width:2;"/>
   </g>
  </g>
 </g>
 <defs>
  <clipPath id="p1044f0d679">
   <rect height="543.6" width="558" x="90" y="86.4"/>
  </clipPath>
 </defs>
</svg>
