<?xml version="1.0" encoding="utf-8" standalone="no"?>
<!DOCTYPE svg PUBLIC "-//W3C//DTD SVG 1.1//EN"
  "http://www.w3.org/Graphics/SVG/1.1/DTD/svg11.dtd">
<!-- Created with matplotlib (https://matplotlib.org/) -->
<svg height="720pt" version="1.1" viewBox="0 0 720 720" width="720pt" xmlns="http://www.w3.org/2000/svg" xmlns:xlink="http://www.w3.org/1999/xlink">
 <metadata>
  <rdf:RDF xmlns:cc="http://creativecommons.org/ns#" xmlns:dc="http://purl.org/dc/elements/1.1/" xmlns:rdf="http://www.w3.org/1999/02/22-rdf-syntax-ns#">
   <cc:Work>
    <dc:type rdf:resource="http://purl.org/dc/dcmitype/StillImage"/>
    <dc:date>2021-05-07T11:03:02.929135</dc:date>
    <dc:format>image/svg+xml</dc:format>
    <dc:creator>
     <cc:Agent>
      <dc:title>Matplotlib v3.3.3, https://matplotlib.org/</dc:title>
     </cc:Agent>
    </dc:creator>
   </cc:Work>
  </rdf:RDF>
 </metadata>
 <defs>
  <style type="text/css">*{stroke-linecap:butt;stroke-linejoin:round;}</style>
 </defs>
 <g id="figure_1">
  <g id="patch_1">
   <path d="M 0 720 
L 720 720 
L 720 0 
L 0 0 
z
" style="fill:none;"/>
  </g>
  <g id="axes_1">
   <g id="patch_2">
    <path clip-path="url(#pe30fed702d)" d="M 508.384194 346.470103 
L 504.722592 362.990633 
L 503.325859 370.10472 
L 502.293856 378.234099 
L 501.808333 387.784842 
L 501.981743 395.809639 
L 503.079015 405.875435 
L 504.60029 414.17249 
L 507.081535 423.450065 
L 510.256594 432.677297 
L 514.746029 442.17882 
L 517.079507 446.636554 
L 520.993579 453.242329 
L 526.753471 461.519693 
L 531.544364 467.967658 
L 537.371998 475.138351 
L 542.842346 481.15148 
L 548.780835 487.263083 
L 555.30421 493.439867 
L 562.707274 500.144606 
L 571.579306 508.236676 
L 582.243734 518.096112 
L 588.477857 524.968447 
L 592.716697 530.454384 
L 597.3144 537.461949 
L 600.861889 544.868446 
L 603.250742 551.295651 
L 604.809715 557.018972 
L 605.717949 563.526098 
L 605.902017 570.693587 
L 605.351094 576.502922 
L 603.932731 583.384809 
L 601.955269 589.990505 
L 601.100058 592.153862 
L 596.65163 591.375529 
L 586.391916 589.981899 
L 575.164475 588.98206 
L 563.939578 588.452735 
L 551.746997 588.317224 
L 538.032603 588.576522 
L 520.716129 588.842287 
L 503.677346 588.75498 
L 467.80802 588.066819 
L 432.918317 587.398599 
L 322.642539 584.889553 
L 137.189161 565.737144 
L 133.155206 565.749959 
L 133.198333 542.478149 
L 133.196897 524.859427 
L 133.182424 489.105233 
L 133.115462 470.673124 
L 132.145044 470.681805 
L 132.148023 467.227161 
L 132.142256 451.535944 
L 132.112633 389.308402 
L 132.112639 389.302879 
L 132.112453 363.942356 
L 132.099445 361.921459 
L 132.099057 360.883893 
L 132.097983 358.018653 
L 133.147024 358.018889 
L 133.098846 267.153565 
L 133.070638 251.623043 
L 133.05478 242.951026 
L 133.040674 235.242573 
L 133.035505 232.408578 
L 133.022019 225.040199 
L 132.99879 212.343362 
L 132.991554 208.375594 
L 132.975579 199.646528 
L 132.938858 179.578475 
L 132.932981 176.122014 
L 132.975823 127.021717 
L 132.978372 124.246138 
L 141.064855 127.28504 
L 452.003857 244.471305 
L 461.331148 247.965128 
L 461.331067 248.139616 
L 551.661301 282.217859 
L 540.821766 294.04655 
L 533.693526 301.464421 
L 526.5713 309.940209 
L 522.24273 316.295278 
L 518.230822 323.531382 
L 513.908299 330.944372 
L 511.144256 338.35461 
L 508.384194 346.470103 
" style="stroke:#ffffff;stroke-linejoin:miter;stroke-width:2;"/>
   </g>
  </g>
 </g>
 <defs>
  <clipPath id="pe30fed702d">
   <rect height="543.6" width="558" x="90" y="86.4"/>
  </clipPath>
 </defs>
</svg>
