<?xml version="1.0" encoding="utf-8" standalone="no"?>
<!DOCTYPE svg PUBLIC "-//W3C//DTD SVG 1.1//EN"
  "http://www.w3.org/Graphics/SVG/1.1/DTD/svg11.dtd">
<!-- Created with matplotlib (https://matplotlib.org/) -->
<svg height="720pt" version="1.1" viewBox="0 0 720 720" width="720pt" xmlns="http://www.w3.org/2000/svg" xmlns:xlink="http://www.w3.org/1999/xlink">
 <metadata>
  <rdf:RDF xmlns:cc="http://creativecommons.org/ns#" xmlns:dc="http://purl.org/dc/elements/1.1/" xmlns:rdf="http://www.w3.org/1999/02/22-rdf-syntax-ns#">
   <cc:Work>
    <dc:type rdf:resource="http://purl.org/dc/dcmitype/StillImage"/>
    <dc:date>2021-05-28T08:56:44.874171</dc:date>
    <dc:format>image/svg+xml</dc:format>
    <dc:creator>
     <cc:Agent>
      <dc:title>Matplotlib v3.3.3, https://matplotlib.org/</dc:title>
     </cc:Agent>
    </dc:creator>
   </cc:Work>
  </rdf:RDF>
 </metadata>
 <defs>
  <style type="text/css">*{stroke-linecap:butt;stroke-linejoin:round;}</style>
 </defs>
 <g id="figure_1">
  <g id="patch_1">
   <path d="M 0 720 
L 720 720 
L 720 0 
L 0 0 
z
" style="fill:none;"/>
  </g>
  <g id="axes_1">
   <g id="patch_2">
    <path clip-path="url(#p61d7db5fcd)" d="M 248.762353 157.825851 
L 248.755705 210.012174 
L 248.751026 212.019872 
L 275.579638 212.020569 
L 315.211401 212.022164 
L 336.797807 212.023324 
L 414.818552 212.036306 
L 583.217561 212.10089 
L 582.624519 328.165388 
L 583.343016 395.105198 
L 582.733621 476.864789 
L 583.514434 558.412177 
L 502.617582 558.394044 
L 434.469708 558.358685 
L 366.425186 558.500394 
L 301.944654 558.504553 
L 229.295429 558.567408 
L 154.517418 558.574149 
L 154.485566 435.35518 
L 154.557265 289.495183 
L 154.559121 210.041336 
L 154.559597 189.822172 
L 160.612347 189.806289 
L 190.362845 189.798728 
L 190.371157 169.567753 
L 223.084569 169.579971 
L 223.209634 157.844752 
L 223.209757 157.832467 
L 248.762353 157.825851 
" style="fill:#1a1a1a;stroke:#ffffff;stroke-linejoin:miter;stroke-width:4;"/>
   </g>
  </g>
 </g>
 <defs>
  <clipPath id="p61d7db5fcd">
   <rect height="543.6" width="558" x="90" y="86.4"/>
  </clipPath>
 </defs>
</svg>
