<?xml version="1.0" encoding="utf-8" standalone="no"?>
<!DOCTYPE svg PUBLIC "-//W3C//DTD SVG 1.1//EN"
  "http://www.w3.org/Graphics/SVG/1.1/DTD/svg11.dtd">
<!-- Created with matplotlib (https://matplotlib.org/) -->
<svg height="720pt" version="1.1" viewBox="0 0 720 720" width="720pt" xmlns="http://www.w3.org/2000/svg" xmlns:xlink="http://www.w3.org/1999/xlink">
 <metadata>
  <rdf:RDF xmlns:cc="http://creativecommons.org/ns#" xmlns:dc="http://purl.org/dc/elements/1.1/" xmlns:rdf="http://www.w3.org/1999/02/22-rdf-syntax-ns#">
   <cc:Work>
    <dc:type rdf:resource="http://purl.org/dc/dcmitype/StillImage"/>
    <dc:date>2021-05-28T08:56:51.373882</dc:date>
    <dc:format>image/svg+xml</dc:format>
    <dc:creator>
     <cc:Agent>
      <dc:title>Matplotlib v3.3.3, https://matplotlib.org/</dc:title>
     </cc:Agent>
    </dc:creator>
   </cc:Work>
  </rdf:RDF>
 </metadata>
 <defs>
  <style type="text/css">*{stroke-linecap:butt;stroke-linejoin:round;}</style>
 </defs>
 <g id="figure_1">
  <g id="patch_1">
   <path d="M 0 720 
L 720 720 
L 720 0 
L 0 0 
z
" style="fill:none;"/>
  </g>
  <g id="axes_1">
   <g id="patch_2">
    <path clip-path="url(#pe7a6addde6)" d="M 236.789894 224.978024 
L 249.368988 225.726569 
L 261.500469 225.552541 
L 277.973271 225.369942 
L 302.140245 225.399596 
L 340.236835 225.414376 
L 382.543682 225.453691 
L 418.556386 225.479165 
L 534.236047 225.524548 
L 547.667524 225.54629 
L 568.361991 225.571505 
L 590.872339 225.615544 
L 590.253704 277.814764 
L 589.158312 329.777821 
L 589.020552 498.001713 
L 586.218135 498.025558 
L 147.163956 497.877417 
L 147.127661 469.94487 
L 147.207962 418.31343 
L 147.867747 338.685665 
L 147.808181 267.009968 
L 148.420042 262.833592 
L 148.459769 236.040735 
L 148.871905 218.374442 
L 196.822988 222.056982 
L 201.260717 222.830476 
L 217.17399 224.12168 
L 233.556515 224.932622 
L 236.789894 224.978024 
" style="fill:#1a1a1a;stroke:#ffffff;stroke-linejoin:miter;stroke-width:4;"/>
   </g>
  </g>
 </g>
 <defs>
  <clipPath id="pe7a6addde6">
   <rect height="543.6" width="558" x="90" y="86.4"/>
  </clipPath>
 </defs>
</svg>
