<?xml version="1.0" encoding="utf-8" standalone="no"?>
<!DOCTYPE svg PUBLIC "-//W3C//DTD SVG 1.1//EN"
  "http://www.w3.org/Graphics/SVG/1.1/DTD/svg11.dtd">
<!-- Created with matplotlib (https://matplotlib.org/) -->
<svg height="720pt" version="1.1" viewBox="0 0 720 720" width="720pt" xmlns="http://www.w3.org/2000/svg" xmlns:xlink="http://www.w3.org/1999/xlink">
 <metadata>
  <rdf:RDF xmlns:cc="http://creativecommons.org/ns#" xmlns:dc="http://purl.org/dc/elements/1.1/" xmlns:rdf="http://www.w3.org/1999/02/22-rdf-syntax-ns#">
   <cc:Work>
    <dc:type rdf:resource="http://purl.org/dc/dcmitype/StillImage"/>
    <dc:date>2021-05-07T11:03:02.296689</dc:date>
    <dc:format>image/svg+xml</dc:format>
    <dc:creator>
     <cc:Agent>
      <dc:title>Matplotlib v3.3.3, https://matplotlib.org/</dc:title>
     </cc:Agent>
    </dc:creator>
   </cc:Work>
  </rdf:RDF>
 </metadata>
 <defs>
  <style type="text/css">*{stroke-linecap:butt;stroke-linejoin:round;}</style>
 </defs>
 <g id="figure_1">
  <g id="patch_1">
   <path d="M 0 720 
L 720 720 
L 720 0 
L 0 0 
z
" style="fill:none;"/>
  </g>
  <g id="axes_1">
   <g id="patch_2">
    <path clip-path="url(#p24524bed12)" d="M 521.809759 154.872588 
L 542.94784 215.563777 
L 563.213279 273.770866 
L 619.423267 317.206136 
L 619.397307 513.72851 
L 590.856963 513.611975 
L 590.85201 517.739154 
L 587.88717 517.7396 
L 586.512981 513.608567 
L 562.749546 513.510628 
L 556.052662 513.483304 
L 533.532862 513.396947 
L 527.411299 499.735776 
L 521.75822 513.351248 
L 520.833224 515.398036 
L 511.748958 515.411925 
L 496.85219 515.331021 
L 492.396591 514.848651 
L 489.231398 513.726727 
L 486.335468 511.992206 
L 482.294609 509.390357 
L 476.876482 506.125454 
L 472.801996 504.136211 
L 468.357146 502.402352 
L 464.781114 501.382805 
L 460.370076 500.618816 
L 455.891779 500.365325 
L 451.548257 500.673303 
L 447.120659 501.542816 
L 443.652721 502.514052 
L 439.410464 504.098153 
L 435.303004 506.243715 
L 431.448152 508.695447 
L 427.610186 511.300335 
L 424.310822 513.190417 
L 420.539963 514.417179 
L 415.340453 514.896736 
L 404.100903 514.837989 
L 322.345988 514.253464 
L 318.768869 514.553056 
L 315.093845 515.149858 
L 312.055956 516.117697 
L 309.067177 517.382635 
L 306.86242 518.572756 
L 303.089941 520.878313 
L 287.811052 530.659906 
L 283.252274 533.74175 
L 281.856189 534.653446 
L 280.556457 535.508357 
L 278.765484 536.689677 
L 277.250839 537.684477 
L 276.063669 538.446158 
L 274.801511 539.232277 
L 273.76784 539.854111 
L 272.580667 540.55369 
L 271.587924 541.08234 
L 270.779393 541.486646 
L 269.643336 541.99988 
L 268.916657 542.295436 
L 267.715786 542.742594 
L 266.415912 543.162831 
L 265.218378 543.505347 
L 264.02083 543.770242 
L 262.997269 543.972889 
L 261.571762 544.189734 
L 260.026128 544.361766 
L 258.193874 544.487457 
L 256.371855 544.582103 
L 254.853252 544.675788 
L 253.594219 544.754469 
L 252.345419 544.833125 
L 251.321822 544.92713 
L 250.052597 545.114498 
L 249.151853 545.270495 
L 247.798869 545.518039 
L 246.355688 545.876342 
L 245.13769 546.234459 
L 243.837848 546.670272 
L 242.374271 547.245961 
L 241.125671 547.852517 
L 239.895133 548.437701 
L 238.810304 549.02859 
L 237.541272 549.712817 
L 236.710625 550.17525 
L 217.510592 561.527412 
L 204.741462 512.251095 
L 204.582589 511.63311 
L 118.576733 175.674632 
L 138.126552 175.184465 
L 171.054147 175.729408 
L 221.691918 175.150892 
L 226.71611 175.153382 
L 231.064625 175.114864 
L 235.533948 175.128318 
L 241.237428 175.122049 
L 246.395263 175.100344 
L 249.282194 175.080587 
L 260.16365 175.071242 
L 267.789623 175.082743 
L 272.488452 175.079032 
L 276.160548 175.076165 
L 282.962998 175.070746 
L 286.272703 175.033538 
L 289.763621 175.065613 
L 290.429218 175.051409 
L 298.236551 175.049118 
L 303.665311 175.045191 
L 311.33478 175.036673 
L 316.692455 175.029111 
L 323.351643 174.985623 
L 329.095338 174.98178 
L 337.452278 175.022854 
L 343.75084 174.997311 
L 349.846738 174.863435 
L 377.009698 174.063641 
L 391.114388 174.379936 
L 422.047908 174.56115 
L 436.15857 174.274181 
L 447.80137 173.759238 
L 449.310003 173.692535 
L 454.165061 172.816394 
L 458.203119 172.252565 
L 465.738428 171.051754 
L 471.787956 169.918113 
L 477.864311 168.632538 
L 485.140739 166.914932 
L 490.076931 165.617702 
L 491.922256 165.117078 
L 498.693711 163.130716 
L 505.954915 160.789811 
L 509.968832 159.3913 
L 515.890297 157.234665 
L 521.809759 154.872588 
" style="stroke:#ffffff;stroke-linejoin:miter;stroke-width:2;"/>
   </g>
  </g>
 </g>
 <defs>
  <clipPath id="p24524bed12">
   <rect height="543.6" width="558" x="90" y="86.4"/>
  </clipPath>
 </defs>
</svg>
