<?xml version="1.0" encoding="utf-8" standalone="no"?>
<!DOCTYPE svg PUBLIC "-//W3C//DTD SVG 1.1//EN"
  "http://www.w3.org/Graphics/SVG/1.1/DTD/svg11.dtd">
<!-- Created with matplotlib (https://matplotlib.org/) -->
<svg height="720pt" version="1.1" viewBox="0 0 720 720" width="720pt" xmlns="http://www.w3.org/2000/svg" xmlns:xlink="http://www.w3.org/1999/xlink">
 <metadata>
  <rdf:RDF xmlns:cc="http://creativecommons.org/ns#" xmlns:dc="http://purl.org/dc/elements/1.1/" xmlns:rdf="http://www.w3.org/1999/02/22-rdf-syntax-ns#">
   <cc:Work>
    <dc:type rdf:resource="http://purl.org/dc/dcmitype/StillImage"/>
    <dc:date>2021-05-28T08:56:53.338538</dc:date>
    <dc:format>image/svg+xml</dc:format>
    <dc:creator>
     <cc:Agent>
      <dc:title>Matplotlib v3.3.3, https://matplotlib.org/</dc:title>
     </cc:Agent>
    </dc:creator>
   </cc:Work>
  </rdf:RDF>
 </metadata>
 <defs>
  <style type="text/css">*{stroke-linecap:butt;stroke-linejoin:round;}</style>
 </defs>
 <g id="figure_1">
  <g id="patch_1">
   <path d="M 0 720 
L 720 720 
L 720 0 
L 0 0 
z
" style="fill:none;"/>
  </g>
  <g id="axes_1">
   <g id="patch_2">
    <path clip-path="url(#p9d9bd2bee5)" d="M 415.224712 164.18492 
L 430.674252 164.283601 
L 525.413035 163.899605 
L 617.426987 544.148844 
L 612.248521 544.115678 
L 594.877034 544.003063 
L 591.966437 543.987151 
L 591.959576 548.65333 
L 561.069703 548.80861 
L 488.78641 549.178556 
L 467.48552 549.290025 
L 416.310454 549.561022 
L 358.605004 552.277101 
L 357.324963 552.500395 
L 356.785788 552.490705 
L 355.878625 552.485066 
L 355.494036 552.478437 
L 354.756702 552.46571 
L 353.130817 552.454174 
L 351.978214 552.420822 
L 350.028005 552.395726 
L 347.27577 552.301613 
L 344.957396 552.178736 
L 342.932626 552.062423 
L 340.697472 551.890224 
L 338.50615 551.717967 
L 337.045757 551.571944 
L 324.338783 550.092046 
L 305.1833 548.631056 
L 238.985245 549.087998 
L 238.099999 549.097016 
L 122.0289 549.794343 
L 120.573013 549.797339 
L 120.619273 475.633589 
L 120.646762 431.570882 
L 120.689577 363.343764 
L 120.744992 269.962513 
L 122.384153 269.959167 
L 122.30894 175.173005 
L 130.376427 175.190408 
L 131.223563 175.185165 
L 132.324867 175.188027 
L 133.323563 175.180833 
L 134.341167 175.178783 
L 134.987218 175.177482 
L 135.932337 175.17565 
L 137.036994 175.168344 
L 137.847064 175.166718 
L 138.521717 175.155169 
L 139.452292 175.153304 
L 140.852978 175.150593 
L 141.713266 175.143786 
L 142.432965 175.147435 
L 143.993118 175.138957 
L 145.328731 175.13121 
L 146.498635 175.128952 
L 147.650157 175.126664 
L 149.06744 175.118882 
L 150.095092 175.111759 
L 151.312027 175.104264 
L 152.306207 175.102299 
L 154.510055 175.098019 
L 155.360293 175.096343 
L 156.683537 175.088607 
L 158.773886 175.079252 
L 159.888568 175.07198 
L 162.681072 175.08189 
L 163.87276 175.094821 
L 166.929407 175.104008 
L 169.923226 175.108345 
L 175.552606 175.072059 
L 177.86382 175.067566 
L 194.627611 175.068562 
L 208.549376 175.045139 
L 224.41673 175.001162 
L 235.268749 174.981442 
L 241.447963 174.975358 
L 248.890303 174.956783 
L 257.399492 174.886014 
L 261.918558 174.75668 
L 262.498999 174.725083 
L 263.309035 174.672812 
L 264.165937 174.605227 
L 265.77596 174.44012 
L 266.786801 174.31124 
L 267.777558 174.192592 
L 268.597607 174.079305 
L 270.405023 173.802699 
L 271.623358 173.592141 
L 272.660922 173.392047 
L 273.95061 173.131185 
L 274.800725 172.941613 
L 275.684327 172.746875 
L 276.756241 172.486023 
L 277.917618 172.204397 
L 278.841351 171.974018 
L 280.980657 171.422008 
L 282.282581 171.084231 
L 285.940978 170.143473 
L 289.733628 169.171747 
L 294.33206 168.092429 
L 298.117816 167.237645 
L 302.728149 166.305722 
L 303.317213 166.182728 
L 303.668673 166.13131 
L 304.294596 166.064157 
L 305.433506 165.96599 
L 306.380778 165.877989 
L 307.011051 165.816917 
L 307.004697 163.949232 
L 314.994702 163.970958 
L 345.748541 163.955602 
L 415.224712 164.18492 
" style="fill:#1a1a1a;stroke:#ffffff;stroke-linejoin:miter;stroke-width:4;"/>
   </g>
  </g>
 </g>
 <defs>
  <clipPath id="p9d9bd2bee5">
   <rect height="543.6" width="558" x="90" y="86.4"/>
  </clipPath>
 </defs>
</svg>
