<?xml version="1.0" encoding="utf-8" standalone="no"?>
<!DOCTYPE svg PUBLIC "-//W3C//DTD SVG 1.1//EN"
  "http://www.w3.org/Graphics/SVG/1.1/DTD/svg11.dtd">
<!-- Created with matplotlib (https://matplotlib.org/) -->
<svg height="720pt" version="1.1" viewBox="0 0 720 720" width="720pt" xmlns="http://www.w3.org/2000/svg" xmlns:xlink="http://www.w3.org/1999/xlink">
 <metadata>
  <rdf:RDF xmlns:cc="http://creativecommons.org/ns#" xmlns:dc="http://purl.org/dc/elements/1.1/" xmlns:rdf="http://www.w3.org/1999/02/22-rdf-syntax-ns#">
   <cc:Work>
    <dc:type rdf:resource="http://purl.org/dc/dcmitype/StillImage"/>
    <dc:date>2021-05-28T08:56:53.538448</dc:date>
    <dc:format>image/svg+xml</dc:format>
    <dc:creator>
     <cc:Agent>
      <dc:title>Matplotlib v3.3.3, https://matplotlib.org/</dc:title>
     </cc:Agent>
    </dc:creator>
   </cc:Work>
  </rdf:RDF>
 </metadata>
 <defs>
  <style type="text/css">*{stroke-linecap:butt;stroke-linejoin:round;}</style>
 </defs>
 <g id="figure_1">
  <g id="patch_1">
   <path d="M 0 720 
L 720 720 
L 720 0 
L 0 0 
z
" style="fill:none;"/>
  </g>
  <g id="axes_1">
   <g id="patch_2">
    <path clip-path="url(#p38f19ad114)" d="M 546.05285 132.370355 
L 571.145666 142.728259 
L 585.922018 152.607947 
L 589.217292 155.2929 
L 597.446564 166.835088 
L 600.291149 170.71606 
L 604.016999 181.808633 
L 604.366583 185.112286 
L 601.780989 197.526734 
L 599.75202 202.461582 
L 598.493525 204.386127 
L 591.767328 213.593449 
L 584.976063 221.272896 
L 569.051999 238.013713 
L 544.883457 265.136501 
L 529.268027 285.282077 
L 522.81025 297.717067 
L 515.691637 311.276307 
L 507.826169 330.298769 
L 505.661612 343.279466 
L 505.634495 356.547287 
L 504.421091 396.262166 
L 504.154306 572.643992 
L 388.496779 572.667682 
L 388.501527 572.696616 
L 388.604299 593.620086 
L 377.715572 589.82795 
L 362.004439 584.356552 
L 354.448999 581.725453 
L 338.030731 577.608607 
L 322.234583 574.794833 
L 310.299517 573.547636 
L 295.852221 572.715655 
L 295.730613 572.69142 
L 133.657323 572.743009 
L 133.656124 570.749915 
L 133.654493 560.031929 
L 133.653277 549.313945 
L 133.644519 485.015397 
L 133.644524 485.011854 
L 133.633417 397.8673 
L 133.633625 396.316315 
L 134.121554 351.67464 
L 134.039341 308.054939 
L 134.243034 263.75608 
L 134.282466 235.226605 
L 134.295824 225.562134 
L 134.341474 222.537718 
L 134.442804 221.237941 
L 134.618445 219.831708 
L 134.912083 218.188995 
L 135.374073 216.276921 
L 135.88374 214.615878 
L 136.446547 213.074148 
L 137.038558 211.666821 
L 138.914841 208.036044 
L 140.802169 205.092393 
L 142.771259 202.545113 
L 147.032318 197.538451 
L 149.59212 194.373761 
L 151.852621 191.006859 
L 153.828321 187.505153 
L 155.226864 183.658427 
L 156.148257 180.068317 
L 156.592007 176.737657 
L 156.662733 173.937526 
L 156.473696 167.471529 
L 155.971763 158.246438 
L 154.929028 147.348685 
L 153.40554 137.656177 
L 259.036906 137.899161 
L 305.583283 136.732117 
L 371.478495 131.507423 
L 446.029376 124.349642 
L 469.80711 122.97798 
L 477.15186 122.877937 
L 497.625008 122.779914 
L 520.887497 125.502895 
L 546.05285 132.370355 
" style="fill:#1a1a1a;stroke:#ffffff;stroke-linejoin:miter;stroke-width:4;"/>
   </g>
  </g>
 </g>
 <defs>
  <clipPath id="p38f19ad114">
   <rect height="543.6" width="558" x="90" y="86.4"/>
  </clipPath>
 </defs>
</svg>
