<?xml version="1.0" encoding="utf-8" standalone="no"?>
<!DOCTYPE svg PUBLIC "-//W3C//DTD SVG 1.1//EN"
  "http://www.w3.org/Graphics/SVG/1.1/DTD/svg11.dtd">
<!-- Created with matplotlib (https://matplotlib.org/) -->
<svg height="720pt" version="1.1" viewBox="0 0 720 720" width="720pt" xmlns="http://www.w3.org/2000/svg" xmlns:xlink="http://www.w3.org/1999/xlink">
 <metadata>
  <rdf:RDF xmlns:cc="http://creativecommons.org/ns#" xmlns:dc="http://purl.org/dc/elements/1.1/" xmlns:rdf="http://www.w3.org/1999/02/22-rdf-syntax-ns#">
   <cc:Work>
    <dc:type rdf:resource="http://purl.org/dc/dcmitype/StillImage"/>
    <dc:date>2021-05-28T08:56:52.181769</dc:date>
    <dc:format>image/svg+xml</dc:format>
    <dc:creator>
     <cc:Agent>
      <dc:title>Matplotlib v3.3.3, https://matplotlib.org/</dc:title>
     </cc:Agent>
    </dc:creator>
   </cc:Work>
  </rdf:RDF>
 </metadata>
 <defs>
  <style type="text/css">*{stroke-linecap:butt;stroke-linejoin:round;}</style>
 </defs>
 <g id="figure_1">
  <g id="patch_1">
   <path d="M 0 720 
L 720 720 
L 720 0 
L 0 0 
z
" style="fill:none;"/>
  </g>
  <g id="axes_1">
   <g id="patch_2">
    <path clip-path="url(#pfd5c3b5c68)" d="M 171.835138 549.261991 
L 158.842226 553.654303 
L 159.464399 505.260999 
L 159.443454 478.666304 
L 159.444346 439.178989 
L 159.445227 399.724468 
L 159.445477 388.8385 
L 159.446078 360.653456 
L 156.906813 347.89006 
L 156.907344 321.098936 
L 156.908154 281.246284 
L 156.983269 241.845694 
L 156.95069 202.375533 
L 156.907659 165.703947 
L 159.311196 162.893984 
L 174.38995 162.881494 
L 190.128994 162.868591 
L 221.849745 162.842897 
L 237.535684 162.830347 
L 253.501429 162.817691 
L 269.115407 162.805431 
L 286.652724 162.791786 
L 300.685974 162.78094 
L 316.308062 162.769084 
L 332.246813 162.757219 
L 347.900575 162.745697 
L 351.686859 162.931687 
L 363.812734 162.92285 
L 379.395614 162.911567 
L 418.069908 162.884068 
L 434.724533 162.872425 
L 449.034442 162.862508 
L 453.127567 162.859702 
L 465.49986 162.851235 
L 482.09359 162.839967 
L 498.047066 162.829264 
L 514.423319 162.818224 
L 530.59386 162.807414 
L 549.029936 162.795264 
L 563.140878 162.786051 
L 581.093187 162.774489 
L 579.504665 168.234047 
L 579.351925 202.060396 
L 579.267914 241.334612 
L 579.768666 281.045859 
L 579.856308 320.389783 
L 579.869344 360.102525 
L 580.413235 399.527667 
L 578.853992 404.861487 
L 563.761655 410.725077 
L 547.308376 417.117603 
L 531.237203 423.361811 
L 514.826648 429.738049 
L 498.714082 435.985717 
L 482.285424 442.356057 
L 466.191428 448.144274 
L 451.489034 453.567751 
L 433.668751 459.560481 
L 431.849789 460.319838 
L 430.335343 460.823314 
L 428.841405 461.326766 
L 427.224705 461.889375 
L 426.058193 462.289146 
L 424.748369 462.703854 
L 423.684112 463.02974 
L 422.537892 463.340997 
L 421.043604 463.711672 
L 420.020044 463.934261 
L 418.648587 464.260537 
L 418.013935 464.379343 
L 417.345842 464.525553 
L 416.277081 464.893474 
L 415.445969 465.185987 
L 413.806104 465.722394 
L 412.121359 466.27508 
L 410.54888 466.779032 
L 409.088736 467.250471 
L 407.628555 467.705713 
L 406.325662 468.128362 
L 404.483485 468.665033 
L 402.933321 469.088021 
L 401.742576 469.413368 
L 400.664158 469.690027 
L 399.428492 470.015433 
L 398.889367 470.194245 
L 398.395116 470.340605 
L 397.284978 470.658623 
L 396.453866 470.934945 
L 395.420412 471.227724 
L 394.656651 471.47159 
L 393.780556 471.747971 
L 392.926819 471.975755 
L 391.848445 472.268592 
L 390.725327 472.658649 
L 389.355136 473.129962 
L 388.56891 473.390056 
L 388.187115 473.552472 
L 387.311374 473.958389 
L 386.256008 474.477894 
L 385.868366 474.653839 
L 384.882403 475.984979 
L 382.088645 476.793917 
L 368.392216 481.687871 
L 364.023283 483.347482 
L 348.394566 488.765703 
L 339.846266 491.693648 
L 332.481303 494.157452 
L 316.705572 499.620052 
L 303.248751 504.229669 
L 300.928917 505.024356 
L 285.326433 510.369195 
L 253.553413 521.253931 
L 225.02579 531.027404 
L 186.306996 544.293114 
L 177.65596 547.257223 
L 171.835138 549.261991 
" style="fill:#1a1a1a;stroke:#ffffff;stroke-linejoin:miter;stroke-width:4;"/>
   </g>
  </g>
 </g>
 <defs>
  <clipPath id="pfd5c3b5c68">
   <rect height="543.6" width="558" x="90" y="86.4"/>
  </clipPath>
 </defs>
</svg>
