<?xml version="1.0" encoding="utf-8" standalone="no"?>
<!DOCTYPE svg PUBLIC "-//W3C//DTD SVG 1.1//EN"
  "http://www.w3.org/Graphics/SVG/1.1/DTD/svg11.dtd">
<!-- Created with matplotlib (https://matplotlib.org/) -->
<svg height="720pt" version="1.1" viewBox="0 0 720 720" width="720pt" xmlns="http://www.w3.org/2000/svg" xmlns:xlink="http://www.w3.org/1999/xlink">
 <metadata>
  <rdf:RDF xmlns:cc="http://creativecommons.org/ns#" xmlns:dc="http://purl.org/dc/elements/1.1/" xmlns:rdf="http://www.w3.org/1999/02/22-rdf-syntax-ns#">
   <cc:Work>
    <dc:type rdf:resource="http://purl.org/dc/dcmitype/StillImage"/>
    <dc:date>2021-05-07T11:03:00.352794</dc:date>
    <dc:format>image/svg+xml</dc:format>
    <dc:creator>
     <cc:Agent>
      <dc:title>Matplotlib v3.3.3, https://matplotlib.org/</dc:title>
     </cc:Agent>
    </dc:creator>
   </cc:Work>
  </rdf:RDF>
 </metadata>
 <defs>
  <style type="text/css">*{stroke-linecap:butt;stroke-linejoin:round;}</style>
 </defs>
 <g id="figure_1">
  <g id="patch_1">
   <path d="M 0 720 
L 720 720 
L 720 0 
L 0 0 
z
" style="fill:none;"/>
  </g>
  <g id="axes_1">
   <g id="patch_2">
    <path clip-path="url(#p71992aad06)" d="M 617.394554 185.501529 
L 617.38704 195.188437 
L 617.379549 204.846921 
L 617.369142 205.826382 
L 617.377064 211.254083 
L 617.385086 216.646385 
L 617.392963 222.038608 
L 617.398733 225.989475 
L 617.40084 227.43091 
L 617.408717 232.823213 
L 617.416594 238.215516 
L 617.42447 243.60782 
L 617.432347 249.000324 
L 617.440223 254.392628 
L 617.4481 259.784932 
L 617.455976 265.177236 
L 617.463853 270.56954 
L 617.471729 275.961845 
L 617.479605 281.35415 
L 617.487481 286.746455 
L 617.495337 292.128076 
L 617.482602 297.700916 
L 617.469845 303.284541 
L 617.456943 308.868246 
L 617.444186 314.452031 
L 617.431429 320.035737 
L 617.418673 325.619442 
L 617.405917 331.202948 
L 617.39316 336.786654 
L 617.380404 342.37036 
L 617.367649 347.954067 
L 617.354893 353.537774 
L 617.342137 359.121401 
L 617.329237 364.705108 
L 617.316481 370.288896 
L 617.303726 375.872603 
L 617.290971 381.456352 
L 617.314092 476.740309 
L 617.300133 476.740449 
L 465.129813 478.082566 
L 452.823021 478.165791 
L 440.876559 478.026548 
L 385.262811 478.325542 
L 383.725774 478.326057 
L 383.668346 534.649026 
L 383.698521 538.128708 
L 383.601316 542.238752 
L 383.149252 545.406671 
L 382.45374 548.233893 
L 381.538928 550.83925 
L 380.726937 552.681863 
L 380.048283 553.940985 
L 378.422967 556.362419 
L 376.758301 558.266335 
L 375.30717 559.574277 
L 372.860513 561.184563 
L 369.477648 562.541739 
L 366.177146 563.106159 
L 362.158094 563.059607 
L 358.129477 562.862596 
L 357.658607 548.164595 
L 357.479627 541.90687 
L 357.397719 536.501736 
L 357.269506 533.590053 
L 356.767434 529.459704 
L 355.887902 525.288007 
L 354.964927 522.297641 
L 353.85672 519.283078 
L 352.872436 517.277345 
L 352.015951 515.808945 
L 350.915078 514.201173 
L 347.947067 510.880451 
L 345.657013 508.251878 
L 341.898329 503.980928 
L 335.538566 496.730669 
L 334.632431 495.706205 
L 333.555996 494.364891 
L 332.696318 493.12002 
L 331.974111 491.926937 
L 331.120865 490.270732 
L 330.193936 488.102229 
L 329.648168 486.491459 
L 329.255251 485.144466 
L 328.837169 483.516779 
L 328.537158 482.166646 
L 328.288315 480.621184 
L 328.153115 478.52824 
L 327.829497 478.529017 
L 317.363289 478.486922 
L 301.117471 478.218117 
L 293.648363 478.204622 
L 285.095203 478.18931 
L 283.135211 478.211935 
L 260.491277 478.101408 
L 239.7738 478.157093 
L 215.127377 478.30907 
L 173.663132 478.23353 
L 138.000487 478.165569 
L 121.943131 477.658758 
L 121.941459 464.883569 
L 122.216788 436.973999 
L 122.087894 396.010581 
L 122.06945 388.526601 
L 122.032693 379.252736 
L 121.983084 347.650318 
L 121.910622 331.671257 
L 121.992989 319.702037 
L 122.057342 318.345391 
L 122.199978 315.83917 
L 120.713275 315.828072 
L 120.504663 234.566566 
L 121.498326 232.988163 
L 121.56225 153.393378 
L 238.415281 153.582028 
L 241.337624 153.578936 
L 358.192993 153.475943 
L 471.500441 153.381085 
L 471.585458 153.425647 
L 481.685742 154.955458 
L 490.029695 157.24875 
L 501.072978 162.422599 
L 512.551193 169.992481 
L 517.833295 174.830434 
L 528.817143 184.891007 
L 536.429587 191.863825 
L 536.357738 153.390639 
L 536.354418 153.337435 
L 617.212031 153.293876 
L 617.215562 153.293881 
L 617.283491 153.293841 
L 617.344412 159.518264 
L 617.409558 166.158446 
L 617.402068 175.814623 
L 617.394554 185.501529 
" style="stroke:#ffffff;stroke-linejoin:miter;stroke-width:2;"/>
   </g>
  </g>
 </g>
 <defs>
  <clipPath id="p71992aad06">
   <rect height="543.6" width="558" x="90" y="86.4"/>
  </clipPath>
 </defs>
</svg>
