<?xml version="1.0" encoding="utf-8" standalone="no"?>
<!DOCTYPE svg PUBLIC "-//W3C//DTD SVG 1.1//EN"
  "http://www.w3.org/Graphics/SVG/1.1/DTD/svg11.dtd">
<!-- Created with matplotlib (https://matplotlib.org/) -->
<svg height="720pt" version="1.1" viewBox="0 0 720 720" width="720pt" xmlns="http://www.w3.org/2000/svg" xmlns:xlink="http://www.w3.org/1999/xlink">
 <metadata>
  <rdf:RDF xmlns:cc="http://creativecommons.org/ns#" xmlns:dc="http://purl.org/dc/elements/1.1/" xmlns:rdf="http://www.w3.org/1999/02/22-rdf-syntax-ns#">
   <cc:Work>
    <dc:type rdf:resource="http://purl.org/dc/dcmitype/StillImage"/>
    <dc:date>2021-05-28T08:56:50.590157</dc:date>
    <dc:format>image/svg+xml</dc:format>
    <dc:creator>
     <cc:Agent>
      <dc:title>Matplotlib v3.3.3, https://matplotlib.org/</dc:title>
     </cc:Agent>
    </dc:creator>
   </cc:Work>
  </rdf:RDF>
 </metadata>
 <defs>
  <style type="text/css">*{stroke-linecap:butt;stroke-linejoin:round;}</style>
 </defs>
 <g id="figure_1">
  <g id="patch_1">
   <path d="M 0 720 
L 720 720 
L 720 0 
L 0 0 
z
" style="fill:none;"/>
  </g>
  <g id="axes_1">
   <g id="patch_2">
    <path clip-path="url(#p6e5bf00342)" d="M 290.892999 134.859075 
L 311.576247 139.932255 
L 312.105204 138.609755 
L 315.397624 139.336109 
L 319.111337 139.763104 
L 321.769511 139.826185 
L 333.725563 139.182005 
L 339.319037 138.775114 
L 342.060892 138.472907 
L 344.085287 138.071978 
L 345.729636 137.505494 
L 347.247213 136.83955 
L 351.64677 134.686497 
L 352.090038 135.08997 
L 353.57862 136.438737 
L 354.483207 137.244789 
L 355.540814 138.038615 
L 356.889139 138.795945 
L 357.992106 139.312642 
L 359.462491 139.877087 
L 361.05501 140.28478 
L 362.555444 140.560075 
L 363.68827 140.691239 
L 365.203561 140.737632 
L 366.596958 140.688702 
L 367.66811 140.579024 
L 368.999203 140.348557 
L 370.483055 139.961314 
L 371.645558 139.610592 
L 373.312765 139.066519 
L 375.132942 138.474091 
L 376.784958 137.978231 
L 378.345126 137.482494 
L 379.645261 137.059338 
L 380.761962 136.756861 
L 381.802233 136.502663 
L 383.592155 136.090989 
L 385.855308 135.730592 
L 387.38548 135.54812 
L 388.915745 135.413828 
L 390.354217 135.303741 
L 393.154694 135.119808 
L 396.169488 134.95973 
L 400.925273 134.653387 
L 407.696863 134.212725 
L 415.80546 133.181302 
L 418.355215 144.194613 
L 419.764407 149.53353 
L 421.917545 154.794496 
L 424.154154 158.840735 
L 426.904804 162.683976 
L 429.396611 165.650274 
L 433.519715 169.896878 
L 437.726792 173.198689 
L 443.048867 176.769218 
L 447.254401 179.261326 
L 482.711566 197.579935 
L 492.486297 202.647389 
L 496.497097 204.713845 
L 503.833684 208.800118 
L 508.542687 211.643568 
L 513.161648 214.77197 
L 516.694963 217.901488 
L 520.681478 221.60023 
L 524.669452 226.22468 
L 532.191953 234.904431 
L 537.900873 241.02259 
L 555.929522 258.165892 
L 585.375273 285.639337 
L 591.299168 291.359285 
L 596.252986 296.927487 
L 600.624107 301.961884 
L 604.122296 306.920747 
L 610.952431 317.924109 
L 614.606139 325.758761 
L 617.04373 332.256331 
L 618.99645 339.327847 
L 620.828669 347.068563 
L 621.445301 353.75894 
L 621.332946 360.067621 
L 621.101799 368.192518 
L 619.896862 374.502172 
L 618.38481 380.210393 
L 617.941571 381.481137 
L 615.759652 387.513319 
L 614.062474 391.690318 
L 612.777509 394.136468 
L 610.470562 398.679552 
L 609.086627 401.093539 
L 605.634731 406.261614 
L 601.78892 411.390815 
L 597.552613 416.265936 
L 592.536289 421.359909 
L 589.370689 424.561872 
L 586.447844 427.000205 
L 582.404207 430.093947 
L 576.849729 433.916181 
L 571.684859 437.301853 
L 567.542949 439.81411 
L 551.511592 449.462978 
L 548.344645 451.538163 
L 545.129412 453.904228 
L 542.060743 456.415572 
L 540.185462 457.944222 
L 539.011027 459.070897 
L 534.159341 463.910251 
L 530.222665 468.691711 
L 527.341712 472.947122 
L 525.024202 477.149484 
L 523.409434 480.353627 
L 521.865631 483.872716 
L 520.674014 487.391443 
L 519.273739 492.511618 
L 518.647237 497.027295 
L 518.300657 500.440173 
L 518.127777 516.391739 
L 518.110771 527.352387 
L 518.100366 532.866991 
L 518.510765 535.989049 
L 518.517178 548.356539 
L 518.167047 549.946297 
L 518.239514 556.190726 
L 518.249044 559.577939 
L 518.172262 569.614492 
L 518.54117 581.696976 
L 518.2341 596.815324 
L 515.044919 596.439107 
L 510.868615 595.612165 
L 505.95582 594.39027 
L 499.222558 592.262293 
L 490.173573 589.321186 
L 478.843023 585.204093 
L 462.783951 578.859666 
L 458.45352 577.081805 
L 453.511658 575.052952 
L 448.275219 572.988763 
L 446.031192 572.206081 
L 438.915771 569.856569 
L 435.1125 568.71824 
L 415.467749 563.243755 
L 381.395936 553.508865 
L 373.515705 550.980542 
L 368.299915 548.72046 
L 363.382113 546.182111 
L 360.773341 544.624499 
L 358.245953 543.045417 
L 356.751072 542.020984 
L 352.847303 539.15194 
L 325.586305 517.311547 
L 315.9402 509.621865 
L 305.420463 500.777132 
L 290.235258 489.785194 
L 231.068375 448.321986 
L 222.897779 442.357223 
L 218.393586 439.469453 
L 203.560868 429.296369 
L 193.068516 422.443325 
L 182.170947 416.450444 
L 116.554699 382.636661 
L 119.443022 376.45234 
L 121.737279 372.289287 
L 124.537392 368.125487 
L 127.394176 364.138615 
L 130.784467 359.951846 
L 152.871923 335.75821 
L 159.150274 328.580398 
L 162.735975 323.619076 
L 165.647312 318.680855 
L 168.443354 312.481661 
L 170.453955 306.903108 
L 171.676653 300.883182 
L 172.227457 295.992627 
L 172.32801 290.859328 
L 171.975806 284.399143 
L 166.581716 236.969491 
L 166.113011 228.805809 
L 166.657916 221.370814 
L 167.874815 212.784325 
L 169.692335 204.722604 
L 172.486943 197.449245 
L 177.919358 186.537451 
L 180.226233 182.83789 
L 185.419339 175.622778 
L 191.935005 168.097806 
L 201.341873 159.090349 
L 211.450233 151.070802 
L 213.363738 149.685549 
L 216.126491 147.918109 
L 220.034988 145.501042 
L 224.140151 142.931086 
L 228.277839 140.365004 
L 232.286999 137.836705 
L 236.289992 135.355846 
L 239.942501 133.05607 
L 242.508716 131.444646 
L 245.285059 129.624176 
L 247.427803 128.144535 
L 249.476041 126.643776 
L 251.895772 124.776731 
L 254.347806 122.744242 
L 256.462817 120.89281 
L 257.452244 119.996704 
L 257.88162 119.584676 
L 261.681561 121.987361 
L 271.20684 128.08231 
L 272.776146 129.028108 
L 274.418135 129.899732 
L 276.049638 130.659604 
L 277.734094 131.344333 
L 279.544648 131.976795 
L 281.400164 132.522294 
L 283.103541 132.948766 
L 288.850932 134.358245 
L 290.892999 134.859075 
" style="fill:#1a1a1a;stroke:#ffffff;stroke-linejoin:miter;stroke-width:4;"/>
   </g>
  </g>
 </g>
 <defs>
  <clipPath id="p6e5bf00342">
   <rect height="543.6" width="558" x="90" y="86.4"/>
  </clipPath>
 </defs>
</svg>
