<?xml version="1.0" encoding="utf-8" standalone="no"?>
<!DOCTYPE svg PUBLIC "-//W3C//DTD SVG 1.1//EN"
  "http://www.w3.org/Graphics/SVG/1.1/DTD/svg11.dtd">
<!-- Created with matplotlib (https://matplotlib.org/) -->
<svg height="720pt" version="1.1" viewBox="0 0 720 720" width="720pt" xmlns="http://www.w3.org/2000/svg" xmlns:xlink="http://www.w3.org/1999/xlink">
 <metadata>
  <rdf:RDF xmlns:cc="http://creativecommons.org/ns#" xmlns:dc="http://purl.org/dc/elements/1.1/" xmlns:rdf="http://www.w3.org/1999/02/22-rdf-syntax-ns#">
   <cc:Work>
    <dc:type rdf:resource="http://purl.org/dc/dcmitype/StillImage"/>
    <dc:date>2021-05-28T08:56:52.767517</dc:date>
    <dc:format>image/svg+xml</dc:format>
    <dc:creator>
     <cc:Agent>
      <dc:title>Matplotlib v3.3.3, https://matplotlib.org/</dc:title>
     </cc:Agent>
    </dc:creator>
   </cc:Work>
  </rdf:RDF>
 </metadata>
 <defs>
  <style type="text/css">*{stroke-linecap:butt;stroke-linejoin:round;}</style>
 </defs>
 <g id="figure_1">
  <g id="patch_1">
   <path d="M 0 720 
L 720 720 
L 720 0 
L 0 0 
z
" style="fill:none;"/>
  </g>
  <g id="axes_1">
   <g id="patch_2">
    <path clip-path="url(#pfb7dd406e9)" d="M 314.203424 224.953628 
L 316.101585 225.140296 
L 317.94252 225.24274 
L 319.43468 225.237221 
L 321.510743 225.27947 
L 323.470932 225.29996 
L 325.519249 225.27931 
L 327.448338 225.361961 
L 329.579922 225.550947 
L 331.86386 225.44913 
L 333.881681 225.511985 
L 335.772233 226.053565 
L 337.575728 226.573448 
L 339.405203 225.7987 
L 341.61516 226.468829 
L 343.453458 226.717687 
L 345.358563 226.528534 
L 347.514154 227.010314 
L 348.246099 226.996672 
L 350.089259 226.995086 
L 351.960164 227.055991 
L 353.859335 227.180167 
L 356.013824 227.703529 
L 357.939668 227.953158 
L 360.130036 228.142985 
L 362.317187 228.52075 
L 364.210915 228.895378 
L 366.341996 229.146933 
L 368.408299 229.669536 
L 370.561768 230.255825 
L 372.364179 230.838232 
L 374.135572 231.504142 
L 376.025728 232.108289 
L 378.323331 232.779614 
L 380.153482 233.424926 
L 382.233557 234.762188 
L 384.214501 235.200551 
L 386.304248 236.036511 
L 388.564914 237.125271 
L 390.712952 237.982579 
L 392.893079 238.694701 
L 394.728639 239.068599 
L 396.798804 239.424252 
L 398.605052 239.818692 
L 400.352454 240.2128 
L 402.245234 240.670968 
L 404.048757 241.190839 
L 405.940378 241.690545 
L 407.366754 242.039628 
L 409.641545 242.418184 
L 411.918483 242.671683 
L 413.872716 242.963266 
L 415.737662 243.337565 
L 417.777352 243.755345 
L 419.760453 244.089228 
L 421.745644 244.297725 
L 423.932249 244.675523 
L 425.942568 245.113846 
L 427.658477 245.633002 
L 429.808059 246.40726 
L 431.328555 246.443709 
L 433.272979 247.236605 
L 435.140674 247.464923 
L 437.063907 247.860538 
L 439.101939 248.341248 
L 440.904865 248.902712 
L 442.825371 249.4238 
L 444.545564 249.734011 
L 446.381713 250.08737 
L 448.368028 250.233329 
L 450.512171 251.278647 
L 452.441374 251.382287 
L 454.375425 251.214098 
L 456.565293 251.445922 
L 458.784528 251.656755 
L 461.004288 251.826013 
L 462.553099 251.925416 
L 464.598723 252.030222 
L 466.617705 252.030222 
L 467.232617 251.994878 
L 468.958206 252.012706 
L 470.805261 251.823195 
L 472.904212 252.220813 
L 474.858953 252.470889 
L 476.991681 252.638977 
L 478.860468 252.825367 
L 480.990994 253.077392 
L 482.717682 253.053279 
L 484.241426 252.923194 
L 486.322421 252.73564 
L 488.404492 252.485949 
L 490.367388 252.339142 
L 492.653539 252.132957 
L 494.503792 251.776492 
L 496.295833 251.41883 
L 498.154771 250.623571 
L 500.251019 249.66367 
L 502.522422 248.705717 
L 504.405877 248.1613 
L 506.434074 247.681358 
L 508.091118 246.737773 
L 510.335945 245.674975 
L 512.604128 244.904965 
L 514.88205 243.612679 
L 517.042534 242.382111 
L 519.150191 240.837434 
L 521.170764 239.291947 
L 522.628074 238.075018 
L 523.016688 237.682458 
L 524.684064 236.216601 
L 526.713032 235.027861 
L 526.69805 246.966165 
L 526.614847 318.12135 
L 521.348398 318.117612 
L 521.302346 365.143032 
L 509.602078 365.137947 
L 432.185669 428.444433 
L 432.092237 470.130068 
L 449.653293 470.132441 
L 449.626693 491.761904 
L 435.819103 491.757954 
L 425.765844 492.764806 
L 411.84026 478.709561 
L 401.718012 468.547018 
L 391.352239 468.546335 
L 391.001859 468.54574 
L 378.505615 468.536398 
L 377.918576 469.046552 
L 376.872578 469.820649 
L 375.79716 470.436316 
L 373.717432 471.257682 
L 371.207018 471.874371 
L 368.409097 472.132444 
L 332.695284 472.033194 
L 239.678504 472.171454 
L 223.386753 472.104853 
L 229.089665 465.132915 
L 233.335487 458.980309 
L 235.761063 454.999427 
L 237.882479 450.801662 
L 239.598619 446.531881 
L 240.607094 442.657457 
L 241.006926 438.677967 
L 241.407579 435.34963 
L 241.199461 431.225843 
L 240.891784 428.404431 
L 239.668918 422.906696 
L 238.041243 417.698628 
L 236.52096 413.458333 
L 232.252275 402.75355 
L 228.185686 391.686866 
L 219.246462 367.211127 
L 216.704374 360.050281 
L 216.70182 358.169201 
L 217.003451 356.504962 
L 217.710328 354.91278 
L 219.057508 353.758246 
L 219.531431 353.135182 
L 220.744874 351.615028 
L 221.653897 349.660941 
L 222.051957 347.108487 
L 216.770883 331.52653 
L 214.940111 326.029266 
L 213.922352 322.484817 
L 213.107756 319.374371 
L 212.394181 316.046763 
L 212.08462 311.923091 
L 211.313698 283.346258 
L 211.286968 263.611704 
L 211.459867 240.9847 
L 211.543405 236.172921 
L 212.499728 235.913385 
L 214.351505 235.472944 
L 216.488427 235.390452 
L 218.271751 235.471508 
L 219.52774 235.568104 
L 221.48997 235.442185 
L 223.457162 235.107315 
L 224.220085 234.989997 
L 226.363557 234.594185 
L 228.566858 234.115632 
L 230.710332 233.720233 
L 233.00228 233.200909 
L 234.413321 232.881231 
L 236.701547 232.549888 
L 238.902167 232.217373 
L 240.752279 231.860385 
L 242.838094 231.443606 
L 244.688265 231.086619 
L 246.538408 230.7087 
L 248.682985 230.271322 
L 250.946153 229.731096 
L 252.593857 229.246768 
L 254.859163 228.622609 
L 256.889429 228.037679 
L 258.681886 227.617859 
L 260.033078 227.360327 
L 262.17333 227.131908 
L 264.134501 227.068478 
L 266.242672 226.985661 
L 267.829456 226.625984 
L 269.769956 226.144753 
L 271.912348 225.790911 
L 273.762008 225.475883 
L 275.554471 225.05603 
L 277.43731 224.553087 
L 279.290122 224.050124 
L 281.252452 223.945166 
L 283.006361 224.004885 
L 284.78588 224.253304 
L 286.979985 224.254744 
L 288.240312 224.14249 
L 289.967023 224.118708 
L 292.074128 224.098372 
L 294.063136 224.119281 
L 296.056915 223.868361 
L 298.1074 223.7432 
L 299.917958 223.929138 
L 302.099084 224.577882 
L 303.786658 225.034045 
L 305.611787 224.468235 
L 307.88093 223.635194 
L 310.174254 224.535954 
L 312.102824 224.660544 
L 314.203424 224.953628 
" style="fill:#1a1a1a;stroke:#ffffff;stroke-linejoin:miter;stroke-width:4;"/>
   </g>
  </g>
 </g>
 <defs>
  <clipPath id="pfb7dd406e9">
   <rect height="543.6" width="558" x="90" y="86.4"/>
  </clipPath>
 </defs>
</svg>
