<?xml version="1.0" encoding="utf-8" standalone="no"?>
<!DOCTYPE svg PUBLIC "-//W3C//DTD SVG 1.1//EN"
  "http://www.w3.org/Graphics/SVG/1.1/DTD/svg11.dtd">
<!-- Created with matplotlib (https://matplotlib.org/) -->
<svg height="720pt" version="1.1" viewBox="0 0 720 720" width="720pt" xmlns="http://www.w3.org/2000/svg" xmlns:xlink="http://www.w3.org/1999/xlink">
 <metadata>
  <rdf:RDF xmlns:cc="http://creativecommons.org/ns#" xmlns:dc="http://purl.org/dc/elements/1.1/" xmlns:rdf="http://www.w3.org/1999/02/22-rdf-syntax-ns#">
   <cc:Work>
    <dc:type rdf:resource="http://purl.org/dc/dcmitype/StillImage"/>
    <dc:date>2021-05-07T11:03:01.145350</dc:date>
    <dc:format>image/svg+xml</dc:format>
    <dc:creator>
     <cc:Agent>
      <dc:title>Matplotlib v3.3.3, https://matplotlib.org/</dc:title>
     </cc:Agent>
    </dc:creator>
   </cc:Work>
  </rdf:RDF>
 </metadata>
 <defs>
  <style type="text/css">*{stroke-linecap:butt;stroke-linejoin:round;}</style>
 </defs>
 <g id="figure_1">
  <g id="patch_1">
   <path d="M 0 720 
L 720 720 
L 720 0 
L 0 0 
z
" style="fill:none;"/>
  </g>
  <g id="axes_1">
   <g id="patch_2">
    <path clip-path="url(#p845d9fa02d)" d="M 414.540934 165.964047 
L 441.570301 165.971924 
L 444.446744 167.053156 
L 463.938167 167.060073 
L 465.549618 171.529632 
L 475.303156 169.66947 
L 491.121086 167.803717 
L 508.733217 166.980547 
L 527.878111 167.052361 
L 545.193592 167.487532 
L 582.847545 167.15892 
L 582.331913 362.657094 
L 582.327167 425.983176 
L 586.052628 466.488153 
L 588.12673 493.184944 
L 592.490439 550.686024 
L 343.864671 550.905976 
L 154.702289 550.825113 
L 154.664452 313.140402 
L 153.058301 296.911857 
L 150.138992 276.90599 
L 146.340058 259.087306 
L 145.509561 245.93755 
L 145.677497 223.942167 
L 145.909 165.982928 
L 158.757368 165.990526 
L 178.190577 165.815437 
L 182.943781 165.835408 
L 203.812829 165.93125 
L 212.724573 165.93174 
L 250.629627 165.934386 
L 299.42504 165.813903 
L 309.300147 165.894738 
L 339.060998 166.041685 
L 352.374449 165.570535 
L 387.438687 165.494024 
L 398.008736 165.598014 
L 414.540934 165.964047 
" style="stroke:#ffffff;stroke-linejoin:miter;stroke-width:2;"/>
   </g>
  </g>
 </g>
 <defs>
  <clipPath id="p845d9fa02d">
   <rect height="543.6" width="558" x="90" y="86.4"/>
  </clipPath>
 </defs>
</svg>
