<?xml version="1.0" encoding="utf-8" standalone="no"?>
<!DOCTYPE svg PUBLIC "-//W3C//DTD SVG 1.1//EN"
  "http://www.w3.org/Graphics/SVG/1.1/DTD/svg11.dtd">
<!-- Created with matplotlib (https://matplotlib.org/) -->
<svg height="720pt" version="1.1" viewBox="0 0 720 720" width="720pt" xmlns="http://www.w3.org/2000/svg" xmlns:xlink="http://www.w3.org/1999/xlink">
 <metadata>
  <rdf:RDF xmlns:cc="http://creativecommons.org/ns#" xmlns:dc="http://purl.org/dc/elements/1.1/" xmlns:rdf="http://www.w3.org/1999/02/22-rdf-syntax-ns#">
   <cc:Work>
    <dc:type rdf:resource="http://purl.org/dc/dcmitype/StillImage"/>
    <dc:date>2021-05-07T11:03:04.371850</dc:date>
    <dc:format>image/svg+xml</dc:format>
    <dc:creator>
     <cc:Agent>
      <dc:title>Matplotlib v3.3.3, https://matplotlib.org/</dc:title>
     </cc:Agent>
    </dc:creator>
   </cc:Work>
  </rdf:RDF>
 </metadata>
 <defs>
  <style type="text/css">*{stroke-linecap:butt;stroke-linejoin:round;}</style>
 </defs>
 <g id="figure_1">
  <g id="patch_1">
   <path d="M 0 720 
L 720 720 
L 720 0 
L 0 0 
z
" style="fill:none;"/>
  </g>
  <g id="axes_1">
   <g id="patch_2">
    <path clip-path="url(#p15cd7bcdc7)" d="M 534.051503 329.12674 
L 535.778113 376.633616 
L 535.787486 415.828184 
L 535.856224 533.485486 
L 526.35111 533.478254 
L 524.631532 533.477145 
L 499.640151 533.458339 
L 480.501725 533.444061 
L 466.918655 533.43405 
L 453.946753 533.424536 
L 440.974851 533.414997 
L 427.18937 533.404949 
L 414.217734 533.395507 
L 401.246204 533.386098 
L 368.811656 533.362581 
L 354.286277 533.352289 
L 338.069003 533.340626 
L 320.228937 533.328077 
L 320.212238 504.801522 
L 320.212752 504.285618 
L 318.659033 504.284687 
L 292.96245 504.269157 
L 276.734165 504.259896 
L 252.415668 504.246026 
L 249.169169 504.244138 
L 237.935903 504.237883 
L 223.223808 504.231405 
L 202.143776 504.221937 
L 221.713607 478.562088 
L 224.277643 475.199763 
L 231.395734 470.394119 
L 263.8625 448.477077 
L 273.320115 442.091654 
L 274.354301 441.393433 
L 296.668272 435.776764 
L 320.221617 429.848222 
L 320.222341 417.184369 
L 349.828374 417.204392 
L 363.220774 417.213419 
L 364.891935 417.238803 
L 390.100019 417.251003 
L 405.418754 417.258394 
L 420.018724 417.265482 
L 433.810059 417.272411 
L 447.601179 417.279206 
L 463.01575 417.286991 
L 476.806658 417.293835 
L 489.783604 417.300368 
L 496.069123 417.305005 
L 500.286554 417.301795 
L 500.282763 415.716488 
L 499.666744 412.773223 
L 498.780244 410.160404 
L 497.893825 407.582437 
L 496.329405 404.62165 
L 494.766512 402.322936 
L 492.728034 399.327635 
L 490.418967 395.753949 
L 488.108707 392.375544 
L 486.001421 388.962145 
L 485.032094 387.237397 
L 484.536722 386.284 
L 484.076283 385.133449 
L 483.699074 383.988189 
L 483.321651 382.754256 
L 483.027673 381.614316 
L 482.806199 380.358494 
L 482.626896 379.325512 
L 482.520576 378.375513 
L 482.475579 377.796852 
L 482.462496 377.670011 
L 482.455096 377.338083 
L 482.429552 376.568295 
L 482.436739 375.77014 
L 482.514731 374.237875 
L 482.779357 372.557081 
L 483.18824 370.684724 
L 483.781275 368.561573 
L 484.150555 367.401902 
L 484.540876 366.401776 
L 484.808138 365.81656 
L 485.023187 365.41674 
L 485.573535 364.428272 
L 481.434808 364.431207 
L 389.34081 364.395364 
L 390.326334 354.690665 
L 402.209069 337.836038 
L 387.342696 308.459507 
L 384.404051 295.642175 
L 384.603657 293.631024 
L 386.083337 285.63645 
L 387.196602 281.487906 
L 388.821385 278.9256 
L 379.028959 265.988179 
L 373.680275 253.964749 
L 363.079146 244.11565 
L 382.400951 212.499225 
L 430.248224 199.849212 
L 515.43917 182.914514 
L 521.448251 234.340311 
L 529.913124 300.493545 
L 534.051503 329.12674 
" style="stroke:#ffffff;stroke-linejoin:miter;stroke-width:2;"/>
   </g>
  </g>
 </g>
 <defs>
  <clipPath id="p15cd7bcdc7">
   <rect height="543.6" width="558" x="90" y="86.4"/>
  </clipPath>
 </defs>
</svg>
