<?xml version="1.0" encoding="utf-8" standalone="no"?>
<!DOCTYPE svg PUBLIC "-//W3C//DTD SVG 1.1//EN"
  "http://www.w3.org/Graphics/SVG/1.1/DTD/svg11.dtd">
<!-- Created with matplotlib (https://matplotlib.org/) -->
<svg height="720pt" version="1.1" viewBox="0 0 720 720" width="720pt" xmlns="http://www.w3.org/2000/svg" xmlns:xlink="http://www.w3.org/1999/xlink">
 <metadata>
  <rdf:RDF xmlns:cc="http://creativecommons.org/ns#" xmlns:dc="http://purl.org/dc/elements/1.1/" xmlns:rdf="http://www.w3.org/1999/02/22-rdf-syntax-ns#">
   <cc:Work>
    <dc:type rdf:resource="http://purl.org/dc/dcmitype/StillImage"/>
    <dc:date>2021-05-07T11:03:06.236607</dc:date>
    <dc:format>image/svg+xml</dc:format>
    <dc:creator>
     <cc:Agent>
      <dc:title>Matplotlib v3.3.3, https://matplotlib.org/</dc:title>
     </cc:Agent>
    </dc:creator>
   </cc:Work>
  </rdf:RDF>
 </metadata>
 <defs>
  <style type="text/css">*{stroke-linecap:butt;stroke-linejoin:round;}</style>
 </defs>
 <g id="figure_1">
  <g id="patch_1">
   <path d="M 0 720 
L 720 720 
L 720 0 
L 0 0 
z
" style="fill:none;"/>
  </g>
  <g id="axes_1">
   <g id="patch_2">
    <path clip-path="url(#p3eb4cbe085)" d="M 384.798254 178.973148 
L 386.339103 179.921724 
L 387.991035 179.553268 
L 388.601186 178.875844 
L 390.182393 176.70733 
L 391.364814 174.74501 
L 392.911662 172.916009 
L 394.594329 171.380866 
L 396.21654 170.145184 
L 397.875192 170.880714 
L 399.452915 172.691744 
L 400.656675 174.572121 
L 401.122355 176.533923 
L 401.122448 178.113039 
L 400.986225 179.377731 
L 401.058877 180.696444 
L 401.192979 182.2261 
L 401.269793 183.021274 
L 400.973722 183.979973 
L 400.440344 184.643927 
L 399.669678 185.013092 
L 398.128055 185.161595 
L 396.112202 185.605322 
L 394.867243 186.122283 
L 393.840571 186.80516 
L 393.608243 187.066195 
L 391.910061 188.798607 
L 390.154817 189.270428 
L 388.889122 189.006282 
L 387.420465 189.850305 
L 386.289021 191.86468 
L 384.857166 194.200346 
L 383.417686 196.305013 
L 382.481455 198.390181 
L 381.703677 200.47686 
L 381.195985 202.577036 
L 381.97683 204.317409 
L 383.634645 204.457698 
L 385.301071 203.314571 
L 386.831062 201.626932 
L 388.542072 200.773393 
L 390.357067 199.689215 
L 391.985732 198.615201 
L 392.079171 198.58116 
L 393.67824 199.183317 
L 394.400662 201.293396 
L 394.163383 203.37263 
L 393.189024 205.584852 
L 392.316576 207.901883 
L 391.408078 210.022163 
L 391.661942 212.532998 
L 391.591104 214.821689 
L 392.151282 217.496757 
L 393.695918 219.300956 
L 395.671964 219.235615 
L 397.609361 219.378028 
L 398.213334 219.64856 
L 399.864394 220.864126 
L 401.851049 222.035917 
L 403.688804 223.171782 
L 405.61354 223.822778 
L 407.679758 224.22056 
L 409.439644 224.454107 
L 411.645916 224.829917 
L 413.525242 225.307195 
L 415.376828 225.749582 
L 417.299673 226.689765 
L 419.106534 228.287925 
L 420.705716 230.266162 
L 422.479478 231.228094 
L 424.340415 231.67052 
L 424.452047 231.682991 
L 425.897467 231.544156 
L 426.804782 229.608882 
L 427.107469 227.518671 
L 427.074694 225.402652 
L 426.229938 223.465247 
L 425.249804 222.312845 
L 424.367254 220.455941 
L 423.18568 218.746998 
L 421.374117 217.877217 
L 419.822948 217.090258 
L 418.29395 215.760094 
L 417.925392 213.687619 
L 419.326246 211.802668 
L 421.086316 210.579492 
L 422.788321 211.101602 
L 424.513726 212.31763 
L 426.364297 212.933355 
L 428.135114 212.924303 
L 428.529683 211.019683 
L 427.53791 208.769017 
L 427.427138 208.617645 
L 425.980659 207.496322 
L 424.18555 206.938918 
L 422.586337 206.371154 
L 422.17185 204.217524 
L 423.349438 202.272952 
L 425.234521 201.894622 
L 426.869795 202.635931 
L 428.587755 203.586054 
L 430.44387 204.756883 
L 432.036498 206.341731 
L 432.907949 208.452917 
L 433.136409 210.559008 
L 433.279921 212.814724 
L 434.123458 214.9257 
L 434.206501 215.064982 
L 435.526407 217.006229 
L 437.39672 218.859366 
L 439.286618 220.573824 
L 440.906583 222.240107 
L 442.765443 222.983136 
L 444.803701 224.814525 
L 446.633061 227.222305 
L 448.081748 229.407273 
L 449.792874 231.386414 
L 451.290785 233.178899 
L 452.799962 234.682224 
L 454.446228 236.568352 
L 455.784109 238.613839 
L 457.446856 240.846836 
L 458.756295 242.961441 
L 459.599241 245.141748 
L 458.924517 247.124987 
L 458.240785 249.073546 
L 458.221355 249.200576 
L 458.497099 251.179856 
L 459.153346 253.416371 
L 459.716858 255.605987 
L 460.086425 256.071453 
L 461.649499 256.453919 
L 463.104741 257.644628 
L 463.920439 259.720764 
L 464.73617 261.796878 
L 466.121697 263.680902 
L 467.981526 264.285343 
L 469.79871 264.264981 
L 471.61799 263.955899 
L 473.506439 263.02286 
L 475.503402 262.610862 
L 476.537339 261.914773 
L 479.506635 260.919225 
L 481.971994 261.04046 
L 486.114034 261.89657 
L 489.07215 263.300195 
L 494.106451 275.666945 
L 504.516279 300.288944 
L 508.762863 310.534583 
L 525.048167 350.164194 
L 533.26917 369.967156 
L 553.166997 418.118884 
L 575.803365 472.620304 
L 592.308186 512.222143 
L 609.224428 553.407045 
L 598.508181 553.349107 
L 597.120122 553.341647 
L 594.646326 553.330259 
L 590.954932 553.312271 
L 590.964153 548.726054 
L 590.442419 548.727047 
L 590.315093 547.580963 
L 520.510757 547.795775 
L 518.234398 547.802867 
L 518.219518 547.767072 
L 488.192914 547.792617 
L 465.827418 547.812797 
L 443.462658 547.837277 
L 443.462961 547.673976 
L 437.872846 547.685408 
L 406.548192 547.716951 
L 402.87905 547.718278 
L 369.719287 547.753725 
L 295.977295 547.837673 
L 295.970835 553.602435 
L 292.27725 553.613157 
L 291.325486 553.615932 
L 240.256351 553.703901 
L 234.627298 553.713812 
L 144.653922 553.828463 
L 128.775572 553.901876 
L 128.775936 553.897497 
L 128.776045 553.896265 
L 128.790194 553.725288 
L 128.927721 553.301583 
L 129.057875 552.885138 
L 129.071526 552.626639 
L 129.023227 552.253908 
L 128.899969 551.994522 
L 128.786302 551.750018 
L 128.848357 551.663071 
L 129.065593 551.757532 
L 129.286012 551.864875 
L 129.542345 551.906847 
L 129.788126 551.86685 
L 129.970433 551.739417 
L 130.154178 551.483367 
L 130.316329 551.211878 
L 130.465351 550.848867 
L 130.711296 550.419009 
L 130.759776 550.287083 
L 130.767448 550.00793 
L 130.797816 549.882362 
L 130.96022 549.744916 
L 131.292655 549.595188 
L 131.629668 549.456949 
L 131.958614 549.332401 
L 132.296585 549.256394 
L 132.530365 549.165259 
L 132.808905 548.978074 
L 133.075597 548.778883 
L 133.406974 548.497737 
L 133.629915 548.224545 
L 133.844865 547.939504 
L 134.05764 547.668876 
L 134.246156 547.492113 
L 134.451426 547.224139 
L 134.634845 546.94353 
L 134.828499 546.482508 
L 135.072856 546.060863 
L 135.33282 545.731376 
L 135.391251 545.603432 
L 135.404138 545.298116 
L 135.423546 544.99975 
L 135.576544 544.511541 
L 135.597174 544.201429 
L 135.518966 543.92332 
L 135.473756 543.388243 
L 135.437741 542.850511 
L 135.368338 542.341068 
L 135.214039 541.851892 
L 135.009782 541.397498 
L 134.738905 540.984309 
L 134.686662 540.753082 
L 134.671779 540.309533 
L 134.666366 539.864287 
L 134.671114 539.433854 
L 134.722865 539.195179 
L 134.883573 538.846409 
L 135.103111 538.558193 
L 135.321645 538.278713 
L 135.423174 538.066121 
L 135.466711 537.587326 
L 135.511336 537.117014 
L 135.666009 536.632862 
L 135.675697 536.291839 
L 135.673751 535.953564 
L 135.742541 535.470502 
L 135.860732 535.08221 
L 135.991315 534.698307 
L 136.111552 534.322966 
L 136.205046 533.94772 
L 136.296342 533.579911 
L 136.472351 533.079091 
L 136.548316 532.564142 
L 136.735236 532.496157 
L 136.82062 532.434568 
L 136.913025 532.217949 
L 137.045097 532.004962 
L 137.222492 531.882735 
L 137.323264 531.886601 
L 137.348176 532.005318 
L 137.549758 532.016152 
L 137.70721 531.878758 
L 138.030519 531.828582 
L 138.296554 531.711488 
L 138.557256 531.605574 
L 138.813433 531.627003 
L 139.041448 531.725927 
L 139.256229 531.851362 
L 139.495852 532.0741 
L 139.647324 532.30842 
L 139.779659 532.554846 
L 139.936308 532.932508 
L 139.941785 533.310755 
L 139.930816 533.687719 
L 139.974799 533.921098 
L 140.229454 534.369378 
L 140.499552 534.68613 
L 140.759137 534.925039 
L 141.014379 535.090615 
L 141.27117 535.237787 
L 141.488298 535.333597 
L 141.854781 535.373707 
L 142.214014 535.412822 
L 142.417887 535.503675 
L 142.724103 535.759003 
L 143.016671 536.025656 
L 143.26874 536.252122 
L 143.518407 536.482628 
L 143.748146 536.722481 
L 143.947222 537.032031 
L 144.149351 537.32078 
L 144.463229 537.532249 
L 144.785131 537.720222 
L 144.990002 537.908015 
L 145.191088 538.090704 
L 145.607489 538.318444 
L 145.886604 538.532046 
L 146.157607 538.747686 
L 146.335206 538.856285 
L 146.70124 538.94139 
L 147.064684 538.994983 
L 147.415943 539.02396 
L 147.768256 539.038387 
L 148.108849 539.036429 
L 148.400529 538.953816 
L 148.769341 538.934203 
L 149.139408 538.926675 
L 149.49682 538.905364 
L 149.783446 538.811514 
L 150.023622 538.785439 
L 150.25972 538.783038 
L 150.468267 538.837927 
L 150.864769 539.09383 
L 151.243022 539.371073 
L 151.550356 539.627681 
L 151.840189 539.899243 
L 152.135281 540.242382 
L 152.29722 540.519019 
L 152.469763 540.759432 
L 152.86389 540.889984 
L 153.054583 540.983042 
L 153.255054 541.210042 
L 153.448845 541.439854 
L 153.721603 541.676566 
L 153.875957 541.976288 
L 153.893022 542.456253 
L 154.077614 542.509365 
L 154.325006 542.775109 
L 154.424582 542.834415 
L 154.718772 542.859506 
L 154.862374 542.849514 
L 155.046576 542.750795 
L 155.2876 542.530293 
L 155.519308 542.178607 
L 155.59153 542.084833 
L 155.804013 541.981025 
L 155.984805 541.629868 
L 156.028685 541.388625 
L 156.045499 540.901329 
L 156.064615 540.423518 
L 156.107019 539.854216 
L 156.157794 539.285795 
L 156.232068 538.726541 
L 156.428692 538.216104 
L 156.465965 537.687399 
L 156.519326 537.405259 
L 156.715558 536.941731 
L 156.809645 536.624341 
L 156.873113 536.157455 
L 156.94775 535.704787 
L 157.093503 535.236315 
L 157.263149 534.788936 
L 157.424387 534.454355 
L 157.666831 534.039674 
L 157.914951 533.629868 
L 158.172324 533.253324 
L 158.406756 533.024551 
L 158.647826 532.814607 
L 158.775722 532.608948 
L 158.871453 532.103924 
L 158.990764 531.761745 
L 159.015726 531.327028 
L 158.844341 531.088482 
L 158.693127 530.850053 
L 158.702367 530.484744 
L 158.772062 530.110733 
L 158.843982 529.886474 
L 158.846004 529.458165 
L 158.861695 529.280528 
L 158.97256 528.904424 
L 158.996322 528.83519 
L 159.096576 528.543199 
L 159.221795 528.312093 
L 159.391912 528.112572 
L 159.551528 527.909983 
L 159.765556 527.516151 
L 159.956616 527.113288 
L 160.096231 526.746347 
L 160.354895 526.434201 
L 160.629473 526.149816 
L 160.963265 525.837392 
L 161.234441 525.686916 
L 161.4538 525.711513 
L 161.49172 525.825223 
L 161.659997 525.733226 
L 161.861018 525.725436 
L 162.045497 525.799415 
L 162.244097 525.795755 
L 162.530207 525.663417 
L 162.75816 525.489633 
L 162.960366 525.294642 
L 162.972341 525.161933 
L 162.929404 525.038103 
L 162.920511 524.675206 
L 163.163733 524.23551 
L 163.341267 523.80427 
L 163.511621 523.367633 
L 163.680617 522.930062 
L 163.854038 522.495998 
L 164.028231 522.090735 
L 164.205618 521.804097 
L 164.384462 521.527172 
L 164.533744 521.176367 
L 164.6623 520.819858 
L 164.748364 520.523001 
L 164.810987 519.990874 
L 164.863495 519.455769 
L 164.911864 518.936197 
L 164.949929 518.405439 
L 164.942433 517.869298 
L 164.927466 517.332776 
L 164.912756 516.796436 
L 164.906045 516.282027 
L 164.946445 516.020446 
L 164.926372 515.537611 
L 164.900921 515.054324 
L 164.872148 514.570812 
L 164.842034 514.087325 
L 164.814047 513.627985 
L 164.780913 513.216471 
L 164.65393 512.923971 
L 164.500254 512.653276 
L 164.337112 512.391209 
L 164.161025 512.152074 
L 163.96832 511.959863 
L 163.780168 511.770703 
L 163.617351 511.528772 
L 163.462425 511.285511 
L 163.286675 511.085964 
L 163.018277 510.98965 
L 162.64309 510.694884 
L 162.239361 510.51574 
L 161.95933 510.455468 
L 161.695662 510.380267 
L 161.57581 510.190174 
L 161.29324 509.975749 
L 161.165849 509.765368 
L 161.154018 509.632956 
L 160.957096 509.450031 
L 160.861748 509.434982 
L 160.568785 509.156465 
L 160.380133 509.076402 
L 160.193696 508.87292 
L 160.222328 508.578855 
L 160.181771 508.446859 
L 160.045726 508.281433 
L 159.895191 507.959198 
L 159.812391 507.874653 
L 159.787113 507.609876 
L 159.827207 507.503296 
L 159.844184 507.095199 
L 159.880145 506.98356 
L 159.967323 506.908973 
L 159.979533 506.452399 
L 159.978251 505.993148 
L 160.007888 505.721521 
L 160.075921 505.414488 
L 160.160262 505.121919 
L 160.324948 504.803617 
L 160.442811 504.489329 
L 160.541877 504.172574 
L 160.613067 503.837648 
L 160.683859 503.509906 
L 160.783408 503.203663 
L 160.898644 502.913572 
L 161.02977 502.701753 
L 161.143101 502.331098 
L 161.258625 502.119499 
L 161.291543 501.751978 
L 161.51981 501.429852 
L 161.753885 501.118666 
L 161.792829 500.877496 
L 161.948437 500.743849 
L 162.159829 500.702276 
L 162.461483 500.467783 
L 162.591155 500.278428 
L 162.923116 499.959849 
L 163.263872 499.675925 
L 163.510412 499.541414 
L 163.75573 499.417485 
L 164.018052 499.189622 
L 164.354509 499.015321 
L 164.694957 498.880765 
L 164.985712 498.828124 
L 165.27192 498.782283 
L 165.646397 498.616133 
L 166.091185 498.609157 
L 166.472492 498.473536 
L 166.8687 498.449732 
L 167.266365 498.436599 
L 167.664824 498.430991 
L 168.063469 498.429761 
L 168.441961 498.429782 
L 168.78547 498.434992 
L 169.128912 498.449733 
L 169.461712 498.47119 
L 169.705373 498.486712 
L 169.936723 498.539257 
L 170.255595 498.714907 
L 170.55729 498.924551 
L 170.795176 499.098203 
L 171.015158 499.289569 
L 171.155003 499.514078 
L 171.303006 500.017861 
L 171.348343 500.13348 
L 171.517128 500.290301 
L 171.746511 500.427954 
L 171.861615 500.450876 
L 172.151295 500.351148 
L 172.436926 500.352424 
L 172.60011 500.241119 
L 173.004205 500.177586 
L 173.428109 500.032213 
L 173.694353 499.880788 
L 173.939148 499.623413 
L 174.165797 499.349318 
L 174.357463 499.109508 
L 174.525938 498.856083 
L 174.646483 498.596798 
L 174.736367 498.325046 
L 174.791795 497.902158 
L 174.784271 497.462 
L 174.765458 497.020962 
L 174.755812 496.593371 
L 174.795712 496.082976 
L 174.897318 495.710327 
L 175.016915 495.343202 
L 175.147429 494.997389 
L 175.388676 494.612793 
L 175.424639 494.500152 
L 175.421416 494.128014 
L 175.548572 493.932552 
L 175.613586 493.574806 
L 175.726072 493.283467 
L 175.843355 493.000697 
L 175.911955 492.77341 
L 175.915509 492.406876 
L 175.938685 492.069466 
L 176.111748 491.961095 
L 176.161641 491.846228 
L 176.196766 491.448079 
L 176.125608 491.194109 
L 176.184639 490.806861 
L 176.235437 490.702164 
L 176.442994 490.597408 
L 176.492926 490.486623 
L 176.543128 490.041666 
L 176.596916 489.606261 
L 176.716666 489.217176 
L 176.897261 488.880414 
L 177.09349 488.565643 
L 177.259971 488.319495 
L 177.44075 488.102135 
L 177.799706 487.849533 
L 177.899736 487.836986 
L 178.167098 488.001651 
L 178.374847 488.296607 
L 178.598854 488.762669 
L 178.822253 489.045182 
L 179.048525 489.315447 
L 179.171035 489.529985 
L 179.214375 489.890364 
L 179.312389 490.119498 
L 179.383143 490.612091 
L 179.42354 490.725754 
L 179.590771 490.890743 
L 179.75317 491.259149 
L 179.922786 491.602121 
L 180.199866 491.751362 
L 180.542932 491.749826 
L 180.642844 491.724008 
L 180.780903 491.554944 
L 180.901888 491.261453 
L 181.022932 490.974553 
L 181.247511 490.612187 
L 181.464824 490.254844 
L 181.63803 489.87011 
L 181.782284 489.476647 
L 181.892097 488.984726 
L 181.882205 488.599413 
L 181.788117 488.068394 
L 181.654445 487.701055 
L 181.576167 487.327734 
L 181.517475 486.956469 
L 181.514376 486.693426 
L 181.343263 486.36432 
L 181.302486 486.111985 
L 181.022788 485.943409 
L 180.928699 485.97832 
L 180.859838 486.083239 
L 180.834376 486.554671 
L 180.761124 486.625 
L 180.701188 486.527912 
L 180.692655 486.085519 
L 180.691082 485.647042 
L 180.657544 485.376252 
L 180.455475 484.885425 
L 180.403831 484.603113 
L 180.358687 484.323851 
L 180.268032 484.092566 
L 180.223155 483.650619 
L 180.212536 483.188799 
L 180.221802 482.736994 
L 180.297969 482.244489 
L 180.449126 481.881485 
L 180.517319 481.794924 
L 180.697253 481.722168 
L 180.883177 481.39133 
L 181.059339 481.183964 
L 181.254213 481.01927 
L 181.673639 480.802619 
L 182.099554 480.631708 
L 182.312782 480.612533 
L 182.51867 480.477884 
L 182.720851 480.343991 
L 183.015712 480.272745 
L 183.302994 480.084316 
L 183.513281 479.819451 
L 183.691634 479.532634 
L 183.852986 479.239813 
L 183.987833 478.889277 
L 184.004497 478.495547 
L 184.017163 478.10677 
L 184.084268 477.801564 
L 184.156389 477.503286 
L 184.205916 476.968299 
L 184.385702 476.443884 
L 184.452453 476.249643 
L 184.564573 475.923415 
L 184.619785 475.380213 
L 184.685063 475.146842 
L 184.701598 474.781573 
L 184.783226 474.541869 
L 184.796488 474.226156 
L 184.781099 473.915806 
L 184.687526 473.53673 
L 184.67899 473.02686 
L 184.682788 472.514675 
L 184.692441 472.001618 
L 184.701134 471.509451 
L 184.717478 471.252387 
L 184.793745 471.009884 
L 184.773933 470.760835 
L 184.645695 470.486007 
L 184.511037 470.21887 
L 184.321143 469.707849 
L 184.258657 469.405776 
L 184.192286 469.112417 
L 184.030322 468.709325 
L 183.8644 468.317114 
L 183.707378 467.802162 
L 183.529357 467.46597 
L 183.33728 467.138867 
L 183.164881 466.812041 
L 183.038391 466.486107 
L 182.941762 466.15189 
L 182.883845 465.729225 
L 182.759776 465.459295 
L 182.696016 465.354913 
L 182.360902 465.076906 
L 182.02952 464.928515 
L 181.820667 464.75303 
L 181.61657 464.580756 
L 181.4098 464.509439 
L 181.024682 464.199577 
L 180.736768 463.78607 
L 180.435078 463.593913 
L 180.217558 463.266424 
L 179.977694 462.991908 
L 179.787518 462.861467 
L 179.587183 462.838124 
L 179.192046 462.564394 
L 178.826693 462.249065 
L 178.583841 461.981439 
L 178.355458 461.691132 
L 178.139228 461.403185 
L 177.873799 461.04831 
L 177.614093 460.686701 
L 177.371936 460.326353 
L 177.152661 459.953601 
L 176.95851 459.571498 
L 176.890237 459.324275 
L 176.817547 458.761789 
L 176.764521 458.207448 
L 176.774776 457.78303 
L 176.863527 457.485465 
L 177.028658 457.186231 
L 177.104174 456.917183 
L 177.129211 456.559978 
L 177.169436 456.215483 
L 177.331378 455.716966 
L 177.512311 455.235443 
L 177.591893 454.98069 
L 177.6549 454.491207 
L 177.786511 454.10072 
L 177.9372 453.718037 
L 178.109864 453.370861 
L 178.397963 452.979883 
L 178.716505 452.632796 
L 178.919715 452.435962 
L 179.121719 452.24686 
L 179.348655 452.003734 
L 179.56338 451.754987 
L 179.790984 451.435603 
L 180.003486 450.944746 
L 180.075587 450.434891 
L 180.130328 450.111043 
L 180.20145 449.800793 
L 180.314439 449.481427 
L 180.447172 449.181518 
L 180.593985 448.97199 
L 180.817139 448.489333 
L 180.863222 448.175276 
L 180.960965 447.899846 
L 181.048779 447.627162 
L 181.107972 447.170452 
L 181.166382 446.723641 
L 181.316949 446.348825 
L 181.574347 445.910467 
L 181.840671 445.478942 
L 182.091103 445.05441 
L 182.183828 444.797684 
L 182.413316 444.432372 
L 182.650663 444.073118 
L 182.888231 443.713865 
L 183.109541 443.363132 
L 183.283108 442.98638 
L 183.497422 442.722036 
L 183.681245 442.544377 
L 183.868013 442.380854 
L 184.058946 442.244989 
L 184.463273 442.168212 
L 184.798466 441.935703 
L 185.097207 441.649662 
L 185.278992 441.382818 
L 185.426544 441.087889 
L 185.610366 440.578545 
L 185.711732 440.131738 
L 185.783783 439.685484 
L 185.837007 439.189033 
L 185.876333 438.689677 
L 185.903883 438.204469 
L 185.917887 437.66117 
L 185.90618 437.129046 
L 185.873643 436.723711 
L 185.81402 436.332744 
L 185.677157 435.948487 
L 185.624995 435.630578 
L 185.598496 435.313488 
L 185.594241 434.989286 
L 185.615966 434.674819 
L 185.702045 434.442569 
L 185.887646 434.199483 
L 185.922202 434.154207 
L 186.122622 433.858773 
L 186.318005 433.401479 
L 186.491091 432.925781 
L 186.657266 432.46327 
L 186.761637 432.155589 
L 186.803946 431.849746 
L 186.844716 431.549878 
L 186.925828 431.329856 
L 186.978342 430.783168 
L 186.985108 430.380463 
L 186.981471 429.985271 
L 186.966656 429.713801 
L 186.872035 429.484823 
L 186.637363 429.154202 
L 186.395665 428.829767 
L 186.153416 428.505538 
L 185.926316 428.188821 
L 185.712211 427.810337 
L 185.48486 427.474647 
L 185.258945 427.206296 
L 185.080317 427.056528 
L 184.81639 426.974774 
L 184.555109 426.899106 
L 184.159803 426.697344 
L 183.819196 426.609095 
L 183.53073 426.385364 
L 183.237115 426.235089 
L 183.042352 426.266857 
L 182.889633 426.251906 
L 182.710885 426.147017 
L 182.262974 426.103726 
L 181.812739 426.072752 
L 181.361606 426.045428 
L 180.911077 426.013064 
L 180.484716 425.969754 
L 180.04489 425.820852 
L 179.961307 425.753134 
L 179.795526 425.423864 
L 179.746732 424.974668 
L 179.629169 424.725189 
L 179.30249 424.364511 
L 178.980718 424.012128 
L 178.856571 423.772826 
L 178.768067 423.406174 
L 178.691362 423.033035 
L 178.621565 422.669786 
L 178.566871 422.267527 
L 178.565173 421.718587 
L 178.524053 421.451066 
L 178.396973 421.099798 
L 178.260037 420.752598 
L 178.122926 420.418717 
L 178.005304 420.195759 
L 177.735817 419.942526 
L 177.561076 419.582592 
L 177.541391 419.245475 
L 177.577791 418.917402 
L 177.931009 418.61491 
L 178.028889 418.438632 
L 178.073904 418.357543 
L 178.179797 418.07727 
L 178.228508 417.708115 
L 178.336362 417.335165 
L 178.354377 416.782193 
L 178.415794 416.566156 
L 178.48178 416.080501 
L 178.515499 415.601354 
L 178.497718 415.077651 
L 178.458991 414.55317 
L 178.431287 414.043934 
L 178.425725 413.628266 
L 178.430186 413.212245 
L 178.431213 413.182143 
L 178.443888 412.809351 
L 178.488756 412.34041 
L 178.529536 411.881232 
L 178.526258 411.566789 
L 178.494349 411.262726 
L 178.376249 410.919363 
L 178.051395 410.844374 
L 177.695074 410.822959 
L 177.349894 410.799504 
L 177.256316 410.777656 
L 176.976052 410.556016 
L 176.657496 410.513769 
L 176.361757 410.528783 
L 176.077227 410.59049 
L 175.804457 410.673233 
L 175.728641 410.758594 
L 175.670438 411.005276 
L 175.531814 411.225036 
L 175.486314 411.620731 
L 175.328954 411.789405 
L 175.103581 411.899628 
L 174.91545 411.914106 
L 174.544679 412.094295 
L 174.178506 412.257742 
L 173.872051 412.309026 
L 173.567197 412.336638 
L 173.473466 412.364778 
L 173.189786 412.760451 
L 172.905933 412.966372 
L 172.62189 413.160959 
L 172.596648 413.187733 
L 172.292326 413.510499 
L 172.007418 413.730696 
L 171.715123 413.937857 
L 171.426486 414.124969 
L 171.137618 414.324693 
L 170.886916 414.466867 
L 170.634242 414.569365 
L 170.212116 414.55219 
L 169.923325 414.434594 
L 169.696697 414.414198 
L 169.529753 414.198153 
L 169.160696 414.005701 
L 168.98867 413.851893 
L 168.752933 413.563101 
L 168.571885 413.191614 
L 168.53472 413.115348 
L 168.320991 412.676552 
L 168.11471 412.434822 
L 168.03887 412.246739 
L 167.811355 411.954929 
L 167.579157 411.747362 
L 167.352596 411.542709 
L 167.148052 411.262234 
L 166.806381 410.920777 
L 166.45669 410.612257 
L 166.122096 410.434253 
L 165.669989 410.355333 
L 165.235547 410.255827 
L 165.022493 410.076018 
L 164.816014 409.900924 
L 164.359362 409.89277 
L 164.05039 409.941393 
L 163.816555 410.13728 
L 163.469341 410.17862 
L 163.126386 410.218907 
L 162.848933 410.353562 
L 162.578552 410.497081 
L 162.307593 410.566556 
L 162.041 410.63142 
L 161.772966 410.740366 
L 161.516289 410.868867 
L 161.190149 411.054561 
L 160.879439 411.25684 
L 160.704779 411.439718 
L 160.501362 411.751946 
L 160.31447 412.069585 
L 160.284582 412.181697 
L 160.348 412.404408 
L 160.354314 412.779941 
L 160.241271 413.241653 
L 160.236588 413.731399 
L 160.186191 413.835253 
L 159.855132 414.135816 
L 159.617163 414.180928 
L 159.377717 414.211241 
L 159.045369 414.389347 
L 158.846564 414.590743 
L 158.655691 414.79676 
L 158.507575 414.891018 
L 158.311838 414.980944 
L 158.002926 415.0051 
L 157.716597 415.180335 
L 157.364524 415.170601 
L 157.018509 415.158877 
L 156.727287 415.317789 
L 156.403687 415.310239 
L 156.11649 415.217116 
L 155.740044 415.011588 
L 155.366509 414.795863 
L 155.001211 414.598967 
L 154.81239 414.567524 
L 154.742367 414.349859 
L 154.632333 414.345292 
L 154.539295 414.423442 
L 154.445777 414.38121 
L 154.436263 414.258715 
L 154.251779 414.147704 
L 153.901999 414.106363 
L 153.65615 413.912428 
L 153.372182 413.7591 
L 153.086911 413.636444 
L 152.873363 413.633463 
L 152.483584 413.792975 
L 152.05947 413.884633 
L 151.646892 413.987204 
L 151.238817 414.185297 
L 150.8392 414.375446 
L 150.599325 414.395021 
L 150.365145 414.420292 
L 149.973698 414.584482 
L 149.5852 414.764929 
L 149.197991 414.95306 
L 148.810561 415.140301 
L 148.440615 415.309693 
L 148.246663 415.34863 
L 148.187788 415.256537 
L 147.855534 415.20663 
L 147.516057 415.172921 
L 147.189385 415.125608 
L 146.908023 415.000898 
L 146.477433 414.955217 
L 146.05322 414.920589 
L 145.836535 414.862495 
L 145.497318 414.577348 
L 145.338564 414.372566 
L 145.171589 414.029689 
L 145.061308 413.671387 
L 145.013122 413.161876 
L 145.003882 412.640674 
L 145.027886 412.146826 
L 145.212862 411.796643 
L 145.296853 411.439903 
L 145.592033 411.043273 
L 145.622178 410.736207 
L 145.607782 410.41685 
L 145.574907 410.135069 
L 145.354472 409.672912 
L 145.263218 409.415384 
L 145.259418 409.017433 
L 145.520242 408.576757 
L 145.737195 408.535881 
L 146.023599 408.334098 
L 146.291053 408.209891 
L 146.550005 408.081337 
L 146.904047 407.782911 
L 147.06556 407.597923 
L 147.28486 407.238471 
L 147.471768 406.865072 
L 147.616734 406.382028 
L 147.756235 405.907198 
L 147.87994 405.646378 
L 148.036878 405.424794 
L 148.288873 405.180539 
L 148.556888 404.956199 
L 148.81095 404.7303 
L 148.961049 404.520763 
L 149.137492 404.085691 
L 149.30321 403.641985 
L 149.44615 403.20462 
L 149.493363 402.917081 
L 149.526643 402.629511 
L 149.614517 402.228321 
L 149.708787 401.837502 
L 149.746147 401.700936 
L 149.96815 401.345382 
L 150.201512 401.013191 
L 150.381002 400.862962 
L 150.479621 400.841975 
L 150.771475 400.461655 
L 150.954777 400.127804 
L 151.116025 399.898029 
L 151.287052 399.688472 
L 151.49704 399.461249 
L 151.720256 399.280214 
L 152.062089 399.230711 
L 152.255395 399.010528 
L 152.439602 398.771176 
L 152.795991 398.433756 
L 153.164182 398.149937 
L 153.482999 398.10748 
L 153.831503 398.126634 
L 154.172861 398.139091 
L 154.505233 398.106997 
L 154.827765 398.045062 
L 155.138629 397.908684 
L 155.552632 397.901344 
L 155.952888 398.099027 
L 156.146634 398.135597 
L 156.534812 397.95976 
L 156.74468 397.773107 
L 156.948232 397.584066 
L 157.25098 397.413992 
L 157.522625 397.207051 
L 157.703366 396.911948 
L 157.91176 396.745524 
L 158.124808 396.593417 
L 158.292837 396.42888 
L 158.410078 396.217165 
L 158.451463 395.825532 
L 158.548297 395.508003 
L 158.638086 395.195772 
L 158.668277 394.693892 
L 158.649733 394.573413 
L 158.425378 394.323471 
L 158.125195 394.169085 
L 157.76878 394.153221 
L 157.565283 394.081907 
L 157.380105 393.923965 
L 157.177329 393.602671 
L 157.071235 393.359341 
L 157.032854 392.932234 
L 157.010164 392.499183 
L 156.984829 392.178513 
L 156.977167 392.081466 
L 156.869366 391.578969 
L 156.744655 391.245786 
L 156.508863 390.853125 
L 156.26696 390.462911 
L 156.017849 390.083079 
L 155.770723 389.735422 
L 155.572132 389.674343 
L 155.346908 389.445816 
L 155.206307 389.210502 
L 155.038553 388.828561 
L 154.891449 388.443863 
L 154.814321 388.170654 
L 154.756688 387.896354 
L 154.762763 387.780047 
L 154.962902 387.303426 
L 155.11938 387.160244 
L 155.320973 387.322343 
L 155.651258 387.006477 
L 155.678234 386.761716 
L 155.757336 386.676351 
L 155.849312 386.684926 
L 155.924629 386.767905 
L 156.028231 386.72858 
L 156.245104 386.526162 
L 156.464656 386.350947 
L 156.892841 386.267132 
L 157.130023 386.045744 
L 157.549538 385.836401 
L 157.732302 385.690275 
L 158.131968 385.473335 
L 158.534815 385.263803 
L 158.921836 385.05171 
L 159.11944 384.887281 
L 159.352367 384.438336 
L 159.619171 384.204834 
L 159.832385 383.905572 
L 160.043862 383.616961 
L 160.325369 383.410058 
L 160.728259 383.266955 
L 161.008633 383.241414 
L 161.285269 383.227599 
L 161.710936 383.164175 
L 161.952744 383.084649 
L 162.191035 383.01735 
L 162.568635 382.971373 
L 162.947802 382.936752 
L 163.327376 382.905574 
L 163.706157 382.869927 
L 164.064354 382.824654 
L 164.373574 382.692363 
L 164.721023 382.662471 
L 165.070866 382.644344 
L 165.421342 382.641016 
L 165.756887 382.654624 
L 166.185793 382.691857 
L 166.61434 382.74161 
L 167.042689 382.798753 
L 167.47093 382.858039 
L 167.899242 382.914293 
L 168.302288 382.959807 
L 168.611194 382.940764 
L 168.871276 382.757235 
L 169.199955 382.712792 
L 169.537532 382.719102 
L 169.868519 382.725965 
L 170.227582 382.685711 
L 170.530259 382.540134 
L 170.885994 382.519427 
L 171.238347 382.523899 
L 171.353322 382.528486 
L 171.737001 382.780194 
L 172.059256 382.824374 
L 172.389234 382.833315 
L 172.70937 382.836565 
L 173.055213 382.820748 
L 173.255817 382.753283 
L 173.59786 382.531959 
L 173.935523 382.321632 
L 174.243739 382.197601 
L 174.546507 382.078455 
L 174.931668 381.822018 
L 175.174632 381.592512 
L 175.325131 381.246247 
L 175.540863 381.061509 
L 175.674522 380.853954 
L 175.770011 380.783968 
L 176.178517 380.78344 
L 176.555383 380.735442 
L 176.778277 380.348698 
L 177.049199 379.93947 
L 177.324355 379.549142 
L 177.503132 379.362183 
L 177.909536 379.137493 
L 178.133413 378.942623 
L 178.357447 378.766042 
L 178.659579 378.625873 
L 178.969185 378.549389 
L 179.319043 378.524176 
L 179.671595 378.521172 
L 180.025108 378.528224 
L 180.363934 378.533169 
L 180.460817 378.550933 
L 180.527072 378.645096 
L 180.550966 378.900298 
L 180.86634 379.188288 
L 181.213144 379.419557 
L 181.544808 379.481223 
L 181.863511 379.480624 
L 182.108614 379.443084 
L 182.34675 379.388903 
L 182.664149 379.26888 
L 183.081914 379.218406 
L 183.493128 379.20219 
L 183.690357 379.166337 
L 184.001487 378.942243 
L 184.419053 378.774944 
L 184.842171 378.623284 
L 185.246483 378.455975 
L 185.628602 378.262281 
L 186.004284 378.047886 
L 186.360464 377.822222 
L 186.596112 377.632452 
L 186.810119 377.416089 
L 187.027853 377.109944 
L 187.130679 377.058355 
L 187.374577 376.790085 
L 187.609366 376.695865 
L 187.843298 376.609536 
L 188.108427 376.387265 
L 188.115142 376.380281 
L 188.38266 376.101499 
L 188.652997 375.809375 
L 188.91506 375.525604 
L 189.218291 375.197396 
L 189.393071 374.954231 
L 189.548845 374.700456 
L 189.728403 374.283747 
L 189.757966 373.994928 
L 189.756707 373.705248 
L 189.716822 373.473504 
L 189.448869 373.041116 
L 189.23557 372.764543 
L 188.946368 372.557822 
L 188.656447 372.435203 
L 188.401919 372.222292 
L 188.202622 371.969855 
L 188.018282 371.708032 
L 187.880972 371.474396 
L 187.703937 371.032254 
L 187.554749 370.586733 
L 187.474696 370.05358 
L 187.471599 370.033013 
L 187.31669 369.538902 
L 187.326612 369.132318 
L 187.366123 368.720347 
L 187.396334 368.320311 
L 187.394931 367.887056 
L 187.391312 367.46288 
L 187.421683 367.294625 
L 187.583371 367.014552 
L 187.738158 366.73615 
L 187.857185 366.400726 
L 187.964501 366.065016 
L 188.083795 365.744187 
L 188.21156 365.43694 
L 188.435695 365.0263 
L 188.698264 364.634506 
L 188.978203 364.278772 
L 189.237664 364.029507 
L 189.510961 363.799316 
L 189.769276 363.565696 
L 189.984971 363.311523 
L 190.196428 363.06244 
L 190.565707 362.724615 
L 190.935526 362.398694 
L 191.267103 362.067905 
L 191.488772 361.645 
L 191.509975 361.402891 
L 191.305586 360.958106 
L 191.39039 360.732334 
L 191.310023 360.465783 
L 191.131076 360.199667 
L 190.961052 359.9371 
L 190.920327 359.682826 
L 190.677105 359.227816 
L 190.527289 358.869088 
L 190.384785 358.396492 
L 190.376824 357.893941 
L 190.287394 357.637661 
L 190.278032 357.366917 
L 190.313185 356.940948 
L 190.356196 356.515656 
L 190.424523 356.123612 
L 190.604354 355.969469 
L 190.775375 355.636574 
L 190.933003 355.288617 
L 191.069798 354.945127 
L 191.083553 354.680495 
L 191.29243 354.321499 
L 191.507206 353.972121 
L 191.568065 353.736132 
L 191.411638 353.373282 
L 191.351082 353.110818 
L 191.222807 352.794759 
L 191.077986 352.497916 
L 190.834383 352.083999 
L 190.581018 351.677912 
L 190.344343 351.276531 
L 190.220829 350.999736 
L 190.101025 350.72718 
L 189.882562 350.32756 
L 189.658722 349.93205 
L 189.43213 349.538778 
L 189.214286 349.161415 
L 188.971113 348.761818 
L 188.777595 348.508008 
L 188.575938 348.27425 
L 188.373152 348.086079 
L 188.175929 347.899499 
L 187.893203 347.543792 
L 187.6154 347.195789 
L 187.286204 346.831507 
L 186.939288 346.519942 
L 186.654839 346.351574 
L 186.355558 346.214484 
L 186.066924 346.077248 
L 185.980968 346.009692 
L 185.85406 345.651217 
L 185.722624 345.302415 
L 185.556094 345.022811 
L 185.426525 344.846224 
L 185.37034 344.769655 
L 185.196778 344.60994 
L 185.010676 344.298429 
L 184.948359 343.923154 
L 184.835013 343.705893 
L 184.785376 343.201307 
L 184.769555 342.69881 
L 184.780942 342.347707 
L 184.819212 342.007456 
L 184.931117 341.640089 
L 185.112779 341.175899 
L 185.300427 340.715078 
L 185.495268 340.278149 
L 185.641404 340.018272 
L 185.808523 339.787382 
L 186.079082 339.544901 
L 186.269138 339.298163 
L 186.455087 339.058134 
L 186.564027 339.003597 
L 186.760542 339.021746 
L 186.85626 338.960062 
L 187.042291 338.705529 
L 187.215725 338.444601 
L 187.273385 338.319374 
L 187.29273 337.98149 
L 187.298271 337.646515 
L 187.289864 337.496791 
L 187.15343 337.141928 
L 187.008113 336.790014 
L 186.873448 336.445161 
L 186.77958 336.139811 
L 186.687863 335.840319 
L 186.555188 335.478657 
L 186.416439 335.120284 
L 186.273918 334.778425 
L 186.086984 334.458728 
L 185.754929 334.199052 
L 185.407775 333.985978 
L 185.097252 333.902353 
L 184.766192 333.950076 
L 184.351211 334.165215 
L 183.944267 334.374988 
L 183.605791 334.421692 
L 183.482795 334.457794 
L 183.187453 334.702374 
L 182.981355 335.014507 
L 182.813087 335.166565 
L 182.393858 335.369304 
L 182.001652 335.393165 
L 181.617761 335.415672 
L 181.32566 335.584358 
L 181.218356 335.613239 
L 180.896223 335.517357 
L 180.60377 335.35372 
L 180.521931 335.266686 
L 180.409407 335.047371 
L 180.372017 334.817701 
L 180.365335 334.432181 
L 180.365207 334.045787 
L 180.361727 333.67105 
L 180.335601 333.162361 
L 180.248666 332.938917 
L 180.157796 332.883681 
L 179.797749 332.841175 
L 179.490465 332.712442 
L 179.315251 332.55786 
L 179.124888 332.129438 
L 179.08514 332.006425 
L 179.072764 331.675891 
L 179.079503 331.351062 
L 179.155722 330.809391 
L 179.198881 330.243169 
L 179.191005 329.826773 
L 179.103215 329.558201 
L 178.960989 329.371754 
L 178.627119 329.091262 
L 178.436556 328.844475 
L 178.276489 328.574923 
L 178.08636 328.141165 
L 177.928793 327.697524 
L 177.868134 327.336615 
L 177.764061 327.305998 
L 177.610986 327.565313 
L 177.462417 327.839834 
L 177.282629 328.037034 
L 177.094444 328.104007 
L 176.972359 328.217027 
L 176.828266 328.602919 
L 176.794112 329.09527 
L 176.816829 329.493181 
L 176.751699 329.589704 
L 176.558496 329.586948 
L 176.47518 329.663991 
L 176.465659 330.031192 
L 176.673352 330.457522 
L 176.596641 330.529451 
L 176.48927 330.508073 
L 176.331234 330.198589 
L 176.332472 329.796551 
L 176.453431 329.406599 
L 176.490966 328.979875 
L 176.438663 328.713299 
L 176.443473 328.565592 
L 176.513906 328.286357 
L 176.598941 328.019695 
L 176.776919 327.656323 
L 176.958328 327.231035 
L 177.102982 326.802453 
L 177.111521 326.273206 
L 177.276238 326.017278 
L 177.445382 325.767023 
L 177.515022 325.24383 
L 177.523467 324.948668 
L 177.514403 324.659224 
L 177.450267 324.138302 
L 177.384803 323.904554 
L 177.333262 323.829509 
L 177.252486 323.71194 
L 177.150061 323.675186 
L 176.956914 323.734981 
L 176.745528 323.71995 
L 176.542246 323.570549 
L 176.527269 323.457729 
L 176.294924 323.098831 
L 176.053092 322.745599 
L 175.807001 322.423019 
L 175.592217 322.317733 
L 175.351711 322.09145 
L 175.253436 322.086482 
L 174.904684 321.791662 
L 174.68171 321.740749 
L 174.465941 321.912854 
L 174.253542 322.09939 
L 173.881309 322.246651 
L 173.915051 322.127627 
L 173.861274 322.030282 
L 173.568976 322.03485 
L 173.379004 321.975674 
L 173.387965 321.860801 
L 173.72037 321.521794 
L 173.844011 321.312356 
L 173.886564 320.955363 
L 173.793175 320.867314 
L 173.527526 321.007427 
L 173.265019 321.152257 
L 173.180737 321.09599 
L 173.274516 320.749185 
L 173.296272 320.24964 
L 173.32338 320.121409 
L 173.587491 320.015344 
L 173.719374 319.803823 
L 173.803549 319.748306 
L 174.021509 319.735645 
L 174.349191 319.624343 
L 174.451518 319.560599 
L 174.501774 319.457955 
L 174.506982 318.916397 
L 174.541539 318.809686 
L 174.716341 318.563234 
L 175.076012 318.259047 
L 175.153535 318.162511 
L 175.176347 317.885556 
L 175.166251 317.709176 
L 175.010531 317.229412 
L 174.865022 317.0512 
L 174.676716 317.015601 
L 174.395836 316.872478 
L 174.266915 316.77012 
L 174.21478 316.657381 
L 174.31675 316.255155 
L 174.327061 315.861295 
L 174.423259 315.477546 
L 174.618526 315.076211 
L 174.705984 315.014511 
L 174.813928 314.803059 
L 174.894505 314.480896 
L 175.041958 314.152443 
L 175.132732 314.110237 
L 175.374735 314.172397 
L 175.58773 314.143346 
L 175.747791 314.0159 
L 175.977316 314.000151 
L 176.216512 313.77001 
L 176.533519 313.700793 
L 176.744741 313.565043 
L 176.974086 313.317673 
L 176.978984 313.312377 
L 177.174772 312.978201 
L 177.369667 312.655313 
L 177.61713 312.433375 
L 177.833144 312.121231 
L 178.139088 311.854906 
L 178.460173 311.640218 
L 178.744349 311.531285 
L 179.03467 311.472105 
L 179.327546 311.448429 
L 179.61594 311.449614 
L 179.705969 311.477167 
L 179.752457 311.722221 
L 180.116052 311.999584 
L 180.306831 312.026972 
L 180.524171 312.22564 
L 180.723425 312.450915 
L 180.770113 312.513833 
L 180.910598 312.703224 
L 181.096334 312.94671 
L 181.453339 313.256917 
L 181.554101 313.274175 
L 181.861657 313.001533 
L 182.166203 312.729601 
L 182.379287 312.605869 
L 182.590355 312.488912 
L 182.802373 312.332571 
L 182.994586 312.153901 
L 183.273231 311.737051 
L 183.425285 311.393522 
L 183.554901 311.043264 
L 183.660163 310.645141 
L 183.690247 310.217832 
L 183.690589 310.207661 
L 183.704834 309.787094 
L 183.704249 309.371215 
L 183.629575 309.026716 
L 183.669644 308.655358 
L 183.649711 308.542565 
L 183.562121 308.481168 
L 183.446894 308.824958 
L 183.337764 308.873064 
L 183.337122 308.873339 
L 183.335372 308.863991 
L 183.260313 308.580059 
L 183.168193 308.405923 
L 183.181814 308.283178 
L 183.194375 308.169967 
L 183.303303 308.122613 
L 183.30482 307.991351 
L 183.161732 307.749512 
L 183.133408 307.515728 
L 182.893962 307.194326 
L 182.85558 307.142825 
L 182.680402 307.02311 
L 182.32861 306.983696 
L 182.043505 306.749267 
L 181.888041 306.534143 
L 181.709188 306.050318 
L 181.625771 305.520111 
L 181.548729 304.998266 
L 181.427801 304.639489 
L 181.397639 304.22519 
L 181.311521 303.989431 
L 181.078908 303.734429 
L 180.843657 303.489667 
L 180.698079 303.260146 
L 180.524549 303.133246 
L 180.093509 303.106269 
L 179.700599 303.225886 
L 179.596502 303.1604 
L 179.392243 302.860219 
L 179.289858 302.862437 
L 179.055484 302.997182 
L 178.855703 303.022115 
L 178.606552 303.219449 
L 178.306068 303.29378 
L 178.142712 303.410967 
L 178.118053 303.523826 
L 178.0215 303.574246 
L 177.927308 303.524122 
L 177.867593 303.265762 
L 177.573479 303.103176 
L 177.138977 302.939767 
L 176.922674 302.965765 
L 176.507946 302.746945 
L 176.240429 302.752515 
L 175.991084 302.815077 
L 175.746789 302.877407 
L 175.538714 302.879795 
L 175.247966 302.785916 
L 174.793814 302.762042 
L 174.683172 302.7694 
L 174.447401 302.900863 
L 174.214451 303.022473 
L 173.900732 303.070161 
L 173.640998 303.428527 
L 173.606605 303.68294 
L 173.741371 303.852998 
L 173.739157 304.1012 
L 173.633694 304.318807 
L 173.316625 304.61609 
L 173.00348 304.906505 
L 172.803962 305.204268 
L 172.690257 305.423935 
L 172.628597 305.670188 
L 172.596518 306.218407 
L 172.570289 306.757454 
L 172.549348 307.061179 
L 172.511474 307.354477 
L 172.424205 307.632452 
L 172.350208 307.906537 
L 172.343291 308.384199 
L 172.345438 308.854236 
L 172.266437 309.112842 
L 172.094907 309.307983 
L 171.913349 309.407766 
L 171.693767 309.707578 
L 171.498686 310.025884 
L 171.408944 310.280396 
L 171.381964 310.526592 
L 171.458158 310.743911 
L 171.472474 311.002336 
L 171.568354 311.31539 
L 171.64072 311.605138 
L 171.527681 311.683283 
L 171.223011 311.69402 
L 170.985447 311.921082 
L 170.876499 311.964355 
L 170.643128 311.968206 
L 170.414117 311.955862 
L 170.295167 311.917073 
L 170.126555 311.757356 
L 169.841682 311.71932 
L 169.555115 311.70393 
L 169.452714 311.679492 
L 169.247625 311.375209 
L 168.94036 311.288531 
L 168.825392 311.100006 
L 168.864076 310.988138 
L 168.776308 310.758539 
L 168.732997 310.401697 
L 168.415553 310.039121 
L 168.186396 309.618995 
L 168.190266 309.378977 
L 167.991199 309.310598 
L 167.86876 309.0954 
L 167.851991 308.849268 
L 167.654957 308.363435 
L 167.648607 307.811649 
L 167.580648 307.584084 
L 167.43675 307.373012 
L 167.389309 307.018226 
L 167.208077 306.643136 
L 167.027555 306.14292 
L 166.933041 305.784098 
L 166.921194 305.513356 
L 166.937586 305.392296 
L 167.047189 305.19108 
L 167.037971 305.072142 
L 166.828784 304.793496 
L 166.78406 304.672541 
L 166.79536 304.42433 
L 166.915671 304.20258 
L 167.014736 304.175757 
L 167.26107 304.4369 
L 167.359354 304.455207 
L 167.489601 304.267289 
L 167.626939 303.941878 
L 167.736625 303.610474 
L 167.770045 303.212464 
L 167.766599 303.075026 
L 167.655736 302.701944 
L 167.527206 302.347214 
L 167.366767 302.109522 
L 167.152346 301.91651 
L 166.941123 301.728695 
L 166.819567 301.54736 
L 166.578623 301.3632 
L 166.345206 301.179921 
L 166.232708 300.980107 
L 166.287916 300.869248 
L 166.285861 300.491819 
L 166.155172 300.268442 
L 166.074169 300.202936 
L 165.75703 300.124479 
L 165.584335 300.01603 
L 165.505289 300.229508 
L 165.529695 300.707938 
L 165.560799 301.181207 
L 165.561543 301.664745 
L 165.527965 302.131008 
L 165.382176 302.474831 
L 165.305279 302.370348 
L 165.219119 302.10262 
L 165.147828 301.833168 
L 165.14357 301.718307 
L 165.202095 301.627946 
L 165.202792 301.508976 
L 165.022795 301.116145 
L 164.856827 300.727998 
L 164.86149 300.465426 
L 165.01655 300.294906 
L 165.13213 300.28549 
L 165.297118 300.137536 
L 165.344058 300.016423 
L 165.309117 299.776489 
L 165.236389 299.702766 
L 165.014997 299.607728 
L 164.683421 299.577652 
L 164.349687 299.560554 
L 164.030659 299.516009 
L 163.725112 299.392776 
L 163.429263 299.247255 
L 163.035177 299.074943 
L 162.64785 298.963421 
L 162.244246 299.126134 
L 161.968098 299.305233 
L 161.704628 299.499326 
L 161.465397 299.703816 
L 161.409353 299.799306 
L 161.692927 300.12807 
L 161.688928 300.249095 
L 161.632865 300.343536 
L 161.457945 300.46076 
L 161.266385 300.450822 
L 161.263467 300.046713 
L 161.139359 299.808965 
L 160.956444 299.53522 
L 160.762291 299.286503 
L 160.47306 299.069553 
L 160.257096 298.646315 
L 160.115394 298.168593 
L 160.163025 297.920323 
L 160.146497 297.565644 
L 160.1419 297.467021 
L 160.037832 297.10212 
L 159.942947 296.74323 
L 159.922442 296.398429 
L 159.931478 296.056084 
L 159.977129 295.493941 
L 159.984667 295.077097 
L 159.97376 294.669347 
L 159.93308 294.38397 
L 159.894717 294.105364 
L 159.930758 293.820163 
L 160.18064 293.532587 
L 160.424341 293.138156 
L 160.658893 292.733769 
L 160.872958 292.331432 
L 161.025714 291.971685 
L 161.154562 291.604823 
L 161.248771 291.33058 
L 161.320765 291.054808 
L 161.348332 290.578859 
L 161.372121 290.427028 
L 161.544659 290.111844 
L 161.716596 289.802862 
L 161.919209 289.318419 
L 162.037068 289.107982 
L 162.342656 288.769225 
L 162.655043 288.437964 
L 162.944276 288.102393 
L 163.115647 287.741077 
L 163.173171 287.48867 
L 163.183993 286.977734 
L 163.19105 286.466184 
L 163.195629 285.954182 
L 163.198922 285.44193 
L 163.202233 284.929586 
L 163.206757 284.417378 
L 163.213157 283.940903 
L 163.238317 283.518295 
L 163.218174 283.222157 
L 163.198053 282.931698 
L 163.212394 282.587022 
L 163.214662 282.252689 
L 163.103626 281.873382 
L 163.073564 281.569843 
L 163.105494 281.313379 
L 163.271768 280.814651 
L 163.410358 280.579428 
L 163.543754 280.346514 
L 163.727149 279.892966 
L 163.900607 279.431995 
L 164.073533 278.970727 
L 164.247815 278.534064 
L 164.415981 278.269167 
L 164.594019 277.820802 
L 164.738695 277.366084 
L 164.789731 277.012867 
L 164.837872 276.668477 
L 164.973051 276.438503 
L 165.138198 275.984472 
L 165.295686 275.524793 
L 165.454772 275.06655 
L 165.617657 274.63439 
L 165.797396 274.379722 
L 166.017623 274.161729 
L 166.227971 273.942103 
L 166.464514 273.540681 
L 166.596247 273.173293 
L 166.63548 272.791673 
L 166.6279 272.445674 
L 166.621537 272.106583 
L 166.66892 271.636749 
L 166.834402 271.187074 
L 166.998273 270.745951 
L 167.049107 270.420305 
L 167.105768 270.106807 
L 167.239847 269.847965 
L 167.38763 269.601719 
L 167.534215 269.23019 
L 167.617088 268.733663 
L 167.695114 268.380991 
L 167.797208 268.057461 
L 167.952333 267.954647 
L 167.952615 267.496694 
L 167.921268 267.016355 
L 167.899899 266.550602 
L 167.900649 266.223043 
L 167.934159 265.909271 
L 168.030289 265.588826 
L 168.159406 265.291153 
L 168.415046 264.892654 
L 168.55694 264.505668 
L 168.696213 264.125594 
L 168.910574 263.71286 
L 169.135337 263.318907 
L 169.195609 263.228955 
L 169.440993 263.132781 
L 169.614081 262.98108 
L 169.85316 262.580318 
L 170.067944 262.168177 
L 170.249535 261.697872 
L 170.332867 261.639344 
L 170.502098 261.749211 
L 170.61006 261.706805 
L 170.827132 261.341023 
L 171.03311 260.969391 
L 171.099112 260.881463 
L 171.37548 260.745398 
L 171.620366 260.526083 
L 171.818235 260.427151 
L 172.204846 260.400303 
L 172.517481 260.275948 
L 172.818205 260.126748 
L 172.993059 260.00964 
L 173.138367 259.676971 
L 173.147387 259.479501 
L 173.091254 259.378077 
L 172.917186 259.28249 
L 172.879847 259.171811 
L 173.043115 258.963088 
L 173.23302 258.780837 
L 173.450573 258.685854 
L 173.857494 258.60631 
L 174.258641 258.543396 
L 174.356976 258.546837 
L 174.371432 258.677012 
L 174.309589 258.781195 
L 174.058995 258.885787 
L 173.809004 258.984814 
L 173.509923 259.178024 
L 173.393619 259.38839 
L 173.381138 259.540095 
L 173.486115 259.567952 
L 173.743464 259.460868 
L 173.989836 259.328686 
L 174.233154 259.125656 
L 174.399344 258.892575 
L 174.678969 258.590494 
L 174.967396 258.357798 
L 175.238164 258.454798 
L 175.486228 258.209006 
L 175.919963 258.085197 
L 176.173631 257.963271 
L 176.423709 257.854074 
L 176.664069 257.825042 
L 176.898663 257.795127 
L 177.215797 257.609951 
L 177.545919 257.556548 
L 177.881437 257.529227 
L 178.206817 257.526385 
L 178.579155 257.546462 
L 178.951486 257.582731 
L 179.323583 257.628144 
L 179.680516 257.673868 
L 180.033298 257.716746 
L 180.386136 257.761995 
L 180.737622 257.816756 
L 181.072556 257.884941 
L 181.39917 257.978241 
L 181.721705 258.096493 
L 182.03088 258.223926 
L 182.270678 258.35546 
L 182.503888 258.490627 
L 182.799261 258.595633 
L 183.046731 258.604247 
L 183.319983 258.502714 
L 183.588299 258.404448 
L 183.929097 258.397238 
L 184.285137 258.514069 
L 184.619511 258.5374 
L 185.036283 258.475777 
L 185.464005 258.484289 
L 185.72136 258.506508 
L 185.970595 258.549304 
L 186.282495 258.689802 
L 186.490662 258.705819 
L 186.768832 258.809908 
L 186.848368 259.02515 
L 187.091933 259.284135 
L 187.269351 259.394978 
L 187.457512 259.328669 
L 187.645238 259.152444 
L 187.910023 258.984402 
L 188.181519 258.864151 
L 188.502522 258.819152 
L 188.829749 258.804204 
L 189.138004 258.749276 
L 189.488804 258.553537 
L 189.826147 258.327711 
L 190.161935 258.172122 
L 190.491815 258.022331 
L 190.704234 257.874452 
L 191.0039 257.823729 
L 191.306056 257.579646 
L 191.507625 257.584497 
L 191.672066 257.729993 
L 191.793501 257.770949 
L 192.10761 257.741101 
L 192.422392 257.699348 
L 192.723685 257.636925 
L 193.012897 257.513376 
L 193.29535 257.384017 
L 193.712937 257.270656 
L 194.126962 257.188516 
L 194.223199 257.183272 
L 194.570931 257.164362 
L 194.839763 257.190154 
L 195.105065 257.298409 
L 195.358539 257.42811 
L 195.457242 257.525164 
L 195.53192 257.756738 
L 195.506781 258.20427 
L 195.472441 258.646542 
L 195.468077 259.049518 
L 195.478137 259.444339 
L 195.52611 259.961013 
L 195.670269 260.359038 
L 195.880758 260.54294 
L 195.971056 260.585112 
L 196.415024 260.561986 
L 196.563945 260.517288 
L 196.722297 260.369757 
L 196.891993 260.128583 
L 197.043123 259.879284 
L 197.05985 259.761121 
L 196.945718 259.499299 
L 196.877406 259.017352 
L 196.658852 259.069594 
L 196.565178 258.998943 
L 196.484644 258.738937 
L 196.602678 258.347417 
L 196.591715 258.068624 
L 196.671769 257.807625 
L 196.94163 257.681768 
L 197.106429 257.50876 
L 197.247369 257.106912 
L 197.49144 256.684079 
L 197.615649 256.605973 
L 197.922409 256.566921 
L 198.224999 256.552296 
L 198.326752 256.59236 
L 198.44544 256.767682 
L 198.71932 256.822956 
L 199.108431 257.011846 
L 199.365045 257.053499 
L 199.608617 257.112519 
L 199.965538 257.445105 
L 200.345021 257.684927 
L 200.667372 257.773496 
L 201.002561 257.932998 
L 201.325807 258.107241 
L 201.708599 258.353149 
L 201.974961 258.57741 
L 202.132951 258.745353 
L 202.310006 259.171672 
L 202.441954 259.386593 
L 202.750191 259.667986 
L 203.06505 259.940729 
L 203.381835 260.211259 
L 203.683506 260.474847 
L 203.877611 260.64725 
L 204.056907 260.830726 
L 204.249885 261.145017 
L 204.529568 261.420051 
L 204.837839 261.606807 
L 205.14225 261.785653 
L 205.333053 261.963555 
L 205.511418 262.310493 
L 205.532446 262.444699 
L 205.453628 262.81153 
L 205.745153 263.180141 
L 205.958135 263.575711 
L 206.084214 263.86368 
L 206.180059 264.158449 
L 206.21996 264.539059 
L 206.260112 264.911026 
L 206.463594 265.386009 
L 206.800236 265.769721 
L 207.003856 265.984669 
L 207.149922 266.138873 
L 207.397172 266.461644 
L 207.640801 266.774909 
L 207.854511 266.946565 
L 208.191354 267.175438 
L 208.480835 267.382098 
L 208.51722 267.408084 
L 208.878358 267.709543 
L 209.218062 268.028513 
L 209.504152 268.399343 
L 209.751628 268.825052 
L 209.997132 269.239589 
L 210.252749 269.617426 
L 210.517375 269.986086 
L 210.786813 270.326557 
L 211.074251 270.619944 
L 211.37529 270.877424 
L 211.575229 270.984809 
L 211.910529 271.029405 
L 212.319221 270.999023 
L 212.590266 271.203717 
L 212.801746 271.299803 
L 213.107256 271.294189 
L 213.311938 271.195398 
L 213.469495 271.038226 
L 213.567749 271.031911 
L 213.828917 271.2674 
L 214.017485 271.550958 
L 214.209311 271.818595 
L 214.523556 272.087011 
L 214.840692 272.33864 
L 215.044377 272.54237 
L 215.23417 272.756489 
L 215.356549 272.940909 
L 215.530365 273.334464 
L 215.639227 273.603523 
L 215.710089 273.877792 
L 215.725024 274.299815 
L 215.712424 274.728612 
L 215.708904 275.143422 
L 215.755412 275.401819 
L 216.015135 275.836276 
L 216.167218 275.987831 
L 216.350638 276.104468 
L 216.662055 276.155199 
L 216.968343 276.164021 
L 217.168065 276.060127 
L 217.332367 275.789932 
L 217.497817 275.53652 
L 217.763605 275.45097 
L 218.154783 275.234981 
L 218.312344 275.084993 
L 218.683339 275.329529 
L 218.985676 275.45623 
L 219.286265 275.482435 
L 219.613356 275.589616 
L 219.695166 275.656153 
L 219.784573 275.873441 
L 220.021075 276.158622 
L 220.254159 276.438857 
L 220.552489 276.873258 
L 220.826444 277.317966 
L 220.919203 277.586538 
L 220.91581 277.906734 
L 220.923149 278.214241 
L 221.086932 278.503204 
L 221.1177 278.81459 
L 221.1206 279.129831 
L 221.109312 279.417014 
L 221.073951 279.540142 
L 220.935605 279.772527 
L 220.788694 279.989822 
L 220.612191 280.178822 
L 220.275489 280.36808 
L 219.911131 280.483911 
L 219.543003 280.586222 
L 219.188354 280.695933 
L 218.930389 280.816024 
L 218.676641 280.925439 
L 218.401838 280.976495 
L 218.128449 280.998109 
L 217.793043 280.986303 
L 217.47036 281.00632 
L 217.103685 281.177089 
L 216.747396 281.368487 
L 216.483216 281.408907 
L 216.266797 281.339504 
L 216.008943 281.114251 
L 215.823878 281.008903 
L 215.61745 281.008201 
L 215.507191 281.391958 
L 215.367725 281.684478 
L 215.227042 281.968814 
L 215.18179 282.128894 
L 215.208503 282.411937 
L 215.428199 282.778178 
L 215.661728 283.129173 
L 215.860272 283.491943 
L 216.023412 283.965528 
L 216.356566 284.271258 
L 216.707696 284.54906 
L 217.029555 284.848438 
L 217.349397 285.151489 
L 217.666158 285.459287 
L 217.966483 285.760418 
L 218.236421 286.056582 
L 218.48731 286.364736 
L 218.680001 286.674173 
L 218.77437 286.995102 
L 218.907715 287.286122 
L 219.090595 287.51995 
L 219.274792 287.745043 
L 219.413043 288.10584 
L 219.463767 288.481332 
L 219.483996 288.854458 
L 219.43722 289.140692 
L 219.300446 289.421922 
L 219.015109 289.791606 
L 218.761027 290.017641 
L 218.673555 290.061892 
L 218.44896 290.072493 
L 218.130518 289.932877 
L 217.827718 289.76066 
L 217.578125 289.533346 
L 217.384815 289.451608 
L 216.986828 289.443006 
L 216.618405 289.288704 
L 216.170654 289.229933 
L 215.728191 289.202923 
L 215.368976 289.190592 
L 215.019748 289.211204 
L 214.714373 289.345022 
L 214.541123 289.503257 
L 214.400988 289.718861 
L 214.2314 290.235026 
L 214.220951 290.511969 
L 214.328587 290.790766 
L 214.365799 291.257054 
L 214.386161 291.728807 
L 214.401852 292.186563 
L 214.393892 292.479899 
L 214.314999 292.845156 
L 214.311754 293.258484 
L 214.333986 293.663602 
L 214.397014 293.917856 
L 214.615364 294.278534 
L 214.74607 294.608117 
L 214.853023 294.942785 
L 214.88715 295.221694 
L 215.024426 295.422496 
L 215.217802 295.584253 
L 215.450757 295.681325 
L 215.834194 295.738672 
L 216.209701 295.799105 
L 216.575972 295.918244 
L 216.93409 296.034883 
L 217.158668 296.027359 
L 217.55486 295.89134 
L 217.835635 295.917584 
L 218.185882 296.072929 
L 218.471569 296.054018 
L 218.784212 296.045982 
L 219.097174 296.047023 
L 219.400483 296.056669 
L 219.662481 296.089043 
L 219.919099 296.120464 
L 220.282385 296.096307 
L 220.648193 295.959199 
L 221.011865 295.808729 
L 221.374873 295.653267 
L 221.73869 295.501179 
L 222.08662 295.367325 
L 222.501852 295.232363 
L 222.915424 295.145519 
L 223.333489 295.115864 
L 223.754029 295.111063 
L 224.160518 295.094326 
L 224.355318 295.023276 
L 224.603641 294.807487 
L 224.776814 294.577489 
L 225.010023 294.129932 
L 225.077637 294.03341 
L 225.368092 293.846294 
L 225.612288 293.634636 
L 225.764011 293.423106 
L 225.925726 293.03048 
L 226.077027 292.629403 
L 226.208688 292.234728 
L 226.252888 291.840816 
L 226.398718 291.533925 
L 226.621704 291.216954 
L 226.830754 290.896324 
L 226.937859 290.674618 
L 227.057417 290.301459 
L 227.15509 289.927612 
L 227.191682 289.614776 
L 227.234576 289.311055 
L 227.368171 288.892913 
L 227.519191 288.480914 
L 227.651122 288.075544 
L 227.709329 287.742552 
L 227.76194 287.414855 
L 227.904412 287.045393 
L 227.931407 286.803303 
L 228.096846 286.275879 
L 228.225647 285.853022 
L 228.337926 285.432414 
L 228.435663 284.913282 
L 228.569285 284.477719 
L 228.714825 284.047116 
L 228.876151 283.644913 
L 229.036963 283.368521 
L 229.229044 283.131529 
L 229.434118 282.949507 
L 229.644838 282.784218 
L 229.722373 282.69795 
L 229.899393 282.193069 
L 230.02468 281.979534 
L 230.179769 281.83979 
L 230.395315 281.541343 
L 230.603592 281.244272 
L 230.750399 281.069667 
L 231.110676 280.880211 
L 231.476264 280.698731 
L 231.845769 280.530269 
L 232.202969 280.385375 
L 232.454569 280.337082 
L 232.706597 280.331249 
L 232.893255 280.36789 
L 233.213974 280.667458 
L 233.518107 280.986402 
L 233.665262 281.162594 
L 233.788526 281.390093 
L 233.907884 281.851452 
L 234.088179 282.127063 
L 234.206445 282.315594 
L 234.27689 282.576001 
L 234.269011 283.117538 
L 234.277959 283.643689 
L 234.368602 283.943005 
L 234.472607 284.234167 
L 234.528605 284.562475 
L 234.555817 284.890465 
L 234.552199 285.371795 
L 234.545218 285.844325 
L 234.569455 286.3327 
L 234.612246 286.809337 
L 234.599482 287.155081 
L 234.688063 287.475903 
L 234.917747 287.88752 
L 235.179713 288.281482 
L 235.451352 288.671148 
L 235.700314 289.05381 
L 235.889191 289.410528 
L 236.070942 289.762989 
L 236.276012 290.058053 
L 236.540471 290.285338 
L 236.864305 290.450999 
L 237.212054 290.510668 
L 237.563995 290.548853 
L 237.904818 290.567345 
L 238.256492 290.49192 
L 238.607834 290.347102 
L 238.951446 290.20163 
L 239.124808 290.168526 
L 239.379176 290.2143 
L 239.721191 290.392237 
L 239.947476 290.414456 
L 240.373392 290.271239 
L 240.608572 290.246633 
L 240.84072 290.248962 
L 241.159334 290.275296 
L 241.469991 290.322868 
L 241.894965 290.362883 
L 242.319811 290.405522 
L 242.744493 290.450783 
L 243.152121 290.496698 
L 243.463209 290.52719 
L 243.763244 290.588067 
L 244.148229 290.721182 
L 244.531586 290.864629 
L 244.91357 291.015557 
L 245.294437 291.171071 
L 245.655675 291.320558 
L 245.98596 291.470687 
L 246.31346 291.631013 
L 246.633755 291.776477 
L 246.887047 291.866813 
L 247.139261 291.935714 
L 247.363873 291.955884 
L 247.604906 291.891915 
L 247.773218 291.75832 
L 248.060491 291.684027 
L 248.423531 291.412709 
L 248.533754 290.981776 
L 248.612913 290.874984 
L 248.775119 290.42647 
L 248.930768 289.972624 
L 249.085545 289.534766 
L 249.156426 289.399271 
L 249.404318 289.157607 
L 249.646411 288.918525 
L 249.867383 288.60024 
L 250.182543 288.326935 
L 250.358156 288.116097 
L 250.515696 287.891546 
L 250.725663 287.522942 
L 250.934441 287.16476 
L 251.211776 286.813361 
L 251.478721 286.464434 
L 251.746172 286.00087 
L 251.981464 285.515989 
L 252.128645 285.11524 
L 252.263066 284.71555 
L 252.41467 284.3789 
L 252.624663 284.055197 
L 252.84237 283.738033 
L 253.046218 283.424097 
L 253.175557 283.128513 
L 253.302034 282.803104 
L 253.441647 282.494262 
L 253.585098 282.284797 
L 253.77287 281.784017 
L 253.965076 281.498505 
L 254.152145 281.217284 
L 254.313347 280.872325 
L 254.433839 280.513262 
L 254.48594 280.112868 
L 254.536283 279.719249 
L 254.712871 279.209973 
L 254.882083 278.709506 
L 254.969306 278.211914 
L 255.005785 277.714433 
L 254.978992 277.203256 
L 254.935423 276.701192 
L 254.950876 276.459136 
L 255.102383 276.044542 
L 255.10708 275.773761 
L 255.066654 275.342684 
L 255.007985 274.924689 
L 254.885385 274.529986 
L 254.872739 274.269505 
L 254.853208 273.745734 
L 254.837496 273.221504 
L 254.825621 272.697133 
L 254.817852 272.19367 
L 254.841239 271.627492 
L 254.99951 271.092372 
L 255.15231 270.556254 
L 255.208541 270.153599 
L 255.240479 269.743941 
L 255.261757 269.345808 
L 255.271233 268.918132 
L 255.260921 268.498636 
L 255.220802 267.960561 
L 255.183076 267.433111 
L 255.177153 266.98237 
L 255.191009 266.540848 
L 255.139762 266.430223 
L 255.292475 266.101599 
L 255.291962 265.971343 
L 255.28071 265.941912 
L 255.152856 265.607895 
L 255.123198 265.361796 
L 255.330971 264.867977 
L 255.354932 264.407861 
L 255.337933 263.947962 
L 255.284432 263.478129 
L 255.118658 262.998814 
L 255.088665 262.876883 
L 255.101045 262.588583 
L 255.115887 262.304796 
L 255.106396 261.77568 
L 255.075334 261.481351 
L 255.015604 261.202279 
L 254.846954 260.734711 
L 254.6605 260.274409 
L 254.490647 259.823535 
L 254.456002 259.556095 
L 254.316712 259.195407 
L 254.194204 258.837214 
L 254.134627 258.405104 
L 254.108005 257.972738 
L 254.113617 257.53104 
L 254.140803 257.226718 
L 254.184959 256.932211 
L 254.284527 256.544045 
L 254.381785 256.163681 
L 254.425006 255.705486 
L 254.437208 255.261821 
L 254.447775 254.817451 
L 254.448832 254.373591 
L 254.433542 253.948946 
L 254.389855 253.467086 
L 254.326965 252.987022 
L 254.259265 252.507213 
L 254.203068 252.045318 
L 254.163084 251.619554 
L 254.13092 251.192643 
L 254.10787 250.777901 
L 254.103661 250.306179 
L 254.103312 249.843711 
L 254.074459 249.593552 
L 253.994682 249.517728 
L 253.90127 249.51831 
L 253.820666 249.440434 
L 253.772617 249.304358 
L 253.776474 248.844737 
L 253.777968 248.392508 
L 253.74483 247.931916 
L 253.682584 247.487403 
L 253.523468 247.03449 
L 253.438591 246.503796 
L 253.342302 246.217687 
L 253.247889 245.937141 
L 253.189455 245.647168 
L 253.148885 245.357682 
L 253.10747 244.836894 
L 253.099195 244.317013 
L 253.097639 243.796715 
L 253.102096 243.292125 
L 253.126335 242.970839 
L 253.138885 242.658914 
L 253.046524 242.305347 
L 253.030971 241.805654 
L 253.022174 241.3047 
L 253.017452 240.8029 
L 253.014089 240.300756 
L 253.009422 239.798727 
L 253.000753 239.297249 
L 252.986743 238.831419 
L 252.940005 238.511768 
L 252.890793 238.199029 
L 252.889193 237.698617 
L 252.886827 237.207851 
L 252.835497 236.684107 
L 252.762252 236.174681 
L 252.680792 235.880076 
L 252.551971 235.630527 
L 252.346684 235.5178 
L 252.193597 235.343708 
L 252.184111 235.223698 
L 252.240956 235.097154 
L 252.24203 234.551976 
L 252.241233 234.407968 
L 252.239068 234.014371 
L 252.283435 233.635534 
L 252.399264 233.301035 
L 252.667878 232.86178 
L 252.762097 232.65767 
L 252.79796 232.405061 
L 252.725543 232.327156 
L 252.504533 232.665211 
L 252.295597 232.989255 
L 252.259111 232.880579 
L 252.369972 232.330357 
L 252.567951 231.846763 
L 252.669265 231.558363 
L 252.750805 231.269639 
L 252.757099 230.998903 
L 252.840435 230.737861 
L 252.905575 230.637741 
L 253.096859 230.527661 
L 253.117361 230.120476 
L 253.231367 229.743244 
L 253.25053 229.205803 
L 253.06333 228.702198 
L 253.005498 228.374871 
L 253.013023 228.006419 
L 253.104695 227.777911 
L 253.249969 227.634531 
L 253.263217 227.322172 
L 253.258081 227.001505 
L 253.302198 226.767178 
L 253.417711 226.556825 
L 253.675686 226.328289 
L 253.889582 226.337136 
L 254.083524 226.482483 
L 254.183558 226.501211 
L 254.403607 226.414367 
L 254.724815 226.42155 
L 254.898543 226.302386 
L 254.961107 226.259484 
L 255.188795 226.075716 
L 255.424287 225.959283 
L 255.647967 225.765165 
L 255.871804 225.589132 
L 256.109544 225.48777 
L 256.352926 225.430461 
L 256.760975 225.436088 
L 256.945941 225.386103 
L 257.073928 225.222488 
L 257.068622 224.889918 
L 257.055696 224.555005 
L 257.151674 224.176876 
L 257.359925 223.803122 
L 257.4576 223.438196 
L 257.474579 222.965657 
L 257.462865 222.499893 
L 257.442545 222.040886 
L 257.375713 221.604883 
L 257.239629 221.170694 
L 257.071476 220.748506 
L 256.882413 220.362319 
L 256.712708 220.054494 
L 256.58164 219.727116 
L 256.499264 219.204562 
L 256.452851 219.072543 
L 256.382087 218.997669 
L 256.117633 218.967656 
L 255.854315 218.96633 
L 255.418731 219.040245 
L 255.313691 219.002229 
L 255.203388 218.874689 
L 255.16444 218.762982 
L 255.172199 218.352091 
L 255.135896 217.977541 
L 254.966006 217.702943 
L 254.893749 217.649848 
L 254.730995 217.53022 
L 254.553931 217.096774 
L 254.474572 216.61905 
L 254.399366 216.149281 
L 254.244468 215.726899 
L 254.089802 215.45922 
L 253.922863 215.209863 
L 253.637897 214.843234 
L 253.402563 214.651722 
L 253.195514 214.44705 
L 253.087134 213.981642 
L 252.937155 213.72413 
L 252.780334 213.476726 
L 252.647881 213.139681 
L 252.637781 212.871102 
L 252.690397 212.502383 
L 252.619162 212.107956 
L 252.643693 211.682433 
L 252.758739 211.157634 
L 252.933877 210.698597 
L 253.036308 210.701018 
L 253.276454 210.925455 
L 253.477839 210.882479 
L 253.724169 210.607228 
L 254.085567 210.406516 
L 254.448591 210.226213 
L 254.538446 210.160528 
L 254.622995 209.997179 
L 254.720942 209.493854 
L 254.717925 209.351399 
L 254.584285 209.12427 
L 254.319514 208.889797 
L 254.230806 208.837423 
L 254.030904 208.841722 
L 253.943764 208.770009 
L 253.972645 208.407536 
L 254.057322 208.27472 
L 254.323487 208.043077 
L 254.580931 207.908631 
L 254.840334 207.797696 
L 254.888288 207.793801 
L 254.935343 207.789975 
L 255.12252 207.882445 
L 255.278853 208.044312 
L 255.439335 208.303732 
L 255.580838 208.571628 
L 255.648149 208.809349 
L 255.956658 208.852869 
L 256.28241 208.833915 
L 256.578612 208.733392 
L 256.845444 208.543891 
L 257.104728 208.350542 
L 257.302635 208.257743 
L 257.689414 208.268565 
L 257.734874 208.369047 
L 257.911248 208.217341 
L 258.120652 208.129549 
L 258.35496 208.125063 
L 258.602965 208.053224 
L 258.83437 207.944001 
L 259.119705 207.713665 
L 259.387935 207.460266 
L 259.541358 207.304612 
L 259.798548 206.875631 
L 259.949487 206.508334 
L 259.949763 206.376047 
L 259.798355 206.056575 
L 259.654714 205.738762 
L 259.560755 205.417737 
L 259.506285 205.09246 
L 259.548467 204.575227 
L 259.673082 204.183666 
L 259.706234 203.872065 
L 259.736035 203.741623 
L 259.901833 203.453467 
L 260.063945 203.170718 
L 260.096164 203.032133 
L 260.066695 202.629323 
L 259.953605 202.31137 
L 259.841327 201.999756 
L 259.795377 201.576687 
L 259.720685 201.336988 
L 259.706533 201.076555 
L 259.742123 200.756788 
L 259.85645 200.387219 
L 259.993262 200.038815 
L 260.214755 199.697547 
L 260.371492 199.556142 
L 260.626135 199.465622 
L 260.880538 199.407484 
L 260.97084 199.451693 
L 261.005715 199.569538 
L 261.112348 199.59736 
L 261.341589 199.555252 
L 261.612932 199.384653 
L 261.843849 199.351665 
L 261.990427 199.535981 
L 262.082297 199.560851 
L 262.232539 199.428666 
L 262.5402 199.326015 
L 262.780385 199.354773 
L 263.017307 199.391242 
L 263.461234 199.349843 
L 263.754505 199.222326 
L 264.04198 199.105076 
L 264.448447 199.122931 
L 264.771912 199.280714 
L 265.037964 199.338914 
L 265.296768 199.403665 
L 265.638095 199.559199 
L 265.960182 199.749639 
L 266.315963 200.01462 
L 266.664684 200.296597 
L 267.008854 200.54916 
L 267.225282 200.578373 
L 267.52864 200.465534 
L 267.830538 200.333246 
L 268.126818 200.23494 
L 268.407433 200.231832 
L 268.685673 200.248816 
L 269.012669 200.217323 
L 269.327637 200.149195 
L 269.614656 200.002735 
L 269.896779 199.866861 
L 270.260948 199.857024 
L 270.603634 199.810606 
L 270.880214 199.611592 
L 271.138897 199.351933 
L 271.384894 199.093426 
L 271.534842 198.888977 
L 271.927196 198.883359 
L 272.323067 198.895321 
L 272.64212 198.773282 
L 272.820257 198.65006 
L 272.895285 198.562088 
L 272.931217 198.325762 
L 272.93879 197.899296 
L 272.932763 197.481096 
L 272.897191 197.192311 
L 272.819341 196.983148 
L 272.583883 196.699638 
L 272.403178 196.590853 
L 272.30978 196.591433 
L 271.979483 196.767482 
L 271.863243 196.799755 
L 271.741906 196.776072 
L 271.569176 196.612277 
L 271.354717 196.251307 
L 271.05658 196.074025 
L 271.006138 195.960366 
L 271.054773 195.4146 
L 271.149238 194.87354 
L 271.260272 194.348861 
L 271.418853 193.845169 
L 271.578458 193.537522 
L 271.754068 193.252849 
L 271.845556 193.183106 
L 272.129925 192.749979 
L 272.41241 192.328849 
L 272.74364 191.972669 
L 272.946365 191.854376 
L 273.329819 191.852027 
L 273.495425 191.878479 
L 273.73897 192.006094 
L 273.976604 192.137066 
L 274.079953 192.167971 
L 274.299307 192.107609 
L 274.494399 192.131848 
L 274.568536 192.231121 
L 274.585101 192.4773 
L 274.858021 192.705617 
L 275.143493 192.889752 
L 275.433001 193.065058 
L 275.718732 193.21729 
L 276.119812 193.319645 
L 276.525478 193.551204 
L 276.825037 193.777105 
L 277.119828 194.013774 
L 277.401692 194.250042 
L 277.553167 194.42617 
L 277.631802 194.834778 
L 277.81654 195.136917 
L 277.997437 195.296602 
L 278.401529 195.540386 
L 278.5655 195.565837 
L 278.776668 195.510614 
L 279.181345 195.300073 
L 279.58339 195.07934 
L 279.970306 194.858073 
L 280.128739 194.724812 
L 280.33656 194.243201 
L 280.479996 194.046923 
L 280.774807 193.737206 
L 281.07401 193.433323 
L 281.372803 193.154047 
L 281.655858 192.935671 
L 281.94802 192.752611 
L 282.313368 192.57355 
L 282.670914 192.397073 
L 282.902391 192.240493 
L 283.118582 192.063584 
L 283.431023 191.792575 
L 283.738666 191.512791 
L 284.021445 191.221534 
L 284.207561 190.940458 
L 284.37803 190.649453 
L 284.532244 190.487714 
L 284.726972 190.415289 
L 285.13953 190.347407 
L 285.545857 190.302402 
L 285.822617 190.294971 
L 286.09322 190.312264 
L 286.38196 190.391911 
L 286.704622 190.387202 
L 287.028488 190.36719 
L 287.342096 190.358544 
L 287.591402 190.41095 
L 287.972269 190.585685 
L 288.245347 190.629977 
L 288.516535 190.642391 
L 288.851699 190.634753 
L 289.10056 190.609581 
L 289.099888 191.428067 
L 289.099306 192.13691 
L 289.184861 192.16562 
L 289.446259 192.379767 
L 289.732938 192.766748 
L 289.830535 193.000206 
L 289.824592 193.150855 
L 289.738722 193.397665 
L 289.707557 193.802874 
L 289.619993 194.039514 
L 289.603296 194.165817 
L 289.729016 194.6698 
L 289.748318 194.785698 
L 289.701731 195.015966 
L 289.724281 195.127779 
L 289.869391 195.354836 
L 289.956316 195.58023 
L 289.990928 196.040229 
L 290.043466 196.479303 
L 290.269331 196.823918 
L 290.339051 197.045335 
L 290.392712 197.559935 
L 290.409081 198.035091 
L 290.399703 198.498182 
L 290.302885 198.873274 
L 290.222168 199.387686 
L 290.222717 199.526083 
L 290.38506 199.739079 
L 290.566797 199.929005 
L 290.84062 200.173928 
L 291.117628 200.399852 
L 291.387148 200.595636 
L 291.702867 200.661878 
L 291.987192 201.012444 
L 292.778177 200.540286 
L 294.480044 200.554128 
L 294.632697 201.978259 
L 296.2529 202.460406 
L 296.253506 202.460611 
L 298.471189 203.201135 
L 300.049129 203.730095 
L 300.055686 203.733739 
L 300.061013 203.739732 
L 300.064598 203.74746 
L 300.066071 203.756193 
L 300.06587 203.75861 
L 300.640133 203.783671 
L 301.199524 203.91606 
L 301.459375 204.02463 
L 303.105272 204.569346 
L 303.505388 204.664806 
L 304.938082 203.623852 
L 306.208097 201.772342 
L 307.849432 201.611718 
L 308.983221 202.105951 
L 308.52365 203.986989 
L 310.100097 205.201737 
L 311.50227 205.987223 
L 313.211002 205.468533 
L 314.790841 204.717824 
L 314.875097 204.649164 
L 315.957947 202.946407 
L 316.697157 201.032798 
L 318.266675 200.44399 
L 319.867495 200.768467 
L 321.636797 201.001829 
L 323.402488 201.76724 
L 325.147412 202.867436 
L 326.769618 204.198279 
L 328.380572 205.840866 
L 329.924102 207.8185 
L 330.982939 209.79217 
L 332.416377 211.514463 
L 332.517446 211.734926 
L 334.056926 212.8916 
L 335.451367 214.856359 
L 337.029307 215.82832 
L 338.690538 215.459773 
L 340.356233 214.408905 
L 342.01293 213.312006 
L 343.680698 211.937553 
L 345.427712 211.257682 
L 347.109913 210.530886 
L 349.064778 209.447693 
L 350.70138 208.57018 
L 352.357572 207.530998 
L 353.975808 206.630245 
L 354.20012 206.527942 
L 355.832351 204.887418 
L 356.889702 202.791412 
L 357.032614 200.86183 
L 357.08279 198.896741 
L 357.244938 196.874766 
L 358.833492 194.806018 
L 360.489357 193.836155 
L 362.252204 193.607125 
L 363.779244 192.370531 
L 364.576775 190.133792 
L 365.009543 188.056006 
L 365.514631 186.770385 
L 366.819659 184.150908 
L 367.716632 182.215298 
L 367.941677 181.656872 
L 368.419391 179.880094 
L 368.499956 178.955764 
L 367.71375 177.215865 
L 366.239225 175.99933 
L 364.838995 174.170684 
L 364.541762 172.156358 
L 365.837933 170.249925 
L 367.609475 169.644633 
L 369.154356 167.95444 
L 370.789916 167.089969 
L 372.584748 166.809859 
L 374.222977 165.748572 
L 375.714012 163.917729 
L 377.376951 163.077197 
L 378.50461 162.498124 
L 380.002852 163.368021 
L 380.839703 165.468681 
L 380.904243 167.440986 
L 380.817569 169.547507 
L 381.030134 171.605453 
L 381.921366 173.800714 
L 383.018578 175.944297 
L 384.238948 177.964427 
L 384.798254 178.973148 
" style="stroke:#ffffff;stroke-linejoin:miter;stroke-width:2;"/>
   </g>
  </g>
 </g>
 <defs>
  <clipPath id="p3eb4cbe085">
   <rect height="543.6" width="558" x="90" y="86.4"/>
  </clipPath>
 </defs>
</svg>
