<?xml version="1.0" encoding="utf-8" standalone="no"?>
<!DOCTYPE svg PUBLIC "-//W3C//DTD SVG 1.1//EN"
  "http://www.w3.org/Graphics/SVG/1.1/DTD/svg11.dtd">
<!-- Created with matplotlib (https://matplotlib.org/) -->
<svg height="720pt" version="1.1" viewBox="0 0 720 720" width="720pt" xmlns="http://www.w3.org/2000/svg" xmlns:xlink="http://www.w3.org/1999/xlink">
 <metadata>
  <rdf:RDF xmlns:cc="http://creativecommons.org/ns#" xmlns:dc="http://purl.org/dc/elements/1.1/" xmlns:rdf="http://www.w3.org/1999/02/22-rdf-syntax-ns#">
   <cc:Work>
    <dc:type rdf:resource="http://purl.org/dc/dcmitype/StillImage"/>
    <dc:date>2021-05-07T11:03:04.030303</dc:date>
    <dc:format>image/svg+xml</dc:format>
    <dc:creator>
     <cc:Agent>
      <dc:title>Matplotlib v3.3.3, https://matplotlib.org/</dc:title>
     </cc:Agent>
    </dc:creator>
   </cc:Work>
  </rdf:RDF>
 </metadata>
 <defs>
  <style type="text/css">*{stroke-linecap:butt;stroke-linejoin:round;}</style>
 </defs>
 <g id="figure_1">
  <g id="patch_1">
   <path d="M 0 720 
L 720 720 
L 720 0 
L 0 0 
z
" style="fill:none;"/>
  </g>
  <g id="axes_1">
   <g id="patch_2">
    <path clip-path="url(#p0b26a2db72)" d="M 479.953768 399.03078 
L 485.635493 414.197897 
L 483.778262 431.582439 
L 484.335837 451.932513 
L 485.146361 453.042011 
L 486.137453 473.02014 
L 488.443191 489.713283 
L 488.841079 493.510126 
L 488.139723 493.507901 
L 406.204122 493.249642 
L 414.03846 458.556242 
L 416.804169 444.223362 
L 418.68431 430.650693 
L 393.665832 448.895683 
L 363.444491 468.010514 
L 339.754511 480.609841 
L 321.599443 488.648055 
L 294.054247 498.246674 
L 267.159278 504.114209 
L 243.795349 506.251014 
L 217.170478 504.92503 
L 192.990075 501.200687 
L 169.67313 497.065421 
L 170.075377 496.545268 
L 171.076784 495.415135 
L 172.290402 493.94601 
L 173.33036 492.759502 
L 174.312481 491.666828 
L 175.660853 490.292231 
L 176.72046 488.841692 
L 176.336829 487.559477 
L 177.434714 486.448196 
L 178.819773 486.506128 
L 180.07166 485.169013 
L 181.342472 483.831894 
L 182.575093 482.607516 
L 183.942029 481.402387 
L 185.328668 480.140889 
L 186.772162 479.350697 
L 187.908606 477.900143 
L 188.197986 477.429158 
L 189.257274 475.9975 
L 190.220784 474.584816 
L 191.280096 473.379029 
L 192.473803 472.494344 
L 193.82123 471.741635 
L 195.149667 470.725274 
L 196.55526 469.670699 
L 197.922256 468.484529 
L 198.981582 467.297992 
L 200.252811 466.017251 
L 201.523669 464.755793 
L 202.73699 463.437243 
L 203.738439 462.326037 
L 205.009642 461.064211 
L 206.357679 459.689635 
L 207.801881 458.465591 
L 209.226756 457.128452 
L 210.652016 455.810633 
L 211.980756 454.416746 
L 212.886099 453.343022 
L 213.830017 452.156559 
L 214.619918 451.007178 
L 215.717841 449.726488 
L 216.835076 448.483618 
L 217.894429 447.31567 
L 219.203883 445.941112 
L 220.590524 444.490888 
L 221.765662 443.229095 
L 222.902215 441.872752 
L 223.980834 440.535335 
L 225.098402 439.066229 
L 226.311728 437.634591 
L 227.46756 436.31607 
L 228.815298 435.129889 
L 230.297807 434.113515 
L 231.472303 433.266312 
L 232.723601 432.325234 
L 234.109961 431.195413 
L 235.303727 430.367082 
L 236.747993 429.237621 
L 238.115039 428.032529 
L 239.347417 427.072178 
L 240.4833 426.149673 
L 241.908271 425.02022 
L 243.121307 423.871533 
L 244.296104 422.647169 
L 245.721413 421.329302 
L 247.184953 420.030005 
L 248.513766 418.730369 
L 248.802449 418.410282 
L 250.035489 416.9979 
L 250.902299 415.886341 
L 251.730518 414.98249 
L 252.886359 413.569757 
L 254.311307 412.270474 
L 255.600908 411.725074 
L 256.986052 411.764112 
L 258.236455 411.916282 
L 259.525081 412.068407 
L 260.871611 412.220929 
L 262.276018 412.259966 
L 263.410949 412.223377 
L 264.796033 412.168231 
L 265.892737 412.113147 
L 267.393224 411.944839 
L 268.836556 411.569289 
L 270.203013 411.137391 
L 271.665596 410.705437 
L 272.877721 410.44267 
L 274.282773 409.972943 
L 275.418384 409.408305 
L 276.74657 408.750216 
L 278.170926 408.110613 
L 279.287201 407.546389 
L 280.596113 406.831163 
L 281.770634 406.097461 
L 282.675365 405.400862 
L 283.965317 404.497299 
L 285.332471 403.574772 
L 286.410144 402.991612 
L 287.353504 402.408145 
L 288.14285 401.899952 
L 288.912858 401.3918 
L 290.41473 400.394342 
L 291.820453 399.283432 
L 293.206863 398.116199 
L 294.43923 397.062063 
L 295.748786 395.74355 
L 296.923641 394.557413 
L 298.117795 393.35199 
L 299.177228 392.184418 
L 300.255963 391.01651 
L 301.565527 389.698335 
L 302.586365 388.549314 
L 303.780832 387.174464 
L 305.205838 385.894093 
L 306.592595 384.481716 
L 307.882901 383.333053 
L 309.231086 382.0527 
L 310.309783 380.640015 
L 311.119436 379.415392 
L 312.025173 377.964954 
L 312.757612 376.68361 
L 313.355331 375.459029 
L 314.280751 374.008181 
L 315.359483 372.727513 
L 316.53469 371.276989 
L 317.170657 370.146591 
L 317.575459 369.392996 
L 318.45515 368.235852 
L 319.626199 366.783106 
L 320.297381 365.538488 
L 320.814871 364.293899 
L 321.332335 362.917668 
L 321.695833 361.692021 
L 322.712854 360.239676 
L 324.095871 359.088373 
L 324.86354 357.900105 
L 325.650118 356.636555 
L 326.379212 355.391557 
L 327.51163 353.920281 
L 328.298601 352.713098 
L 328.931161 351.317935 
L 329.448671 350.129714 
L 330.062286 348.809833 
L 330.733436 347.527394 
L 331.366376 346.320241 
L 332.152927 344.868314 
L 333.169969 343.434516 
L 333.745019 342.095731 
L 334.223924 340.870065 
L 334.722138 339.68222 
L 335.297146 338.305611 
L 335.430151 336.96724 
L 335.505662 336.005676 
L 335.619429 335.006652 
L 335.829664 333.988697 
L 336.250679 332.630992 
L 336.749293 331.537337 
L 336.921382 330.933972 
L 337.226914 329.501047 
L 337.455648 328.030683 
L 337.588287 326.748678 
L 337.740583 325.542355 
L 337.969315 324.26037 
L 338.236654 322.789591 
L 338.580831 321.564321 
L 339.040862 320.357572 
L 339.48114 318.962077 
L 339.748485 317.717909 
L 339.592707 316.304313 
L 341.954162 313.380302 
L 343.395238 312.606169 
L 343.989573 311.286296 
L 349.704274 301.941933 
L 351.070694 300.572978 
L 351.704052 299.422567 
L 352.279114 298.21543 
L 352.873882 297.140675 
L 353.833422 295.838911 
L 354.48569 294.594272 
L 354.906737 293.293343 
L 355.289518 291.97351 
L 355.768415 290.55947 
L 356.285584 289.182877 
L 356.764496 287.844078 
L 357.320216 286.373289 
L 357.799166 285.241819 
L 358.451446 284.035042 
L 358.930777 282.903535 
L 359.409712 281.677875 
L 359.946565 280.508572 
L 361.00226 279.037328 
L 362.346747 277.848606 
L 363.229918 276.716698 
L 363.593428 275.528883 
L 363.937989 274.190145 
L 364.243591 272.776471 
L 364.626405 271.588282 
L 365.067117 270.344089 
L 365.527156 269.231499 
L 365.967471 267.873834 
L 366.10013 266.572956 
L 366.386792 265.272424 
L 366.539982 264.725431 
L 367.230087 263.310951 
L 368.055344 262.085236 
L 369.168944 260.726718 
L 370.051716 259.406434 
L 370.857644 258.010886 
L 371.644271 256.615304 
L 372.353698 255.276508 
L 373.005991 254.031541 
L 373.71536 252.560732 
L 373.925229 251.222389 
L 374.058687 250.354969 
L 374.345399 249.299183 
L 374.824318 247.866236 
L 375.283941 246.471079 
L 375.955163 245.22611 
L 376.49204 244.076094 
L 376.490361 242.869428 
L 376.392544 241.644571 
L 376.60241 240.494607 
L 377.350452 239.155399 
L 377.964114 237.703519 
L 378.231085 236.270607 
L 378.344792 234.970068 
L 378.611803 233.537156 
L 378.764125 232.293012 
L 378.800669 231.04885 
L 378.914376 229.747977 
L 379.296786 228.296505 
L 379.756833 227.127182 
L 380.370535 225.882594 
L 380.542666 225.392336 
L 380.964084 224.072464 
L 380.769725 222.677821 
L 380.287367 221.471974 
L 379.650581 220.247202 
L 378.956239 218.871885 
L 378.204419 217.590804 
L 377.472282 216.554799 
L 376.566418 215.292989 
L 375.949306 214.049341 
L 375.831786 212.711014 
L 376.176369 211.391562 
L 376.482404 210.411051 
L 376.534745 210.159178 
L 500.473705 210.148986 
L 523.886556 210.383123 
L 568.32687 217.491075 
L 550.725299 261.730953 
L 543.342273 278.26306 
L 529.878795 300.843826 
L 515.981226 323.02149 
L 504.68964 340.763738 
L 492.095087 357.296553 
L 473.854776 378.668572 
L 479.953768 399.03078 
" style="stroke:#ffffff;stroke-linejoin:miter;stroke-width:2;"/>
   </g>
  </g>
 </g>
 <defs>
  <clipPath id="p0b26a2db72">
   <rect height="543.6" width="558" x="90" y="86.4"/>
  </clipPath>
 </defs>
</svg>
