<?xml version="1.0" encoding="utf-8" standalone="no"?>
<!DOCTYPE svg PUBLIC "-//W3C//DTD SVG 1.1//EN"
  "http://www.w3.org/Graphics/SVG/1.1/DTD/svg11.dtd">
<!-- Created with matplotlib (https://matplotlib.org/) -->
<svg height="720pt" version="1.1" viewBox="0 0 720 720" width="720pt" xmlns="http://www.w3.org/2000/svg" xmlns:xlink="http://www.w3.org/1999/xlink">
 <metadata>
  <rdf:RDF xmlns:cc="http://creativecommons.org/ns#" xmlns:dc="http://purl.org/dc/elements/1.1/" xmlns:rdf="http://www.w3.org/1999/02/22-rdf-syntax-ns#">
   <cc:Work>
    <dc:type rdf:resource="http://purl.org/dc/dcmitype/StillImage"/>
    <dc:date>2021-05-07T11:02:59.439068</dc:date>
    <dc:format>image/svg+xml</dc:format>
    <dc:creator>
     <cc:Agent>
      <dc:title>Matplotlib v3.3.3, https://matplotlib.org/</dc:title>
     </cc:Agent>
    </dc:creator>
   </cc:Work>
  </rdf:RDF>
 </metadata>
 <defs>
  <style type="text/css">*{stroke-linecap:butt;stroke-linejoin:round;}</style>
 </defs>
 <g id="figure_1">
  <g id="patch_1">
   <path d="M 0 720 
L 720 720 
L 720 0 
L 0 0 
z
" style="fill:none;"/>
  </g>
  <g id="axes_1">
   <g id="patch_2">
    <path clip-path="url(#p19d13e7138)" d="M 620.775207 555.195502 
L 516.869273 555.160093 
L 516.965839 417.53928 
L 411.615894 417.606817 
L 411.666139 555.261216 
L 313.507231 555.232068 
L 284.582523 555.227135 
L 201.583717 555.222224 
L 202.500722 572.874804 
L 142.065495 572.92427 
L 117.136344 572.69568 
L 117.193316 555.200652 
L 117.286564 551.65331 
L 117.429807 546.401107 
L 117.692439 537.263897 
L 117.881798 532.257722 
L 117.96042 529.719823 
L 117.972871 529.317831 
L 117.990824 528.906593 
L 118.189913 525.066903 
L 118.331602 520.999694 
L 118.568798 515.870718 
L 118.876333 509.730514 
L 119.949974 492.141934 
L 120.372756 485.745229 
L 120.689925 481.149065 
L 120.918644 477.834881 
L 121.414411 470.048991 
L 121.971722 461.296536 
L 122.624881 449.835298 
L 123.656481 417.904489 
L 123.657557 417.866693 
L 123.714527 415.524564 
L 123.776555 411.946654 
L 123.896619 405.986766 
L 123.864928 363.304652 
L 123.932157 346.849835 
L 123.978931 334.711143 
L 124.01856 325.707314 
L 124.116961 301.627809 
L 124.142734 291.20004 
L 123.987356 283.068024 
L 123.773844 274.524578 
L 123.658101 266.201287 
L 123.591865 258.452083 
L 123.712574 249.363801 
L 123.818248 243.623864 
L 123.890361 237.692565 
L 123.883346 229.178099 
L 123.799979 201.616038 
L 123.764383 189.848827 
L 123.738049 181.143005 
L 123.714034 173.202535 
L 123.688847 164.879399 
L 123.66715 157.704264 
L 123.686913 151.485886 
L 123.846768 143.47573 
L 123.861002 143.475733 
L 202.890771 143.522445 
L 202.890062 151.400913 
L 202.886965 230.168477 
L 202.886679 237.537227 
L 202.885011 280.22436 
L 306.648165 280.154635 
L 306.648993 278.01729 
L 401.907911 277.97648 
L 405.924419 274.900613 
L 413.018646 274.895758 
L 464.971504 274.862584 
L 516.923613 274.834761 
L 516.920882 280.046273 
L 561.13202 280.02478 
L 620.863656 280.00686 
L 620.853434 308.418937 
L 620.808468 415.872366 
L 620.775207 555.195502 
" style="stroke:#ffffff;stroke-linejoin:miter;stroke-width:2;"/>
   </g>
  </g>
 </g>
 <defs>
  <clipPath id="p19d13e7138">
   <rect height="543.6" width="558" x="90" y="86.4"/>
  </clipPath>
 </defs>
</svg>
