<?xml version="1.0" encoding="utf-8" standalone="no"?>
<!DOCTYPE svg PUBLIC "-//W3C//DTD SVG 1.1//EN"
  "http://www.w3.org/Graphics/SVG/1.1/DTD/svg11.dtd">
<!-- Created with matplotlib (https://matplotlib.org/) -->
<svg height="720pt" version="1.1" viewBox="0 0 720 720" width="720pt" xmlns="http://www.w3.org/2000/svg" xmlns:xlink="http://www.w3.org/1999/xlink">
 <metadata>
  <rdf:RDF xmlns:cc="http://creativecommons.org/ns#" xmlns:dc="http://purl.org/dc/elements/1.1/" xmlns:rdf="http://www.w3.org/1999/02/22-rdf-syntax-ns#">
   <cc:Work>
    <dc:type rdf:resource="http://purl.org/dc/dcmitype/StillImage"/>
    <dc:date>2021-05-07T11:03:04.943108</dc:date>
    <dc:format>image/svg+xml</dc:format>
    <dc:creator>
     <cc:Agent>
      <dc:title>Matplotlib v3.3.3, https://matplotlib.org/</dc:title>
     </cc:Agent>
    </dc:creator>
   </cc:Work>
  </rdf:RDF>
 </metadata>
 <defs>
  <style type="text/css">*{stroke-linecap:butt;stroke-linejoin:round;}</style>
 </defs>
 <g id="figure_1">
  <g id="patch_1">
   <path d="M 0 720 
L 720 720 
L 720 0 
L 0 0 
z
" style="fill:none;"/>
  </g>
  <g id="axes_1">
   <g id="patch_2">
    <path clip-path="url(#pc4d81c5570)" d="M 258.598645 163.019745 
L 258.759303 163.108231 
L 260.349636 163.065849 
L 262.413985 162.895807 
L 264.444201 162.877492 
L 273.398413 162.383383 
L 295.403966 162.363579 
L 314.742849 162.321553 
L 320.858108 162.332653 
L 343.27349 162.283623 
L 350.612149 162.269675 
L 366.676856 162.248548 
L 370.476368 162.244969 
L 372.113792 162.245075 
L 613.787868 162.293999 
L 615.330438 162.286124 
L 615.23309 234.79691 
L 615.074059 304.249962 
L 615.300611 375.118048 
L 615.109505 413.457205 
L 615.172289 506.010343 
L 615.155884 563.131016 
L 616.527186 579.115118 
L 616.554508 585.60756 
L 555.766816 585.472309 
L 538.834793 585.537943 
L 494.781587 585.691887 
L 433.906877 585.778243 
L 424.082494 585.838821 
L 393.81893 586.415408 
L 370.945668 586.389081 
L 330.268524 586.409786 
L 329.074066 585.865675 
L 302.429742 586.099277 
L 278.954793 586.189555 
L 269.874013 586.224634 
L 257.00342 586.380293 
L 255.347918 586.367338 
L 255.103877 584.908669 
L 254.124288 574.802681 
L 253.499989 568.360093 
L 252.912802 562.350077 
L 257.382047 554.517359 
L 287.346899 530.346356 
L 289.398257 528.563757 
L 291.32956 526.681313 
L 293.134432 524.70516 
L 294.806962 522.641801 
L 296.341637 520.497999 
L 297.733412 518.280794 
L 298.97773 515.997472 
L 300.070499 513.655541 
L 298.151858 513.0316 
L 311.530714 481.548182 
L 312.173338 479.63882 
L 330.510296 424.99586 
L 331.472157 421.85558 
L 332.2619 418.678729 
L 332.955342 415.005769 
L 333.296275 412.467282 
L 333.528233 409.919399 
L 333.669543 405.751335 
L 333.56791 402.255196 
L 333.312748 399.258507 
L 332.869535 396.030612 
L 332.251007 392.824852 
L 331.454611 389.627969 
L 330.709679 387.156467 
L 329.359439 383.412894 
L 328.057558 380.367772 
L 326.591258 377.380378 
L 324.96388 374.45748 
L 322.48477 370.578844 
L 319.771145 366.911328 
L 316.794629 363.40325 
L 313.567478 360.069059 
L 310.102887 356.922394 
L 306.415113 353.976191 
L 302.51925 351.24251 
L 298.431276 348.7326 
L 281.427758 338.990333 
L 268.888053 312.778581 
L 257.39652 298.244816 
L 251.10594 293.624533 
L 206.236002 260.685534 
L 203.167925 258.604327 
L 199.926081 256.735505 
L 196.529599 255.090067 
L 192.99857 253.677745 
L 189.353874 252.506886 
L 185.617078 251.584441 
L 181.81026 250.915829 
L 177.95596 250.505024 
L 164.128553 249.502718 
L 161.116905 249.284405 
L 122.301776 246.470371 
L 121.445492 244.645777 
L 124.198576 243.491176 
L 126.489229 242.384047 
L 129.89399 240.356666 
L 131.751342 239.092078 
L 134.557436 237.015039 
L 136.847809 235.115815 
L 166.388464 209.315346 
L 171.669771 204.686842 
L 173.858079 202.654707 
L 175.825073 200.580432 
L 176.51078 199.832856 
L 178.084767 198.241828 
L 178.718579 197.639069 
L 180.573691 196.028324 
L 203.954597 175.564661 
L 205.635478 174.094299 
L 255.982815 129.984592 
L 253.661043 132.278218 
L 252.767552 133.243226 
L 251.946296 134.221185 
L 251.105111 135.402273 
L 250.400259 136.556337 
L 249.9945 137.295309 
L 249.458564 138.52109 
L 249.001528 139.719503 
L 248.675337 140.787189 
L 248.371969 142.016855 
L 248.13471 143.409586 
L 247.989701 144.94155 
L 247.97802 146.585284 
L 248.12658 148.06478 
L 248.306667 149.273743 
L 248.654733 150.729837 
L 249.231852 152.43743 
L 249.900203 153.959937 
L 250.390871 154.892995 
L 250.986606 155.897163 
L 251.977821 157.34597 
L 253.552042 159.173021 
L 254.326496 159.905142 
L 256.057232 161.374587 
L 257.748612 162.508336 
L 258.598645 163.019745 
" style="stroke:#ffffff;stroke-linejoin:miter;stroke-width:2;"/>
   </g>
  </g>
 </g>
 <defs>
  <clipPath id="pc4d81c5570">
   <rect height="543.6" width="558" x="90" y="86.4"/>
  </clipPath>
 </defs>
</svg>
