<?xml version="1.0" encoding="utf-8" standalone="no"?>
<!DOCTYPE svg PUBLIC "-//W3C//DTD SVG 1.1//EN"
  "http://www.w3.org/Graphics/SVG/1.1/DTD/svg11.dtd">
<!-- Created with matplotlib (https://matplotlib.org/) -->
<svg height="720pt" version="1.1" viewBox="0 0 720 720" width="720pt" xmlns="http://www.w3.org/2000/svg" xmlns:xlink="http://www.w3.org/1999/xlink">
 <metadata>
  <rdf:RDF xmlns:cc="http://creativecommons.org/ns#" xmlns:dc="http://purl.org/dc/elements/1.1/" xmlns:rdf="http://www.w3.org/1999/02/22-rdf-syntax-ns#">
   <cc:Work>
    <dc:type rdf:resource="http://purl.org/dc/dcmitype/StillImage"/>
    <dc:date>2021-05-28T08:56:46.820371</dc:date>
    <dc:format>image/svg+xml</dc:format>
    <dc:creator>
     <cc:Agent>
      <dc:title>Matplotlib v3.3.3, https://matplotlib.org/</dc:title>
     </cc:Agent>
    </dc:creator>
   </cc:Work>
  </rdf:RDF>
 </metadata>
 <defs>
  <style type="text/css">*{stroke-linecap:butt;stroke-linejoin:round;}</style>
 </defs>
 <g id="figure_1">
  <g id="patch_1">
   <path d="M 0 720 
L 720 720 
L 720 0 
L 0 0 
z
" style="fill:none;"/>
  </g>
  <g id="axes_1">
   <g id="patch_2">
    <path clip-path="url(#pede71fab5b)" d="M 539.225944 501.111558 
L 539.168031 549.306002 
L 465.034395 549.293531 
L 465.074036 541.390538 
L 464.018206 521.60773 
L 460.265377 501.269693 
L 459.511523 497.184193 
L 454.716435 482.717802 
L 451.467797 472.917131 
L 442.462372 453.624174 
L 428.975345 431.208961 
L 414.179651 411.359877 
L 395.252741 390.19352 
L 375.083802 371.02144 
L 318.850469 321.32351 
L 287.998799 292.102403 
L 261.51074 263.075837 
L 235.484321 229.22344 
L 214.113271 194.896991 
L 198.774056 167.093998 
L 219.550797 167.511471 
L 248.765764 168.8694 
L 283.982129 171.794547 
L 316.96104 176.12393 
L 483.167998 206.081277 
L 483.192392 221.090941 
L 483.177184 226.462407 
L 483.195131 229.694099 
L 483.211664 297.774872 
L 483.21547 304.238303 
L 483.244759 353.226191 
L 483.235583 355.630952 
L 539.043684 355.583049 
L 539.131563 452.835591 
L 539.225944 501.111558 
" style="fill:#1a1a1a;stroke:#ffffff;stroke-linejoin:miter;stroke-width:4;"/>
   </g>
  </g>
 </g>
 <defs>
  <clipPath id="pede71fab5b">
   <rect height="543.6" width="558" x="90" y="86.4"/>
  </clipPath>
 </defs>
</svg>
