<?xml version="1.0" encoding="utf-8" standalone="no"?>
<!DOCTYPE svg PUBLIC "-//W3C//DTD SVG 1.1//EN"
  "http://www.w3.org/Graphics/SVG/1.1/DTD/svg11.dtd">
<!-- Created with matplotlib (https://matplotlib.org/) -->
<svg height="720pt" version="1.1" viewBox="0 0 720 720" width="720pt" xmlns="http://www.w3.org/2000/svg" xmlns:xlink="http://www.w3.org/1999/xlink">
 <metadata>
  <rdf:RDF xmlns:cc="http://creativecommons.org/ns#" xmlns:dc="http://purl.org/dc/elements/1.1/" xmlns:rdf="http://www.w3.org/1999/02/22-rdf-syntax-ns#">
   <cc:Work>
    <dc:type rdf:resource="http://purl.org/dc/dcmitype/StillImage"/>
    <dc:date>2021-05-07T11:03:04.499007</dc:date>
    <dc:format>image/svg+xml</dc:format>
    <dc:creator>
     <cc:Agent>
      <dc:title>Matplotlib v3.3.3, https://matplotlib.org/</dc:title>
     </cc:Agent>
    </dc:creator>
   </cc:Work>
  </rdf:RDF>
 </metadata>
 <defs>
  <style type="text/css">*{stroke-linecap:butt;stroke-linejoin:round;}</style>
 </defs>
 <g id="figure_1">
  <g id="patch_1">
   <path d="M 0 720 
L 720 720 
L 720 0 
L 0 0 
z
" style="fill:none;"/>
  </g>
  <g id="axes_1">
   <g id="patch_2">
    <path clip-path="url(#p50ce90ee1b)" d="M 541.004864 179.027116 
L 539.121639 307.480495 
L 539.022025 309.180685 
L 538.941249 309.732453 
L 538.773137 310.880489 
L 537.827574 314.277573 
L 536.28572 317.66906 
L 534.1488 321.052281 
L 531.418541 324.424556 
L 528.097124 327.783216 
L 524.187134 331.125621 
L 519.69171 334.449126 
L 514.614393 337.751099 
L 508.959231 341.028942 
L 502.730672 344.280064 
L 495.933669 347.501891 
L 488.57363 350.691888 
L 480.656364 353.847528 
L 472.188085 356.966324 
L 463.175559 360.045807 
L 329.348986 404.153972 
L 321.553729 406.804781 
L 314.161885 409.485024 
L 307.177802 412.19312 
L 300.605575 414.927499 
L 294.449096 417.686546 
L 288.711905 420.468639 
L 283.397389 423.272153 
L 278.508682 426.095441 
L 277.056947 426.988865 
L 274.048568 428.936848 
L 270.019725 431.794711 
L 266.424482 434.667342 
L 263.264912 437.553071 
L 260.54289 440.450194 
L 258.260035 443.357025 
L 256.417615 446.271844 
L 255.016746 449.19295 
L 254.058192 452.118631 
L 253.542564 455.047162 
L 253.470072 457.97684 
L 253.840823 460.90594 
L 254.654572 463.832742 
L 255.910874 466.75553 
L 257.608878 469.672603 
L 259.747685 472.582234 
L 262.325942 475.482722 
L 265.342196 478.372368 
L 268.794692 481.249478 
L 272.68127 484.112359 
L 276.999774 486.959344 
L 281.747591 489.788757 
L 286.921961 492.598945 
L 292.519819 495.388249 
L 337.558171 516.932019 
L 346.025698 521.135052 
L 353.915999 525.366762 
L 361.225375 529.625124 
L 367.950325 533.908092 
L 374.08755 538.213618 
L 379.634258 542.539628 
L 384.587704 546.884044 
L 388.9456 551.244784 
L 417.949548 582.457755 
L 411.466925 582.760499 
L 402.877077 583.207484 
L 395.4693 583.594054 
L 389.086422 583.944216 
L 381.758491 584.378623 
L 376.401115 584.72828 
L 370.158648 585.118669 
L 361.64988 585.673313 
L 351.567392 586.432166 
L 342.902997 587.094592 
L 335.263399 587.720617 
L 328.569468 588.298309 
L 323.135871 588.779647 
L 317.46632 589.296998 
L 311.797252 589.83829 
L 303.530438 590.656086 
L 296.980342 591.332314 
L 291.627591 591.909339 
L 283.835083 592.774768 
L 277.460155 593.519839 
L 270.455839 594.348984 
L 264.160791 595.141874 
L 258.416521 595.862702 
L 250.862238 596.799812 
L 242.99225 597.725132 
L 236.460405 598.50619 
L 229.772278 599.359116 
L 222.689741 600.212253 
L 215.309439 601.071868 
L 210.120235 601.717122 
L 205.779089 602.274472 
L 199.326375 603.08355 
L 199.374006 600.692412 
L 199.967803 570.853425 
L 199.882333 566.937345 
L 199.926315 556.931152 
L 199.905216 549.914222 
L 199.890924 545.290111 
L 199.878554 541.039315 
L 199.866158 536.903981 
L 199.853324 532.642571 
L 199.839323 528.094167 
L 199.82435 522.96156 
L 199.811032 517.658669 
L 199.769239 505.929788 
L 197.158278 505.929972 
L 196.705472 449.543671 
L 196.643569 441.77617 
L 199.171239 441.776585 
L 199.339782 439.720685 
L 199.633692 390.055788 
L 199.77074 374.63798 
L 198.667204 309.736018 
L 196.055435 309.737154 
L 196.072647 304.306 
L 196.09075 298.65357 
L 196.110204 292.501236 
L 196.118085 290.043331 
L 196.196934 265.194916 
L 196.252932 242.729063 
L 198.866667 243.1429 
L 198.848123 237.953347 
L 196.234557 237.539502 
L 196.03147 180.331807 
L 198.644815 180.331098 
L 198.64004 179.104879 
L 198.636862 178.291051 
L 198.377421 113.417489 
L 198.377424 113.415134 
L 541.96853 113.31645 
L 541.004864 179.027116 
" style="stroke:#ffffff;stroke-linejoin:miter;stroke-width:2;"/>
   </g>
  </g>
 </g>
 <defs>
  <clipPath id="p50ce90ee1b">
   <rect height="543.6" width="558" x="90" y="86.4"/>
  </clipPath>
 </defs>
</svg>
