<?xml version="1.0" encoding="utf-8" standalone="no"?>
<!DOCTYPE svg PUBLIC "-//W3C//DTD SVG 1.1//EN"
  "http://www.w3.org/Graphics/SVG/1.1/DTD/svg11.dtd">
<!-- Created with matplotlib (https://matplotlib.org/) -->
<svg height="720pt" version="1.1" viewBox="0 0 720 720" width="720pt" xmlns="http://www.w3.org/2000/svg" xmlns:xlink="http://www.w3.org/1999/xlink">
 <metadata>
  <rdf:RDF xmlns:cc="http://creativecommons.org/ns#" xmlns:dc="http://purl.org/dc/elements/1.1/" xmlns:rdf="http://www.w3.org/1999/02/22-rdf-syntax-ns#">
   <cc:Work>
    <dc:type rdf:resource="http://purl.org/dc/dcmitype/StillImage"/>
    <dc:date>2021-05-07T11:03:01.845253</dc:date>
    <dc:format>image/svg+xml</dc:format>
    <dc:creator>
     <cc:Agent>
      <dc:title>Matplotlib v3.3.3, https://matplotlib.org/</dc:title>
     </cc:Agent>
    </dc:creator>
   </cc:Work>
  </rdf:RDF>
 </metadata>
 <defs>
  <style type="text/css">*{stroke-linecap:butt;stroke-linejoin:round;}</style>
 </defs>
 <g id="figure_1">
  <g id="patch_1">
   <path d="M 0 720 
L 720 720 
L 720 0 
L 0 0 
z
" style="fill:none;"/>
  </g>
  <g id="axes_1">
   <g id="patch_2">
    <path clip-path="url(#p1f4e4d0f42)" d="M 514.739694 417.431971 
L 559.055591 509.935324 
L 613.26304 510.123971 
L 613.254484 551.266691 
L 438.531968 551.173427 
L 437.132034 551.157137 
L 435.776458 551.125051 
L 434.553304 551.08233 
L 433.570079 551.038539 
L 432.236158 550.965613 
L 431.433959 550.914074 
L 386.783038 550.95559 
L 379.588262 550.503142 
L 375.258966 549.861793 
L 370.545385 548.59961 
L 362.566046 545.551218 
L 355.91637 542.120824 
L 349.597269 537.638133 
L 343.946161 532.970657 
L 339.401297 528.167141 
L 335.001176 523.088719 
L 329.580309 516.573517 
L 305.901924 487.592423 
L 298.984647 479.966376 
L 292.070356 474.325045 
L 286.993101 470.495879 
L 281.982835 467.433138 
L 275.636654 464.27545 
L 269.223901 461.884267 
L 265.082456 460.833001 
L 260.139493 459.782242 
L 254.528643 458.827764 
L 252.104434 458.394692 
L 248.116196 457.682252 
L 237.94979 455.868687 
L 231.069708 454.532064 
L 226.460679 453.577173 
L 221.851756 452.909737 
L 217.964315 452.62502 
L 215.292681 452.818496 
L 212.220439 453.491268 
L 193.658518 459.249661 
L 193.344706 458.356868 
L 187.626325 441.657253 
L 183.971143 430.983091 
L 173.263189 396.902387 
L 171.727493 391.652572 
L 164.929409 366.235702 
L 129.175014 235.693007 
L 129.003273 235.066007 
L 124.749747 219.537987 
L 124.73696 219.49133 
L 148.075905 206.438029 
L 149.085613 205.9063 
L 150.628207 205.119541 
L 151.946891 204.440106 
L 153.442693 203.767231 
L 154.960452 203.069782 
L 156.739529 202.407824 
L 158.319575 201.906704 
L 159.800134 201.494923 
L 161.554419 201.082928 
L 163.199063 200.798289 
L 164.293978 200.618915 
L 165.836808 200.40347 
L 167.08106 200.295379 
L 168.599061 200.204936 
L 170.1295 200.114464 
L 171.975465 200.006741 
L 174.190253 199.897912 
L 176.417483 199.753385 
L 178.296305 199.555575 
L 180.029107 199.306235 
L 181.273315 199.073221 
L 182.729015 198.768631 
L 184.184699 198.374789 
L 185.764785 197.891578 
L 187.224524 197.377413 
L 188.107853 197.037568 
L 189.488807 196.447424 
L 190.471631 195.982533 
L 191.678378 195.374663 
L 193.121467 194.570251 
L 194.377965 193.855235 
L 195.912203 192.951315 
L 197.355289 192.075495 
L 199.196442 190.931622 
L 201.373493 189.57328 
L 202.953404 188.590259 
L 204.65044 187.541944 
L 210.191946 183.998281 
L 228.764472 172.750901 
L 233.350177 170.099853 
L 236.030209 168.731391 
L 239.663273 167.2769 
L 243.356033 166.164029 
L 247.823275 165.477795 
L 252.171506 165.133309 
L 351.550158 165.805425 
L 351.121912 358.343157 
L 514.840355 359.010827 
L 514.739694 417.431971 
" style="stroke:#ffffff;stroke-linejoin:miter;stroke-width:2;"/>
   </g>
  </g>
 </g>
 <defs>
  <clipPath id="p1f4e4d0f42">
   <rect height="543.6" width="558" x="90" y="86.4"/>
  </clipPath>
 </defs>
</svg>
