<?xml version="1.0" encoding="utf-8" standalone="no"?>
<!DOCTYPE svg PUBLIC "-//W3C//DTD SVG 1.1//EN"
  "http://www.w3.org/Graphics/SVG/1.1/DTD/svg11.dtd">
<!-- Created with matplotlib (https://matplotlib.org/) -->
<svg height="720pt" version="1.1" viewBox="0 0 720 720" width="720pt" xmlns="http://www.w3.org/2000/svg" xmlns:xlink="http://www.w3.org/1999/xlink">
 <metadata>
  <rdf:RDF xmlns:cc="http://creativecommons.org/ns#" xmlns:dc="http://purl.org/dc/elements/1.1/" xmlns:rdf="http://www.w3.org/1999/02/22-rdf-syntax-ns#">
   <cc:Work>
    <dc:type rdf:resource="http://purl.org/dc/dcmitype/StillImage"/>
    <dc:date>2021-05-07T11:03:04.708870</dc:date>
    <dc:format>image/svg+xml</dc:format>
    <dc:creator>
     <cc:Agent>
      <dc:title>Matplotlib v3.3.3, https://matplotlib.org/</dc:title>
     </cc:Agent>
    </dc:creator>
   </cc:Work>
  </rdf:RDF>
 </metadata>
 <defs>
  <style type="text/css">*{stroke-linecap:butt;stroke-linejoin:round;}</style>
 </defs>
 <g id="figure_1">
  <g id="patch_1">
   <path d="M 0 720 
L 720 720 
L 720 0 
L 0 0 
z
" style="fill:none;"/>
  </g>
  <g id="axes_1">
   <g id="patch_2">
    <path clip-path="url(#p98fb7ca5b3)" d="M 166.347606 199.866324 
L 176.244378 201.269312 
L 186.445354 198.502172 
L 188.237936 200.5274 
L 190.246719 207.915338 
L 192.386063 211.67353 
L 192.656649 212.073671 
L 192.979569 212.417032 
L 193.346184 212.694374 
L 193.746654 212.898326 
L 194.170311 213.023421 
L 194.60577 213.06631 
L 194.868659 213.066862 
L 195.150652 213.042679 
L 195.426314 212.969218 
L 195.689313 212.848107 
L 195.933667 212.68219 
L 196.153771 212.475184 
L 196.344578 212.231861 
L 198.417669 209.149461 
L 199.887523 202.535243 
L 207.480303 205.187939 
L 208.891488 214.196458 
L 214.233726 214.2123 
L 215.118084 217.805691 
L 227.076898 235.161329 
L 233.63999 240.546015 
L 236.117498 243.332685 
L 248.393744 252.694912 
L 253.482937 258.385618 
L 253.392758 259.82479 
L 256.638005 262.794863 
L 256.620323 272.311852 
L 265.459483 272.319214 
L 265.981326 272.098838 
L 276.010476 272.127639 
L 331.503643 272.376014 
L 338.631511 272.382542 
L 341.797346 274.65912 
L 347.388237 275.716479 
L 352.397007 275.146788 
L 363.898155 291.104407 
L 363.891154 293.698927 
L 367.243688 284.952552 
L 372.879732 274.591333 
L 385.411836 278.264359 
L 399.683721 282.44408 
L 404.429042 316.884548 
L 399.888823 324.840277 
L 393.584729 328.084898 
L 400.308307 334.227441 
L 404.934651 326.115793 
L 411.290056 322.853128 
L 422.150641 325.428167 
L 451.886974 343.969634 
L 464.729113 354.20893 
L 471.138666 354.219379 
L 471.144114 347.514787 
L 485.316425 358.347188 
L 495.697585 359.42904 
L 504.839504 360.382952 
L 538.988266 363.947306 
L 545.443478 364.629162 
L 545.848678 357.616164 
L 546.571594 350.44434 
L 547.21198 345.765494 
L 548.697537 336.895462 
L 550.521055 328.463991 
L 552.208943 321.565815 
L 558.742331 298.20235 
L 562.536556 299.569081 
L 567.952613 301.638458 
L 574.988157 303.603514 
L 578.486303 312.561749 
L 577.986762 350.094182 
L 591.653113 356.678586 
L 586.721568 383.38085 
L 582.054259 412.956973 
L 578.507444 443.199292 
L 576.182004 471.116093 
L 575.986626 492.799641 
L 577.441233 514.629429 
L 578.941526 525.816729 
L 518.136554 525.870193 
L 251.206504 525.997434 
L 163.378903 526.031626 
L 146.380068 525.746759 
L 146.377969 523.840881 
L 146.366197 521.666954 
L 146.346887 515.462937 
L 146.443892 504.143651 
L 146.396361 490.29048 
L 146.472402 478.952004 
L 146.481155 469.752211 
L 146.49089 418.011581 
L 146.564974 365.023835 
L 146.657757 298.885434 
L 146.746487 235.636303 
L 146.790212 204.483425 
L 146.81001 190.368374 
L 149.506248 190.524509 
L 151.85431 192.460744 
L 166.347606 199.866324 
" style="stroke:#ffffff;stroke-linejoin:miter;stroke-width:2;"/>
   </g>
  </g>
 </g>
 <defs>
  <clipPath id="p98fb7ca5b3">
   <rect height="543.6" width="558" x="90" y="86.4"/>
  </clipPath>
 </defs>
</svg>
