<?xml version="1.0" encoding="utf-8" standalone="no"?>
<!DOCTYPE svg PUBLIC "-//W3C//DTD SVG 1.1//EN"
  "http://www.w3.org/Graphics/SVG/1.1/DTD/svg11.dtd">
<!-- Created with matplotlib (https://matplotlib.org/) -->
<svg height="720pt" version="1.1" viewBox="0 0 720 720" width="720pt" xmlns="http://www.w3.org/2000/svg" xmlns:xlink="http://www.w3.org/1999/xlink">
 <metadata>
  <rdf:RDF xmlns:cc="http://creativecommons.org/ns#" xmlns:dc="http://purl.org/dc/elements/1.1/" xmlns:rdf="http://www.w3.org/1999/02/22-rdf-syntax-ns#">
   <cc:Work>
    <dc:type rdf:resource="http://purl.org/dc/dcmitype/StillImage"/>
    <dc:date>2021-05-07T11:03:06.074125</dc:date>
    <dc:format>image/svg+xml</dc:format>
    <dc:creator>
     <cc:Agent>
      <dc:title>Matplotlib v3.3.3, https://matplotlib.org/</dc:title>
     </cc:Agent>
    </dc:creator>
   </cc:Work>
  </rdf:RDF>
 </metadata>
 <defs>
  <style type="text/css">*{stroke-linecap:butt;stroke-linejoin:round;}</style>
 </defs>
 <g id="figure_1">
  <g id="patch_1">
   <path d="M 0 720 
L 720 720 
L 720 0 
L 0 0 
z
" style="fill:none;"/>
  </g>
  <g id="axes_1">
   <g id="patch_2">
    <path clip-path="url(#pa24ce0576d)" d="M 570.557961 327.771745 
L 545.494081 355.56482 
L 514.917462 388.844953 
L 505.394638 399.039043 
L 499.172026 406.343298 
L 494.082235 413.646565 
L 489.418121 421.731507 
L 485.746168 430.727919 
L 483.207827 440.505361 
L 482.083215 448.196165 
L 481.807609 455.364871 
L 481.818697 501.849522 
L 481.735026 564.66714 
L 471.9414 558.635818 
L 462.256705 552.070001 
L 452.571818 545.442829 
L 440.147322 536.114687 
L 430.194137 528.566273 
L 421.710689 522.368339 
L 415.432207 518.380379 
L 409.020668 514.82269 
L 403.681928 512.008135 
L 357.464997 491.240422 
L 332.362657 478.949378 
L 296.871615 459.480151 
L 275.020799 447.139282 
L 260.152993 438.797469 
L 246.411039 430.869063 
L 236.948638 424.939182 
L 228.612042 419.284443 
L 221.325999 413.697642 
L 213.363402 407.282784 
L 201.493143 396.728054 
L 191.197934 385.757201 
L 182.104373 375.682987 
L 174.061047 365.469497 
L 167.73118 356.665513 
L 148.741129 328.457211 
L 134.657517 307.507243 
L 134.735936 239.940642 
L 144.972328 244.228226 
L 151.623936 260.845633 
L 178.715336 278.145563 
L 170.303308 284.06031 
L 170.330591 298.070125 
L 183.144568 306.436335 
L 186.523518 310.464781 
L 202.675088 326.864058 
L 219.748097 333.361376 
L 226.640634 335.56966 
L 227.819129 336.513423 
L 237.755239 333.334802 
L 250.592347 329.059093 
L 263.469836 324.78348 
L 274.334834 320.806631 
L 283.179076 317.114442 
L 295.319959 310.376443 
L 306.971006 303.464959 
L 313.768139 299.944374 
L 320.912799 296.806772 
L 327.503374 294.564122 
L 393.837946 276.461469 
L 401.524506 274.26725 
L 412.406247 270.797716 
L 423.41723 266.930568 
L 434.902107 261.830501 
L 449.27543 254.291408 
L 460.176123 247.758059 
L 472.522832 238.646076 
L 483.049865 229.966091 
L 487.523717 225.942488 
L 491.117619 222.514747 
L 494.049903 219.549348 
L 497.550021 215.938037 
L 500.768719 212.452943 
L 504.047166 208.784465 
L 507.375797 204.837566 
L 510.528075 201.083195 
L 513.849374 197.012044 
L 515.612859 194.855759 
L 516.957533 193.219279 
L 517.493236 192.563099 
L 533.008439 173.637697 
L 534.302129 172.111695 
L 535.730118 170.321642 
L 536.872494 168.883751 
L 538.715428 166.734774 
L 539.908224 165.23819 
L 541.369967 163.521431 
L 542.848597 161.877977 
L 544.239511 160.327902 
L 545.987278 158.669581 
L 547.819096 156.967183 
L 549.732348 155.283474 
L 550.892041 154.300105 
L 551.653411 153.637644 
L 552.728403 152.722436 
L 553.939757 151.73286 
L 566.187035 164.801699 
L 577.151875 176.774644 
L 584.39204 187.539122 
L 591.77767 199.495286 
L 597.343571 212.56201 
L 600.645915 224.683355 
L 602.714457 237.184583 
L 603.342483 248.929181 
L 602.734123 258.212091 
L 601.50983 268.63212 
L 598.641405 280.379497 
L 594.511829 291.137245 
L 591.85228 297.446311 
L 587.100983 306.384907 
L 579.876153 316.727055 
L 570.557961 327.771745 
" style="stroke:#ffffff;stroke-linejoin:miter;stroke-width:2;"/>
   </g>
  </g>
 </g>
 <defs>
  <clipPath id="pa24ce0576d">
   <rect height="543.6" width="558" x="90" y="86.4"/>
  </clipPath>
 </defs>
</svg>
