<?xml version="1.0" encoding="utf-8" standalone="no"?>
<!DOCTYPE svg PUBLIC "-//W3C//DTD SVG 1.1//EN"
  "http://www.w3.org/Graphics/SVG/1.1/DTD/svg11.dtd">
<!-- Created with matplotlib (https://matplotlib.org/) -->
<svg height="720pt" version="1.1" viewBox="0 0 720 720" width="720pt" xmlns="http://www.w3.org/2000/svg" xmlns:xlink="http://www.w3.org/1999/xlink">
 <metadata>
  <rdf:RDF xmlns:cc="http://creativecommons.org/ns#" xmlns:dc="http://purl.org/dc/elements/1.1/" xmlns:rdf="http://www.w3.org/1999/02/22-rdf-syntax-ns#">
   <cc:Work>
    <dc:type rdf:resource="http://purl.org/dc/dcmitype/StillImage"/>
    <dc:date>2021-05-07T11:03:00.329634</dc:date>
    <dc:format>image/svg+xml</dc:format>
    <dc:creator>
     <cc:Agent>
      <dc:title>Matplotlib v3.3.3, https://matplotlib.org/</dc:title>
     </cc:Agent>
    </dc:creator>
   </cc:Work>
  </rdf:RDF>
 </metadata>
 <defs>
  <style type="text/css">*{stroke-linecap:butt;stroke-linejoin:round;}</style>
 </defs>
 <g id="figure_1">
  <g id="patch_1">
   <path d="M 0 720 
L 720 720 
L 720 0 
L 0 0 
z
" style="fill:none;"/>
  </g>
  <g id="axes_1">
   <g id="patch_2">
    <path clip-path="url(#pb20ab167f2)" d="M 590.753641 309.933422 
L 590.662324 453.336972 
L 590.550308 499.530594 
L 575.966706 499.555579 
L 561.380192 499.580768 
L 546.295642 499.605766 
L 543.762528 499.574833 
L 531.940536 499.632213 
L 507.162315 499.676188 
L 476.830658 499.730775 
L 442.814233 499.793484 
L 417.036545 499.84182 
L 392.901672 500.137855 
L 390.828438 500.266017 
L 389.515599 500.547175 
L 387.054575 501.604672 
L 385.83622 502.535963 
L 384.665003 503.683937 
L 383.657896 504.800609 
L 382.650992 506.10313 
L 381.878334 507.188403 
L 381.293351 508.335235 
L 380.716177 510.153801 
L 376.719776 502.494682 
L 375.033903 498.757388 
L 373.911959 495.96389 
L 372.846432 492.887796 
L 371.691286 488.837739 
L 370.981276 485.501358 
L 370.476476 482.580061 
L 370.090003 479.931261 
L 369.880152 476.892507 
L 367.07275 476.216661 
L 349.765965 476.250152 
L 266.544266 445.015228 
L 265.080234 445.501328 
L 263.647089 445.812365 
L 262.154016 445.946116 
L 255.653268 445.915139 
L 241.21827 445.85624 
L 228.935491 445.801593 
L 227.591308 445.688835 
L 226.590949 445.470764 
L 225.473659 445.032824 
L 224.422853 444.462661 
L 223.505511 443.958271 
L 222.465506 443.569627 
L 220.139035 442.566597 
L 218.304394 441.645882 
L 217.336913 441.031563 
L 216.035371 439.845623 
L 214.933699 438.527224 
L 213.297367 436.153369 
L 207.219998 427.669537 
L 202.07761 420.548496 
L 195.975814 411.960955 
L 192.13555 406.554154 
L 187.193339 399.652917 
L 182.863678 393.477339 
L 180.392081 389.652565 
L 177.953716 385.739634 
L 175.081164 381.167322 
L 173.410776 378.265324 
L 171.917189 375.561915 
L 170.880476 372.878706 
L 170.344453 370.722727 
L 169.974693 368.170212 
L 169.804752 365.485227 
L 169.800891 362.271583 
L 169.965277 360.334285 
L 170.396287 358.352365 
L 171.193134 356.514481 
L 172.224729 354.927532 
L 175.971603 351.16647 
L 164.913537 347.719449 
L 163.414705 346.70292 
L 162.220547 346.087439 
L 159.832529 345.103703 
L 151.662199 342.061922 
L 147.708017 342.072457 
L 147.246359 207.201115 
L 161.282778 206.913559 
L 176.316337 206.246199 
L 196.327161 206.535812 
L 250.712475 206.453333 
L 355.816466 206.593576 
L 370.103516 207.488418 
L 388.886296 208.531078 
L 590.65607 209.674811 
L 590.753641 309.933422 
" style="stroke:#ffffff;stroke-linejoin:miter;stroke-width:2;"/>
   </g>
  </g>
 </g>
 <defs>
  <clipPath id="pb20ab167f2">
   <rect height="543.6" width="558" x="90" y="86.4"/>
  </clipPath>
 </defs>
</svg>
