<?xml version="1.0" encoding="utf-8" standalone="no"?>
<!DOCTYPE svg PUBLIC "-//W3C//DTD SVG 1.1//EN"
  "http://www.w3.org/Graphics/SVG/1.1/DTD/svg11.dtd">
<!-- Created with matplotlib (https://matplotlib.org/) -->
<svg height="720pt" version="1.1" viewBox="0 0 720 720" width="720pt" xmlns="http://www.w3.org/2000/svg" xmlns:xlink="http://www.w3.org/1999/xlink">
 <metadata>
  <rdf:RDF xmlns:cc="http://creativecommons.org/ns#" xmlns:dc="http://purl.org/dc/elements/1.1/" xmlns:rdf="http://www.w3.org/1999/02/22-rdf-syntax-ns#">
   <cc:Work>
    <dc:type rdf:resource="http://purl.org/dc/dcmitype/StillImage"/>
    <dc:date>2021-05-07T11:02:58.463885</dc:date>
    <dc:format>image/svg+xml</dc:format>
    <dc:creator>
     <cc:Agent>
      <dc:title>Matplotlib v3.3.3, https://matplotlib.org/</dc:title>
     </cc:Agent>
    </dc:creator>
   </cc:Work>
  </rdf:RDF>
 </metadata>
 <defs>
  <style type="text/css">*{stroke-linecap:butt;stroke-linejoin:round;}</style>
 </defs>
 <g id="figure_1">
  <g id="patch_1">
   <path d="M 0 720 
L 720 720 
L 720 0 
L 0 0 
z
" style="fill:none;"/>
  </g>
  <g id="axes_1">
   <g id="patch_2">
    <path clip-path="url(#p058bd05011)" d="M 489.920272 115.880048 
L 538.811436 118.291445 
L 541.419042 118.45327 
L 544.012215 118.680506 
L 546.586098 118.972746 
L 549.13591 119.329435 
L 551.888563 119.792219 
L 554.600621 120.330115 
L 557.266075 120.941914 
L 559.878961 121.626254 
L 562.433466 122.381625 
L 564.92393 123.206323 
L 567.344753 124.098527 
L 569.690578 125.056242 
L 571.956155 126.077337 
L 574.136462 127.159542 
L 576.226627 128.300437 
L 578.222007 129.497478 
L 580.118142 130.748004 
L 581.910813 132.049234 
L 583.546049 133.356258 
L 585.170046 134.792089 
L 584.830243 135.886415 
L 583.658448 139.660191 
L 589.21632 149.139996 
L 589.218526 153.660536 
L 597.803634 158.342837 
L 600.718699 170.418644 
L 607.266249 170.407673 
L 616.170575 170.401334 
L 612.476234 186.009897 
L 606.654142 197.933526 
L 599.882189 208.835828 
L 593.306238 216.20652 
L 588.389757 221.03725 
L 583.944775 225.161971 
L 579.836527 228.171947 
L 575.054862 231.739337 
L 563.87532 238.87425 
L 489.732528 283.705296 
L 489.058829 284.112709 
L 443.457028 311.692729 
L 440.263929 313.624098 
L 365.096652 359.096633 
L 344.814858 372.164063 
L 333.709082 379.986655 
L 322.925791 387.898133 
L 311.499876 397.320569 
L 297.982796 408.876395 
L 243.705817 456.515065 
L 170.894343 520.440564 
L 166.069737 524.974388 
L 162.947391 528.334896 
L 157.09789 535.276931 
L 152.643126 541.510402 
L 149.948378 546.716027 
L 146.31772 554.935222 
L 144.095 562.263645 
L 142.812672 570.687439 
L 142.574249 579.50297 
L 144.150706 600.514248 
L 123.730001 600.519952 
L 123.754662 599.582765 
L 121.829425 599.588504 
L 121.839623 595.766122 
L 121.876408 581.989184 
L 121.961717 579.01202 
L 122.635687 555.491775 
L 123.433355 547.455862 
L 123.482762 546.958174 
L 124.001405 544.28064 
L 124.638724 541.611815 
L 125.394269 538.953485 
L 126.267542 536.307435 
L 127.257974 533.67544 
L 128.364899 531.059249 
L 129.587579 528.460614 
L 129.607605 528.42013 
L 131.519883 524.552573 
L 131.540877 524.510128 
L 131.560059 524.570605 
L 141.993374 503.438944 
L 142.24348 502.932527 
L 142.504298 502.404419 
L 153.192584 480.770498 
L 155.027816 477.055945 
L 158.593994 469.838523 
L 158.892125 469.233216 
L 159.18166 468.640853 
L 159.371705 468.249555 
L 159.628298 467.718069 
L 159.901877 467.147328 
L 160.162064 466.60054 
L 160.638936 465.587791 
L 160.850978 465.133431 
L 161.107037 464.580752 
L 161.393195 463.958215 
L 161.607331 463.488871 
L 161.950946 462.729452 
L 162.271896 462.012938 
L 162.578589 461.320342 
L 162.71814 461.00361 
L 162.743082 460.946933 
L 162.771049 460.883276 
L 162.776343 460.871145 
L 162.778552 460.866136 
L 162.822462 460.766007 
L 162.880907 460.632588 
L 162.944631 460.486782 
L 163.011818 460.332776 
L 163.226447 459.838469 
L 163.247864 459.788913 
L 163.328451 459.6022 
L 163.35911 459.531175 
L 163.406693 459.420524 
L 163.483437 459.241967 
L 163.60492 458.958139 
L 163.636894 458.883394 
L 163.663605 458.820718 
L 163.675311 458.793329 
L 163.690451 458.757724 
L 163.70848 458.715456 
L 163.728097 458.669293 
L 163.77766 458.552811 
L 163.82987 458.429738 
L 163.830415 458.428502 
L 163.831065 458.426867 
L 163.831746 458.425356 
L 163.832321 458.423898 
L 163.957355 458.128497 
L 164.024583 457.969121 
L 164.075023 457.849327 
L 164.323438 457.256122 
L 164.322604 457.256131 
L 164.399691 457.07056 
L 164.474236 456.890607 
L 165.828602 453.53443 
L 167.254986 449.802096 
L 168.601542 446.059712 
L 169.868025 442.307843 
L 171.054269 438.547081 
L 187.044604 386.048033 
L 182.324949 386.061089 
L 197.952528 334.736798 
L 202.525935 335.210055 
L 208.729367 314.871354 
L 208.77717 314.871233 
L 209.016434 314.010484 
L 209.271192 313.094034 
L 209.422306 312.63517 
L 210.469106 309.166036 
L 210.483183 309.120281 
L 213.379076 299.624773 
L 217.957859 284.612665 
L 218.956083 281.34014 
L 219.977147 278.184215 
L 221.008837 275.30709 
L 222.133662 272.441828 
L 223.351203 269.589453 
L 224.661066 266.750974 
L 226.062738 263.927415 
L 227.555752 261.119784 
L 237.821431 242.445861 
L 238.107027 241.924506 
L 244.094283 231.033333 
L 244.10025 231.022475 
L 249.498144 221.206167 
L 251.173674 218.256572 
L 252.950043 215.327056 
L 254.82654 212.418787 
L 256.802409 209.532921 
L 258.87688 206.670608 
L 261.049121 203.832988 
L 263.318269 201.021211 
L 265.683401 198.23638 
L 268.14361 195.479611 
L 270.69788 192.752008 
L 273.345213 190.054649 
L 276.08455 187.388623 
L 278.914814 184.754989 
L 281.834854 182.1548 
L 284.84352 179.58909 
L 285.921593 178.703318 
L 289.212779 176.052133 
L 292.598987 173.441822 
L 296.078702 170.873546 
L 298.075813 169.457857 
L 300.972749 167.449524 
L 302.573732 166.370946 
L 306.597127 163.747477 
L 310.849387 161.090724 
L 323.843285 153.044117 
L 378.659788 119.09913 
L 380.34574 120.022008 
L 381.983802 120.91868 
L 386.589083 123.43965 
L 368.125451 134.87401 
L 368.135326 135.211271 
L 377.960698 135.19589 
L 409.044632 115.942867 
L 419.084212 115.942902 
L 420.449751 115.942687 
L 434.879939 115.922211 
L 446.895041 115.912786 
L 462.364213 115.900856 
L 474.635977 115.891514 
L 489.920272 115.880048 
" style="stroke:#ffffff;stroke-linejoin:miter;stroke-width:2;"/>
   </g>
  </g>
 </g>
 <defs>
  <clipPath id="p058bd05011">
   <rect height="543.6" width="558" x="90" y="86.4"/>
  </clipPath>
 </defs>
</svg>
