<?xml version="1.0" encoding="utf-8" standalone="no"?>
<!DOCTYPE svg PUBLIC "-//W3C//DTD SVG 1.1//EN"
  "http://www.w3.org/Graphics/SVG/1.1/DTD/svg11.dtd">
<!-- Created with matplotlib (https://matplotlib.org/) -->
<svg height="720pt" version="1.1" viewBox="0 0 720 720" width="720pt" xmlns="http://www.w3.org/2000/svg" xmlns:xlink="http://www.w3.org/1999/xlink">
 <metadata>
  <rdf:RDF xmlns:cc="http://creativecommons.org/ns#" xmlns:dc="http://purl.org/dc/elements/1.1/" xmlns:rdf="http://www.w3.org/1999/02/22-rdf-syntax-ns#">
   <cc:Work>
    <dc:type rdf:resource="http://purl.org/dc/dcmitype/StillImage"/>
    <dc:date>2021-05-07T11:03:01.092485</dc:date>
    <dc:format>image/svg+xml</dc:format>
    <dc:creator>
     <cc:Agent>
      <dc:title>Matplotlib v3.3.3, https://matplotlib.org/</dc:title>
     </cc:Agent>
    </dc:creator>
   </cc:Work>
  </rdf:RDF>
 </metadata>
 <defs>
  <style type="text/css">*{stroke-linecap:butt;stroke-linejoin:round;}</style>
 </defs>
 <g id="figure_1">
  <g id="patch_1">
   <path d="M 0 720 
L 720 720 
L 720 0 
L 0 0 
z
" style="fill:none;"/>
  </g>
  <g id="axes_1">
   <g id="patch_2">
    <path clip-path="url(#p64f1aa193a)" d="M 396.498861 190.518069 
L 459.084129 191.06944 
L 459.072223 211.976942 
L 458.350876 219.318104 
L 457.964081 221.420901 
L 454.782675 229.09332 
L 451.12427 233.703275 
L 446.116732 238.348736 
L 437.582453 245.87498 
L 385.682086 288.143154 
L 379.031657 295.617946 
L 374.709726 304.269181 
L 373.341807 312.874413 
L 373.541152 336.637817 
L 373.642111 342.24981 
L 373.710689 344.189842 
L 373.804426 345.547346 
L 374.023999 347.081035 
L 374.290725 348.636047 
L 374.793215 350.684742 
L 375.280111 352.400255 
L 375.751465 353.733212 
L 376.442136 355.41626 
L 377.212333 356.971445 
L 378.155565 358.625415 
L 378.957409 359.798038 
L 380.089481 361.341 
L 381.091884 362.50725 
L 382.460028 363.963918 
L 383.718115 365.198424 
L 385.558207 366.76631 
L 387.288245 368.161407 
L 389.218458 369.499232 
L 390.885716 370.548763 
L 392.238436 371.363712 
L 394.62482 372.735382 
L 416.370198 385.098356 
L 452.496059 405.638145 
L 478.974068 420.693674 
L 494.493742 429.518719 
L 496.828113 430.846124 
L 506.575067 436.383011 
L 514.08034 440.651434 
L 516.115429 441.812273 
L 518.158576 442.959872 
L 519.755157 443.876154 
L 522.685338 445.537609 
L 524.164586 446.338999 
L 526.084165 447.309716 
L 527.662036 448.074868 
L 529.68348 448.982877 
L 531.65824 449.820525 
L 533.723401 450.63154 
L 536.162584 451.526536 
L 538.264151 452.22349 
L 539.96583 452.737707 
L 542.129871 453.3542 
L 543.427815 453.677372 
L 544.278665 453.894551 
L 544.610858 453.955343 
L 546.565965 454.372862 
L 547.524798 454.634906 
L 548.483732 454.782509 
L 550.630846 455.143223 
L 551.902465 455.32368 
L 554.487399 455.700939 
L 556.905631 455.914604 
L 559.136244 456.144534 
L 560.678879 456.292406 
L 562.678359 456.520261 
L 573.511903 457.527031 
L 591.018307 458.9802 
L 590.316945 473.984646 
L 590.439102 554.641196 
L 146.981693 555.071183 
L 147.006839 491.878055 
L 150.567854 461.973221 
L 150.531368 437.286912 
L 150.490467 430.673346 
L 150.493098 421.984029 
L 150.645437 417.836874 
L 149.060273 289.360949 
L 149.123244 256.562778 
L 149.026086 233.088985 
L 149.000895 204.459768 
L 148.989014 190.965057 
L 151.447161 190.968104 
L 200.303686 190.941771 
L 203.600376 190.939479 
L 203.867883 190.939341 
L 203.869809 190.939341 
L 215.798321 190.933524 
L 253.641479 190.913647 
L 271.600751 190.957027 
L 296.154375 161.328817 
L 330.38314 175.866435 
L 342.160608 180.848015 
L 351.975365 184.40681 
L 360.473813 186.522861 
L 369.452955 188.384548 
L 378.004797 189.538043 
L 384.739472 190.248431 
L 396.498861 190.518069 
" style="stroke:#ffffff;stroke-linejoin:miter;stroke-width:2;"/>
   </g>
  </g>
 </g>
 <defs>
  <clipPath id="p64f1aa193a">
   <rect height="543.6" width="558" x="90" y="86.4"/>
  </clipPath>
 </defs>
</svg>
