<?xml version="1.0" encoding="utf-8" standalone="no"?>
<!DOCTYPE svg PUBLIC "-//W3C//DTD SVG 1.1//EN"
  "http://www.w3.org/Graphics/SVG/1.1/DTD/svg11.dtd">
<!-- Created with matplotlib (https://matplotlib.org/) -->
<svg height="720pt" version="1.1" viewBox="0 0 720 720" width="720pt" xmlns="http://www.w3.org/2000/svg" xmlns:xlink="http://www.w3.org/1999/xlink">
 <metadata>
  <rdf:RDF xmlns:cc="http://creativecommons.org/ns#" xmlns:dc="http://purl.org/dc/elements/1.1/" xmlns:rdf="http://www.w3.org/1999/02/22-rdf-syntax-ns#">
   <cc:Work>
    <dc:type rdf:resource="http://purl.org/dc/dcmitype/StillImage"/>
    <dc:date>2021-05-28T08:56:51.452384</dc:date>
    <dc:format>image/svg+xml</dc:format>
    <dc:creator>
     <cc:Agent>
      <dc:title>Matplotlib v3.3.3, https://matplotlib.org/</dc:title>
     </cc:Agent>
    </dc:creator>
   </cc:Work>
  </rdf:RDF>
 </metadata>
 <defs>
  <style type="text/css">*{stroke-linecap:butt;stroke-linejoin:round;}</style>
 </defs>
 <g id="figure_1">
  <g id="patch_1">
   <path d="M 0 720 
L 720 720 
L 720 0 
L 0 0 
z
" style="fill:none;"/>
  </g>
  <g id="axes_1">
   <g id="patch_2">
    <path clip-path="url(#p613ed36975)" d="M 471.637183 344.477763 
L 486.32466 360.552276 
L 495.00842 369.140815 
L 502.800805 375.322026 
L 511.371868 380.928519 
L 519.274761 385.503945 
L 524.34433 388.725301 
L 529.530771 392.899733 
L 534.717389 397.655184 
L 541.144696 404.732617 
L 546.444941 412.160568 
L 552.704025 421.910942 
L 561.106011 435.841144 
L 569.338762 449.771805 
L 577.066979 463.765342 
L 595.182567 499.627445 
L 599.600449 507.066772 
L 604.036597 513.548262 
L 609.308772 520.398721 
L 612.63312 523.431165 
L 617.477037 527.539242 
L 620.4762 529.790217 
L 620.467882 540.818094 
L 622.038208 540.801536 
L 622.018093 543.505397 
L 619.260511 543.501814 
L 609.775171 543.387853 
L 600.923286 543.40011 
L 598.876927 543.912926 
L 596.9927 544.715431 
L 595.544555 544.947709 
L 593.542261 544.657859 
L 589.036709 544.66424 
L 588.105797 542.646314 
L 579.54283 542.658664 
L 574.385194 542.573656 
L 571.595495 542.475712 
L 570.609432 542.4879 
L 569.824451 542.936162 
L 568.530752 537.016773 
L 565.876586 529.222753 
L 563.768738 525.056802 
L 556.361207 511.093219 
L 546.671682 532.558407 
L 542.934498 537.676884 
L 539.173171 540.594353 
L 535.438974 542.027557 
L 532.478933 542.260722 
L 523.05799 542.351603 
L 492.696173 541.909284 
L 460.125643 541.689671 
L 417.644263 541.175682 
L 404.380485 541.069087 
L 402.887823 540.546743 
L 402.038714 540.153294 
L 400.956693 539.449828 
L 400.14854 538.802253 
L 398.528448 538.804673 
L 395.132453 538.822631 
L 347.167507 539.659829 
L 298.571056 540.513168 
L 295.858729 540.560558 
L 268.645575 541.045243 
L 263.090156 541.142046 
L 239.189516 541.568174 
L 222.048974 541.875076 
L 202.439711 542.191134 
L 200.103845 542.227517 
L 198.812055 542.247836 
L 194.851764 542.230734 
L 190.930517 536.934409 
L 181.374034 523.946529 
L 146.708548 476.995955 
L 142.596914 470.608683 
L 137.393669 461.457421 
L 133.280527 452.994884 
L 129.249483 442.110842 
L 126.813313 434.508223 
L 124.124078 424.658001 
L 121.937408 414.287493 
L 119.832345 400.803644 
L 118.454617 387.120004 
L 115.961792 358.8929 
L 148.428907 346.782417 
L 152.793184 345.674592 
L 157.983781 345.294685 
L 173.188869 345.143031 
L 222.369104 345.456325 
L 229.601552 345.194739 
L 233.560528 344.618257 
L 237.950075 342.989281 
L 241.829387 340.310219 
L 245.081239 337.228396 
L 248.802359 332.20428 
L 265.260171 304.176833 
L 303.065033 238.674701 
L 310.416478 226.14328 
L 315.791471 216.823433 
L 318.394812 211.961418 
L 321.389823 205.884536 
L 323.852093 199.158529 
L 325.306536 194.183618 
L 330.702581 171.452291 
L 345.295908 187.453144 
L 372.164271 214.489181 
L 375.267964 218.153253 
L 378.995333 222.784761 
L 382.645349 227.976408 
L 387.577229 236.045065 
L 393.363545 245.871818 
L 400.586566 258.015476 
L 406.216907 266.642928 
L 411.847136 275.190508 
L 417.540692 283.042265 
L 427.529691 295.920948 
L 443.913132 314.566276 
L 471.637183 344.477763 
" style="fill:#1a1a1a;stroke:#ffffff;stroke-linejoin:miter;stroke-width:4;"/>
   </g>
  </g>
 </g>
 <defs>
  <clipPath id="p613ed36975">
   <rect height="543.6" width="558" x="90" y="86.4"/>
  </clipPath>
 </defs>
</svg>
