<?xml version="1.0" encoding="utf-8" standalone="no"?>
<!DOCTYPE svg PUBLIC "-//W3C//DTD SVG 1.1//EN"
  "http://www.w3.org/Graphics/SVG/1.1/DTD/svg11.dtd">
<!-- Created with matplotlib (https://matplotlib.org/) -->
<svg height="720pt" version="1.1" viewBox="0 0 720 720" width="720pt" xmlns="http://www.w3.org/2000/svg" xmlns:xlink="http://www.w3.org/1999/xlink">
 <metadata>
  <rdf:RDF xmlns:cc="http://creativecommons.org/ns#" xmlns:dc="http://purl.org/dc/elements/1.1/" xmlns:rdf="http://www.w3.org/1999/02/22-rdf-syntax-ns#">
   <cc:Work>
    <dc:type rdf:resource="http://purl.org/dc/dcmitype/StillImage"/>
    <dc:date>2021-05-07T11:03:02.262777</dc:date>
    <dc:format>image/svg+xml</dc:format>
    <dc:creator>
     <cc:Agent>
      <dc:title>Matplotlib v3.3.3, https://matplotlib.org/</dc:title>
     </cc:Agent>
    </dc:creator>
   </cc:Work>
  </rdf:RDF>
 </metadata>
 <defs>
  <style type="text/css">*{stroke-linecap:butt;stroke-linejoin:round;}</style>
 </defs>
 <g id="figure_1">
  <g id="patch_1">
   <path d="M 0 720 
L 720 720 
L 720 0 
L 0 0 
z
" style="fill:none;"/>
  </g>
  <g id="axes_1">
   <g id="patch_2">
    <path clip-path="url(#p7c88943f25)" d="M 371.232245 517.726543 
L 369.315308 532.570725 
L 351.512065 530.681182 
L 340.494827 529.372087 
L 338.461444 529.07581 
L 336.892652 528.883534 
L 334.624217 528.584558 
L 332.164981 528.306731 
L 329.536217 527.816184 
L 328.243036 527.581537 
L 326.059515 527.112504 
L 325.084322 526.920578 
L 324.10923 526.579844 
L 322.120973 526.036947 
L 321.783147 525.957901 
L 320.91787 525.675505 
L 319.597918 525.255287 
L 317.397183 524.453667 
L 315.666651 523.785035 
L 313.52945 522.878792 
L 311.048908 521.715036 
L 308.94873 520.66048 
L 306.940486 519.571295 
L 304.884766 518.390618 
L 303.28014 517.395698 
L 301.328013 516.133483 
L 299.823682 515.091443 
L 296.843818 512.931068 
L 295.220164 511.739635 
L 293.142374 510.247422 
L 291.072779 508.737992 
L 283.440246 503.187801 
L 273.528022 495.988235 
L 271.154069 494.262223 
L 255.371243 482.787095 
L 228.444271 463.210524 
L 191.705859 436.502819 
L 169.591765 420.427353 
L 167.164918 418.643783 
L 165.789262 417.584113 
L 164.093734 416.219417 
L 162.130791 414.479855 
L 160.371419 412.665822 
L 158.500126 410.627114 
L 157.220707 409.021897 
L 155.829365 407.127804 
L 154.809965 405.61134 
L 153.658697 403.605041 
L 152.843257 402.080288 
L 151.884031 399.929647 
L 151.100775 397.907453 
L 150.398394 395.719 
L 149.919047 393.985768 
L 149.423895 391.755102 
L 148.912885 389.091203 
L 148.641636 387.069234 
L 148.41834 385.074992 
L 148.323014 383.309841 
L 148.253273 380.787234 
L 148.150602 373.490011 
L 147.947877 342.590667 
L 149.33899 331.401361 
L 153.734204 320.152236 
L 160.497398 310.43283 
L 213.27779 255.471899 
L 221.956776 245.68559 
L 227.049222 239.645139 
L 230.769659 233.650855 
L 234.00501 223.674477 
L 234.398363 220.940229 
L 235.131941 211.394581 
L 235.144049 184.208742 
L 590.052123 183.829275 
L 586.886553 211.867339 
L 582.187696 238.174237 
L 578.093867 255.734022 
L 573.353168 267.653539 
L 569.030069 275.97894 
L 564.209508 283.339612 
L 555.734357 292.801664 
L 534.862924 313.238526 
L 483.444608 361.827319 
L 426.74154 415.591458 
L 410.146254 432.724334 
L 399.03859 447.36559 
L 390.005342 462.75517 
L 382.708173 477.412777 
L 377.841517 490.78897 
L 374.190002 503.799369 
L 371.232245 517.726543 
" style="stroke:#ffffff;stroke-linejoin:miter;stroke-width:2;"/>
   </g>
  </g>
 </g>
 <defs>
  <clipPath id="p7c88943f25">
   <rect height="543.6" width="558" x="90" y="86.4"/>
  </clipPath>
 </defs>
</svg>
