<?xml version="1.0" encoding="utf-8" standalone="no"?>
<!DOCTYPE svg PUBLIC "-//W3C//DTD SVG 1.1//EN"
  "http://www.w3.org/Graphics/SVG/1.1/DTD/svg11.dtd">
<!-- Created with matplotlib (https://matplotlib.org/) -->
<svg height="720pt" version="1.1" viewBox="0 0 720 720" width="720pt" xmlns="http://www.w3.org/2000/svg" xmlns:xlink="http://www.w3.org/1999/xlink">
 <metadata>
  <rdf:RDF xmlns:cc="http://creativecommons.org/ns#" xmlns:dc="http://purl.org/dc/elements/1.1/" xmlns:rdf="http://www.w3.org/1999/02/22-rdf-syntax-ns#">
   <cc:Work>
    <dc:type rdf:resource="http://purl.org/dc/dcmitype/StillImage"/>
    <dc:date>2021-05-07T11:03:06.499697</dc:date>
    <dc:format>image/svg+xml</dc:format>
    <dc:creator>
     <cc:Agent>
      <dc:title>Matplotlib v3.3.3, https://matplotlib.org/</dc:title>
     </cc:Agent>
    </dc:creator>
   </cc:Work>
  </rdf:RDF>
 </metadata>
 <defs>
  <style type="text/css">*{stroke-linecap:butt;stroke-linejoin:round;}</style>
 </defs>
 <g id="figure_1">
  <g id="patch_1">
   <path d="M 0 720 
L 720 720 
L 720 0 
L 0 0 
z
" style="fill:none;"/>
  </g>
  <g id="axes_1">
   <g id="patch_2">
    <path clip-path="url(#pe7bd8c873c)" d="M 234.074036 165.335427 
L 309.01495 165.266207 
L 362.174736 163.791498 
L 484.387757 163.940005 
L 519.650829 163.920524 
L 536.266675 165.384171 
L 550.9158 165.387972 
L 579.96105 165.44075 
L 594.806477 165.553751 
L 615.326155 165.511386 
L 615.091883 293.349004 
L 615.007792 363.9576 
L 615.050798 420.058061 
L 615.078009 430.891892 
L 614.854278 435.973867 
L 614.061892 440.625864 
L 613.266849 444.223235 
L 612.751763 446.285886 
L 612.001258 448.780577 
L 610.308798 452.859647 
L 608.42691 456.843332 
L 604.795079 463.218126 
L 572.349294 520.157255 
L 558.241413 545.054181 
L 555.754869 548.931134 
L 552.535597 553.405499 
L 546.897924 559.672622 
L 530.050595 577.504653 
L 483.248283 550.760944 
L 439.327024 525.777044 
L 415.734248 512.781666 
L 392.515442 499.574738 
L 361.586923 482.257351 
L 344.045219 472.425081 
L 340.735425 470.541186 
L 335.065755 467.533009 
L 332.466857 466.251879 
L 329.388803 464.810013 
L 323.438695 462.294581 
L 317.207528 460.050545 
L 311.720843 458.369935 
L 287.497041 451.970748 
L 284.994498 451.365183 
L 282.07517 450.580492 
L 272.214329 448.07259 
L 267.227206 446.757467 
L 261.704994 445.350664 
L 254.917832 443.644353 
L 249.030606 442.122039 
L 243.215913 440.676675 
L 240.442647 439.985054 
L 237.377751 439.317662 
L 234.361733 438.743478 
L 230.64078 438.171466 
L 227.819641 437.73673 
L 224.342314 437.350708 
L 220.889504 437.034612 
L 217.899037 436.880454 
L 214.543073 436.774847 
L 212.087758 436.735752 
L 208.927621 436.745515 
L 205.403137 436.849766 
L 201.708847 437.071233 
L 197.504278 437.36432 
L 193.470524 437.866919 
L 189.777233 438.41515 
L 187.052769 438.868336 
L 184.817572 439.272024 
L 182.339729 439.816496 
L 179.25467 440.526224 
L 176.631342 441.18786 
L 173.595326 442.037475 
L 173.35858 442.107449 
L 164.420946 381.232566 
L 163.07805 372.727782 
L 161.551634 364.254837 
L 159.842403 355.817787 
L 157.951203 347.42069 
L 155.878894 339.067587 
L 153.626493 330.762471 
L 151.195078 322.509337 
L 148.58579 314.312131 
L 134.707116 272.295161 
L 132.982123 266.855161 
L 131.387629 261.37443 
L 129.924578 255.856207 
L 128.593821 250.303711 
L 127.396163 244.720213 
L 126.332268 239.108965 
L 125.402802 233.473268 
L 124.608306 227.816424 
L 123.949228 222.141749 
L 123.425984 216.452562 
L 123.038852 210.752227 
L 122.788093 205.044063 
L 122.673845 199.331419 
L 122.696184 193.617647 
L 122.855076 187.906112 
L 123.150457 182.200134 
L 123.582138 176.503081 
L 124.149884 170.818287 
L 124.853351 165.149074 
L 125.692148 159.498794 
L 126.665777 153.870736 
L 127.77366 148.268223 
L 129.015157 142.694512 
L 129.942196 138.895347 
L 132.248697 139.001377 
L 136.632866 139.299069 
L 141.006985 139.7223 
L 145.367509 140.270752 
L 149.710957 140.943948 
L 154.033862 141.741378 
L 158.332756 142.66241 
L 162.604204 143.706267 
L 166.844768 144.872156 
L 171.051044 146.159113 
L 175.219704 147.566126 
L 188.465416 152.248918 
L 191.397659 153.252509 
L 194.349033 154.196715 
L 197.318405 155.081162 
L 200.304578 155.905493 
L 203.306371 156.669397 
L 206.322589 157.372563 
L 209.352051 158.014711 
L 212.393514 158.595595 
L 215.445814 159.11495 
L 218.507725 159.572623 
L 221.578034 159.968381 
L 224.655499 160.302103 
L 227.738942 160.573652 
L 230.827088 160.782888 
L 234.059196 160.931495 
L 234.059202 160.933603 
L 234.058504 163.688881 
L 234.074036 165.335427 
" style="stroke:#ffffff;stroke-linejoin:miter;stroke-width:2;"/>
   </g>
  </g>
 </g>
 <defs>
  <clipPath id="pe7bd8c873c">
   <rect height="543.6" width="558" x="90" y="86.4"/>
  </clipPath>
 </defs>
</svg>
