<?xml version="1.0" encoding="utf-8" standalone="no"?>
<!DOCTYPE svg PUBLIC "-//W3C//DTD SVG 1.1//EN"
  "http://www.w3.org/Graphics/SVG/1.1/DTD/svg11.dtd">
<!-- Created with matplotlib (https://matplotlib.org/) -->
<svg height="720pt" version="1.1" viewBox="0 0 720 720" width="720pt" xmlns="http://www.w3.org/2000/svg" xmlns:xlink="http://www.w3.org/1999/xlink">
 <metadata>
  <rdf:RDF xmlns:cc="http://creativecommons.org/ns#" xmlns:dc="http://purl.org/dc/elements/1.1/" xmlns:rdf="http://www.w3.org/1999/02/22-rdf-syntax-ns#">
   <cc:Work>
    <dc:type rdf:resource="http://purl.org/dc/dcmitype/StillImage"/>
    <dc:date>2021-05-28T08:56:47.716082</dc:date>
    <dc:format>image/svg+xml</dc:format>
    <dc:creator>
     <cc:Agent>
      <dc:title>Matplotlib v3.3.3, https://matplotlib.org/</dc:title>
     </cc:Agent>
    </dc:creator>
   </cc:Work>
  </rdf:RDF>
 </metadata>
 <defs>
  <style type="text/css">*{stroke-linecap:butt;stroke-linejoin:round;}</style>
 </defs>
 <g id="figure_1">
  <g id="patch_1">
   <path d="M 0 720 
L 720 720 
L 720 0 
L 0 0 
z
" style="fill:none;"/>
  </g>
  <g id="axes_1">
   <g id="patch_2">
    <path clip-path="url(#p40895ba103)" d="M 573.806549 132.838888 
L 566.988819 203.703745 
L 566.732836 207.49071 
L 566.371608 210.990945 
L 563.994432 220.288175 
L 563.304141 223.432328 
L 562.522282 227.421199 
L 561.694727 231.305066 
L 560.641842 235.304306 
L 559.688447 238.92568 
L 558.827256 242.10968 
L 557.875847 245.468601 
L 556.983917 248.617593 
L 556.136595 251.609121 
L 555.353704 254.373246 
L 554.431486 257.137298 
L 553.321902 260.356173 
L 552.308657 263.260165 
L 551.307662 266.129168 
L 550.416523 268.683279 
L 549.528618 271.041418 
L 548.56075 273.455532 
L 547.65744 275.708695 
L 546.787798 277.877887 
L 545.805943 280.326976 
L 544.956963 282.496192 
L 544.092095 284.770372 
L 543.25383 286.974573 
L 542.41723 289.178568 
L 541.501127 291.591679 
L 540.645646 293.848873 
L 539.753438 296.305492 
L 538.78644 298.824815 
L 537.911103 301.273951 
L 537.010763 303.793067 
L 536.122951 306.277194 
L 535.172582 308.971249 
L 534.242119 311.630332 
L 533.262706 314.42936 
L 532.421931 317.018492 
L 531.48816 319.950515 
L 530.549108 322.854531 
L 529.661394 325.653599 
L 528.760876 328.592641 
L 527.600698 332.476377 
L 526.807113 335.80038 
L 526.014942 339.229369 
L 525.170692 343.001265 
L 524.321507 347.340039 
L 523.506 351.538863 
L 522.783577 355.98269 
L 522.170039 360.006625 
L 521.603274 364.429519 
L 521.295322 368.768524 
L 521.064133 373.252215 
L 520.653031 377.871122 
L 520.395764 383.283282 
L 520.331438 388.508885 
L 520.346653 393.687876 
L 520.329123 398.851291 
L 520.506345 404.388052 
L 520.710477 408.307366 
L 521.004848 413.091435 
L 521.326938 417.881745 
L 521.770333 423.480829 
L 522.343656 429.328802 
L 522.955209 435.363431 
L 523.546524 440.962579 
L 524.105661 446.748354 
L 524.45445 451.352037 
L 524.835282 456.378766 
L 525.24063 461.728989 
L 525.34049 467.016888 
L 525.377502 472.36697 
L 525.927371 478.339354 
L 526.446282 485.095579 
L 526.886942 491.814447 
L 527.001674 497.84887 
L 527.077315 504.007694 
L 526.844117 509.855345 
L 526.620817 515.454153 
L 526.587158 521.798184 
L 526.655844 528.433938 
L 526.725431 535.152652 
L 526.800107 542.36905 
L 526.877414 549.834298 
L 526.955551 557.382478 
L 527.052562 566.755505 
L 527.077523 574.469567 
L 526.455674 583.712519 
L 518.511547 583.711319 
L 372.153985 583.651772 
L 164.518434 581.744504 
L 164.193451 494.593129 
L 164.262454 440.228211 
L 164.277831 357.109415 
L 164.517161 316.84485 
L 164.197945 280.40124 
L 164.204008 200.501717 
L 164.324563 132.687481 
L 188.459938 132.736149 
L 519.76749 132.822548 
L 573.806549 132.838888 
" style="fill:#1a1a1a;stroke:#ffffff;stroke-linejoin:miter;stroke-width:4;"/>
   </g>
  </g>
 </g>
 <defs>
  <clipPath id="p40895ba103">
   <rect height="543.6" width="558" x="90" y="86.4"/>
  </clipPath>
 </defs>
</svg>
