<?xml version="1.0" encoding="utf-8" standalone="no"?>
<!DOCTYPE svg PUBLIC "-//W3C//DTD SVG 1.1//EN"
  "http://www.w3.org/Graphics/SVG/1.1/DTD/svg11.dtd">
<!-- Created with matplotlib (https://matplotlib.org/) -->
<svg height="720pt" version="1.1" viewBox="0 0 720 720" width="720pt" xmlns="http://www.w3.org/2000/svg" xmlns:xlink="http://www.w3.org/1999/xlink">
 <metadata>
  <rdf:RDF xmlns:cc="http://creativecommons.org/ns#" xmlns:dc="http://purl.org/dc/elements/1.1/" xmlns:rdf="http://www.w3.org/1999/02/22-rdf-syntax-ns#">
   <cc:Work>
    <dc:type rdf:resource="http://purl.org/dc/dcmitype/StillImage"/>
    <dc:date>2021-05-07T11:03:01.039399</dc:date>
    <dc:format>image/svg+xml</dc:format>
    <dc:creator>
     <cc:Agent>
      <dc:title>Matplotlib v3.3.3, https://matplotlib.org/</dc:title>
     </cc:Agent>
    </dc:creator>
   </cc:Work>
  </rdf:RDF>
 </metadata>
 <defs>
  <style type="text/css">*{stroke-linecap:butt;stroke-linejoin:round;}</style>
 </defs>
 <g id="figure_1">
  <g id="patch_1">
   <path d="M 0 720 
L 720 720 
L 720 0 
L 0 0 
z
" style="fill:none;"/>
  </g>
  <g id="axes_1">
   <g id="patch_2">
    <path clip-path="url(#pb4185f381b)" d="M 607.169276 311.041661 
L 607.177979 326.031454 
L 609.051568 325.852237 
L 609.098063 337.521801 
L 609.118711 356.483543 
L 609.121255 358.827083 
L 607.19914 358.83337 
L 600.742867 358.840287 
L 598.031629 358.847716 
L 594.048853 358.858625 
L 588.996009 358.872512 
L 588.587575 358.873622 
L 588.574333 366.592444 
L 588.577873 370.762397 
L 588.580708 373.804248 
L 588.58336 376.810153 
L 588.586012 379.816059 
L 588.588664 382.821988 
L 588.591316 385.827893 
L 588.593981 388.831426 
L 588.611576 392.274359 
L 588.631196 404.034748 
L 588.635984 409.022643 
L 588.679681 454.400103 
L 588.729258 499.771935 
L 588.733927 504.543703 
L 588.730799 549.528235 
L 335.486409 550.53675 
L 324.354035 550.576854 
L 307.222013 550.638891 
L 170.367774 550.819262 
L 158.372 550.707564 
L 156.607221 550.702471 
L 128.878745 550.70821 
L 128.908363 549.085064 
L 128.944889 544.083574 
L 129.635414 166.209322 
L 230.868498 166.047084 
L 232.530823 166.044744 
L 307.157795 165.953696 
L 383.43487 165.797777 
L 458.043275 165.777406 
L 526.591047 165.580738 
L 532.747209 165.808139 
L 538.678787 166.53274 
L 545.192417 168.206819 
L 550.804136 170.132183 
L 555.933073 172.3901 
L 560.966313 175.144789 
L 565.096887 177.778399 
L 569.712192 181.072264 
L 577.577341 188.224134 
L 585.875419 197.808129 
L 596.045726 210.064372 
L 608.887553 225.754196 
L 607.120383 226.501304 
L 607.169276 311.041661 
" style="stroke:#ffffff;stroke-linejoin:miter;stroke-width:2;"/>
   </g>
  </g>
 </g>
 <defs>
  <clipPath id="pb4185f381b">
   <rect height="543.6" width="558" x="90" y="86.4"/>
  </clipPath>
 </defs>
</svg>
