<?xml version="1.0" encoding="utf-8" standalone="no"?>
<!DOCTYPE svg PUBLIC "-//W3C//DTD SVG 1.1//EN"
  "http://www.w3.org/Graphics/SVG/1.1/DTD/svg11.dtd">
<!-- Created with matplotlib (https://matplotlib.org/) -->
<svg height="720pt" version="1.1" viewBox="0 0 720 720" width="720pt" xmlns="http://www.w3.org/2000/svg" xmlns:xlink="http://www.w3.org/1999/xlink">
 <metadata>
  <rdf:RDF xmlns:cc="http://creativecommons.org/ns#" xmlns:dc="http://purl.org/dc/elements/1.1/" xmlns:rdf="http://www.w3.org/1999/02/22-rdf-syntax-ns#">
   <cc:Work>
    <dc:type rdf:resource="http://purl.org/dc/dcmitype/StillImage"/>
    <dc:date>2021-05-07T11:03:02.990013</dc:date>
    <dc:format>image/svg+xml</dc:format>
    <dc:creator>
     <cc:Agent>
      <dc:title>Matplotlib v3.3.3, https://matplotlib.org/</dc:title>
     </cc:Agent>
    </dc:creator>
   </cc:Work>
  </rdf:RDF>
 </metadata>
 <defs>
  <style type="text/css">*{stroke-linecap:butt;stroke-linejoin:round;}</style>
 </defs>
 <g id="figure_1">
  <g id="patch_1">
   <path d="M 0 720 
L 720 720 
L 720 0 
L 0 0 
z
" style="fill:none;"/>
  </g>
  <g id="axes_1">
   <g id="patch_2">
    <path clip-path="url(#pf778137660)" d="M 566.050495 198.703689 
L 565.954058 256.445899 
L 565.889511 295.11527 
L 565.952462 314.207193 
L 566.013421 332.843867 
L 565.943939 349.54923 
L 565.920191 355.252251 
L 565.904488 366.215701 
L 565.940526 371.146782 
L 566.028035 383.11269 
L 566.187123 400.759027 
L 562.346118 399.520981 
L 530.412227 382.397376 
L 492.861597 371.806353 
L 418.527085 379.084412 
L 379.496376 410.114706 
L 366.372243 432.542472 
L 366.039731 440.239699 
L 365.840381 444.85261 
L 365.415805 454.070582 
L 364.977146 463.315725 
L 364.734395 468.438481 
L 354.284476 496.892405 
L 295.31162 517.54447 
L 275.279825 517.696311 
L 275.02215 492.553021 
L 275.009305 491.250543 
L 171.995467 459.922971 
L 171.812877 431.138278 
L 171.855242 427.101944 
L 172.045015 424.507811 
L 172.523457 420.992988 
L 172.99992 418.25921 
L 173.626374 414.440692 
L 174.39545 411.427606 
L 175.261409 408.623607 
L 176.423949 405.82917 
L 180.412418 397.250947 
L 184.363523 388.921293 
L 189.224752 378.696093 
L 192.694998 372.082241 
L 196.456291 366.263045 
L 198.578778 363.541494 
L 205.177856 355.063654 
L 208.651028 350.541735 
L 210.62826 347.569292 
L 212.653469 344.303958 
L 213.90229 341.687241 
L 214.671762 338.925184 
L 215.344206 335.870344 
L 215.581638 332.690446 
L 215.335727 329.469196 
L 214.992991 326.080688 
L 214.688958 323.185926 
L 213.816175 317.281707 
L 213.323004 313.439107 
L 210.247038 293.33088 
L 208.149838 278.677844 
L 206.733765 267.634111 
L 204.538515 251.475865 
L 204.048545 246.413998 
L 202.942243 231.04702 
L 202.729372 220.702066 
L 202.252429 199.699142 
L 215.15592 199.580716 
L 222.963759 199.069751 
L 241.727038 199.048399 
L 250.848438 199.038102 
L 279.856724 199.005571 
L 297.764326 198.985632 
L 318.028783 198.963261 
L 338.012436 198.941365 
L 356.198315 198.921581 
L 364.786784 198.912294 
L 376.250332 198.899916 
L 394.368083 198.880562 
L 412.26495 198.861515 
L 431.946083 198.899189 
L 451.392147 198.820397 
L 470.713501 198.800333 
L 491.409811 198.778994 
L 499.495426 198.770745 
L 508.887984 198.761158 
L 527.425252 198.742344 
L 547.061457 198.722611 
L 566.050495 198.703689 
" style="stroke:#ffffff;stroke-linejoin:miter;stroke-width:2;"/>
   </g>
  </g>
 </g>
 <defs>
  <clipPath id="pf778137660">
   <rect height="543.6" width="558" x="90" y="86.4"/>
  </clipPath>
 </defs>
</svg>
