<?xml version="1.0" encoding="utf-8" standalone="no"?>
<!DOCTYPE svg PUBLIC "-//W3C//DTD SVG 1.1//EN"
  "http://www.w3.org/Graphics/SVG/1.1/DTD/svg11.dtd">
<!-- Created with matplotlib (https://matplotlib.org/) -->
<svg height="720pt" version="1.1" viewBox="0 0 720 720" width="720pt" xmlns="http://www.w3.org/2000/svg" xmlns:xlink="http://www.w3.org/1999/xlink">
 <metadata>
  <rdf:RDF xmlns:cc="http://creativecommons.org/ns#" xmlns:dc="http://purl.org/dc/elements/1.1/" xmlns:rdf="http://www.w3.org/1999/02/22-rdf-syntax-ns#">
   <cc:Work>
    <dc:type rdf:resource="http://purl.org/dc/dcmitype/StillImage"/>
    <dc:date>2021-05-28T08:56:48.812509</dc:date>
    <dc:format>image/svg+xml</dc:format>
    <dc:creator>
     <cc:Agent>
      <dc:title>Matplotlib v3.3.3, https://matplotlib.org/</dc:title>
     </cc:Agent>
    </dc:creator>
   </cc:Work>
  </rdf:RDF>
 </metadata>
 <defs>
  <style type="text/css">*{stroke-linecap:butt;stroke-linejoin:round;}</style>
 </defs>
 <g id="figure_1">
  <g id="patch_1">
   <path d="M 0 720 
L 720 720 
L 720 0 
L 0 0 
z
" style="fill:none;"/>
  </g>
  <g id="axes_1">
   <g id="patch_2">
    <path clip-path="url(#p26bed599ef)" d="M 616.235405 215.031167 
L 616.165802 544.17421 
L 588.066561 544.279535 
L 583.238631 538.075529 
L 583.106143 537.905224 
L 581.723588 533.493973 
L 581.720721 527.619918 
L 579.841278 527.623594 
L 579.889937 525.510663 
L 539.238451 525.362796 
L 536.615091 525.564663 
L 531.097143 530.667952 
L 531.096677 526.374655 
L 530.460222 526.991617 
L 530.17637 527.100117 
L 530.177162 531.518765 
L 524.660169 536.621614 
L 524.659308 529.210706 
L 522.511793 530.032273 
L 521.622568 528.223878 
L 521.623616 535.867765 
L 491.779285 528.460291 
L 474.727283 540.259289 
L 435.544052 499.16011 
L 427.233601 472.991576 
L 417.986757 462.71189 
L 407.508762 457.701877 
L 386.944065 454.202008 
L 379.699159 445.279504 
L 379.731154 420.723012 
L 372.980828 420.692292 
L 368.527643 420.666124 
L 368.497827 400.750999 
L 368.48851 394.547593 
L 367.047739 394.549163 
L 352.608785 394.608474 
L 346.910569 394.631982 
L 338.524693 394.666603 
L 337.812903 394.669554 
L 337.790049 373.26079 
L 337.786959 370.324723 
L 337.795242 362.046594 
L 337.748549 362.014922 
L 334.933359 360.031656 
L 327.720068 345.791227 
L 320.321969 341.406403 
L 308.605243 321.749231 
L 302.805029 317.322833 
L 282.908962 317.44134 
L 276.353771 317.479487 
L 276.348015 309.372241 
L 275.218756 303.496288 
L 271.252763 298.601075 
L 266.347633 298.605309 
L 262.376919 303.518678 
L 261.255798 309.424597 
L 261.257946 317.560501 
L 258.80726 317.573496 
L 246.570445 317.63962 
L 245.037418 317.832131 
L 243.513908 317.837089 
L 225.472801 317.898433 
L 214.575382 317.935816 
L 184.12645 318.015777 
L 183.390453 318.02517 
L 168.918466 318.105961 
L 160.548042 318.150286 
L 155.278949 318.163486 
L 121.817389 318.325288 
L 121.764595 214.611567 
L 135.761747 214.544406 
L 144.857086 214.50099 
L 351.762053 213.409179 
L 355.591566 213.389845 
L 384.531363 211.6015 
L 387.777628 211.653961 
L 399.812187 211.897526 
L 406.251677 212.537995 
L 413.674016 214.109443 
L 422.590621 217.344456 
L 432.136206 221.31907 
L 440.596469 225.020199 
L 447.744463 227.095649 
L 453.700167 228.162526 
L 459.975009 228.214509 
L 464.829017 227.570696 
L 470.323031 226.06662 
L 475.357836 223.706785 
L 555.138919 177.604362 
L 560.286583 175.185937 
L 565.911349 173.068325 
L 570.455494 172.276854 
L 575.924041 172.120465 
L 581.609508 173.388534 
L 588.163982 176.864879 
L 594.775239 182.368403 
L 601.281128 190.083982 
L 606.000274 197.530024 
L 609.798324 204.334572 
L 612.782823 209.944314 
L 616.235405 215.031167 
" style="fill:#1a1a1a;stroke:#ffffff;stroke-linejoin:miter;stroke-width:4;"/>
   </g>
  </g>
 </g>
 <defs>
  <clipPath id="p26bed599ef">
   <rect height="543.6" width="558" x="90" y="86.4"/>
  </clipPath>
 </defs>
</svg>
