<?xml version="1.0" encoding="utf-8" standalone="no"?>
<!DOCTYPE svg PUBLIC "-//W3C//DTD SVG 1.1//EN"
  "http://www.w3.org/Graphics/SVG/1.1/DTD/svg11.dtd">
<!-- Created with matplotlib (https://matplotlib.org/) -->
<svg height="720pt" version="1.1" viewBox="0 0 720 720" width="720pt" xmlns="http://www.w3.org/2000/svg" xmlns:xlink="http://www.w3.org/1999/xlink">
 <metadata>
  <rdf:RDF xmlns:cc="http://creativecommons.org/ns#" xmlns:dc="http://purl.org/dc/elements/1.1/" xmlns:rdf="http://www.w3.org/1999/02/22-rdf-syntax-ns#">
   <cc:Work>
    <dc:type rdf:resource="http://purl.org/dc/dcmitype/StillImage"/>
    <dc:date>2021-05-07T11:03:05.785420</dc:date>
    <dc:format>image/svg+xml</dc:format>
    <dc:creator>
     <cc:Agent>
      <dc:title>Matplotlib v3.3.3, https://matplotlib.org/</dc:title>
     </cc:Agent>
    </dc:creator>
   </cc:Work>
  </rdf:RDF>
 </metadata>
 <defs>
  <style type="text/css">*{stroke-linecap:butt;stroke-linejoin:round;}</style>
 </defs>
 <g id="figure_1">
  <g id="patch_1">
   <path d="M 0 720 
L 720 720 
L 720 0 
L 0 0 
z
" style="fill:none;"/>
  </g>
  <g id="axes_1">
   <g id="patch_2">
    <path clip-path="url(#p50dc2596b3)" d="M 423.401865 209.233727 
L 423.420115 225.568301 
L 423.438869 242.45617 
L 422.271367 268.289542 
L 423.597468 270.372813 
L 423.59738 327.361244 
L 423.536622 331.144409 
L 423.601185 346.194303 
L 423.60107 347.35365 
L 419.884011 347.354961 
L 419.889522 360.719207 
L 419.904086 366.027575 
L 421.872601 367.546791 
L 424.051747 369.228583 
L 426.152415 370.094198 
L 427.5343 370.574908 
L 430.546716 371.487939 
L 434.526035 372.400193 
L 438.350499 372.597955 
L 465.171252 372.600969 
L 512.124527 373.097721 
L 531.107943 373.025077 
L 550.848888 372.883805 
L 559.780484 372.90202 
L 562.356727 372.989951 
L 564.778529 373.212945 
L 566.376003 373.481576 
L 567.252214 373.79573 
L 568.118527 374.187529 
L 570.206323 375.265355 
L 552.143039 430.006152 
L 533.515764 483.194771 
L 530.88039 492.634404 
L 527.441389 503.480255 
L 523.857595 513.246934 
L 522.137155 517.741192 
L 520.137061 521.867531 
L 517.591882 522.042769 
L 481.479403 522.061471 
L 461.48268 522.065707 
L 424.217692 522.074062 
L 359.857307 522.089999 
L 296.360542 522.107432 
L 232.451814 522.126444 
L 188.137852 522.13812 
L 172.464203 522.142486 
L 168.140338 522.450396 
L 167.971679 505.913874 
L 167.810403 490.103578 
L 167.802167 474.400971 
L 167.793677 458.235214 
L 167.811977 441.806288 
L 167.803039 438.890541 
L 168.0004 436.114175 
L 168.265534 434.039129 
L 168.564074 431.876357 
L 169.162931 428.953515 
L 169.894488 426.38164 
L 183.280575 410.11564 
L 194.47136 396.51757 
L 205.914158 382.613537 
L 208.716747 378.026742 
L 212.877713 368.188558 
L 217.310897 351.38444 
L 221.402492 335.875359 
L 226.063112 318.282037 
L 230.296166 302.302986 
L 231.156321 298.278035 
L 232.414093 293.653139 
L 234.057269 287.085133 
L 235.169473 282.630089 
L 236.280577 277.241813 
L 237.003893 272.659862 
L 237.726991 267.865786 
L 238.523559 262.676749 
L 240.165937 252.358414 
L 241.078228 248.344216 
L 241.790481 245.636865 
L 243.176956 241.575529 
L 245.058949 237.990518 
L 245.867773 235.760283 
L 247.215351 232.42773 
L 249.038834 228.123089 
L 251.020468 223.08959 
L 251.970578 219.932729 
L 252.760308 217.515591 
L 254.186869 210.663099 
L 255.666811 203.416472 
L 255.793606 203.47124 
L 257.050816 203.998333 
L 258.252078 204.377873 
L 259.678765 204.77432 
L 261.030632 204.728955 
L 262.36369 204.716159 
L 263.415012 204.882489 
L 264.559788 205.343622 
L 265.986473 205.740395 
L 267.055872 206.21768 
L 268.275498 206.842821 
L 269.570882 207.15718 
L 270.73421 207.651172 
L 271.747682 208.030247 
L 273.174037 208.770256 
L 274.637601 209.412548 
L 275.425837 209.627144 
L 276.758545 209.941796 
L 277.903372 210.451955 
L 279.047908 211.027828 
L 280.380673 211.391469 
L 281.638373 211.722016 
L 282.933535 211.85655 
L 284.229356 211.892788 
L 285.224108 212.075294 
L 286.181533 212.257834 
L 287.326859 212.261016 
L 288.52834 212.526162 
L 289.748341 212.856716 
L 290.930703 213.235969 
L 292.300985 213.452654 
L 292.99589 213.536141 
L 294.009198 213.78438 
L 295.360765 214.082589 
L 296.29932 214.248715 
L 297.369755 214.366057 
L 298.833733 214.746381 
L 300.091445 215.060792 
L 301.461705 215.260693 
L 302.925876 215.493737 
L 303.92117 215.512821 
L 304.821988 215.646112 
L 306.061143 215.92767 
L 306.867948 216.224444 
L 307.712705 216.455759 
L 308.970555 216.639007 
L 310.152972 216.78974 
L 311.561257 216.957062 
L 312.856337 217.058708 
L 314.1328 217.356674 
L 315.39002 217.916352 
L 316.647868 218.099571 
L 317.999765 218.119665 
L 319.23851 218.401231 
L 319.689064 218.435313 
L 320.965974 218.454798 
L 322.24277 218.409216 
L 323.650588 218.527559 
L 324.814599 218.710867 
L 326.241222 219.107325 
L 327.423458 219.421496 
L 328.624891 219.68631 
L 329.938931 219.886279 
L 330.746108 219.937771 
L 332.078995 220.104851 
L 333.317991 220.288097 
L 334.70715 220.570183 
L 335.833678 220.622393 
L 336.828543 220.625057 
L 338.161902 220.59587 
L 339.382265 220.615416 
L 340.677672 220.684561 
L 341.935656 220.671525 
L 342.987103 220.674173 
L 344.001053 220.562413 
L 344.921319 220.581261 
L 346.291968 220.519495 
L 347.362187 220.456997 
L 348.413541 220.410661 
L 349.484093 220.348163 
L 350.404189 220.21973 
L 351.549615 220.026675 
L 352.995962 219.588711 
L 354.329664 219.183076 
L 355.775795 218.876316 
L 357.14694 218.601818 
L 358.555337 218.261898 
L 359.550753 218.068302 
L 360.997218 217.728639 
L 362.086357 217.437021 
L 363.232042 217.11277 
L 364.64103 216.641975 
L 365.899401 216.318304 
L 367.157734 215.961729 
L 368.153485 215.735264 
L 369.054919 215.475718 
L 370.012842 215.134876 
L 371.289679 215.12184 
L 372.416154 215.125082 
L 373.78701 214.916019 
L 374.932994 214.559224 
L 375.909748 214.201642 
L 377.299857 213.69832 
L 378.502146 213.128804 
L 379.704511 212.625002 
L 381.05698 212.17038 
L 382.466015 211.699595 
L 383.743204 211.343046 
L 385.189475 210.823566 
L 386.446331 210.493205 
L 387.497706 210.101531 
L 388.89027 209.442649 
L 389.867326 209.05249 
L 391.332505 208.582017 
L 392.628565 208.20931 
L 394.093616 207.624107 
L 395.889065 206.96801 
L 396.823546 206.542439 
L 397.738452 206.095938 
L 398.658708 205.803837 
L 399.917315 205.349307 
L 401.326177 204.747689 
L 402.528831 204.129199 
L 403.863002 203.49445 
L 405.121613 203.039923 
L 406.380206 202.536088 
L 407.695216 201.950377 
L 409.217794 201.406549 
L 410.210731 200.997918 
L 412.41051 199.908632 
L 413.578551 199.329979 
L 415.077548 198.649076 
L 415.856299 198.291615 
L 417.569335 197.38964 
L 418.38689 196.930209 
L 419.788449 196.164438 
L 421.092644 195.415702 
L 421.988014 194.871254 
L 422.970858 194.121502 
L 423.381198 193.949604 
L 423.389468 198.159602 
L 423.401865 209.233727 
" style="stroke:#ffffff;stroke-linejoin:miter;stroke-width:2;"/>
   </g>
  </g>
 </g>
 <defs>
  <clipPath id="p50dc2596b3">
   <rect height="543.6" width="558" x="90" y="86.4"/>
  </clipPath>
 </defs>
</svg>
