<?xml version="1.0" encoding="utf-8" standalone="no"?>
<!DOCTYPE svg PUBLIC "-//W3C//DTD SVG 1.1//EN"
  "http://www.w3.org/Graphics/SVG/1.1/DTD/svg11.dtd">
<!-- Created with matplotlib (https://matplotlib.org/) -->
<svg height="720pt" version="1.1" viewBox="0 0 720 720" width="720pt" xmlns="http://www.w3.org/2000/svg" xmlns:xlink="http://www.w3.org/1999/xlink">
 <metadata>
  <rdf:RDF xmlns:cc="http://creativecommons.org/ns#" xmlns:dc="http://purl.org/dc/elements/1.1/" xmlns:rdf="http://www.w3.org/1999/02/22-rdf-syntax-ns#">
   <cc:Work>
    <dc:type rdf:resource="http://purl.org/dc/dcmitype/StillImage"/>
    <dc:date>2021-05-07T11:03:01.709333</dc:date>
    <dc:format>image/svg+xml</dc:format>
    <dc:creator>
     <cc:Agent>
      <dc:title>Matplotlib v3.3.3, https://matplotlib.org/</dc:title>
     </cc:Agent>
    </dc:creator>
   </cc:Work>
  </rdf:RDF>
 </metadata>
 <defs>
  <style type="text/css">*{stroke-linecap:butt;stroke-linejoin:round;}</style>
 </defs>
 <g id="figure_1">
  <g id="patch_1">
   <path d="M 0 720 
L 720 720 
L 720 0 
L 0 0 
z
" style="fill:none;"/>
  </g>
  <g id="axes_1">
   <g id="patch_2">
    <path clip-path="url(#pc3c672da45)" d="M 312.339271 231.729677 
L 317.597793 234.869582 
L 326.607151 226.540561 
L 335.473572 218.343862 
L 349.024237 226.053418 
L 367.473445 209.558317 
L 383.740784 219.154737 
L 421.343099 241.338252 
L 452.536981 259.753099 
L 463.531262 266.243666 
L 507.337514 291.095709 
L 537.037322 307.312034 
L 549.540624 314.139175 
L 550.404097 324.432709 
L 550.283977 328.991063 
L 549.949419 341.685051 
L 550.043783 353.862454 
L 549.512145 367.922732 
L 549.693346 371.914265 
L 550.191998 382.897588 
L 564.494404 382.697664 
L 578.021587 382.508672 
L 585.345605 382.620766 
L 585.72864 407.533591 
L 585.662509 418.11912 
L 585.895606 428.788585 
L 585.895223 439.568603 
L 586.190254 450.602784 
L 586.062641 461.001338 
L 586.338063 471.984997 
L 586.043505 483.364063 
L 586.028973 493.819049 
L 586.304481 504.897062 
L 586.324639 515.518608 
L 586.183667 526.225867 
L 586.111033 537.088295 
L 552.136495 536.970229 
L 550.794758 536.960103 
L 551.434775 548.025248 
L 551.354388 552.093647 
L 550.927035 557.947791 
L 535.537983 557.409806 
L 422.327017 557.325492 
L 363.746806 557.375079 
L 342.192489 557.200962 
L 325.999347 557.602182 
L 310.880259 557.775063 
L 311.615169 507.655565 
L 311.894876 460.755915 
L 312.006772 434.810716 
L 311.361692 423.903165 
L 310.334649 413.590225 
L 308.390522 404.276366 
L 301.793812 383.401546 
L 300.023627 378.043268 
L 296.420642 370.273712 
L 292.126905 361.996906 
L 288.529309 356.717005 
L 285.415743 352.046282 
L 281.34699 346.908354 
L 268.100271 330.580802 
L 262.277088 324.034723 
L 257.548669 317.672785 
L 222.909476 265.944587 
L 194.239897 223.581104 
L 183.419151 208.17352 
L 169.989366 191.447541 
L 158.497521 178.174064 
L 151.661937 171.413081 
L 167.729505 158.452209 
L 172.047662 161.554569 
L 180.214705 167.475375 
L 180.733503 169.611125 
L 182.315495 171.703648 
L 184.34098 173.517078 
L 189.871756 177.505271 
L 191.204999 178.447919 
L 192.679499 179.535636 
L 204.432666 183.158574 
L 248.125062 195.923423 
L 261.758595 201.175735 
L 271.989756 208.329142 
L 279.408217 212.864394 
L 312.339271 231.729677 
" style="stroke:#ffffff;stroke-linejoin:miter;stroke-width:2;"/>
   </g>
  </g>
 </g>
 <defs>
  <clipPath id="pc3c672da45">
   <rect height="543.6" width="558" x="90" y="86.4"/>
  </clipPath>
 </defs>
</svg>
