<?xml version="1.0" encoding="utf-8" standalone="no"?>
<!DOCTYPE svg PUBLIC "-//W3C//DTD SVG 1.1//EN"
  "http://www.w3.org/Graphics/SVG/1.1/DTD/svg11.dtd">
<!-- Created with matplotlib (https://matplotlib.org/) -->
<svg height="720pt" version="1.1" viewBox="0 0 720 720" width="720pt" xmlns="http://www.w3.org/2000/svg" xmlns:xlink="http://www.w3.org/1999/xlink">
 <metadata>
  <rdf:RDF xmlns:cc="http://creativecommons.org/ns#" xmlns:dc="http://purl.org/dc/elements/1.1/" xmlns:rdf="http://www.w3.org/1999/02/22-rdf-syntax-ns#">
   <cc:Work>
    <dc:type rdf:resource="http://purl.org/dc/dcmitype/StillImage"/>
    <dc:date>2021-05-28T08:56:45.416418</dc:date>
    <dc:format>image/svg+xml</dc:format>
    <dc:creator>
     <cc:Agent>
      <dc:title>Matplotlib v3.3.3, https://matplotlib.org/</dc:title>
     </cc:Agent>
    </dc:creator>
   </cc:Work>
  </rdf:RDF>
 </metadata>
 <defs>
  <style type="text/css">*{stroke-linecap:butt;stroke-linejoin:round;}</style>
 </defs>
 <g id="figure_1">
  <g id="patch_1">
   <path d="M 0 720 
L 720 720 
L 720 0 
L 0 0 
z
" style="fill:none;"/>
  </g>
  <g id="axes_1">
   <g id="patch_2">
    <path clip-path="url(#pe6f725c54f)" d="M 603.473845 217.512571 
L 602.587572 226.915163 
L 593.987871 253.178202 
L 607.161708 263.507034 
L 584.806071 297.842745 
L 553.174994 297.873363 
L 553.093109 332.547246 
L 553.04832 351.569696 
L 551.738855 351.570929 
L 545.567194 351.575972 
L 540.280273 351.57587 
L 537.940115 351.58198 
L 533.162432 351.586019 
L 526.079187 351.591895 
L 526.074481 379.411072 
L 524.048812 388.754452 
L 518.371503 414.940043 
L 515.727894 427.228111 
L 508.064802 425.245938 
L 506.323149 425.244642 
L 505.809452 443.244548 
L 497.1384 476.029983 
L 488.632114 504.786801 
L 488.578216 512.294704 
L 488.60088 513.160633 
L 488.584634 514.321412 
L 488.534364 515.650701 
L 488.467074 517.092355 
L 488.450701 518.103363 
L 488.485555 519.058131 
L 488.451984 519.881941 
L 488.521019 520.911585 
L 488.539155 522.371876 
L 488.58201 523.695635 
L 488.602208 525.10473 
L 484.592648 524.908117 
L 474.314589 524.772028 
L 464.036978 525.216425 
L 451.591635 525.300158 
L 438.09742 525.239938 
L 430.728067 525.282152 
L 430.730415 526.156421 
L 430.734443 527.267266 
L 430.741097 528.782846 
L 430.742921 530.914032 
L 430.739554 533.795182 
L 430.7393 537.106802 
L 430.741369 539.780193 
L 430.729919 542.637063 
L 430.685114 545.184716 
L 430.666966 546.64423 
L 430.675849 547.475837 
L 430.696383 549.173019 
L 430.720162 551.472879 
L 430.755131 554.29403 
L 430.807582 558.963926 
L 429.304952 558.2001 
L 427.572895 557.320437 
L 424.706879 556.035077 
L 422.933702 555.291035 
L 421.166937 554.350879 
L 412.76011 550.246762 
L 404.240438 546.813818 
L 402.258868 547.46163 
L 372.451532 555.615718 
L 339.036277 534.58773 
L 339.671001 534.123546 
L 339.632688 528.195833 
L 339.003509 524.887031 
L 336.401613 524.892139 
L 307.193858 525.014953 
L 301.696023 524.715849 
L 297.15178 524.438635 
L 293.733675 523.999027 
L 290.820303 523.397684 
L 286.935668 522.434728 
L 280.137017 520.185402 
L 275.125886 519.022232 
L 271.358343 518.703977 
L 267.630016 518.829003 
L 264.212853 519.437281 
L 259.475928 520.812713 
L 249.653424 524.490913 
L 244.83928 526.309795 
L 241.733094 527.159576 
L 238.976051 527.606019 
L 235.713712 527.609738 
L 233.111452 527.451511 
L 230.159226 526.850406 
L 226.352054 525.726418 
L 222.156057 524.119312 
L 215.653903 521.3442 
L 207.275367 518.061931 
L 203.332228 516.968083 
L 200.535395 516.447502 
L 197.932925 516.128175 
L 190.125926 515.532977 
L 186.629993 515.01325 
L 183.949655 514.492581 
L 179.501201 512.966563 
L 170.409437 509.350656 
L 166.057792 507.582795 
L 163.221165 506.175801 
L 160.384202 504.446413 
L 158.052263 502.837321 
L 150.745185 497.526861 
L 147.137053 494.688599 
L 138.503057 488.799786 
L 131.490545 484.58968 
L 134.310638 482.261294 
L 139.612908 477.813489 
L 139.421394 476.727508 
L 152.283765 465.834867 
L 166.253828 425.678058 
L 175.84861 398.331076 
L 167.728832 398.316329 
L 167.726016 397.321921 
L 167.728248 390.51328 
L 166.277937 386.304635 
L 166.331329 382.47561 
L 166.32829 379.462644 
L 166.211112 376.826456 
L 166.036589 374.127544 
L 165.633174 371.61723 
L 165.287166 369.232394 
L 164.654428 366.471267 
L 164.079076 363.835639 
L 163.61903 361.953087 
L 162.929514 359.694196 
L 162.067891 357.121671 
L 161.034375 354.486583 
L 159.885946 351.474998 
L 158.271742 348.10876 
L 157.337441 344.035538 
L 156.558644 340.428935 
L 156.366124 337.874028 
L 156.283637 336.779311 
L 156.434275 332.450088 
L 156.778581 328.03576 
L 156.760733 325.488046 
L 158.591674 322.96812 
L 159.315951 319.684651 
L 159.631455 315.12689 
L 159.333731 308.530185 
L 158.251386 303.113639 
L 156.383864 298.303547 
L 153.876044 293.526092 
L 150.553028 288.494661 
L 157.030516 283.249492 
L 155.819914 281.451968 
L 143.608123 263.130815 
L 138.628072 260.504455 
L 137.027534 259.662431 
L 130.838292 256.384605 
L 132.966637 251.217156 
L 136.514475 241.492098 
L 138.490615 236.255801 
L 141.100692 227.314394 
L 144.45625 214.401732 
L 161.145172 218.926447 
L 165.703028 219.881043 
L 170.830119 220.465698 
L 176.170305 220.533101 
L 182.364026 219.750103 
L 186.528061 218.489523 
L 191.545854 216.563175 
L 195.104022 214.638585 
L 197.843733 213.047362 
L 200.618371 210.791378 
L 202.895097 209.016058 
L 205.02927 207.093184 
L 207.412055 204.542249 
L 209.332279 202.250341 
L 211.394244 199.256612 
L 213.207108 196.373973 
L 214.905595 193.049248 
L 217.43476 188.152209 
L 218.950495 184.625782 
L 220.619316 180.096641 
L 222.639917 176.005018 
L 222.841334 175.597153 
L 225.450934 171.460623 
L 229.15297 167.262328 
L 233.021829 163.911775 
L 238.356669 160.665573 
L 243.443888 158.736983 
L 247.757742 157.929719 
L 250.38618 157.56225 
L 255.971555 157.436074 
L 259.433545 158.019557 
L 261.683743 158.398819 
L 267.037427 160.467306 
L 271.990544 163.051075 
L 276.446685 166.574162 
L 283.566952 173.071164 
L 285.440755 174.85483 
L 286.990586 176.108759 
L 288.148371 176.901481 
L 289.448541 177.65714 
L 291.051297 178.412473 
L 292.618342 179.020121 
L 294.470068 179.498214 
L 295.858764 179.736764 
L 298.112244 179.980454 
L 307.820141 180.067831 
L 343.436299 180.031732 
L 374.196294 180.195222 
L 430.582058 180.43442 
L 563.104071 180.501315 
L 600.131762 181.004895 
L 600.138401 191.303806 
L 600.232838 192.052118 
L 603.473845 217.512571 
" style="fill:#1a1a1a;stroke:#ffffff;stroke-linejoin:miter;stroke-width:4;"/>
   </g>
  </g>
 </g>
 <defs>
  <clipPath id="pe6f725c54f">
   <rect height="543.6" width="558" x="90" y="86.4"/>
  </clipPath>
 </defs>
</svg>
