<?xml version="1.0" encoding="utf-8" standalone="no"?>
<!DOCTYPE svg PUBLIC "-//W3C//DTD SVG 1.1//EN"
  "http://www.w3.org/Graphics/SVG/1.1/DTD/svg11.dtd">
<!-- Created with matplotlib (https://matplotlib.org/) -->
<svg height="720pt" version="1.1" viewBox="0 0 720 720" width="720pt" xmlns="http://www.w3.org/2000/svg" xmlns:xlink="http://www.w3.org/1999/xlink">
 <metadata>
  <rdf:RDF xmlns:cc="http://creativecommons.org/ns#" xmlns:dc="http://purl.org/dc/elements/1.1/" xmlns:rdf="http://www.w3.org/1999/02/22-rdf-syntax-ns#">
   <cc:Work>
    <dc:type rdf:resource="http://purl.org/dc/dcmitype/StillImage"/>
    <dc:date>2021-05-28T08:56:48.788573</dc:date>
    <dc:format>image/svg+xml</dc:format>
    <dc:creator>
     <cc:Agent>
      <dc:title>Matplotlib v3.3.3, https://matplotlib.org/</dc:title>
     </cc:Agent>
    </dc:creator>
   </cc:Work>
  </rdf:RDF>
 </metadata>
 <defs>
  <style type="text/css">*{stroke-linecap:butt;stroke-linejoin:round;}</style>
 </defs>
 <g id="figure_1">
  <g id="patch_1">
   <path d="M 0 720 
L 720 720 
L 720 0 
L 0 0 
z
" style="fill:none;"/>
  </g>
  <g id="axes_1">
   <g id="patch_2">
    <path clip-path="url(#p889f2fde65)" d="M 551.659371 521.889939 
L 547.114313 550.127739 
L 506.956045 550.099874 
L 453.382333 550.063294 
L 448.298174 550.203459 
L 433.676988 550.049986 
L 428.120086 550.046257 
L 384.212986 549.826709 
L 378.803205 549.68577 
L 377.551464 549.564324 
L 376.472673 549.980643 
L 373.525092 550.682345 
L 370.856674 550.942662 
L 348.377228 551.004822 
L 336.009357 550.02639 
L 306.43767 549.976519 
L 267.402309 549.958838 
L 246.795442 549.94962 
L 220.449375 549.937997 
L 197.459987 549.927988 
L 185.081422 549.926559 
L 184.967146 494.964235 
L 184.965116 468.714966 
L 185.173206 165.395178 
L 195.470543 169.157339 
L 206.938915 172.795186 
L 288.268884 194.103027 
L 476.14694 242.255833 
L 513.857824 252.229679 
L 535.52606 257.287735 
L 548.993729 261.18652 
L 549.050646 262.370815 
L 550.078716 275.253302 
L 551.019383 287.078714 
L 552.343907 318.363363 
L 551.782449 328.563869 
L 551.222767 338.732039 
L 551.660795 348.762754 
L 552.102982 358.888577 
L 551.32494 405.434366 
L 551.570902 415.827563 
L 553.034884 452.358697 
L 552.361994 469.462407 
L 552.261294 494.348966 
L 552.238974 499.873552 
L 552.119084 516.759386 
L 551.659371 521.889939 
" style="fill:#1a1a1a;stroke:#ffffff;stroke-linejoin:miter;stroke-width:4;"/>
   </g>
  </g>
 </g>
 <defs>
  <clipPath id="p889f2fde65">
   <rect height="543.6" width="558" x="90" y="86.4"/>
  </clipPath>
 </defs>
</svg>
