<?xml version="1.0" encoding="utf-8" standalone="no"?>
<!DOCTYPE svg PUBLIC "-//W3C//DTD SVG 1.1//EN"
  "http://www.w3.org/Graphics/SVG/1.1/DTD/svg11.dtd">
<!-- Created with matplotlib (https://matplotlib.org/) -->
<svg height="720pt" version="1.1" viewBox="0 0 720 720" width="720pt" xmlns="http://www.w3.org/2000/svg" xmlns:xlink="http://www.w3.org/1999/xlink">
 <metadata>
  <rdf:RDF xmlns:cc="http://creativecommons.org/ns#" xmlns:dc="http://purl.org/dc/elements/1.1/" xmlns:rdf="http://www.w3.org/1999/02/22-rdf-syntax-ns#">
   <cc:Work>
    <dc:type rdf:resource="http://purl.org/dc/dcmitype/StillImage"/>
    <dc:date>2021-05-07T11:03:04.293921</dc:date>
    <dc:format>image/svg+xml</dc:format>
    <dc:creator>
     <cc:Agent>
      <dc:title>Matplotlib v3.3.3, https://matplotlib.org/</dc:title>
     </cc:Agent>
    </dc:creator>
   </cc:Work>
  </rdf:RDF>
 </metadata>
 <defs>
  <style type="text/css">*{stroke-linecap:butt;stroke-linejoin:round;}</style>
 </defs>
 <g id="figure_1">
  <g id="patch_1">
   <path d="M 0 720 
L 720 720 
L 720 0 
L 0 0 
z
" style="fill:none;"/>
  </g>
  <g id="axes_1">
   <g id="patch_2">
    <path clip-path="url(#pbb23c740a1)" d="M 606.957607 158.380984 
L 607.127808 183.188253 
L 606.981242 186.498962 
L 607.154639 192.009412 
L 607.040395 218.624388 
L 606.93762 257.770834 
L 607.360323 258.827596 
L 607.518777 333.589624 
L 606.926367 355.728045 
L 607.547861 375.687802 
L 607.059151 420.207937 
L 607.084499 462.513494 
L 607.090957 471.717222 
L 607.097049 480.311033 
L 607.103851 489.859738 
L 607.107466 494.952371 
L 607.111528 500.681586 
L 607.115123 505.736095 
L 607.152567 534.813519 
L 607.175178 558.241696 
L 606.470379 557.794993 
L 602.229044 555.214452 
L 598.762784 553.131611 
L 596.683184 551.986518 
L 593.671075 550.355654 
L 591.92755 549.463529 
L 590.07642 548.515475 
L 588.189353 547.606239 
L 586.222673 546.671154 
L 582.456671 544.995164 
L 580.608048 544.231028 
L 578.388037 543.32574 
L 574.588504 541.876279 
L 570.738766 540.547244 
L 566.312662 539.109749 
L 564.135612 538.4431 
L 562.121118 537.879552 
L 560.277528 537.384703 
L 558.120574 536.831897 
L 554.20032 535.949301 
L 550.426035 535.167676 
L 544.660244 534.177569 
L 539.61963 533.425148 
L 533.416308 532.531119 
L 530.316076 532.101743 
L 330.321997 504.31257 
L 325.152119 503.578355 
L 320.6394 502.915034 
L 316.223034 502.202092 
L 311.724416 501.369224 
L 307.699577 500.445087 
L 303.878893 499.398739 
L 300.340808 498.280538 
L 296.444248 496.881268 
L 292.891837 495.460693 
L 291.21008 494.678713 
L 289.210384 493.748879 
L 288.422374 493.382484 
L 287.898288 493.138753 
L 287.114021 492.773995 
L 286.591163 492.530823 
L 286.068323 492.287652 
L 282.425007 490.328331 
L 278.193033 487.834946 
L 274.492748 485.421172 
L 270.378117 482.491726 
L 266.53198 479.495964 
L 262.569506 476.123539 
L 258.434298 472.236519 
L 253.769337 467.352117 
L 249.304337 462.111091 
L 246.993408 459.135507 
L 243.308712 453.95922 
L 240.615689 449.771926 
L 238.286852 445.832823 
L 235.933242 441.508535 
L 233.620946 437.062897 
L 229.303419 428.313237 
L 225.426859 420.352427 
L 213.229438 395.377284 
L 195.952655 359.997651 
L 189.558646 346.863574 
L 181.052388 329.44262 
L 165.733886 298.144016 
L 164.056961 294.684873 
L 152.904319 271.680049 
L 151.544242 268.743431 
L 149.626763 264.464027 
L 147.703019 259.887365 
L 145.978313 255.494562 
L 144.750525 252.166182 
L 143.514125 248.646016 
L 141.830722 243.384625 
L 140.749014 239.748535 
L 140.01379 237.110402 
L 138.990538 233.238194 
L 137.952072 228.883647 
L 136.966441 224.283864 
L 136.161348 219.940697 
L 135.739006 217.497269 
L 135.352357 215.051608 
L 134.975166 212.449147 
L 134.362158 207.732234 
L 133.861527 203.05621 
L 133.430171 198.382278 
L 132.653967 188.820598 
L 130.994296 166.953426 
L 130.452139 159.73336 
L 140.908861 159.618024 
L 142.293893 159.631893 
L 144.423565 159.653222 
L 160.980565 159.396943 
L 172.662271 159.339189 
L 202.860936 159.190554 
L 237.136751 158.805948 
L 238.673328 159.70178 
L 291.001257 159.667691 
L 320.425899 159.711037 
L 359.357582 158.761735 
L 371.995874 158.661999 
L 450.306374 158.519821 
L 506.97734 158.266365 
L 528.759048 158.158304 
L 606.957607 158.380984 
" style="stroke:#ffffff;stroke-linejoin:miter;stroke-width:2;"/>
   </g>
  </g>
 </g>
 <defs>
  <clipPath id="pbb23c740a1">
   <rect height="543.6" width="558" x="90" y="86.4"/>
  </clipPath>
 </defs>
</svg>
