<?xml version="1.0" encoding="utf-8" standalone="no"?>
<!DOCTYPE svg PUBLIC "-//W3C//DTD SVG 1.1//EN"
  "http://www.w3.org/Graphics/SVG/1.1/DTD/svg11.dtd">
<!-- Created with matplotlib (https://matplotlib.org/) -->
<svg height="720pt" version="1.1" viewBox="0 0 720 720" width="720pt" xmlns="http://www.w3.org/2000/svg" xmlns:xlink="http://www.w3.org/1999/xlink">
 <metadata>
  <rdf:RDF xmlns:cc="http://creativecommons.org/ns#" xmlns:dc="http://purl.org/dc/elements/1.1/" xmlns:rdf="http://www.w3.org/1999/02/22-rdf-syntax-ns#">
   <cc:Work>
    <dc:type rdf:resource="http://purl.org/dc/dcmitype/StillImage"/>
    <dc:date>2021-05-28T08:56:49.952662</dc:date>
    <dc:format>image/svg+xml</dc:format>
    <dc:creator>
     <cc:Agent>
      <dc:title>Matplotlib v3.3.3, https://matplotlib.org/</dc:title>
     </cc:Agent>
    </dc:creator>
   </cc:Work>
  </rdf:RDF>
 </metadata>
 <defs>
  <style type="text/css">*{stroke-linecap:butt;stroke-linejoin:round;}</style>
 </defs>
 <g id="figure_1">
  <g id="patch_1">
   <path d="M 0 720 
L 720 720 
L 720 0 
L 0 0 
z
" style="fill:none;"/>
  </g>
  <g id="axes_1">
   <g id="patch_2">
    <path clip-path="url(#p7f2907d853)" d="M 606.886103 154.243627 
L 606.837366 208.294167 
L 606.771602 280.307582 
L 606.743089 354.871293 
L 606.742457 365.591037 
L 606.729927 387.572199 
L 606.73244 394.71203 
L 606.737473 401.621198 
L 606.736922 401.833544 
L 606.729215 401.855489 
L 598.996141 423.866738 
L 598.627269 424.920405 
L 585.368231 462.660727 
L 583.439871 468.334998 
L 581.629486 474.041459 
L 579.937681 479.778075 
L 578.36512 485.542773 
L 576.912307 491.333518 
L 575.579789 497.148238 
L 574.260993 503.526416 
L 572.971698 510.140245 
L 567.057793 540.479975 
L 563.317489 559.670562 
L 563.299307 559.763032 
L 561.947272 566.774212 
L 561.752095 567.701585 
L 561.423051 569.553746 
L 448.111253 570.183587 
L 387.314397 570.420314 
L 387.40718 503.912656 
L 387.166847 495.022469 
L 385.856738 483.989921 
L 383.244218 471.771847 
L 378.156544 456.708061 
L 373.495265 446.122625 
L 368.640131 437.376269 
L 362.124862 427.889537 
L 355.088717 418.284564 
L 347.141744 409.154816 
L 334.065876 393.054504 
L 326.003543 398.353427 
L 316.119685 404.849675 
L 306.235987 411.346029 
L 296.352408 417.842453 
L 293.636066 419.596145 
L 290.887449 421.307536 
L 288.107301 422.976129 
L 285.296464 424.601439 
L 282.45574 426.182985 
L 279.585932 427.720355 
L 273.937176 429.936224 
L 266.330335 432.80773 
L 257.354724 436.119828 
L 246.134679 439.591119 
L 235.259233 442.222833 
L 225.131482 444.224483 
L 215.23346 445.701408 
L 205.852927 446.600879 
L 196.447527 447.219405 
L 176.05151 447.334227 
L 169.932867 447.535097 
L 166.176189 448.02755 
L 136.700753 452.257849 
L 132.45668 429.126433 
L 131.267216 419.587609 
L 131.110535 410.854071 
L 131.689938 401.179327 
L 133.743579 391.503287 
L 136.535396 382.767162 
L 139.329086 375.777777 
L 141.682108 370.266793 
L 141.920761 369.814811 
L 142.035007 371.495693 
L 163.522884 334.601434 
L 171.256084 318.510774 
L 174.691255 309.485093 
L 177.691571 296.144542 
L 177.244338 279.668541 
L 172.919624 260.842034 
L 165.581893 243.194984 
L 162.985154 230.25148 
L 162.111482 218.091085 
L 162.953712 199.652514 
L 162.955624 188.660772 
L 178.334144 190.609713 
L 191.489466 192.277072 
L 201.545628 193.551744 
L 217.518079 195.57653 
L 224.054338 196.024124 
L 232.890008 196.629223 
L 246.271374 197.032179 
L 261.62676 196.908245 
L 275.245911 196.273443 
L 287.231667 195.304146 
L 294.941033 194.409217 
L 301.289608 193.672297 
L 310.903186 192.244625 
L 321.505227 190.371774 
L 332.212275 188.156975 
L 346.972193 184.557605 
L 364.183678 179.984003 
L 380.218074 175.72346 
L 397.863458 171.035194 
L 416.360906 166.120873 
L 429.356849 162.668386 
L 440.107007 159.942042 
L 448.151836 158.071539 
L 448.41888 158.009448 
L 460.438046 155.480628 
L 480.042729 152.016506 
L 497.793531 149.571949 
L 516.510761 147.693266 
L 524.565621 147.103131 
L 532.497172 146.649535 
L 542.241761 146.264911 
L 556.472796 146.044185 
L 606.889465 145.979686 
L 606.886103 154.243627 
" style="fill:#1a1a1a;stroke:#ffffff;stroke-linejoin:miter;stroke-width:4;"/>
   </g>
  </g>
 </g>
 <defs>
  <clipPath id="p7f2907d853">
   <rect height="543.6" width="558" x="90" y="86.4"/>
  </clipPath>
 </defs>
</svg>
