<?xml version="1.0" encoding="utf-8" standalone="no"?>
<!DOCTYPE svg PUBLIC "-//W3C//DTD SVG 1.1//EN"
  "http://www.w3.org/Graphics/SVG/1.1/DTD/svg11.dtd">
<!-- Created with matplotlib (https://matplotlib.org/) -->
<svg height="720pt" version="1.1" viewBox="0 0 720 720" width="720pt" xmlns="http://www.w3.org/2000/svg" xmlns:xlink="http://www.w3.org/1999/xlink">
 <metadata>
  <rdf:RDF xmlns:cc="http://creativecommons.org/ns#" xmlns:dc="http://purl.org/dc/elements/1.1/" xmlns:rdf="http://www.w3.org/1999/02/22-rdf-syntax-ns#">
   <cc:Work>
    <dc:type rdf:resource="http://purl.org/dc/dcmitype/StillImage"/>
    <dc:date>2021-05-07T11:02:59.274508</dc:date>
    <dc:format>image/svg+xml</dc:format>
    <dc:creator>
     <cc:Agent>
      <dc:title>Matplotlib v3.3.3, https://matplotlib.org/</dc:title>
     </cc:Agent>
    </dc:creator>
   </cc:Work>
  </rdf:RDF>
 </metadata>
 <defs>
  <style type="text/css">*{stroke-linecap:butt;stroke-linejoin:round;}</style>
 </defs>
 <g id="figure_1">
  <g id="patch_1">
   <path d="M 0 720 
L 720 720 
L 720 0 
L 0 0 
z
" style="fill:none;"/>
  </g>
  <g id="axes_1">
   <g id="patch_2">
    <path clip-path="url(#p7e19937ad5)" d="M 145.484949 154.689787 
L 512.203996 155.363234 
L 520.011416 154.889353 
L 536.362366 154.902048 
L 539.64413 157.449764 
L 539.667217 157.469182 
L 541.202718 159.591012 
L 544.316193 163.893411 
L 547.61594 169.624747 
L 548.168068 170.583711 
L 549.067403 172.145789 
L 552.779007 179.660775 
L 553.716506 181.558935 
L 553.970931 182.074083 
L 554.023196 182.197607 
L 554.188303 182.587724 
L 557.197576 189.698148 
L 561.109874 198.942376 
L 561.222153 199.281166 
L 562.282301 202.480259 
L 562.299049 202.527396 
L 562.861745 204.098174 
L 563.375373 205.532041 
L 564.32489 208.316199 
L 565.119482 210.765943 
L 566.350193 214.450137 
L 567.811817 218.980007 
L 569.324922 223.942089 
L 570.583621 228.57806 
L 571.792227 233.295238 
L 571.871403 233.601245 
L 572.853464 237.099617 
L 572.966641 237.62106 
L 573.235043 238.857779 
L 573.436265 239.632173 
L 574.260372 243.118204 
L 574.388959 243.853951 
L 575.187152 247.174954 
L 575.933665 250.53051 
L 576.760042 254.841982 
L 577.22321 257.304443 
L 577.921851 261.451049 
L 578.37638 264.246626 
L 579.47991 270.504835 
L 579.572838 271.150261 
L 582.943851 294.563379 
L 584.297942 304.682912 
L 585.948732 317.019816 
L 585.977655 317.208373 
L 586.560543 321.410197 
L 586.68021 322.261435 
L 589.558239 338.214606 
L 592.263765 353.211992 
L 593.202043 362.33996 
L 593.296156 362.832832 
L 593.504804 364.901839 
L 593.920074 368.287363 
L 594.305747 371.236911 
L 594.378994 372.802991 
L 594.839135 376.673516 
L 595.01229 386.011784 
L 593.715315 397.98662 
L 591.973913 411.789616 
L 591.690847 414.03342 
L 587.888829 428.287519 
L 582.533771 445.347689 
L 582.323741 446.016844 
L 579.622952 453.052358 
L 576.896728 460.154182 
L 569.556757 476.928949 
L 568.52872 478.914056 
L 559.565067 496.222761 
L 554.179592 506.133841 
L 550.727227 512.487441 
L 549.386599 514.95473 
L 537.870832 536.148656 
L 537.202446 536.206517 
L 534.893371 536.40642 
L 421.012789 546.269346 
L 395.672514 548.46515 
L 238.271019 557.481472 
L 156.533737 560.711971 
L 146.691636 561.444736 
L 143.126344 561.710213 
L 143.098652 546.820438 
L 143.091401 542.93191 
L 143.065437 528.67944 
L 143.055589 523.469895 
L 143.03669 513.27938 
L 143.029935 509.636697 
L 142.98771 487.178396 
L 142.987922 485.122294 
L 142.988126 483.063184 
L 142.988557 479.738301 
L 142.992885 446.197123 
L 142.997237 412.655953 
L 143.005538 348.404577 
L 143.009355 318.878472 
L 143.028198 168.533363 
L 143.029581 158.55657 
L 143.030023 154.690486 
L 145.484949 154.689787 
" style="stroke:#ffffff;stroke-linejoin:miter;stroke-width:2;"/>
   </g>
  </g>
 </g>
 <defs>
  <clipPath id="p7e19937ad5">
   <rect height="543.6" width="558" x="90" y="86.4"/>
  </clipPath>
 </defs>
</svg>
