<?xml version="1.0" encoding="utf-8" standalone="no"?>
<!DOCTYPE svg PUBLIC "-//W3C//DTD SVG 1.1//EN"
  "http://www.w3.org/Graphics/SVG/1.1/DTD/svg11.dtd">
<!-- Created with matplotlib (https://matplotlib.org/) -->
<svg height="720pt" version="1.1" viewBox="0 0 720 720" width="720pt" xmlns="http://www.w3.org/2000/svg" xmlns:xlink="http://www.w3.org/1999/xlink">
 <metadata>
  <rdf:RDF xmlns:cc="http://creativecommons.org/ns#" xmlns:dc="http://purl.org/dc/elements/1.1/" xmlns:rdf="http://www.w3.org/1999/02/22-rdf-syntax-ns#">
   <cc:Work>
    <dc:type rdf:resource="http://purl.org/dc/dcmitype/StillImage"/>
    <dc:date>2021-05-28T08:56:53.727565</dc:date>
    <dc:format>image/svg+xml</dc:format>
    <dc:creator>
     <cc:Agent>
      <dc:title>Matplotlib v3.3.3, https://matplotlib.org/</dc:title>
     </cc:Agent>
    </dc:creator>
   </cc:Work>
  </rdf:RDF>
 </metadata>
 <defs>
  <style type="text/css">*{stroke-linecap:butt;stroke-linejoin:round;}</style>
 </defs>
 <g id="figure_1">
  <g id="patch_1">
   <path d="M 0 720 
L 720 720 
L 720 0 
L 0 0 
z
" style="fill:none;"/>
  </g>
  <g id="axes_1">
   <g id="patch_2">
    <path clip-path="url(#p91a9110537)" d="M 590.976858 413.796051 
L 590.367359 558.714123 
L 437.546726 558.4999 
L 366.272447 558.572795 
L 316.887041 558.608994 
L 302.01347 558.459765 
L 293.640167 557.6965 
L 285.627298 556.361589 
L 277.095054 553.885145 
L 270.163793 550.957708 
L 263.3859 547.336526 
L 255.881001 542.206923 
L 233.473989 524.525612 
L 227.097204 520.055176 
L 220.420542 515.658859 
L 213.125048 511.834649 
L 207.423375 509.297887 
L 204.899665 508.175026 
L 197.192648 505.208221 
L 189.176913 502.813078 
L 181.679479 501.069946 
L 174.18268 499.61243 
L 166.738723 498.644411 
L 160.691627 498.327092 
L 154.431373 498.418955 
L 149.872504 498.327935 
L 147.112928 498.336271 
L 147.112243 488.495781 
L 147.11099 470.458198 
L 147.09045 298.636742 
L 147.023142 160.021017 
L 149.840889 157.712352 
L 167.427786 157.685877 
L 167.434416 160.437714 
L 174.560982 160.583253 
L 185.053487 161.036257 
L 195.548536 162.582842 
L 208.228361 167.250718 
L 219.923061 173.951047 
L 234.790941 183.302572 
L 235.646664 183.939329 
L 241.292728 187.480189 
L 248.078042 191.54183 
L 253.612712 194.575724 
L 261.348288 198.355216 
L 270.867398 202.366185 
L 279.789933 205.442081 
L 292.502914 209.253291 
L 305.481313 212.003993 
L 319.155748 213.856553 
L 335.444218 215.237551 
L 349.236569 216.715793 
L 364.338787 219.221887 
L 376.112964 221.919902 
L 387.294609 225.461206 
L 399.549325 230.498668 
L 408.473711 234.698382 
L 418.828157 240.580968 
L 427.875557 246.746161 
L 441.211359 257.211144 
L 455.261096 268.143264 
L 462.760214 273.093949 
L 472.161906 278.416521 
L 483.346847 283.923975 
L 494.529698 288.495543 
L 505.115768 291.944767 
L 514.868007 294.552768 
L 526.759101 296.877245 
L 540.550789 298.637751 
L 552.147187 299.343567 
L 590.644373 299.416596 
L 590.879699 364.880756 
L 590.976858 413.796051 
" style="fill:#1a1a1a;stroke:#ffffff;stroke-linejoin:miter;stroke-width:4;"/>
   </g>
  </g>
 </g>
 <defs>
  <clipPath id="p91a9110537">
   <rect height="543.6" width="558" x="90" y="86.4"/>
  </clipPath>
 </defs>
</svg>
