<?xml version="1.0" encoding="utf-8" standalone="no"?>
<!DOCTYPE svg PUBLIC "-//W3C//DTD SVG 1.1//EN"
  "http://www.w3.org/Graphics/SVG/1.1/DTD/svg11.dtd">
<!-- Created with matplotlib (https://matplotlib.org/) -->
<svg height="720pt" version="1.1" viewBox="0 0 720 720" width="720pt" xmlns="http://www.w3.org/2000/svg" xmlns:xlink="http://www.w3.org/1999/xlink">
 <metadata>
  <rdf:RDF xmlns:cc="http://creativecommons.org/ns#" xmlns:dc="http://purl.org/dc/elements/1.1/" xmlns:rdf="http://www.w3.org/1999/02/22-rdf-syntax-ns#">
   <cc:Work>
    <dc:type rdf:resource="http://purl.org/dc/dcmitype/StillImage"/>
    <dc:date>2021-05-07T11:03:02.521687</dc:date>
    <dc:format>image/svg+xml</dc:format>
    <dc:creator>
     <cc:Agent>
      <dc:title>Matplotlib v3.3.3, https://matplotlib.org/</dc:title>
     </cc:Agent>
    </dc:creator>
   </cc:Work>
  </rdf:RDF>
 </metadata>
 <defs>
  <style type="text/css">*{stroke-linecap:butt;stroke-linejoin:round;}</style>
 </defs>
 <g id="figure_1">
  <g id="patch_1">
   <path d="M 0 720 
L 720 720 
L 720 0 
L 0 0 
z
" style="fill:none;"/>
  </g>
  <g id="axes_1">
   <g id="patch_2">
    <path clip-path="url(#p73027ce915)" d="M 358.35249 158.116188 
L 366.951049 189.157091 
L 372.529623 207.207364 
L 388.596309 253.523352 
L 417.65478 327.410716 
L 421.586772 327.40744 
L 421.768261 327.366415 
L 421.948955 327.319759 
L 422.12884 327.26741 
L 422.307806 327.209366 
L 422.57434 327.11175 
L 422.750629 327.039675 
L 423.012697 326.921152 
L 423.274077 326.789435 
L 423.532019 326.645278 
L 423.786198 326.488875 
L 424.036318 326.320397 
L 424.282085 326.140039 
L 424.523189 325.948037 
L 424.759349 325.744627 
L 424.990303 325.530047 
L 425.215738 325.304511 
L 425.435424 325.068342 
L 425.649064 324.82182 
L 425.85641 324.565202 
L 426.05723 324.298812 
L 426.251276 324.022993 
L 426.438314 323.738025 
L 426.618127 323.444294 
L 428.687164 319.943719 
L 429.392624 318.750845 
L 437.881688 304.39945 
L 438.377095 303.645594 
L 438.926142 302.96674 
L 439.522946 302.370071 
L 440.161144 301.861976 
L 440.833873 301.447897 
L 441.533928 301.132288 
L 442.253812 300.918508 
L 442.985805 300.808862 
L 443.722066 300.80454 
L 444.454705 300.905546 
L 445.17588 301.110835 
L 445.877855 301.418198 
L 446.553097 301.824333 
L 447.194399 302.324882 
L 447.794847 302.91452 
L 448.348056 303.58687 
L 459.557938 318.730876 
L 463.617488 318.726928 
L 470.514144 318.723788 
L 477.397227 318.720739 
L 494.349318 318.708551 
L 494.610368 318.708367 
L 494.518229 318.913194 
L 494.310067 319.615631 
L 494.281833 320.118939 
L 494.396662 320.762307 
L 494.583291 321.513916 
L 494.793836 322.309134 
L 495.137904 323.025839 
L 495.726247 323.695524 
L 496.248897 323.972622 
L 496.802922 324.22737 
L 497.334479 324.657261 
L 497.695057 325.472168 
L 497.840918 326.049517 
L 498.082494 326.778739 
L 498.324738 327.595233 
L 498.58281 328.422441 
L 498.776193 329.010073 
L 498.947457 329.838437 
L 499.070042 330.470819 
L 499.240986 331.233616 
L 499.436008 332.061727 
L 499.654475 332.878647 
L 499.855792 333.466059 
L 500.024924 333.988593 
L 500.25016 334.630381 
L 500.418973 335.087154 
L 500.660215 335.761576 
L 500.973256 336.544282 
L 501.286282 337.327182 
L 501.606415 338.011456 
L 501.863328 338.652772 
L 502.136745 339.414231 
L 502.378005 340.099614 
L 502.682452 340.784093 
L 503.002428 341.424743 
L 503.362309 342.141228 
L 503.761668 342.868194 
L 504.240711 343.692479 
L 504.61631 344.419699 
L 504.952927 345.180234 
L 505.257534 345.886657 
L 505.569742 346.570939 
L 505.905395 347.200384 
L 506.264465 347.785778 
L 506.663642 348.490847 
L 506.991517 349.131257 
L 507.262657 349.575734 
L 507.717275 350.291082 
L 508.282974 351.103062 
L 508.855913 351.838531 
L 509.278206 352.444945 
L 509.748354 353.127189 
L 510.306123 353.961311 
L 510.824599 354.784931 
L 511.310562 355.488849 
L 511.875441 356.191683 
L 512.34526 356.830303 
L 512.799371 357.490854 
L 513.373309 358.346459 
L 513.930413 359.071414 
L 514.542959 359.806218 
L 515.14016 360.628929 
L 515.358765 361.445855 
L 515.537462 362.219396 
L 515.802777 362.94818 
L 516.091534 363.654834 
L 516.373033 364.437978 
L 516.598416 365.101693 
L 517.030081 365.937389 
L 517.524621 366.728795 
L 518.120836 367.409242 
L 518.573985 367.916786 
L 518.8682 368.25165 
L 519.299207 368.989137 
L 519.777909 369.791515 
L 520.33567 370.603727 
L 520.838296 371.438542 
L 521.269133 372.143171 
L 521.85031 372.911313 
L 522.376045 373.669392 
L 522.862019 374.36236 
L 523.379337 375.033 
L 523.944838 375.834229 
L 524.455208 376.6252 
L 524.909323 377.296721 
L 525.347588 377.935802 
L 525.929266 378.780455 
L 526.486677 379.549047 
L 527.098885 380.262159 
L 527.664702 381.096079 
L 528.159065 381.865358 
L 528.621587 382.613362 
L 529.100281 383.382867 
L 529.712488 384.106942 
L 530.26213 384.875543 
L 530.715089 385.361391 
L 531.215758 385.912088 
L 531.502385 386.290805 
L 531.798553 386.920719 
L 532.308595 387.689778 
L 532.77919 388.448525 
L 533.210508 389.240629 
L 533.538863 389.957582 
L 533.994271 390.814981 
L 534.543748 391.572626 
L 535.036957 392.167194 
L 535.594196 392.924814 
L 536.127678 393.63906 
L 536.644963 394.30969 
L 537.256515 394.913426 
L 537.749234 395.44245 
L 538.360938 396.090028 
L 538.909439 396.683705 
L 539.498521 397.484526 
L 540.046537 398.023618 
L 540.578536 398.54123 
L 541.158882 399.178085 
L 541.730646 399.738869 
L 542.15902 400.104609 
L 542.6186 400.404568 
L 543.117927 400.736524 
L 543.640872 401.068251 
L 544.203428 401.44315 
L 544.623387 401.721644 
L 545.09072 401.98872 
L 545.620922 402.243723 
L 546.230178 402.497818 
L 546.808084 402.80697 
L 547.330362 403.051449 
L 547.883843 403.218758 
L 548.468204 403.320094 
L 548.871189 403.402156 
L 549.345619 403.581571 
L 549.891829 403.836353 
L 550.279468 404.006129 
L 550.872393 404.183733 
L 551.449305 404.350816 
L 551.899977 404.486815 
L 552.492909 404.686576 
L 552.919823 404.822805 
L 553.520817 405.033287 
L 553.987331 405.180023 
L 554.548254 405.314475 
L 555.108841 405.372399 
L 555.715979 405.320479 
L 556.236642 405.324294 
L 556.79722 405.40414 
L 557.373488 405.451097 
L 557.958329 405.607029 
L 558.534765 405.697613 
L 559.111195 405.766277 
L 559.67857 405.68217 
L 560.112262 405.643467 
L 560.672362 405.635851 
L 561.074863 405.663143 
L 561.643198 405.72109 
L 562.258421 405.701838 
L 562.865724 405.682613 
L 563.283742 405.677017 
L 563.828325 405.702293 
L 564.381158 405.793348 
L 564.988788 405.82869 
L 565.588311 405.809665 
L 566.11657 405.769643 
L 566.502904 405.742577 
L 567.101961 405.668969 
L 567.440931 405.631615 
L 568.000708 405.580165 
L 568.551591 405.386905 
L 569.063681 405.281542 
L 569.599697 405.219814 
L 570.009142 405.10484 
L 570.450268 405.000594 
L 570.836453 404.94065 
L 571.451502 404.910448 
L 571.925121 404.936847 
L 572.485061 404.907343 
L 573.060522 404.85589 
L 573.446854 404.817868 
L 573.91223 404.800669 
L 574.464088 404.749445 
L 574.897622 404.699792 
L 575.402117 404.638281 
L 575.867335 404.610102 
L 576.458635 404.558449 
L 577.065771 404.495591 
L 577.664829 404.4218 
L 578.129724 404.349997 
L 578.744294 404.221397 
L 579.286611 403.929918 
L 579.781256 403.58431 
L 580.379016 403.313883 
L 580.953502 403.109446 
L 581.402391 402.994029 
L 581.772558 402.901436 
L 582.347365 402.729859 
L 582.89051 402.558515 
L 583.46483 402.31024 
L 583.614173 402.231717 
L 584.101221 401.919019 
L 584.611857 401.606072 
L 585.051544 401.294024 
L 585.624895 400.914659 
L 586.166091 400.437293 
L 586.650373 399.731106 
L 586.961382 399.049276 
L 587.224381 398.269476 
L 587.448261 397.534182 
L 587.695422 396.754799 
L 588.053614 396.039441 
L 588.672566 395.407948 
L 589.034171 395.228112 
L 589.482753 395.058115 
L 589.955085 394.909596 
L 590.380375 394.79465 
L 590.813426 394.668482 
L 591.285922 394.552866 
L 591.884661 394.424482 
L 592.388996 394.330105 
L 592.814454 394.258786 
L 593.232313 394.220309 
L 593.626729 394.204239 
L 594.084516 394.241603 
L 594.605672 394.322173 
L 595.16675 394.456642 
L 595.743654 394.601849 
L 596.320579 394.768998 
L 596.739734 394.927399 
L 597.167115 395.129206 
L 597.555067 395.320719 
L 597.998795 395.620731 
L 598.45851 395.9534 
L 598.886554 396.25385 
L 599.346589 396.619163 
L 599.806316 396.940895 
L 600.385326 397.414051 
L 600.861214 397.779379 
L 601.281161 398.057915 
L 601.85129 398.367105 
L 602.420938 398.621945 
L 602.926881 398.789976 
L 603.527556 398.934963 
L 604.041272 399.08107 
L 604.562892 399.226959 
L 605.155975 399.43752 
L 605.756977 399.648055 
L 606.224769 400.002432 
L 606.795692 400.442955 
L 607.210641 401.147849 
L 607.610689 401.995255 
L 608.148294 403.343323 
L 608.43683 404.006397 
L 608.732956 404.658056 
L 608.934998 405.376835 
L 609.051045 406.217058 
L 608.506297 406.147877 
L 607.923885 406.341567 
L 607.731837 407.120248 
L 607.822832 407.763844 
L 607.881656 408.298715 
L 607.507917 409.036226 
L 606.997279 409.349153 
L 606.548226 409.43167 
L 606.09029 409.394275 
L 605.474421 409.315032 
L 605.000814 409.266685 
L 604.456231 409.23041 
L 604.132942 409.256559 
L 603.612925 409.340189 
L 603.171637 409.422683 
L 602.738268 409.50498 
L 602.297135 409.587496 
L 601.706651 409.781175 
L 601.204401 410.159649 
L 600.916667 410.797618 
L 601.071994 411.593334 
L 601.660534 412.306988 
L 602.269939 412.604767 
L 602.696038 412.631861 
L 603.113887 412.582453 
L 603.610621 412.54289 
L 604.044312 412.504241 
L 604.469927 412.46579 
L 604.958898 412.426447 
L 605.439794 412.387108 
L 605.897248 412.369918 
L 606.275968 412.386723 
L 606.773347 412.434629 
L 607.168083 412.473153 
L 607.752433 412.574527 
L 608.163317 412.667394 
L 608.748309 412.845275 
L 609.246338 413.00257 
L 609.712683 413.138412 
L 610.131826 413.285862 
L 610.693044 413.463972 
L 611.262194 413.631355 
L 611.840377 413.962471 
L 612.412748 414.632497 
L 612.969271 415.269887 
L 613.557798 415.972356 
L 614.1064 416.609945 
L 614.249456 416.771912 
L 614.703334 417.399878 
L 614.21711 417.843664 
L 613.616116 417.622138 
L 613.064265 417.684285 
L 612.926849 418.363887 
L 613.192254 419.136555 
L 613.694461 419.905689 
L 614.28153 420.389837 
L 614.757249 420.754962 
L 615.281116 421.229021 
L 615.215794 422.082444 
L 614.846438 422.295148 
L 614.440537 422.956379 
L 614.447159 423.102168 
L 482.675423 516.594191 
L 441.315132 546.536496 
L 432.402662 552.062037 
L 426.706137 555.003828 
L 421.933222 556.567554 
L 416.267528 557.681797 
L 410.512264 558.175908 
L 375.874415 558.283812 
L 333.477425 558.190776 
L 263.858886 558.08276 
L 254.767478 558.076788 
L 250.350443 557.763031 
L 246.025149 557.003038 
L 240.894294 555.542842 
L 201.82944 537.817435 
L 197.564037 536.408757 
L 191.950209 535.304734 
L 186.300482 535.059188 
L 160.898655 535.081473 
L 122.718884 534.849979 
L 123.305012 187.034292 
L 162.647973 187.059411 
L 177.728946 186.995183 
L 187.386109 186.991625 
L 187.989117 187.025933 
L 188.803712 186.99377 
L 201.377658 186.978826 
L 203.692191 187.002037 
L 208.420933 187.091564 
L 216.109868 187.097267 
L 237.564744 187.140921 
L 246.137959 187.184691 
L 250.064184 187.123764 
L 258.333865 187.130489 
L 298.988482 186.930617 
L 299.942205 186.889438 
L 301.06794 186.796785 
L 302.338139 186.659928 
L 303.518203 186.511111 
L 304.481121 186.354698 
L 305.972855 186.065725 
L 307.524872 185.67094 
L 308.448508 185.390165 
L 308.900036 185.24881 
L 309.709281 184.990118 
L 310.52846 184.719123 
L 311.412578 184.365304 
L 313.219148 183.599347 
L 314.715154 182.860789 
L 316.08968 182.159773 
L 317.420006 181.400973 
L 320.907398 179.346643 
L 358.35249 158.116188 
" style="stroke:#ffffff;stroke-linejoin:miter;stroke-width:2;"/>
   </g>
  </g>
 </g>
 <defs>
  <clipPath id="p73027ce915">
   <rect height="543.6" width="558" x="90" y="86.4"/>
  </clipPath>
 </defs>
</svg>
