<?xml version="1.0" encoding="utf-8" standalone="no"?>
<!DOCTYPE svg PUBLIC "-//W3C//DTD SVG 1.1//EN"
  "http://www.w3.org/Graphics/SVG/1.1/DTD/svg11.dtd">
<!-- Created with matplotlib (https://matplotlib.org/) -->
<svg height="720pt" version="1.1" viewBox="0 0 720 720" width="720pt" xmlns="http://www.w3.org/2000/svg" xmlns:xlink="http://www.w3.org/1999/xlink">
 <metadata>
  <rdf:RDF xmlns:cc="http://creativecommons.org/ns#" xmlns:dc="http://purl.org/dc/elements/1.1/" xmlns:rdf="http://www.w3.org/1999/02/22-rdf-syntax-ns#">
   <cc:Work>
    <dc:type rdf:resource="http://purl.org/dc/dcmitype/StillImage"/>
    <dc:date>2021-05-07T11:02:58.342640</dc:date>
    <dc:format>image/svg+xml</dc:format>
    <dc:creator>
     <cc:Agent>
      <dc:title>Matplotlib v3.3.3, https://matplotlib.org/</dc:title>
     </cc:Agent>
    </dc:creator>
   </cc:Work>
  </rdf:RDF>
 </metadata>
 <defs>
  <style type="text/css">*{stroke-linecap:butt;stroke-linejoin:round;}</style>
 </defs>
 <g id="figure_1">
  <g id="patch_1">
   <path d="M 0 720 
L 720 720 
L 720 0 
L 0 0 
z
" style="fill:none;"/>
  </g>
  <g id="axes_1">
   <g id="patch_2">
    <path clip-path="url(#pca152672a8)" d="M 270.427783 147.384045 
L 355.916625 147.666016 
L 357.799637 146.351258 
L 358.904946 145.787955 
L 476.104714 145.517578 
L 492.337095 145.481864 
L 492.714509 159.804515 
L 492.764694 161.691703 
L 492.84944 164.532462 
L 492.917913 167.275962 
L 493.03515 170.27232 
L 493.096991 172.067793 
L 493.385433 177.643929 
L 493.782488 184.020863 
L 494.249698 190.142557 
L 494.858815 196.859205 
L 496.383228 210.181692 
L 497.821934 220.097065 
L 499.324027 229.075143 
L 501.150525 238.521132 
L 503.431783 249.059552 
L 505.64592 257.958097 
L 507.417472 264.719298 
L 509.263507 271.250241 
L 511.339589 278.112975 
L 513.553218 284.864695 
L 514.659957 288.18517 
L 515.081552 289.460704 
L 515.590662 290.928547 
L 516.171438 292.513129 
L 516.822796 294.435848 
L 517.597183 296.569765 
L 518.442001 298.914988 
L 519.119558 300.768217 
L 565.897742 429.696309 
L 617.330132 571.49856 
L 609.206901 571.49334 
L 607.116391 571.490567 
L 596.008703 571.482782 
L 533.989818 571.573703 
L 534.023505 502.458401 
L 476.156279 502.586326 
L 355.31003 502.872555 
L 355.31317 442.445399 
L 354.300459 442.442679 
L 354.300781 434.63878 
L 353.574253 433.76144 
L 346.803127 433.743247 
L 346.803135 433.098764 
L 297.621665 432.943699 
L 270.507733 432.845215 
L 239.403489 432.744578 
L 191.012287 432.586609 
L 157.422412 432.649474 
L 157.420819 431.754818 
L 154.25215 431.742538 
L 123.301893 431.623468 
L 120.671134 431.613427 
L 120.669868 431.217024 
L 120.884916 288.649065 
L 121.105061 144.830881 
L 122.779156 144.826297 
L 239.430368 145.293459 
L 268.575966 145.41294 
L 270.427783 147.384045 
" style="stroke:#ffffff;stroke-linejoin:miter;stroke-width:2;"/>
   </g>
  </g>
 </g>
 <defs>
  <clipPath id="pca152672a8">
   <rect height="543.6" width="558" x="90" y="86.4"/>
  </clipPath>
 </defs>
</svg>
