<?xml version="1.0" encoding="utf-8" standalone="no"?>
<!DOCTYPE svg PUBLIC "-//W3C//DTD SVG 1.1//EN"
  "http://www.w3.org/Graphics/SVG/1.1/DTD/svg11.dtd">
<!-- Created with matplotlib (https://matplotlib.org/) -->
<svg height="720pt" version="1.1" viewBox="0 0 720 720" width="720pt" xmlns="http://www.w3.org/2000/svg" xmlns:xlink="http://www.w3.org/1999/xlink">
 <metadata>
  <rdf:RDF xmlns:cc="http://creativecommons.org/ns#" xmlns:dc="http://purl.org/dc/elements/1.1/" xmlns:rdf="http://www.w3.org/1999/02/22-rdf-syntax-ns#">
   <cc:Work>
    <dc:type rdf:resource="http://purl.org/dc/dcmitype/StillImage"/>
    <dc:date>2021-05-07T11:03:00.166853</dc:date>
    <dc:format>image/svg+xml</dc:format>
    <dc:creator>
     <cc:Agent>
      <dc:title>Matplotlib v3.3.3, https://matplotlib.org/</dc:title>
     </cc:Agent>
    </dc:creator>
   </cc:Work>
  </rdf:RDF>
 </metadata>
 <defs>
  <style type="text/css">*{stroke-linecap:butt;stroke-linejoin:round;}</style>
 </defs>
 <g id="figure_1">
  <g id="patch_1">
   <path d="M 0 720 
L 720 720 
L 720 0 
L 0 0 
z
" style="fill:none;"/>
  </g>
  <g id="axes_1">
   <g id="patch_2">
    <path clip-path="url(#pf4b838c56d)" d="M 563.402685 519.408803 
L 563.370203 524.213667 
L 453.288276 522.305324 
L 361.45987 522.395826 
L 249.428852 522.494159 
L 170.279254 522.444571 
L 173.911902 519.443013 
L 190.285708 505.82577 
L 190.343865 505.770773 
L 253.653928 453.143511 
L 364.392108 361.117985 
L 395.630771 335.160323 
L 481.328881 263.947219 
L 558.129659 200.141076 
L 561.270252 197.53204 
L 567.646668 192.186333 
L 567.67698 234.45748 
L 567.683909 248.423324 
L 567.71027 251.99162 
L 567.666497 271.587866 
L 567.692899 298.41455 
L 567.720746 339.016727 
L 567.709103 350.45445 
L 567.638726 354.851878 
L 567.650401 374.701264 
L 567.718537 429.260462 
L 567.663686 431.831111 
L 567.576366 434.973377 
L 567.376285 438.410147 
L 566.855713 441.998745 
L 565.950308 445.354228 
L 564.925683 447.900266 
L 563.910752 450.267367 
L 563.135134 453.510506 
L 562.592519 456.343558 
L 562.385144 458.969286 
L 562.298766 460.006755 
L 562.205162 463.690702 
L 562.170643 469.161258 
L 562.302759 479.17121 
L 562.501329 485.335114 
L 562.725436 493.506201 
L 562.782092 495.422776 
L 562.758504 509.168684 
L 563.402685 519.408803 
" style="stroke:#ffffff;stroke-linejoin:miter;stroke-width:2;"/>
   </g>
  </g>
 </g>
 <defs>
  <clipPath id="pf4b838c56d">
   <rect height="543.6" width="558" x="90" y="86.4"/>
  </clipPath>
 </defs>
</svg>
