<?xml version="1.0" encoding="utf-8" standalone="no"?>
<!DOCTYPE svg PUBLIC "-//W3C//DTD SVG 1.1//EN"
  "http://www.w3.org/Graphics/SVG/1.1/DTD/svg11.dtd">
<!-- Created with matplotlib (https://matplotlib.org/) -->
<svg height="720pt" version="1.1" viewBox="0 0 720 720" width="720pt" xmlns="http://www.w3.org/2000/svg" xmlns:xlink="http://www.w3.org/1999/xlink">
 <metadata>
  <rdf:RDF xmlns:cc="http://creativecommons.org/ns#" xmlns:dc="http://purl.org/dc/elements/1.1/" xmlns:rdf="http://www.w3.org/1999/02/22-rdf-syntax-ns#">
   <cc:Work>
    <dc:type rdf:resource="http://purl.org/dc/dcmitype/StillImage"/>
    <dc:date>2021-05-28T08:56:45.245582</dc:date>
    <dc:format>image/svg+xml</dc:format>
    <dc:creator>
     <cc:Agent>
      <dc:title>Matplotlib v3.3.3, https://matplotlib.org/</dc:title>
     </cc:Agent>
    </dc:creator>
   </cc:Work>
  </rdf:RDF>
 </metadata>
 <defs>
  <style type="text/css">*{stroke-linecap:butt;stroke-linejoin:round;}</style>
 </defs>
 <g id="figure_1">
  <g id="patch_1">
   <path d="M 0 720 
L 720 720 
L 720 0 
L 0 0 
z
" style="fill:none;"/>
  </g>
  <g id="axes_1">
   <g id="patch_2">
    <path clip-path="url(#pf364b49fa4)" d="M 377.945138 165.828874 
L 379.414884 203.127124 
L 382.116264 225.24123 
L 384.143175 242.642516 
L 387.846889 263.668647 
L 391.883506 283.244478 
L 403.306034 326.201656 
L 406.494104 334.566504 
L 406.740002 335.211692 
L 417.397665 363.175988 
L 426.78829 384.743968 
L 437.513406 403.229888 
L 447.23119 418.453302 
L 461.301739 437.663215 
L 487.426307 468.10794 
L 537.656596 521.022659 
L 551.722252 537.876386 
L 560.568044 549.87624 
L 177.431956 550.571126 
L 180.397353 516.714674 
L 180.408088 513.266557 
L 182.524104 488.490603 
L 186.152721 451.429529 
L 188.620859 426.223116 
L 191.004967 401.876278 
L 189.919669 392.867481 
L 188.919682 388.09401 
L 188.303287 386.567441 
L 182.345666 374.603945 
L 189.836154 377.780359 
L 189.897544 356.744486 
L 192.701017 356.743106 
L 192.796908 335.473184 
L 192.972218 296.702637 
L 260.692165 296.668401 
L 308.554036 258.275981 
L 308.14491 258.108459 
L 280.349762 246.726814 
L 298.761127 217.360839 
L 300.658576 206.847345 
L 293.719805 178.378781 
L 293.517621 177.542056 
L 293.503407 166.026345 
L 299.606268 166.06975 
L 312.245973 166.093874 
L 377.945138 165.828874 
" style="fill:#1a1a1a;stroke:#ffffff;stroke-linejoin:miter;stroke-width:4;"/>
   </g>
  </g>
 </g>
 <defs>
  <clipPath id="pf364b49fa4">
   <rect height="543.6" width="558" x="90" y="86.4"/>
  </clipPath>
 </defs>
</svg>
