<?xml version="1.0" encoding="utf-8" standalone="no"?>
<!DOCTYPE svg PUBLIC "-//W3C//DTD SVG 1.1//EN"
  "http://www.w3.org/Graphics/SVG/1.1/DTD/svg11.dtd">
<!-- Created with matplotlib (https://matplotlib.org/) -->
<svg height="720pt" version="1.1" viewBox="0 0 720 720" width="720pt" xmlns="http://www.w3.org/2000/svg" xmlns:xlink="http://www.w3.org/1999/xlink">
 <metadata>
  <rdf:RDF xmlns:cc="http://creativecommons.org/ns#" xmlns:dc="http://purl.org/dc/elements/1.1/" xmlns:rdf="http://www.w3.org/1999/02/22-rdf-syntax-ns#">
   <cc:Work>
    <dc:type rdf:resource="http://purl.org/dc/dcmitype/StillImage"/>
    <dc:date>2021-05-28T08:56:46.176386</dc:date>
    <dc:format>image/svg+xml</dc:format>
    <dc:creator>
     <cc:Agent>
      <dc:title>Matplotlib v3.3.3, https://matplotlib.org/</dc:title>
     </cc:Agent>
    </dc:creator>
   </cc:Work>
  </rdf:RDF>
 </metadata>
 <defs>
  <style type="text/css">*{stroke-linecap:butt;stroke-linejoin:round;}</style>
 </defs>
 <g id="figure_1">
  <g id="patch_1">
   <path d="M 0 720 
L 720 720 
L 720 0 
L 0 0 
z
" style="fill:none;"/>
  </g>
  <g id="axes_1">
   <g id="patch_2">
    <path clip-path="url(#peaf404d30e)" d="M 561.278327 219.057954 
L 559.555804 230.285293 
L 558.720364 235.931464 
L 557.96198 241.14788 
L 557.203367 246.133482 
L 556.038043 251.996444 
L 554.871565 256.843961 
L 553.148205 263.990582 
L 551.829056 269.022914 
L 550.926926 273.402447 
L 546.487306 290.789189 
L 541.599254 309.932414 
L 537.307995 326.807785 
L 532.658479 345.092279 
L 528.294465 355.797169 
L 525.355113 360.788043 
L 513.353924 375.916966 
L 501.617045 390.712973 
L 487.577739 408.411944 
L 486.810482 411.210391 
L 486.182402 414.390724 
L 485.869294 416.744027 
L 485.591222 419.001877 
L 485.384229 422.02283 
L 485.393604 425.195443 
L 485.374411 443.071693 
L 485.383315 460.66159 
L 485.391953 477.747535 
L 485.561099 494.950656 
L 485.737988 512.943981 
L 481.624837 512.603625 
L 474.82368 512.498471 
L 439.022983 512.747062 
L 425.729047 512.797831 
L 420.957218 512.949699 
L 396.784369 512.975698 
L 367.565331 512.952944 
L 367.630921 512.092179 
L 367.587161 510.880644 
L 367.346377 509.580245 
L 367.225163 508.742962 
L 366.827152 507.53215 
L 366.428768 506.303455 
L 366.031281 505.199564 
L 365.554797 504.113991 
L 365.435272 503.686644 
L 364.880169 502.672377 
L 364.444292 501.853625 
L 363.927637 500.572102 
L 363.54934 499.325467 
L 363.209722 497.989755 
L 362.791324 496.601173 
L 362.392759 495.265488 
L 361.994826 494.090446 
L 361.714507 492.79009 
L 361.119251 491.597688 
L 360.445797 490.441487 
L 359.535647 489.08951 
L 358.841946 487.86183 
L 358.18826 486.741027 
L 357.14018 485.389548 
L 356.033406 484.234473 
L 354.55251 482.973541 
L 353.209231 481.712148 
L 352.26016 480.538708 
L 351.508138 479.471315 
L 350.874118 478.279307 
L 349.648561 476.982023 
L 348.131552 476.54066 
L 346.829656 475.849775 
L 345.64419 474.65902 
L 344.438346 473.325949 
L 343.312109 472.117284 
L 342.283364 470.748221 
L 341.572062 470.037459 
L 340.327704 468.864655 
L 339.220244 467.495713 
L 337.779581 466.46658 
L 336.59535 465.667883 
L 335.311456 464.495509 
L 333.948872 463.34107 
L 332.508025 462.204634 
L 331.244651 461.317304 
L 329.745629 460.448461 
L 328.324814 459.4905 
L 326.902764 458.211639 
L 325.755803 456.878164 
L 324.413585 455.866468 
L 323.092428 455.282188 
L 321.791097 454.715806 
L 320.292136 453.900624 
L 319.147466 453.137698 
L 317.963643 452.339046 
L 316.581204 451.131335 
L 315.081103 450.012824 
L 313.818272 449.286147 
L 312.516801 448.648234 
L 311.254496 448.028479 
L 309.754389 446.909971 
L 308.313725 445.934159 
L 307.149776 445.224914 
L 305.946856 444.675934 
L 304.70484 444.162801 
L 303.226391 443.632355 
L 301.846854 443.137608 
L 300.408123 442.749846 
L 299.047245 442.005399 
L 297.863604 441.385251 
L 296.503237 440.765611 
L 295.182589 440.288302 
L 293.724018 439.847298 
L 292.600333 439.40488 
L 291.200985 438.910125 
L 289.959079 438.486072 
L 288.756742 438.061941 
L 287.49488 437.495536 
L 286.213346 437.000306 
L 284.931765 436.469693 
L 283.669868 435.849638 
L 282.249042 434.944974 
L 281.085076 434.235742 
L 279.585596 433.349085 
L 278.323127 432.622042 
L 276.961638 431.75277 
L 275.500712 430.687931 
L 273.981342 429.712193 
L 272.481173 428.576212 
L 270.981781 427.761063 
L 269.795607 426.392243 
L 269.222713 425.752188 
L 267.918872 424.526573 
L 266.695645 423.853182 
L 265.3138 422.84118 
L 264.20669 421.50808 
L 262.804417 420.264656 
L 261.541955 419.555543 
L 260.200373 418.77533 
L 258.720106 417.782026 
L 257.497244 417.126174 
L 256.195262 416.399573 
L 254.715401 415.42384 
L 253.472325 414.696826 
L 252.347248 413.844806 
L 251.200736 412.618361 
L 250.074027 411.39221 
L 248.927995 410.236917 
L 247.978931 409.117211 
L 246.89113 407.748294 
L 245.764231 406.414839 
L 244.893886 405.330465 
L 243.984309 404.210331 
L 243.290473 402.964803 
L 242.655918 401.737058 
L 241.883245 400.402546 
L 241.387257 399.299173 
L 240.063007 397.912988 
L 239.404751 396.901672 
L 238.167736 395.827491 
L 237.539539 395.290605 
L 236.934015 394.040387 
L 235.934614 392.681932 
L 234.638684 391.607819 
L 233.263751 390.550978 
L 231.827518 390.046834 
L 230.292575 389.631206 
L 229.387311 389.41406 
L 227.931712 388.89174 
L 226.870449 388.246244 
L 225.612517 387.475077 
L 224.571056 386.829561 
L 223.451171 386.112595 
L 222.31113 385.395302 
L 220.817745 384.480975 
L 219.459977 384.083707 
L 217.943874 383.846559 
L 216.645365 383.449612 
L 215.170041 382.963056 
L 213.869404 382.993936 
L 212.372534 382.935264 
L 211.093716 382.484961 
L 209.560839 381.605753 
L 208.203888 380.959196 
L 206.768558 380.276609 
L 205.530113 379.594853 
L 204.390439 378.842151 
L 203.014115 378.231037 
L 201.539175 377.49481 
L 200.242458 376.687967 
L 199.436999 376.061133 
L 197.923515 375.200146 
L 196.566917 374.535712 
L 195.367394 373.978758 
L 193.87278 373.313745 
L 192.653538 372.792268 
L 191.33642 372.092339 
L 190.137133 371.428467 
L 188.603948 370.620776 
L 187.384957 369.974813 
L 185.851695 369.113471 
L 184.456408 368.253061 
L 183.237702 367.535526 
L 182.058225 366.907405 
L 180.702154 366.100255 
L 179.207806 365.328331 
L 177.850891 364.75298 
L 176.513943 364.071037 
L 175.079101 363.227896 
L 174.017203 362.707302 
L 172.680841 361.864752 
L 171.58989 360.938286 
L 278.367294 284.763134 
L 317.198515 255.9833 
L 326.136079 251.538734 
L 346.604956 255.35434 
L 349.066372 260.283261 
L 356.298274 257.708318 
L 364.854037 254.144855 
L 372.84242 250.240044 
L 382.753431 244.540043 
L 392.500563 230.985435 
L 395.13243 229.810393 
L 403.095694 229.810195 
L 404.11836 231.142434 
L 419.659334 221.398657 
L 434.136632 212.319517 
L 434.137177 212.135728 
L 435.78333 211.976453 
L 442.417009 211.334652 
L 452.184556 210.378118 
L 459.064105 209.704522 
L 484.250033 219.633797 
L 503.872381 233.351586 
L 527.332639 236.243977 
L 528.963201 225.493864 
L 544.18459 227.343547 
L 547.324238 206.167139 
L 566.41011 203.424302 
L 564.436279 207.325138 
L 562.982146 211.744263 
L 562.235136 214.69012 
L 561.278327 219.057954 
" style="fill:#1a1a1a;stroke:#ffffff;stroke-linejoin:miter;stroke-width:4;"/>
   </g>
  </g>
 </g>
 <defs>
  <clipPath id="peaf404d30e">
   <rect height="543.6" width="558" x="90" y="86.4"/>
  </clipPath>
 </defs>
</svg>
