<?xml version="1.0" encoding="utf-8" standalone="no"?>
<!DOCTYPE svg PUBLIC "-//W3C//DTD SVG 1.1//EN"
  "http://www.w3.org/Graphics/SVG/1.1/DTD/svg11.dtd">
<!-- Created with matplotlib (https://matplotlib.org/) -->
<svg height="720pt" version="1.1" viewBox="0 0 720 720" width="720pt" xmlns="http://www.w3.org/2000/svg" xmlns:xlink="http://www.w3.org/1999/xlink">
 <metadata>
  <rdf:RDF xmlns:cc="http://creativecommons.org/ns#" xmlns:dc="http://purl.org/dc/elements/1.1/" xmlns:rdf="http://www.w3.org/1999/02/22-rdf-syntax-ns#">
   <cc:Work>
    <dc:type rdf:resource="http://purl.org/dc/dcmitype/StillImage"/>
    <dc:date>2021-05-28T08:56:50.497343</dc:date>
    <dc:format>image/svg+xml</dc:format>
    <dc:creator>
     <cc:Agent>
      <dc:title>Matplotlib v3.3.3, https://matplotlib.org/</dc:title>
     </cc:Agent>
    </dc:creator>
   </cc:Work>
  </rdf:RDF>
 </metadata>
 <defs>
  <style type="text/css">*{stroke-linecap:butt;stroke-linejoin:round;}</style>
 </defs>
 <g id="figure_1">
  <g id="patch_1">
   <path d="M 0 720 
L 720 720 
L 720 0 
L 0 0 
z
" style="fill:none;"/>
  </g>
  <g id="axes_1">
   <g id="patch_2">
    <path clip-path="url(#p90a5656fe5)" d="M 347.73933 165.269747 
L 505.175486 166.289812 
L 503.044547 199.5677 
L 503.219626 220.392442 
L 506.440375 247.19516 
L 512.873558 272.553087 
L 523.535981 305.125725 
L 536.904417 341.821067 
L 548.348732 368.73388 
L 585.290636 455.616941 
L 594.596306 485.30452 
L 603.902532 519.940688 
L 607.118411 537.465491 
L 609.24718 550.03126 
L 609.38576 550.912498 
L 585.944523 550.91067 
L 579.77565 550.934225 
L 577.517747 550.942629 
L 553.362279 551.035293 
L 527.402676 551.130253 
L 523.54982 551.103061 
L 464.5937 550.749736 
L 464.320072 549.899225 
L 463.980924 548.824724 
L 463.369388 546.477184 
L 459.99369 542.000683 
L 459.198376 540.741705 
L 458.715942 539.868784 
L 458.301133 538.972242 
L 457.844602 537.645916 
L 456.344374 532.625889 
L 455.850503 531.091606 
L 455.211404 529.362375 
L 454.481046 527.532442 
L 453.55517 525.551477 
L 450.196039 518.600237 
L 447.979208 514.201907 
L 446.818575 511.734128 
L 445.938169 509.753455 
L 445.491044 508.245836 
L 444.83895 506.768511 
L 444.030552 505.425585 
L 443.095477 504.415141 
L 443.58721 503.325983 
L 444.055662 501.243483 
L 444.315379 498.52303 
L 444.522959 495.701855 
L 444.756226 491.839546 
L 444.989782 488.783271 
L 445.223665 486.700901 
L 445.613889 484.484157 
L 446.131268 483.027101 
L 446.860528 481.381095 
L 448.267072 478.626405 
L 449.96024 475.670083 
L 448.310287 474.408559 
L 447.242527 474.841836 
L 446.11578 475.22535 
L 444.96602 475.470832 
L 443.803416 475.576104 
L 442.458724 475.522778 
L 441.126472 475.281889 
L 439.822302 474.856594 
L 438.561656 474.251684 
L 437.432055 473.527445 
L 436.365488 472.659194 
L 436.006111 472.319921 
L 434.398809 470.635877 
L 418.397717 453.73318 
L 417.811131 453.049325 
L 417.306237 452.338598 
L 416.854088 451.57126 
L 416.458488 450.753833 
L 416.048509 449.672329 
L 415.737378 448.53752 
L 415.529196 447.364316 
L 415.45102 446.597135 
L 415.417016 445.824611 
L 415.415979 445.491846 
L 415.403562 444.299713 
L 415.344659 443.1099 
L 415.273318 442.256192 
L 415.143093 441.139687 
L 414.859567 439.425619 
L 413.427023 439.997088 
L 413.38821 439.640547 
L 413.173612 438.505634 
L 412.692407 436.764553 
L 411.872897 434.771643 
L 410.946676 432.984981 
L 409.967035 431.175473 
L 408.595757 429.343255 
L 407.099916 427.602791 
L 401.791832 424.146021 
L 406.04268 413.17367 
L 403.390004 411.369112 
L 401.11325 409.904211 
L 398.539576 408.375736 
L 395.718331 406.528651 
L 393.342643 405.191317 
L 389.977008 403.153348 
L 386.364 401.243031 
L 384.178332 400.069201 
L 382.651949 399.205315 
L 379.385318 397.358577 
L 377.488656 396.426024 
L 370.85754 392.996425 
L 359.993125 388.254811 
L 358.973026 386.926751 
L 356.906453 385.669754 
L 355.566505 384.66721 
L 354.101821 383.423924 
L 353.01109 382.441281 
L 351.998194 381.338196 
L 351.016369 380.114653 
L 349.063922 382.4028 
L 347.218331 384.528183 
L 346.196591 385.527227 
L 344.779265 386.696449 
L 343.609076 387.461955 
L 341.911343 388.312769 
L 340.394846 388.844852 
L 338.911246 389.228234 
L 337.015447 389.484451 
L 334.40308 389.483874 
L 325.95693 389.566772 
L 323.879711 389.695718 
L 321.802519 389.8034 
L 317.54933 390.380002 
L 315.834896 390.657388 
L 313.955602 390.977368 
L 311.709672 391.487356 
L 309.781 391.956064 
L 307.407285 392.637529 
L 305.363305 393.297532 
L 303.319337 393.978764 
L 301.209506 394.85125 
L 298.614371 395.857898 
L 295.366524 397.566407 
L 293.026076 398.842663 
L 291.196949 399.93197 
L 289.475236 400.58532 
L 287.431308 401.30909 
L 284.859895 402.181953 
L 282.189558 403.054902 
L 278.827027 404.353242 
L 275.046894 405.815519 
L 271.256043 407.7302 
L 267.201703 410.239856 
L 258.34398 416.57152 
L 253.624278 419.942795 
L 251.069887 421.771611 
L 250.361265 422.324467 
L 249.718616 422.919739 
L 248.781628 424.434092 
L 245.925097 424.674055 
L 242.055986 424.712869 
L 232.494468 423.156864 
L 228.973601 420.69558 
L 228.141597 420.870136 
L 225.285635 421.046414 
L 221.912396 421.165197 
L 217.684693 421.516532 
L 216.020635 421.691819 
L 213.772007 422.157393 
L 211.34347 422.594131 
L 208.735067 423.117983 
L 206.829311 423.281308 
L 205.547618 423.572208 
L 204.851522 423.988304 
L 203.636068 421.990042 
L 202.826335 422.430512 
L 202.213288 422.71837 
L 200.522438 422.911395 
L 194.185807 423.339158 
L 189.656556 423.734268 
L 188.323165 423.687919 
L 187.485324 423.65001 
L 185.981683 423.378777 
L 184.38954 423.335693 
L 179.019353 423.268763 
L 176.554471 423.228977 
L 171.352498 423.189836 
L 170.479124 423.142763 
L 169.865751 422.832096 
L 166.703867 426.019323 
L 158.169829 425.934299 
L 155.602878 426.653043 
L 155.257199 425.767951 
L 154.984442 424.972385 
L 154.625414 423.767917 
L 154.319232 422.604404 
L 154.106591 421.530611 
L 153.959759 420.272814 
L 153.832759 418.860951 
L 153.78549 417.530432 
L 153.751491 416.127061 
L 153.717404 414.603866 
L 153.766476 402.477724 
L 153.845825 390.541641 
L 153.79727 379.177999 
L 153.868091 366.422681 
L 153.223991 356.161133 
L 149.64923 344.493729 
L 144.884143 333.05527 
L 142.198035 324.622006 
L 141.555355 320.941392 
L 139.521226 309.292122 
L 137.37854 297.021228 
L 135.397357 285.675474 
L 133.815448 273.92158 
L 131.325468 262.290058 
L 129.24738 250.386706 
L 128.61424 246.760051 
L 128.713914 238.653091 
L 128.859014 227.068673 
L 129.068554 215.267139 
L 129.483558 203.633394 
L 129.425027 191.759947 
L 129.470052 180.170928 
L 130.016483 165.678897 
L 167.443071 165.622728 
L 199.109171 165.576717 
L 208.186242 165.563872 
L 230.774907 165.532374 
L 234.503013 165.784055 
L 238.428753 165.779991 
L 306.339289 165.73494 
L 347.73933 165.269747 
" style="fill:#1a1a1a;stroke:#ffffff;stroke-linejoin:miter;stroke-width:4;"/>
   </g>
  </g>
 </g>
 <defs>
  <clipPath id="p90a5656fe5">
   <rect height="543.6" width="558" x="90" y="86.4"/>
  </clipPath>
 </defs>
</svg>
