<?xml version="1.0" encoding="utf-8" standalone="no"?>
<!DOCTYPE svg PUBLIC "-//W3C//DTD SVG 1.1//EN"
  "http://www.w3.org/Graphics/SVG/1.1/DTD/svg11.dtd">
<!-- Created with matplotlib (https://matplotlib.org/) -->
<svg height="720pt" version="1.1" viewBox="0 0 720 720" width="720pt" xmlns="http://www.w3.org/2000/svg" xmlns:xlink="http://www.w3.org/1999/xlink">
 <metadata>
  <rdf:RDF xmlns:cc="http://creativecommons.org/ns#" xmlns:dc="http://purl.org/dc/elements/1.1/" xmlns:rdf="http://www.w3.org/1999/02/22-rdf-syntax-ns#">
   <cc:Work>
    <dc:type rdf:resource="http://purl.org/dc/dcmitype/StillImage"/>
    <dc:date>2021-05-07T11:02:58.413353</dc:date>
    <dc:format>image/svg+xml</dc:format>
    <dc:creator>
     <cc:Agent>
      <dc:title>Matplotlib v3.3.3, https://matplotlib.org/</dc:title>
     </cc:Agent>
    </dc:creator>
   </cc:Work>
  </rdf:RDF>
 </metadata>
 <defs>
  <style type="text/css">*{stroke-linecap:butt;stroke-linejoin:round;}</style>
 </defs>
 <g id="figure_1">
  <g id="patch_1">
   <path d="M 0 720 
L 720 720 
L 720 0 
L 0 0 
z
" style="fill:none;"/>
  </g>
  <g id="axes_1">
   <g id="patch_2">
    <path clip-path="url(#pfc6742a405)" d="M 265.35362 191.196912 
L 268.691817 191.205197 
L 368.714031 190.674447 
L 380.037747 193.603009 
L 605.097865 192.543511 
L 605.097693 195.683057 
L 605.131792 229.975548 
L 605.137247 235.537708 
L 605.15251 251.09802 
L 605.160462 259.052685 
L 605.181429 280.81536 
L 605.187285 286.752911 
L 605.209648 309.488713 
L 581.321261 313.957974 
L 578.281283 314.509354 
L 573.042586 316.034362 
L 573.0412 316.034774 
L 573.040405 316.035027 
L 566.241868 318.239558 
L 566.238628 318.240602 
L 566.237976 318.240824 
L 566.237059 318.241108 
L 566.236325 318.241393 
L 566.235347 318.24174 
L 566.229826 318.243699 
L 559.470251 320.691738 
L 559.468478 320.69237 
L 552.739576 323.387041 
L 552.737824 323.387797 
L 546.055511 326.323006 
L 546.053861 326.323731 
L 546.05217 326.32455 
L 539.415816 329.500454 
L 539.415123 329.5008 
L 539.414105 329.501335 
L 532.828398 332.915757 
L 532.827013 332.91645 
L 532.826056 332.916985 
L 526.293809 336.568476 
L 526.293198 336.568822 
L 526.292608 336.569168 
L 519.817185 340.455931 
L 513.402805 344.575543 
L 513.401706 344.576297 
L 507.06857 348.914955 
L 507.063642 348.91835 
L 507.055375 348.92407 
L 507.053563 348.925296 
L 507.051873 348.926521 
L 500.772678 353.503083 
L 494.564713 358.305447 
L 494.564082 358.30595 
L 494.56343 358.306484 
L 488.431115 363.331349 
L 488.430301 363.332071 
L 488.429792 363.33251 
L 488.425599 363.336089 
L 482.339618 367.576198 
L 471.593714 376.333871 
L 461.445961 389.100344 
L 452.30067 400.606006 
L 431.202685 428.545444 
L 422.62285 440.194413 
L 416.621462 451.533347 
L 411.322222 461.5458 
L 389.840643 506.47004 
L 381.971156 525.725553 
L 330.742212 479.848743 
L 322.255866 472.249631 
L 311.611509 462.086154 
L 305.081892 455.851655 
L 292.258945 440.219514 
L 291.811508 439.60867 
L 285.979095 431.646082 
L 279.945311 423.408743 
L 277.738116 419.53335 
L 268.135829 402.673958 
L 258.373873 382.322527 
L 241.409654 342.393108 
L 224.516584 303.548413 
L 220.608654 294.562726 
L 216.33563 284.737614 
L 202.084374 251.970392 
L 198.163855 244.087473 
L 195.661815 239.056696 
L 187.962638 227.717607 
L 180.524543 219.122861 
L 178.09945 216.969566 
L 170.419132 210.150183 
L 168.219469 208.197123 
L 167.262348 207.64858 
L 154.640734 200.415006 
L 149.3637 198.418838 
L 140.29872 194.989901 
L 132.790352 194.085321 
L 144.749153 190.936293 
L 264.634466 191.195116 
L 265.35362 191.196912 
" style="stroke:#ffffff;stroke-linejoin:miter;stroke-width:2;"/>
   </g>
  </g>
 </g>
 <defs>
  <clipPath id="pfc6742a405">
   <rect height="543.6" width="558" x="90" y="86.4"/>
  </clipPath>
 </defs>
</svg>
