<?xml version="1.0" encoding="utf-8" standalone="no"?>
<!DOCTYPE svg PUBLIC "-//W3C//DTD SVG 1.1//EN"
  "http://www.w3.org/Graphics/SVG/1.1/DTD/svg11.dtd">
<!-- Created with matplotlib (https://matplotlib.org/) -->
<svg height="720pt" version="1.1" viewBox="0 0 720 720" width="720pt" xmlns="http://www.w3.org/2000/svg" xmlns:xlink="http://www.w3.org/1999/xlink">
 <metadata>
  <rdf:RDF xmlns:cc="http://creativecommons.org/ns#" xmlns:dc="http://purl.org/dc/elements/1.1/" xmlns:rdf="http://www.w3.org/1999/02/22-rdf-syntax-ns#">
   <cc:Work>
    <dc:type rdf:resource="http://purl.org/dc/dcmitype/StillImage"/>
    <dc:date>2021-05-28T08:56:53.000100</dc:date>
    <dc:format>image/svg+xml</dc:format>
    <dc:creator>
     <cc:Agent>
      <dc:title>Matplotlib v3.3.3, https://matplotlib.org/</dc:title>
     </cc:Agent>
    </dc:creator>
   </cc:Work>
  </rdf:RDF>
 </metadata>
 <defs>
  <style type="text/css">*{stroke-linecap:butt;stroke-linejoin:round;}</style>
 </defs>
 <g id="figure_1">
  <g id="patch_1">
   <path d="M 0 720 
L 720 720 
L 720 0 
L 0 0 
z
" style="fill:none;"/>
  </g>
  <g id="axes_1">
   <g id="patch_2">
    <path clip-path="url(#pa31be05179)" d="M 267.13838 297.99031 
L 337.403449 350.9466 
L 367.981838 335.743592 
L 421.499987 345.288121 
L 421.498107 335.438974 
L 423.092704 337.769091 
L 426.943721 336.710502 
L 426.945264 346.259456 
L 436.838576 339.684435 
L 436.837156 333.991008 
L 437.346171 333.851205 
L 438.487491 333.05625 
L 438.488325 338.588163 
L 448.383349 332.012575 
L 453.087672 331.75247 
L 525.98568 331.942997 
L 525.898423 334.665508 
L 529.268721 334.660771 
L 529.273862 342.229491 
L 531.753119 347.913387 
L 531.990703 348.132825 
L 540.648357 356.126686 
L 591.037134 355.990975 
L 591.038351 392.692621 
L 575.211681 392.630147 
L 571.009402 393.314637 
L 566.733048 394.704354 
L 561.709092 397.749696 
L 556.612082 401.897639 
L 552.790768 405.766515 
L 547.773635 412.486483 
L 540.662512 423.438028 
L 536.918572 428.500967 
L 532.648989 433.4735 
L 527.029282 439.001009 
L 521.183191 443.886125 
L 480.784154 476.519492 
L 452.451389 499.260827 
L 444.456461 503.803673 
L 434.308449 509.231674 
L 422.004035 513.787019 
L 409.697022 516.961412 
L 401.38887 518.617637 
L 393.283993 519.268891 
L 383.228853 519.549186 
L 373.301354 518.979352 
L 362.429037 517.00185 
L 350.301881 513.114634 
L 319.393235 501.341748 
L 308.001487 497.115108 
L 293.648089 491.53903 
L 274.838414 485.806212 
L 255.334451 481.09742 
L 235.69181 476.729922 
L 214.379853 473.219193 
L 193.487319 470.558906 
L 171.622429 469.093881 
L 148.664512 468.604716 
L 148.875952 363.430191 
L 149.006506 203.928536 
L 146.961649 196.850814 
L 154.947294 196.884532 
L 167.052271 196.924114 
L 166.994895 228.565152 
L 179.986775 240.061799 
L 216.864281 244.57138 
L 235.653877 251.02678 
L 252.235719 264.272156 
L 267.13838 297.99031 
" style="fill:#1a1a1a;stroke:#ffffff;stroke-linejoin:miter;stroke-width:4;"/>
   </g>
  </g>
 </g>
 <defs>
  <clipPath id="pa31be05179">
   <rect height="543.6" width="558" x="90" y="86.4"/>
  </clipPath>
 </defs>
</svg>
