<?xml version="1.0" encoding="utf-8" standalone="no"?>
<!DOCTYPE svg PUBLIC "-//W3C//DTD SVG 1.1//EN"
  "http://www.w3.org/Graphics/SVG/1.1/DTD/svg11.dtd">
<!-- Created with matplotlib (https://matplotlib.org/) -->
<svg height="720pt" version="1.1" viewBox="0 0 720 720" width="720pt" xmlns="http://www.w3.org/2000/svg" xmlns:xlink="http://www.w3.org/1999/xlink">
 <metadata>
  <rdf:RDF xmlns:cc="http://creativecommons.org/ns#" xmlns:dc="http://purl.org/dc/elements/1.1/" xmlns:rdf="http://www.w3.org/1999/02/22-rdf-syntax-ns#">
   <cc:Work>
    <dc:type rdf:resource="http://purl.org/dc/dcmitype/StillImage"/>
    <dc:date>2021-05-07T11:03:07.007823</dc:date>
    <dc:format>image/svg+xml</dc:format>
    <dc:creator>
     <cc:Agent>
      <dc:title>Matplotlib v3.3.3, https://matplotlib.org/</dc:title>
     </cc:Agent>
    </dc:creator>
   </cc:Work>
  </rdf:RDF>
 </metadata>
 <defs>
  <style type="text/css">*{stroke-linecap:butt;stroke-linejoin:round;}</style>
 </defs>
 <g id="figure_1">
  <g id="patch_1">
   <path d="M 0 720 
L 720 720 
L 720 0 
L 0 0 
z
" style="fill:none;"/>
  </g>
  <g id="axes_1">
   <g id="patch_2">
    <path clip-path="url(#p0ab1dc3100)" d="M 393.809856 538.534685 
L 265.622768 576.584927 
L 154.610404 340.624834 
L 146.071279 317.790791 
L 141.071606 301.072572 
L 137.644264 286.988281 
L 135.218068 273.247756 
L 133.649539 260.995958 
L 132.224869 246.797731 
L 132.214954 226.777661 
L 319.882467 185.36968 
L 349.679432 178.515987 
L 375.501002 173.21619 
L 436.664462 160.139183 
L 523.832053 139.815073 
L 524.991707 143.529991 
L 531.706529 163.284162 
L 535.997395 175.209514 
L 541.208375 188.815282 
L 545.603764 198.159483 
L 551.839987 210.249925 
L 565.53862 236.767058 
L 572.691008 254.061612 
L 577.144456 266.233055 
L 583.961796 289.328091 
L 587.959707 307.580591 
L 590.506828 320.939099 
L 592.641635 337.001506 
L 593.645375 357.815992 
L 593.833506 374.942486 
L 593.819831 388.99593 
L 594.000515 413.743249 
L 593.981335 433.45086 
L 595.601604 451.84839 
L 600.798254 475.995704 
L 605.158381 489.778508 
L 605.589578 491.024645 
L 605.785046 491.5895 
L 545.031328 504.316435 
L 543.978243 504.494422 
L 542.64932 504.764862 
L 540.760193 505.097564 
L 538.981139 505.428892 
L 535.854307 506.011243 
L 532.414802 506.645571 
L 529.583871 507.16072 
L 526.873957 507.670309 
L 524.445625 508.126827 
L 521.87904 508.594779 
L 518.934641 509.145965 
L 515.008561 509.882731 
L 511.816629 510.465103 
L 509.093708 510.985143 
L 506.2221 511.512213 
L 502.782613 512.177913 
L 499.953173 512.723203 
L 498.271575 513.039594 
L 496.564848 513.393333 
L 493.881013 513.923863 
L 491.15308 514.462409 
L 488.000216 515.117884 
L 483.890256 515.968164 
L 480.711318 516.634078 
L 477.630072 517.277836 
L 474.281782 518.016682 
L 471.350369 518.661879 
L 468.337436 519.32359 
L 465.705682 519.916791 
L 463.073943 520.520434 
L 460.125706 521.194907 
L 457.572151 521.767308 
L 453.48609 522.743398 
L 451.153996 523.295069 
L 447.410765 524.177843 
L 444.896245 524.823312 
L 442.264492 525.45829 
L 440.121513 526.006748 
L 437.698235 526.600111 
L 435.54852 527.151903 
L 432.935496 527.816009 
L 430.877008 528.326125 
L 428.745311 528.863946 
L 426.67377 529.426228 
L 424.328634 530.030091 
L 420.154692 531.153039 
L 417.913792 531.756981 
L 415.393198 532.429636 
L 413.36075 532.991957 
L 410.885335 533.668804 
L 408.442674 534.354219 
L 406.47539 534.88529 
L 393.809856 538.534685 
" style="stroke:#ffffff;stroke-linejoin:miter;stroke-width:2;"/>
   </g>
  </g>
 </g>
 <defs>
  <clipPath id="p0ab1dc3100">
   <rect height="543.6" width="558" x="90" y="86.4"/>
  </clipPath>
 </defs>
</svg>
