<?xml version="1.0" encoding="utf-8" standalone="no"?>
<!DOCTYPE svg PUBLIC "-//W3C//DTD SVG 1.1//EN"
  "http://www.w3.org/Graphics/SVG/1.1/DTD/svg11.dtd">
<!-- Created with matplotlib (https://matplotlib.org/) -->
<svg height="720pt" version="1.1" viewBox="0 0 720 720" width="720pt" xmlns="http://www.w3.org/2000/svg" xmlns:xlink="http://www.w3.org/1999/xlink">
 <metadata>
  <rdf:RDF xmlns:cc="http://creativecommons.org/ns#" xmlns:dc="http://purl.org/dc/elements/1.1/" xmlns:rdf="http://www.w3.org/1999/02/22-rdf-syntax-ns#">
   <cc:Work>
    <dc:type rdf:resource="http://purl.org/dc/dcmitype/StillImage"/>
    <dc:date>2021-05-07T11:03:01.277644</dc:date>
    <dc:format>image/svg+xml</dc:format>
    <dc:creator>
     <cc:Agent>
      <dc:title>Matplotlib v3.3.3, https://matplotlib.org/</dc:title>
     </cc:Agent>
    </dc:creator>
   </cc:Work>
  </rdf:RDF>
 </metadata>
 <defs>
  <style type="text/css">*{stroke-linecap:butt;stroke-linejoin:round;}</style>
 </defs>
 <g id="figure_1">
  <g id="patch_1">
   <path d="M 0 720 
L 720 720 
L 720 0 
L 0 0 
z
" style="fill:none;"/>
  </g>
  <g id="axes_1">
   <g id="patch_2">
    <path clip-path="url(#p142c64ec70)" d="M 616.342147 529.101249 
L 616.483095 580.269163 
L 614.763653 579.964867 
L 613.278624 579.863171 
L 612.005571 579.958933 
L 611.325213 580.775085 
L 611.032743 581.610349 
L 610.450483 582.431332 
L 609.747842 583.246385 
L 608.985766 584.058513 
L 607.603968 584.840123 
L 602.504745 585.837834 
L 600.933924 585.816118 
L 596.710455 584.97638 
L 595.314198 584.678151 
L 593.934544 584.353616 
L 592.544314 584.045819 
L 591.139006 583.761928 
L 588.313777 583.217268 
L 586.915484 582.922229 
L 582.786545 581.932727 
L 580.034744 581.271735 
L 578.645499 580.962362 
L 574.565825 579.894783 
L 570.477567 578.840764 
L 567.733257 578.167848 
L 566.353067 577.844136 
L 564.975381 577.516448 
L 563.614295 577.162463 
L 560.877013 576.4784 
L 559.500323 576.149127 
L 558.728996 576.103181 
L 556.440659 575.557364 
L 555.164515 575.365269 
L 554.261301 575.064737 
L 552.706096 574.817708 
L 550.379341 574.265494 
L 542.997431 573.032816 
L 537.397196 571.941238 
L 533.735774 571.368447 
L 533.164566 571.15322 
L 532.08922 571.079224 
L 531.048519 570.935248 
L 530.447165 570.782463 
L 529.136933 570.678842 
L 528.874613 570.571506 
L 527.543087 570.615121 
L 526.874013 570.510398 
L 525.333471 570.274355 
L 524.369251 570.013112 
L 520.941061 569.653766 
L 515.07603 569.141036 
L 513.724607 568.926534 
L 512.357587 568.803888 
L 509.86046 568.77622 
L 508.761215 568.562016 
L 506.85296 568.427346 
L 505.315172 568.21148 
L 503.312314 568.070243 
L 500.159298 567.784754 
L 496.884666 567.473401 
L 495.378736 567.313794 
L 491.836618 567.168455 
L 491.14667 567.263431 
L 490.744305 567.108573 
L 489.245586 567.024695 
L 487.611635 567.011498 
L 486.169346 566.85065 
L 484.553609 566.849066 
L 483.379822 566.705047 
L 478.039951 566.711016 
L 477.098642 566.672825 
L 475.601585 566.763298 
L 474.729991 566.839063 
L 473.44751 566.921881 
L 472.323788 566.870264 
L 471.569735 566.931649 
L 470.400672 566.917264 
L 468.429507 567.162992 
L 467.266978 567.159386 
L 465.718749 567.521056 
L 464.486349 567.693794 
L 463.657634 567.83296 
L 462.510852 567.928341 
L 462.004769 568.042561 
L 461.388072 568.056048 
L 460.348438 568.194192 
L 456.922293 568.378487 
L 454.159467 568.578336 
L 452.892518 568.594101 
L 451.688755 568.713872 
L 450.848069 568.705203 
L 449.378528 568.870684 
L 447.731467 568.852137 
L 447.072949 568.940129 
L 444.793545 569.039416 
L 443.389717 569.192129 
L 440.082282 569.466028 
L 439.272877 569.486795 
L 435.695999 569.811795 
L 434.928221 569.829708 
L 432.977651 570.034921 
L 430.240129 570.074589 
L 428.305503 570.068217 
L 427.150621 570.197988 
L 426.420872 570.182817 
L 425.210741 570.238414 
L 424.678068 570.218034 
L 424.099202 570.267603 
L 422.8509 570.143862 
L 421.595854 569.833766 
L 420.362149 569.460745 
L 419.02774 568.832542 
L 418.165884 568.32197 
L 417.590286 567.999268 
L 416.836668 567.660236 
L 415.746059 567.012391 
L 414.54855 566.481221 
L 413.146985 565.849236 
L 411.559123 565.291204 
L 410.541178 564.999145 
L 410.01206 564.751848 
L 408.588369 564.451964 
L 408.186055 564.268553 
L 406.501504 563.828464 
L 403.439261 563.076932 
L 402.180907 562.889433 
L 401.595567 562.648295 
L 399.554237 562.429427 
L 398.041806 562.275653 
L 396.541206 562.069707 
L 395.649043 561.939281 
L 394.029787 561.888105 
L 392.4264 561.639835 
L 391.548839 561.247292 
L 390.566924 560.849684 
L 389.694863 560.579712 
L 388.955155 560.470961 
L 387.455559 560.164815 
L 386.043762 560.039299 
L 385.226785 559.893207 
L 383.993685 559.803885 
L 382.751976 559.661135 
L 381.614299 559.631951 
L 380.702479 559.483287 
L 379.935469 559.477217 
L 378.857716 559.422815 
L 378.086513 559.352966 
L 377.264751 559.30988 
L 376.724038 559.293847 
L 376.15444 559.291767 
L 375.064989 559.225986 
L 374.263765 559.117086 
L 372.505361 558.877955 
L 369.599846 558.576807 
L 368.067566 558.469229 
L 366.564817 558.339538 
L 365.03678 558.267149 
L 362.034515 557.938598 
L 360.563629 557.665877 
L 357.532912 557.3814 
L 356.011179 557.337131 
L 354.493991 557.387684 
L 352.958951 557.505014 
L 351.481756 557.332127 
L 350.14625 556.951832 
L 348.603611 556.923013 
L 347.067679 556.858961 
L 345.604212 556.679387 
L 344.832702 556.67451 
L 342.559659 556.740815 
L 341.050881 556.727555 
L 339.539273 556.84973 
L 338.071981 557.044977 
L 336.578402 557.067663 
L 335.096624 556.798752 
L 332.099665 556.526987 
L 330.605646 556.524014 
L 327.598764 556.355839 
L 324.571723 556.203098 
L 323.039856 556.078594 
L 321.497828 556.042762 
L 318.489005 555.88911 
L 315.47873 555.950001 
L 314.081415 556.309287 
L 311.032798 556.390265 
L 309.500619 556.332033 
L 308.005562 556.354351 
L 304.941935 556.197312 
L 303.453783 556.068439 
L 301.918942 556.068206 
L 299.634556 555.983075 
L 297.349138 555.881393 
L 295.856694 555.71487 
L 294.325686 555.640492 
L 292.804504 555.672085 
L 291.301567 555.660096 
L 289.839225 555.462351 
L 288.351572 555.362479 
L 286.866443 555.198004 
L 285.360554 555.184368 
L 283.87174 555.27294 
L 280.818579 555.258351 
L 279.269468 555.235448 
L 277.749568 555.383426 
L 274.6873 555.306363 
L 272.43267 555.275772 
L 270.164632 555.271778 
L 267.132039 555.477414 
L 265.604018 555.534755 
L 264.084643 555.543172 
L 262.590772 555.592035 
L 261.848666 555.642326 
L 260.986945 555.714332 
L 260.724332 555.752127 
L 260.421462 555.841372 
L 260.115584 555.898514 
L 259.820924 555.992821 
L 259.48826 556.055894 
L 259.145878 556.114759 
L 259.117702 556.204321 
L 258.994954 556.267303 
L 258.692649 556.204068 
L 258.189451 556.214403 
L 257.83507 556.17906 
L 257.43872 556.217874 
L 256.481233 556.352996 
L 256.219184 556.344866 
L 255.981016 556.376434 
L 255.721982 556.380118 
L 255.28272 556.327924 
L 254.562924 556.360735 
L 254.376024 556.36486 
L 253.684548 556.375417 
L 253.712488 555.579252 
L 246.459783 554.173938 
L 246.36956 556.697421 
L 246.206743 556.696756 
L 245.092331 556.720084 
L 244.14696 556.666555 
L 243.870873 556.740584 
L 243.463281 556.710129 
L 242.822375 556.734043 
L 242.573366 556.726756 
L 242.118193 556.735383 
L 241.544595 556.708166 
L 240.941648 556.72764 
L 240.364029 556.744984 
L 239.930883 556.819294 
L 239.460466 556.849265 
L 239.198109 556.887175 
L 238.482053 556.923164 
L 238.112836 556.924799 
L 237.322763 557.009807 
L 237.208198 557.066032 
L 236.950955 557.027283 
L 236.133214 557.004818 
L 235.880861 557.016319 
L 235.618091 557.010097 
L 234.529853 557.070533 
L 233.612894 557.167635 
L 233.321952 557.263644 
L 233.147005 557.24386 
L 232.930439 557.296329 
L 232.300991 557.533127 
L 231.823187 557.612323 
L 231.216698 557.755338 
L 230.647373 557.865393 
L 230.292817 557.979591 
L 229.971653 558.010987 
L 229.352474 558.132892 
L 229.044282 558.119929 
L 228.206367 558.321762 
L 227.867773 558.414407 
L 227.555819 558.365955 
L 227.369746 558.386315 
L 227.037864 558.479803 
L 226.693908 558.441089 
L 226.456548 558.51511 
L 226.238533 558.593345 
L 225.890921 558.603197 
L 225.009789 558.769986 
L 224.849707 558.743441 
L 224.500677 558.807797 
L 224.339161 558.824342 
L 224.226129 558.901263 
L 223.725972 558.969056 
L 223.385756 558.944707 
L 223.00215 559.040119 
L 222.532087 559.054888 
L 222.283179 559.116877 
L 221.859328 559.163325 
L 221.492436 559.228108 
L 221.02955 559.328835 
L 220.358277 559.458375 
L 219.993585 559.496547 
L 219.766307 559.59801 
L 219.604551 559.707061 
L 219.409521 559.710947 
L 219.166405 559.66184 
L 218.793449 559.649955 
L 218.404544 559.67948 
L 217.77119 559.76613 
L 217.413854 559.749389 
L 217.32091 559.825886 
L 216.983718 559.840389 
L 216.053157 560.06761 
L 215.47446 560.119392 
L 215.352629 560.29938 
L 215.042206 560.296132 
L 214.50237 560.463634 
L 214.052999 560.641021 
L 213.569298 560.748517 
L 212.977246 560.831772 
L 212.196487 560.92018 
L 211.653934 561.002567 
L 210.968099 561.084174 
L 210.488492 561.196315 
L 209.960749 561.226742 
L 209.276054 561.330739 
L 208.746693 561.32705 
L 208.183112 561.243885 
L 207.666831 561.298437 
L 207.196636 561.301543 
L 206.627582 561.334454 
L 206.080937 561.419042 
L 205.048113 561.575557 
L 204.463596 561.647161 
L 204.076404 561.69775 
L 203.514379 561.786637 
L 203.020488 561.901496 
L 202.519418 561.960464 
L 201.972795 562.036409 
L 201.570213 562.095623 
L 201.122236 562.167588 
L 200.537521 562.260701 
L 200.02842 562.371223 
L 199.496648 562.477417 
L 198.964907 562.570656 
L 198.395413 562.663857 
L 197.825971 562.735476 
L 197.256498 562.82005 
L 196.747588 562.913393 
L 195.759852 563.125918 
L 195.250784 563.223486 
L 194.848322 563.295573 
L 193.822737 563.486487 
L 193.412352 563.677518 
L 193.383308 563.68603 
L 193.357387 563.698796 
L 193.322374 563.726356 
L 193.258701 563.795037 
L 193.220121 563.822814 
L 193.157223 563.84788 
L 193.094762 563.865292 
L 192.926138 563.90402 
L 192.863406 563.922075 
L 192.823034 563.93781 
L 192.789922 563.956354 
L 192.776484 563.972457 
L 192.769918 563.997397 
L 192.774033 564.017942 
L 192.786168 564.03536 
L 192.807743 564.048823 
L 192.878373 564.072653 
L 192.93946 564.087442 
L 192.988789 564.09521 
L 193.030923 564.097986 
L 193.136773 564.101589 
L 193.189794 564.106981 
L 193.24062 564.118773 
L 193.282733 564.136841 
L 193.31271 564.162469 
L 193.32525 564.191623 
L 193.332777 564.239419 
L 193.334856 564.299895 
L 193.328205 564.342099 
L 193.31263 564.384009 
L 193.294386 564.413089 
L 193.277166 564.431874 
L 193.243785 564.456903 
L 193.206696 564.478433 
L 193.138657 564.513359 
L 193.107773 564.53027 
L 193.090035 564.541044 
L 193.070752 564.554628 
L 193.057175 564.566294 
L 193.044431 564.579265 
L 193.031213 564.596477 
L 193.022714 564.612491 
L 193.01913 564.626315 
L 193.019717 564.636781 
L 193.026522 564.648887 
L 193.037118 564.654864 
L 193.05215 564.658957 
L 193.111148 564.667241 
L 193.147434 564.675431 
L 193.166151 564.686047 
L 193.212348 564.724456 
L 193.237537 564.762113 
L 193.237432 564.806033 
L 193.216227 564.837617 
L 193.171177 564.869022 
L 193.074144 564.916323 
L 192.874391 564.98097 
L 192.618003 565.047514 
L 192.328838 565.104642 
L 192.140204 565.131017 
L 192.092963 565.12966 
L 191.962024 565.109577 
L 191.88619 565.103016 
L 191.845669 565.106058 
L 191.691978 565.14666 
L 191.528328 565.214638 
L 191.425142 565.264305 
L 191.143931 565.40983 
L 190.94181 565.528862 
L 190.676303 565.690623 
L 190.583765 565.74305 
L 190.537533 565.763429 
L 190.488757 565.780352 
L 190.369735 565.819084 
L 190.320173 565.839935 
L 190.293515 565.85552 
L 190.272601 565.871626 
L 190.252739 565.890586 
L 190.241503 565.903076 
L 190.229081 565.91846 
L 190.227926 565.92088 
L 190.228367 565.923811 
L 190.230673 565.926657 
L 190.232654 565.928047 
L 190.241328 565.932686 
L 190.249737 565.935851 
L 190.268466 565.94153 
L 190.319929 565.955294 
L 190.33153 565.95897 
L 190.340043 565.962185 
L 190.347778 565.966061 
L 190.349938 565.967781 
L 190.353362 565.971256 
L 190.353878 565.973974 
L 190.353351 565.97582 
L 190.281121 566.060396 
L 190.198396 566.1404 
L 190.117004 566.199745 
L 190.003943 566.260852 
L 189.77596 566.362261 
L 189.529548 566.46363 
L 189.253227 566.55485 
L 189.023157 566.630474 
L 188.886037 566.68683 
L 188.684284 566.802721 
L 188.236064 566.992658 
L 187.91337 567.138745 
L 187.597521 567.27399 
L 186.319237 569.45996 
L 186.29514 569.566496 
L 186.18161 569.826569 
L 186.160963 569.937789 
L 186.179499 570.062638 
L 185.454977 570.63614 
L 185.217556 570.893613 
L 184.812692 571.228105 
L 184.102687 571.746785 
L 183.705666 572.046905 
L 182.797695 572.672632 
L 182.317252 572.976839 
L 181.935429 573.28129 
L 181.522811 573.615777 
L 181.148244 573.950369 
L 180.811723 574.280765 
L 180.482679 574.611175 
L 180.176891 574.881392 
L 179.832797 575.203145 
L 179.503939 575.512049 
L 179.236457 575.743683 
L 178.747012 576.19835 
L 178.609449 576.318482 
L 178.050784 576.893503 
L 177.78289 577.16816 
L 177.4464 577.494238 
L 177.140446 577.773092 
L 176.758655 578.073226 
L 176.567543 578.249127 
L 176.215854 578.566558 
L 176.001472 578.802551 
L 175.695301 579.111549 
L 175.381893 579.394631 
L 175.00754 579.699174 
L 174.633762 579.956309 
L 174.32056 580.209332 
L 174.076124 580.41516 
L 173.747474 580.702549 
L 173.365518 581.011321 
L 173.059729 581.285866 
L 172.830519 581.483152 
L 172.464194 581.744604 
L 172.166479 581.954625 
L 171.693469 582.271796 
L 171.3273 582.524611 
L 170.854486 582.828836 
L 170.419832 583.085833 
L 169.893674 583.415751 
L 169.474182 583.698594 
L 169.069362 584.024539 
L 168.710078 584.333329 
L 168.381833 584.577706 
L 167.893604 584.903419 
L 167.429002 585.143122 
L 166.972244 585.339824 
L 166.492832 585.532184 
L 165.990391 585.745948 
L 165.601577 585.985877 
L 165.196986 586.273051 
L 164.694088 586.55574 
L 164.107831 586.816606 
L 163.666326 587.000443 
L 163.141168 587.231465 
L 162.623511 587.445228 
L 162.159118 587.654789 
L 161.70256 587.838614 
L 161.23778 588.086956 
L 160.689805 588.313567 
L 160.338946 588.532019 
L 159.858734 588.814727 
L 159.302316 589.144542 
L 158.799252 589.431466 
L 158.212594 589.739761 
L 157.656382 590.039432 
L 157.099807 590.373566 
L 156.611588 590.694965 
L 156.290958 590.947996 
L 155.993005 591.196716 
L 155.633742 591.509828 
L 155.221672 591.809946 
L 154.695973 592.079582 
L 154.223974 592.297777 
L 153.65296 592.554433 
L 153.12763 592.794011 
L 152.700998 593.003688 
L 152.137169 593.316311 
L 151.665004 593.543067 
L 151.162138 593.812806 
L 150.651678 594.08254 
L 150.088084 594.35215 
L 149.494366 594.621653 
L 148.999142 594.878444 
L 148.435168 595.191077 
L 147.863938 595.473553 
L 147.399765 595.66593 
L 146.889512 595.905522 
L 146.349153 596.136463 
L 145.808196 596.427599 
L 145.609944 596.543287 
L 145.152803 596.787321 
L 144.802305 596.98427 
L 142.479558 598.105441 
L 141.534631 598.627866 
L 140.536558 599.163133 
L 140.00301 599.480101 
L 139.439267 599.762586 
L 138.913953 600.00217 
L 138.335131 600.288878 
L 137.93915 600.477167 
L 137.429095 600.699574 
L 136.888955 600.904685 
L 136.447842 601.058471 
L 136.014393 601.19499 
L 135.504934 601.352884 
L 135.009933 601.583939 
L 134.64371 601.744105 
L 134.630636 597.822312 
L 134.40877 531.347584 
L 134.40082 528.855785 
L 134.395304 527.126999 
L 134.1922 459.857158 
L 133.98558 391.61406 
L 133.804715 323.681545 
L 133.802562 322.946063 
L 132.210425 303.209746 
L 132.061336 254.63367 
L 131.868699 184.77635 
L 130.687014 168.125709 
L 126.175195 155.754182 
L 122.873892 147.552273 
L 121.699072 142.71236 
L 121.516905 117.979185 
L 153.168809 117.846224 
L 224.261061 117.766062 
L 334.220412 117.252357 
L 374.756862 115.094458 
L 614.121127 114.655895 
L 614.013687 117.541521 
L 614.029217 122.392084 
L 615.505913 130.129901 
L 615.66207 185.310711 
L 615.865939 253.391656 
L 615.977798 317.605758 
L 616.115571 390.862343 
L 616.236329 459.130922 
L 616.315772 527.388111 
L 616.342147 529.101249 
" style="stroke:#ffffff;stroke-linejoin:miter;stroke-width:2;"/>
   </g>
  </g>
 </g>
 <defs>
  <clipPath id="p142c64ec70">
   <rect height="543.6" width="558" x="90" y="86.4"/>
  </clipPath>
 </defs>
</svg>
