<?xml version="1.0" encoding="utf-8" standalone="no"?>
<!DOCTYPE svg PUBLIC "-//W3C//DTD SVG 1.1//EN"
  "http://www.w3.org/Graphics/SVG/1.1/DTD/svg11.dtd">
<!-- Created with matplotlib (https://matplotlib.org/) -->
<svg height="720pt" version="1.1" viewBox="0 0 720 720" width="720pt" xmlns="http://www.w3.org/2000/svg" xmlns:xlink="http://www.w3.org/1999/xlink">
 <metadata>
  <rdf:RDF xmlns:cc="http://creativecommons.org/ns#" xmlns:dc="http://purl.org/dc/elements/1.1/" xmlns:rdf="http://www.w3.org/1999/02/22-rdf-syntax-ns#">
   <cc:Work>
    <dc:type rdf:resource="http://purl.org/dc/dcmitype/StillImage"/>
    <dc:date>2021-05-07T11:03:07.113531</dc:date>
    <dc:format>image/svg+xml</dc:format>
    <dc:creator>
     <cc:Agent>
      <dc:title>Matplotlib v3.3.3, https://matplotlib.org/</dc:title>
     </cc:Agent>
    </dc:creator>
   </cc:Work>
  </rdf:RDF>
 </metadata>
 <defs>
  <style type="text/css">*{stroke-linecap:butt;stroke-linejoin:round;}</style>
 </defs>
 <g id="figure_1">
  <g id="patch_1">
   <path d="M 0 720 
L 720 720 
L 720 0 
L 0 0 
z
" style="fill:none;"/>
  </g>
  <g id="axes_1">
   <g id="patch_2">
    <path clip-path="url(#p04247961d7)" d="M 249.584757 208.221343 
L 269.576448 208.347942 
L 289.650632 208.272168 
L 309.679509 208.232193 
L 349.267027 208.169773 
L 362.178854 208.165524 
L 370.080796 208.162928 
L 391.306618 208.156065 
L 411.698927 208.149636 
L 417.772476 208.147749 
L 432.55979 208.146845 
L 437.70849 208.146531 
L 469.852527 208.144913 
L 482.826312 208.144363 
L 502.657255 208.209033 
L 535.066629 208.321297 
L 556.803139 208.396828 
L 556.840758 227.736429 
L 556.902931 259.717783 
L 557.194102 263.393251 
L 557.242087 288.079615 
L 557.311254 323.666156 
L 557.430973 352.464706 
L 557.449055 394.521228 
L 557.386687 425.204812 
L 557.247345 442.041209 
L 557.323706 456.162924 
L 557.575702 467.154933 
L 557.591878 488.372987 
L 557.606835 507.905801 
L 520.423181 507.94593 
L 485.108523 507.984496 
L 450.65667 508.022563 
L 412.804463 508.064942 
L 409.346203 508.068872 
L 345.747253 508.141234 
L 334.908252 508.153665 
L 312.724536 508.179298 
L 294.377648 508.200581 
L 275.213318 508.223009 
L 262.488874 508.237964 
L 260.485387 508.240304 
L 186.452429 508.298093 
L 180.554514 508.305224 
L 180.498829 467.584873 
L 180.393165 406.048462 
L 198.586916 401.263994 
L 213.422461 398.072216 
L 216.763206 397.300616 
L 221.547113 395.299276 
L 220.640587 393.381604 
L 217.835162 390.238228 
L 215.481868 387.401317 
L 212.493921 383.183673 
L 209.168717 377.614801 
L 207.611036 369.193956 
L 207.914231 361.124269 
L 207.875882 338.453888 
L 207.849804 323.056335 
L 207.597142 304.719869 
L 207.540804 283.525949 
L 207.311595 243.428521 
L 207.344678 208.244832 
L 229.572484 208.094776 
L 249.584757 208.221343 
" style="stroke:#ffffff;stroke-linejoin:miter;stroke-width:2;"/>
   </g>
  </g>
 </g>
 <defs>
  <clipPath id="p04247961d7">
   <rect height="543.6" width="558" x="90" y="86.4"/>
  </clipPath>
 </defs>
</svg>
