<?xml version="1.0" encoding="utf-8" standalone="no"?>
<!DOCTYPE svg PUBLIC "-//W3C//DTD SVG 1.1//EN"
  "http://www.w3.org/Graphics/SVG/1.1/DTD/svg11.dtd">
<!-- Created with matplotlib (https://matplotlib.org/) -->
<svg height="720pt" version="1.1" viewBox="0 0 720 720" width="720pt" xmlns="http://www.w3.org/2000/svg" xmlns:xlink="http://www.w3.org/1999/xlink">
 <metadata>
  <rdf:RDF xmlns:cc="http://creativecommons.org/ns#" xmlns:dc="http://purl.org/dc/elements/1.1/" xmlns:rdf="http://www.w3.org/1999/02/22-rdf-syntax-ns#">
   <cc:Work>
    <dc:type rdf:resource="http://purl.org/dc/dcmitype/StillImage"/>
    <dc:date>2021-05-28T08:56:46.298266</dc:date>
    <dc:format>image/svg+xml</dc:format>
    <dc:creator>
     <cc:Agent>
      <dc:title>Matplotlib v3.3.3, https://matplotlib.org/</dc:title>
     </cc:Agent>
    </dc:creator>
   </cc:Work>
  </rdf:RDF>
 </metadata>
 <defs>
  <style type="text/css">*{stroke-linecap:butt;stroke-linejoin:round;}</style>
 </defs>
 <g id="figure_1">
  <g id="patch_1">
   <path d="M 0 720 
L 720 720 
L 720 0 
L 0 0 
z
" style="fill:none;"/>
  </g>
  <g id="axes_1">
   <g id="patch_2">
    <path clip-path="url(#pbeff5cf1db)" d="M 529.562013 364.811438 
L 587.241152 500.059222 
L 517.705754 527.431453 
L 511.22968 530.080081 
L 508.759269 531.058394 
L 506.206779 531.962208 
L 503.428702 532.914425 
L 500.073909 533.901965 
L 498.432105 534.358142 
L 496.910893 534.707532 
L 495.408128 535.041063 
L 494.569642 535.223309 
L 492.854453 535.58531 
L 489.972363 536.094303 
L 487.202218 536.466873 
L 485.414084 536.668535 
L 483.222708 536.860403 
L 480.863954 537.036851 
L 478.773468 537.156309 
L 477.002408 537.2094 
L 401.506933 537.467094 
L 386.150165 537.458423 
L 378.85918 537.536976 
L 362.938751 537.480544 
L 323.097125 537.42426 
L 308.818801 537.416908 
L 300.037545 537.301482 
L 295.739466 537.271556 
L 272.389694 537.290822 
L 270.876994 537.332291 
L 269.757209 537.288058 
L 251.823893 537.292645 
L 223.818582 537.375453 
L 150.758848 537.343068 
L 151.500554 415.065161 
L 164.645747 432.42392 
L 185.088192 459.420055 
L 187.096447 461.934547 
L 201.853518 429.30616 
L 224.702601 366.388129 
L 240.780601 335.597829 
L 278.465802 289.379689 
L 286.442402 279.541159 
L 312.055671 268.371518 
L 310.32102 265.133502 
L 308.930586 260.702531 
L 308.381232 256.292696 
L 308.173744 252.908753 
L 308.160819 250.632729 
L 308.118261 234.578355 
L 317.497873 234.557151 
L 365.160327 196.104681 
L 386.519291 178.871904 
L 447.418717 178.863024 
L 466.464533 183.415886 
L 478.373172 186.260153 
L 502.346869 191.985648 
L 514.320305 194.794514 
L 514.911048 267.71547 
L 514.874533 294.10673 
L 515.755585 307.266061 
L 518.207495 324.229571 
L 522.404117 344.680089 
L 529.562013 364.811438 
" style="fill:#1a1a1a;stroke:#ffffff;stroke-linejoin:miter;stroke-width:4;"/>
   </g>
  </g>
 </g>
 <defs>
  <clipPath id="pbeff5cf1db">
   <rect height="543.6" width="558" x="90" y="86.4"/>
  </clipPath>
 </defs>
</svg>
