<?xml version="1.0" encoding="utf-8" standalone="no"?>
<!DOCTYPE svg PUBLIC "-//W3C//DTD SVG 1.1//EN"
  "http://www.w3.org/Graphics/SVG/1.1/DTD/svg11.dtd">
<!-- Created with matplotlib (https://matplotlib.org/) -->
<svg height="720pt" version="1.1" viewBox="0 0 720 720" width="720pt" xmlns="http://www.w3.org/2000/svg" xmlns:xlink="http://www.w3.org/1999/xlink">
 <metadata>
  <rdf:RDF xmlns:cc="http://creativecommons.org/ns#" xmlns:dc="http://purl.org/dc/elements/1.1/" xmlns:rdf="http://www.w3.org/1999/02/22-rdf-syntax-ns#">
   <cc:Work>
    <dc:type rdf:resource="http://purl.org/dc/dcmitype/StillImage"/>
    <dc:date>2021-05-28T08:56:49.137961</dc:date>
    <dc:format>image/svg+xml</dc:format>
    <dc:creator>
     <cc:Agent>
      <dc:title>Matplotlib v3.3.3, https://matplotlib.org/</dc:title>
     </cc:Agent>
    </dc:creator>
   </cc:Work>
  </rdf:RDF>
 </metadata>
 <defs>
  <style type="text/css">*{stroke-linecap:butt;stroke-linejoin:round;}</style>
 </defs>
 <g id="figure_1">
  <g id="patch_1">
   <path d="M 0 720 
L 720 720 
L 720 0 
L 0 0 
z
" style="fill:none;"/>
  </g>
  <g id="axes_1">
   <g id="patch_2">
    <path clip-path="url(#p669f44a9ce)" d="M 607.221038 186.274474 
L 607.205444 202.403008 
L 605.415926 202.389254 
L 604.584203 202.858423 
L 604.285234 202.510076 
L 603.953254 202.444254 
L 603.669853 202.24971 
L 603.378578 202.025215 
L 603.090652 201.781843 
L 602.899555 201.59312 
L 602.728852 201.381473 
L 602.728274 201.243951 
L 602.813148 200.732796 
L 602.914953 200.360079 
L 602.924814 199.89992 
L 602.907602 199.427772 
L 602.851177 198.91643 
L 602.777866 198.696415 
L 602.540369 198.353981 
L 602.485124 197.917687 
L 602.44873 197.4606 
L 602.357328 197.236633 
L 602.204744 197.011014 
L 602.181032 196.899908 
L 602.23002 196.671098 
L 602.209723 196.555934 
L 602.077528 196.055142 
L 602.095085 195.929639 
L 602.187159 195.694496 
L 602.219929 195.291853 
L 602.310222 195.046606 
L 602.316471 194.896911 
L 602.213847 194.664931 
L 601.912403 194.280399 
L 601.637543 194.067608 
L 601.547581 194.03908 
L 601.548193 193.334724 
L 601.548899 192.52142 
L 601.287221 192.546433 
L 600.934795 192.554022 
L 600.64964 192.541687 
L 600.362497 192.497676 
L 599.962015 192.324047 
L 599.699869 192.271972 
L 599.370109 192.280564 
L 599.029563 192.300449 
L 598.690283 192.305129 
L 598.386672 192.225985 
L 598.102131 192.208801 
L 597.811118 192.216186 
L 597.383863 192.260906 
L 596.950058 192.328358 
L 596.745301 192.400325 
L 596.583143 192.561039 
L 596.403895 192.850203 
L 596.208193 193.129499 
L 595.910851 193.418912 
L 595.587362 193.696925 
L 595.25883 193.966218 
L 595.031505 194.142007 
L 594.788106 194.297595 
L 594.412145 194.472956 
L 594.02798 194.650883 
L 593.720771 194.832784 
L 593.423138 195.049777 
L 593.108955 195.327286 
L 592.794343 195.629244 
L 592.484348 195.937 
L 592.333524 196.132036 
L 592.115001 196.610598 
L 591.948408 196.743015 
L 591.541564 196.962882 
L 591.118812 197.182217 
L 590.693294 197.391425 
L 590.471249 197.446299 
L 590.298834 197.421009 
L 589.873929 197.178767 
L 589.683715 197.020094 
L 589.489463 196.719867 
L 589.406778 196.313847 
L 589.247502 196.138834 
L 588.95112 195.904061 
L 588.641147 195.668891 
L 588.32616 195.44442 
L 587.899601 195.214327 
L 587.477863 195.11262 
L 587.177416 194.961352 
L 586.872998 194.787155 
L 586.572823 194.604186 
L 586.285846 194.377315 
L 586.268428 194.132694 
L 586.190473 194.03405 
L 585.985334 194.009964 
L 585.754682 194.069944 
L 585.64601 194.039235 
L 585.396137 193.909092 
L 585.140049 193.782285 
L 584.965914 193.756001 
L 584.562711 193.758334 
L 584.349544 193.875879 
L 584.001255 194.229803 
L 583.704221 194.648268 
L 583.405206 195.078653 
L 583.309006 195.147954 
L 583.124352 195.430825 
L 582.956527 195.736523 
L 582.789779 196.237027 
L 582.673025 196.758384 
L 582.573695 197.296019 
L 582.522555 197.838329 
L 582.575595 197.951269 
L 582.889088 198.127428 
L 583.114592 198.486113 
L 583.296218 198.648871 
L 583.423804 198.672405 
L 583.54603 198.640336 
L 583.893339 198.465401 
L 583.991548 198.464825 
L 584.18156 198.572922 
L 584.429144 198.854637 
L 584.511003 199.062476 
L 584.548408 199.349432 
L 584.554746 199.764984 
L 584.546782 200.18875 
L 584.509 200.42358 
L 584.430108 200.510995 
L 584.242796 200.633437 
L 583.907311 200.754704 
L 583.491051 200.742817 
L 583.078489 200.748399 
L 582.920819 200.951555 
L 582.662152 201.208425 
L 582.390146 201.466439 
L 582.099321 201.664194 
L 581.738985 201.710318 
L 581.356061 201.720092 
L 581.059408 201.855107 
L 580.757607 202.000639 
L 580.426416 202.068336 
L 580.082579 202.099629 
L 579.790009 202.082753 
L 579.494941 202.085841 
L 579.183402 202.183525 
L 578.865955 202.314976 
L 578.546973 202.4271 
L 578.319399 202.398072 
L 577.957502 202.147108 
L 577.590821 201.866916 
L 577.216716 201.603613 
L 576.878041 201.414378 
L 576.519134 201.25983 
L 576.247001 201.195488 
L 575.967246 201.137657 
L 575.627122 200.980873 
L 575.19972 200.96313 
L 574.897439 201.079638 
L 574.589064 201.206348 
L 574.122273 201.247485 
L 573.87315 201.211247 
L 573.620594 201.182671 
L 573.297088 201.284671 
L 573.139107 201.41602 
L 573.042506 201.391308 
L 572.888378 201.208159 
L 572.645569 201.240938 
L 572.36025 201.410457 
L 572.119203 201.452298 
L 572.007078 201.424652 
L 571.970407 201.307553 
L 571.875454 201.263624 
L 571.607948 201.321394 
L 571.34019 201.411341 
L 571.175381 201.55185 
L 570.94248 201.890959 
L 570.798622 202.237156 
L 570.678406 202.604386 
L 570.640984 202.922128 
L 570.655865 203.180913 
L 570.734404 203.419094 
L 570.78272 203.839484 
L 570.900781 204.149126 
L 571.019695 204.465066 
L 571.050682 204.865325 
L 571.016803 205.003033 
L 570.846343 205.283992 
L 570.672005 205.570324 
L 570.64067 205.69994 
L 570.60581 206.009568 
L 570.474777 206.39865 
L 570.430422 206.912609 
L 570.487697 207.235827 
L 570.586496 207.554819 
L 570.737535 207.87062 
L 570.896741 208.188069 
L 570.89645 208.319518 
L 570.737738 208.68449 
L 570.467302 209.110755 
L 570.305977 209.265424 
L 570.023933 209.517219 
L 569.723902 209.746097 
L 569.480578 209.854628 
L 569.2198 209.926012 
L 568.973424 209.93047 
L 568.753236 210.017706 
L 568.567778 210.168452 
L 568.519976 210.068606 
L 568.113277 210.057852 
L 567.905178 210.150064 
L 567.63254 210.342189 
L 567.351965 210.53049 
L 567.040507 210.630376 
L 566.697978 210.649211 
L 566.373579 210.605966 
L 566.302802 210.36975 
L 566.154012 210.10355 
L 565.985264 209.845773 
L 565.820879 209.684931 
L 565.624062 209.593046 
L 565.574583 209.596847 
L 565.524159 209.600718 
L 565.251396 209.710951 
L 564.980694 209.844545 
L 564.700819 210.074722 
L 564.611782 210.206697 
L 564.581413 210.566875 
L 564.673041 210.638134 
L 564.883239 210.633863 
L 564.976515 210.685905 
L 565.254924 210.918894 
L 565.395447 211.144584 
L 565.398618 211.286137 
L 565.295627 211.786276 
L 565.206723 211.948591 
L 565.112241 212.01386 
L 564.730519 212.193022 
L 564.350509 212.392463 
L 564.091492 212.665972 
L 563.879734 212.708675 
L 563.627221 212.485659 
L 563.519513 212.483254 
L 563.335355 212.939385 
L 563.214384 213.460861 
L 563.18859 213.88369 
L 563.263494 214.27562 
L 563.208168 214.642005 
L 563.218788 214.908883 
L 563.358063 215.243794 
L 563.522961 215.489632 
L 563.680664 215.745514 
L 563.794626 216.207975 
L 564.012339 216.411351 
L 564.259793 216.601651 
L 564.559436 216.965959 
L 564.734973 217.213737 
L 564.897604 217.479722 
L 565.06048 217.89943 
L 565.139559 218.366224 
L 565.223006 218.840924 
L 565.40919 219.271626 
L 565.580326 219.390496 
L 565.656304 219.443255 
L 565.834944 219.716115 
L 565.873116 220.088293 
L 565.864958 220.496583 
L 565.905912 220.607583 
L 566.021896 220.734316 
L 566.132346 220.772091 
L 566.590364 220.698644 
L 566.867244 220.699961 
L 567.145318 220.729784 
L 567.219726 220.804184 
L 567.26853 220.935367 
L 567.355148 221.454614 
L 567.492967 221.779919 
L 567.671413 222.085795 
L 567.870213 222.469537 
L 568.047026 222.889053 
L 568.190119 223.320492 
L 568.260393 223.753735 
L 568.28176 224.209836 
L 568.294077 224.672651 
L 568.276223 225.142198 
L 568.173518 225.504814 
L 567.954541 225.876202 
L 567.85362 226.251937 
L 567.867212 226.58473 
L 567.872791 226.915195 
L 567.738212 227.077774 
L 567.54372 227.127442 
L 567.114655 227.121851 
L 566.858738 227.178797 
L 566.608753 227.279517 
L 566.373388 227.454436 
L 566.138188 227.647324 
L 565.890568 227.763021 
L 565.651153 227.945625 
L 565.585366 227.988256 
L 565.402691 228.106665 
L 565.06494 228.099528 
L 564.833558 228.185822 
L 564.728371 228.167213 
L 564.524441 228.022786 
L 564.299529 228.013995 
L 564.028267 228.241084 
L 563.906805 228.450105 
L 563.860416 228.682949 
L 563.865816 229.001586 
L 563.851886 229.311967 
L 563.699129 229.45444 
L 563.602736 229.6815 
L 563.594824 230.04762 
L 563.655634 230.372874 
L 563.852475 230.873291 
L 563.832326 231.40733 
L 563.712448 231.782174 
L 563.69089 232.186781 
L 563.489754 232.296164 
L 563.42126 232.39565 
L 563.333631 232.655039 
L 563.327013 232.924061 
L 563.241273 233.210958 
L 563.134742 233.497531 
L 562.926566 233.978064 
L 562.809995 234.524802 
L 562.84836 234.63279 
L 563.068057 234.310798 
L 563.300449 233.974883 
L 563.376596 234.052295 
L 563.338886 234.303305 
L 563.239815 234.506122 
L 562.957366 234.942596 
L 562.835572 235.274978 
L 562.78892 235.651416 
L 562.791197 236.042522 
L 562.792034 236.185617 
L 562.790905 236.727345 
L 562.731133 236.853087 
L 562.741107 236.972337 
L 562.902079 237.145327 
L 563.117938 237.25734 
L 563.253394 237.505309 
L 563.33905 237.798049 
L 563.416067 238.304251 
L 563.470041 238.824679 
L 563.472529 239.312337 
L 563.474211 239.809581 
L 563.525958 240.12034 
L 563.575103 240.437968 
L 563.589834 240.900849 
L 563.59895 241.399152 
L 563.603857 241.898002 
L 563.607394 242.396967 
L 563.612359 242.895591 
L 563.621609 243.393373 
L 563.637963 243.889902 
L 563.735081 244.241231 
L 563.721884 244.551182 
L 563.696396 244.870433 
L 563.69171 245.371829 
L 563.693346 245.888832 
L 563.702048 246.405422 
L 563.745595 246.922913 
L 563.788255 247.210567 
L 563.849698 247.498703 
L 563.948974 247.777474 
L 564.050223 248.061772 
L 564.139471 248.589105 
L 564.306781 249.039151 
L 564.372234 249.48085 
L 564.407078 249.938526 
L 564.405508 250.387893 
L 564.401452 250.844603 
L 564.451975 250.979818 
L 564.536731 251.057201 
L 564.634954 251.056623 
L 564.71884 251.131966 
L 564.749179 251.380542 
L 564.749545 251.840081 
L 564.753971 252.308817 
L 564.778209 252.720933 
L 564.812029 253.145142 
L 564.854073 253.568211 
L 564.913164 254.027181 
L 564.984351 254.503953 
L 565.05048 254.980978 
L 565.096417 255.459786 
L 565.112494 255.881743 
L 565.111383 256.322793 
L 565.100271 256.76435 
L 565.087441 257.205206 
L 565.041994 257.6605 
L 564.939726 258.038456 
L 564.835031 258.424165 
L 564.788601 258.716807 
L 564.760014 259.019202 
L 564.754113 259.458104 
L 564.782106 259.887733 
L 564.844752 260.317107 
L 564.973569 260.673033 
L 565.120033 261.031437 
L 565.156463 261.297184 
L 565.335063 261.745204 
L 565.531121 262.202591 
L 565.708457 262.667199 
L 565.771263 262.944504 
L 565.803925 263.236969 
L 565.813904 263.762736 
L 565.798298 264.044726 
L 565.78528 264.331201 
L 565.816818 264.45236 
L 565.99113 264.928641 
L 566.047387 265.395499 
L 566.065261 265.852487 
L 566.040066 266.30969 
L 565.821592 266.800382 
L 565.852777 267.044924 
L 565.987217 267.376826 
L 565.999048 267.40607 
L 565.999588 267.535502 
L 565.839009 267.862045 
L 565.892895 267.97197 
L 565.878326 268.410697 
L 565.884554 268.858584 
L 565.924223 269.382695 
L 565.966408 269.917363 
L 565.977251 270.334203 
L 565.967288 270.759172 
L 565.944914 271.154784 
L 565.911331 271.561848 
L 565.852203 271.961954 
L 565.691534 272.494678 
L 565.525112 273.026411 
L 565.500519 273.589004 
L 565.508689 274.089279 
L 565.521176 274.61033 
L 565.537697 275.131242 
L 565.558233 275.651697 
L 565.571531 275.910529 
L 565.700446 276.302733 
L 565.762135 276.718082 
L 565.804644 277.14643 
L 565.799705 277.415496 
L 565.640395 277.827466 
L 565.624146 278.067989 
L 565.669959 278.566875 
L 565.698132 279.074816 
L 565.659774 279.569146 
L 565.568059 280.063588 
L 565.390131 280.560887 
L 565.204449 281.066939 
L 565.151513 281.458066 
L 565.096729 281.855925 
L 564.970031 282.212715 
L 564.800526 282.55549 
L 564.603823 282.83493 
L 564.401718 283.118635 
L 564.204275 283.616245 
L 564.053436 283.824383 
L 563.906632 284.13127 
L 563.773641 284.454619 
L 563.63764 284.748331 
L 563.423294 285.060281 
L 563.194374 285.375437 
L 562.973566 285.69709 
L 562.814154 286.031609 
L 562.672809 286.428768 
L 562.518049 286.82698 
L 562.270638 287.308791 
L 561.989413 287.76942 
L 561.708719 288.116138 
L 561.417101 288.465313 
L 561.197569 288.821227 
L 560.976789 289.187497 
L 560.811135 289.410626 
L 560.626477 289.62013 
L 560.295085 289.891705 
L 560.062732 290.207975 
L 559.808171 290.445543 
L 559.547511 290.685677 
L 559.47298 290.820314 
L 559.310231 291.255401 
L 559.146566 291.706373 
L 558.976006 292.152048 
L 558.89277 292.258163 
L 558.77687 292.686369 
L 558.395133 292.955969 
L 558.093064 293.029791 
L 557.916084 293.162541 
L 557.662637 293.226104 
L 557.426456 293.206062 
L 557.161252 293.137597 
L 556.894915 293.047833 
L 556.558124 292.90329 
L 556.213756 292.74398 
L 555.86646 292.5948 
L 555.486618 292.446259 
L 555.086135 292.291731 
L 554.684478 292.141758 
L 554.281377 291.999219 
L 553.876563 291.866947 
L 553.561076 291.806455 
L 553.233965 291.776156 
L 552.805343 291.730532 
L 552.358788 291.685557 
L 551.912061 291.643189 
L 551.4652 291.603427 
L 551.138543 291.556156 
L 550.80352 291.529988 
L 550.559416 291.527675 
L 550.312123 291.552125 
L 549.86427 291.694435 
L 549.626331 291.672357 
L 549.266702 291.495546 
L 548.999232 291.450062 
L 548.816942 291.482956 
L 548.455633 291.627507 
L 548.086196 291.771408 
L 547.716409 291.846356 
L 547.358032 291.827981 
L 546.987965 291.790038 
L 546.622306 291.730747 
L 546.281794 291.566134 
L 546.003714 291.340289 
L 545.788082 291.047092 
L 545.59697 290.696863 
L 545.398366 290.342403 
L 545.136582 289.962164 
L 544.850953 289.574965 
L 544.575494 289.183497 
L 544.333981 288.774486 
L 544.240838 288.455695 
L 544.254259 288.11214 
L 544.209264 287.63852 
L 544.183778 287.153238 
L 544.19112 286.683699 
L 544.194923 286.205416 
L 544.16631 285.879502 
L 544.107427 285.553273 
L 543.998067 285.263954 
L 543.902755 284.966534 
L 543.893346 284.443713 
L 543.901631 283.905605 
L 543.827557 283.646847 
L 543.703201 283.459509 
L 543.51362 283.185643 
L 543.388114 282.727205 
L 543.258502 282.501146 
L 543.103768 282.32607 
L 542.783971 282.009145 
L 542.446734 281.711474 
L 542.250463 281.675065 
L 541.985455 281.68086 
L 541.720896 281.728848 
L 541.345299 281.872825 
L 540.956763 282.04022 
L 540.572347 282.220551 
L 540.193514 282.408808 
L 540.039146 282.582307 
L 539.820142 282.877498 
L 539.593495 283.174055 
L 539.430418 283.312914 
L 539.298679 283.525097 
L 539.112542 284.026782 
L 539.031013 284.112504 
L 538.80944 284.276746 
L 538.593804 284.457616 
L 538.39183 284.693107 
L 538.222736 284.96775 
L 538.053101 285.367406 
L 537.900065 285.795283 
L 537.759562 286.228089 
L 537.656791 286.743934 
L 537.538729 287.161879 
L 537.403295 287.582059 
L 537.229335 288.106144 
L 537.200949 288.346702 
L 537.05114 288.713825 
L 536.995819 289.039447 
L 536.934614 289.370331 
L 536.795888 289.773134 
L 536.63709 290.182525 
L 536.496615 290.598019 
L 536.451511 290.899817 
L 536.413035 291.210674 
L 536.310331 291.582153 
L 536.184616 291.95295 
L 536.071994 292.173253 
L 535.852178 292.491853 
L 535.617707 292.806817 
L 535.464367 293.111765 
L 535.41789 293.503183 
L 535.279448 293.895359 
L 535.120354 294.293897 
L 534.95031 294.684038 
L 534.790773 294.894228 
L 534.534001 295.104546 
L 534.228586 295.290478 
L 534.15749 295.386389 
L 533.91227 295.831112 
L 533.730178 296.059654 
L 533.469065 296.274077 
L 533.264233 296.344677 
L 532.836808 296.361308 
L 532.394609 296.366078 
L 531.955012 296.395546 
L 531.52014 296.48184 
L 531.083522 296.615948 
L 530.717673 296.748954 
L 530.335118 296.900079 
L 529.953414 297.054558 
L 529.571012 297.204074 
L 529.186363 297.340315 
L 528.804366 297.364319 
L 528.534532 297.333097 
L 528.25904 297.300928 
L 527.940109 297.291342 
L 527.61103 297.290308 
L 527.282284 297.298293 
L 526.981883 297.317085 
L 526.613598 297.162724 
L 526.318362 297.136645 
L 525.901764 297.271803 
L 525.66562 297.279279 
L 525.289058 297.163379 
L 524.903923 297.044994 
L 524.509075 296.984943 
L 524.10589 296.927959 
L 523.860937 296.831503 
L 523.657602 296.67077 
L 523.513256 296.471238 
L 523.477371 296.194095 
L 523.36491 295.861546 
L 523.227472 295.534049 
L 522.997876 295.175656 
L 522.931602 294.923011 
L 522.908224 294.520458 
L 522.911637 294.109747 
L 522.994593 293.746802 
L 523.002963 293.455323 
L 522.986465 293.000465 
L 522.965054 292.531698 
L 522.925925 292.068363 
L 522.812745 291.791331 
L 522.823732 291.516141 
L 523.002055 291.003243 
L 523.149407 290.789005 
L 523.33158 290.631772 
L 523.652683 290.498801 
L 524.019897 290.478319 
L 524.397613 290.490572 
L 524.862864 290.517411 
L 525.333676 290.57581 
L 525.721074 290.729135 
L 526.139558 290.737683 
L 526.342825 290.818903 
L 526.605272 291.044778 
L 526.923668 291.215905 
L 527.25851 291.354637 
L 527.494673 291.344103 
L 527.58665 291.300133 
L 527.853818 291.075528 
L 528.153851 290.708185 
L 528.297669 290.428735 
L 528.346855 290.144314 
L 528.325584 289.77355 
L 528.272247 289.400435 
L 528.126876 289.041922 
L 527.933192 288.818254 
L 527.740893 288.585906 
L 527.60068 288.296729 
L 527.501451 287.977832 
L 527.298835 287.670353 
L 527.035025 287.36415 
L 526.751184 287.069861 
L 526.435391 286.770637 
L 526.102317 286.464788 
L 525.766002 286.163655 
L 525.427565 285.866172 
L 525.058352 285.59013 
L 524.708039 285.286335 
L 524.536497 284.815748 
L 524.327727 284.455274 
L 524.08217 284.106502 
L 523.851159 283.74258 
L 523.82307 283.461329 
L 523.870654 283.302262 
L 524.018582 283.019727 
L 524.165231 282.729058 
L 524.281168 282.347731 
L 524.498228 282.348429 
L 524.692824 282.453109 
L 524.963959 282.676937 
L 525.191525 282.745899 
L 525.46931 282.705736 
L 525.84395 282.515549 
L 526.229509 282.345861 
L 526.568812 282.325971 
L 526.921492 282.337702 
L 527.208961 282.316225 
L 527.497918 282.265493 
L 527.764735 282.15677 
L 528.035986 282.03744 
L 528.4089 281.928423 
L 528.795989 281.82676 
L 529.179112 281.711662 
L 529.533156 281.523602 
L 529.718749 281.335799 
L 529.873225 281.119879 
L 530.018697 280.888966 
L 530.055879 280.766617 
L 530.067749 280.481253 
L 530.064699 280.168007 
L 530.032347 279.858593 
L 529.860128 279.571459 
L 529.852411 279.265899 
L 529.855979 278.94773 
L 529.758443 278.680858 
L 529.470378 278.238966 
L 529.156683 277.807315 
L 528.911595 277.528854 
L 528.662912 277.245479 
L 528.568901 277.029566 
L 528.482877 276.96345 
L 528.138939 276.856948 
L 527.822869 276.830909 
L 527.504961 276.70501 
L 527.114858 276.462022 
L 526.949182 276.611061 
L 526.537858 276.825682 
L 526.25838 276.910691 
L 526.084409 277.162499 
L 525.911645 277.430983 
L 525.701637 277.534219 
L 525.379574 277.525453 
L 525.052118 277.475043 
L 524.859252 277.359145 
L 524.699336 277.208549 
L 524.426236 276.776842 
L 524.377333 276.520081 
L 524.381034 276.107897 
L 524.394283 275.681815 
L 524.378579 275.262464 
L 524.304067 274.989931 
L 524.189599 274.722576 
L 524.006831 274.331512 
L 523.878148 274.148259 
L 523.67858 273.935497 
L 523.464404 273.733057 
L 523.130935 273.48302 
L 522.800506 273.216304 
L 522.5988 272.950361 
L 522.400521 272.668598 
L 522.125902 272.4346 
L 522.022587 272.440875 
L 521.856915 272.597052 
L 521.641691 272.695218 
L 521.320447 272.700796 
L 521.098075 272.605318 
L 520.813069 272.40192 
L 520.383329 272.43211 
L 520.03076 272.387796 
L 519.820523 272.281091 
L 519.50398 272.025241 
L 519.201738 271.733712 
L 518.918423 271.395397 
L 518.640168 271.02907 
L 518.371386 270.653626 
L 518.113237 270.241713 
L 517.853015 269.818699 
L 517.552191 269.450216 
L 517.194991 269.133266 
L 516.815253 268.833715 
L 516.776994 268.807893 
L 516.472604 268.602542 
L 516.118413 268.375118 
L 515.893696 268.204549 
L 515.63752 267.893267 
L 515.377535 267.57254 
L 515.223946 267.419311 
L 515.009839 267.205725 
L 514.655859 266.824442 
L 514.441897 266.352466 
L 514.399677 265.982854 
L 514.357721 265.604654 
L 514.256939 265.311751 
L 514.124367 265.025605 
L 513.900416 264.63254 
L 513.593876 264.266262 
L 513.676754 263.901753 
L 513.654643 263.768397 
L 513.467092 263.423656 
L 513.266462 263.24688 
L 512.946373 263.069166 
L 512.622225 262.883593 
L 512.328137 262.6103 
L 512.12522 262.297999 
L 511.93669 262.115684 
L 511.732588 261.944372 
L 511.415379 261.682453 
L 511.082278 261.413636 
L 510.751203 261.142619 
L 510.427091 260.863008 
L 510.288347 260.649448 
L 510.102174 260.225828 
L 509.936046 260.058948 
L 509.655966 259.836107 
L 509.253459 259.591756 
L 508.913565 259.418615 
L 508.561112 259.260124 
L 508.22216 259.172115 
L 507.823131 258.933812 
L 507.447828 258.603331 
L 507.191712 258.544685 
L 506.921881 258.503296 
L 506.51273 258.315601 
L 506.224744 258.260677 
L 506.099943 258.086465 
L 505.992949 258.046655 
L 505.674775 258.061187 
L 505.352216 258.099992 
L 505.22161 258.177603 
L 504.964969 258.597759 
L 504.816769 258.997063 
L 504.643482 259.168977 
L 504.359723 259.294036 
L 504.275546 259.553383 
L 504.287074 259.830411 
L 504.16296 260.219452 
L 504.247642 260.477812 
L 504.346141 260.548016 
L 504.575951 260.496104 
L 504.647781 260.975 
L 504.767791 261.235165 
L 504.750202 261.35258 
L 504.591289 261.6003 
L 504.412853 261.839948 
L 504.246346 261.986544 
L 504.089754 262.030959 
L 503.622921 262.053939 
L 503.527973 262.012034 
L 503.306642 261.829297 
L 503.155059 261.433791 
L 503.104615 260.920388 
L 503.094036 260.528067 
L 503.098626 260.127642 
L 503.134735 259.68817 
L 503.161168 259.243472 
L 503.082644 259.013363 
L 502.978857 258.916924 
L 502.712329 258.788044 
L 502.433363 258.680475 
L 502.150685 258.654846 
L 501.785043 258.673637 
L 501.683851 258.678847 
L 501.248501 258.760466 
L 500.809407 258.873111 
L 500.512407 259.00165 
L 500.208299 259.124417 
L 499.891489 259.186445 
L 499.560495 259.227934 
L 499.230208 259.257593 
L 499.102519 259.216896 
L 498.929609 259.072321 
L 498.717658 259.067501 
L 498.39994 259.310038 
L 498.08484 259.360441 
L 497.861481 259.507383 
L 497.514611 259.656226 
L 497.161529 259.810829 
L 496.806812 260.035227 
L 496.437944 260.229726 
L 496.113813 260.284306 
L 495.769733 260.29916 
L 495.432198 260.343873 
L 495.146718 260.463363 
L 494.868296 260.630341 
L 494.670901 260.80545 
L 494.47305 260.87134 
L 494.286494 260.761198 
L 494.030384 260.503853 
L 493.946752 260.289974 
L 493.654256 260.186544 
L 493.435367 260.170628 
L 493.107404 260.03102 
L 492.845332 259.988495 
L 492.574722 259.966417 
L 492.124972 259.957958 
L 491.686734 260.019191 
L 491.335139 259.996008 
L 490.960762 259.879917 
L 490.602411 259.887081 
L 490.320276 259.984725 
L 490.032951 260.085615 
L 489.772735 260.077056 
L 489.462149 259.972714 
L 489.216929 259.838403 
L 488.96478 259.707701 
L 488.639682 259.581076 
L 488.300535 259.463572 
L 487.957099 259.370863 
L 487.604915 259.303109 
L 487.235327 259.248696 
L 486.864316 259.203733 
L 486.493365 259.161126 
L 486.118049 259.115691 
L 485.726787 259.070566 
L 485.33528 259.034527 
L 484.943765 259.014577 
L 484.601627 259.017401 
L 484.248829 259.044549 
L 483.901705 259.097614 
L 483.568238 259.281618 
L 483.32156 259.311344 
L 483.068821 259.340191 
L 482.805864 259.448697 
L 482.539131 259.569851 
L 482.083058 259.692876 
L 481.822217 259.937112 
L 481.537503 259.840726 
L 481.234222 260.071949 
L 480.940195 260.372118 
L 480.765445 260.603723 
L 480.509596 260.805468 
L 480.250535 260.936812 
L 479.979932 261.043219 
L 479.869548 261.015538 
L 479.882672 260.864794 
L 480.004966 260.65576 
L 480.31945 260.463773 
L 480.582317 260.365372 
L 480.845818 260.261442 
L 480.910845 260.157919 
L 480.895645 260.028568 
L 480.792246 260.02515 
L 480.370437 260.087665 
L 479.942559 260.166706 
L 479.713801 260.261087 
L 479.514116 260.442184 
L 479.342439 260.649586 
L 479.381701 260.759564 
L 479.564734 260.854546 
L 479.623758 260.955328 
L 479.614273 261.151547 
L 479.461481 261.482111 
L 479.277622 261.598477 
L 478.96141 261.746732 
L 478.632673 261.8703 
L 478.226151 261.896978 
L 478.01809 261.995284 
L 477.760593 262.213211 
L 477.46999 262.348414 
L 477.400589 262.435785 
L 477.184002 262.805065 
L 476.955751 263.168531 
L 476.842228 263.210668 
L 476.664282 263.101497 
L 476.576657 263.159654 
L 476.385714 263.626982 
L 476.159868 264.036513 
L 475.908475 264.434739 
L 475.726473 264.585479 
L 475.468451 264.681044 
L 475.405075 264.770426 
L 475.168735 265.161886 
L 474.943334 265.572006 
L 474.796888 265.949674 
L 474.647686 266.334211 
L 474.378879 266.730186 
L 474.243113 267.025975 
L 474.142032 267.344391 
L 474.106796 267.656177 
L 474.106008 267.981662 
L 474.128477 268.444467 
L 474.161438 268.921764 
L 474.161142 269.376818 
L 473.998027 269.478981 
L 473.890675 269.800463 
L 473.808631 270.150903 
L 473.721489 270.644285 
L 473.567355 271.013463 
L 473.411961 271.258149 
L 473.270976 271.515353 
L 473.211396 271.826866 
L 473.157945 272.150451 
L 472.985633 272.58878 
L 472.811629 273.035609 
L 472.761805 273.502468 
L 472.768496 273.839412 
L 472.776466 274.183221 
L 472.735213 274.562425 
L 472.596695 274.927487 
L 472.34797 275.326368 
L 472.126788 275.544603 
L 471.895219 275.761216 
L 471.706222 276.014272 
L 471.534948 276.443696 
L 471.367669 276.899038 
L 471.20207 277.355807 
L 471.028417 277.806964 
L 470.886275 278.035482 
L 470.835655 278.37769 
L 470.781991 278.728671 
L 470.629864 279.180511 
L 470.442656 279.626037 
L 470.265829 279.889257 
L 470.082571 280.323156 
L 469.900739 280.781503 
L 469.718347 281.239556 
L 469.525506 281.690232 
L 469.38524 281.921672 
L 469.239512 282.155406 
L 469.064675 282.650977 
L 469.031101 282.905817 
L 469.062711 283.207434 
L 469.179465 283.58434 
L 469.177081 283.916557 
L 469.162001 284.25905 
L 469.183158 284.54767 
L 469.204339 284.841933 
L 469.177883 285.261865 
L 469.171153 285.735324 
L 469.166397 286.24429 
L 469.162914 286.753389 
L 469.159451 287.262399 
L 469.154637 287.77116 
L 469.147216 288.27947 
L 469.135838 288.787173 
L 469.075351 289.037981 
L 468.895153 289.397009 
L 468.591023 289.730456 
L 468.262548 290.05962 
L 467.941221 290.396232 
L 467.817292 290.605337 
L 467.604244 291.086713 
L 467.423452 291.393739 
L 467.242027 291.706928 
L 467.217013 291.857797 
L 467.188026 292.330733 
L 467.112324 292.604759 
L 467.013263 292.877266 
L 466.877779 293.241805 
L 466.717156 293.599275 
L 466.492066 293.999065 
L 466.245433 294.400892 
L 465.989181 294.792825 
L 465.726429 295.078581 
L 465.688532 295.361976 
L 465.728871 295.638818 
L 465.771646 295.922388 
L 465.783115 296.327557 
L 465.775188 296.741762 
L 465.727187 297.300346 
L 465.717685 297.640523 
L 465.739246 297.983142 
L 465.839018 298.339759 
L 465.948446 298.70235 
L 465.95328 298.800349 
L 465.970658 299.152783 
L 465.920575 299.399481 
L 466.069574 299.874178 
L 466.296661 300.294737 
L 466.600789 300.510313 
L 466.804941 300.757456 
L 466.997277 301.029467 
L 467.127777 301.265711 
L 467.130845 301.667262 
L 467.332272 301.677137 
L 467.516201 301.560654 
L 467.575151 301.466811 
L 467.579356 301.346552 
L 467.281177 301.01987 
L 467.340107 300.924984 
L 467.591659 300.721789 
L 467.868699 300.528925 
L 468.159069 300.35096 
L 468.58346 300.189277 
L 468.990737 300.300093 
L 469.405119 300.471314 
L 469.716205 300.615914 
L 470.037489 300.738367 
L 470.372948 300.78263 
L 470.723871 300.79962 
L 471.072524 300.829505 
L 471.305318 300.923941 
L 471.381792 300.997198 
L 471.418532 301.235613 
L 471.369174 301.355959 
L 471.195689 301.502976 
L 471.074156 301.512332 
L 470.911111 301.681773 
L 470.906207 301.942682 
L 471.080723 302.328372 
L 471.26999 302.718717 
L 471.269258 302.836933 
L 471.207718 302.926722 
L 471.212196 303.040855 
L 471.287158 303.308602 
L 471.377756 303.574635 
L 471.458613 303.678456 
L 471.611911 303.33681 
L 471.647219 302.873499 
L 471.646435 302.393022 
L 471.61373 301.922749 
L 471.588067 301.447348 
L 471.671185 301.235222 
L 471.852773 301.342984 
L 472.186247 301.420945 
L 472.271421 301.486036 
L 472.408841 301.707999 
L 472.411001 302.083038 
L 472.35295 302.193195 
L 472.471243 302.391745 
L 472.716681 302.573863 
L 472.970034 302.756858 
L 473.097851 302.937044 
L 473.319953 303.12367 
L 473.545418 303.31546 
L 473.714119 303.551647 
L 473.84927 303.904132 
L 473.965842 304.274852 
L 473.969466 304.411419 
L 473.934324 304.806909 
L 473.818989 305.136216 
L 473.674577 305.459567 
L 473.537623 305.646295 
L 473.434276 305.628103 
L 473.175255 305.368614 
L 473.071089 305.395267 
L 472.944581 305.615613 
L 472.932699 305.862253 
L 472.979727 305.982442 
L 473.199688 306.259324 
L 473.20938 306.377509 
L 473.094132 306.577451 
L 473.076896 306.697744 
L 473.089352 306.966772 
L 473.188735 307.323323 
L 473.378554 307.820372 
L 473.56912 308.193087 
L 473.619004 308.545627 
L 473.770314 308.755363 
L 473.841773 308.981488 
L 473.84845 309.52978 
L 474.055632 310.012538 
L 474.073264 310.257111 
L 474.20201 310.470946 
L 474.41133 310.538893 
L 474.40726 310.777391 
L 474.64822 311.194858 
L 474.982012 311.555137 
L 475.027554 311.909721 
L 475.119843 312.137866 
L 475.079166 312.249026 
L 475.200056 312.436357 
L 475.523146 312.522487 
L 475.738798 312.824843 
L 475.846472 312.849126 
L 476.147798 312.864419 
L 476.447343 312.902214 
L 476.62464 313.06092 
L 476.749716 313.099463 
L 476.990522 313.111729 
L 477.235912 313.107903 
L 477.350471 313.064904 
L 477.60027 312.839279 
L 477.920632 312.82861 
L 478.039493 312.75096 
L 477.9634 312.463046 
L 477.862582 312.151974 
L 477.847529 311.895185 
L 477.76741 311.679242 
L 477.795779 311.434604 
L 477.890144 311.181704 
L 478.095272 310.865413 
L 478.326163 310.567499 
L 478.517072 310.468348 
L 478.697437 310.274443 
L 478.780506 310.017474 
L 478.778248 309.550413 
L 478.785522 309.075775 
L 478.86333 308.803425 
L 478.955093 308.527209 
L 478.994918 308.235769 
L 479.016938 307.933966 
L 479.044518 307.398332 
L 479.078249 306.853584 
L 479.143085 306.60889 
L 479.262645 306.390613 
L 479.47244 306.094736 
L 479.801713 305.806159 
L 480.135112 305.510758 
L 480.246007 305.294529 
L 480.248334 305.047898 
L 480.106628 304.878917 
L 480.142791 304.626114 
L 480.415903 304.270018 
L 480.745779 304.222632 
L 480.990727 304.101792 
L 481.238641 303.97116 
L 481.354982 303.963849 
L 481.832523 303.987571 
L 482.138246 304.080857 
L 482.357037 304.078483 
L 482.613915 304.016548 
L 482.876101 303.954382 
L 483.157397 303.948848 
L 483.593485 304.166282 
L 483.820928 304.140448 
L 484.277809 304.302824 
L 484.58707 304.46438 
L 484.649861 304.721104 
L 484.748904 304.770911 
L 484.85043 304.72081 
L 484.876359 304.608666 
L 485.048128 304.492221 
L 485.364088 304.41836 
L 485.626071 304.222276 
L 485.836142 304.1975 
L 486.082587 304.063609 
L 486.190244 304.061404 
L 486.405024 304.359685 
L 486.514482 304.424756 
L 486.927628 304.305896 
L 487.380868 304.332703 
L 487.563335 304.458799 
L 487.716411 304.686868 
L 487.963778 304.930079 
L 488.208372 305.183468 
L 488.298926 305.417734 
L 488.33064 305.82941 
L 488.457797 306.185915 
L 488.538807 306.704456 
L 488.62652 307.231308 
L 488.814585 307.712069 
L 488.978055 307.925831 
L 489.277845 308.158776 
L 489.647755 308.19794 
L 489.831954 308.316898 
L 489.872314 308.368072 
L 490.124092 308.68744 
L 490.153875 308.919744 
L 490.304332 309.160052 
L 490.302737 309.290483 
L 490.188198 309.337536 
L 490.17499 309.450031 
L 490.160669 309.571999 
L 490.257533 309.745033 
L 490.336458 310.027167 
L 490.338298 310.036455 
L 490.338973 310.036183 
L 490.453724 309.988381 
L 490.574885 309.646768 
L 490.666986 309.707776 
L 490.687946 309.819855 
L 490.645813 310.188861 
L 490.724333 310.53118 
L 490.724949 310.944426 
L 490.70997 311.36233 
L 490.70961 311.372437 
L 490.677976 311.797041 
L 490.567293 312.192643 
L 490.431002 312.540683 
L 490.271116 312.882037 
L 489.97812 313.296248 
L 489.776007 313.473787 
L 489.55307 313.629139 
L 489.331131 313.745355 
L 489.107073 313.868304 
L 488.786842 314.138515 
L 488.463445 314.409431 
L 488.357494 314.392282 
L 487.982102 314.084038 
L 487.7868 313.842094 
L 487.639079 313.653902 
L 487.589987 313.591382 
L 487.380471 313.367534 
L 487.151937 313.170123 
L 486.951332 313.142908 
L 486.56901 312.867302 
L 486.520128 312.623799 
L 486.425463 312.59642 
L 486.122216 312.595243 
L 485.814256 312.618769 
L 485.508982 312.677575 
L 485.21017 312.785818 
L 484.872548 312.999147 
L 484.550847 313.263786 
L 484.323707 313.573954 
L 484.063499 313.794487 
L 483.858566 314.11533 
L 483.652695 314.447391 
L 483.647545 314.452653 
L 483.406387 314.698457 
L 483.184287 314.833347 
L 482.850953 314.902127 
L 482.599438 315.13081 
L 482.358091 315.146459 
L 482.189786 315.273099 
L 481.965822 315.301966 
L 481.711355 315.240199 
L 481.615906 315.282138 
L 481.460859 315.608511 
L 481.376132 315.928634 
L 481.262628 316.138748 
L 481.170666 316.200058 
L 480.965342 316.598852 
L 480.864189 316.980171 
L 480.853347 317.371538 
L 480.746126 317.771217 
L 480.800945 317.883243 
L 480.936506 317.984953 
L 481.231853 318.12717 
L 481.429857 318.162543 
L 481.58286 318.339627 
L 481.7466 318.816353 
L 481.757216 318.991617 
L 481.733229 319.266818 
L 481.651714 319.362743 
L 481.273518 319.665004 
L 481.089714 319.909896 
L 481.053376 320.015932 
L 481.047901 320.554061 
L 480.995056 320.656055 
L 480.887459 320.719396 
L 480.542901 320.829993 
L 480.313714 320.842573 
L 480.225204 320.89774 
L 480.086529 321.107921 
L 479.808816 321.213315 
L 479.780311 321.340734 
L 479.757435 321.837117 
L 479.658826 322.181725 
L 479.747448 322.237637 
L 480.023475 322.093723 
L 480.302806 321.954498 
L 480.401005 322.041989 
L 480.35626 322.396722 
L 480.226251 322.604834 
L 479.876727 322.941694 
L 479.867304 323.05584 
L 480.06706 323.114642 
L 480.374412 323.110103 
L 480.430959 323.206832 
L 480.395479 323.325102 
L 480.786883 323.178773 
L 481.010222 322.993418 
L 481.237103 322.822403 
L 481.471562 322.872994 
L 481.838276 323.165947 
L 481.941612 323.170883 
L 482.194505 323.395734 
L 482.420351 323.500354 
L 482.679116 323.820891 
L 482.933404 324.171887 
L 483.177715 324.528512 
L 483.193463 324.640618 
L 483.407215 324.789073 
L 483.629488 324.804009 
L 483.832583 324.744593 
L 483.940283 324.781114 
L 484.025219 324.897939 
L 484.079415 324.972509 
L 484.14825 325.204777 
L 484.215689 325.722401 
L 484.225221 326.010013 
L 484.21634 326.303306 
L 484.143114 326.823187 
L 483.965258 327.071857 
L 483.792058 327.326165 
L 483.783079 327.852061 
L 483.630975 328.27793 
L 483.440222 328.700526 
L 483.253078 329.061597 
L 483.163663 329.32657 
L 483.089604 329.604038 
L 483.084546 329.75081 
L 483.139542 330.015698 
L 483.100074 330.439721 
L 482.972885 330.827204 
L 482.971584 331.226697 
L 483.137759 331.534221 
L 483.25066 331.555464 
L 483.331322 331.48399 
L 483.112932 331.06036 
L 483.122943 330.695483 
L 483.210551 330.618927 
L 483.413704 330.621667 
L 483.482189 330.525754 
L 483.458302 330.130363 
L 483.494214 329.641129 
L 483.645728 329.25768 
L 483.774101 329.145375 
L 483.971979 329.078826 
L 484.161027 328.882875 
L 484.317247 328.610092 
L 484.478206 328.352418 
L 484.587639 328.382842 
L 484.651422 328.741466 
L 484.817105 329.182298 
L 485.017026 329.61331 
L 485.185336 329.881155 
L 485.385715 330.12638 
L 485.73678 330.405096 
L 485.886331 330.590363 
L 485.978642 330.857235 
L 485.986924 331.270994 
L 485.941542 331.833632 
L 485.861397 332.371873 
L 485.854312 332.694645 
L 485.867325 333.023087 
L 485.90912 333.145321 
L 486.109287 333.571031 
L 486.293525 333.724634 
L 486.616635 333.852552 
L 486.995226 333.894789 
L 487.090777 333.949676 
L 487.182189 334.171705 
L 487.20966 334.677174 
L 487.21332 335.049539 
L 487.213454 335.433485 
L 487.22048 335.816565 
L 487.259796 336.044781 
L 487.378115 336.262707 
L 487.464169 336.34919 
L 487.771684 336.511792 
L 488.110409 336.607067 
L 488.223239 336.578369 
L 488.530385 336.410751 
L 488.934047 336.388386 
L 489.346452 336.364676 
L 489.787273 336.163221 
L 489.964208 336.012125 
L 490.180921 335.701968 
L 490.491474 335.458936 
L 490.620804 335.423063 
L 490.976713 335.376655 
L 491.404616 335.16821 
L 491.84097 334.954433 
L 492.18908 334.907012 
L 492.515596 334.990108 
L 492.88063 335.201832 
L 493.229787 335.459865 
L 493.426349 335.777538 
L 493.57621 336.117232 
L 493.722105 336.473336 
L 493.861613 336.832709 
L 493.958053 337.130304 
L 494.056756 337.433721 
L 494.198357 337.776392 
L 494.351158 338.126077 
L 494.494619 338.478694 
L 494.503459 338.62747 
L 494.497632 338.960324 
L 494.477291 339.29607 
L 494.416662 339.420503 
L 494.234296 339.67978 
L 494.038683 339.932701 
L 493.938035 339.993995 
L 493.731399 339.975961 
L 493.616848 340.030152 
L 493.421322 340.268662 
L 493.221477 340.513837 
L 492.936984 340.754783 
L 492.761258 340.984211 
L 492.607596 341.242443 
L 492.40272 341.676606 
L 492.205407 342.13451 
L 492.014389 342.595761 
L 491.89672 342.960802 
L 491.856479 343.298899 
L 491.844506 343.647779 
L 491.861141 344.147095 
L 491.913335 344.648486 
L 492.032519 344.864372 
L 492.098045 345.237271 
L 492.293732 345.54681 
L 492.476233 345.705514 
L 492.535312 345.781598 
L 492.671554 345.957067 
L 492.846661 346.234901 
L 492.984867 346.581494 
L 493.11831 346.9377 
L 493.208694 347.004828 
L 493.512193 347.141196 
L 493.826888 347.277417 
L 494.125987 347.44472 
L 494.490771 347.754312 
L 494.836921 348.116288 
L 495.129031 348.462088 
L 495.42632 348.815542 
L 495.6337 349.000941 
L 495.84693 349.187921 
L 496.058973 349.420199 
L 496.262458 349.672403 
L 496.518155 350.069469 
L 496.747219 350.444444 
L 496.985481 350.835226 
L 497.220849 351.228232 
L 497.450564 351.625322 
L 497.576538 351.896153 
L 497.706414 352.171195 
L 497.955278 352.570035 
L 498.221692 352.973551 
L 498.477841 353.384848 
L 498.630122 353.679811 
L 498.765003 353.993869 
L 498.828678 354.254672 
L 498.993162 354.615224 
L 498.929168 354.849719 
L 498.70333 355.196885 
L 498.483695 355.553609 
L 498.469232 355.816565 
L 498.325392 356.157881 
L 498.159645 356.503635 
L 497.979816 356.834423 
L 497.790724 356.987589 
L 497.718877 357.377151 
L 497.673651 357.799751 
L 497.636688 358.223023 
L 497.646532 358.492053 
L 497.740567 358.746711 
L 497.748938 359.246079 
L 497.898782 359.715683 
L 498.056314 360.072141 
L 498.312063 360.524271 
L 498.354886 360.776934 
L 498.533666 361.037839 
L 498.721829 361.30227 
L 498.806335 361.567134 
L 498.717164 361.791476 
L 498.93208 362.233446 
L 498.909785 362.474022 
L 498.676699 362.89425 
L 498.328045 363.222944 
L 497.939179 363.546802 
L 497.550881 363.882488 
L 497.328533 364.129994 
L 497.101729 364.382558 
L 496.83011 364.614699 
L 496.542738 364.843432 
L 496.269913 365.09112 
L 495.975556 365.444602 
L 495.699464 365.833915 
L 495.463785 366.241955 
L 495.32944 366.547257 
L 495.204002 366.866055 
L 495.091159 367.19964 
L 494.966001 367.53294 
L 494.803243 367.80958 
L 494.633227 368.08788 
L 494.601292 368.255069 
L 494.605097 368.67656 
L 494.606572 369.107072 
L 494.574805 369.504575 
L 494.53326 369.913938 
L 494.522827 370.317948 
L 494.685714 370.808931 
L 494.688971 370.829367 
L 494.773146 371.359145 
L 494.930018 371.801846 
L 495.116171 372.241189 
L 495.260552 372.473345 
L 495.454387 372.733511 
L 495.663948 372.984349 
L 495.931585 373.195912 
L 496.236439 373.317755 
L 496.540535 373.523167 
L 496.76482 373.79799 
L 497.046573 374.22764 
L 497.088512 374.457917 
L 497.089836 374.745763 
L 497.058751 375.032754 
L 496.869945 375.446825 
L 496.706148 375.698992 
L 496.522366 375.940618 
L 496.203518 376.266749 
L 495.927958 376.548723 
L 495.643697 376.838998 
L 495.362401 377.116014 
L 495.355341 377.122955 
L 495.076556 377.343818 
L 494.830577 377.429601 
L 494.583695 377.523224 
L 494.327235 377.789795 
L 494.219114 377.841057 
L 493.990166 378.145265 
L 493.765137 378.360258 
L 493.517352 378.548826 
L 493.142828 378.773062 
L 492.747797 378.986099 
L 492.345997 379.178567 
L 491.920862 379.344817 
L 491.475951 379.495517 
L 491.03688 379.661757 
L 490.709725 379.884432 
L 490.502339 379.920058 
L 490.069946 379.936171 
L 489.630664 379.986326 
L 489.296918 380.105589 
L 489.046518 380.159426 
L 488.788791 380.196729 
L 488.453674 380.197325 
L 488.104928 380.136049 
L 487.740263 379.906244 
L 487.408645 379.620077 
L 487.383521 379.366491 
L 487.313854 379.272924 
L 487.211981 379.255273 
L 486.855705 379.250359 
L 486.483985 379.243352 
L 486.113275 379.246337 
L 485.745397 379.27139 
L 485.419846 379.34739 
L 485.102154 379.486671 
L 484.86658 379.662134 
L 484.631174 379.85577 
L 484.203838 380.079038 
L 484.015854 380.264814 
L 483.726526 380.65267 
L 483.441651 381.059308 
L 483.207277 381.443603 
L 482.811002 381.491298 
L 482.381456 381.491822 
L 482.281049 381.561365 
L 482.140506 381.767606 
L 481.913663 381.951174 
L 481.755413 382.295247 
L 481.499936 382.5233 
L 481.094937 382.778114 
L 480.776576 382.896505 
L 480.452486 383.019751 
L 480.097432 383.228747 
L 479.737772 383.448669 
L 479.526837 383.515707 
L 479.163182 383.531423 
L 478.826558 383.528195 
L 478.479584 383.51931 
L 478.140733 383.475409 
L 477.737293 383.225295 
L 477.616397 383.220738 
L 477.245895 383.216294 
L 476.87184 383.23687 
L 476.553574 383.381525 
L 476.176018 383.421524 
L 475.827984 383.414704 
L 475.47302 383.408434 
L 475.127413 383.452597 
L 474.853936 383.634963 
L 474.529121 383.653886 
L 474.105317 383.60866 
L 473.654945 383.552762 
L 473.204649 383.493851 
L 472.754238 383.43707 
L 472.303619 383.387632 
L 471.852623 383.350634 
L 471.499797 383.337113 
L 471.13127 383.34042 
L 470.763408 383.358432 
L 470.398065 383.388135 
L 470.072919 383.519589 
L 469.696274 383.564575 
L 469.297984 383.599996 
L 468.898861 383.630977 
L 468.500165 383.665379 
L 468.103118 383.711064 
L 467.852554 383.777938 
L 467.598292 383.85696 
L 467.150702 383.919982 
L 466.859818 383.93371 
L 466.565004 383.959089 
L 466.141364 384.101286 
L 465.845359 384.306879 
L 465.62299 384.593663 
L 465.398794 384.891031 
L 465.118249 385.123054 
L 464.873326 385.569157 
L 464.665545 385.732545 
L 464.258591 385.943295 
L 463.834996 386.1515 
L 463.414746 386.367067 
L 463.222569 386.512268 
L 462.781448 386.720286 
L 462.53205 386.940272 
L 462.081811 387.023557 
L 461.850952 387.197662 
L 461.62291 387.398798 
L 461.513972 387.437874 
L 461.434775 387.355421 
L 461.338063 387.3469 
L 461.254886 387.431725 
L 461.226521 387.674936 
L 460.879225 387.988802 
L 460.66725 387.82773 
L 460.502713 387.970005 
L 460.292266 388.443609 
L 460.285878 388.55918 
L 460.346479 388.831743 
L 460.42758 389.103222 
L 460.58226 389.485484 
L 460.758653 389.865007 
L 460.906496 390.098832 
L 461.14332 390.325912 
L 461.352139 390.386605 
L 461.611993 390.73206 
L 461.873934 391.109487 
L 462.128296 391.497232 
L 462.376232 391.887407 
L 462.507365 392.21848 
L 462.620719 392.717796 
L 462.628775 392.814229 
L 462.655415 393.132868 
L 462.679273 393.563178 
L 462.719632 393.987581 
L 462.83119 394.22937 
L 463.044409 394.54863 
L 463.239124 394.705572 
L 463.453103 394.776435 
L 463.827874 394.792198 
L 464.143517 394.945607 
L 464.379427 395.193966 
L 464.398926 395.313683 
L 464.36718 395.812385 
L 464.272767 396.12264 
L 464.170946 396.438158 
L 464.127429 396.827312 
L 464.00415 397.037686 
L 463.827467 397.201182 
L 463.603447 397.352326 
L 463.384319 397.517696 
L 463.19427 397.810931 
L 462.908634 398.016562 
L 462.590294 398.185559 
L 462.376258 398.373403 
L 462.155581 398.558875 
L 461.747411 398.733598 
L 461.543687 398.69726 
L 461.122816 398.500828 
L 460.68749 398.508122 
L 460.360615 398.643637 
L 460.021472 398.705179 
L 459.671982 398.73707 
L 459.313043 398.724692 
L 458.94659 398.70566 
L 458.611352 398.747848 
L 458.224199 399.02987 
L 457.849454 399.365154 
L 457.65576 399.60299 
L 457.452498 399.821779 
L 457.09306 399.870969 
L 456.858347 400.050858 
L 456.637544 400.276642 
L 456.457708 400.484873 
L 456.288156 400.713193 
L 456.095413 401.044931 
L 455.788528 401.422843 
L 455.68483 401.443696 
L 455.496095 401.592974 
L 455.250714 401.923063 
L 455.017278 402.276366 
L 454.977993 402.412067 
L 454.878869 402.800412 
L 454.786469 403.199061 
L 454.751474 403.484811 
L 454.70183 403.77053 
L 454.551527 404.205126 
L 454.377275 404.646022 
L 454.191745 405.078341 
L 454.033915 405.286551 
L 453.766767 405.51102 
L 453.484949 405.733939 
L 453.219976 405.976648 
L 453.054955 406.196829 
L 452.924879 406.455998 
L 452.778193 406.927821 
L 452.625761 407.407808 
L 452.429226 407.778843 
L 452.198632 408.136019 
L 452.0288 408.319836 
L 451.656524 408.616372 
L 451.384235 408.744112 
L 451.103006 408.867533 
L 450.801852 409.068038 
L 450.573725 409.108656 
L 450.299467 409.546542 
L 450.303463 409.941974 
L 450.399416 410.197871 
L 450.631205 410.657102 
L 450.665773 410.937099 
L 450.680911 411.254435 
L 450.649213 411.559556 
L 450.33883 411.953675 
L 450.250514 412.308157 
L 450.05601 412.656123 
L 450.030771 413.146844 
L 450.040486 413.664747 
L 450.091154 414.171032 
L 450.207115 414.527066 
L 450.38269 414.867772 
L 450.54962 415.071258 
L 450.906308 415.354599 
L 451.134153 415.412326 
L 451.580214 415.446734 
L 452.03298 415.492126 
L 452.328834 415.616046 
L 452.672331 415.663059 
L 453.029292 415.696555 
L 453.378658 415.746146 
L 453.440565 415.837656 
L 453.644506 415.798966 
L 454.033506 415.630647 
L 454.44089 415.44459 
L 454.848041 415.257651 
L 455.256548 415.078347 
L 455.668156 414.915196 
L 455.914397 414.890085 
L 456.166627 414.870633 
L 456.586825 414.681688 
L 457.015917 414.48485 
L 457.449745 414.382928 
L 457.895701 414.29185 
L 458.305556 414.133348 
L 458.530102 414.136311 
L 458.830065 414.25819 
L 459.128659 414.410547 
L 459.38717 414.603254 
L 459.754965 414.644334 
L 459.94895 414.754642 
L 459.958954 414.876361 
L 460.057289 414.918326 
L 460.155118 414.840671 
L 460.270819 414.845208 
L 460.344449 415.061495 
L 460.542994 415.09274 
L 460.927107 415.288389 
L 461.31988 415.502748 
L 461.715714 415.706975 
L 462.017703 415.799509 
L 462.357969 415.807011 
L 462.66419 415.649105 
L 463.028026 415.660754 
L 463.398231 415.670427 
L 463.699307 415.496302 
L 464.024129 415.472299 
L 464.229948 415.382942 
L 464.385693 415.289281 
L 464.586396 415.084568 
L 464.79544 414.884447 
L 465.144905 414.707468 
L 465.396684 414.677347 
L 465.646908 414.632521 
L 465.995018 414.333861 
L 466.048011 414.230664 
L 466.052935 413.744019 
L 466.171799 413.28523 
L 466.16516 412.912075 
L 466.098477 412.690773 
L 466.129903 412.579371 
L 466.326421 412.263743 
L 466.540315 411.953492 
L 466.723971 411.771772 
L 467.050683 411.570773 
L 467.39362 411.386255 
L 467.663517 411.258567 
L 467.945355 411.150311 
L 468.225679 411.085857 
L 468.510594 411.016823 
L 468.7949 410.874212 
L 469.086643 410.740409 
L 469.447261 410.700377 
L 469.812358 410.659299 
L 470.058236 410.464652 
L 470.383121 410.416338 
L 470.863292 410.424439 
L 471.080406 410.598426 
L 471.304432 410.777096 
L 471.76125 410.875972 
L 472.236642 410.954392 
L 472.588468 411.131269 
L 472.95617 411.437836 
L 473.315438 411.777132 
L 473.530516 412.055831 
L 473.768746 412.259188 
L 474.012903 412.465441 
L 474.252136 412.755403 
L 474.331882 412.942296 
L 474.548787 413.182495 
L 474.773524 413.618513 
L 474.812603 413.694297 
L 475.002976 414.063432 
L 475.250853 414.350395 
L 475.43174 414.503229 
L 475.819804 414.694463 
L 475.995347 414.90914 
L 476.233647 414.929407 
L 476.537311 415.046259 
L 476.981178 415.063325 
L 477.246865 414.961476 
L 477.51048 414.820202 
L 477.814225 414.621743 
L 478.117727 414.435815 
L 478.425077 414.229966 
L 478.724659 414.011163 
L 479.044654 413.69044 
L 479.071196 413.663836 
L 479.369869 413.47048 
L 479.668341 413.265863 
L 479.966631 412.872695 
L 480.065189 412.844734 
L 480.385745 412.817296 
L 480.707983 412.766337 
L 481.093015 412.603925 
L 481.482882 412.424877 
L 481.680702 412.41049 
L 481.917683 412.300964 
L 482.083148 412.133359 
L 482.130991 411.740168 
L 482.276754 411.5218 
L 482.337955 411.276679 
L 482.417676 411.19186 
L 482.704494 411.10964 
L 483.003679 411.048324 
L 483.31465 411.033404 
L 483.649612 411.075385 
L 483.94431 411.295621 
L 484.042708 411.317331 
L 484.405666 411.340637 
L 484.780339 411.361916 
L 485.121923 411.436431 
L 485.246106 411.77762 
L 485.279659 412.079758 
L 485.283106 412.392211 
L 485.240225 412.848481 
L 485.193046 413.314454 
L 485.179719 413.684885 
L 485.178638 413.714797 
L 485.173948 414.128184 
L 485.179797 414.541221 
L 485.208927 415.047232 
L 485.249648 415.568393 
L 485.268345 416.088781 
L 485.23289 416.564895 
L 485.163505 417.047474 
L 485.098925 417.262143 
L 485.079982 417.811615 
L 484.966573 418.182204 
L 484.915353 418.549021 
L 484.804007 418.82752 
L 484.756673 418.908095 
L 484.653753 419.083258 
L 484.282343 419.383835 
L 484.244068 419.70983 
L 484.264767 420.044814 
L 484.448507 420.402468 
L 484.731874 420.654099 
L 484.855553 420.875645 
L 484.999726 421.207413 
L 485.143715 421.552414 
L 485.277341 421.901458 
L 485.320578 422.167286 
L 485.322363 422.71275 
L 485.379875 423.112462 
L 485.453266 423.473412 
L 485.533921 423.844189 
L 485.626983 424.208519 
L 485.757525 424.446307 
L 486.095869 424.796458 
L 486.439373 425.154853 
L 486.562991 425.402753 
L 486.614298 425.849104 
L 486.788617 426.176291 
L 486.876505 426.243579 
L 487.338984 426.391539 
L 487.787303 426.434575 
L 488.261037 426.466734 
L 488.735404 426.493885 
L 489.208827 426.524663 
L 489.679807 426.567679 
L 489.867762 426.671904 
L 490.028346 426.686761 
L 490.23314 426.655194 
L 490.541878 426.804517 
L 490.8452 427.026832 
L 491.20335 427.114523 
L 491.619016 427.315007 
L 491.893753 427.390196 
L 492.171273 427.471432 
L 492.359101 427.620252 
L 492.596651 427.886904 
L 492.835712 428.220469 
L 493.060844 428.596557 
L 493.29964 428.911269 
L 493.554366 429.233445 
L 493.808513 429.555826 
L 494.05527 429.884354 
L 494.154765 430.111883 
L 494.170343 430.381633 
L 494.174167 430.774324 
L 494.167053 431.174479 
L 494.111834 431.717706 
L 494.026544 431.936335 
L 493.983674 432.234304 
L 493.939187 432.538212 
L 493.82944 432.843944 
L 493.654707 433.303527 
L 493.472706 433.776214 
L 493.26726 434.230612 
L 493.056518 434.524177 
L 493.020182 434.569166 
L 492.825022 434.810712 
L 492.73451 435.041492 
L 492.711666 435.353968 
L 492.71614 435.676118 
L 492.744004 435.9912 
L 492.798853 436.307097 
L 492.942764 436.688921 
L 493.005458 437.077412 
L 493.039671 437.480182 
L 493.051981 438.008937 
L 493.037255 438.548797 
L 493.008287 439.030932 
L 492.966935 439.527127 
L 492.91097 440.020435 
L 492.835208 440.463864 
L 492.728621 440.907842 
L 492.535332 441.413962 
L 492.380181 441.707023 
L 492.189033 441.972178 
L 491.874906 442.256408 
L 491.522449 442.487445 
L 491.097298 442.563736 
L 490.896531 442.698741 
L 490.700144 442.861229 
L 490.506854 443.037763 
L 490.281502 443.300433 
L 490.098996 443.6748 
L 489.866288 444.023312 
L 489.616484 444.380292 
L 489.366912 444.737271 
L 489.125606 445.10027 
L 489.028105 445.355371 
L 488.764775 445.777215 
L 488.484734 446.206008 
L 488.214079 446.641591 
L 488.055758 447.014033 
L 487.994339 447.458016 
L 487.932097 447.911834 
L 487.839761 448.182792 
L 487.736984 448.456479 
L 487.688527 448.768547 
L 487.45388 449.248149 
L 487.299506 449.45635 
L 487.159936 449.754361 
L 487.041129 450.071704 
L 486.966343 450.37999 
L 486.908783 450.701788 
L 486.832969 451.208416 
L 486.609522 451.696164 
L 486.370196 452.013526 
L 486.144412 452.260698 
L 485.905788 452.502285 
L 485.69338 452.69019 
L 485.479703 452.885778 
L 485.144756 453.230667 
L 484.841819 453.619171 
L 484.660262 453.964148 
L 484.501813 454.344409 
L 484.363423 454.732424 
L 484.29717 455.218808 
L 484.21349 455.471948 
L 484.023238 455.950423 
L 483.852956 456.445783 
L 483.810659 456.788097 
L 483.784332 457.143041 
L 483.704927 457.410385 
L 483.531292 457.707725 
L 483.437969 458.003406 
L 483.427186 458.425137 
L 483.482943 458.975969 
L 483.559377 459.534894 
L 483.631166 459.780551 
L 483.835317 460.160236 
L 484.065885 460.530628 
L 484.320514 460.888695 
L 484.593596 461.248013 
L 484.872695 461.600642 
L 485.100062 461.886766 
L 485.340207 462.175235 
L 485.595567 462.441167 
L 485.979737 462.7545 
L 486.395225 463.026496 
L 486.605877 463.049692 
L 486.805849 463.179307 
L 487.058066 463.452085 
L 487.286789 463.7775 
L 487.604018 463.968441 
L 487.906759 464.379331 
L 488.311712 464.687231 
L 488.529132 464.758096 
L 488.74374 464.92928 
L 488.96335 465.103653 
L 489.311799 465.251105 
L 489.664173 465.527352 
L 489.731217 465.631074 
L 489.861676 465.899294 
L 489.922575 466.319284 
L 490.024182 466.651385 
L 490.157186 466.975255 
L 490.338464 467.300012 
L 490.540433 467.625044 
L 490.727623 467.959108 
L 490.892732 468.470799 
L 491.0672 468.860527 
L 491.237505 469.261068 
L 491.307295 469.552569 
L 491.372999 469.852729 
L 491.572673 470.360515 
L 491.714267 470.625961 
L 491.84911 470.89905 
L 491.869942 471.146521 
L 491.789747 471.387489 
L 491.772561 471.642925 
L 491.76342 472.131977 
L 491.75327 472.641786 
L 491.749277 473.150728 
L 491.758253 473.65737 
L 491.856644 474.034046 
L 491.872826 474.342432 
L 491.858881 474.656146 
L 491.773048 474.894332 
L 491.755662 475.257289 
L 491.687022 475.489183 
L 491.628967 476.028945 
L 491.511072 476.353108 
L 491.440883 476.546119 
L 491.251837 477.067214 
L 491.19976 477.598814 
L 491.123925 477.895204 
L 491.053363 478.198477 
L 491.040045 478.584793 
L 491.022523 478.97603 
L 490.88073 479.324347 
L 490.711068 479.615315 
L 490.52353 479.900316 
L 490.302412 480.163504 
L 490.000334 480.35074 
L 489.690287 480.421535 
L 489.477693 480.55458 
L 489.261201 480.688377 
L 489.036991 480.707431 
L 488.58914 480.87726 
L 488.148112 481.092539 
L 487.943201 481.25619 
L 487.757967 481.462244 
L 487.562467 481.790986 
L 487.373266 481.863282 
L 487.30156 481.949295 
L 487.142619 482.310001 
L 487.062529 482.799388 
L 487.052786 483.248333 
L 487.063952 483.707229 
L 487.11114 484.146378 
L 487.206464 484.376199 
L 487.253933 484.653693 
L 487.308237 484.934217 
L 487.520713 485.421937 
L 487.555978 485.691013 
L 487.557633 486.126714 
L 487.566605 486.566305 
L 487.629628 486.662779 
L 487.706652 486.592895 
L 487.733426 486.124448 
L 487.805834 486.020193 
L 487.904768 485.985503 
L 488.198872 486.153012 
L 488.241749 486.403749 
L 488.421675 486.730772 
L 488.424933 486.99215 
L 488.486648 487.361064 
L 488.568957 487.732021 
L 488.709514 488.097035 
L 488.808448 488.624692 
L 488.81885 489.007565 
L 488.703381 489.496373 
L 488.551697 489.887345 
L 488.369571 490.269643 
L 488.141065 490.624723 
L 487.90492 490.984795 
L 487.777641 491.269879 
L 487.650425 491.561512 
L 487.505256 491.729506 
L 487.400198 491.75516 
L 487.039462 491.756686 
L 486.748113 491.608391 
L 486.569761 491.267589 
L 486.398997 490.901516 
L 486.223154 490.737572 
L 486.180676 490.624628 
L 486.106278 490.135153 
L 486.003216 489.90747 
L 485.957644 489.549373 
L 485.828824 489.336193 
L 485.590898 489.067639 
L 485.355994 488.786915 
L 485.120449 488.323803 
L 484.902 488.030714 
L 484.620869 487.867092 
L 484.515686 487.87956 
L 484.138244 488.130563 
L 483.948154 488.346546 
L 483.773099 488.591136 
L 483.566763 488.903914 
L 483.376867 489.238544 
L 483.250949 489.625166 
L 483.194391 490.057815 
L 483.141603 490.499955 
L 483.089099 490.610038 
L 482.870853 490.714131 
L 482.817438 490.818165 
L 482.755368 491.202961 
L 482.83019 491.455324 
L 482.793256 491.850952 
L 482.740794 491.965091 
L 482.558817 492.072776 
L 482.534448 492.40805 
L 482.530711 492.772264 
L 482.458577 492.998111 
L 482.335254 493.279091 
L 482.216975 493.568586 
L 482.148612 493.924067 
L 482.014907 494.118292 
L 482.018296 494.488074 
L 481.980481 494.600002 
L 481.726809 494.982162 
L 481.589573 495.325786 
L 481.463816 495.690587 
L 481.356977 496.060877 
L 481.315023 496.568041 
L 481.325165 496.992925 
L 481.344947 497.43117 
L 481.352858 497.868542 
L 481.294576 498.288753 
L 481.200063 498.558784 
L 481.073309 498.816428 
L 480.896157 499.068248 
L 480.694619 499.30654 
L 480.456297 499.5789 
L 480.198895 499.834645 
L 479.918938 499.985111 
L 479.473201 500.129564 
L 479.048295 500.192695 
L 478.876706 500.303295 
L 478.576364 500.302027 
L 478.271764 500.401124 
L 478.150733 500.378348 
L 477.909535 500.241566 
L 477.732057 500.085738 
L 477.684385 499.970851 
L 477.528759 499.470256 
L 477.381713 499.247169 
L 477.150401 499.057015 
L 476.900262 498.884462 
L 476.58303 498.676145 
L 476.247734 498.501608 
L 476.004469 498.449395 
L 475.748258 498.433971 
L 475.398318 498.41265 
L 475.037188 498.398002 
L 474.675987 498.392826 
L 474.278002 498.392805 
L 473.858825 498.394027 
L 473.439844 498.399599 
L 473.021698 498.412649 
L 472.605084 498.436302 
L 472.204139 498.571065 
L 471.736443 498.577997 
L 471.342679 498.743095 
L 471.041731 498.788646 
L 470.736 498.840954 
L 470.378018 498.974658 
L 470.024232 499.147855 
L 469.7484 499.374276 
L 469.490448 499.49742 
L 469.23121 499.631079 
L 468.872903 499.913206 
L 468.523846 500.229768 
L 468.387495 500.417924 
L 468.070305 500.650932 
L 467.848025 500.692242 
L 467.684404 500.825044 
L 467.643453 501.064686 
L 467.397323 501.373902 
L 467.157299 501.693989 
L 467.122686 502.059183 
L 467.001212 502.269442 
L 466.882044 502.637751 
L 466.744165 502.848229 
L 466.622994 503.136483 
L 466.518317 503.440787 
L 466.44388 503.766454 
L 466.369023 504.09926 
L 466.264855 504.41401 
L 466.140921 504.726308 
L 465.967754 505.042595 
L 465.879068 505.333312 
L 465.807532 505.638401 
L 465.776368 505.908308 
L 465.777717 506.364652 
L 465.764877 506.818336 
L 465.673209 506.89245 
L 465.635396 507.003382 
L 465.617545 507.408895 
L 465.575386 507.514801 
L 465.601966 507.777902 
L 465.68903 507.861912 
L 465.847318 508.182107 
L 465.99037 508.346485 
L 466.033016 508.477645 
L 466.00291 508.769848 
L 466.198948 508.972042 
L 466.397317 509.051598 
L 466.705369 509.328352 
L 466.805627 509.343306 
L 467.012691 509.525073 
L 467.025132 509.656647 
L 467.159084 509.865696 
L 467.456207 510.078763 
L 467.582232 510.267652 
L 467.859479 510.342378 
L 468.153933 510.402268 
L 468.578456 510.580278 
L 468.972965 510.873177 
L 469.255187 510.968882 
L 469.439988 511.167166 
L 469.602894 511.408887 
L 469.774097 511.649285 
L 469.971939 511.837248 
L 470.174569 512.028242 
L 470.359725 512.265864 
L 470.53127 512.526271 
L 470.692861 512.795253 
L 470.826384 513.085901 
L 470.861224 513.49481 
L 470.890653 513.951241 
L 470.922317 514.431668 
L 470.952573 514.912118 
L 470.979334 515.392345 
L 471.000441 515.872124 
L 470.95796 516.132048 
L 470.965017 516.643201 
L 470.980484 517.176145 
L 470.996222 517.709271 
L 471.004104 518.242018 
L 470.964079 518.769416 
L 470.913218 519.285698 
L 470.858006 519.817415 
L 470.792158 520.346174 
L 470.701661 520.641151 
L 470.566484 520.995403 
L 470.409514 521.343987 
L 470.221459 521.619159 
L 470.034935 521.903982 
L 469.851772 522.306679 
L 469.669418 522.737995 
L 469.491719 523.172796 
L 469.312591 523.606669 
L 469.125913 524.035179 
L 468.870164 524.472091 
L 468.879515 524.832691 
L 468.924664 524.955737 
L 468.912072 525.087606 
L 468.699452 525.281362 
L 468.459759 525.454046 
L 468.158913 525.585546 
L 467.950084 525.589183 
L 467.756104 525.515672 
L 467.54473 525.523413 
L 467.367787 525.614827 
L 467.327913 525.501837 
L 467.097256 525.477396 
L 466.812114 525.626919 
L 466.461131 525.937365 
L 466.172411 526.21995 
L 465.900424 526.530119 
L 465.753619 526.894738 
L 465.552719 527.29505 
L 465.327668 527.686389 
L 465.159831 527.887695 
L 464.980952 528.085953 
L 464.849284 528.315596 
L 464.743867 528.605738 
L 464.718881 528.674534 
L 464.602306 529.048257 
L 464.585807 529.224769 
L 464.58368 529.650367 
L 464.508057 529.873206 
L 464.434772 530.244849 
L 464.425057 530.607845 
L 464.584058 530.844764 
L 464.764271 531.0818 
L 464.738023 531.513765 
L 464.612567 531.853779 
L 464.511905 532.355605 
L 464.377422 532.559962 
L 464.123936 532.768576 
L 463.87743 532.995901 
L 463.606801 533.370061 
L 463.345903 533.777273 
L 463.090972 534.189328 
L 462.92143 534.521792 
L 462.743046 534.966338 
L 462.589787 535.431845 
L 462.511306 535.881646 
L 462.444569 536.345577 
L 462.345636 536.660957 
L 462.139298 537.12155 
L 462.083188 537.401904 
L 462.043995 537.927263 
L 461.837245 538.434468 
L 461.759145 538.990181 
L 461.705755 539.555003 
L 461.661167 540.120701 
L 461.641067 540.595488 
L 461.623387 541.079699 
L 461.577247 541.319414 
L 461.387143 541.668348 
L 461.163716 541.771499 
L 461.087775 541.864679 
L 460.844133 542.214138 
L 460.590696 542.433245 
L 460.397007 542.531338 
L 460.246009 542.541267 
L 459.936668 542.516335 
L 459.831963 542.457404 
L 459.57183 542.193342 
L 459.37773 542.140567 
L 459.359787 541.663641 
L 459.197483 541.365816 
L 458.910677 541.130603 
L 458.706905 540.902246 
L 458.496109 540.676683 
L 458.295594 540.584214 
L 457.881169 540.454489 
L 457.699739 540.215597 
L 457.52946 539.940712 
L 457.21917 539.599745 
L 456.914409 539.329903 
L 456.591247 539.07492 
L 456.193513 538.799431 
L 455.776589 538.545148 
L 455.557301 538.490607 
L 455.309043 538.492993 
L 455.056497 538.518903 
L 454.75511 538.612158 
L 454.37929 538.633335 
L 453.990163 538.640815 
L 453.602356 538.660304 
L 453.295654 538.742394 
L 452.937519 538.744339 
L 452.56706 538.730004 
L 452.19771 538.70121 
L 451.815548 538.647957 
L 451.430662 538.56339 
L 451.243916 538.455479 
L 450.958955 538.241204 
L 450.665465 538.028954 
L 450.227619 537.802656 
L 450.016176 537.621124 
L 449.800753 537.434519 
L 449.462272 537.247737 
L 449.132228 537.037607 
L 448.919689 536.750685 
L 448.71036 536.443095 
L 448.468788 536.204761 
L 448.206263 535.975714 
L 447.941212 535.750681 
L 447.633576 535.485717 
L 447.311588 535.232005 
L 447.097215 535.141727 
L 446.719481 535.102861 
L 446.334122 535.063005 
L 446.105811 534.9678 
L 445.835795 534.821561 
L 445.567407 534.657033 
L 445.294453 534.419636 
L 445.010444 534.104889 
L 444.742673 533.659448 
L 444.696424 533.427546 
L 444.707959 533.052969 
L 444.7022 532.677116 
L 444.537483 532.301845 
L 444.398332 532.05698 
L 444.239059 531.824143 
L 443.987094 531.602815 
L 443.761252 531.478174 
L 443.521493 531.379877 
L 443.252122 531.358584 
L 442.977993 531.463827 
L 442.698257 531.580179 
L 442.358295 531.630037 
L 442.192734 531.766561 
L 441.98077 531.755796 
L 441.954575 531.637831 
L 441.848613 531.633989 
L 441.662082 531.755442 
L 441.523208 531.967081 
L 441.426044 532.182328 
L 441.336262 532.243527 
L 441.139715 532.311082 
L 441.059837 532.822771 
L 440.874763 533.320421 
L 440.778765 533.685902 
L 440.680456 534.058772 
L 440.554027 534.431736 
L 440.416718 534.813209 
L 440.29244 535.199043 
L 440.220107 535.679046 
L 440.222154 536.015179 
L 440.211966 536.354044 
L 440.049327 536.83513 
L 440.002404 537.302465 
L 439.956625 537.778229 
L 439.849867 537.989475 
L 439.620077 538.267186 
L 439.389232 538.553577 
L 439.220247 538.900139 
L 439.165831 539.137303 
L 439.160839 539.565011 
L 439.16653 540.007438 
L 439.18218 540.448179 
L 439.237113 540.677942 
L 439.521941 541.088514 
L 439.736718 541.540032 
L 439.898964 542.026111 
L 439.971942 542.532329 
L 440.009812 543.066656 
L 440.05735 543.598346 
L 440.139586 543.874694 
L 440.117894 544.182843 
L 439.957016 544.667961 
L 439.936608 544.964439 
L 439.923057 545.267821 
L 439.861616 545.394956 
L 439.588264 545.722356 
L 439.331321 546.141332 
L 439.127694 546.599436 
L 438.934828 546.878267 
L 438.718987 547.144545 
L 438.520761 547.320189 
L 438.297027 547.589103 
L 438.071007 547.87234 
L 437.836583 548.143802 
L 437.48814 548.423169 
L 437.207712 548.621099 
L 436.914827 548.807099 
L 436.669006 548.897656 
L 436.313628 548.973182 
L 435.967741 549.096942 
L 435.613371 549.234306 
L 435.263814 549.383086 
L 435.093046 549.519662 
L 435.061114 549.644435 
L 435.053047 549.921821 
L 435.00207 550.052911 
L 434.743457 550.480048 
L 434.58676 550.840761 
L 434.416258 551.110531 
L 434.223049 551.36496 
L 434.031353 551.491586 
L 433.772914 551.53133 
L 433.503379 551.489624 
L 433.271607 551.38296 
L 433.043183 551.289097 
L 432.977932 551.375493 
L 433.097453 551.61845 
L 433.227059 551.876194 
L 433.277846 552.246564 
L 433.263492 552.503427 
L 433.126635 552.917236 
L 432.982024 553.338258 
L 432.967147 553.508153 
L 432.967032 553.509377 
L 432.966649 553.513728 
L 432.956118 553.634107 
L 432.941083 554.04841 
L 432.930702 554.383649 
L 294.431932 553.685189 
L 294.493307 520.737735 
L 294.494584 520.056037 
L 294.511307 511.078776 
L 294.512284 510.549283 
L 294.520471 506.153456 
L 294.523076 504.757746 
L 294.547288 491.759204 
L 294.548226 491.252983 
L 294.561608 484.069114 
L 294.562844 483.408693 
L 294.658548 432.03825 
L 290.778093 432.043483 
L 290.811126 414.003636 
L 281.997341 413.981252 
L 281.699923 413.98004 
L 281.402506 413.978974 
L 281.105089 413.977555 
L 280.708502 413.975448 
L 280.311918 413.972637 
L 279.915344 413.968444 
L 279.913105 413.968424 
L 279.220355 413.962057 
L 278.527625 413.953218 
L 277.834937 413.94073 
L 277.828586 413.940624 
L 277.135092 413.930454 
L 276.441646 413.916628 
L 275.748282 413.897959 
L 275.429146 413.893466 
L 275.110072 413.885441 
L 274.791079 413.873338 
L 274.152885 413.859265 
L 273.514796 413.84006 
L 272.876858 413.814628 
L 271.699911 413.768796 
L 270.5236 413.704275 
L 269.348287 413.618766 
L 268.564847 413.559309 
L 267.782108 413.488232 
L 267.000327 413.404013 
L 266.608975 413.367595 
L 266.218208 413.323645 
L 265.828159 413.271405 
L 264.656956 413.129238 
L 263.487955 412.963884 
L 262.321799 412.773129 
L 262.320814 412.772972 
L 261.93119 412.717205 
L 261.542822 412.650933 
L 261.155904 412.573425 
L 260.378975 412.440999 
L 259.604275 412.291774 
L 258.832275 412.124319 
L 257.672172 411.886343 
L 256.516386 411.620951 
L 255.365822 411.3261 
L 254.858003 411.209983 
L 254.35315 411.077771 
L 253.851638 410.928586 
L 253.850441 410.928247 
L 253.59872 410.859247 
L 253.347156 410.789455 
L 253.095753 410.718872 
L 252.844866 410.647583 
L 252.594143 410.575502 
L 252.343587 410.502629 
L 251.893359 410.385413 
L 251.446773 410.251088 
L 251.004198 410.09891 
L 250.843791 410.048998 
L 246.785368 424.040729 
L 240.381921 433.158993 
L 230.369083 442.581371 
L 220.07825 460.348057 
L 200.610231 441.07872 
L 187.584145 421.725345 
L 182.921678 401.608873 
L 175.724637 370.558235 
L 174.690475 366.09661 
L 169.374354 366.088463 
L 171.346722 348.660371 
L 167.044475 338.527635 
L 167.860403 333.893807 
L 164.119177 323.074915 
L 170.075575 313.248628 
L 169.871725 302.779852 
L 163.307866 283.978805 
L 145.586241 285.465458 
L 142.06422 259.001861 
L 147.108633 247.575016 
L 147.518597 244.00784 
L 146.85407 235.143075 
L 142.975777 216.281973 
L 142.574307 214.329543 
L 139.019332 204.307243 
L 138.293783 194.90825 
L 130.785404 188.31641 
L 130.772641 185.76809 
L 135.201083 185.767893 
L 135.855077 185.769075 
L 292.950373 186.066368 
L 301.612734 186.121303 
L 308.768712 186.166776 
L 310.275093 186.176348 
L 314.858945 186.149309 
L 372.4704 186.285081 
L 374.567002 186.2901 
L 432.197809 186.429944 
L 438.389325 186.445209 
L 443.04207 186.456701 
L 444.466953 186.457455 
L 446.596625 186.461713 
L 450.884167 186.430653 
L 450.879387 186.470312 
L 455.097782 186.478813 
L 460.413206 186.489553 
L 465.72863 186.500325 
L 476.359459 186.521947 
L 481.674883 186.532819 
L 486.990306 186.543724 
L 493.158787 186.496322 
L 499.327269 186.448987 
L 501.553916 186.424359 
L 502.211537 186.4243 
L 535.606029 186.421835 
L 543.433065 186.421438 
L 551.847206 180.008558 
L 562.754417 171.695824 
L 564.294202 170.53467 
L 565.88239 169.33702 
L 570.935842 165.526278 
L 584.647514 162.016351 
L 591.566322 165.090357 
L 592.368335 165.784821 
L 595.49376 168.491077 
L 599.459517 171.925028 
L 603.42525 175.358997 
L 607.227359 178.651304 
L 607.221038 186.274474 
" style="fill:#1a1a1a;stroke:#ffffff;stroke-linejoin:miter;stroke-width:4;"/>
   </g>
  </g>
 </g>
 <defs>
  <clipPath id="p669f44a9ce">
   <rect height="543.6" width="558" x="90" y="86.4"/>
  </clipPath>
 </defs>
</svg>
