<?xml version="1.0" encoding="utf-8" standalone="no"?>
<!DOCTYPE svg PUBLIC "-//W3C//DTD SVG 1.1//EN"
  "http://www.w3.org/Graphics/SVG/1.1/DTD/svg11.dtd">
<!-- Created with matplotlib (https://matplotlib.org/) -->
<svg height="720pt" version="1.1" viewBox="0 0 720 720" width="720pt" xmlns="http://www.w3.org/2000/svg" xmlns:xlink="http://www.w3.org/1999/xlink">
 <metadata>
  <rdf:RDF xmlns:cc="http://creativecommons.org/ns#" xmlns:dc="http://purl.org/dc/elements/1.1/" xmlns:rdf="http://www.w3.org/1999/02/22-rdf-syntax-ns#">
   <cc:Work>
    <dc:type rdf:resource="http://purl.org/dc/dcmitype/StillImage"/>
    <dc:date>2021-05-07T11:03:06.167594</dc:date>
    <dc:format>image/svg+xml</dc:format>
    <dc:creator>
     <cc:Agent>
      <dc:title>Matplotlib v3.3.3, https://matplotlib.org/</dc:title>
     </cc:Agent>
    </dc:creator>
   </cc:Work>
  </rdf:RDF>
 </metadata>
 <defs>
  <style type="text/css">*{stroke-linecap:butt;stroke-linejoin:round;}</style>
 </defs>
 <g id="figure_1">
  <g id="patch_1">
   <path d="M 0 720 
L 720 720 
L 720 0 
L 0 0 
z
" style="fill:none;"/>
  </g>
  <g id="axes_1">
   <g id="patch_2">
    <path clip-path="url(#p24b43e778b)" d="M 426.695569 565.252003 
L 386.37333 583.597629 
L 356.88041 583.570768 
L 294.733947 583.583076 
L 275.141646 583.58665 
L 269.288482 583.588182 
L 189.055742 583.604488 
L 185.018946 583.602601 
L 184.975026 566.77829 
L 184.925913 543.742364 
L 184.790417 540.377949 
L 184.400865 516.992297 
L 184.187131 505.485176 
L 184.162612 494.907377 
L 184.433566 479.632705 
L 184.220748 468.751609 
L 184.082158 456.240537 
L 184.238818 444.011616 
L 183.995777 425.823305 
L 183.827004 406.009623 
L 183.575982 387.855352 
L 183.584757 375.352547 
L 183.62337 372.863195 
L 183.831805 328.226941 
L 183.781044 309.147415 
L 183.73197 301.348094 
L 184.112553 291.172691 
L 184.472671 267.756285 
L 184.477707 260.789458 
L 183.992003 245.155705 
L 184.316594 132.795512 
L 188.863842 132.795868 
L 547.002053 132.909417 
L 546.805962 188.113914 
L 543.757807 189.208646 
L 544.397741 245.569129 
L 548.958346 245.576827 
L 548.520797 247.315065 
L 548.323387 248.255993 
L 548.070721 256.557476 
L 548.293005 267.640062 
L 548.445183 289.558528 
L 548.557939 295.990596 
L 548.614518 301.181254 
L 549.009912 329.592222 
L 548.165314 348.949442 
L 548.170442 357.80992 
L 548.080711 358.927037 
L 548.475197 362.159563 
L 550.037275 369.249594 
L 551.516397 373.012851 
L 554.420316 378.444921 
L 554.424018 385.248612 
L 553.133346 399.510501 
L 552.592044 409.374153 
L 552.780696 425.519564 
L 552.97042 440.470175 
L 552.113608 453.571706 
L 549.480275 464.179652 
L 547.110226 470.900409 
L 546.194494 473.675961 
L 544.192468 477.5464 
L 541.39683 482.788468 
L 536.085469 490.220909 
L 529.88999 498.170296 
L 518.117904 510.174043 
L 511.0646 516.422803 
L 501.641393 524.277493 
L 488.972207 532.827815 
L 471.938424 543.081594 
L 453.81243 552.356516 
L 426.695569 565.252003 
" style="stroke:#ffffff;stroke-linejoin:miter;stroke-width:2;"/>
   </g>
  </g>
 </g>
 <defs>
  <clipPath id="p24b43e778b">
   <rect height="543.6" width="558" x="90" y="86.4"/>
  </clipPath>
 </defs>
</svg>
