<?xml version="1.0" encoding="utf-8" standalone="no"?>
<!DOCTYPE svg PUBLIC "-//W3C//DTD SVG 1.1//EN"
  "http://www.w3.org/Graphics/SVG/1.1/DTD/svg11.dtd">
<!-- Created with matplotlib (https://matplotlib.org/) -->
<svg height="720pt" version="1.1" viewBox="0 0 720 720" width="720pt" xmlns="http://www.w3.org/2000/svg" xmlns:xlink="http://www.w3.org/1999/xlink">
 <metadata>
  <rdf:RDF xmlns:cc="http://creativecommons.org/ns#" xmlns:dc="http://purl.org/dc/elements/1.1/" xmlns:rdf="http://www.w3.org/1999/02/22-rdf-syntax-ns#">
   <cc:Work>
    <dc:type rdf:resource="http://purl.org/dc/dcmitype/StillImage"/>
    <dc:date>2021-05-28T08:56:53.490132</dc:date>
    <dc:format>image/svg+xml</dc:format>
    <dc:creator>
     <cc:Agent>
      <dc:title>Matplotlib v3.3.3, https://matplotlib.org/</dc:title>
     </cc:Agent>
    </dc:creator>
   </cc:Work>
  </rdf:RDF>
 </metadata>
 <defs>
  <style type="text/css">*{stroke-linecap:butt;stroke-linejoin:round;}</style>
 </defs>
 <g id="figure_1">
  <g id="patch_1">
   <path d="M 0 720 
L 720 720 
L 720 0 
L 0 0 
z
" style="fill:none;"/>
  </g>
  <g id="axes_1">
   <g id="patch_2">
    <path clip-path="url(#p26efc73562)" d="M 283.075061 126.109342 
L 308.876799 126.409179 
L 321.811803 126.386622 
L 339.473913 126.355904 
L 347.530532 126.460979 
L 350.94036 126.446479 
L 351.719109 130.441892 
L 354.103042 142.542666 
L 355.217972 147.833872 
L 355.837567 150.420315 
L 356.556668 153.007916 
L 357.437186 155.618144 
L 357.978979 157.058284 
L 358.534358 158.411654 
L 359.141006 159.763789 
L 360.297432 162.167195 
L 361.713182 164.712606 
L 363.204822 167.122308 
L 364.674611 169.265097 
L 365.730679 170.724976 
L 367.284432 172.737102 
L 369.702453 175.648631 
L 371.478404 177.596607 
L 373.241985 179.438454 
L 375.719334 181.869327 
L 378.482579 184.401943 
L 381.236824 186.770064 
L 383.190424 188.395118 
L 399.209955 201.125442 
L 401.618672 203.039649 
L 423.622 220.359554 
L 435.840294 229.999895 
L 445.024578 237.267982 
L 469.840759 256.846231 
L 487.360999 270.666882 
L 492.929247 275.072205 
L 499.130896 279.914059 
L 502.452252 282.374169 
L 505.832951 284.767128 
L 509.178068 286.946934 
L 513.046296 289.264083 
L 518.338952 292.128517 
L 521.658345 293.775135 
L 528.071822 296.675394 
L 534.77252 299.378306 
L 540.712288 301.529291 
L 546.403942 303.395511 
L 551.92849 305.053294 
L 557.838701 306.67438 
L 563.153749 308.010105 
L 569.23251 309.389886 
L 574.46573 310.474127 
L 575.21673 310.608692 
L 575.967758 310.743258 
L 577.094271 310.945106 
L 577.847062 311.079981 
L 578.97895 311.282735 
L 581.851292 311.797284 
L 581.884231 311.864578 
L 581.947858 327.063123 
L 583.598129 344.261875 
L 588.288158 367.552137 
L 589.283295 413.310208 
L 589.240869 511.745917 
L 589.894994 550.502613 
L 589.160051 560.576802 
L 586.235189 575.478027 
L 586.226616 590.290658 
L 564.513553 583.205461 
L 546.132032 578.213486 
L 526.43684 573.618448 
L 508.316671 570.157782 
L 485.86284 566.583462 
L 465.378166 563.916741 
L 437.014142 561.363045 
L 335.587647 554.544672 
L 292.894617 551.554834 
L 262.271594 548.737605 
L 234.906216 545.658614 
L 204.129801 541.574908 
L 169.018048 535.99293 
L 148.105006 532.369244 
L 158.642063 518.674367 
L 167.15546 506.487384 
L 170.30867 502.061938 
L 173.146638 498.589679 
L 176.930781 495.662054 
L 180.715019 493.142929 
L 187.810561 488.92171 
L 195.53691 484.291994 
L 201.528835 480.138892 
L 206.259341 476.258141 
L 211.778287 469.858324 
L 214.628127 466.14759 
L 216.251173 462.599909 
L 217.062661 458.658052 
L 217.366923 454.584792 
L 217.062507 450.774332 
L 216.149399 446.963875 
L 213.308714 441.664278 
L 209.149121 436.058103 
L 205.293842 431.415485 
L 201.378932 426.212351 
L 199.62576 422.971352 
L 199.253164 422.247706 
L 198.708578 421.190069 
L 198.292994 420.355093 
L 197.934681 419.179936 
L 197.719703 418.165598 
L 197.504711 417.404836 
L 197.375713 416.798706 
L 197.203724 415.969904 
L 197.160671 415.097821 
L 197.160625 414.207176 
L 197.150242 413.33927 
L 197.17815 412.966034 
L 197.166876 411.92968 
L 197.155568 410.258946 
L 197.144209 407.580905 
L 197.144115 405.76488 
L 197.143968 402.941571 
L 197.222386 400.476612 
L 197.278374 398.234422 
L 197.345548 395.827592 
L 197.379092 393.532128 
L 197.356611 392.757288 
L 197.311671 391.134973 
L 197.289186 390.302028 
L 197.199345 388.883111 
L 197.221711 387.425447 
L 197.221678 386.776514 
L 197.131814 384.945961 
L 197.01948 382.563336 
L 196.895948 380.141979 
L 196.873392 377.957895 
L 196.850849 376.040178 
L 196.772178 373.701141 
L 196.715869 369.841481 
L 196.704483 366.717917 
L 196.704376 364.683967 
L 196.715514 363.085868 
L 196.704133 360.054322 
L 196.704018 357.865407 
L 196.681421 354.950082 
L 196.714936 352.102548 
L 196.714865 350.74659 
L 196.703489 347.811893 
L 196.714591 345.53096 
L 196.725728 343.918332 
L 196.703193 342.184629 
L 196.724143 340.501782 
L 196.72408 339.309262 
L 196.783493 331.325386 
L 196.763872 327.854076 
L 196.763712 326.893082 
L 196.763198 323.410515 
L 196.763118 322.942132 
L 196.762601 319.392941 
L 194.267755 319.391597 
L 196.729981 319.380209 
L 196.6468 174.994958 
L 252.950271 174.816906 
L 252.950546 167.710208 
L 252.931401 162.833425 
L 252.465671 150.035896 
L 252.775951 138.622316 
L 252.776696 129.996824 
L 252.823345 126.916286 
L 263.086374 127.01019 
L 283.075061 126.109342 
" style="fill:#1a1a1a;stroke:#ffffff;stroke-linejoin:miter;stroke-width:4;"/>
   </g>
  </g>
 </g>
 <defs>
  <clipPath id="p26efc73562">
   <rect height="543.6" width="558" x="90" y="86.4"/>
  </clipPath>
 </defs>
</svg>
