<?xml version="1.0" encoding="utf-8" standalone="no"?>
<!DOCTYPE svg PUBLIC "-//W3C//DTD SVG 1.1//EN"
  "http://www.w3.org/Graphics/SVG/1.1/DTD/svg11.dtd">
<!-- Created with matplotlib (https://matplotlib.org/) -->
<svg height="720pt" version="1.1" viewBox="0 0 720 720" width="720pt" xmlns="http://www.w3.org/2000/svg" xmlns:xlink="http://www.w3.org/1999/xlink">
 <metadata>
  <rdf:RDF xmlns:cc="http://creativecommons.org/ns#" xmlns:dc="http://purl.org/dc/elements/1.1/" xmlns:rdf="http://www.w3.org/1999/02/22-rdf-syntax-ns#">
   <cc:Work>
    <dc:type rdf:resource="http://purl.org/dc/dcmitype/StillImage"/>
    <dc:date>2021-05-07T11:03:00.421456</dc:date>
    <dc:format>image/svg+xml</dc:format>
    <dc:creator>
     <cc:Agent>
      <dc:title>Matplotlib v3.3.3, https://matplotlib.org/</dc:title>
     </cc:Agent>
    </dc:creator>
   </cc:Work>
  </rdf:RDF>
 </metadata>
 <defs>
  <style type="text/css">*{stroke-linecap:butt;stroke-linejoin:round;}</style>
 </defs>
 <g id="figure_1">
  <g id="patch_1">
   <path d="M 0 720 
L 720 720 
L 720 0 
L 0 0 
z
" style="fill:none;"/>
  </g>
  <g id="axes_1">
   <g id="patch_2">
    <path clip-path="url(#p87bc01de61)" d="M 581.246263 145.318285 
L 581.283911 172.934379 
L 581.402016 234.924836 
L 584.56138 236.493314 
L 584.554479 286.784662 
L 584.553931 288.939088 
L 390.741877 289.063404 
L 390.638804 333.304101 
L 390.586655 358.389969 
L 390.53482 383.465788 
L 390.487685 406.304621 
L 390.445873 426.884943 
L 390.43705 430.802148 
L 390.434054 432.260251 
L 390.442264 438.980055 
L 390.44856 443.441695 
L 390.470484 458.87008 
L 390.487929 471.599783 
L 390.496578 477.889127 
L 390.498986 479.663551 
L 390.541017 522.924012 
L 390.587661 571.109763 
L 381.50276 571.126712 
L 350.37121 560.678617 
L 346.512141 559.383645 
L 344.396563 558.673559 
L 338.880402 558.671731 
L 338.804145 514.296789 
L 339.172564 465.373698 
L 339.207632 447.490178 
L 339.242701 429.606661 
L 339.239933 422.697261 
L 339.235942 414.86976 
L 316.597082 414.887107 
L 308.331601 414.822817 
L 298.845058 413.505645 
L 294.791557 412.912096 
L 294.525365 412.817223 
L 282.110944 408.393126 
L 270.894788 403.8021 
L 258.806856 398.854335 
L 247.599559 394.238995 
L 233.456316 388.414676 
L 227.795132 383.655705 
L 227.790523 358.008446 
L 227.789949 355.362621 
L 200.403545 355.358984 
L 190.778738 355.357733 
L 169.874464 355.396352 
L 159.950656 355.353851 
L 153.43862 355.353098 
L 240.634477 304.291241 
L 237.410061 302.407078 
L 221.191835 292.936317 
L 217.533597 292.639401 
L 213.654023 289.861554 
L 213.058332 287.412269 
L 213.009359 287.210856 
L 212.995263 283.038564 
L 212.840484 237.089845 
L 212.866608 206.363499 
L 212.879569 191.050926 
L 212.892279 176.041812 
L 213.153347 159.095042 
L 213.155247 157.527228 
L 212.917859 145.833694 
L 228.823529 145.838262 
L 244.817452 145.84295 
L 260.257616 145.847569 
L 275.937362 145.852332 
L 291.703248 145.297474 
L 307.318441 145.278779 
L 318.200824 145.273288 
L 338.366145 145.331402 
L 398.456541 145.464123 
L 487.085672 145.416785 
L 518.700325 145.290688 
L 581.246263 145.318285 
" style="stroke:#ffffff;stroke-linejoin:miter;stroke-width:2;"/>
   </g>
  </g>
 </g>
 <defs>
  <clipPath id="p87bc01de61">
   <rect height="543.6" width="558" x="90" y="86.4"/>
  </clipPath>
 </defs>
</svg>
