<?xml version="1.0" encoding="utf-8" standalone="no"?>
<!DOCTYPE svg PUBLIC "-//W3C//DTD SVG 1.1//EN"
  "http://www.w3.org/Graphics/SVG/1.1/DTD/svg11.dtd">
<!-- Created with matplotlib (https://matplotlib.org/) -->
<svg height="720pt" version="1.1" viewBox="0 0 720 720" width="720pt" xmlns="http://www.w3.org/2000/svg" xmlns:xlink="http://www.w3.org/1999/xlink">
 <metadata>
  <rdf:RDF xmlns:cc="http://creativecommons.org/ns#" xmlns:dc="http://purl.org/dc/elements/1.1/" xmlns:rdf="http://www.w3.org/1999/02/22-rdf-syntax-ns#">
   <cc:Work>
    <dc:type rdf:resource="http://purl.org/dc/dcmitype/StillImage"/>
    <dc:date>2021-05-07T11:03:06.441355</dc:date>
    <dc:format>image/svg+xml</dc:format>
    <dc:creator>
     <cc:Agent>
      <dc:title>Matplotlib v3.3.3, https://matplotlib.org/</dc:title>
     </cc:Agent>
    </dc:creator>
   </cc:Work>
  </rdf:RDF>
 </metadata>
 <defs>
  <style type="text/css">*{stroke-linecap:butt;stroke-linejoin:round;}</style>
 </defs>
 <g id="figure_1">
  <g id="patch_1">
   <path d="M 0 720 
L 720 720 
L 720 0 
L 0 0 
z
" style="fill:none;"/>
  </g>
  <g id="axes_1">
   <g id="patch_2">
    <path clip-path="url(#pf39c372599)" d="M 507.039907 233.875729 
L 524.254475 234.087278 
L 541.749599 233.443318 
L 555.605481 232.81503 
L 567.923849 233.143378 
L 579.26455 234.425952 
L 590.607821 236.848602 
L 600.973383 240.22542 
L 605.467703 242.111349 
L 604.301886 249.18425 
L 602.263468 258.895521 
L 599.967277 269.117164 
L 597.081829 279.151762 
L 593.306826 291.46792 
L 589.416274 302.114147 
L 585.689768 311.089253 
L 581.850605 319.685222 
L 577.011355 329.169196 
L 565.385085 350.970082 
L 531.318113 414.281166 
L 520.729496 434.112049 
L 513.297632 449.13675 
L 506.051333 466.06559 
L 501.957759 476.529082 
L 498.046382 487.483392 
L 492.574013 505.204812 
L 489.660316 515.893679 
L 489.607185 515.920726 
L 488.940591 516.165703 
L 488.304495 516.38252 
L 487.514435 516.629154 
L 486.84844 516.957666 
L 486.780838 517.010964 
L 486.040465 517.59483 
L 485.396949 518.188175 
L 484.7632 518.725667 
L 484.035572 519.097039 
L 483.348635 519.384179 
L 483.081859 519.471059 
L 482.332289 519.633163 
L 481.657442 520.15737 
L 481.253615 521.208014 
L 480.963252 522.299362 
L 480.7237 523.306158 
L 480.360683 524.314556 
L 480.13032 525.181993 
L 480.054456 526.075393 
L 479.937772 526.997272 
L 479.821753 528.030714 
L 479.612368 528.953569 
L 479.258756 529.836375 
L 479.389153 530.811024 
L 477.63143 535.454682 
L 471.569374 535.015339 
L 465.111735 534.812148 
L 460.971967 533.919812 
L 459.691792 535.521093 
L 457.54651 533.639035 
L 452.975019 535.019712 
L 447.812213 535.234869 
L 444.796689 534.892464 
L 438.737695 535.403954 
L 434.679722 535.306597 
L 428.686274 535.981107 
L 422.398084 536.628677 
L 415.77582 536.635298 
L 409.939408 537.20512 
L 406.035068 538.297365 
L 400.652142 535.562786 
L 393.798982 535.601114 
L 382.549186 533.580804 
L 379.163165 532.450819 
L 373.450898 530.418362 
L 367.527191 529.113437 
L 359.416555 525.507351 
L 353.637567 524.214804 
L 347.065434 522.715933 
L 339.894049 520.923878 
L 335.995188 519.598009 
L 331.638842 516.182496 
L 314.769937 504.031762 
L 311.616446 501.036285 
L 308.515688 500.317263 
L 305.116538 493.798167 
L 303.542082 490.147015 
L 301.365899 486.519503 
L 300.861056 485.769987 
L 299.033109 482.263737 
L 296.868157 479.269858 
L 294.905482 475.968399 
L 292.780864 472.913071 
L 290.467462 470.144417 
L 288.140741 467.396412 
L 285.638566 464.914415 
L 283.298316 462.186849 
L 280.71546 459.828068 
L 277.95713 457.735545 
L 275.225835 455.601964 
L 272.61591 453.284002 
L 269.433434 450.843939 
L 268.496969 449.925772 
L 265.906959 447.150488 
L 263.06798 445.449417 
L 260.034935 444.587113 
L 257.080792 443.38424 
L 254.017297 442.652901 
L 250.9538 441.921849 
L 250.036962 439.86353 
L 249.316051 437.961766 
L 249.867319 434.657056 
L 247.404225 431.97938 
L 244.29733 430.01199 
L 241.020196 427.8775 
L 239.628801 426.86559 
L 236.573432 425.994139 
L 233.755404 424.27552 
L 230.8007 423.044474 
L 228.284822 420.247294 
L 225.61062 418.015277 
L 222.850162 416.091107 
L 220.068007 414.243741 
L 217.207004 412.679238 
L 214.41041 410.883346 
L 211.542172 409.344426 
L 208.709654 407.677049 
L 205.848423 406.112589 
L 202.936831 404.727786 
L 199.86715 403.907632 
L 196.862061 402.85661 
L 193.605351 402.044498 
L 190.735312 400.849456 
L 187.659401 400.292328 
L 184.822675 398.429132 
L 182.000739 396.485914 
L 179.081145 395.075958 
L 176.141797 393.772752 
L 173.090201 393.082596 
L 169.970344 392.765639 
L 166.08398 391.381492 
L 159.040229 388.144816 
L 155.93681 386.979829 
L 154.674457 386.273583 
L 151.802374 384.693409 
L 148.878646 383.350664 
L 145.949313 382.034062 
L 142.996966 380.823072 
L 140.056219 379.559307 
L 137.06385 378.53264 
L 136.619066 378.357537 
L 134.054272 377.58496 
L 132.548519 377.248374 
L 132.532297 377.245346 
L 132.567582 353.223803 
L 132.585378 334.887955 
L 132.598403 318.14084 
L 132.608808 304.241078 
L 132.663509 219.054054 
L 132.668788 212.291186 
L 132.695192 178.133688 
L 136.770764 178.102635 
L 324.137414 224.509653 
L 435.550877 230.589166 
L 470.800528 232.20829 
L 507.039907 233.875729 
" style="stroke:#ffffff;stroke-linejoin:miter;stroke-width:2;"/>
   </g>
  </g>
 </g>
 <defs>
  <clipPath id="pf39c372599">
   <rect height="543.6" width="558" x="90" y="86.4"/>
  </clipPath>
 </defs>
</svg>
