<?xml version="1.0" encoding="utf-8" standalone="no"?>
<!DOCTYPE svg PUBLIC "-//W3C//DTD SVG 1.1//EN"
  "http://www.w3.org/Graphics/SVG/1.1/DTD/svg11.dtd">
<!-- Created with matplotlib (https://matplotlib.org/) -->
<svg height="720pt" version="1.1" viewBox="0 0 720 720" width="720pt" xmlns="http://www.w3.org/2000/svg" xmlns:xlink="http://www.w3.org/1999/xlink">
 <metadata>
  <rdf:RDF xmlns:cc="http://creativecommons.org/ns#" xmlns:dc="http://purl.org/dc/elements/1.1/" xmlns:rdf="http://www.w3.org/1999/02/22-rdf-syntax-ns#">
   <cc:Work>
    <dc:type rdf:resource="http://purl.org/dc/dcmitype/StillImage"/>
    <dc:date>2021-05-07T11:03:03.252117</dc:date>
    <dc:format>image/svg+xml</dc:format>
    <dc:creator>
     <cc:Agent>
      <dc:title>Matplotlib v3.3.3, https://matplotlib.org/</dc:title>
     </cc:Agent>
    </dc:creator>
   </cc:Work>
  </rdf:RDF>
 </metadata>
 <defs>
  <style type="text/css">*{stroke-linecap:butt;stroke-linejoin:round;}</style>
 </defs>
 <g id="figure_1">
  <g id="patch_1">
   <path d="M 0 720 
L 720 720 
L 720 0 
L 0 0 
z
" style="fill:none;"/>
  </g>
  <g id="axes_1">
   <g id="patch_2">
    <path clip-path="url(#p72ccd7b739)" d="M 455.81533 189.941629 
L 456.997257 190.03136 
L 457.992028 189.953731 
L 458.878247 189.891267 
L 459.951327 190.027103 
L 460.839977 191.077204 
L 462.208023 191.029417 
L 463.186715 190.585984 
L 464.244044 190.614909 
L 465.176818 190.613664 
L 466.296692 190.718803 
L 467.385246 190.762708 
L 468.287258 190.837801 
L 469.407395 191.155909 
L 470.465577 191.581335 
L 471.601505 192.036666 
L 472.722137 192.492349 
L 473.391231 192.735065 
L 474.57368 193.205986 
L 475.492008 193.600632 
L 476.519002 194.041123 
L 477.592824 194.496841 
L 478.651043 194.95231 
L 479.818171 195.407936 
L 480.814286 195.86379 
L 481.8415 196.243277 
L 482.961903 196.759643 
L 483.833378 197.124018 
L 485.016115 197.564308 
L 486.198821 198.004599 
L 487.2727 198.506011 
L 488.190779 198.946623 
L 489.124827 199.432901 
L 490.21441 200.01026 
L 491.257472 200.572692 
L 492.206815 201.058952 
L 493.296354 201.605975 
L 494.070725 201.882503 
L 495.054028 201.923561 
L 496.064941 201.998226 
L 497.246918 202.133643 
L 498.319924 202.223547 
L 499.392971 202.34409 
L 500.434855 202.494712 
L 501.477096 202.660954 
L 502.550184 202.811838 
L 503.73216 202.947259 
L 504.743114 203.052568 
L 505.893864 203.172713 
L 506.71811 203.23261 
L 507.744614 203.322581 
L 508.942243 203.473005 
L 510.139535 203.623731 
L 511.103956 203.729105 
L 512.021642 203.864878 
L 513.125544 203.954751 
L 514.213964 203.907403 
L 515.302477 203.905984 
L 516.46887 204.056754 
L 517.495087 204.161751 
L 518.599242 204.190651 
L 519.532049 204.219775 
L 520.542908 204.279437 
L 521.724861 204.399552 
L 522.938008 204.489291 
L 523.964122 204.518296 
L 524.959389 204.562661 
L 525.861379 204.652805 
L 526.82541 204.697212 
L 527.758523 204.726341 
L 528.47348 204.710125 
L 529.51542 204.678137 
L 530.650524 204.767982 
L 531.692781 204.949262 
L 532.797151 205.161102 
L 533.714865 205.342544 
L 534.912133 205.477969 
L 536.062767 205.491803 
L 536.824806 205.4752 
L 537.741969 205.474016 
L 538.908246 205.518169 
L 540.028196 205.714674 
L 540.821235 205.774329 
L 542.018808 205.909759 
L 542.858775 206.060969 
L 543.729488 206.075168 
L 544.491709 206.19584 
L 545.440238 206.316574 
L 546.435523 206.376002 
L 547.353073 206.4358 
L 548.426012 206.479779 
L 549.623563 206.600196 
L 550.836462 206.735613 
L 551.769735 206.886708 
L 552.578394 206.961668 
L 553.744691 207.021151 
L 554.630954 207.019716 
L 555.750333 207.018284 
L 556.885303 206.986195 
L 557.989445 207.030141 
L 559.077815 206.922147 
L 560.11894 206.737588 
L 561.020584 206.568828 
L 561.844188 206.354239 
L 562.807468 206.063448 
L 563.84875 205.741919 
L 564.579077 205.573108 
L 565.714069 205.556344 
L 566.771265 205.494023 
L 567.874972 205.416324 
L 568.994291 205.368973 
L 569.91166 205.291512 
L 571.07739 205.15276 
L 572.258937 204.968031 
L 573.315638 204.738134 
L 574.497427 204.736335 
L 575.570446 204.84161 
L 576.643516 204.961904 
L 577.732037 204.990865 
L 578.835805 204.95883 
L 579.644365 204.957808 
L 580.701622 204.941183 
L 581.820973 204.893811 
L 582.560476 204.815801 
L 582.678464 294.946402 
L 582.689051 327.642813 
L 583.365712 348.080772 
L 583.646523 364.048236 
L 583.276992 379.6333 
L 582.377767 395.758963 
L 582.501243 411.3614 
L 582.434429 427.455767 
L 582.482101 443.194434 
L 582.429836 459.256584 
L 582.462996 474.962711 
L 582.43302 491.040545 
L 582.48573 506.844783 
L 582.481984 529.759932 
L 567.007142 529.697717 
L 543.933982 529.605246 
L 529.815767 529.551977 
L 520.579358 529.55243 
L 497.6951 529.553763 
L 498.02195 528.032731 
L 498.158063 526.196434 
L 498.054046 516.799499 
L 497.899469 514.740794 
L 497.684219 512.712026 
L 497.408498 510.862363 
L 496.889147 508.446058 
L 496.250152 505.94995 
L 494.513992 501.625567 
L 492.630929 497.916133 
L 479.042134 486.194446 
L 463.196622 472.399048 
L 431.241503 439.536225 
L 425.167589 439.271431 
L 425.346233 435.374392 
L 422.063068 431.367619 
L 414.472596 421.845496 
L 419.316492 418.122314 
L 421.8249 421.269554 
L 422.133312 421.587594 
L 422.442078 421.809393 
L 422.725898 421.95475 
L 423.021925 422.059058 
L 423.366906 422.128216 
L 423.691656 422.146037 
L 424.008515 422.120434 
L 424.377044 422.035046 
L 424.706384 421.902282 
L 424.977756 421.744845 
L 425.225219 421.552748 
L 425.440222 421.334021 
L 428.382511 419.010358 
L 429.053895 404.235713 
L 426.582578 403.020139 
L 422.711265 402.837789 
L 411.493612 390.597943 
L 398.56234 379.306422 
L 398.904307 371.770174 
L 378.554453 370.875401 
L 372.846757 370.784094 
L 358.970887 370.162229 
L 332.926574 369.019168 
L 330.407505 368.452924 
L 328.954358 368.992602 
L 327.135787 369.03093 
L 324.22575 368.856313 
L 320.55097 368.075037 
L 315.869576 366.835419 
L 305.919394 363.558302 
L 297.820163 361.033911 
L 293.562028 359.323989 
L 290.686223 357.755121 
L 287.190712 355.257607 
L 284.932639 353.294573 
L 282.670989 350.7052 
L 281.887461 349.705298 
L 280.903231 348.276688 
L 280.02739 346.347433 
L 279.478835 344.381928 
L 279.183777 341.665293 
L 278.961946 339.270286 
L 279.068942 335.463629 
L 239.050234 335.545492 
L 235.698792 337.599885 
L 211.224968 351.74628 
L 207.018256 342.56177 
L 199.784286 330.120673 
L 190.791275 318.201068 
L 178.445478 300.406488 
L 170.677155 284.161574 
L 164.315902 267.568642 
L 154.353477 238.064416 
L 154.426609 238.074758 
L 155.250586 238.180733 
L 156.245932 238.301737 
L 157.194418 238.407524 
L 158.31404 238.573996 
L 159.309307 238.664664 
L 160.413368 238.876849 
L 161.548638 239.073938 
L 162.590339 239.103561 
L 163.632363 239.163551 
L 164.767482 239.284347 
L 165.902512 239.329149 
L 166.741921 239.328473 
L 167.503988 239.342934 
L 168.157003 239.265917 
L 169.105104 239.128105 
L 170.255351 238.92871 
L 171.297213 238.866722 
L 172.478568 238.819873 
L 173.597678 238.468237 
L 174.421505 238.284659 
L 175.478778 238.100728 
L 176.395755 237.993306 
L 177.608524 237.885406 
L 178.447917 237.854098 
L 179.458618 237.838121 
L 180.375949 237.761039 
L 181.386298 237.500887 
L 182.396474 237.149421 
L 183.500296 236.995763 
L 184.619026 236.613796 
L 185.722658 236.338487 
L 186.873168 236.108766 
L 187.930251 236.016458 
L 189.002894 235.87814 
L 190.091038 235.694172 
L 191.163682 235.556186 
L 192.205286 235.326331 
L 193.277924 235.203636 
L 194.303808 234.897811 
L 195.065211 234.48548 
L 195.982113 234.347431 
L 197.19487 234.209208 
L 198.205433 234.299607 
L 198.952019 234.390372 
L 199.931542 234.389503 
L 201.004283 234.31247 
L 202.123569 234.067487 
L 202.962579 233.807605 
L 204.065528 232.891935 
L 205.230327 231.793545 
L 206.302422 231.121829 
L 207.281315 230.495911 
L 208.338054 229.961462 
L 209.301228 229.259573 
L 210.295443 228.648923 
L 211.398794 228.007803 
L 212.502036 227.473288 
L 213.543247 226.984523 
L 214.708711 226.526242 
L 215.765525 226.037455 
L 216.666691 225.609877 
L 217.816742 225.075326 
L 218.982396 224.540722 
L 219.821633 224.204853 
L 220.816271 223.883773 
L 221.842097 223.532308 
L 222.883149 223.134864 
L 224.017908 222.798559 
L 225.183511 222.446889 
L 226.209222 222.019462 
L 227.234933 221.591706 
L 228.043034 221.118315 
L 229.208343 220.355162 
L 230.109195 219.699035 
L 231.212498 218.996922 
L 232.129117 218.447407 
L 233.185896 217.927993 
L 234.118165 217.409095 
L 235.329957 216.630528 
L 235.967176 216.2184 
L 236.883931 215.775492 
L 237.971658 215.286974 
L 238.997426 214.691344 
L 240.146885 213.958861 
L 241.218739 212.890972 
L 242.290497 211.960055 
L 243.362899 211.669513 
L 244.342192 211.287793 
L 245.289861 210.631306 
L 246.283873 209.670168 
L 247.231289 208.846372 
L 248.334096 207.808781 
L 249.452851 207.197972 
L 250.509411 206.526609 
L 251.488175 205.794084 
L 252.606538 204.924053 
L 253.554312 204.130628 
L 254.750245 203.16947 
L 255.962155 202.253707 
L 257.111868 201.475548 
L 258.090938 200.940975 
L 259.023272 200.452399 
L 260.064255 199.811404 
L 261.058462 199.170447 
L 261.99078 198.468335 
L 262.938535 197.857815 
L 264.057464 197.353951 
L 265.036503 197.017601 
L 266.015833 196.650914 
L 267.196983 196.223256 
L 268.393443 195.39911 
L 269.387795 194.849503 
L 270.444688 194.589369 
L 271.533277 194.634343 
L 272.435058 194.572385 
L 273.570017 194.327729 
L 274.595576 193.77811 
L 275.745488 193.304576 
L 276.911362 193.090246 
L 277.968456 192.738772 
L 279.040771 192.356669 
L 280.175939 192.249019 
L 281.139895 192.233204 
L 282.228133 192.064347 
L 283.362958 191.728113 
L 284.528872 191.742345 
L 285.633034 191.787336 
L 286.798782 191.466079 
L 287.840506 191.267225 
L 289.037579 191.250807 
L 289.939454 191.250106 
L 291.043471 191.401704 
L 292.069798 191.339878 
L 293.080242 191.110434 
L 294.059466 190.850428 
L 295.240879 190.590431 
L 296.344769 190.45217 
L 297.402155 190.497236 
L 298.443908 190.541995 
L 299.190237 190.449937 
L 300.263021 190.357681 
L 301.428969 190.189025 
L 302.470518 190.096515 
L 303.62136 190.034817 
L 304.80274 189.957427 
L 305.953537 189.865093 
L 306.808493 189.788172 
L 307.663585 189.802866 
L 308.596779 189.878156 
L 309.732045 190.06006 
L 310.742534 190.044196 
L 311.737763 190.073711 
L 312.639376 189.874803 
L 313.789984 189.675841 
L 314.893909 189.766179 
L 315.966867 189.811205 
L 317.05539 189.810282 
L 318.190677 190.007512 
L 319.388112 190.235293 
L 320.554408 190.279889 
L 321.471671 190.340189 
L 322.637982 190.415425 
L 323.57113 190.460355 
L 324.737188 190.550912 
L 325.856929 190.580589 
L 326.851978 190.48816 
L 327.535952 190.411523 
L 328.577637 190.410645 
L 329.479558 190.440303 
L 330.646003 190.60716 
L 331.516921 190.774136 
L 332.698491 190.80373 
L 333.895759 190.711319 
L 334.268946 190.680483 
L 335.419482 190.618478 
L 336.258972 190.633209 
L 337.098968 190.784913 
L 338.21856 190.921202 
L 339.338115 191.011565 
L 340.131192 191.087341 
L 341.281787 191.086317 
L 342.339127 191.100774 
L 343.427552 191.054182 
L 344.205154 191.007728 
L 345.137839 190.946068 
L 346.039679 190.89974 
L 347.190208 190.853093 
L 348.371985 190.83671 
L 349.584804 190.896881 
L 350.533247 190.941835 
L 351.404335 191.017207 
L 352.290481 191.138515 
L 353.472547 191.320385 
L 354.59219 191.472035 
L 355.727648 191.791244 
L 356.847593 192.171423 
L 357.87414 192.490786 
L 358.931869 192.794787 
L 360.129415 193.083274 
L 360.953499 193.235013 
L 362.15097 193.493493 
L 363.30174 193.614438 
L 364.188057 193.644137 
L 365.05901 193.628202 
L 366.209524 193.55123 
L 367.422331 193.626433 
L 368.402007 193.671354 
L 369.195015 193.701187 
L 370.159059 193.746101 
L 371.356484 193.97392 
L 372.258556 194.110236 
L 373.175858 194.201174 
L 374.280223 194.367879 
L 375.291119 194.656636 
L 376.488432 194.808164 
L 377.452607 194.944697 
L 378.292627 195.096422 
L 379.474447 195.324269 
L 380.50079 195.506375 
L 381.309575 195.658175 
L 382.149258 195.809902 
L 383.23801 195.991923 
L 383.953398 196.082847 
L 384.839875 196.204173 
L 385.959305 196.233562 
L 387.078932 196.186986 
L 388.182901 196.292994 
L 389.28686 196.414051 
L 390.321025 196.505138 
L 391.224879 196.606018 
L 392.049285 196.77249 
L 392.857958 196.84737 
L 393.962164 196.906522 
L 394.770663 196.85978 
L 395.702635 196.492666 
L 396.650026 196.018597 
L 397.659487 195.499086 
L 398.638071 194.994638 
L 399.725557 194.505359 
L 400.688684 194.122856 
L 400.782932 194.095482 
L 401.636392 193.847338 
L 402.289307 193.67856 
L 403.437536 192.640712 
L 404.431769 192.166583 
L 405.596538 191.570569 
L 406.621684 191.127037 
L 407.647081 190.62253 
L 408.531971 190.057539 
L 409.681611 189.59852 
L 410.784888 189.215861 
L 411.810168 188.863948 
L 412.726351 188.359593 
L 413.783099 187.97697 
L 414.916778 187.45733 
L 415.973708 187.181342 
L 417.030454 187.012018 
L 417.870055 186.888919 
L 419.020118 186.704451 
L 420.170629 186.641606 
L 421.321227 186.640068 
L 422.441085 186.729857 
L 423.545461 186.926302 
L 424.727542 187.122643 
L 425.78496 187.212549 
L 426.640095 187.257044 
L 427.402322 187.347323 
L 428.491115 187.558812 
L 429.626238 187.648586 
L 430.030719 187.678675 
L 430.901614 187.814466 
L 431.959294 187.873738 
L 432.845676 187.948832 
L 433.685642 188.084666 
L 434.634127 188.159407 
L 435.675962 188.26463 
L 436.593643 188.385041 
L 437.340215 188.460327 
L 438.195718 188.550485 
L 439.175364 188.594518 
L 439.93722 188.639176 
L 441.103675 188.820531 
L 442.192337 188.940714 
L 443.218897 189.060982 
L 444.090045 189.18179 
L 444.960832 189.241293 
L 445.894104 189.377308 
L 446.967143 189.482196 
L 447.76015 189.511467 
L 448.662121 189.555911 
L 449.532813 189.569758 
L 450.357047 189.614337 
L 451.476523 189.67381 
L 452.471779 189.702811 
L 453.575916 189.731666 
L 454.555667 189.852004 
L 455.301962 189.927299 
L 455.81533 189.941629 
" style="stroke:#ffffff;stroke-linejoin:miter;stroke-width:2;"/>
   </g>
  </g>
 </g>
 <defs>
  <clipPath id="p72ccd7b739">
   <rect height="543.6" width="558" x="90" y="86.4"/>
  </clipPath>
 </defs>
</svg>
