<?xml version="1.0" encoding="utf-8" standalone="no"?>
<!DOCTYPE svg PUBLIC "-//W3C//DTD SVG 1.1//EN"
  "http://www.w3.org/Graphics/SVG/1.1/DTD/svg11.dtd">
<!-- Created with matplotlib (https://matplotlib.org/) -->
<svg height="720pt" version="1.1" viewBox="0 0 720 720" width="720pt" xmlns="http://www.w3.org/2000/svg" xmlns:xlink="http://www.w3.org/1999/xlink">
 <metadata>
  <rdf:RDF xmlns:cc="http://creativecommons.org/ns#" xmlns:dc="http://purl.org/dc/elements/1.1/" xmlns:rdf="http://www.w3.org/1999/02/22-rdf-syntax-ns#">
   <cc:Work>
    <dc:type rdf:resource="http://purl.org/dc/dcmitype/StillImage"/>
    <dc:date>2021-05-07T11:03:00.258914</dc:date>
    <dc:format>image/svg+xml</dc:format>
    <dc:creator>
     <cc:Agent>
      <dc:title>Matplotlib v3.3.3, https://matplotlib.org/</dc:title>
     </cc:Agent>
    </dc:creator>
   </cc:Work>
  </rdf:RDF>
 </metadata>
 <defs>
  <style type="text/css">*{stroke-linecap:butt;stroke-linejoin:round;}</style>
 </defs>
 <g id="figure_1">
  <g id="patch_1">
   <path d="M 0 720 
L 720 720 
L 720 0 
L 0 0 
z
" style="fill:none;"/>
  </g>
  <g id="axes_1">
   <g id="patch_2">
    <path clip-path="url(#p5b0fe989b1)" d="M 294.24797 273.52329 
L 349.931456 311.595439 
L 380.099279 332.640983 
L 402.796866 351.281493 
L 409.83595 356.106625 
L 411.387199 354.441186 
L 418.087375 359.109754 
L 450.224531 381.814551 
L 451.104273 382.934975 
L 451.883978 384.00709 
L 453.938617 386.747786 
L 455.59989 389.626548 
L 458.081267 396.463421 
L 459.206392 396.272495 
L 461.886324 396.191624 
L 464.8694 396.298526 
L 468.025868 396.59347 
L 471.140166 397.265267 
L 473.995355 398.050607 
L 476.938204 399.287896 
L 479.839051 400.977373 
L 484.069591 403.767434 
L 487.644269 406.417957 
L 545.921527 435.492914 
L 567.373681 446.367638 
L 571.768199 449.812536 
L 575.315145 453.752496 
L 577.164201 457.572524 
L 580.453683 469.472601 
L 585.224669 486.537133 
L 576.244223 487.338688 
L 565.128182 489.483279 
L 554.955022 491.932514 
L 397.286276 538.62229 
L 387.336155 541.012189 
L 376.478514 542.535427 
L 366.885696 543.187443 
L 354.484932 543.134798 
L 342.714868 542.054328 
L 328.588521 539.952436 
L 311.86878 536.204154 
L 293.004152 532.178903 
L 275.382557 528.902676 
L 260.714031 527.311207 
L 247.987876 526.662578 
L 224.204371 526.415911 
L 217.788884 526.362781 
L 160.596109 528.17391 
L 153.027968 528.193491 
L 153.033017 478.873133 
L 153.025479 473.64144 
L 152.94543 423.896453 
L 152.874875 374.145295 
L 152.867144 368.676644 
L 152.835466 355.782732 
L 152.807056 352.007953 
L 152.802752 348.714925 
L 152.79847 345.419296 
L 152.794188 342.123641 
L 152.789906 338.828012 
L 152.785624 335.532383 
L 152.781047 332.197344 
L 152.775331 327.62547 
L 152.796711 319.162671 
L 153.456187 319.161455 
L 161.614731 319.146229 
L 168.045497 319.134269 
L 172.42318 319.126124 
L 182.847763 319.11854 
L 185.951294 319.111647 
L 185.947187 316.542226 
L 185.913848 295.752859 
L 185.838775 282.958527 
L 182.813595 283.155018 
L 182.799544 266.720437 
L 182.720599 174.031676 
L 185.573949 173.212557 
L 244.353165 230.033947 
L 279.959255 262.810486 
L 294.24797 273.52329 
" style="stroke:#ffffff;stroke-linejoin:miter;stroke-width:2;"/>
   </g>
  </g>
 </g>
 <defs>
  <clipPath id="p5b0fe989b1">
   <rect height="543.6" width="558" x="90" y="86.4"/>
  </clipPath>
 </defs>
</svg>
