<?xml version="1.0" encoding="utf-8" standalone="no"?>
<!DOCTYPE svg PUBLIC "-//W3C//DTD SVG 1.1//EN"
  "http://www.w3.org/Graphics/SVG/1.1/DTD/svg11.dtd">
<!-- Created with matplotlib (https://matplotlib.org/) -->
<svg height="720pt" version="1.1" viewBox="0 0 720 720" width="720pt" xmlns="http://www.w3.org/2000/svg" xmlns:xlink="http://www.w3.org/1999/xlink">
 <metadata>
  <rdf:RDF xmlns:cc="http://creativecommons.org/ns#" xmlns:dc="http://purl.org/dc/elements/1.1/" xmlns:rdf="http://www.w3.org/1999/02/22-rdf-syntax-ns#">
   <cc:Work>
    <dc:type rdf:resource="http://purl.org/dc/dcmitype/StillImage"/>
    <dc:date>2021-05-07T11:03:05.469708</dc:date>
    <dc:format>image/svg+xml</dc:format>
    <dc:creator>
     <cc:Agent>
      <dc:title>Matplotlib v3.3.3, https://matplotlib.org/</dc:title>
     </cc:Agent>
    </dc:creator>
   </cc:Work>
  </rdf:RDF>
 </metadata>
 <defs>
  <style type="text/css">*{stroke-linecap:butt;stroke-linejoin:round;}</style>
 </defs>
 <g id="figure_1">
  <g id="patch_1">
   <path d="M 0 720 
L 720 720 
L 720 0 
L 0 0 
z
" style="fill:none;"/>
  </g>
  <g id="axes_1">
   <g id="patch_2">
    <path clip-path="url(#p3c8d2a3548)" d="M 368.163606 133.671427 
L 387.298775 133.690655 
L 401.499016 133.295147 
L 428.196427 133.347131 
L 454.642093 133.360114 
L 480.559309 133.347753 
L 491.36595 133.346891 
L 515.581636 133.33363 
L 515.599288 133.33362 
L 515.5447 180.453852 
L 515.077889 246.039718 
L 545.513338 246.011312 
L 558.325354 246.005495 
L 611.700687 246.037429 
L 616.255336 246.209683 
L 616.255232 247.405087 
L 616.252974 275.057495 
L 616.251964 287.409178 
L 616.250807 302.709912 
L 616.237616 330.362353 
L 616.224613 357.986612 
L 616.203865 469.951925 
L 616.180905 581.917986 
L 616.179436 582.899557 
L 612.806968 582.896478 
L 526.737546 583.171008 
L 512.227729 583.218156 
L 494.678662 583.275512 
L 407.380484 583.566219 
L 368.45233 583.501298 
L 316.410783 583.435775 
L 244.721816 583.333054 
L 184.355624 583.516058 
L 154.422883 583.495241 
L 133.979211 583.537296 
L 121.744664 583.241112 
L 121.821214 524.053354 
L 122.429901 505.770714 
L 122.773664 487.404983 
L 122.742615 458.931469 
L 125.502899 458.932911 
L 126.561534 459.49296 
L 128.492611 460.514314 
L 144.070828 468.7548 
L 148.616909 468.741433 
L 148.593568 430.736988 
L 148.572536 396.617156 
L 148.571331 395.217655 
L 148.567003 390.257204 
L 148.558274 380.217197 
L 148.547303 368.048721 
L 148.544153 364.529793 
L 148.540044 359.229836 
L 148.541544 358.07982 
L 148.545958 354.990292 
L 148.566881 338.758446 
L 148.590468 320.745296 
L 148.616406 300.96782 
L 148.642501 281.182417 
L 148.694079 246.289464 
L 245.677564 246.191416 
L 245.677839 244.492205 
L 245.681292 204.827062 
L 244.100347 203.589991 
L 244.041247 154.697677 
L 244.022409 132.916668 
L 288.322609 132.873506 
L 324.634131 132.833781 
L 368.163606 133.671427 
" style="stroke:#ffffff;stroke-linejoin:miter;stroke-width:2;"/>
   </g>
  </g>
 </g>
 <defs>
  <clipPath id="p3c8d2a3548">
   <rect height="543.6" width="558" x="90" y="86.4"/>
  </clipPath>
 </defs>
</svg>
