<?xml version="1.0" encoding="utf-8" standalone="no"?>
<!DOCTYPE svg PUBLIC "-//W3C//DTD SVG 1.1//EN"
  "http://www.w3.org/Graphics/SVG/1.1/DTD/svg11.dtd">
<!-- Created with matplotlib (https://matplotlib.org/) -->
<svg height="720pt" version="1.1" viewBox="0 0 720 720" width="720pt" xmlns="http://www.w3.org/2000/svg" xmlns:xlink="http://www.w3.org/1999/xlink">
 <metadata>
  <rdf:RDF xmlns:cc="http://creativecommons.org/ns#" xmlns:dc="http://purl.org/dc/elements/1.1/" xmlns:rdf="http://www.w3.org/1999/02/22-rdf-syntax-ns#">
   <cc:Work>
    <dc:type rdf:resource="http://purl.org/dc/dcmitype/StillImage"/>
    <dc:date>2021-05-07T11:03:00.825135</dc:date>
    <dc:format>image/svg+xml</dc:format>
    <dc:creator>
     <cc:Agent>
      <dc:title>Matplotlib v3.3.3, https://matplotlib.org/</dc:title>
     </cc:Agent>
    </dc:creator>
   </cc:Work>
  </rdf:RDF>
 </metadata>
 <defs>
  <style type="text/css">*{stroke-linecap:butt;stroke-linejoin:round;}</style>
 </defs>
 <g id="figure_1">
  <g id="patch_1">
   <path d="M 0 720 
L 720 720 
L 720 0 
L 0 0 
z
" style="fill:none;"/>
  </g>
  <g id="axes_1">
   <g id="patch_2">
    <path clip-path="url(#p036e41542b)" d="M 293.243066 128.049099 
L 292.150363 128.956894 
L 280.832688 128.938149 
L 280.809887 139.45984 
L 293.635179 145.775136 
L 294.357366 146.794674 
L 300.912705 154.092311 
L 308.035674 159.773878 
L 316.071104 164.577216 
L 324.761999 168.841374 
L 324.480681 170.462748 
L 332.664709 187.952114 
L 344.21413 209.437688 
L 353.463147 221.139933 
L 356.957683 222.451128 
L 347.594723 230.56853 
L 344.169045 241.655418 
L 349.846073 249.937434 
L 359.820943 252.672259 
L 369.899084 250.971381 
L 381.619801 282.226249 
L 387.917732 289.107222 
L 397.838125 293.922361 
L 418.784764 293.922948 
L 422.563505 293.906375 
L 422.5684 295.793156 
L 422.561984 297.953649 
L 423.848399 297.953812 
L 423.84697 333.659492 
L 423.843856 383.927399 
L 422.557941 383.927751 
L 422.557904 387.206047 
L 422.555507 423.396125 
L 451.605083 423.374858 
L 479.290828 423.353109 
L 479.295128 458.78662 
L 479.297159 470.968826 
L 501.621891 470.950813 
L 522.274238 470.936298 
L 523.520494 470.936267 
L 529.76411 474.467672 
L 561.987134 475.830538 
L 592.434234 480.731171 
L 602.551761 480.725191 
L 602.543563 470.887885 
L 602.529707 454.169875 
L 621.925036 454.157758 
L 621.925925 470.877077 
L 621.899214 492.960906 
L 621.883028 506.338254 
L 621.879791 508.986845 
L 621.846257 542.349254 
L 621.839879 547.792919 
L 621.831894 554.351712 
L 621.820984 561.532712 
L 621.799352 570.940443 
L 620.845197 570.826185 
L 618.863977 570.591168 
L 616.929458 570.424891 
L 615.029617 570.3644 
L 613.126363 570.260984 
L 611.240911 570.38299 
L 609.340269 570.311754 
L 607.446316 570.326382 
L 605.544897 570.244407 
L 603.651745 570.269804 
L 601.774675 570.499202 
L 599.892517 570.664049 
L 597.908718 570.979771 
L 597.147436 571.119212 
L 595.304779 571.508335 
L 593.454145 571.855085 
L 591.530302 571.808826 
L 589.663923 572.070615 
L 587.779669 572.236791 
L 585.952758 572.710907 
L 584.10023 573.047032 
L 582.237793 573.330029 
L 580.343523 573.443091 
L 578.50482 573.853659 
L 576.598874 573.902949 
L 575.420348 574.123461 
L 575.331586 574.145798 
L 574.856609 574.316026 
L 571.594162 574.429703 
L 569.755504 574.815648 
L 568.785561 575.032295 
L 567.927144 575.233529 
L 566.09866 575.650985 
L 564.27345 576.078873 
L 562.471388 576.579337 
L 560.715835 577.224838 
L 558.94696 577.828951 
L 557.217944 578.557567 
L 555.057089 579.348567 
L 553.431772 580.213318 
L 551.845353 581.119932 
L 550.048153 581.800672 
L 548.414999 582.657075 
L 546.727116 583.455011 
L 545.156423 584.378272 
L 543.663892 585.385233 
L 542.157738 586.664838 
L 540.843346 588.013893 
L 539.37179 589.106354 
L 537.754676 589.961341 
L 536.201118 590.257149 
L 535.170643 590.467251 
L 533.283063 590.561482 
L 531.399829 590.741682 
L 529.50868 590.455491 
L 527.604164 590.532465 
L 526.009474 590.367697 
L 524.131588 590.108287 
L 522.32239 590.138652 
L 522.241152 590.140018 
L 520.357556 590.354588 
L 518.476772 590.644261 
L 516.601702 591.084598 
L 514.954535 591.540024 
L 514.053976 590.507175 
L 513.762475 590.44719 
L 513.308776 590.532264 
L 512.835356 590.502561 
L 512.4495 590.373797 
L 511.982912 590.404231 
L 511.488605 590.101255 
L 511.012927 589.74343 
L 510.637838 589.341173 
L 510.283005 589.124805 
L 509.891082 589.028982 
L 509.493241 588.971393 
L 509.076553 588.946785 
L 508.647812 588.977004 
L 508.212974 589.061903 
L 507.797256 589.152132 
L 507.349955 589.253547 
L 506.883815 589.360501 
L 506.404972 589.456636 
L 506.08982 589.496923 
L 505.629723 589.565664 
L 505.301891 589.60061 
L 504.847963 589.663736 
L 504.381515 589.727009 
L 504.034914 589.783971 
L 503.612734 589.868724 
L 503.159013 589.948316 
L 502.705302 590.033396 
L 502.302442 590.16727 
L 501.919142 590.377609 
L 501.473013 590.637547 
L 501.046067 590.946595 
L 500.555407 591.15222 
L 500.12148 591.362938 
L 499.694292 591.611828 
L 499.348821 591.849275 
L 499.011113 592.278044 
L 498.576644 592.390282 
L 498.160439 592.42036 
L 497.839078 592.488123 
L 497.41072 592.578496 
L 496.950099 592.581489 
L 496.53349 592.546018 
L 496.079426 592.576326 
L 495.638217 592.650275 
L 495.272851 592.729266 
L 494.995596 592.780305 
L 494.566975 592.837867 
L 494.075122 592.879371 
L 493.608344 592.893471 
L 493.192233 592.945398 
L 492.745038 593.041322 
L 492.328845 593.076892 
L 491.955632 592.942598 
L 491.501304 592.940193 
L 491.142349 593.035512 
L 490.669564 593.098815 
L 490.240874 593.139914 
L 489.792693 593.121014 
L 489.350365 593.019993 
L 488.996242 592.912975 
L 488.528554 592.801274 
L 488.055423 592.809898 
L 487.576251 592.856758 
L 487.160312 592.919664 
L 486.725133 592.955395 
L 486.340448 592.98527 
L 485.94323 593.015283 
L 485.545841 593.03433 
L 485.060271 593.064843 
L 484.738553 593.077943 
L 484.278127 593.097409 
L 483.96909 593.115838 
L 483.559215 593.145893 
L 483.117938 593.203503 
L 482.683208 593.282938 
L 482.229239 593.335198 
L 481.800354 593.359837 
L 481.359078 593.417448 
L 480.880126 593.486254 
L 480.457976 593.576627 
L 480.016929 593.661573 
L 479.739641 593.701641 
L 479.386534 593.747766 
L 478.900989 593.783782 
L 478.509906 593.797324 
L 478.137614 593.794329 
L 477.677094 593.791834 
L 477.298403 593.772513 
L 476.913454 593.76957 
L 476.541209 593.777553 
L 476.061969 593.808062 
L 475.664533 593.816127 
L 475.172277 593.792116 
L 474.762114 593.783864 
L 474.37086 593.786431 
L 474.08075 593.793827 
L 473.613849 593.80794 
L 473.17875 593.827212 
L 472.718648 593.895866 
L 472.25223 593.964648 
L 471.773131 594.027973 
L 471.356987 594.074423 
L 470.89632 594.066563 
L 470.404135 594.058902 
L 470.0823 594.044674 
L 469.671985 594.052794 
L 469.472312 594.085835 
L 468.556967 593.988405 
L 467.466094 593.997657 
L 466.580566 593.968901 
L 465.679601 593.957199 
L 464.806225 593.926372 
L 463.759526 593.846055 
L 462.84606 593.755836 
L 461.677614 593.701639 
L 460.686699 593.662664 
L 459.565991 593.657357 
L 458.934224 593.652202 
L 457.973158 593.6029 
L 457.224043 593.493621 
L 456.379672 593.423826 
L 455.367048 593.389557 
L 454.42857 593.309632 
L 453.536097 593.16488 
L 452.994556 593.108091 
L 452.490047 593.089075 
L 451.944323 593.069107 
L 451.233879 593.035256 
L 450.424394 592.972349 
L 449.575743 592.831871 
L 448.836912 592.776699 
L 447.972823 592.77015 
L 447.034534 592.791289 
L 446.210703 592.825398 
L 445.248507 592.713815 
L 444.503037 592.675673 
L 443.67276 592.537616 
L 442.894545 592.357957 
L 442.173904 592.208566 
L 441.415234 592.157125 
L 440.691656 592.21362 
L 439.92051 592.149953 
L 439.147381 592.084045 
L 438.500401 591.951849 
L 437.876896 591.93516 
L 437.072623 591.870206 
L 436.340651 591.826109 
L 435.755157 591.764538 
L 435.083631 591.720459 
L 434.573768 591.728904 
L 433.883962 591.732776 
L 433.177859 591.645335 
L 432.483496 591.54366 
L 431.972183 591.447829 
L 431.223708 591.344601 
L 430.515481 591.395674 
L 429.814825 591.274102 
L 429.252821 591.107854 
L 428.637444 590.992459 
L 428.05858 590.914934 
L 427.198853 590.797548 
L 426.477136 590.743741 
L 425.889782 590.736747 
L 425.239598 590.836815 
L 424.565032 590.722695 
L 423.880265 590.492489 
L 423.22321 590.522953 
L 422.506497 590.418994 
L 421.833438 590.283778 
L 421.322048 590.312147 
L 420.441439 590.243805 
L 420.054842 590.165887 
L 420.052204 581.895089 
L 419.016855 582.313815 
L 418.10515 582.863752 
L 416.218566 582.751544 
L 414.322838 582.803124 
L 412.410205 582.232438 
L 411.499321 582.410352 
L 410.612081 582.639233 
L 410.216841 582.668333 
L 409.748299 583.391656 
L 409.603906 583.263424 
L 406.248937 581.616559 
L 405.535116 581.300156 
L 405.608825 581.187008 
L 405.63928 581.198863 
L 405.748664 580.902752 
L 405.986938 577.981927 
L 404.68712 577.947069 
L 404.687589 577.912952 
L 404.402471 577.249893 
L 404.31789 575.997589 
L 404.44909 575.219391 
L 404.795279 571.727494 
L 405.032468 569.489944 
L 405.128714 567.343813 
L 405.332584 564.724532 
L 405.524149 563.480467 
L 404.886652 562.690504 
L 403.762632 561.755369 
L 403.065541 561.131565 
L 402.147639 560.438415 
L 400.260801 559.122695 
L 398.397823 557.838754 
L 397.924505 557.263573 
L 397.689256 556.977683 
L 396.862259 556.75735 
L 395.769894 556.081268 
L 394.846396 555.255463 
L 392.814976 553.715214 
L 391.825768 553.020174 
L 390.197066 551.599118 
L 388.030147 550.76596 
L 385.754482 549.509705 
L 383.734324 548.448249 
L 382.412553 547.429212 
L 381.059731 545.738966 
L 380.088872 543.93304 
L 379.516138 543.213167 
L 378.965387 542.716303 
L 378.345799 542.228937 
L 377.464798 541.844678 
L 376.490691 541.368624 
L 375.635001 540.90034 
L 375.320758 540.673677 
L 374.746216 540.383309 
L 373.78085 539.837276 
L 373.161075 539.561806 
L 372.450364 539.155574 
L 371.513632 538.630315 
L 370.828322 538.212699 
L 370.138573 537.7769 
L 369.482162 537.496821 
L 369.167746 537.260368 
L 368.822408 537.022513 
L 368.570573 536.934256 
L 368.233069 536.67216 
L 367.921899 536.440109 
L 367.545835 536.324495 
L 367.125412 536.003813 
L 366.622363 535.74485 
L 366.174654 535.425337 
L 365.65308 535.02127 
L 365.176196 534.785368 
L 364.869121 534.528972 
L 364.544231 534.28244 
L 364.072251 533.950742 
L 363.931243 533.918169 
L 363.769245 533.741147 
L 363.367196 533.395114 
L 362.623245 532.94176 
L 361.964072 532.463797 
L 361.46752 532.075242 
L 361.019324 531.767389 
L 360.58016 531.439951 
L 360.077723 531.015376 
L 359.605648 530.523426 
L 358.946703 530.069679 
L 358.421085 529.624295 
L 358.158651 529.358075 
L 357.9517 529.068852 
L 357.32791 528.595509 
L 356.81309 528.093062 
L 356.167829 527.482664 
L 354.555669 525.749332 
L 353.724627 524.892389 
L 353.034612 523.934872 
L 351.437505 522.211073 
L 350.102633 520.32613 
L 349.370912 519.400183 
L 348.132472 517.490389 
L 347.074064 515.485926 
L 346.492021 514.53516 
L 345.598272 512.473315 
L 344.742354 510.4051 
L 343.626233 507.232734 
L 342.649756 504.064101 
L 342.254811 503.021322 
L 342.020686 501.917404 
L 341.625705 500.834817 
L 341.478178 499.751267 
L 340.96517 497.607425 
L 340.494557 495.395412 
L 339.93095 493.234933 
L 339.557232 491.070589 
L 339.29975 488.893578 
L 339.280998 488.509024 
L 338.846867 486.066272 
L 338.5017 483.612864 
L 338.007105 479.576594 
L 337.642824 475.26387 
L 337.605481 470.939719 
L 337.946242 466.155787 
L 338.687076 461.40598 
L 343.411625 437.653806 
L 344.50683 432.86807 
L 345.877593 428.136003 
L 350.274405 414.423876 
L 351.381102 410.17683 
L 351.994862 405.855397 
L 352.10956 401.502461 
L 351.724054 397.161245 
L 350.842176 392.874817 
L 349.472647 388.685754 
L 341.842288 369.103797 
L 341.746096 369.056214 
L 341.32783 368.765996 
L 340.832894 367.785021 
L 340.219115 366.93267 
L 339.997948 366.459129 
L 338.683252 364.589585 
L 336.718817 362.724009 
L 334.933066 360.638296 
L 334.930015 360.262804 
L 334.009038 357.984057 
L 331.576068 356.215245 
L 330.07804 354.002611 
L 329.854333 353.127784 
L 328.608705 350.882336 
L 328.21037 350.728302 
L 327.814569 350.887182 
L 327.242108 351.516541 
L 325.568908 349.962142 
L 323.390343 348.41083 
L 322.883459 348.226178 
L 322.048883 347.699319 
L 319.974848 346.024186 
L 318.26568 344.155123 
L 316.412204 342.633146 
L 314.555143 340.673093 
L 311.253632 338.659317 
L 309.147686 337.170204 
L 306.863534 335.963815 
L 306.466206 335.93496 
L 305.995649 335.781392 
L 301.960353 332.332707 
L 297.103185 329.921768 
L 294.636705 328.497487 
L 293.784111 325.780278 
L 292.729301 324.816706 
L 290.370814 323.360488 
L 288.123952 322.310386 
L 285.700961 321.793357 
L 283.103379 321.997151 
L 280.536497 321.543621 
L 277.895358 320.840211 
L 277.425296 320.74924 
L 277.212786 320.51586 
L 275.135854 318.917134 
L 274.509548 317.38766 
L 274.701933 314.444966 
L 275.077647 311.845343 
L 274.951569 309.686937 
L 275.583327 307.492537 
L 275.610413 306.397134 
L 275.965747 305.706496 
L 276.324174 305.39135 
L 277.079438 305.042465 
L 277.981166 304.943011 
L 278.412305 304.689998 
L 279.37646 303.401048 
L 279.13875 300.836515 
L 278.776199 300.651001 
L 278.490492 301.028277 
L 278.064488 301.907106 
L 277.058845 302.539182 
L 274.757703 303.679948 
L 273.650199 305.094965 
L 272.512011 307.167318 
L 272.51562 307.605398 
L 272.410157 307.950276 
L 272.561766 308.825522 
L 272.148682 311.268908 
L 270.220449 313.84684 
L 269.082787 314.566949 
L 268.346784 314.966098 
L 267.53993 315.079134 
L 266.507046 314.912609 
L 265.6157 314.401219 
L 264.283101 312.69133 
L 263.925536 311.738023 
L 263.375403 310.728884 
L 262.195604 309.864665 
L 261.668272 309.512134 
L 261.438934 309.18999 
L 261.137984 308.899942 
L 260.990239 308.315126 
L 260.563903 307.763254 
L 260.316654 307.275538 
L 259.263675 306.50515 
L 258.265996 305.613724 
L 257.040052 304.765065 
L 255.714266 303.699263 
L 254.487153 302.973513 
L 253.134484 302.452683 
L 251.584986 301.845381 
L 249.891068 301.231048 
L 249.687224 300.840695 
L 249.402698 300.797578 
L 249.119602 300.770922 
L 247.605099 300.053723 
L 246.818999 299.487216 
L 245.989223 298.929894 
L 245.463588 298.651949 
L 244.610334 298.029345 
L 243.178121 297.082915 
L 241.166203 296.099965 
L 240.721171 295.864784 
L 240.561152 295.780226 
L 239.886341 295.517128 
L 237.811851 294.537638 
L 236.401356 293.740357 
L 235.424978 293.324549 
L 234.795975 293.008667 
L 234.48044 292.763451 
L 234.015314 292.442144 
L 233.727563 292.348464 
L 233.308989 292.263752 
L 233.031523 292.139795 
L 232.444328 291.735842 
L 232.232133 291.525353 
L 231.991185 291.35229 
L 231.564817 291.035581 
L 231.136784 290.763109 
L 230.881525 290.55708 
L 230.284045 290.396383 
L 229.58889 290.113231 
L 229.157255 289.997692 
L 228.419698 289.594375 
L 227.666604 289.268826 
L 227.44784 289.087634 
L 227.401163 288.955861 
L 227.144368 288.821608 
L 226.534844 288.71369 
L 226.311283 288.829425 
L 226.10557 288.700899 
L 225.974593 288.654014 
L 225.710355 288.489979 
L 225.456751 288.476033 
L 225.046194 288.644738 
L 224.755286 288.671283 
L 224.264794 288.685842 
L 224.099643 288.604168 
L 224.037535 288.546212 
L 223.993265 288.270759 
L 223.920949 288.178466 
L 223.679901 288.092048 
L 223.183755 288.092853 
L 222.739074 288.184949 
L 222.483453 288.268837 
L 221.927249 288.277272 
L 221.073696 288.239537 
L 220.632418 288.287392 
L 219.976914 288.278298 
L 219.701561 288.260052 
L 219.546445 288.199899 
L 219.428134 288.098742 
L 219.39498 287.967889 
L 219.319483 287.862262 
L 219.042118 287.760587 
L 218.709576 287.70064 
L 218.374273 287.686451 
L 218.090832 287.716738 
L 217.768362 287.686038 
L 217.637031 287.588586 
L 217.481915 287.426918 
L 217.163748 287.225875 
L 216.955323 287.026451 
L 216.588121 286.78046 
L 216.263368 286.531529 
L 215.687567 286.177591 
L 215.274564 285.724169 
L 214.915698 285.40401 
L 214.518941 285.131436 
L 214.294883 284.908824 
L 213.881819 284.677204 
L 213.468162 284.217435 
L 213.415157 283.933943 
L 213.204723 283.704287 
L 212.858395 283.45974 
L 212.257889 282.954259 
L 212.067921 282.769729 
L 211.950925 282.710636 
L 211.68868 282.684458 
L 211.399686 282.71961 
L 211.266052 282.766893 
L 210.946843 282.769654 
L 210.804706 282.723888 
L 210.578001 282.571464 
L 210.279526 282.415618 
L 209.722984 282.120709 
L 209.259943 281.723323 
L 208.913139 281.37976 
L 208.393794 280.892609 
L 208.279102 280.796164 
L 208.161037 280.744512 
L 208.008594 280.724828 
L 207.880702 280.672113 
L 207.789343 280.573433 
L 207.727808 280.298592 
L 207.727027 280.161274 
L 207.749763 280.034525 
L 207.738114 279.909515 
L 207.649223 279.807704 
L 207.38762 279.677243 
L 206.988432 279.521125 
L 206.66115 279.290384 
L 206.490048 279.081908 
L 206.44762 278.801607 
L 206.523477 278.385184 
L 206.713331 278.150851 
L 206.979542 277.969967 
L 207.263166 277.844863 
L 207.387427 277.761442 
L 207.434731 277.65699 
L 207.335398 277.319425 
L 207.223321 277.25063 
L 206.957611 277.27666 
L 206.646236 277.386367 
L 206.280646 277.193969 
L 206.042294 277.044806 
L 205.750284 276.974614 
L 205.416445 277.008315 
L 204.672278 276.632177 
L 204.270147 276.510186 
L 203.931616 276.342228 
L 203.452802 276.124745 
L 203.126216 275.887008 
L 201.908308 274.436082 
L 200.490466 273.032144 
L 199.198878 271.961489 
L 197.173372 269.601968 
L 196.22482 268.374572 
L 195.662933 267.380485 
L 195.279983 266.546975 
L 195.010594 265.57143 
L 194.670396 264.823969 
L 193.472587 263.224471 
L 192.9233 262.427821 
L 192.516908 262.042305 
L 191.989281 261.358361 
L 191.320479 260.706148 
L 190.83002 260.059845 
L 190.475421 259.469345 
L 189.945366 258.980749 
L 189.304304 258.234692 
L 188.4289 256.499943 
L 187.634517 255.139963 
L 186.975435 254.906978 
L 186.339713 254.782938 
L 185.620799 254.427831 
L 185.043747 253.902808 
L 184.196598 252.626201 
L 183.111438 251.301169 
L 183.054562 250.885861 
L 182.479594 249.63442 
L 181.992505 248.324987 
L 181.76829 247.559354 
L 181.674328 247.101564 
L 180.980631 245.641571 
L 180.546069 244.747656 
L 179.780275 242.240703 
L 179.230459 241.189225 
L 179.071579 240.73717 
L 178.745439 240.259238 
L 178.550662 239.419996 
L 178.297925 238.817724 
L 178.208562 238.349016 
L 177.283625 235.132568 
L 176.927998 233.251272 
L 176.376586 230.319236 
L 176.482004 229.974345 
L 176.178426 228.223874 
L 176.240099 226.97178 
L 176.092002 226.534624 
L 175.764161 226.192472 
L 176.408258 225.499972 
L 176.106783 223.999826 
L 175.799513 221.811287 
L 175.744707 219.589857 
L 175.76212 217.36796 
L 175.887587 215.114095 
L 175.724212 212.862066 
L 175.126511 210.487598 
L 173.953198 208.367118 
L 172.56325 206.24801 
L 171.53382 204.064031 
L 171.223885 201.562584 
L 170.808 199.343439 
L 169.75204 196.988684 
L 169.156703 195.751641 
L 168.409388 194.391834 
L 167.812777 193.100988 
L 166.440412 190.654485 
L 165.901143 189.821347 
L 165.555082 189.134607 
L 164.592128 187.818089 
L 163.039647 185.627414 
L 162.253021 184.591031 
L 161.441208 183.615976 
L 160.775973 182.618969 
L 160.371207 181.842273 
L 159.856258 180.723109 
L 159.8229 180.322687 
L 159.922837 179.931236 
L 159.823673 179.405787 
L 159.781708 178.895723 
L 159.489083 177.503374 
L 159.401966 176.851107 
L 159.471743 176.231078 
L 159.930233 175.383639 
L 160.002923 175.04035 
L 159.399795 173.977396 
L 159.302583 173.860673 
L 157.656556 172.765432 
L 155.944389 170.992614 
L 154.628608 169.123417 
L 153.671251 166.939006 
L 152.06288 164.633569 
L 150.278443 162.861224 
L 148.204687 159.295993 
L 147.076601 158.065404 
L 146.312473 157.024188 
L 145.876056 155.762237 
L 144.857259 154.247772 
L 143.32953 150.588049 
L 142.45611 149.767642 
L 141.873842 149.136572 
L 141.073335 148.000716 
L 140.163526 147.085656 
L 138.59856 145.791883 
L 137.725278 144.46674 
L 137.143163 143.394041 
L 135.651108 141.721738 
L 134.122573 140.270255 
L 132.594179 138.314034 
L 130.847375 136.294677 
L 129.828367 135.221878 
L 129.13681 134.748528 
L 128.336208 133.738869 
L 126.698324 132.571294 
L 125.897548 132.129464 
L 125.278835 131.529946 
L 124.077755 130.551747 
L 122.767399 129.731251 
L 122.075944 128.879361 
L 118.909602 125.629425 
L 117.615945 124.355072 
L 116.385233 122.778876 
L 116.074075 122.314165 
L 117.880925 122.315885 
L 120.308243 122.336678 
L 141.334199 122.448829 
L 150.862073 122.499857 
L 220.724124 122.864095 
L 293.254264 122.93354 
L 293.243066 128.049099 
" style="stroke:#ffffff;stroke-linejoin:miter;stroke-width:2;"/>
   </g>
  </g>
 </g>
 <defs>
  <clipPath id="p036e41542b">
   <rect height="543.6" width="558" x="90" y="86.4"/>
  </clipPath>
 </defs>
</svg>
