<?xml version="1.0" encoding="utf-8" standalone="no"?>
<!DOCTYPE svg PUBLIC "-//W3C//DTD SVG 1.1//EN"
  "http://www.w3.org/Graphics/SVG/1.1/DTD/svg11.dtd">
<!-- Created with matplotlib (https://matplotlib.org/) -->
<svg height="720pt" version="1.1" viewBox="0 0 720 720" width="720pt" xmlns="http://www.w3.org/2000/svg" xmlns:xlink="http://www.w3.org/1999/xlink">
 <metadata>
  <rdf:RDF xmlns:cc="http://creativecommons.org/ns#" xmlns:dc="http://purl.org/dc/elements/1.1/" xmlns:rdf="http://www.w3.org/1999/02/22-rdf-syntax-ns#">
   <cc:Work>
    <dc:type rdf:resource="http://purl.org/dc/dcmitype/StillImage"/>
    <dc:date>2021-05-28T08:56:49.455639</dc:date>
    <dc:format>image/svg+xml</dc:format>
    <dc:creator>
     <cc:Agent>
      <dc:title>Matplotlib v3.3.3, https://matplotlib.org/</dc:title>
     </cc:Agent>
    </dc:creator>
   </cc:Work>
  </rdf:RDF>
 </metadata>
 <defs>
  <style type="text/css">*{stroke-linecap:butt;stroke-linejoin:round;}</style>
 </defs>
 <g id="figure_1">
  <g id="patch_1">
   <path d="M 0 720 
L 720 720 
L 720 0 
L 0 0 
z
" style="fill:none;"/>
  </g>
  <g id="axes_1">
   <g id="patch_2">
    <path clip-path="url(#p5a6148b8cf)" d="M 564.199054 150.656903 
L 564.588202 162.629078 
L 564.761888 168.525953 
L 565.664543 177.285502 
L 566.06432 180.170889 
L 567.855471 189.38148 
L 569.010875 195.676675 
L 570.722025 204.029261 
L 573.23177 215.491437 
L 573.634159 217.681812 
L 574.346281 221.047359 
L 574.594348 222.697444 
L 574.873994 224.628975 
L 575.074638 226.465166 
L 574.880912 228.277785 
L 574.332251 230.019117 
L 573.704423 231.593557 
L 572.685483 233.085149 
L 571.033072 234.946468 
L 569.419807 236.640833 
L 566.585972 239.218436 
L 561.201645 244.05101 
L 559.469862 245.60236 
L 556.400944 248.919443 
L 553.569496 252.689498 
L 549.603117 258.51811 
L 546.379327 263.266214 
L 543.125051 268.156009 
L 542.176509 269.748906 
L 541.469955 271.347253 
L 540.84245 273.064785 
L 540.331313 275.241433 
L 539.942556 276.799753 
L 539.552186 278.803287 
L 539.397346 280.282005 
L 539.362779 282.582813 
L 539.511758 298.990785 
L 539.561787 304.498264 
L 539.875466 324.031365 
L 540.046735 333.826364 
L 540.232278 350.868922 
L 540.377895 360.517711 
L 540.475691 366.999204 
L 540.535993 370.993501 
L 540.851482 392.686172 
L 540.914095 396.991997 
L 541.333381 425.82452 
L 541.248872 449.254621 
L 541.2142 458.869917 
L 541.940811 466.260353 
L 542.166106 467.592806 
L 542.514706 468.70056 
L 542.862732 469.493908 
L 543.351247 470.333733 
L 543.978277 471.430088 
L 544.697976 472.477712 
L 545.318084 473.210961 
L 546.434154 474.467917 
L 547.234576 475.164688 
L 548.861909 476.586872 
L 550.20646 477.624122 
L 581.247142 501.82849 
L 580.874977 502.12752 
L 579.893097 502.819163 
L 578.879234 503.530568 
L 577.849064 504.193087 
L 576.964071 504.93337 
L 576.288697 505.57625 
L 575.500241 506.180288 
L 574.260394 506.872303 
L 573.278075 507.31112 
L 572.021752 507.847402 
L 571.119687 508.266597 
L 570.105075 508.744187 
L 568.864252 509.085927 
L 567.81627 509.203498 
L 566.704084 509.418543 
L 565.672546 509.672282 
L 564.89881 509.819013 
L 563.851034 510.043606 
L 562.787427 510.287796 
L 561.868849 510.531867 
L 560.853587 510.814946 
L 559.725299 511.088321 
L 558.597347 511.371499 
L 557.4048 511.713019 
L 556.437727 511.986302 
L 555.35853 512.356902 
L 554.230413 512.717945 
L 553.876159 512.835017 
L 552.780426 513.186273 
L 551.781452 513.537444 
L 550.847162 513.85943 
L 549.590181 514.191216 
L 548.526334 514.454959 
L 547.462811 514.738096 
L 546.334493 514.991911 
L 545.174175 515.255742 
L 544.029673 515.509569 
L 543.0629 515.75368 
L 542.047692 516.075726 
L 540.791302 516.56328 
L 539.938801 517.313354 
L 539.004144 517.606168 
L 537.891766 517.714013 
L 536.81139 517.812224 
L 535.586288 518.066323 
L 534.506469 518.271575 
L 533.491115 518.515724 
L 532.492041 518.808413 
L 531.235185 519.198714 
L 530.139492 519.579311 
L 529.108575 519.979044 
L 527.852134 520.418091 
L 526.659388 520.662368 
L 525.498631 520.857917 
L 524.337843 521.053448 
L 523.097559 521.492466 
L 522.066723 521.931336 
L 521.132241 522.292082 
L 520.084919 522.575199 
L 519.053363 522.790207 
L 517.860172 522.966408 
L 516.603029 523.220327 
L 515.555804 523.55217 
L 514.492484 523.912991 
L 513.348566 524.293648 
L 512.220287 524.55726 
L 511.349964 524.781747 
L 510.544216 524.93828 
L 509.496544 525.201854 
L 508.272004 525.572577 
L 507.321644 525.923729 
L 506.355165 526.323617 
L 505.388704 526.733097 
L 504.389627 527.016186 
L 503.277551 527.270217 
L 502.068405 527.397693 
L 500.988043 527.495939 
L 499.972764 527.769257 
L 499.038149 528.071676 
L 497.910438 528.442334 
L 496.863302 528.813126 
L 495.654956 529.183842 
L 494.623663 529.525466 
L 493.592713 529.896074 
L 492.416287 530.19867 
L 491.174969 530.423623 
L 490.079014 530.658063 
L 489.337771 530.853325 
L 488.112807 531.146366 
L 486.920122 531.410035 
L 485.711079 531.586243 
L 484.470269 531.888889 
L 483.423102 532.24012 
L 482.40795 532.571972 
L 481.714965 532.776964 
L 480.458413 533.157506 
L 479.378803 533.46982 
L 478.299252 533.811293 
L 477.122874 534.133462 
L 476.123747 534.367856 
L 475.076094 534.631425 
L 474.028442 534.895186 
L 472.787627 535.20762 
L 471.611271 535.539383 
L 470.451218 535.929642 
L 469.226836 536.349299 
L 468.147194 536.642051 
L 467.019434 536.993347 
L 466.004135 537.247304 
L 464.77951 537.559731 
L 463.667424 537.813779 
L 462.571581 538.096762 
L 461.57247 538.350709 
L 460.524746 538.575342 
L 459.477102 538.839108 
L 458.397368 539.083332 
L 457.204752 539.356797 
L 456.141184 539.591246 
L 455.367585 539.786522 
L 454.384818 540.118149 
L 453.305401 540.51814 
L 452.30649 540.869347 
L 451.275666 541.288677 
L 450.29304 541.688577 
L 449.326382 541.981254 
L 448.117517 542.23538 
L 446.940981 542.469897 
L 445.797051 542.821213 
L 444.878789 543.19193 
L 443.864115 543.591665 
L 442.672209 544.069625 
L 441.496171 544.547574 
L 440.465158 544.869459 
L 439.305116 545.269515 
L 438.09699 545.727923 
L 436.888904 546.205898 
L 435.794089 546.829559 
L 434.667403 547.541121 
L 433.846116 547.843478 
L 432.637242 548.087809 
L 431.428705 548.497495 
L 430.430454 549.023849 
L 429.400323 549.618499 
L 428.337865 550.232567 
L 427.339676 550.78806 
L 426.631922 551.362923 
L 425.843725 552.015728 
L 425.006885 552.639201 
L 424.009329 553.331085 
L 422.898274 553.935409 
L 421.915532 554.267048 
L 420.721857 554.180469 
L 419.720931 553.83096 
L 418.591197 553.666451 
L 417.382154 553.823333 
L 416.31867 554.086917 
L 415.206595 554.331183 
L 414.078276 554.546111 
L 412.950038 554.800173 
L 411.805994 555.083405 
L 410.694082 555.405554 
L 409.663191 555.776176 
L 408.422531 556.156739 
L 407.45596 556.478761 
L 406.23118 556.849722 
L 405.087281 557.201056 
L 404.072517 557.542509 
L 402.944426 557.864674 
L 401.961643 558.18673 
L 400.962647 558.479448 
L 399.850702 558.782016 
L 398.771044 559.04583 
L 397.62651 559.241403 
L 396.54647 559.320104 
L 395.626779 559.291855 
L 394.481982 559.360822 
L 393.466362 559.439668 
L 392.336731 559.323702 
L 391.337436 559.470635 
L 390.289872 559.753611 
L 389.192936 559.65738 
L 388.354204 559.648235 
L 387.19403 559.951037 
L 386.001131 560.097927 
L 384.823977 560.186471 
L 383.889245 560.401456 
L 382.729081 560.723654 
L 381.730074 561.006769 
L 380.731015 561.28012 
L 379.489913 561.592578 
L 378.538958 561.788011 
L 377.394696 561.97379 
L 376.298221 562.081861 
L 375.201449 562.063327 
L 374.169709 562.171158 
L 372.992886 562.415471 
L 371.912953 562.542906 
L 370.993816 562.64106 
L 370.107139 562.768328 
L 368.881899 562.925226 
L 367.640988 563.159808 
L 366.609403 563.355307 
L 365.513565 563.628738 
L 364.499395 564.242775 
L 363.43528 564.360399 
L 363.41716 563.727782 
L 362.351456 563.378344 
L 361.593812 563.447199 
L 360.400542 563.564943 
L 360.165761 563.586034 
L 359.158977 563.653567 
L 358.175372 563.712815 
L 356.965746 563.733316 
L 355.804701 563.782938 
L 354.563044 563.813248 
L 353.434091 563.882413 
L 352.41843 563.938446 
L 351.16071 564.040111 
L 350.241586 564.128489 
L 349.193553 564.1974 
L 348.113246 564.295668 
L 346.87188 564.46218 
L 345.710919 564.550747 
L 345.413811 564.570046 
L 344.646735 564.619865 
L 343.485651 564.650117 
L 342.388974 564.660735 
L 341.550268 564.661387 
L 340.405346 564.681845 
L 339.27624 564.66335 
L 338.163162 564.586528 
L 337.050135 564.519297 
L 335.824285 564.520445 
L 334.728185 564.667263 
L 333.502585 564.785236 
L 332.293391 564.873847 
L 331.341819 564.923315 
L 330.180767 564.953554 
L 329.035908 565.003175 
L 327.939295 565.042975 
L 326.761986 565.053681 
L 326.004429 565.161488 
L 324.924324 565.366824 
L 323.925128 565.552531 
L 323.070817 565.689572 
L 322.135555 565.797347 
L 321.055613 565.915211 
L 319.926664 565.984179 
L 318.781354 565.956113 
L 317.604067 565.976607 
L 316.442954 565.977521 
L 315.523646 565.978437 
L 314.313865 565.94045 
L 313.475055 565.892579 
L 312.506986 565.796085 
L 311.248865 565.709605 
L 310.006663 565.632704 
L 308.893721 565.604617 
L 307.941961 565.566429 
L 306.909567 565.528477 
L 305.925673 565.451373 
L 305.135033 565.374309 
L 304.231855 565.365241 
L 303.360571 565.268674 
L 302.118347 565.182185 
L 301.29574 565.144089 
L 300.134034 565.018596 
L 298.924272 564.990398 
L 297.972913 564.991154 
L 297.182463 565.001757 
L 295.988928 564.992923 
L 294.74702 564.906437 
L 293.79509 564.790563 
L 292.649544 564.655277 
L 291.568428 564.539507 
L 290.391001 564.48213 
L 289.310214 564.502558 
L 288.5686 564.512914 
L 287.600697 564.494312 
L 286.600722 564.465952 
L 285.665102 564.408384 
L 284.632727 564.380051 
L 283.568355 564.361528 
L 282.309977 564.304219 
L 281.083956 564.22751 
L 280.035407 564.189408 
L 279.067821 564.170809 
L 277.922498 564.152353 
L 276.858019 564.085299 
L 275.648138 563.989013 
L 274.51904 563.98992 
L 273.390039 564.020158 
L 272.244979 563.962762 
L 271.293078 563.876054 
L 270.292699 563.80876 
L 269.050766 563.712503 
L 267.808484 563.616438 
L 266.743708 563.55898 
L 265.888731 563.520728 
L 264.695075 563.444001 
L 263.646429 563.376748 
L 262.420383 563.290264 
L 261.307286 563.193906 
L 260.226185 563.08774 
L 259.145456 562.991549 
L 258.032401 562.914567 
L 256.919389 562.857152 
L 255.693342 562.770671 
L 254.644738 562.722989 
L 253.624773 562.696768 
L 252.82153 562.52017 
L 251.691368 562.170827 
L 250.706629 561.860289 
L 249.624678 561.501106 
L 248.49447 561.132391 
L 247.525596 560.821841 
L 246.573288 560.540455 
L 245.45937 560.220241 
L 244.232567 559.93906 
L 243.005733 559.65788 
L 242.101765 559.425181 
L 240.939588 559.095416 
L 239.874076 558.853066 
L 238.840821 558.561947 
L 237.630177 558.270973 
L 236.532503 557.980099 
L 235.418645 557.689066 
L 234.353359 557.407757 
L 233.400792 557.155726 
L 232.174256 556.854984 
L 231.480216 556.69998 
L 230.317802 556.408969 
L 229.139521 556.118184 
L 228.041886 555.846496 
L 226.879984 555.643344 
L 225.944342 555.595387 
L 224.815202 555.567349 
L 223.653574 555.500204 
L 222.686022 555.501 
L 221.589271 555.482527 
L 220.574089 555.765715 
L 219.155037 555.796233 
L 218.233254 555.125612 
L 217.120165 555.038864 
L 216.200904 555.078755 
L 215.169043 555.12833 
L 213.943048 555.071026 
L 213.41054 555.061875 
L 212.636419 555.01379 
L 211.620139 554.936939 
L 210.474836 554.918511 
L 209.442471 554.89999 
L 208.281257 554.86201 
L 207.426292 554.83354 
L 206.523136 554.824697 
L 205.587536 554.796314 
L 204.764962 554.777621 
L 203.651916 554.710636 
L 202.683847 554.623774 
L 201.780593 554.585774 
L 200.876965 554.508623 
L 199.812131 554.431817 
L 198.682878 554.355065 
L 197.472933 554.239247 
L 196.682671 554.210727 
L 195.6665 554.182607 
L 194.7791 554.12503 
L 194.004692 554.07695 
L 193.052797 554.000053 
L 191.972117 553.932854 
L 190.988268 553.885123 
L 190.116985 553.798376 
L 189.197555 553.750419 
L 188.10044 553.712566 
L 187.197074 553.625847 
L 186.777512 553.606631 
L 185.600067 553.549299 
L 184.470678 553.414237 
L 183.680032 553.356583 
L 182.793014 553.328167 
L 181.696171 553.270751 
L 180.470017 553.145363 
L 179.324465 553.019908 
L 178.162853 552.962566 
L 176.969356 552.963548 
L 175.775949 553.003683 
L 174.583007 553.121489 
L 173.712101 553.200103 
L 172.615956 553.308237 
L 171.519619 553.484491 
L 170.343671 553.816346 
L 169.247523 554.060698 
L 168.29718 554.382792 
L 167.233674 554.607533 
L 166.089261 554.851908 
L 164.896758 555.145049 
L 163.978875 555.505867 
L 162.915247 555.828058 
L 161.851879 556.111308 
L 160.643683 556.491938 
L 159.61238 556.794728 
L 158.42134 557.457524 
L 157.744081 557.56531 
L 156.858801 557.723781 
L 156.774297 527.98887 
L 156.752858 518.324963 
L 157.850135 517.154841 
L 157.767068 509.816617 
L 158.683348 507.772525 
L 158.731633 498.197664 
L 158.6381 487.926607 
L 158.535759 477.745564 
L 158.594732 468.907624 
L 158.71801 458.893455 
L 173.068783 458.880798 
L 173.045035 448.407114 
L 173.034931 443.946983 
L 173.02145 437.991344 
L 172.998221 427.743769 
L 172.974868 417.442964 
L 172.969331 414.995165 
L 173.263777 398.612835 
L 172.894638 382.053356 
L 173.214317 371.653839 
L 173.104913 349.916495 
L 172.88143 347.350619 
L 172.793176 337.289506 
L 172.769782 326.932214 
L 172.746554 316.633047 
L 172.723202 306.280572 
L 212.388495 306.247076 
L 247.757117 306.217919 
L 276.650082 306.194429 
L 290.435269 306.16378 
L 293.389039 306.180303 
L 310.978574 306.16695 
L 327.987367 306.153495 
L 344.992765 306.14015 
L 345.123383 281.465836 
L 345.229865 204.866861 
L 345.116091 151.313745 
L 362.355282 151.535758 
L 431.021913 150.702699 
L 455.112106 150.658167 
L 534.637375 150.415821 
L 548.162331 150.620927 
L 564.199054 150.656903 
" style="fill:#1a1a1a;stroke:#ffffff;stroke-linejoin:miter;stroke-width:4;"/>
   </g>
  </g>
 </g>
 <defs>
  <clipPath id="p5a6148b8cf">
   <rect height="543.6" width="558" x="90" y="86.4"/>
  </clipPath>
 </defs>
</svg>
