<?xml version="1.0" encoding="utf-8" standalone="no"?>
<!DOCTYPE svg PUBLIC "-//W3C//DTD SVG 1.1//EN"
  "http://www.w3.org/Graphics/SVG/1.1/DTD/svg11.dtd">
<!-- Created with matplotlib (https://matplotlib.org/) -->
<svg height="720pt" version="1.1" viewBox="0 0 720 720" width="720pt" xmlns="http://www.w3.org/2000/svg" xmlns:xlink="http://www.w3.org/1999/xlink">
 <metadata>
  <rdf:RDF xmlns:cc="http://creativecommons.org/ns#" xmlns:dc="http://purl.org/dc/elements/1.1/" xmlns:rdf="http://www.w3.org/1999/02/22-rdf-syntax-ns#">
   <cc:Work>
    <dc:type rdf:resource="http://purl.org/dc/dcmitype/StillImage"/>
    <dc:date>2021-05-28T08:56:52.535906</dc:date>
    <dc:format>image/svg+xml</dc:format>
    <dc:creator>
     <cc:Agent>
      <dc:title>Matplotlib v3.3.3, https://matplotlib.org/</dc:title>
     </cc:Agent>
    </dc:creator>
   </cc:Work>
  </rdf:RDF>
 </metadata>
 <defs>
  <style type="text/css">*{stroke-linecap:butt;stroke-linejoin:round;}</style>
 </defs>
 <g id="figure_1">
  <g id="patch_1">
   <path d="M 0 720 
L 720 720 
L 720 0 
L 0 0 
z
" style="fill:none;"/>
  </g>
  <g id="axes_1">
   <g id="patch_2">
    <path clip-path="url(#p5e82cf10ce)" d="M 266.898336 196.463264 
L 298.028003 197.066363 
L 310.116912 196.43224 
L 440.451041 195.946823 
L 623.114803 195.416316 
L 624.166799 195.419068 
L 624.172765 200.336544 
L 624.339258 331.522024 
L 624.349069 339.261541 
L 624.18409 339.460294 
L 623.904271 339.730131 
L 623.476204 340.143225 
L 623.10505 340.505796 
L 622.665425 340.935913 
L 622.099097 341.495828 
L 621.917637 341.669419 
L 621.614789 342.040978 
L 621.214753 342.53066 
L 620.871687 343.04635 
L 620.734471 343.240596 
L 620.30584 343.78104 
L 620.002994 344.152599 
L 619.637243 344.617116 
L 619.197316 345.157523 
L 618.843134 345.579618 
L 618.437524 346.043893 
L 618.04906 346.491156 
L 617.706319 346.904919 
L 617.392036 347.284831 
L 617.0892 347.647871 
L 616.763594 348.04479 
L 616.374976 348.543021 
L 615.992069 349.041429 
L 615.637751 349.497449 
L 615.283303 349.987573 
L 614.900419 350.460417 
L 614.471918 351.000851 
L 614.077445 351.541516 
L 613.717433 351.980649 
L 613.317229 352.546704 
L 612.97991 353.028491 
L 612.539718 353.628226 
L 612.173954 354.118165 
L 611.791044 354.6251 
L 611.431045 355.064069 
L 611.048425 355.494473 
L 610.677262 355.882622 
L 610.277378 356.338411 
L 609.832061 356.776887 
L 609.523777 357.088957 
L 609.095461 357.535988 
L 608.735886 357.873196 
L 608.341841 358.312103 
L 607.502513 359.138525 
L 607.102892 359.551857 
L 606.788917 359.855396 
L 606.434931 360.192633 
L 606.069615 360.555231 
L 605.727068 360.884118 
L 605.333194 361.255019 
L 604.985031 361.592251 
L 604.665483 361.853338 
L 604.494285 361.988038 
L 604.117845 362.26558 
L 603.935224 362.417304 
L 603.530064 362.76262 
L 603.113589 363.116437 
L 602.776904 363.385849 
L 602.332015 363.72257 
L 601.984184 363.932475 
L 601.73897 364.07506 
L 601.317101 364.318583 
L 600.986427 364.511643 
L 600.541682 364.797234 
L 600.108393 365.04057 
L 599.777838 365.225125 
L 599.435739 365.409644 
L 598.991017 365.670004 
L 598.802942 365.770587 
L 598.500836 365.92978 
L 598.113277 366.131093 
L 597.759877 366.306902 
L 597.417905 366.474545 
L 597.087246 366.650581 
L 596.847856 366.793347 
L 596.443163 366.985941 
L 596.044439 367.136103 
L 595.662633 367.286446 
L 595.389112 367.420462 
L 594.990276 367.570624 
L 594.659758 367.712724 
L 593.833628 368.063781 
L 593.451672 368.248064 
L 593.035815 368.415075 
L 592.597258 368.547956 
L 592.477644 368.589664 
L 592.101535 368.756915 
L 591.702572 368.941002 
L 591.269407 369.175826 
L 590.916014 369.360314 
L 590.562642 369.519253 
L 590.277698 369.644729 
L 590.004611 369.659941 
L 589.685539 369.759622 
L 589.355141 369.893372 
L 589.110089 369.993522 
L 588.699786 370.203141 
L 588.266535 370.420924 
L 587.878981 370.62208 
L 587.46285 370.840045 
L 587.075156 371.07529 
L 586.647721 371.301607 
L 586.265594 371.562262 
L 585.837894 371.839713 
L 585.410175 372.142379 
L 584.976745 372.445219 
L 584.560467 372.722692 
L 584.349401 372.874039 
L 583.967415 373.100758 
L 583.636733 373.31071 
L 583.260489 373.512058 
L 582.918516 373.688069 
L 582.200443 374.039846 
L 581.949658 374.157034 
L 581.545115 374.324245 
L 581.16344 374.457575 
L 580.753329 374.573627 
L 580.343501 374.630375 
L 579.979249 374.679018 
L 579.631738 374.795533 
L 579.409517 374.895898 
L 579.067591 375.029468 
L 578.834069 375.121274 
L 578.389654 375.305126 
L 577.512272 375.638914 
L 577.136311 375.755382 
L 576.731922 375.871464 
L 576.32181 376.004749 
L 576.173772 376.029216 
L 575.741057 376.145249 
L 575.296802 376.269601 
L 574.892407 376.394208 
L 574.487994 376.527504 
L 574.111913 376.669357 
L 573.741654 376.811237 
L 573.365567 376.961462 
L 572.989573 377.120376 
L 572.602058 377.279104 
L 572.214649 377.446354 
L 571.85556 377.622328 
L 571.519308 377.789836 
L 571.17164 377.965847 
L 570.772515 378.209426 
L 570.384677 378.495486 
L 570.019845 378.713911 
L 569.700612 378.881619 
L 569.261792 379.073846 
L 568.885818 379.224226 
L 568.515436 379.383155 
L 568.082302 379.592605 
L 567.723334 379.75991 
L 567.358662 379.918834 
L 566.931266 380.094374 
L 566.543872 380.244586 
L 566.207785 380.3613 
L 565.962727 380.461465 
L 565.621042 380.578171 
L 565.176653 380.736455 
L 564.840555 380.853171 
L 564.48745 380.96969 
L 564.174092 381.086597 
L 563.763973 381.219728 
L 563.427887 381.336278 
L 563.057651 381.452769 
L 562.636249 381.568836 
L 562.351464 381.643367 
L 561.981361 381.734276 
L 561.725148 381.783626 
L 561.332211 381.86599 
L 560.979258 381.93153 
L 560.574888 382.030753 
L 560.244508 382.138961 
L 559.845953 382.246716 
L 559.504303 382.320816 
L 559.168066 382.488503 
L 558.825989 382.664517 
L 558.467169 382.789555 
L 558.108203 382.957035 
L 557.732117 383.098736 
L 557.322017 383.223519 
L 556.969046 383.314479 
L 556.57596 383.430769 
L 556.148988 383.512913 
L 555.750474 383.56969 
L 555.3465 383.592553 
L 555.022007 383.632933 
L 554.61789 383.681196 
L 554.173926 383.729207 
L 553.91775 383.744473 
L 553.474062 383.724659 
L 553.126994 383.696992 
L 552.706035 383.677218 
L 552.307804 383.657634 
L 551.91527 383.655121 
L 551.511329 383.635378 
L 551.107395 383.607264 
L 550.754853 383.562544 
L 550.419368 383.483933 
L 550.243069 383.440352 
L 549.890823 383.302224 
L 549.566896 383.189712 
L 549.157382 383.136191 
L 548.725291 383.031515 
L 548.423954 382.953131 
L 548.111298 382.874728 
L 547.775805 382.804625 
L 547.34943 382.691438 
L 547.019656 382.595795 
L 546.593279 382.499654 
L 546.320212 382.480975 
L 545.9847 382.436272 
L 545.62634 382.400069 
L 545.273549 382.389276 
L 544.869725 382.361185 
L 544.54539 382.342069 
L 544.284019 382.255401 
L 543.880365 382.150946 
L 543.510736 382.063594 
L 543.203669 382.01077 
L 542.816995 381.957311 
L 542.498352 381.946728 
L 542.151281 381.935947 
L 541.718875 381.950088 
L 541.360353 381.964671 
L 540.922142 381.970447 
L 540.581058 381.87479 
L 540.228559 381.787637 
L 539.853318 381.717323 
L 539.637128 381.698911 
L 539.278768 381.662531 
L 538.903396 381.617617 
L 538.6076 381.598737 
L 538.186508 381.604546 
L 537.953304 381.594445 
L 537.526627 381.5832 
L 537.230706 381.581366 
L 536.900772 381.562263 
L 536.576567 381.517604 
L 536.218338 381.455844 
L 535.928402 381.386162 
L 535.507623 381.272997 
L 535.189122 381.237038 
L 534.978636 381.227161 
L 534.591693 381.233181 
L 534.250306 381.256338 
L 533.829209 381.253628 
L 533.453843 381.200197 
L 533.232085 381.156381 
L 532.993166 381.137935 
L 532.532483 381.084011 
L 532.196832 381.073258 
L 531.952079 381.071681 
L 531.508256 381.094319 
L 531.121165 381.13428 
L 530.819644 381.149318 
L 530.44985 381.129821 
L 530.068618 381.118994 
L 529.749967 381.133837 
L 529.556368 381.149541 
L 529.243558 381.138995 
L 528.868037 381.128179 
L 528.424098 381.142131 
L 527.991684 381.164809 
L 527.59331 381.170833 
L 527.303092 381.177371 
L 527.058337 381.19284 
L 526.768107 381.216406 
L 526.375429 381.256363 
L 526.050932 381.288244 
L 525.652543 381.328008 
L 525.220031 381.333811 
L 524.810616 381.280165 
L 524.46913 381.286453 
L 524.235783 381.318821 
L 523.854402 381.358949 
L 523.518596 381.390646 
L 523.251106 381.414436 
L 522.835712 381.437131 
L 522.403051 381.476858 
L 522.004669 381.508287 
L 521.646153 381.531427 
L 521.299052 381.546048 
L 520.895252 381.48406 
L 520.468717 381.43039 
L 520.04762 381.427679 
L 519.677677 381.459324 
L 519.27929 381.482234 
L 518.71601 381.478473 
L 518.340512 381.450606 
L 517.965139 381.405712 
L 517.629477 381.395139 
L 517.282388 381.392886 
L 516.895439 381.407294 
L 516.51991 381.421889 
L 516.098801 381.436243 
L 515.71745 381.450646 
L 515.336205 381.473755 
L 514.920681 381.504996 
L 514.533732 381.519558 
L 514.203648 381.551273 
L 513.793829 381.591214 
L 513.349853 381.656166 
L 513.053646 381.73922 
L 512.654967 381.872422 
L 512.318883 381.980662 
L 511.908771 382.130874 
L 511.475682 382.314821 
L 511.145159 382.474036 
L 510.740492 382.666718 
L 510.38153 382.842598 
L 509.942713 383.052087 
L 509.657915 383.152056 
L 509.316252 383.23489 
L 509.020063 383.309258 
L 508.627096 383.425596 
L 508.302445 383.534024 
L 507.897903 383.709666 
L 507.464815 383.893617 
L 507.128578 384.061332 
L 506.832086 384.246171 
L 506.444533 384.464452 
L 506.000014 384.665247 
L 505.589881 384.832528 
L 505.18537 384.982606 
L 504.809416 385.107665 
L 504.36501 385.308462 
L 504.000067 385.552348 
L 503.588981 385.957246 
L 503.537226 386.15217 
L 503.375755 386.804942 
L 502.998225 387.41374 
L 502.558239 387.996722 
L 502.232422 388.469934 
L 501.809193 389.120954 
L 501.38048 389.755088 
L 501.014398 390.329985 
L 500.728262 390.914049 
L 500.694477 391.015927 
L 500.331808 391.672057 
L 499.940825 392.328477 
L 499.623632 392.95893 
L 499.238243 393.606838 
L 498.926053 393.974132 
L 498.50026 394.444014 
L 498.062988 394.854558 
L 497.92665 394.965966 
L 497.562855 395.163723 
L 497.124769 395.302728 
L 496.783432 395.407129 
L 496.459237 395.511223 
L 496.174972 395.65764 
L 495.833724 395.795963 
L 495.509517 395.917102 
L 495.139818 396.072593 
L 494.730378 396.236711 
L 494.440309 396.35772 
L 494.070522 396.496168 
L 493.774855 396.617186 
L 493.331055 396.747664 
L 492.932747 396.843941 
L 492.63691 396.905472 
L 492.244301 397.001609 
L 491.988206 397.054513 
L 491.680948 397.116027 
L 491.248481 397.212587 
L 490.94694 397.265755 
L 490.605505 397.35295 
L 490.212913 397.440734 
L 489.848744 397.536733 
L 489.518841 397.640991 
L 489.126315 397.779575 
L 488.773654 397.909531 
L 488.35279 398.082327 
L 487.937647 398.238072 
L 487.573484 398.325568 
L 487.232062 398.396056 
L 486.788198 398.475558 
L 486.406834 398.520753 
L 485.985429 398.489854 
L 485.580877 398.390973 
L 485.17643 398.300447 
L 484.737718 398.201831 
L 484.293601 398.162544 
L 484.156888 398.172025 
L 483.72444 398.260071 
L 483.40584 398.355829 
L 482.996415 398.503082 
L 482.552706 398.667494 
L 482.239928 398.78014 
L 481.83589 398.893464 
L 481.426282 398.98123 
L 481.073528 399.085627 
L 480.743626 399.189893 
L 480.345393 399.328627 
L 479.93594 399.501449 
L 479.555037 399.690859 
L 479.225207 399.837569 
L 478.906625 399.924809 
L 478.587832 399.97796 
L 478.143793 399.98963 
L 477.745229 399.958609 
L 477.33515 399.919215 
L 476.964929 399.879364 
L 476.526405 399.83174 
L 476.082195 399.767064 
L 475.649381 399.736159 
L 475.478431 399.711987 
L 474.772516 399.717096 
L 474.459351 399.727815 
L 474.100739 399.738951 
L 473.736311 399.741573 
L 473.423257 399.752294 
L 473.041705 399.729658 
L 472.597566 399.724473 
L 472.307151 399.718001 
L 471.965564 399.703447 
L 471.151382 399.709385 
L 470.764231 399.703787 
L 470.405408 399.680854 
L 470.058122 399.666461 
L 469.853023 399.642423 
L 469.568324 399.627623 
L 469.243755 399.612914 
L 468.839586 399.60746 
L 468.480874 399.601573 
L 468.042434 399.596218 
L 467.706355 399.564632 
L 467.438675 399.532648 
L 467.000251 399.518956 
L 466.595965 399.504815 
L 466.214518 399.507735 
L 465.776095 399.493878 
L 465.457236 399.479197 
L 465.052955 399.47373 
L 464.608804 399.468387 
L 464.301466 399.487646 
L 463.937222 399.53272 
L 463.510391 399.595231 
L 463.094874 399.649253 
L 462.713595 399.719853 
L 462.343569 399.722644 
L 462.013385 399.733516 
L 461.631755 399.676786 
L 461.187336 399.586727 
L 460.822908 399.572466 
L 460.521269 399.608614 
L 460.174145 399.670428 
L 459.929489 399.714681 
L 459.690325 399.733376 
L 459.354453 399.727347 
L 459.081057 399.703883 
L 458.767925 399.680694 
L 458.403481 399.691835 
L 457.959363 399.652745 
L 457.731541 399.620493 
L 457.458067 399.562924 
L 457.116301 399.497585 
L 456.68909 399.441293 
L 456.347407 399.418231 
L 455.98289 399.386948 
L 455.578614 399.355941 
L 455.196994 399.28234 
L 454.997505 399.241441 
L 454.661274 399.099563 
L 454.228011 398.899075 
L 453.834691 398.740587 
L 453.475693 398.641288 
L 453.042805 398.551088 
L 452.701021 398.511135 
L 452.399186 398.487967 
L 452.012046 398.465344 
L 451.676056 398.450816 
L 451.271679 398.419797 
L 450.861609 398.363387 
L 450.491408 398.28964 
L 450.155334 398.23267 
L 449.785011 398.175985 
L 449.443227 398.119157 
L 449.118584 398.062038 
L 448.833783 398.013165 
L 448.537663 397.998347 
L 448.372523 397.991089 
L 448.07651 397.98481 
L 447.643683 397.954104 
L 447.262236 397.956876 
L 446.948991 397.933696 
L 446.652955 397.944279 
L 446.339699 397.9211 
L 446.020766 397.863992 
L 445.6164 397.816117 
L 445.206414 397.785096 
L 444.870334 397.753697 
L 444.471778 397.722526 
L 444.112964 397.68274 
L 443.845198 397.625372 
L 443.42931 397.560423 
L 443.053213 397.410493 
L 442.608887 397.345838 
L 442.17027 397.281041 
L 441.778442 397.217247 
L 441.429828 397.176191 
L 441.054012 397.128029 
L 440.729335 397.105005 
L 440.530052 397.106373 
L 440.188385 397.057926 
L 439.818155 397.009773 
L 439.600838 396.954686 
L 439.277002 396.911897 
L 438.895464 396.880772 
L 438.525219 396.858002 
L 438.200766 396.851858 
L 437.876207 396.837358 
L 437.551434 396.788771 
L 437.215466 396.757195 
L 436.850946 396.709052 
L 436.509177 396.643547 
L 436.06486 396.562038 
L 435.671727 396.454536 
L 435.284287 396.355546 
L 434.902569 396.256416 
L 434.606262 396.182287 
L 434.298619 396.133559 
L 433.939922 396.102305 
L 433.507105 396.07143 
L 433.171119 396.048564 
L 432.818003 396.025673 
L 432.482034 395.994101 
L 432.134645 395.962697 
L 431.832909 395.956423 
L 431.559527 395.924606 
L 431.166574 395.884951 
L 430.790628 395.845303 
L 430.517331 395.838903 
L 430.158612 395.841573 
L 429.799898 395.835722 
L 429.39729 395.820435 
L 429.196331 395.814639 
L 428.826208 395.791895 
L 428.427635 395.769429 
L 428.080144 395.720984 
L 427.658656 395.656228 
L 427.231548 395.608491 
L 426.998025 395.576248 
L 426.75877 395.561025 
L 426.422806 395.520953 
L 425.984368 395.507307 
L 425.676736 395.458586 
L 425.323545 395.393242 
L 424.941915 395.311165 
L 424.628477 395.237188 
L 424.201278 395.172427 
L 423.77988 395.124552 
L 423.665923 395.108519 
L 423.301503 395.077249 
L 422.976842 395.045551 
L 422.583973 395.031621 
L 422.17978 395.059969 
L 421.741535 395.114171 
L 421.314704 395.159851 
L 420.899092 395.188352 
L 420.551894 395.207907 
L 420.204573 395.227313 
L 419.840245 395.247029 
L 419.521379 395.240908 
L 419.077252 395.210201 
L 418.792444 395.169872 
L 418.462077 395.129965 
L 418.15454 395.106816 
L 417.738943 395.092876 
L 417.3632 395.104041 
L 416.964707 395.149446 
L 416.57194 395.1524 
L 416.144816 395.147136 
L 415.734924 395.158606 
L 415.40484 395.186561 
L 414.972118 395.181274 
L 414.56783 395.18423 
L 414.16354 395.170294 
L 413.736539 395.147988 
L 413.326449 395.117 
L 412.893625 395.07781 
L 412.614639 395.05437 
L 412.176115 395.015157 
L 411.845839 394.992149 
L 411.430049 394.944295 
L 410.985628 394.845754 
L 410.581086 394.713012 
L 410.170727 394.571757 
L 409.811631 394.438592 
L 409.429817 394.305548 
L 409.270193 394.247348 
L 408.933938 394.130926 
L 408.546414 393.998042 
L 408.255642 393.838904 
L 407.913574 393.68872 
L 407.617081 393.546602 
L 407.303671 393.421522 
L 406.887407 393.212403 
L 406.573987 393.104369 
L 406.243349 392.954035 
L 405.906906 392.778277 
L 405.485053 392.569336 
L 405.040081 392.266938 
L 404.663417 391.947271 
L 404.252862 391.755039 
L 403.85419 391.707049 
L 403.449813 391.667556 
L 403.011399 391.62837 
L 402.590091 391.631651 
L 402.146124 391.68585 
L 401.833059 391.73055 
L 401.685139 391.757089 
L 401.360745 391.818968 
L 400.956653 391.864383 
L 400.541131 391.926994 
L 400.11429 391.989574 
L 399.670441 392.052316 
L 399.294768 392.114463 
L 398.942053 392.185013 
L 398.646102 392.238093 
L 398.213567 392.292329 
L 397.894684 392.311625 
L 397.570215 392.33108 
L 397.177441 392.342409 
L 396.807407 392.353784 
L 396.460192 392.381733 
L 396.101472 392.384434 
L 395.697186 392.361995 
L 395.287201 392.339564 
L 394.87148 392.342694 
L 394.467302 392.345671 
L 394.159851 392.364985 
L 393.875234 392.375623 
L 393.584907 392.386271 
L 393.175111 392.423331 
L 392.964488 392.458814 
L 392.571894 392.563573 
L 392.264723 392.659237 
L 391.934716 392.746533 
L 391.508162 392.894027 
L 391.10444 393.075305 
L 390.666455 393.239996 
L 390.39345 393.326866 
L 390.063448 393.405809 
L 389.73335 393.459185 
L 389.335062 393.538524 
L 388.982327 393.62596 
L 388.60115 393.73926 
L 388.24271 393.818335 
L 387.969684 393.922251 
L 387.571474 394.06108 
L 387.161944 394.199911 
L 386.775165 394.32156 
L 386.445164 394.400506 
L 386.160723 394.496054 
L 385.77973 394.660156 
L 385.370304 394.83291 
L 384.926801 395.056904 
L 384.579779 395.161396 
L 384.198777 395.342544 
L 383.925946 395.497429 
L 383.511092 395.74671 
L 383.096126 395.995992 
L 382.664148 396.253775 
L 382.294659 396.468844 
L 381.965039 396.666602 
L 381.578426 396.890189 
L 381.282863 397.053569 
L 380.856682 397.336927 
L 380.521343 397.551724 
L 380.214443 397.766223 
L 379.799484 398.006986 
L 379.38455 398.222351 
L 379.009265 398.394989 
L 378.61114 398.567598 
L 378.281338 398.714377 
L 377.923077 398.878348 
L 377.49092 399.042894 
L 377.166715 399.172653 
L 376.853946 399.293905 
L 376.518424 399.440695 
L 376.188611 399.587476 
L 375.870123 399.725766 
L 375.432243 399.915706 
L 375.091029 400.028736 
L 374.783864 400.141308 
L 374.437024 400.305296 
L 374.1016 400.477488 
L 373.663824 400.701519 
L 373.260196 400.908215 
L 372.913356 401.072205 
L 372.56641 401.227489 
L 372.219581 401.374436 
L 371.861337 401.529891 
L 371.531531 401.66817 
L 371.173277 401.823792 
L 370.888939 401.961628 
L 370.593287 402.091261 
L 370.246341 402.246732 
L 369.899517 402.385141 
L 369.512817 402.574818 
L 369.097878 402.790027 
L 368.728293 402.988081 
L 368.427028 403.143108 
L 368.125864 403.340747 
L 367.824581 403.529696 
L 367.381478 403.855659 
L 366.966608 404.147402 
L 366.585902 404.413287 
L 365.245071 405.399689 
L 364.801682 405.6406 
L 364.40937 405.838781 
L 364.130852 405.985318 
L 363.693154 406.260158 
L 363.369145 406.449417 
L 363.062271 406.630009 
L 362.721229 406.844814 
L 362.505292 406.982238 
L 362.135915 407.21422 
L 361.851673 407.386151 
L 361.453854 407.626788 
L 361.044708 407.901483 
L 360.811734 408.072977 
L 360.465184 408.33022 
L 360.118728 408.621553 
L 359.834574 408.818885 
L 359.425431 409.110643 
L 359.067476 409.342474 
L 358.635594 409.634372 
L 358.413943 409.780314 
L 357.981978 410.021247 
L 357.555611 410.262187 
L 357.311325 410.442358 
L 356.964775 410.725005 
L 356.595677 411.067446 
L 356.186908 411.477849 
L 355.744269 411.9736 
L 355.318856 412.520171 
L 354.949839 412.921767 
L 354.592065 413.238657 
L 354.296793 413.50399 
L 353.94463 413.795321 
L 353.632242 414.035401 
L 353.313939 414.241385 
L 353.007071 414.439029 
L 352.580909 414.722418 
L 352.171947 415.082027 
L 351.939271 415.329891 
L 351.564561 415.706251 
L 351.303438 415.97146 
L 350.945853 416.35603 
L 350.514622 416.885555 
L 350.09492 417.440493 
L 349.697662 417.901883 
L 349.453879 418.154714 
L 349.26055 418.355204 
L 348.880338 418.765482 
L 348.505635 419.133323 
L 348.159374 419.49251 
L 347.82994 419.792062 
L 347.568721 420.031706 
L 347.188318 420.382665 
L 346.802103 420.716573 
L 346.415888 421.050648 
L 346.018454 421.427154 
L 345.655173 421.794845 
L 345.263343 422.162853 
L 344.911178 422.471237 
L 344.513746 422.847744 
L 344.116596 423.326017 
L 343.798978 423.72735 
L 343.3846 424.180538 
L 342.981562 424.573918 
L 342.623685 424.890819 
L 342.1865 425.28466 
L 341.760608 425.686871 
L 341.329412 426.190839 
L 340.886693 426.678085 
L 340.506564 427.156381 
L 340.296636 427.378712 
L 339.893953 427.933532 
L 339.51945 428.360703 
L 339.150456 428.745604 
L 338.747319 429.122111 
L 338.310322 429.592322 
L 337.901655 430.05371 
L 337.527145 430.498094 
L 337.07912 431.078747 
L 336.687663 431.582433 
L 336.387262 432.043114 
L 336.018652 432.555183 
L 335.718429 433.083891 
L 335.338795 433.697878 
L 334.959157 434.320389 
L 334.573313 434.798684 
L 334.20471 435.302416 
L 333.802335 435.925068 
L 333.399666 436.488399 
L 333.042284 436.924119 
L 332.616512 437.351738 
L 332.2421 437.813005 
L 331.816982 438.469905 
L 331.420208 439.092566 
L 331.17099 439.527409 
L 330.796949 440.141408 
L 330.37155 440.696378 
L 330.002941 441.200097 
L 329.554897 441.81468 
L 329.265525 442.156403 
L 328.87431 442.643053 
L 328.56311 443.002298 
L 328.136716 443.538554 
L 327.914924 443.768398 
L 327.488535 444.296283 
L 327.073549 444.857936 
L 326.67006 445.487629 
L 326.243733 446.11728 
L 325.834471 446.653374 
L 325.396818 447.300057 
L 325.067173 447.82757 
L 324.65227 448.431837 
L 324.299886 448.984874 
L 323.913421 449.589023 
L 323.549395 449.921141 
L 323.174361 450.525287 
L 322.896079 451.086598 
L 322.509531 451.656827 
L 322.174213 452.099265 
L 321.821653 452.542018 
L 321.503275 452.916483 
L 321.105429 453.495206 
L 320.758584 453.929277 
L 320.349347 454.431456 
L 319.917332 455.035708 
L 319.690126 455.554484 
L 319.394884 456.209355 
L 318.991398 456.855933 
L 318.678558 457.154025 
L 318.581887 457.239305 
L 318.172417 457.563189 
L 317.870828 457.75084 
L 317.563614 457.972407 
L 317.154039 458.26237 
L 316.795997 458.730371 
L 316.517672 459.368218 
L 316.245081 459.980523 
L 315.94969 460.51642 
L 315.716903 461.009777 
L 315.706097 461.553511 
L 315.780712 462.096855 
L 315.912298 462.665646 
L 316.043906 463.192009 
L 315.987534 463.735859 
L 315.715036 464.390591 
L 315.470892 464.985884 
L 315.192627 465.530156 
L 314.931285 466.040542 
L 314.821124 466.397397 
L 314.755447 466.61016 
L 314.636593 467.179675 
L 314.61361 467.380672 
L 314.580248 467.67241 
L 314.546456 468.063221 
L 314.456129 468.675227 
L 314.291789 469.312702 
L 314.081806 469.882283 
L 313.803498 470.520149 
L 313.564981 471.0389 
L 313.264055 471.685264 
L 313.014209 472.272012 
L 312.753052 472.867438 
L 312.594007 473.216018 
L 312.372615 473.76871 
L 312.162539 474.304555 
L 311.963912 474.78074 
L 311.753828 475.333445 
L 311.543774 475.826678 
L 311.339512 476.37939 
L 311.226355 476.982683 
L 311.130227 477.560579 
L 311.005557 478.104522 
L 310.784159 478.674276 
L 310.671014 479.252153 
L 310.535032 479.830189 
L 310.450398 480.484463 
L 310.359828 480.91799 
L 310.29771 481.317309 
L 310.1957 481.793267 
L 310.088101 482.252359 
L 309.906651 482.864417 
L 309.736516 483.459443 
L 309.594755 483.952586 
L 309.46441 484.45408 
L 309.305711 485.015047 
L 309.135482 485.576152 
L 309.010846 486.077652 
L 308.897539 486.536738 
L 308.778683 487.123132 
L 308.625678 487.718194 
L 308.455538 488.304699 
L 308.234227 488.933925 
L 308.018614 489.588575 
L 307.808633 490.149654 
L 307.541779 490.736554 
L 307.337333 491.221258 
L 307.116131 491.858857 
L 307.002635 492.249916 
L 306.860956 492.81107 
L 306.708041 493.456915 
L 306.566429 494.085913 
L 306.390681 494.723545 
L 306.249086 495.34402 
L 306.124358 495.811432 
L 305.965668 496.364029 
L 305.761478 496.993126 
L 305.619796 497.562802 
L 305.48382 498.140656 
L 305.353462 498.67624 
L 305.229001 499.288212 
L 305.098711 499.891639 
L 304.99112 500.367609 
L 304.843744 500.88613 
L 304.656591 501.498201 
L 304.435191 502.093342 
L 304.253682 502.61201 
L 304.02666 503.258277 
L 303.771196 503.896008 
L 303.487305 504.542381 
L 303.334149 505.001426 
L 303.220776 505.375442 
L 303.027738 505.894249 
L 302.800676 506.395991 
L 302.516783 507.025321 
L 302.278265 507.603583 
L 302.073934 508.096812 
L 301.852566 508.632482 
L 301.65392 509.151284 
L 301.449569 509.686973 
L 301.301973 510.018676 
L 301.080566 510.613819 
L 300.870522 511.11558 
L 300.632032 511.642878 
L 300.387753 512.102143 
L 300.086688 512.62117 
L 299.688944 513.259252 
L 299.313934 513.905882 
L 299.052613 514.399218 
L 298.706149 515.045712 
L 298.46196 515.556111 
L 298.189484 516.20235 
L 297.922537 516.780735 
L 297.638587 517.333553 
L 297.246545 517.997194 
L 296.934141 518.592592 
L 296.678527 519.120025 
L 296.377519 519.740835 
L 296.150543 520.310592 
L 295.929226 520.965225 
L 295.73077 521.5945 
L 295.589095 522.172352 
L 295.538453 522.707706 
L 295.533313 523.132471 
L 295.539736 523.727039 
L 295.637164 524.312998 
L 295.677646 524.847948 
L 295.718112 525.416969 
L 295.747292 525.943535 
L 295.70796 526.470379 
L 295.634447 526.844273 
L 295.447239 527.362939 
L 295.259676 527.686248 
L 294.85056 528.273525 
L 294.49807 528.66517 
L 294.117045 529.031403 
L 293.753058 529.355194 
L 293.38917 529.704385 
L 292.996817 530.096173 
L 292.649952 530.453905 
L 292.303146 530.879664 
L 291.916682 531.390252 
L 291.501817 532.045536 
L 291.371405 532.487548 
L 291.298066 532.971913 
L 291.253216 533.5751 
L 291.225474 534.220766 
L 291.18627 534.722044 
L 291.124138 535.155438 
L 291.027961 535.665497 
L 290.863559 536.234988 
L 290.642201 536.779187 
L 290.386584 537.332023 
L 290.13687 537.927309 
L 289.898377 538.488702 
L 289.69412 539.066841 
L 289.51262 539.602377 
L 289.348235 540.163514 
L 289.166716 540.716111 
L 288.990902 541.302785 
L 288.786566 541.838465 
L 288.411584 542.442661 
L 287.974019 543.063837 
L 287.54199 543.600116 
L 287.274738 543.906652 
L 286.893735 544.247492 
L 286.529752 544.579812 
L 286.148774 544.869504 
L 285.727978 545.303881 
L 285.352987 545.959047 
L 285.148832 546.571093 
L 285.137977 547.021436 
L 285.326554 547.581586 
L 285.429682 548.218364 
L 285.35642 548.787768 
L 285.231799 549.30617 
L 285.112707 549.731318 
L 284.880031 550.292554 
L 284.664273 550.845268 
L 284.454322 551.406527 
L 284.221553 551.950718 
L 283.983177 552.520453 
L 283.773146 553.013702 
L 283.528964 553.54951 
L 283.233694 554.15346 
L 282.915592 554.77443 
L 282.603219 555.327397 
L 282.330517 555.812378 
L 281.892947 556.467649 
L 281.483753 557.003808 
L 281.165511 557.446466 
L 280.750675 558.084718 
L 280.352808 558.603844 
L 280.028854 559.05502 
L 279.61964 559.642146 
L 279.278672 560.067922 
L 278.931891 560.502031 
L 278.596548 560.893709 
L 278.249683 561.268347 
L 277.828903 561.694211 
L 277.487674 561.983952 
L 277.118105 562.316291 
L 276.674613 562.742116 
L 276.293608 563.09149 
L 275.958093 563.398115 
L 275.537229 563.76466 
L 275.17889 564.020464 
L 274.832063 564.31874 
L 274.439571 564.600077 
L 274.081322 564.906865 
L 273.66039 565.205218 
L 273.233861 565.50375 
L 272.790202 565.81077 
L 272.403428 566.075087 
L 271.999531 566.331016 
L 271.589941 566.553034 
L 271.254266 566.698411 
L 270.861703 566.894697 
L 270.440703 567.099828 
L 270.042419 567.321675 
L 269.621427 567.509763 
L 269.21745 567.697684 
L 268.7852 568.03012 
L 268.358826 568.490077 
L 267.977916 568.890424 
L 267.676563 569.163001 
L 267.306912 569.444368 
L 266.942791 569.649208 
L 266.499069 569.854304 
L 266.089303 569.999779 
L 265.799112 570.093905 
L 265.440731 570.23091 
L 265.031066 570.401785 
L 264.644121 570.581373 
L 264.234531 570.811737 
L 263.853493 571.050652 
L 263.426956 571.3831 
L 263.02878 571.647565 
L 262.659128 571.937291 
L 262.340651 572.184457 
L 261.9652 572.448945 
L 261.561347 572.645397 
L 261.163008 572.773844 
L 260.730524 572.910947 
L 260.32079 572.988585 
L 259.928056 573.074579 
L 259.798206 573.099117 
L 259.563885 573.143406 
L 259.205304 573.22945 
L 258.898 573.298165 
L 258.505389 573.384177 
L 258.07851 573.504244 
L 257.697292 573.649739 
L 257.573954 573.682422 
L 257.547902 573.689331 
L 257.276238 573.761291 
L 256.860698 573.804838 
L 256.422428 573.865576 
L 256.115141 573.89185 
L 255.813445 573.935174 
L 255.380887 573.987396 
L 254.942707 574.098917 
L 254.521548 574.193595 
L 254.20855 574.228387 
L 253.787316 574.238011 
L 253.348873 574.179759 
L 252.96172 574.09584 
L 252.591661 574.062903 
L 252.158949 573.953709 
L 251.839967 573.844105 
L 251.401567 573.70934 
L 251.116813 573.659258 
L 250.71253 573.583847 
L 250.37663 573.508334 
L 249.943906 573.424541 
L 249.625021 573.349028 
L 249.220658 573.197254 
L 248.827712 573.045473 
L 248.417635 572.87665 
L 248.081638 572.767217 
L 247.734233 572.657607 
L 247.386922 572.565192 
L 246.971234 572.455852 
L 246.578269 572.321118 
L 246.23658 572.169071 
L 245.792271 571.974986 
L 245.353764 571.823167 
L 244.921049 571.713981 
L 244.539401 571.553693 
L 244.112221 571.350937 
L 243.764833 571.199054 
L 243.462892 571.021463 
L 243.16097 570.827011 
L 242.870338 570.640909 
L 242.471619 570.370171 
L 242.135369 570.082279 
L 241.804831 569.785854 
L 241.365897 569.311367 
L 240.944183 568.879357 
L 240.767412 568.675982 
L 240.482356 568.294396 
L 240.088799 567.717853 
L 239.814909 567.157964 
L 239.546706 566.623663 
L 239.24997 566.089319 
L 238.862144 565.453295 
L 238.423062 564.80887 
L 237.978327 564.27491 
L 237.533711 563.749456 
L 237.106094 563.23254 
L 236.815144 562.74917 
L 236.55256 562.180788 
L 236.329929 561.637657 
L 236.112901 561.052256 
L 235.924397 560.517529 
L 235.752925 559.965923 
L 235.547216 559.346293 
L 235.318699 558.68435 
L 235.135812 558.098813 
L 234.941419 557.479177 
L 234.798551 557.029379 
L 234.587255 556.409895 
L 234.404349 555.866651 
L 234.278608 555.416852 
L 234.107204 554.941613 
L 233.912912 554.347561 
L 233.787244 553.991188 
L 233.541671 553.39724 
L 233.381797 552.947411 
L 233.158964 552.310889 
L 232.970278 551.691427 
L 232.775987 551.06327 
L 232.661736 550.706908 
L 232.518764 550.231527 
L 232.335793 549.595026 
L 232.17004 549.009355 
L 232.0614 548.61891 
L 231.901149 547.965218 
L 231.72398 547.371165 
L 231.592415 546.921211 
L 231.472448 546.581872 
L 231.295276 545.996192 
L 231.12371 545.359534 
L 230.980852 544.875816 
L 230.81508 544.332573 
L 230.694943 543.857214 
L 230.574893 543.441359 
L 230.414812 542.914999 
L 230.294678 542.431301 
L 230.134601 541.921985 
L 230.003055 541.421233 
L 229.877214 540.928825 
L 229.699847 540.266763 
L 229.585428 539.76586 
L 229.470911 539.256601 
L 229.310754 538.636831 
L 229.190703 538.220961 
L 229.058998 537.584189 
L 228.950267 537.134407 
L 228.818722 536.624966 
L 228.732649 536.09015 
L 228.583892 535.512851 
L 228.440863 534.918664 
L 228.349231 534.53674 
L 228.166164 533.815203 
L 228.011733 533.178562 
L 227.868773 532.686155 
L 227.748696 532.304207 
L 227.582852 531.650695 
L 227.439818 531.064863 
L 227.35388 530.691467 
L 227.239293 530.071588 
L 227.141979 529.621666 
L 227.061778 529.205664 
L 227.016065 529.052894 
L 226.895828 528.535092 
L 226.741279 527.90699 
L 226.609739 527.380656 
L 226.432471 526.735473 
L 226.283786 526.251752 
L 226.112322 525.649018 
L 225.98068 525.097302 
L 225.860439 524.588023 
L 225.774528 524.172033 
L 225.642995 523.654222 
L 225.528292 523.008944 
L 225.425016 522.372182 
L 225.350428 521.913591 
L 225.241558 521.268302 
L 225.143959 520.682511 
L 225.069477 520.240965 
L 224.983386 519.740088 
L 224.919951 519.103194 
L 224.862338 518.491704 
L 224.793459 518.033119 
L 224.729922 517.370826 
L 224.695548 517.133011 
L 224.626397 516.538556 
L 224.55745 515.969684 
L 224.488313 515.34114 
L 224.436367 514.806204 
L 224.378815 514.296647 
L 224.292665 513.659917 
L 224.223782 513.209837 
L 224.1548 512.725852 
L 224.114457 512.292675 
L 224.08542 511.859524 
L 224.061934 511.290525 
L 224.021318 510.695927 
L 224.009267 510.084478 
L 224.00858 509.583175 
L 224.025117 509.124498 
L 224.041389 508.512739 
L 224.040729 507.943743 
L 224.057102 507.357568 
L 224.062122 506.864792 
L 224.06749 506.592907 
L 224.078155 506.006726 
L 224.111534 505.420549 
L 224.133614 504.842901 
L 224.166911 504.180192 
L 224.166487 503.865875 
L 224.177324 503.381609 
L 224.193667 502.8464 
L 224.221538 502.345289 
L 224.203835 501.844121 
L 224.163491 501.410943 
L 224.105832 500.884525 
L 224.088217 500.442862 
L 224.047783 499.984285 
L 224.001563 499.406744 
L 223.972288 498.752669 
L 223.943261 498.294119 
L 223.908262 497.648561 
L 223.912701 496.697243 
L 223.917914 496.281 
L 223.917332 495.796724 
L 223.928067 495.287076 
L 223.933093 494.777406 
L 223.949733 494.369528 
L 223.937555 493.76645 
L 223.925476 493.197444 
L 223.90777 492.730215 
L 223.878484 492.07614 
L 223.84358 491.47321 
L 223.820182 490.963515 
L 223.830835 490.377485 
L 223.864392 489.910133 
L 223.892352 489.468343 
L 223.908514 488.822663 
L 223.913639 488.346932 
L 223.918505 487.701409 
L 223.912472 487.387087 
L 223.900486 486.894446 
L 223.877079 486.376413 
L 223.830662 485.756412 
L 223.807262 485.221335 
L 223.795099 484.609718 
L 223.79384 483.598908 
L 223.787383 482.995668 
L 223.780931 482.350135 
L 223.791489 481.721511 
L 223.802161 481.118437 
L 223.807282 480.651228 
L 223.800736 479.98865 
L 223.783104 479.589431 
L 223.719662 478.96106 
L 223.673614 478.51085 
L 223.633011 477.907898 
L 223.603977 477.466225 
L 223.574772 476.888682 
L 223.54566 476.387689 
L 223.493889 475.971546 
L 223.413702 475.504596 
L 223.293388 474.901741 
L 223.212823 474.256494 
L 223.223484 473.678819 
L 223.240103 473.296507 
L 223.142613 472.702028 
L 222.98244 472.107844 
L 222.850794 471.539068 
L 222.736176 470.970307 
L 222.644392 470.384539 
L 222.563986 469.900545 
L 222.455097 469.280656 
L 222.317742 468.737442 
L 222.209073 468.355521 
L 222.089037 467.841214 
L 222.054523 467.693333 
L 221.968609 467.268806 
L 221.905604 466.946246 
L 221.892111 466.839423 
L 221.825158 466.309338 
L 221.79621 465.927153 
L 221.767165 465.51103 
L 221.73788 464.874017 
L 221.720437 464.534269 
L 221.668422 463.905925 
L 221.582164 463.243445 
L 221.519049 462.886964 
L 221.467453 462.589814 
L 221.335718 461.98695 
L 221.261215 461.579494 
L 221.186633 461.086966 
L 221.094663 460.424665 
L 221.031225 459.77925 
L 220.962189 459.159414 
L 220.881881 458.709325 
L 220.812906 458.191403 
L 220.7384 457.817868 
L 220.635194 457.23209 
L 220.532002 456.637606 
L 220.423089 456.043284 
L 220.342798 455.576335 
L 220.267932 454.947971 
L 220.170536 454.387581 
L 220.06732 453.852752 
L 219.901446 453.224644 
L 219.786829 452.613273 
L 219.729177 452.052934 
L 219.700164 451.577156 
L 219.659526 451.025187 
L 219.607612 450.422226 
L 219.538537 449.870232 
L 219.446661 449.250359 
L 219.371978 448.723927 
L 219.303094 448.256972 
L 219.234115 447.772988 
L 219.136623 447.170155 
L 218.99919 446.525027 
L 218.833196 445.879858 
L 218.655992 445.302689 
L 218.461766 444.734044 
L 218.227493 444.080629 
L 218.073096 443.554462 
L 217.919013 443.08476 
L 217.48363 442.549896 
L 217.362456 442.324473 
L 217.070525 441.66917 
L 216.85311 441.131236 
L 216.628835 440.646619 
L 216.294906 440.022528 
L 216.0061 439.385794 
L 215.722328 438.731502 
L 215.477815 438.172173 
L 215.215941 437.635038 
L 214.889241 437.102041 
L 214.488133 436.451827 
L 214.138869 435.813873 
L 213.839929 435.290242 
L 213.52143 434.680053 
L 213.168883 434.101903 
L 212.823831 433.536642 
L 212.49714 433.003798 
L 212.099579 432.438326 
L 211.708726 431.897742 
L 211.294509 431.26408 
L 210.909799 430.760431 
L 210.534823 430.299919 
L 209.46965 429.771402 
L 208.33237 429.519028 
L 207.9311 429.549438 
L 207.518371 429.415897 
L 207.073047 429.290367 
L 206.749748 429.221753 
L 206.465953 429.169716 
L 206.054293 429.168872 
L 205.633744 429.257253 
L 205.20333 429.38055 
L 204.758147 429.477935 
L 204.449334 429.591642 
L 204.039327 429.633061 
L 203.713536 429.612239 
L 203.346324 429.610599 
L 202.910724 429.528527 
L 202.496218 429.352563 
L 202.112996 429.047791 
L 201.757424 428.752399 
L 201.394467 428.443951 
L 201.019869 428.128325 
L 200.585659 427.642709 
L 200.143924 427.222574 
L 199.848779 427.006774 
L 199.472677 427.094362 
L 199.299792 427.459186 
L 199.258605 428.002397 
L 198.877141 428.643603 
L 198.499416 428.610544 
L 198.069145 428.956761 
L 197.664718 429.047002 
L 197.288203 428.767138 
L 197.333221 428.152076 
L 197.711519 427.871971 
L 198.151796 427.412467 
L 198.216628 426.805927 
L 198.03037 426.139211 
L 197.656895 425.498411 
L 197.225275 424.964994 
L 196.845893 424.588376 
L 196.475124 424.200888 
L 196.112304 423.814258 
L 195.704471 423.440292 
L 195.352727 423.073056 
L 194.966228 422.526978 
L 194.652787 422.122175 
L 194.252204 421.538338 
L 193.858883 420.967358 
L 193.495212 420.448052 
L 193.080423 419.82644 
L 192.728684 419.158074 
L 192.528733 418.820873 
L 192.181221 418.225366 
L 191.855879 417.590292 
L 191.539961 416.932149 
L 191.328659 416.431013 
L 191.141314 415.932887 
L 190.978292 415.359268 
L 190.789958 414.806851 
L 190.591263 414.144624 
L 190.420039 413.648366 
L 190.236777 413.000021 
L 190.07677 412.444953 
L 189.887084 411.916247 
L 189.69686 411.321385 
L 189.522206 410.740389 
L 189.359746 410.154907 
L 189.230092 409.561096 
L 189.080625 408.959064 
L 188.894769 408.358676 
L 188.712192 407.698317 
L 188.540569 407.057518 
L 188.430053 406.484092 
L 188.340904 405.961481 
L 188.224779 405.417644 
L 187.982591 404.888747 
L 187.836239 404.3051 
L 187.679396 403.690213 
L 187.543456 403.137822 
L 187.416253 402.574593 
L 187.241896 402.059954 
L 187.041804 401.499993 
L 186.994065 401.337534 
L 186.780867 400.794106 
L 186.531393 400.252505 
L 186.285074 399.650917 
L 186.127414 399.126081 
L 185.982311 398.518557 
L 185.633675 397.868581 
L 185.334431 397.200446 
L 185.042448 396.545167 
L 184.786263 395.97848 
L 184.63502 395.635305 
L 184.397185 395.100899 
L 184.08427 394.461313 
L 183.776812 393.870374 
L 183.493962 393.348784 
L 183.14959 392.693316 
L 182.887117 392.168083 
L 182.572848 391.552392 
L 182.288359 390.910155 
L 181.947677 390.261208 
L 181.552557 389.647811 
L 181.192558 389.13502 
L 180.805934 388.588973 
L 180.373334 387.923062 
L 179.9518 387.276394 
L 179.57405 386.641106 
L 179.265347 386.074232 
L 179.000279 385.596941 
L 178.57466 385.100495 
L 178.184989 384.61427 
L 177.94537 384.037574 
L 177.780305 383.499869 
L 177.593883 382.911366 
L 177.400629 382.298127 
L 177.243199 381.695092 
L 177.084418 381.115951 
L 176.949282 380.473514 
L 176.865705 379.99972 
L 176.763552 379.493646 
L 176.611741 378.861055 
L 176.475365 378.242495 
L 176.362809 377.705015 
L 176.232467 377.123389 
L 176.135357 376.59979 
L 176.011862 375.964697 
L 175.901084 375.469662 
L 175.78168 374.985464 
L 175.668421 374.538385 
L 175.479957 373.985791 
L 175.261925 373.459928 
L 174.989754 372.813044 
L 174.727297 372.209597 
L 174.462898 371.720278 
L 174.11851 371.064818 
L 173.874516 370.493652 
L 173.612707 369.956378 
L 173.204589 369.359674 
L 172.836942 368.912238 
L 172.504305 368.565423 
L 172.386011 368.436834 
L 172.021353 368.086153 
L 171.659036 367.765869 
L 171.249953 367.33762 
L 170.880926 366.992434 
L 170.519284 366.660137 
L 170.171061 366.377646 
L 169.84567 366.122076 
L 169.529319 365.921656 
L 169.182985 365.681611 
L 168.826025 365.410127 
L 168.471091 365.102902 
L 168.108208 364.794502 
L 167.740844 364.491763 
L 167.406151 364.259081 
L 167.280862 364.148886 
L 166.970513 363.875934 
L 166.627896 363.564041 
L 166.26749 363.207837 
L 165.936089 362.836966 
L 165.493462 362.284192 
L 165.166028 361.763269 
L 164.933779 361.199637 
L 164.762679 360.625004 
L 164.618092 360.083827 
L 164.500733 359.485505 
L 164.447101 358.828593 
L 164.529028 358.278207 
L 164.68058 357.784351 
L 164.8607 357.209488 
L 164.987754 356.646451 
L 165.051893 356.05177 
L 165.139855 355.538167 
L 165.147224 354.948792 
L 165.044635 354.376397 
L 164.793783 353.858688 
L 164.507215 353.330609 
L 164.166932 352.747833 
L 163.814431 352.169744 
L 163.438432 351.57675 
L 163.041904 351.065804 
L 162.622555 350.527922 
L 162.269376 349.961698 
L 161.846184 349.495668 
L 161.480025 349.247261 
L 161.107182 348.895581 
L 160.726262 348.621246 
L 160.278711 348.30895 
L 159.894774 348.016249 
L 159.46651 347.645983 
L 159.086955 347.269386 
L 158.297431 346.943664 
L 158.296702 346.38376 
L 157.929234 346.197767 
L 157.554062 346.116792 
L 157.185986 345.904314 
L 156.785776 345.68797 
L 156.388145 345.423671 
L 155.968378 345.120739 
L 155.542454 344.780892 
L 155.33535 344.65375 
L 155.089978 344.485959 
L 154.701657 344.198775 
L 154.272039 343.852409 
L 153.890001 343.52379 
L 153.500441 343.260502 
L 153.150288 343.013935 
L 152.810539 342.798807 
L 152.449835 342.599206 
L 152.052752 342.40125 
L 151.657471 342.167353 
L 151.293085 341.961233 
L 151.030348 341.815507 
L 150.68374 341.653848 
L 150.258215 341.458549 
L 149.910379 341.320618 
L 149.610001 341.200601 
L 149.193787 340.982232 
L 148.767574 340.798965 
L 148.425908 340.619599 
L 148.076293 340.439393 
L 147.772221 340.31284 
L 147.489216 340.170779 
L 147.176419 340.055099 
L 146.794094 339.88306 
L 146.36913 339.675901 
L 145.932524 339.461215 
L 145.528051 339.250394 
L 145.146728 339.132648 
L 144.79764 339.018616 
L 144.437372 338.885362 
L 144.044541 338.681903 
L 143.646103 338.508017 
L 143.301282 338.388626 
L 142.942353 338.231311 
L 142.577153 338.1156 
L 142.418484 338.138888 
L 141.9761 338.142269 
L 141.588063 337.968058 
L 141.211126 337.784498 
L 140.848413 337.584404 
L 140.482563 337.391327 
L 140.129122 337.262075 
L 139.723732 337.080669 
L 139.316797 336.856819 
L 138.884541 336.689266 
L 138.569055 336.567242 
L 138.128848 336.402175 
L 137.805521 336.251739 
L 137.42376 336.094079 
L 137.029355 335.903326 
L 136.6823 335.759894 
L 136.428378 335.668825 
L 136.01636 335.593361 
L 135.68783 335.622222 
L 135.391008 335.580421 
L 135.087782 335.613978 
L 134.793829 335.718392 
L 134.363426 336.06468 
L 133.937064 336.722128 
L 133.70536 337.236982 
L 133.454606 337.763371 
L 133.260623 338.285435 
L 133.144004 338.833968 
L 133.091968 339.46758 
L 133.08754 340.026211 
L 133.127351 340.547256 
L 133.204755 341.167433 
L 133.2413 341.756837 
L 133.22868 342.378945 
L 133.183029 342.998541 
L 133.104246 343.585013 
L 132.960612 344.239303 
L 132.810852 344.785124 
L 132.615177 345.356833 
L 132.43396 345.881245 
L 132.15466 346.440535 
L 131.797977 347.004104 
L 131.400564 347.475591 
L 131.052232 347.853015 
L 130.684983 348.211562 
L 130.640349 348.259525 
L 130.325665 348.598338 
L 130.057963 348.933872 
L 129.693573 349.438468 
L 129.338848 349.860673 
L 129.004723 350.252329 
L 128.63891 350.683885 
L 128.238502 351.070302 
L 127.871376 351.398272 
L 127.431331 351.826942 
L 126.986564 352.281694 
L 126.630277 352.692036 
L 126.212018 353.255237 
L 125.826901 353.820982 
L 125.399242 354.405416 
L 125.27726 354.53902 
L 124.938328 354.95656 
L 124.55998 355.385773 
L 124.146803 355.80061 
L 123.858745 356.074643 
L 123.521625 356.381415 
L 123.149931 356.643365 
L 122.813072 356.858215 
L 122.443442 356.948054 
L 122.056226 357.061276 
L 121.756016 357.149154 
L 121.364219 357.226948 
L 121.008693 357.331001 
L 120.640406 357.463286 
L 120.275237 357.619151 
L 119.854863 357.791007 
L 119.42341 357.941803 
L 119.21624 358.051462 
L 118.897105 358.15086 
L 118.483014 358.278106 
L 118.086397 358.381985 
L 117.696286 358.44107 
L 117.290523 358.412752 
L 116.870804 358.278467 
L 116.50639 358.127857 
L 116.124763 357.908892 
L 115.762061 357.678243 
L 115.487789 357.49527 
L 115.140988 357.259935 
L 114.789365 357.050515 
L 114.412427 356.836233 
L 114.029226 356.636153 
L 113.781466 356.502425 
L 113.650931 356.427937 
L 117.408926 339.282579 
L 122.008544 320.181246 
L 128.250451 296.917263 
L 135.149229 273.163955 
L 142.376361 250.145785 
L 151.409552 225.414514 
L 158.801071 204.111239 
L 164.551496 183.786606 
L 168.987888 167.624813 
L 171.933731 153.849574 
L 174.096116 142.161989 
L 184.304393 149.572637 
L 199.134105 158.530891 
L 199.13509 158.531494 
L 230.079068 177.416129 
L 241.912932 186.112939 
L 247.269522 190.167399 
L 257.643955 195.40807 
L 266.898336 196.463264 
" style="fill:#1a1a1a;stroke:#ffffff;stroke-linejoin:miter;stroke-width:4;"/>
   </g>
  </g>
 </g>
 <defs>
  <clipPath id="p5e82cf10ce">
   <rect height="543.6" width="558" x="90" y="86.4"/>
  </clipPath>
 </defs>
</svg>
