<?xml version="1.0" encoding="utf-8" standalone="no"?>
<!DOCTYPE svg PUBLIC "-//W3C//DTD SVG 1.1//EN"
  "http://www.w3.org/Graphics/SVG/1.1/DTD/svg11.dtd">
<!-- Created with matplotlib (https://matplotlib.org/) -->
<svg height="720pt" version="1.1" viewBox="0 0 720 720" width="720pt" xmlns="http://www.w3.org/2000/svg" xmlns:xlink="http://www.w3.org/1999/xlink">
 <metadata>
  <rdf:RDF xmlns:cc="http://creativecommons.org/ns#" xmlns:dc="http://purl.org/dc/elements/1.1/" xmlns:rdf="http://www.w3.org/1999/02/22-rdf-syntax-ns#">
   <cc:Work>
    <dc:type rdf:resource="http://purl.org/dc/dcmitype/StillImage"/>
    <dc:date>2021-05-07T11:03:05.211907</dc:date>
    <dc:format>image/svg+xml</dc:format>
    <dc:creator>
     <cc:Agent>
      <dc:title>Matplotlib v3.3.3, https://matplotlib.org/</dc:title>
     </cc:Agent>
    </dc:creator>
   </cc:Work>
  </rdf:RDF>
 </metadata>
 <defs>
  <style type="text/css">*{stroke-linecap:butt;stroke-linejoin:round;}</style>
 </defs>
 <g id="figure_1">
  <g id="patch_1">
   <path d="M 0 720 
L 720 720 
L 720 0 
L 0 0 
z
" style="fill:none;"/>
  </g>
  <g id="axes_1">
   <g id="patch_2">
    <path clip-path="url(#pa99b3ba708)" d="M 397.781977 259.692042 
L 421.019212 291.508152 
L 448.710736 291.47069 
L 453.311076 291.509277 
L 453.587488 291.611291 
L 453.879682 291.702972 
L 454.235237 291.918023 
L 454.907124 292.440977 
L 455.472664 292.91008 
L 456.334324 293.628045 
L 456.731637 293.947745 
L 494.292994 293.941785 
L 494.27368 295.16852 
L 494.253363 341.03117 
L 531.394075 340.975626 
L 531.385107 389.35734 
L 568.536383 389.343407 
L 568.475246 420.780651 
L 568.422351 437.708352 
L 568.430031 437.70835 
L 605.530138 437.690355 
L 605.475486 486.070491 
L 605.470061 490.914005 
L 609.17881 490.911648 
L 609.182611 508.230357 
L 609.183557 517.781069 
L 609.185271 521.249145 
L 608.09757 521.449616 
L 607.335519 521.674881 
L 607.340024 524.008678 
L 607.339633 542.985461 
L 607.27775 549.678639 
L 594.457068 533.762799 
L 584.303506 521.330001 
L 576.019092 511.607945 
L 568.166893 504.353051 
L 563.559188 501.011737 
L 559.435415 498.340188 
L 554.410463 495.545817 
L 549.289971 493.255375 
L 543.687492 491.302275 
L 537.184587 489.604081 
L 531.262776 488.869041 
L 525.116751 488.638364 
L 456.681846 488.837866 
L 382.196288 488.85853 
L 306.044808 489.016695 
L 231.540714 489.109055 
L 229.881126 489.111428 
L 128.814729 489.276004 
L 129.167496 293.188849 
L 155.621202 293.201263 
L 155.641868 245.229377 
L 155.84365 245.228365 
L 166.940306 245.181532 
L 176.799296 245.142258 
L 179.567938 245.12768 
L 184.755871 245.103457 
L 229.891132 244.914163 
L 304.105717 263.592641 
L 305.958708 264.059105 
L 305.960901 260.36896 
L 306.10192 234.646996 
L 307.113812 168.093083 
L 309.066476 166.721361 
L 365.288328 228.596562 
L 397.781977 259.692042 
" style="stroke:#ffffff;stroke-linejoin:miter;stroke-width:2;"/>
   </g>
  </g>
 </g>
 <defs>
  <clipPath id="pa99b3ba708">
   <rect height="543.6" width="558" x="90" y="86.4"/>
  </clipPath>
 </defs>
</svg>
