<?xml version="1.0" encoding="utf-8" standalone="no"?>
<!DOCTYPE svg PUBLIC "-//W3C//DTD SVG 1.1//EN"
  "http://www.w3.org/Graphics/SVG/1.1/DTD/svg11.dtd">
<!-- Created with matplotlib (https://matplotlib.org/) -->
<svg height="720pt" version="1.1" viewBox="0 0 720 720" width="720pt" xmlns="http://www.w3.org/2000/svg" xmlns:xlink="http://www.w3.org/1999/xlink">
 <metadata>
  <rdf:RDF xmlns:cc="http://creativecommons.org/ns#" xmlns:dc="http://purl.org/dc/elements/1.1/" xmlns:rdf="http://www.w3.org/1999/02/22-rdf-syntax-ns#">
   <cc:Work>
    <dc:type rdf:resource="http://purl.org/dc/dcmitype/StillImage"/>
    <dc:date>2021-05-28T08:56:52.907974</dc:date>
    <dc:format>image/svg+xml</dc:format>
    <dc:creator>
     <cc:Agent>
      <dc:title>Matplotlib v3.3.3, https://matplotlib.org/</dc:title>
     </cc:Agent>
    </dc:creator>
   </cc:Work>
  </rdf:RDF>
 </metadata>
 <defs>
  <style type="text/css">*{stroke-linecap:butt;stroke-linejoin:round;}</style>
 </defs>
 <g id="figure_1">
  <g id="patch_1">
   <path d="M 0 720 
L 720 720 
L 720 0 
L 0 0 
z
" style="fill:none;"/>
  </g>
  <g id="axes_1">
   <g id="patch_2">
    <path clip-path="url(#p30a1791dfa)" d="M 547.277372 403.797693 
L 547.108206 423.803373 
L 546.294315 423.800504 
L 546.088011 522.383447 
L 546.015907 556.844714 
L 546.000452 564.231682 
L 545.955646 564.231697 
L 484.491268 564.250336 
L 457.061796 564.251547 
L 391.278585 564.268921 
L 324.154059 564.250673 
L 256.390551 564.177605 
L 220.347426 564.733524 
L 171.778442 564.706498 
L 171.811043 561.742065 
L 171.164493 555.424268 
L 171.188168 546.943523 
L 171.131304 545.761063 
L 170.906372 540.719788 
L 170.707072 536.916874 
L 170.57447 530.741083 
L 170.609116 527.365941 
L 170.703064 525.093074 
L 170.78976 524.452992 
L 170.997898 522.83301 
L 171.542508 521.085115 
L 172.320978 519.084211 
L 173.339641 517.623793 
L 174.368034 516.052976 
L 175.276769 513.98276 
L 175.799255 511.76872 
L 176.000072 509.648354 
L 176.087712 507.709685 
L 176.142765 506.123684 
L 176.074379 472.462563 
L 176.062661 460.216184 
L 176.133297 457.503125 
L 176.144983 450.446449 
L 176.117034 425.396323 
L 176.090534 408.845195 
L 176.134468 396.754995 
L 176.108011 394.553481 
L 176.101056 385.937042 
L 176.070632 359.85722 
L 176.061937 351.450225 
L 177.378669 350.78494 
L 180.532136 349.175481 
L 341.633862 266.91595 
L 373.990913 250.396329 
L 387.792238 243.350592 
L 485.718994 193.365814 
L 567.42553 151.666476 
L 567.286645 165.54715 
L 567.087027 184.363343 
L 567.181124 233.170623 
L 566.824624 239.985794 
L 566.640449 244.077159 
L 566.47129 246.755399 
L 566.468096 246.798619 
L 563.405022 283.311711 
L 561.465632 296.417712 
L 559.810839 306.426203 
L 558.338785 315.32942 
L 557.659664 319.119212 
L 556.717911 324.374955 
L 555.462567 331.68963 
L 552.274663 351.802288 
L 551.361515 358.823652 
L 550.657222 364.68867 
L 550.236513 369.339551 
L 549.645369 373.730262 
L 549.592061 374.200515 
L 549.555093 374.660196 
L 549.321643 377.562299 
L 548.759389 383.286894 
L 547.97957 393.735354 
L 547.554248 399.741283 
L 547.277372 403.797693 
" style="fill:#1a1a1a;stroke:#ffffff;stroke-linejoin:miter;stroke-width:4;"/>
   </g>
  </g>
 </g>
 <defs>
  <clipPath id="p30a1791dfa">
   <rect height="543.6" width="558" x="90" y="86.4"/>
  </clipPath>
 </defs>
</svg>
