<?xml version="1.0" encoding="utf-8" standalone="no"?>
<!DOCTYPE svg PUBLIC "-//W3C//DTD SVG 1.1//EN"
  "http://www.w3.org/Graphics/SVG/1.1/DTD/svg11.dtd">
<!-- Created with matplotlib (https://matplotlib.org/) -->
<svg height="720pt" version="1.1" viewBox="0 0 720 720" width="720pt" xmlns="http://www.w3.org/2000/svg" xmlns:xlink="http://www.w3.org/1999/xlink">
 <metadata>
  <rdf:RDF xmlns:cc="http://creativecommons.org/ns#" xmlns:dc="http://purl.org/dc/elements/1.1/" xmlns:rdf="http://www.w3.org/1999/02/22-rdf-syntax-ns#">
   <cc:Work>
    <dc:type rdf:resource="http://purl.org/dc/dcmitype/StillImage"/>
    <dc:date>2021-05-07T11:03:00.524575</dc:date>
    <dc:format>image/svg+xml</dc:format>
    <dc:creator>
     <cc:Agent>
      <dc:title>Matplotlib v3.3.3, https://matplotlib.org/</dc:title>
     </cc:Agent>
    </dc:creator>
   </cc:Work>
  </rdf:RDF>
 </metadata>
 <defs>
  <style type="text/css">*{stroke-linecap:butt;stroke-linejoin:round;}</style>
 </defs>
 <g id="figure_1">
  <g id="patch_1">
   <path d="M 0 720 
L 720 720 
L 720 0 
L 0 0 
z
" style="fill:none;"/>
  </g>
  <g id="axes_1">
   <g id="patch_2">
    <path clip-path="url(#p2ed51e70e2)" d="M 569.987842 426.571933 
L 569.938155 484.767077 
L 569.929715 494.650413 
L 569.813226 538.328966 
L 568.998689 548.2293 
L 568.859497 556.755796 
L 568.953857 560.196091 
L 568.9855 563.362224 
L 562.595313 561.15393 
L 490.255635 561.166668 
L 490.231399 553.86451 
L 476.346965 553.86711 
L 476.304696 541.388669 
L 476.313514 538.421075 
L 476.281084 534.394545 
L 474.64609 534.394526 
L 474.688121 511.636282 
L 460.211724 511.637575 
L 460.231397 501.536135 
L 414.158278 501.540726 
L 390.211562 501.285335 
L 355.998318 501.293243 
L 324.919872 501.301482 
L 324.953457 483.666364 
L 293.986964 483.671834 
L 294.010276 471.177416 
L 274.852834 471.181593 
L 269.794587 471.186093 
L 270.085852 457.807485 
L 270.136532 442.437777 
L 266.194399 435.678369 
L 256.557625 428.001363 
L 239.616916 417.207175 
L 211.398326 399.227673 
L 204.120373 391.475571 
L 190.643706 377.154712 
L 181.03314 366.890767 
L 172.771898 358.067998 
L 167.712953 354.740398 
L 170.186353 346.784226 
L 172.946916 337.904445 
L 176.84493 325.345252 
L 177.878744 322.014529 
L 179.927187 315.414722 
L 182.765426 306.270628 
L 191.675531 277.65887 
L 197.171545 268.395425 
L 223.511434 225.956223 
L 228.796165 217.441753 
L 235.63734 208.481706 
L 251.609251 181.577461 
L 255.68834 175.028909 
L 261.29598 165.825069 
L 262.198228 164.362459 
L 262.869192 163.223598 
L 263.666209 161.970778 
L 264.547162 160.604053 
L 265.428153 159.237349 
L 266.015397 158.303429 
L 266.350718 157.665697 
L 267.063956 156.595075 
L 267.735356 155.615582 
L 268.322848 154.772718 
L 268.708394 154.205595 
L 269.538897 153.037776 
L 327.029724 164.031028 
L 338.160088 166.316893 
L 358.983532 171.034923 
L 365.550731 172.606617 
L 380.875295 176.751692 
L 395.337771 180.82581 
L 408.010879 184.395912 
L 455.008132 197.136085 
L 488.167254 205.403572 
L 514.649321 211.309576 
L 534.35437 215.582743 
L 548.731781 218.036417 
L 560.953834 219.696989 
L 570.287047 220.452467 
L 569.653546 284.805056 
L 569.739158 300.548834 
L 569.949137 331.406945 
L 569.702104 368.400212 
L 570.005109 406.346719 
L 569.996596 416.338936 
L 569.987842 426.571933 
" style="stroke:#ffffff;stroke-linejoin:miter;stroke-width:2;"/>
   </g>
  </g>
 </g>
 <defs>
  <clipPath id="p2ed51e70e2">
   <rect height="543.6" width="558" x="90" y="86.4"/>
  </clipPath>
 </defs>
</svg>
