<?xml version="1.0" encoding="utf-8" standalone="no"?>
<!DOCTYPE svg PUBLIC "-//W3C//DTD SVG 1.1//EN"
  "http://www.w3.org/Graphics/SVG/1.1/DTD/svg11.dtd">
<!-- Created with matplotlib (https://matplotlib.org/) -->
<svg height="720pt" version="1.1" viewBox="0 0 720 720" width="720pt" xmlns="http://www.w3.org/2000/svg" xmlns:xlink="http://www.w3.org/1999/xlink">
 <metadata>
  <rdf:RDF xmlns:cc="http://creativecommons.org/ns#" xmlns:dc="http://purl.org/dc/elements/1.1/" xmlns:rdf="http://www.w3.org/1999/02/22-rdf-syntax-ns#">
   <cc:Work>
    <dc:type rdf:resource="http://purl.org/dc/dcmitype/StillImage"/>
    <dc:date>2021-05-07T11:03:01.736384</dc:date>
    <dc:format>image/svg+xml</dc:format>
    <dc:creator>
     <cc:Agent>
      <dc:title>Matplotlib v3.3.3, https://matplotlib.org/</dc:title>
     </cc:Agent>
    </dc:creator>
   </cc:Work>
  </rdf:RDF>
 </metadata>
 <defs>
  <style type="text/css">*{stroke-linecap:butt;stroke-linejoin:round;}</style>
 </defs>
 <g id="figure_1">
  <g id="patch_1">
   <path d="M 0 720 
L 720 720 
L 720 0 
L 0 0 
z
" style="fill:none;"/>
  </g>
  <g id="axes_1">
   <g id="patch_2">
    <path clip-path="url(#p234737aa5c)" d="M 567.020617 153.180576 
L 568.105174 153.7264 
L 569.128913 153.671571 
L 569.975518 153.903546 
L 571.014245 153.957057 
L 572.009705 153.803793 
L 572.649287 153.911859 
L 574.6252 155.772576 
L 578.239243 154.952108 
L 582.353325 154.158824 
L 586.479945 153.636967 
L 590.612735 153.250411 
L 590.79098 153.24795 
L 590.74682 156.733901 
L 590.78703 249.569485 
L 590.788555 253.469 
L 590.693628 305.134327 
L 590.682117 305.129762 
L 586.80174 305.076058 
L 583.922769 306.219694 
L 581.449605 308.297744 
L 580.066755 310.273514 
L 575.072069 311.054484 
L 570.534011 310.214622 
L 566.512445 308.967262 
L 562.856316 307.213858 
L 559.316058 305.970875 
L 555.389479 304.567177 
L 551.418257 302.95559 
L 547.64132 301.434257 
L 542.995201 299.927001 
L 543.349928 293.094138 
L 539.816216 292.235617 
L 532.621068 296.231789 
L 526.891817 293.860412 
L 524.202611 288.558125 
L 523.722416 281.49401 
L 517.437128 279.861974 
L 512.124243 280.452526 
L 511.06307 281.594315 
L 510.374507 282.186692 
L 506.517992 283.750816 
L 504.883551 283.75514 
L 504.603762 283.226434 
L 504.189164 282.979908 
L 503.404816 282.734341 
L 500.820181 281.29998 
L 496.841597 279.819798 
L 495.467947 279.291414 
L 491.997521 278.406754 
L 491.187266 278.408903 
L 499.8319 285.298669 
L 503.799168 292.23753 
L 506.82051 299.370841 
L 507.778306 300.701288 
L 510.302378 306.944171 
L 512.044769 311.223434 
L 515.379414 319.413429 
L 516.078284 325.281951 
L 514.721882 334.283994 
L 514.515473 342.469404 
L 519.113395 354.00356 
L 520.116328 354.955384 
L 512.870156 356.746809 
L 512.438796 357.023238 
L 512.28621 360.047662 
L 508.555512 362.108092 
L 504.502027 363.94776 
L 504.333963 365.158616 
L 505.126359 366.615212 
L 505.310316 368.445842 
L 506.404295 369.735292 
L 508.240872 371.463274 
L 509.795037 372.729484 
L 514.373526 374.269025 
L 520.096586 377.637041 
L 526.860165 381.204375 
L 542.192291 390.995136 
L 542.723942 391.63108 
L 544.352807 392.14004 
L 547.499073 395.559246 
L 550.702366 396.434448 
L 553.423143 396.325372 
L 555.208486 396.101647 
L 556.529788 394.874823 
L 559.328565 397.024347 
L 564.37192 401.538803 
L 568.372491 406.453955 
L 590.50751 406.465473 
L 590.509464 406.464305 
L 590.502363 412.375447 
L 590.502199 412.502769 
L 470.086294 412.819838 
L 470.112574 417.824795 
L 471.287396 418.109752 
L 470.090325 418.107939 
L 469.313953 422.86652 
L 467.068276 424.115758 
L 464.070612 432.265038 
L 464.00038 440.326305 
L 461.736527 448.814531 
L 460.95797 450.661433 
L 460.403174 452.227021 
L 460.464736 453.229468 
L 460.469166 454.07167 
L 461.036644 454.912351 
L 461.547594 455.713088 
L 462.452222 456.432567 
L 463.355189 456.831199 
L 467.866799 458.222841 
L 471.082074 459.357275 
L 472.098481 459.916025 
L 473.906083 461.034146 
L 474.923301 461.753331 
L 475.208399 462.43437 
L 475.888673 463.314869 
L 476.230689 464.11604 
L 476.515995 464.837173 
L 476.712856 470.170596 
L 476.238204 476.28786 
L 474.360134 483.190913 
L 473.862674 484.956855 
L 473.604094 489.328974 
L 473.607671 490.010762 
L 474.681172 490.729778 
L 476.320728 492.024818 
L 477.708538 498.99939 
L 477.773261 500.603419 
L 477.50058 502.288535 
L 476.83445 504.095039 
L 474.711431 507.228864 
L 473.316116 509.558673 
L 468.663971 513.525402 
L 464.571166 516.78481 
L 463.228168 518.352499 
L 461.32538 520.523235 
L 460.710092 521.286864 
L 456.837471 523.583184 
L 455.827138 524.167406 
L 455.380104 524.810285 
L 444.658445 541.48251 
L 432.994243 559.773547 
L 432.10253 565.111694 
L 373.073097 565.267128 
L 353.895344 565.299246 
L 147.306271 565.090869 
L 147.275611 420.675733 
L 147.2369 412.035739 
L 147.20902 405.812545 
L 147.255683 253.647965 
L 147.757078 249.77477 
L 234.075902 249.8115 
L 275.090173 249.859192 
L 366.372245 249.96843 
L 366.376232 176.481243 
L 366.406173 153.297015 
L 367.254405 153.437387 
L 369.186547 153.560508 
L 370.308585 153.5094 
L 371.78534 153.752995 
L 373.357879 153.940282 
L 374.799519 153.885401 
L 376.301964 154.300126 
L 377.782026 154.505717 
L 379.208592 154.32544 
L 380.497303 154.338041 
L 382.080819 154.434976 
L 383.967142 154.646451 
L 385.237226 154.786115 
L 386.587423 154.994003 
L 387.820513 155.293507 
L 389.35782 155.512523 
L 390.911737 155.420513 
L 392.553964 155.606483 
L 393.675833 155.779125 
L 395.199333 155.962296 
L 396.748589 156.119826 
L 398.26209 156.11285 
L 399.380779 156.097635 
L 400.854171 156.177046 
L 402.138801 156.287968 
L 403.744817 156.367411 
L 405.509469 156.484428 
L 406.8775 156.514494 
L 408.297036 156.752649 
L 409.993355 156.871386 
L 411.685323 156.986083 
L 413.272922 156.884306 
L 414.937518 156.976978 
L 416.518673 157.246113 
L 418.226151 157.569776 
L 420.047858 157.818491 
L 421.683491 157.887205 
L 423.794641 158.088226 
L 425.602205 158.026777 
L 427.6609 157.988695 
L 429.556796 158.000492 
L 431.177861 158.099887 
L 433.039883 158.352964 
L 434.81597 158.466293 
L 436.374753 158.527277 
L 437.572124 158.56325 
L 438.679065 158.597509 
L 439.867258 158.699815 
L 441.825429 158.960592 
L 443.88454 159.10458 
L 446.106334 159.166317 
L 447.958966 159.292055 
L 449.602594 159.488925 
L 451.711265 159.577746 
L 453.097424 159.587031 
L 455.556363 159.596593 
L 457.730526 159.666807 
L 460.294209 159.764446 
L 462.298441 159.926979 
L 464.594999 160.071673 
L 466.511269 160.12721 
L 468.488074 160.14829 
L 470.431006 160.200095 
L 472.824488 160.183427 
L 474.832842 160.358951 
L 475.270942 160.299428 
L 476.171214 160.284799 
L 476.877349 160.310432 
L 477.957252 160.324233 
L 478.967999 160.338393 
L 479.88106 160.254711 
L 480.932248 160.140629 
L 481.955613 160.016715 
L 482.965121 159.893033 
L 483.91977 159.858312 
L 484.944196 159.832888 
L 485.580726 159.819565 
L 486.439175 159.814939 
L 487.339112 159.829805 
L 488.419169 159.873062 
L 489.29118 159.858533 
L 490.342679 159.80357 
L 491.15942 159.789189 
L 492.004035 159.79449 
L 492.834919 159.829298 
L 493.845344 159.833792 
L 494.662188 159.839188 
L 495.520262 159.814791 
L 496.585595 159.749907 
L 497.360347 159.666812 
L 497.968742 159.594628 
L 498.936442 159.441595 
L 499.862678 159.278784 
L 500.913546 159.154826 
L 501.881748 159.051038 
L 502.822761 159.00665 
L 503.818813 158.912502 
L 504.772653 158.769396 
L 505.740856 158.66561 
L 506.640162 158.611465 
L 507.318219 158.578264 
L 508.328438 158.543195 
L 509.034318 158.519595 
L 510.099705 158.464625 
L 510.971614 158.430311 
L 511.843149 158.376242 
L 512.687185 158.32242 
L 513.642008 158.25805 
L 514.55462 158.144721 
L 515.605969 158.060302 
L 516.644063 158.044766 
L 517.670216 158.245999 
L 518.447196 158.438797 
L 519.417705 158.62079 
L 520.401057 158.654839 
L 521.341645 158.580797 
L 522.378981 158.466755 
L 523.166562 158.295033 
L 524.163401 158.299366 
L 524.982265 158.541301 
L 525.895433 158.477222 
L 526.876621 158.30441 
L 527.789609 158.210862 
L 528.813766 158.185461 
L 529.892938 158.11069 
L 530.833373 158.006989 
L 531.441697 157.91504 
L 532.243345 157.772735 
L 533.2114 157.639513 
L 534.207661 157.584912 
L 535.121739 157.648814 
L 536.132387 157.643422 
L 537.072245 157.480612 
L 537.777342 157.358534 
L 538.690536 157.304348 
L 539.643804 157.102146 
L 540.384766 156.329703 
L 541.142762 155.901932 
L 542.080053 155.453547 
L 543.032132 155.073931 
L 544.108688 154.703489 
L 545.045448 154.146728 
L 546.024297 153.67844 
L 546.865295 153.299506 
L 547.749208 153.058327 
L 548.744692 152.905051 
L 549.740201 152.761663 
L 550.666504 152.608977 
L 551.426979 152.506359 
L 552.450411 152.39237 
L 553.446374 152.278646 
L 554.165668 152.215689 
L 555.175165 152.091849 
L 555.866639 152.019272 
L 556.917266 151.84608 
L 557.940022 151.653399 
L 558.921444 151.470696 
L 559.833567 151.308144 
L 560.787644 151.155196 
L 561.728343 151.100754 
L 562.642596 151.145087 
L 563.515499 151.248836 
L 564.375415 151.421465 
L 565.153951 151.811259 
L 565.976934 152.535942 
L 567.020617 153.180576 
" style="stroke:#ffffff;stroke-linejoin:miter;stroke-width:2;"/>
   </g>
  </g>
 </g>
 <defs>
  <clipPath id="p234737aa5c">
   <rect height="543.6" width="558" x="90" y="86.4"/>
  </clipPath>
 </defs>
</svg>
