<?xml version="1.0" encoding="utf-8" standalone="no"?>
<!DOCTYPE svg PUBLIC "-//W3C//DTD SVG 1.1//EN"
  "http://www.w3.org/Graphics/SVG/1.1/DTD/svg11.dtd">
<!-- Created with matplotlib (https://matplotlib.org/) -->
<svg height="720pt" version="1.1" viewBox="0 0 720 720" width="720pt" xmlns="http://www.w3.org/2000/svg" xmlns:xlink="http://www.w3.org/1999/xlink">
 <metadata>
  <rdf:RDF xmlns:cc="http://creativecommons.org/ns#" xmlns:dc="http://purl.org/dc/elements/1.1/" xmlns:rdf="http://www.w3.org/1999/02/22-rdf-syntax-ns#">
   <cc:Work>
    <dc:type rdf:resource="http://purl.org/dc/dcmitype/StillImage"/>
    <dc:date>2021-05-07T11:02:58.549198</dc:date>
    <dc:format>image/svg+xml</dc:format>
    <dc:creator>
     <cc:Agent>
      <dc:title>Matplotlib v3.3.3, https://matplotlib.org/</dc:title>
     </cc:Agent>
    </dc:creator>
   </cc:Work>
  </rdf:RDF>
 </metadata>
 <defs>
  <style type="text/css">*{stroke-linecap:butt;stroke-linejoin:round;}</style>
 </defs>
 <g id="figure_1">
  <g id="patch_1">
   <path d="M 0 720 
L 720 720 
L 720 0 
L 0 0 
z
" style="fill:none;"/>
  </g>
  <g id="axes_1">
   <g id="patch_2">
    <path clip-path="url(#p428833632b)" d="M 527.770788 347.928895 
L 530.601733 348.218604 
L 559.073228 347.917997 
L 556.979065 419.69564 
L 561.730507 425.884038 
L 557.390523 427.460036 
L 555.141493 503.925106 
L 554.828066 533.477566 
L 554.82319 537.717244 
L 550.704739 537.181315 
L 385.755636 515.721252 
L 285.438149 515.938736 
L 273.907465 515.966566 
L 267.75389 515.983314 
L 245.84133 516.028437 
L 221.177938 516.082245 
L 220.729457 516.083407 
L 220.654603 460.874352 
L 220.584905 349.65502 
L 176.323095 349.709802 
L 176.330373 346.959685 
L 176.307144 290.936469 
L 176.304125 283.5448 
L 176.291013 205.686701 
L 176.276779 201.990894 
L 176.288841 195.848012 
L 176.269493 178.682756 
L 504.820032 264.103441 
L 504.753444 337.836143 
L 508.058538 340.150306 
L 511.23159 341.994266 
L 515.093122 343.92942 
L 519.573077 345.678378 
L 524.740125 347.19472 
L 527.770788 347.928895 
" style="stroke:#ffffff;stroke-linejoin:miter;stroke-width:2;"/>
   </g>
  </g>
 </g>
 <defs>
  <clipPath id="p428833632b">
   <rect height="543.6" width="558" x="90" y="86.4"/>
  </clipPath>
 </defs>
</svg>
