<?xml version="1.0" encoding="utf-8" standalone="no"?>
<!DOCTYPE svg PUBLIC "-//W3C//DTD SVG 1.1//EN"
  "http://www.w3.org/Graphics/SVG/1.1/DTD/svg11.dtd">
<!-- Created with matplotlib (https://matplotlib.org/) -->
<svg height="720pt" version="1.1" viewBox="0 0 720 720" width="720pt" xmlns="http://www.w3.org/2000/svg" xmlns:xlink="http://www.w3.org/1999/xlink">
 <metadata>
  <rdf:RDF xmlns:cc="http://creativecommons.org/ns#" xmlns:dc="http://purl.org/dc/elements/1.1/" xmlns:rdf="http://www.w3.org/1999/02/22-rdf-syntax-ns#">
   <cc:Work>
    <dc:type rdf:resource="http://purl.org/dc/dcmitype/StillImage"/>
    <dc:date>2021-05-07T11:03:06.707153</dc:date>
    <dc:format>image/svg+xml</dc:format>
    <dc:creator>
     <cc:Agent>
      <dc:title>Matplotlib v3.3.3, https://matplotlib.org/</dc:title>
     </cc:Agent>
    </dc:creator>
   </cc:Work>
  </rdf:RDF>
 </metadata>
 <defs>
  <style type="text/css">*{stroke-linecap:butt;stroke-linejoin:round;}</style>
 </defs>
 <g id="figure_1">
  <g id="patch_1">
   <path d="M 0 720 
L 720 720 
L 720 0 
L 0 0 
z
" style="fill:none;"/>
  </g>
  <g id="axes_1">
   <g id="patch_2">
    <path clip-path="url(#pea5cad15fa)" d="M 614.760869 182.299937 
L 615.064734 185.202847 
L 615.301527 187.951854 
L 615.406703 190.802233 
L 615.447422 194.484107 
L 615.291258 198.421118 
L 615.000823 201.997856 
L 614.627383 205.067045 
L 613.973766 209.053352 
L 613.173514 212.91211 
L 612.23762 216.410511 
L 611.105134 220.257431 
L 609.739788 224.112699 
L 608.293396 227.696894 
L 607.123898 230.232232 
L 605.740075 233.137371 
L 604.471199 235.620052 
L 603.124147 237.999381 
L 601.475338 240.77291 
L 599.776612 243.401326 
L 598.18009 245.757969 
L 596.183746 248.465974 
L 594.665702 250.44753 
L 592.706055 252.817265 
L 591.072149 254.772574 
L 589.239841 256.780954 
L 587.572454 258.538364 
L 585.525185 260.599818 
L 584.053663 262.030637 
L 583.527305 262.542436 
L 582.314397 263.655531 
L 579.721671 265.955281 
L 576.715799 268.47993 
L 573.749526 270.799074 
L 571.238654 272.663237 
L 568.611932 274.501167 
L 565.208499 276.762458 
L 562.062656 278.764083 
L 557.585159 281.620742 
L 552.678015 284.702332 
L 547.76331 287.84285 
L 542.691047 291.0303 
L 537.658657 294.222563 
L 532.867352 297.224915 
L 529.480578 299.420334 
L 527.134873 301.141022 
L 514.74335 311.102474 
L 503.211763 322.291056 
L 495.224411 331.638175 
L 488.858344 340.600402 
L 486.030419 345.195799 
L 479.37099 358.749847 
L 475.945167 367.784425 
L 473.717126 377.798265 
L 472.225367 388.463943 
L 471.557385 397.699297 
L 472.131956 407.839786 
L 478.744403 466.754368 
L 479.176159 474.778865 
L 479.052894 481.155174 
L 478.37768 487.229961 
L 476.878814 494.707592 
L 474.41408 501.636972 
L 470.986499 509.33728 
L 467.417582 515.471275 
L 463.021983 521.633964 
L 455.325548 530.549859 
L 428.249225 560.601901 
L 424.093171 565.802482 
L 420.591129 570.754762 
L 417.158558 575.926812 
L 414.3461 581.097935 
L 410.805395 588.779767 
L 366.467204 565.560152 
L 324.409379 543.755279 
L 289.221005 525.236722 
L 272.143864 515.390081 
L 254.997536 504.853554 
L 251.269951 502.594545 
L 247.390972 500.434767 
L 239.219034 495.962028 
L 216.692177 484.300198 
L 161.97267 455.936748 
L 153.137151 451.201963 
L 146.730608 447.518575 
L 140.941366 443.560607 
L 134.568013 438.201715 
L 122.552578 427.622975 
L 153.381208 392.473633 
L 160.432311 385.838001 
L 162.621736 383.083932 
L 164.898704 379.947635 
L 167.720484 375.911778 
L 169.033867 373.547408 
L 171.27757 370.000388 
L 173.168538 366.967456 
L 174.354391 365.065447 
L 175.792246 362.543173 
L 177.073413 360.178858 
L 178.578246 357.197959 
L 180.114866 354.062955 
L 181.45892 351.133688 
L 182.610303 348.384478 
L 183.345942 346.637318 
L 183.761712 345.635282 
L 184.877329 342.729985 
L 186.026927 339.313242 
L 187.080299 336.025052 
L 188.036599 332.557289 
L 188.705642 329.988656 
L 189.34151 327.06062 
L 189.722927 325.262734 
L 190.509568 321.226579 
L 191.110673 317.348641 
L 191.584116 313.88172 
L 191.960214 310.132557 
L 192.176869 306.948507 
L 192.271499 306.229443 
L 192.394164 303.839171 
L 192.484515 301.553958 
L 192.510961 299.448573 
L 192.536916 297.163472 
L 192.465027 294.416397 
L 192.362692 292.311237 
L 192.260357 290.206076 
L 192.029185 288.075473 
L 191.830952 286.227223 
L 191.373605 283.478657 
L 190.81639 279.859475 
L 190.196229 276.779571 
L 189.805046 275.008683 
L 189.218481 272.442223 
L 188.60043 270.132562 
L 187.787922 267.361085 
L 187.333029 265.847053 
L 186.557764 263.380565 
L 185.616382 260.583647 
L 184.838023 258.531012 
L 183.962508 256.27315 
L 183.119807 254.246308 
L 181.985724 251.65514 
L 180.754917 249.012796 
L 179.210443 245.903673 
L 177.332856 242.261142 
L 175.714631 239.260034 
L 174.335199 236.713487 
L 173.999431 236.130714 
L 172.154995 232.847584 
L 170.796455 230.616261 
L 169.534623 228.436128 
L 166.295179 223.245247 
L 164.915974 220.940376 
L 164.074918 219.555421 
L 163.937752 219.316174 
L 155.662737 209.293297 
L 147.496649 195.704462 
L 155.268161 193.171926 
L 162.588723 190.506933 
L 168.97476 188.175145 
L 175.204725 185.760791 
L 180.033645 184.13625 
L 185.071509 182.884317 
L 189.538603 181.964898 
L 194.733556 181.127118 
L 199.098308 180.788057 
L 209.920778 180.520798 
L 227.435627 180.573743 
L 306.338291 180.625259 
L 315.07747 180.701472 
L 324.256745 181.228809 
L 334.074756 181.87568 
L 350.279454 183.355808 
L 361.573776 183.970507 
L 371.470642 184.256219 
L 382.802844 184.057956 
L 394.333499 183.407764 
L 405.344766 182.487447 
L 416.434294 180.904571 
L 426.924823 179.111909 
L 438.810283 176.564365 
L 451.332769 173.353473 
L 463.5532 169.601826 
L 499.463779 158.539032 
L 519.092604 152.521508 
L 550.687536 141.411306 
L 588.293561 127.620233 
L 590.990053 130.452119 
L 593.989121 133.920281 
L 596.79828 137.426451 
L 599.370134 141.008427 
L 601.466227 144.175897 
L 603.229641 147.230584 
L 604.612193 149.832888 
L 605.804879 152.47318 
L 606.992669 155.172472 
L 607.531706 156.379516 
L 608.278925 158.168819 
L 609.22728 160.635376 
L 610.159235 163.16794 
L 610.623929 164.534347 
L 611.523179 167.264904 
L 612.356666 170.206702 
L 613.122378 173.205013 
L 613.840718 176.490084 
L 614.324386 179.27844 
L 614.760869 182.299937 
" style="stroke:#ffffff;stroke-linejoin:miter;stroke-width:2;"/>
   </g>
  </g>
 </g>
 <defs>
  <clipPath id="pea5cad15fa">
   <rect height="543.6" width="558" x="90" y="86.4"/>
  </clipPath>
 </defs>
</svg>
