<?xml version="1.0" encoding="utf-8" standalone="no"?>
<!DOCTYPE svg PUBLIC "-//W3C//DTD SVG 1.1//EN"
  "http://www.w3.org/Graphics/SVG/1.1/DTD/svg11.dtd">
<!-- Created with matplotlib (https://matplotlib.org/) -->
<svg height="720pt" version="1.1" viewBox="0 0 720 720" width="720pt" xmlns="http://www.w3.org/2000/svg" xmlns:xlink="http://www.w3.org/1999/xlink">
 <metadata>
  <rdf:RDF xmlns:cc="http://creativecommons.org/ns#" xmlns:dc="http://purl.org/dc/elements/1.1/" xmlns:rdf="http://www.w3.org/1999/02/22-rdf-syntax-ns#">
   <cc:Work>
    <dc:type rdf:resource="http://purl.org/dc/dcmitype/StillImage"/>
    <dc:date>2021-05-28T08:56:45.940019</dc:date>
    <dc:format>image/svg+xml</dc:format>
    <dc:creator>
     <cc:Agent>
      <dc:title>Matplotlib v3.3.3, https://matplotlib.org/</dc:title>
     </cc:Agent>
    </dc:creator>
   </cc:Work>
  </rdf:RDF>
 </metadata>
 <defs>
  <style type="text/css">*{stroke-linecap:butt;stroke-linejoin:round;}</style>
 </defs>
 <g id="figure_1">
  <g id="patch_1">
   <path d="M 0 720 
L 720 720 
L 720 0 
L 0 0 
z
" style="fill:none;"/>
  </g>
  <g id="axes_1">
   <g id="patch_2">
    <path clip-path="url(#p1734a48405)" d="M 331.259301 190.194447 
L 371.563996 210.047872 
L 385.003514 216.668254 
L 397.399117 223.559308 
L 410.466409 230.823995 
L 414.714655 232.157555 
L 432.456639 232.37296 
L 451.322437 232.418189 
L 454.726209 232.425878 
L 471.101038 232.621855 
L 473.782852 232.493668 
L 497.027778 232.637477 
L 530.912252 232.429611 
L 557.081803 232.390969 
L 557.066667 246.081516 
L 557.303316 254.77682 
L 561.038282 261.010024 
L 560.989679 276.509287 
L 476.979873 276.508087 
L 473.475689 276.510623 
L 472.997646 304.038419 
L 465.743375 321.22859 
L 437.366322 385.805386 
L 435.539943 390.339714 
L 405.347313 427.149962 
L 395.519557 438.528094 
L 418.259241 438.343738 
L 472.969921 438.426001 
L 556.834144 438.314234 
L 556.977613 449.575808 
L 557.123041 460.98935 
L 558.408338 464.129835 
L 559.834265 467.032358 
L 561.57571 469.791278 
L 563.316824 472.299241 
L 565.426357 474.80696 
L 567.693433 477.063633 
L 569.414095 478.56959 
L 564.869689 481.106159 
L 562.870857 482.003798 
L 560.398141 482.83009 
L 558.188156 483.369421 
L 555.977639 483.550286 
L 537.163825 483.524365 
L 537.130164 494.891116 
L 490.383947 495.008138 
L 490.386466 495.675296 
L 490.341278 520.189397 
L 471.206468 545.118974 
L 453.381273 545.122557 
L 429.373327 516.173411 
L 412.614421 504.633175 
L 402.888985 511.169531 
L 398.885209 513.859534 
L 377.517335 499.158234 
L 342.460803 475.031541 
L 332.95312 468.488404 
L 323.66214 462.093707 
L 304.095572 448.626995 
L 257.826308 416.781178 
L 247.754849 409.849104 
L 237.90475 403.255736 
L 235.436455 401.517132 
L 233.116256 400.110904 
L 229.351552 397.639817 
L 225.196531 395.926877 
L 220.572966 395.022077 
L 214.148861 394.775182 
L 168.635009 394.814653 
L 168.884817 347.695825 
L 168.672479 308.391429 
L 168.585905 288.338365 
L 169.226523 206.371595 
L 184.440781 207.014902 
L 201.40391 206.64181 
L 221.144046 204.116072 
L 235.320999 200.878398 
L 248.662736 197.103954 
L 260.195932 192.793473 
L 271.172048 187.945909 
L 278.811845 183.549195 
L 286.450848 178.704483 
L 292.561217 174.309082 
L 296.061172 171.277443 
L 304.690918 175.915352 
L 318.260576 183.208242 
L 331.259301 190.194447 
" style="fill:#1a1a1a;stroke:#ffffff;stroke-linejoin:miter;stroke-width:4;"/>
   </g>
  </g>
 </g>
 <defs>
  <clipPath id="p1734a48405">
   <rect height="543.6" width="558" x="90" y="86.4"/>
  </clipPath>
 </defs>
</svg>
