<?xml version="1.0" encoding="utf-8" standalone="no"?>
<!DOCTYPE svg PUBLIC "-//W3C//DTD SVG 1.1//EN"
  "http://www.w3.org/Graphics/SVG/1.1/DTD/svg11.dtd">
<!-- Created with matplotlib (https://matplotlib.org/) -->
<svg height="720pt" version="1.1" viewBox="0 0 720 720" width="720pt" xmlns="http://www.w3.org/2000/svg" xmlns:xlink="http://www.w3.org/1999/xlink">
 <metadata>
  <rdf:RDF xmlns:cc="http://creativecommons.org/ns#" xmlns:dc="http://purl.org/dc/elements/1.1/" xmlns:rdf="http://www.w3.org/1999/02/22-rdf-syntax-ns#">
   <cc:Work>
    <dc:type rdf:resource="http://purl.org/dc/dcmitype/StillImage"/>
    <dc:date>2021-05-07T11:02:59.376236</dc:date>
    <dc:format>image/svg+xml</dc:format>
    <dc:creator>
     <cc:Agent>
      <dc:title>Matplotlib v3.3.3, https://matplotlib.org/</dc:title>
     </cc:Agent>
    </dc:creator>
   </cc:Work>
  </rdf:RDF>
 </metadata>
 <defs>
  <style type="text/css">*{stroke-linecap:butt;stroke-linejoin:round;}</style>
 </defs>
 <g id="figure_1">
  <g id="patch_1">
   <path d="M 0 720 
L 720 720 
L 720 0 
L 0 0 
z
" style="fill:none;"/>
  </g>
  <g id="axes_1">
   <g id="patch_2">
    <path clip-path="url(#p1994028a7e)" d="M 616.200837 544.850937 
L 616.204382 547.102249 
L 614.70056 547.098019 
L 595.765907 547.058562 
L 584.876054 547.036262 
L 487.168052 546.876483 
L 446.748128 546.859903 
L 371.732069 546.816564 
L 368.189568 546.81456 
L 246.710501 546.167994 
L 121.791817 545.745165 
L 121.795714 541.143694 
L 121.986549 432.593012 
L 122.004735 422.038664 
L 122.016653 415.117415 
L 122.143308 341.571966 
L 122.251372 285.790575 
L 122.259372 281.662438 
L 122.295495 262.984963 
L 122.337564 241.304121 
L 124.272306 238.812308 
L 125.573928 237.095771 
L 127.129827 235.108508 
L 129.342691 232.461051 
L 131.466275 229.833545 
L 133.471601 227.206689 
L 135.430069 224.801171 
L 137.789757 221.951355 
L 140.054787 219.065227 
L 141.777113 216.845208 
L 143.664581 214.403252 
L 145.764711 211.849636 
L 147.67613 209.554955 
L 150.012587 206.889591 
L 151.617523 205.112461 
L 153.581463 203.0298 
L 156.060133 200.511139 
L 157.759911 198.844058 
L 159.459834 197.250711 
L 161.08901 195.768277 
L 163.096077 193.989091 
L 165.386687 192.06105 
L 167.984565 190.020899 
L 171.007636 187.683769 
L 173.558852 185.975567 
L 175.430554 184.773241 
L 177.036877 183.696361 
L 179.234038 182.358468 
L 181.14784 181.280031 
L 183.368942 180.089466 
L 185.944469 178.712835 
L 187.888178 177.780438 
L 188.118533 177.66994 
L 191.072592 176.328274 
L 193.625103 175.283455 
L 196.626882 174.162693 
L 199.037836 173.302892 
L 201.212694 172.66541 
L 203.863611 171.949764 
L 207.457202 171.084027 
L 211.382065 170.290351 
L 215.473132 169.827525 
L 219.067695 169.477796 
L 222.497036 169.313169 
L 225.571865 169.297751 
L 227.960899 169.359489 
L 231.226268 169.526257 
L 234.136008 169.769694 
L 237.49561 170.268855 
L 240.879067 170.87844 
L 243.62405 171.564952 
L 247.244555 172.468242 
L 250.179156 173.374961 
L 253.161316 174.428869 
L 255.859717 175.521039 
L 261.517443 177.803478 
L 267.245744 180.207432 
L 273.849687 182.901944 
L 279.222827 185.12349 
L 284.075323 187.200259 
L 293.669972 191.160599 
L 296.510493 192.39974 
L 298.94548 193.356015 
L 322.515362 203.461257 
L 327.853935 206.115183 
L 333.916892 209.658841 
L 339.706377 213.631073 
L 342.701339 215.907987 
L 345.230081 217.931077 
L 350.746698 222.681424 
L 353.967144 225.656367 
L 371.035311 241.182944 
L 401.128917 268.529605 
L 423.720933 289.385256 
L 446.676824 309.906837 
L 489.412432 349.360032 
L 534.951319 391.592219 
L 582.375728 435.195625 
L 616.208183 464.348528 
L 616.200837 544.850937 
" style="stroke:#ffffff;stroke-linejoin:miter;stroke-width:2;"/>
   </g>
  </g>
 </g>
 <defs>
  <clipPath id="p1994028a7e">
   <rect height="543.6" width="558" x="90" y="86.4"/>
  </clipPath>
 </defs>
</svg>
