<?xml version="1.0" encoding="utf-8" standalone="no"?>
<!DOCTYPE svg PUBLIC "-//W3C//DTD SVG 1.1//EN"
  "http://www.w3.org/Graphics/SVG/1.1/DTD/svg11.dtd">
<!-- Created with matplotlib (https://matplotlib.org/) -->
<svg height="720pt" version="1.1" viewBox="0 0 720 720" width="720pt" xmlns="http://www.w3.org/2000/svg" xmlns:xlink="http://www.w3.org/1999/xlink">
 <metadata>
  <rdf:RDF xmlns:cc="http://creativecommons.org/ns#" xmlns:dc="http://purl.org/dc/elements/1.1/" xmlns:rdf="http://www.w3.org/1999/02/22-rdf-syntax-ns#">
   <cc:Work>
    <dc:type rdf:resource="http://purl.org/dc/dcmitype/StillImage"/>
    <dc:date>2021-05-28T08:56:48.085558</dc:date>
    <dc:format>image/svg+xml</dc:format>
    <dc:creator>
     <cc:Agent>
      <dc:title>Matplotlib v3.3.3, https://matplotlib.org/</dc:title>
     </cc:Agent>
    </dc:creator>
   </cc:Work>
  </rdf:RDF>
 </metadata>
 <defs>
  <style type="text/css">*{stroke-linecap:butt;stroke-linejoin:round;}</style>
 </defs>
 <g id="figure_1">
  <g id="patch_1">
   <path d="M 0 720 
L 720 720 
L 720 0 
L 0 0 
z
" style="fill:none;"/>
  </g>
  <g id="axes_1">
   <g id="patch_2">
    <path clip-path="url(#p83c33b3bc4)" d="M 198.280124 144.664274 
L 540.277311 144.796347 
L 540.276157 146.622915 
L 540.212325 290.674959 
L 540.210478 431.216024 
L 540.139736 571.735726 
L 529.838976 571.732977 
L 231.977755 571.731421 
L 231.603724 571.731423 
L 231.182016 570.759439 
L 222.495441 548.530558 
L 217.277528 532.063834 
L 215.793834 527.381603 
L 210.674266 509.623679 
L 207.144503 494.191008 
L 204.406588 478.878103 
L 202.061006 462.835081 
L 200.489447 453.986832 
L 199.326942 446.859923 
L 198.954653 439.453102 
L 198.580082 431.856622 
L 198.229912 416.379888 
L 197.906904 392.12561 
L 197.804338 287.783163 
L 197.722689 204.791209 
L 197.767731 199.927786 
L 197.812774 195.064398 
L 197.857818 190.200941 
L 197.903374 185.337554 
L 197.948419 180.474237 
L 197.993464 175.61085 
L 198.038509 170.747463 
L 198.083555 165.884077 
L 198.128602 161.020691 
L 198.173648 156.157479 
L 198.218696 151.294093 
L 198.263744 146.430708 
L 198.280124 144.664274 
" style="fill:#1a1a1a;stroke:#ffffff;stroke-linejoin:miter;stroke-width:4;"/>
   </g>
  </g>
 </g>
 <defs>
  <clipPath id="p83c33b3bc4">
   <rect height="543.6" width="558" x="90" y="86.4"/>
  </clipPath>
 </defs>
</svg>
