<?xml version="1.0" encoding="utf-8" standalone="no"?>
<!DOCTYPE svg PUBLIC "-//W3C//DTD SVG 1.1//EN"
  "http://www.w3.org/Graphics/SVG/1.1/DTD/svg11.dtd">
<!-- Created with matplotlib (https://matplotlib.org/) -->
<svg height="720pt" version="1.1" viewBox="0 0 720 720" width="720pt" xmlns="http://www.w3.org/2000/svg" xmlns:xlink="http://www.w3.org/1999/xlink">
 <metadata>
  <rdf:RDF xmlns:cc="http://creativecommons.org/ns#" xmlns:dc="http://purl.org/dc/elements/1.1/" xmlns:rdf="http://www.w3.org/1999/02/22-rdf-syntax-ns#">
   <cc:Work>
    <dc:type rdf:resource="http://purl.org/dc/dcmitype/StillImage"/>
    <dc:date>2021-05-28T08:56:49.204600</dc:date>
    <dc:format>image/svg+xml</dc:format>
    <dc:creator>
     <cc:Agent>
      <dc:title>Matplotlib v3.3.3, https://matplotlib.org/</dc:title>
     </cc:Agent>
    </dc:creator>
   </cc:Work>
  </rdf:RDF>
 </metadata>
 <defs>
  <style type="text/css">*{stroke-linecap:butt;stroke-linejoin:round;}</style>
 </defs>
 <g id="figure_1">
  <g id="patch_1">
   <path d="M 0 720 
L 720 720 
L 720 0 
L 0 0 
z
" style="fill:none;"/>
  </g>
  <g id="axes_1">
   <g id="patch_2">
    <path clip-path="url(#p34080781ba)" d="M 404.057862 133.300033 
L 430.192103 133.325669 
L 435.370573 133.318878 
L 435.650015 133.315612 
L 435.6488 133.925613 
L 435.618883 134.447613 
L 435.607716 136.276573 
L 435.608421 137.864497 
L 435.558415 138.488224 
L 435.5501 140.72135 
L 435.531307 143.542627 
L 435.512359 146.055588 
L 435.49408 150.03313 
L 435.475101 151.838378 
L 435.456092 154.212571 
L 435.436793 155.893009 
L 435.377276 157.326798 
L 435.297462 158.236412 
L 435.343417 158.930876 
L 435.35086 159.99292 
L 435.410011 161.120264 
L 435.351726 161.943263 
L 435.462675 165.847128 
L 435.416279 168.180709 
L 435.432665 172.092672 
L 435.433992 175.31924 
L 435.434598 176.683351 
L 435.346455 177.475617 
L 435.350633 186.880342 
L 433.648513 189.291808 
L 441.404102 193.267818 
L 442.923065 194.905922 
L 443.245396 195.33788 
L 443.563942 195.975836 
L 443.786957 196.622719 
L 443.935846 197.516985 
L 443.911531 198.525466 
L 443.887512 200.218938 
L 443.86365 202.273931 
L 443.864941 205.261275 
L 443.866166 208.096411 
L 443.867334 210.798338 
L 443.864166 211.940906 
L 443.864996 213.862698 
L 443.840962 215.518118 
L 443.816977 217.287708 
L 443.842417 218.886024 
L 443.94162 219.399742 
L 444.090298 219.818318 
L 444.28849 220.312985 
L 444.585671 220.788614 
L 444.932292 221.169074 
L 445.377895 221.511456 
L 445.947227 221.853808 
L 446.665046 222.177096 
L 447.53132 222.443269 
L 448.59557 222.709393 
L 449.412335 222.956554 
L 450.179603 223.165662 
L 451.045864 223.450863 
L 451.588169 223.731675 
L 452.01584 223.006473 
L 452.595351 222.449152 
L 453.203823 221.891824 
L 453.928315 221.468194 
L 454.942709 221.13363 
L 455.899188 220.977395 
L 457.667351 220.932388 
L 463.292633 221.238765 
L 472.868567 221.171367 
L 472.484599 242.851144 
L 472.547605 249.344838 
L 474.400294 249.351573 
L 481.405057 249.357462 
L 481.905937 249.362596 
L 481.931804 265.946024 
L 491.135052 265.944103 
L 500.569705 266.009325 
L 509.820949 266.073354 
L 509.570364 293.788668 
L 509.581254 295.232838 
L 511.636606 295.23338 
L 522.96277 295.241614 
L 522.964362 295.241614 
L 523.384591 295.216488 
L 523.796083 295.140959 
L 524.187129 295.016876 
L 524.548072 294.8473 
L 524.870015 294.636431 
L 525.145054 294.389436 
L 525.36638 294.112416 
L 525.528564 293.812209 
L 525.627575 293.496181 
L 525.660994 293.172162 
L 525.660691 293.949974 
L 525.65903 295.243487 
L 525.648238 305.103792 
L 593.234656 305.167063 
L 596.974289 301.897474 
L 599.241063 299.915627 
L 601.120356 298.272523 
L 601.090411 300.82816 
L 602.180553 299.875365 
L 604.877184 299.875039 
L 604.77378 332.836229 
L 604.730497 337.627865 
L 604.560473 341.239696 
L 604.286529 344.566354 
L 604.014764 346.593517 
L 603.590083 349.184279 
L 602.924017 352.267424 
L 605.642362 352.267097 
L 610.773623 352.273699 
L 610.511704 352.716656 
L 610.257803 353.188382 
L 610.029712 353.584014 
L 609.658895 354.042857 
L 609.108917 354.56558 
L 608.557145 354.956902 
L 608.165779 355.250357 
L 607.718512 355.406137 
L 607.045883 355.529342 
L 606.420511 355.810852 
L 605.868581 356.19538 
L 605.236519 356.628964 
L 604.765403 357.005872 
L 604.188544 357.521806 
L 603.889008 357.952511 
L 603.671016 358.410114 
L 603.488751 358.86051 
L 603.316048 359.359149 
L 603.206111 359.82965 
L 603.06949 360.328013 
L 602.92349 360.79879 
L 602.787227 361.317946 
L 602.650427 361.802448 
L 602.531473 362.279881 
L 602.447542 362.688 
L 602.373532 363.17195 
L 602.256666 363.4844 
L 602.221355 363.788413 
L 602.114264 364.244372 
L 601.881421 364.714208 
L 601.513797 365.16354 
L 601.343912 365.591919 
L 601.254869 366.0756 
L 601.147749 366.469452 
L 601.040458 366.807994 
L 600.771527 367.243316 
L 600.52984 367.706358 
L 600.260913 368.155543 
L 599.884458 368.653243 
L 599.6426 369.136943 
L 599.418774 369.579191 
L 599.23988 370.049021 
L 599.060802 370.484468 
L 598.890932 370.974954 
L 598.738889 371.368812 
L 598.667292 371.534756 
L 598.542338 371.976855 
L 598.363256 372.39151 
L 598.193382 372.854408 
L 598.023327 373.29665 
L 597.745748 373.801147 
L 597.539794 374.264186 
L 597.280078 374.76175 
L 597.04725 375.273037 
L 596.967229 375.742855 
L 596.950148 376.17801 
L 596.861104 376.634104 
L 596.717924 377.027961 
L 596.620036 377.48392 
L 596.440959 377.90537 
L 596.253039 378.333888 
L 596.011185 378.810657 
L 595.733424 379.273705 
L 595.500584 379.715942 
L 595.258731 380.192847 
L 595.214778 380.6764 
L 595.242465 381.118481 
L 595.216389 381.581361 
L 595.028483 382.065055 
L 594.831547 382.500369 
L 594.625787 383.025515 
L 594.339193 383.523083 
L 594.14207 383.910017 
L 593.990253 384.42143 
L 593.730536 384.884341 
L 593.560473 385.264477 
L 593.444559 385.768818 
L 593.328258 386.121223 
L 593.158375 386.597984 
L 593.006549 387.060881 
L 592.809813 387.592957 
L 592.612886 388.055995 
L 592.415965 388.546485 
L 592.228051 388.975004 
L 592.147822 389.285955 
L 592.049767 389.762571 
L 591.951893 390.259979 
L 591.773017 390.764465 
L 591.61199 391.206706 
L 591.514093 391.676527 
L 591.469972 392.104755 
L 591.407812 392.540053 
L 591.363701 393.016661 
L 591.194031 393.555665 
L 590.98808 393.990981 
L 590.584593 394.523221 
L 590.351761 394.965471 
L 590.181718 395.414645 
L 590.011856 395.884475 
L 589.860051 396.423477 
L 589.752968 396.858644 
L 589.637054 397.342329 
L 589.485246 397.867469 
L 589.360309 398.337307 
L 589.226358 398.834721 
L 589.119461 399.304543 
L 588.994537 399.829679 
L 588.968637 400.347735 
L 588.996539 400.941888 
L 589.015561 401.453008 
L 589.007154 401.819125 
L 588.953998 402.171522 
L 588.667228 402.620711 
L 588.766907 403.09037 
L 588.785762 403.566984 
L 588.678679 403.988426 
L 588.706348 404.41678 
L 588.707337 404.879522 
L 588.537294 405.314833 
L 588.502203 405.777715 
L 588.655988 406.261106 
L 588.656805 406.744776 
L 588.657617 407.207517 
L 588.694494 407.684115 
L 588.479739 408.188607 
L 588.705142 408.630525 
L 588.688081 409.127923 
L 588.581182 409.576953 
L 588.54609 410.032904 
L 588.51101 410.54418 
L 588.547912 411.055296 
L 588.575574 411.448997 
L 588.630513 411.946385 
L 588.703108 412.388473 
L 588.740015 412.920247 
L 588.498169 413.355705 
L 588.400295 413.825526 
L 588.562938 414.308902 
L 588.51882 414.813235 
L 588.465873 415.303707 
L 588.412747 415.787248 
L 588.404724 416.284645 
L 588.333908 416.823513 
L 588.289806 417.320915 
L 588.263728 417.749277 
L 588.246504 418.225883 
L 588.301258 418.688752 
L 588.221413 419.186159 
L 588.195164 419.642122 
L 588.18713 420.091139 
L 588.214987 420.567738 
L 588.260723 421.037404 
L 588.225633 421.500286 
L 588.217612 422.004614 
L 588.290392 422.488002 
L 588.210196 422.916372 
L 588.130181 423.365534 
L 588.256893 423.807479 
L 588.176894 424.325678 
L 588.321678 424.82985 
L 588.394251 425.182094 
L 588.377025 425.651782 
L 588.422945 426.156103 
L 588.504748 426.653352 
L 588.550283 427.019462 
L 588.614056 427.482195 
L 588.686835 427.965719 
L 588.750583 428.393933 
L 588.832402 428.891332 
L 588.923051 429.326338 
L 588.959342 429.4852 
L 589.086064 429.975649 
L 589.230651 430.479834 
L 589.348365 430.949491 
L 589.511174 431.481248 
L 589.682827 432.019935 
L 589.773462 432.399765 
L 589.891162 432.883283 
L 589.900988 433.32538 
L 589.892762 433.712154 
L 589.920235 434.05761 
L 590.074033 434.554849 
L 590.110917 435.072897 
L 590.093881 435.604828 
L 590.157637 436.081423 
L 590.21257 436.56495 
L 590.204371 437.069142 
L 590.205367 437.566538 
L 590.21519 438.077658 
L 590.270125 438.568116 
L 590.32505 439.100037 
L 590.343911 439.611157 
L 590.362773 440.129207 
L 590.363549 440.516116 
L 590.37338 440.978856 
L 590.356333 441.462528 
L 590.366147 441.932213 
L 590.411876 442.381222 
L 590.457602 442.823301 
L 590.575299 443.306683 
L 590.693181 443.824721 
L 590.720872 444.280664 
L 590.730279 444.432599 
L 590.767166 444.971318 
L 590.78603 445.496299 
L 590.831918 445.952239 
L 590.814687 446.401257 
L 590.788622 446.891726 
L 590.843371 447.347665 
L 590.898294 447.872519 
L 590.917149 448.362982 
L 590.909104 448.846517 
L 590.883041 449.343917 
L 590.830104 449.875974 
L 590.821695 450.235161 
L 590.813666 450.711765 
L 590.823279 451.070949 
L 590.851146 451.609805 
L 590.905873 451.968983 
L 590.951589 452.445593 
L 590.997494 452.977502 
L 591.016348 453.461048 
L 591.02635 453.98603 
L 591.143856 454.414251 
L 591.288613 454.918423 
L 591.451226 455.394869 
L 591.551063 455.899061 
L 591.551886 456.417127 
L 591.714678 456.907571 
L 591.931213 457.390941 
L 592.102669 457.798362 
L 592.19945 458.081254 
L 592.256238 458.247222 
L 592.463772 458.737538 
L 592.626378 459.193327 
L 592.834093 459.704436 
L 592.969428 459.99443 
L 593.17679 460.429435 
L 593.41117 460.850696 
L 593.663611 461.292626 
L 593.951949 461.720675 
L 594.240474 462.197119 
L 594.42112 462.666769 
L 594.592762 463.20547 
L 594.890298 463.730158 
L 595.205699 464.192723 
L 595.314382 464.731555 
L 595.584866 465.208001 
L 595.945167 465.663644 
L 596.287439 466.091687 
L 596.548895 466.526685 
L 596.738181 466.892642 
L 596.774845 467.237974 
L 596.847632 467.721499 
L 596.830184 468.080686 
L 596.711863 468.527393 
L 596.687408 468.6197 
L 596.544416 468.979039 
L 596.383413 469.462594 
L 596.438323 469.953066 
L 596.726662 470.40884 
L 597.149917 470.87127 
L 597.492 471.250946 
L 597.843279 471.720439 
L 598.167703 472.224467 
L 598.465234 472.673323 
L 598.69061 473.115244 
L 598.781422 473.626354 
L 598.584519 474.110063 
L 598.504093 474.289733 
L 598.217348 474.745852 
L 598.002396 475.174387 
L 597.823719 475.706324 
L 597.770591 476.18307 
L 597.753516 476.639033 
L 597.682345 477.094988 
L 597.557588 477.620124 
L 597.504459 478.096748 
L 597.37972 478.621883 
L 597.092993 479.15397 
L 596.743479 479.644765 
L 596.645421 480.066205 
L 596.691125 480.515093 
L 596.69191 480.957313 
L 596.44106 481.378773 
L 596.127439 481.835031 
L 595.912685 482.34633 
L 595.688916 482.871479 
L 595.554953 483.258405 
L 595.492596 483.576298 
L 595.394537 484.066776 
L 595.063093 484.6058 
L 594.758316 485.062057 
L 594.426844 485.552701 
L 594.059302 486.064156 
L 593.682741 486.575599 
L 593.270275 487.059458 
L 592.749958 487.55733 
L 592.364366 488.006532 
L 592.041923 488.524912 
L 591.970346 488.725375 
L 591.836406 489.201996 
L 591.774423 489.678743 
L 591.568691 490.176303 
L 591.353743 490.584046 
L 591.147825 491.04002 
L 590.968959 491.475469 
L 590.82617 491.993555 
L 590.665178 492.484177 
L 590.495332 492.919489 
L 590.08268 493.334312 
L 589.454484 493.769957 
L 588.961222 494.30914 
L 588.710384 494.737669 
L 588.486606 495.18685 
L 588.262645 495.601526 
L 587.957874 496.043788 
L 587.73409 496.458451 
L 587.474436 496.997468 
L 587.25067 497.488112 
L 587.009028 497.992608 
L 586.785269 498.510828 
L 586.606419 498.994522 
L 586.409689 499.471288 
L 586.104925 499.927426 
L 585.656591 500.404498 
L 585.378692 500.798376 
L 585.11 501.240769 
L 584.814071 501.662373 
L 584.175626 502.16407 
L 581.505497 505.588605 
L 581.2278 506.072314 
L 580.554474 506.35602 
L 579.45111 507.427616 
L 579.523896 507.945672 
L 579.398982 508.401636 
L 579.193267 508.91306 
L 578.978323 509.355311 
L 578.81751 509.804349 
L 578.692599 510.343363 
L 578.585726 510.813186 
L 578.514567 511.255281 
L 578.452593 511.725112 
L 578.34572 512.263974 
L 578.202964 512.789114 
L 578.122557 513.010236 
L 577.889585 513.41104 
L 577.692871 513.908614 
L 577.594641 514.281675 
L 577.541484 514.647799 
L 577.506202 515.000195 
L 577.444058 515.490683 
L 577.175392 515.995185 
L 576.942607 516.430508 
L 576.718844 516.879691 
L 576.450158 517.370331 
L 575.974957 517.895792 
L 575.607449 518.427896 
L 575.311715 518.870295 
L 574.998128 519.340285 
L 574.711423 519.823997 
L 574.469622 520.259458 
L 574.174066 520.77076 
L 573.806363 521.21317 
L 573.277253 521.752365 
L 572.936592 522.208634 
L 572.569072 522.671701 
L 572.210388 523.10718 
L 571.564188 523.529111 
L 571.088997 524.061368 
L 570.919156 524.510545 
L 570.677377 525.014908 
L 570.435586 525.471027 
L 570.121983 525.927156 
L 569.574824 526.459561 
L 569.163798 526.883632 
L 568.974659 527.159811 
L 568.67751 527.574081 
L 568.128408 528.105671 
L 567.624383 528.575012 
L 567.19199 529.106721 
L 566.912713 529.555507 
L 566.570489 530.025096 
L 566.147294 530.556655 
L 565.768992 531.005456 
L 565.264983 531.523179 
L 564.635059 531.992405 
L 564.032178 532.413369 
L 563.384231 532.930978 
L 562.718413 533.400211 
L 562.160312 533.904068 
L 561.683337 534.325162 
L 561.071458 534.808249 
L 560.567431 535.236266 
L 560.072423 535.664159 
L 559.514468 536.105924 
L 558.96553 536.540622 
L 558.353655 537.023832 
L 557.777845 537.410153 
L 557.13006 537.837923 
L 556.473252 538.24505 
L 555.771519 538.6106 
L 555.411742 538.796829 
L 555.042929 538.983072 
L 554.602154 539.196902 
L 554.098623 539.410619 
L 553.459836 539.748708 
L 552.85712 540.079847 
L 552.434395 540.335138 
L 551.885613 540.604026 
L 551.274039 540.866143 
L 550.752472 541.072921 
L 550.086957 541.307323 
L 549.466377 541.548501 
L 548.935776 541.75543 
L 548.279281 541.927576 
L 547.712929 542.023875 
L 547.029554 542.182179 
L 546.391092 542.340461 
L 545.716711 542.478093 
L 545.015626 542.539775 
L 544.503203 542.559962 
L 543.856038 542.580172 
L 543.325754 542.593581 
L 542.669561 542.579275 
L 542.04041 542.523379 
L 541.438314 542.467628 
L 540.854077 542.41186 
L 540.206884 542.397554 
L 539.604332 542.597433 
L 538.938541 543.073596 
L 538.398488 543.591336 
L 538.011512 543.922581 
L 537.606505 544.329946 
L 537.03038 544.847558 
L 536.895496 544.964864 
L 536.274623 545.441157 
L 535.590801 545.917325 
L 534.924841 546.400299 
L 534.375931 546.849005 
L 533.809153 547.269978 
L 533.143351 547.683901 
L 532.612622 548.021982 
L 532.036807 548.373933 
L 531.398071 548.815577 
L 530.723254 549.229504 
L 530.16548 549.533072 
L 529.517719 549.94713 
L 528.933064 550.292017 
L 528.384294 550.602502 
L 527.691608 550.974984 
L 527.061892 551.409697 
L 526.521843 551.892911 
L 525.95493 552.417579 
L 525.432759 552.955979 
L 524.928786 553.446118 
L 524.397745 553.943193 
L 523.848675 554.405616 
L 523.200782 554.937097 
L 522.588954 555.440847 
L 522.093984 555.868878 
L 521.571968 556.324367 
L 521.058976 556.793716 
L 520.689903 557.214942 
L 520.248869 557.649759 
L 519.825857 558.043259 
L 519.205018 558.554093 
L 518.539081 559.037049 
L 517.873325 559.527086 
L 517.198537 559.975675 
L 516.568682 560.479431 
L 515.974727 560.941868 
L 515.506811 561.349104 
L 514.9399 561.832328 
L 514.346106 562.294629 
L 513.752139 562.763997 
L 513.257181 563.198841 
L 512.618467 563.63355 
L 511.96172 564.020032 
L 511.341022 564.392509 
L 510.711452 564.668363 
L 510.153706 564.992584 
L 509.658754 565.434483 
L 509.208565 565.952205 
L 508.713625 566.476881 
L 508.578415 566.649488 
L 508.047424 567.181089 
L 507.372968 567.47068 
L 506.725076 567.932996 
L 506.086391 568.374653 
L 505.510462 568.823365 
L 504.91669 569.313394 
L 504.331759 569.803422 
L 503.684606 569.782191 
L 503.171632 570.189455 
L 503.350879 570.659363 
L 502.85579 571.190959 
L 502.225778 571.694723 
L 501.766893 572.095168 
L 501.280984 572.530001 
L 500.713935 573.068408 
L 500.246038 573.482581 
L 500.058093 573.673207 
L 488.012963 572.289176 
L 481.390567 571.937567 
L 474.047072 571.989678 
L 468.015051 572.394582 
L 455.155887 574.263546 
L 444.428471 577.284734 
L 435.651999 580.749413 
L 428.131459 584.648293 
L 422.493382 575.149445 
L 420.788696 572.204806 
L 419.65146 569.927653 
L 394.69596 509.881936 
L 387.519244 492.582817 
L 371.085602 453.01011 
L 367.407967 444.106666 
L 366.524583 442.101518 
L 364.552725 437.259334 
L 360.732721 428.110385 
L 352.476511 408.107697 
L 347.916743 397.216441 
L 341.333549 381.369928 
L 338.901756 375.347379 
L 336.804025 369.74006 
L 335.715508 366.690627 
L 334.687451 363.515873 
L 333.781037 360.577639 
L 332.237261 355.26534 
L 331.039452 350.735124 
L 330.119328 346.893623 
L 329.216548 342.671922 
L 328.265537 337.763343 
L 327.858358 335.742458 
L 327.404987 333.060256 
L 326.742172 329.441327 
L 318.44467 283.620444 
L 317.962731 281.342371 
L 317.484765 279.433797 
L 316.76813 277.091529 
L 316.171126 275.443288 
L 315.39523 273.686664 
L 314.201822 271.38795 
L 313.306893 269.935026 
L 311.934853 267.940035 
L 310.533035 266.031816 
L 308.92271 264.253813 
L 307.401913 262.714379 
L 305.702304 261.153311 
L 303.972959 259.744097 
L 302.064805 258.29156 
L 299.828786 256.795783 
L 297.741941 255.58192 
L 295.327205 254.259737 
L 292.163654 252.822656 
L 289.721107 251.825079 
L 287.086574 250.927427 
L 284.205107 250.069818 
L 281.927471 249.511545 
L 279.265708 248.953414 
L 276.549129 248.515147 
L 273.88752 248.196674 
L 271.747297 248.017799 
L 268.674258 247.899208 
L 265.870774 247.87358 
L 262.370595 247.920908 
L 257.010022 248.083766 
L 240.041417 248.561391 
L 239.746984 249.445765 
L 238.974112 251.585505 
L 237.742508 253.946008 
L 235.369786 257.397833 
L 233.105923 260.111678 
L 229.380595 264.568566 
L 221.977058 272.625616 
L 217.735783 277.325392 
L 214.268567 281.053436 
L 204.967502 276.177417 
L 204.514929 275.940165 
L 203.86182 275.625636 
L 203.363678 275.387617 
L 202.732707 275.107108 
L 201.641185 274.684251 
L 200.744614 274.369836 
L 199.549173 273.936429 
L 198.597254 273.605026 
L 197.523572 273.222623 
L 196.350284 272.823251 
L 195.121628 272.381357 
L 194.169732 272.083987 
L 193.284183 271.735529 
L 192.343332 271.404126 
L 191.456219 271.093383 
L 190.747815 270.838439 
L 189.076401 270.243598 
L 187.737057 269.784748 
L 186.619111 269.410896 
L 185.877513 269.172985 
L 185.357246 268.977534 
L 184.726321 268.748093 
L 184.017887 268.484659 
L 183.265207 268.238248 
L 182.567873 268.008839 
L 181.914812 267.796424 
L 181.173198 267.541515 
L 180.197 267.221445 
L 179.36662 266.925429 
L 178.602842 266.653504 
L 178.016192 266.449581 
L 177.451662 266.254141 
L 176.787528 266.02472 
L 176.045885 265.761307 
L 175.304266 265.506388 
L 174.651221 265.319513 
L 173.378307 264.911705 
L 172.516977 264.653869 
L 172.020617 264.498327 
L 171.256855 264.251942 
L 170.758762 264.099023 
L 169.924063 263.852171 
L 155.002126 258.437748 
L 149.138524 256.919114 
L 144.547836 255.962192 
L 139.821028 255.269968 
L 135.582216 254.91377 
L 131.120716 254.776991 
L 127.500168 254.848058 
L 127.297182 253.333053 
L 127.226377 251.87844 
L 127.364521 250.879094 
L 127.641815 250.018796 
L 128.040898 249.310248 
L 128.857047 248.563514 
L 129.777601 247.993832 
L 135.034073 245.475561 
L 137.57635 246.185748 
L 148.669756 249.091916 
L 149.32592 249.072628 
L 149.325955 248.947137 
L 180.882759 248.049395 
L 192.227947 247.726437 
L 192.183021 246.795392 
L 229.622982 245.730563 
L 230.700488 245.700034 
L 232.938035 245.699078 
L 233.56147 244.605953 
L 235.291261 241.770723 
L 234.83594 241.639082 
L 234.331958 241.466706 
L 233.606497 241.202 
L 232.857194 240.873349 
L 232.061769 240.467868 
L 231.371852 240.043234 
L 230.867715 239.71119 
L 230.231249 239.204287 
L 229.689913 238.7339 
L 229.120854 238.166275 
L 228.740018 237.691252 
L 228.347264 237.152266 
L 227.906805 236.40767 
L 227.63956 235.840132 
L 227.43109 235.282787 
L 227.270137 234.702577 
L 227.162851 234.138108 
L 227.126844 233.699492 
L 227.114479 233.055235 
L 227.113992 232.254036 
L 227.105995 229.626177 
L 227.098859 227.801923 
L 227.115933 226.778424 
L 227.096181 224.30581 
L 227.112456 222.321836 
L 227.111698 221.323323 
L 227.105179 220.546575 
L 227.115943 219.21945 
L 227.115337 218.401562 
L 227.113293 218.102011 
L 227.115043 218.004529 
L 238.209398 218.089644 
L 238.050088 211.668386 
L 237.896661 205.484069 
L 246.529617 205.591408 
L 254.980367 205.696534 
L 257.329556 204.817446 
L 267.65647 193.369424 
L 270.232653 190.913094 
L 274.904862 185.782603 
L 276.867214 183.648886 
L 278.455794 181.898775 
L 279.388177 180.846269 
L 291.233542 181.004452 
L 291.291495 187.806723 
L 292.379656 186.603372 
L 293.079674 185.798712 
L 294.814995 183.727408 
L 295.768345 182.505888 
L 297.505706 180.058932 
L 299.203521 177.419872 
L 300.153418 175.77924 
L 301.711577 172.920214 
L 302.902877 170.414014 
L 303.653424 168.723952 
L 304.38144 166.875262 
L 304.990676 165.226594 
L 305.606625 163.273916 
L 305.965239 161.82559 
L 306.469506 159.683074 
L 306.983734 157.114099 
L 307.289408 154.716749 
L 307.517738 152.15897 
L 307.615411 149.97048 
L 307.681193 148.615083 
L 307.688727 146.462409 
L 307.624015 144.101984 
L 307.485193 142.117813 
L 307.25431 139.787279 
L 306.736215 136.751232 
L 306.046055 133.918813 
L 305.488753 132.418942 
L 305.182078 131.798223 
L 325.779655 131.781984 
L 361.600519 131.751707 
L 372.044722 131.766918 
L 396.434749 131.759695 
L 401.140757 131.758357 
L 404.060528 131.768017 
L 404.057862 133.300033 
" style="fill:#1a1a1a;stroke:#ffffff;stroke-linejoin:miter;stroke-width:4;"/>
   </g>
  </g>
 </g>
 <defs>
  <clipPath id="p34080781ba">
   <rect height="543.6" width="558" x="90" y="86.4"/>
  </clipPath>
 </defs>
</svg>
