<?xml version="1.0" encoding="utf-8" standalone="no"?>
<!DOCTYPE svg PUBLIC "-//W3C//DTD SVG 1.1//EN"
  "http://www.w3.org/Graphics/SVG/1.1/DTD/svg11.dtd">
<!-- Created with matplotlib (https://matplotlib.org/) -->
<svg height="720pt" version="1.1" viewBox="0 0 720 720" width="720pt" xmlns="http://www.w3.org/2000/svg" xmlns:xlink="http://www.w3.org/1999/xlink">
 <metadata>
  <rdf:RDF xmlns:cc="http://creativecommons.org/ns#" xmlns:dc="http://purl.org/dc/elements/1.1/" xmlns:rdf="http://www.w3.org/1999/02/22-rdf-syntax-ns#">
   <cc:Work>
    <dc:type rdf:resource="http://purl.org/dc/dcmitype/StillImage"/>
    <dc:date>2021-05-28T08:56:49.067667</dc:date>
    <dc:format>image/svg+xml</dc:format>
    <dc:creator>
     <cc:Agent>
      <dc:title>Matplotlib v3.3.3, https://matplotlib.org/</dc:title>
     </cc:Agent>
    </dc:creator>
   </cc:Work>
  </rdf:RDF>
 </metadata>
 <defs>
  <style type="text/css">*{stroke-linecap:butt;stroke-linejoin:round;}</style>
 </defs>
 <g id="figure_1">
  <g id="patch_1">
   <path d="M 0 720 
L 720 720 
L 720 0 
L 0 0 
z
" style="fill:none;"/>
  </g>
  <g id="axes_1">
   <g id="patch_2">
    <path clip-path="url(#p2cc583a3a8)" d="M 469.891778 302.930088 
L 382.87682 391.288429 
L 379.971765 394.233783 
L 339.562706 435.22556 
L 336.356528 438.452124 
L 335.261116 439.65954 
L 332.540805 442.846607 
L 331.355702 444.344114 
L 327.956159 448.499197 
L 324.174122 452.569868 
L 315.046475 461.841453 
L 263.991563 513.523651 
L 260.033128 517.328082 
L 255.183375 521.488701 
L 251.973325 524.021859 
L 246.088901 528.083007 
L 242.129981 530.300751 
L 237.371845 532.61359 
L 232.928293 534.403856 
L 228.370082 535.954239 
L 224.321323 537.043667 
L 219.720389 538.022962 
L 212.681115 539.03267 
L 207.558591 539.542288 
L 199.673005 540.122068 
L 158.947807 542.693545 
L 155.368846 538.968639 
L 144.347028 527.497213 
L 146.984213 515.973352 
L 149.92929 503.104871 
L 153.657805 486.813507 
L 156.977992 472.306686 
L 163.476851 453.509468 
L 172.763007 455.974369 
L 175.973146 443.567628 
L 186.927236 401.268877 
L 193.450762 376.050374 
L 194.445815 372.214543 
L 195.064431 369.62847 
L 195.542843 369.63004 
L 195.271434 366.95132 
L 193.698633 355.174099 
L 193.022584 341.079279 
L 192.469706 340.296515 
L 192.08937 325.939283 
L 193.356233 313.674272 
L 189.480587 302.973681 
L 185.320312 288.607889 
L 197.762483 273.529663 
L 206.353542 261.865555 
L 214.055814 249.348177 
L 223.535693 233.701559 
L 232.719467 217.770546 
L 237.755613 206.106938 
L 257.310411 192.166626 
L 273.90292 185.622931 
L 293.40319 182.50201 
L 329.528946 177.610079 
L 354.504208 175.962782 
L 394.53023 174.038718 
L 431.859293 173.808946 
L 461.737003 173.706455 
L 501.339725 173.748676 
L 527.557818 174.213199 
L 573.504558 176.139285 
L 593.652972 177.346748 
L 469.891778 302.930088 
" style="fill:#1a1a1a;stroke:#ffffff;stroke-linejoin:miter;stroke-width:4;"/>
   </g>
  </g>
 </g>
 <defs>
  <clipPath id="p2cc583a3a8">
   <rect height="543.6" width="558" x="90" y="86.4"/>
  </clipPath>
 </defs>
</svg>
