<?xml version="1.0" encoding="utf-8" standalone="no"?>
<!DOCTYPE svg PUBLIC "-//W3C//DTD SVG 1.1//EN"
  "http://www.w3.org/Graphics/SVG/1.1/DTD/svg11.dtd">
<!-- Created with matplotlib (https://matplotlib.org/) -->
<svg height="720pt" version="1.1" viewBox="0 0 720 720" width="720pt" xmlns="http://www.w3.org/2000/svg" xmlns:xlink="http://www.w3.org/1999/xlink">
 <metadata>
  <rdf:RDF xmlns:cc="http://creativecommons.org/ns#" xmlns:dc="http://purl.org/dc/elements/1.1/" xmlns:rdf="http://www.w3.org/1999/02/22-rdf-syntax-ns#">
   <cc:Work>
    <dc:type rdf:resource="http://purl.org/dc/dcmitype/StillImage"/>
    <dc:date>2021-05-07T11:03:05.970665</dc:date>
    <dc:format>image/svg+xml</dc:format>
    <dc:creator>
     <cc:Agent>
      <dc:title>Matplotlib v3.3.3, https://matplotlib.org/</dc:title>
     </cc:Agent>
    </dc:creator>
   </cc:Work>
  </rdf:RDF>
 </metadata>
 <defs>
  <style type="text/css">*{stroke-linecap:butt;stroke-linejoin:round;}</style>
 </defs>
 <g id="figure_1">
  <g id="patch_1">
   <path d="M 0 720 
L 720 720 
L 720 0 
L 0 0 
z
" style="fill:none;"/>
  </g>
  <g id="axes_1">
   <g id="patch_2">
    <path clip-path="url(#p363f0c1a93)" d="M 604.335431 208.747822 
L 604.323505 264.050179 
L 604.330192 272.851884 
L 604.345504 300.485124 
L 604.343258 334.881768 
L 604.357445 362.709751 
L 604.364992 382.137728 
L 604.437312 397.931145 
L 604.400153 483.2663 
L 604.43779 506.129322 
L 593.640456 506.037899 
L 583.501046 505.940567 
L 573.717186 505.936885 
L 564.19327 505.933459 
L 554.441505 505.670574 
L 544.781713 505.410366 
L 535.758618 505.40767 
L 526.791001 505.405161 
L 499.839338 506.13154 
L 498.26909 506.173874 
L 496.282732 506.173423 
L 478.376943 506.169679 
L 456.022011 506.017474 
L 446.134846 506.48346 
L 435.770896 506.971639 
L 419.309885 507.543402 
L 416.290722 507.194011 
L 407.020751 507.240825 
L 361.611356 507.546607 
L 319.684941 507.835919 
L 318.113187 507.845264 
L 276.645864 507.827867 
L 276.440108 507.616313 
L 275.820704 506.159106 
L 275.370827 504.921876 
L 274.80419 503.519535 
L 274.323887 502.431656 
L 273.641133 500.975556 
L 272.958773 499.556756 
L 272.45548 498.19032 
L 272.111178 497.00689 
L 271.808689 495.74805 
L 271.496912 494.694198 
L 271.119894 493.325187 
L 270.892162 492.232525 
L 270.801871 491.285571 
L 270.530846 490.007694 
L 269.974551 488.586359 
L 269.344577 487.129489 
L 268.800087 485.912773 
L 268.170924 484.585888 
L 267.646507 483.201485 
L 267.016303 481.744288 
L 266.281349 480.3266 
L 265.515971 479.114306 
L 264.71871 477.846708 
L 263.954997 476.91294 
L 263.318999 476.200288 
L 262.67288 475.54324 
L 261.953063 474.8694 
L 261.349592 474.304591 
L 260.671777 473.629649 
L 259.91695 472.416995 
L 259.108916 471.112434 
L 258.473332 470.474058 
L 257.701346 469.856967 
L 257.177543 468.583851 
L 257.749293 467.456754 
L 258.388561 467.035021 
L 257.918796 465.946788 
L 257.179943 465.626521 
L 256.378135 465.289096 
L 255.638635 464.857223 
L 254.920062 464.387609 
L 254.13689 463.69618 
L 253.522834 463.131784 
L 253.300906 462.968923 
L 252.561613 462.592657 
L 251.834148 462.365408 
L 251.190502 462.098943 
L 250.557435 461.869486 
L 249.787716 461.624308 
L 249.080951 461.377988 
L 248.268792 461.096214 
L 247.69926 460.902989 
L 246.940745 460.769055 
L 246.139353 460.542922 
L 245.453056 460.203261 
L 244.766779 459.844603 
L 244.027691 459.468713 
L 243.605158 459.23524 
L 242.856345 458.970997 
L 242.138602 458.631748 
L 241.325815 458.275639 
L 240.54491 457.9375 
L 239.879956 457.616144 
L 239.193657 457.27616 
L 238.740074 457.099031 
L 238.074683 456.758679 
L 237.303938 456.364866 
L 236.544149 456.045031 
L 235.773592 455.68819 
L 235.162053 455.495716 
L 234.37184 455.343867 
L 233.694636 454.7806 
L 233.028427 454.272934 
L 232.32082 453.877689 
L 231.707173 453.387622 
L 231.041171 452.898627 
L 230.280335 452.429818 
L 229.551611 452.016607 
L 229.034448 451.803624 
L 228.294727 451.334448 
L 227.566419 450.976878 
L 226.837255 450.507702 
L 226.033787 449.946992 
L 225.326157 449.551755 
L 224.565964 449.157591 
L 223.753587 448.838879 
L 223.204748 448.607933 
L 222.381832 448.270557 
L 221.706503 448.004899 
L 221.019571 447.57229 
L 220.342587 447.009001 
L 219.559186 446.280317 
L 218.850717 445.755104 
L 218.204363 445.06117 
L 217.388847 444.258883 
L 216.754095 443.731864 
L 216.086184 442.963958 
L 215.258455 441.883115 
L 214.464682 441.210444 
L 213.787694 440.647163 
L 213.077987 439.936042 
L 212.452308 439.20437 
L 211.773854 438.39917 
L 211.201383 437.759732 
L 210.544883 437.121813 
L 209.866221 436.316579 
L 209.069931 435.235042 
L 208.359802 434.449217 
L 207.967447 433.973403 
L 207.26934 433.429204 
L 206.467092 433.035803 
L 205.707497 432.753306 
L 205.032808 432.580643 
L 204.452914 432.406129 
L 203.914647 432.174869 
L 203.386497 431.8693 
L 202.615109 431.400858 
L 201.854255 430.895077 
L 201.230702 430.479754 
L 200.596571 430.064397 
L 200.004693 429.666968 
L 199.412375 429.195231 
L 198.640585 428.652523 
L 197.816609 428.147897 
L 197.013563 427.66157 
L 196.36887 427.228284 
L 195.861459 426.884684 
L 195.090273 426.416654 
L 194.487206 425.907588 
L 193.672948 425.291321 
L 192.942551 424.636234 
L 192.116895 423.871357 
L 191.291051 423.088142 
L 190.549676 422.377459 
L 189.924211 421.664514 
L 189.299183 420.988542 
L 188.589901 420.351757 
L 187.913109 419.84418 
L 187.236547 419.355639 
L 186.600522 418.642701 
L 185.879001 417.726995 
L 185.582313 417.398322 
L 184.766184 416.50314 
L 184.067035 415.773017 
L 183.39954 415.060859 
L 182.890027 414.401335 
L 182.189617 413.466594 
L 181.41318 412.180065 
L 180.659348 411.134794 
L 179.852304 410.016327 
L 179.184597 409.285835 
L 178.580259 408.553863 
L 177.933061 407.748327 
L 177.242555 406.720247 
L 176.658495 405.894929 
L 175.872773 404.813067 
L 175.246877 404.025831 
L 174.450175 402.870032 
L 173.781224 401.934523 
L 172.964032 400.853406 
L 172.348503 400.047501 
L 171.530029 398.780434 
L 170.785695 397.567522 
L 169.999547 396.429992 
L 169.311764 395.848534 
L 168.633929 395.173696 
L 167.957353 394.684809 
L 167.269989 394.177991 
L 166.626117 393.874316 
L 165.926954 393.162882 
L 165.295696 392.467536 
L 164.496902 391.423029 
L 163.950128 390.937404 
L 163.203368 390.451106 
L 162.498615 389.983831 
L 161.783503 389.441886 
L 161.068781 388.416064 
L 160.502045 387.018662 
L 159.861397 385.583909 
L 159.146876 384.520753 
L 158.516201 383.700262 
L 157.84409 382.339462 
L 157.319172 380.979388 
L 156.731313 379.563328 
L 156.301029 378.445513 
L 155.755174 377.029441 
L 155.019721 375.799013 
L 154.463325 374.364277 
L 154.064872 372.967526 
L 153.60329 371.51446 
L 153.151887 370.414992 
L 152.353477 369.0169 
L 151.69131 368.028776 
L 151.008441 366.854342 
L 150.378336 365.400562 
L 149.979516 364.320115 
L 149.528472 362.923054 
L 149.140202 361.767931 
L 148.678416 360.612794 
L 148.037756 359.233729 
L 147.37618 357.799033 
L 146.851065 356.680523 
L 146.273531 355.357811 
L 145.66455 354.05301 
L 144.897603 352.71096 
L 144.130439 351.498821 
L 143.352929 350.138107 
L 142.775411 348.814997 
L 142.366195 347.585577 
L 142.072927 346.263511 
L 141.769092 344.866774 
L 141.570623 343.563346 
L 141.350646 342.483579 
L 141.004777 341.030851 
L 140.795193 340.155701 
L 140.554483 338.796282 
L 140.292891 337.511543 
L 139.999396 336.226448 
L 139.684819 335.090342 
L 139.317634 333.935584 
L 138.824361 332.538142 
L 138.530901 331.402029 
L 138.258719 330.042987 
L 137.975589 328.906871 
L 137.640096 327.733436 
L 137.535295 327.323498 
L 137.21015 326.13172 
L 136.927222 324.958268 
L 136.707651 323.654848 
L 136.498407 322.314454 
L 136.331615 320.881071 
L 136.217199 319.615356 
L 136.134074 318.628521 
L 135.966883 317.344119 
L 135.778782 316.059357 
L 135.590851 314.625981 
L 135.465869 313.304227 
L 135.446481 311.852492 
L 135.468728 310.605766 
L 135.43857 309.303016 
L 135.366178 308.018948 
L 135.294008 306.678875 
L 135.232175 305.394438 
L 135.201851 304.296308 
L 135.150374 303.04924 
L 135.057092 301.76518 
L 135.015992 300.760029 
L 134.964341 299.829189 
L 134.871059 298.545129 
L 134.788102 297.204693 
L 134.768123 296.237275 
L 134.759102 294.934518 
L 134.707841 293.594438 
L 134.635444 292.272667 
L 134.583978 291.137574 
L 134.574953 289.79748 
L 134.544785 288.420459 
L 134.525203 287.099037 
L 134.494096 286.615133 
L 134.442826 285.386698 
L 134.391567 284.065323 
L 134.298257 282.724891 
L 134.162745 281.496484 
L 134.0798 280.286361 
L 134.007411 279.039631 
L 133.88244 277.661873 
L 133.820434 276.712734 
L 133.768799 275.744924 
L 133.66473 274.47917 
L 133.592564 273.194736 
L 133.56221 272.022336 
L 133.658355 270.645602 
L 133.849103 269.34318 
L 134.060981 268.153091 
L 134.241194 266.869341 
L 134.326772 265.604255 
L 134.39145 264.245871 
L 134.434784 262.906126 
L 134.425547 261.715013 
L 134.447995 260.412611 
L 134.438944 259.035181 
L 134.450651 257.956108 
L 134.472696 256.951302 
L 134.526598 255.685861 
L 134.559611 254.439132 
L 134.624267 253.062042 
L 134.741328 251.722638 
L 134.795624 250.271282 
L 134.838798 249.173494 
L 134.829555 247.926376 
L 134.788857 246.623666 
L 134.737586 245.39523 
L 134.70742 244.036841 
L 134.729869 242.734074 
L 134.794523 241.338682 
L 134.91178 239.887305 
L 134.976054 238.808178 
L 135.061651 237.505792 
L 135.13686 236.07306 
L 135.211516 235.068237 
L 135.297289 233.672876 
L 135.435649 232.259157 
L 135.563273 230.938089 
L 135.775348 229.59902 
L 135.997599 228.352594 
L 136.314657 227.125537 
L 136.684501 225.80512 
L 137.043805 224.466406 
L 137.155878 224.083008 
L 182.586922 241.435453 
L 191.160612 243.311983 
L 201.61222 244.032125 
L 214.651594 243.143363 
L 267.63236 240.690778 
L 300.007506 241.279485 
L 343.208017 239.022968 
L 360.539225 237.670184 
L 374.302316 234.062234 
L 389.849677 226.169516 
L 402.216395 219.860512 
L 417.789465 212.239169 
L 427.398341 209.601693 
L 438.202555 209.229481 
L 491.533392 208.779979 
L 531.420011 208.554736 
L 604.335431 208.747822 
" style="stroke:#ffffff;stroke-linejoin:miter;stroke-width:2;"/>
   </g>
  </g>
 </g>
 <defs>
  <clipPath id="p363f0c1a93">
   <rect height="543.6" width="558" x="90" y="86.4"/>
  </clipPath>
 </defs>
</svg>
