<?xml version="1.0" encoding="utf-8" standalone="no"?>
<!DOCTYPE svg PUBLIC "-//W3C//DTD SVG 1.1//EN"
  "http://www.w3.org/Graphics/SVG/1.1/DTD/svg11.dtd">
<!-- Created with matplotlib (https://matplotlib.org/) -->
<svg height="720pt" version="1.1" viewBox="0 0 720 720" width="720pt" xmlns="http://www.w3.org/2000/svg" xmlns:xlink="http://www.w3.org/1999/xlink">
 <metadata>
  <rdf:RDF xmlns:cc="http://creativecommons.org/ns#" xmlns:dc="http://purl.org/dc/elements/1.1/" xmlns:rdf="http://www.w3.org/1999/02/22-rdf-syntax-ns#">
   <cc:Work>
    <dc:type rdf:resource="http://purl.org/dc/dcmitype/StillImage"/>
    <dc:date>2021-05-07T11:02:59.473528</dc:date>
    <dc:format>image/svg+xml</dc:format>
    <dc:creator>
     <cc:Agent>
      <dc:title>Matplotlib v3.3.3, https://matplotlib.org/</dc:title>
     </cc:Agent>
    </dc:creator>
   </cc:Work>
  </rdf:RDF>
 </metadata>
 <defs>
  <style type="text/css">*{stroke-linecap:butt;stroke-linejoin:round;}</style>
 </defs>
 <g id="figure_1">
  <g id="patch_1">
   <path d="M 0 720 
L 720 720 
L 720 0 
L 0 0 
z
" style="fill:none;"/>
  </g>
  <g id="axes_1">
   <g id="patch_2">
    <path clip-path="url(#p9b5581143d)" d="M 205.832236 541.545038 
L 142.568049 551.768481 
L 142.480892 505.831768 
L 142.535035 494.468006 
L 142.534527 431.181014 
L 142.482282 346.987906 
L 142.372306 164.679132 
L 549.08329 164.631519 
L 549.276156 289.107698 
L 549.385359 331.57687 
L 550.012271 344.629937 
L 551.240099 356.006686 
L 553.016047 368.417925 
L 555.889349 380.959065 
L 559.036969 393.500313 
L 568.814225 427.069885 
L 582.096834 473.190605 
L 595.627694 520.227161 
L 549.954264 531.742888 
L 543.181905 532.277592 
L 533.390958 532.426249 
L 458.709275 532.688047 
L 346.492412 532.868891 
L 298.47966 533.024322 
L 272.882382 533.739375 
L 249.508945 535.677713 
L 225.921495 539.038887 
L 205.832236 541.545038 
" style="stroke:#ffffff;stroke-linejoin:miter;stroke-width:2;"/>
   </g>
  </g>
 </g>
 <defs>
  <clipPath id="p9b5581143d">
   <rect height="543.6" width="558" x="90" y="86.4"/>
  </clipPath>
 </defs>
</svg>
