<?xml version="1.0" encoding="utf-8" standalone="no"?>
<!DOCTYPE svg PUBLIC "-//W3C//DTD SVG 1.1//EN"
  "http://www.w3.org/Graphics/SVG/1.1/DTD/svg11.dtd">
<!-- Created with matplotlib (https://matplotlib.org/) -->
<svg height="720pt" version="1.1" viewBox="0 0 720 720" width="720pt" xmlns="http://www.w3.org/2000/svg" xmlns:xlink="http://www.w3.org/1999/xlink">
 <metadata>
  <rdf:RDF xmlns:cc="http://creativecommons.org/ns#" xmlns:dc="http://purl.org/dc/elements/1.1/" xmlns:rdf="http://www.w3.org/1999/02/22-rdf-syntax-ns#">
   <cc:Work>
    <dc:type rdf:resource="http://purl.org/dc/dcmitype/StillImage"/>
    <dc:date>2021-05-28T08:56:49.544444</dc:date>
    <dc:format>image/svg+xml</dc:format>
    <dc:creator>
     <cc:Agent>
      <dc:title>Matplotlib v3.3.3, https://matplotlib.org/</dc:title>
     </cc:Agent>
    </dc:creator>
   </cc:Work>
  </rdf:RDF>
 </metadata>
 <defs>
  <style type="text/css">*{stroke-linecap:butt;stroke-linejoin:round;}</style>
 </defs>
 <g id="figure_1">
  <g id="patch_1">
   <path d="M 0 720 
L 720 720 
L 720 0 
L 0 0 
z
" style="fill:none;"/>
  </g>
  <g id="axes_1">
   <g id="patch_2">
    <path clip-path="url(#pa5ef79209f)" d="M 199.237299 255.292222 
L 213.819464 255.331681 
L 232.550843 255.302278 
L 254.957318 255.204859 
L 279.687153 255.226794 
L 297.707162 255.136651 
L 316.61649 255.170129 
L 346.439212 255.062172 
L 366.949045 255.093731 
L 385.855043 255.11732 
L 396.214601 255.044012 
L 418.487613 255.098209 
L 429.665193 255.081822 
L 441.560831 255.209734 
L 450.613548 255.254642 
L 482.716632 255.264987 
L 513.05039 255.16328 
L 551.849201 255.087056 
L 552.085164 461.347703 
L 546.942722 461.354985 
L 543.776405 461.355988 
L 543.813375 434.203138 
L 541.117228 392.822233 
L 535.706999 309.782423 
L 533.970788 309.784186 
L 515.644639 309.803526 
L 509.193377 298.471146 
L 364.267128 298.598453 
L 190.546831 298.763666 
L 186.048275 298.766102 
L 185.989212 287.199021 
L 185.948374 275.704179 
L 185.914836 270.499342 
L 185.971506 255.274576 
L 199.237299 255.292222 
" style="fill:#1a1a1a;stroke:#ffffff;stroke-linejoin:miter;stroke-width:4;"/>
   </g>
  </g>
 </g>
 <defs>
  <clipPath id="pa5ef79209f">
   <rect height="543.6" width="558" x="90" y="86.4"/>
  </clipPath>
 </defs>
</svg>
