<?xml version="1.0" encoding="utf-8" standalone="no"?>
<!DOCTYPE svg PUBLIC "-//W3C//DTD SVG 1.1//EN"
  "http://www.w3.org/Graphics/SVG/1.1/DTD/svg11.dtd">
<!-- Created with matplotlib (https://matplotlib.org/) -->
<svg height="720pt" version="1.1" viewBox="0 0 720 720" width="720pt" xmlns="http://www.w3.org/2000/svg" xmlns:xlink="http://www.w3.org/1999/xlink">
 <metadata>
  <rdf:RDF xmlns:cc="http://creativecommons.org/ns#" xmlns:dc="http://purl.org/dc/elements/1.1/" xmlns:rdf="http://www.w3.org/1999/02/22-rdf-syntax-ns#">
   <cc:Work>
    <dc:type rdf:resource="http://purl.org/dc/dcmitype/StillImage"/>
    <dc:date>2021-05-28T08:56:47.430205</dc:date>
    <dc:format>image/svg+xml</dc:format>
    <dc:creator>
     <cc:Agent>
      <dc:title>Matplotlib v3.3.3, https://matplotlib.org/</dc:title>
     </cc:Agent>
    </dc:creator>
   </cc:Work>
  </rdf:RDF>
 </metadata>
 <defs>
  <style type="text/css">*{stroke-linecap:butt;stroke-linejoin:round;}</style>
 </defs>
 <g id="figure_1">
  <g id="patch_1">
   <path d="M 0 720 
L 720 720 
L 720 0 
L 0 0 
z
" style="fill:none;"/>
  </g>
  <g id="axes_1">
   <g id="patch_2">
    <path clip-path="url(#p5e33ffb173)" d="M 444.139783 170.857695 
L 452.1767 184.210425 
L 556.660121 322.193487 
L 589.482802 365.472778 
L 594.530119 373.934514 
L 599.575844 383.76823 
L 603.471227 394.744981 
L 606.676814 405.950218 
L 607.587573 414.067942 
L 608.005481 419.476456 
L 608.142771 421.253244 
L 608.267823 422.871606 
L 607.817013 430.219155 
L 606.883464 438.633675 
L 605.42227 446.259175 
L 603.035014 455.133509 
L 599.723324 463.744655 
L 595.593938 471.835638 
L 591.96126 478.382566 
L 587.012415 486.098916 
L 579.559536 495.15212 
L 569.89916 506.537185 
L 557.481842 518.470447 
L 542.30661 532.323937 
L 530.165453 545.217816 
L 518.575909 558.52349 
L 508.089873 571.555064 
L 500.362784 582.254883 
L 494.049573 591.859043 
L 493.627957 591.776934 
L 492.889062 591.615781 
L 492.271843 591.48396 
L 491.739434 591.35749 
L 490.987383 591.180525 
L 490.714519 591.117935 
L 490.142619 590.978261 
L 489.443212 590.830418 
L 488.706942 590.675828 
L 488.034026 590.542593 
L 487.385212 590.400096 
L 486.69389 590.254867 
L 486.127074 590.128392 
L 485.501954 589.993856 
L 484.956374 589.86879 
L 484.265063 589.706339 
L 483.685092 589.564044 
L 483.147408 589.441601 
L 482.559538 589.29659 
L 482.059112 589.1808 
L 481.417986 589.040918 
L 480.832743 588.902553 
L 480.083111 588.749275 
L 479.574566 588.647993 
L 478.999647 588.536018 
L 478.435255 588.433321 
L 477.969015 588.351891 
L 477.391455 588.250503 
L 476.768757 588.139745 
L 476.117075 588.024958 
L 475.417646 587.894249 
L 474.871878 587.786306 
L 474.132952 587.625169 
L 473.407011 587.479948 
L 472.699884 587.329395 
L 472.223148 587.221559 
L 471.616426 587.099012 
L 470.8933 586.960344 
L 470.278912 586.80073 
L 469.66978 586.654408 
L 469.137548 586.527945 
L 468.50452 586.390783 
L 467.834454 586.229755 
L 467.095554 586.051492 
L 466.502406 585.910406 
L 465.996495 585.798644 
L 465.448094 585.684067 
L 464.979222 585.595994 
L 464.292955 585.464074 
L 463.70769 585.342845 
L 463.196321 585.23492 
L 462.528867 585.097661 
L 461.959398 584.98177 
L 461.469282 584.875254 
L 460.958119 584.76733 
L 460.364766 584.643469 
L 459.715748 584.500981 
L 459.150322 584.384718 
L 459.049798 584.542552 
L 473.513941 598.764314 
L 473.337965 598.730182 
L 472.728818 598.600988 
L 472.172535 598.483693 
L 471.589728 598.369107 
L 471.081191 598.267818 
L 470.397571 598.142449 
L 469.785599 598.040963 
L 469.282116 597.970012 
L 468.651531 597.856635 
L 467.957151 597.75635 
L 467.448417 597.68933 
L 466.899999 597.591975 
L 466.322246 597.50771 
L 465.643868 597.412671 
L 465.071366 597.324485 
L 464.446217 597.207086 
L 463.88729 597.100463 
L 463.193341 596.948689 
L 462.451615 596.79804 
L 461.794916 596.6358 
L 461.283759 596.510746 
L 460.65884 596.359089 
L 459.972801 596.192716 
L 459.250099 596.002571 
L 458.609207 595.828447 
L 458.016049 595.687458 
L 457.367246 595.527748 
L 456.887886 595.413372 
L 456.342504 595.271091 
L 455.754445 595.126088 
L 455.124254 594.978363 
L 454.491245 594.823982 
L 451.98337 594.243553 
L 451.816418 594.210397 
L 451.069226 594.063776 
L 450.393895 593.906778 
L 449.65256 593.721875 
L 448.966726 593.521247 
L 448.474375 593.390958 
L 447.891981 593.207675 
L 447.198435 593.004425 
L 446.684872 592.838377 
L 445.983438 592.615292 
L 445.327141 592.401575 
L 444.630976 592.174458 
L 443.916372 591.952681 
L 443.2704 591.765354 
L 442.709057 591.600609 
L 442.047287 591.407954 
L 441.478045 591.240493 
L 440.75007 591.037146 
L 440.13062 590.847213 
L 439.3895 590.610926 
L 438.791103 590.439427 
L 438.160912 590.274578 
L 437.610462 590.101974 
L 437.192238 589.967863 
L 436.583523 589.752838 
L 436.056997 589.553842 
L 435.485321 589.362607 
L 434.781448 589.115741 
L 434.106727 588.872915 
L 433.458318 588.661825 
L 432.865186 588.486491 
L 432.11879 588.254043 
L 431.42807 588.023008 
L 430.681703 587.773422 
L 430.014646 587.567572 
L 429.286703 587.32998 
L 428.659744 587.102973 
L 428.093343 586.890774 
L 427.368408 586.625374 
L 426.630116 586.361292 
L 426.048104 586.143662 
L 425.320338 585.88884 
L 424.727218 585.713518 
L 424.12614 585.569832 
L 423.575299 585.431491 
L 422.947725 585.27319 
L 422.253758 585.104311 
L 421.740138 584.972622 
L 421.17351 584.811814 
L 420.575498 584.606071 
L 419.887208 584.381687 
L 419.328876 584.189243 
L 418.664679 583.938561 
L 418.048268 583.703705 
L 417.410384 583.484666 
L 417.045385 583.345419 
L 416.423677 583.097366 
L 415.754437 582.816263 
L 415.032538 582.488911 
L 414.48231 582.264738 
L 413.842011 582.022018 
L 413.172738 581.758036 
L 412.505906 581.500709 
L 411.88947 581.265856 
L 411.262506 581.021828 
L 410.69365 580.802895 
L 409.984721 580.508589 
L 409.28913 580.212882 
L 408.569653 579.909216 
L 407.879149 579.626801 
L 407.146502 579.324444 
L 406.509016 579.053926 
L 405.92154 578.823104 
L 405.350247 578.58049 
L 404.601631 578.272795 
L 403.988015 578.027461 
L 403.411264 577.788779 
L 402.728832 577.491859 
L 402.178792 577.25056 
L 401.665804 577.015913 
L 400.97812 576.722924 
L 400.266333 576.439106 
L 399.599685 576.164561 
L 398.941133 575.875593 
L 398.190078 575.544125 
L 397.758881 575.35985 
L 397.168936 575.122478 
L 396.637109 574.927432 
L 396.105083 574.749507 
L 395.541471 574.543871 
L 394.882707 574.289173 
L 394.33246 574.065099 
L 393.618224 573.774636 
L 393.023054 573.524067 
L 392.3588 573.290523 
L 391.710183 573.079352 
L 391.331784 572.958549 
L 390.678076 572.734274 
L 390.050902 572.490159 
L 389.376344 572.212996 
L 388.704414 571.942479 
L 388.005781 571.691718 
L 387.307731 571.372243 
L 386.604442 571.005311 
L 385.937571 570.765123 
L 385.28102 570.568556 
L 384.589836 570.406242 
L 383.848253 570.221364 
L 383.26034 570.059253 
L 382.664933 569.842946 
L 382.09097 569.593693 
L 381.340091 569.245102 
L 380.660264 568.954752 
L 380.001286 568.717282 
L 379.32651 568.474474 
L 378.691218 568.261999 
L 378.016233 568.053545 
L 377.428513 567.874222 
L 376.750699 567.676344 
L 376.117828 567.504869 
L 375.378848 567.32664 
L 374.820271 567.168467 
L 374.17424 566.981172 
L 373.459576 566.742208 
L 372.779741 566.451852 
L 372.113055 566.194539 
L 371.443549 565.930581 
L 370.866758 565.709131 
L 370.142173 565.375066 
L 369.509917 565.100629 
L 368.785322 564.783872 
L 368.057512 564.52908 
L 367.586385 564.365773 
L 366.937915 564.154704 
L 366.305045 563.966103 
L 365.794026 563.823955 
L 365.131981 563.665584 
L 364.501534 563.517888 
L 363.919045 563.351862 
L 363.241022 563.171024 
L 362.722121 563.026245 
L 361.99671 562.81236 
L 361.350677 562.607846 
L 360.696914 562.40072 
L 360.111811 562.22804 
L 359.425886 562.044582 
L 358.702905 561.854576 
L 357.982958 561.619539 
L 357.379612 561.400617 
L 356.736627 561.151269 
L 356.17843 560.924491 
L 355.477114 560.667095 
L 354.757164 560.432153 
L 354.013326 560.189251 
L 353.428227 559.999359 
L 352.75848 559.804112 
L 352.273978 559.65934 
L 351.868864 559.541068 
L 351.117124 559.295452 
L 350.373086 559.069691 
L 349.740372 558.881095 
L 349.094123 558.710947 
L 348.556784 558.554188 
L 348.051032 558.390882 
L 347.339171 558.141434 
L 346.672468 557.867001 
L 345.931654 557.579183 
L 345.338846 557.369533 
L 344.716882 557.155854 
L 344.047144 556.926267 
L 343.319273 556.67139 
L 342.761083 556.444709 
L 342.197428 556.238994 
L 341.599356 556.016156 
L 340.906326 555.70999 
L 340.279506 555.414409 
L 339.612591 555.174246 
L 339.011851 554.979106 
L 338.355267 554.765425 
L 338.135602 554.69763 
L 337.486891 554.503794 
L 336.901574 554.348259 
L 336.308357 554.190093 
L 335.707221 554.029222 
L 335.1142 553.853927 
L 334.486546 553.678534 
L 333.827517 553.458209 
L 333.202708 553.272249 
L 332.779144 553.124962 
L 332.252527 552.943133 
L 331.556245 552.733288 
L 330.867861 552.526158 
L 330.333129 552.358827 
L 329.75105 552.106977 
L 329.150932 551.808783 
L 328.651236 551.538587 
L 328.090784 551.253782 
L 327.38759 550.886787 
L 326.6763 550.534384 
L 326.07336 550.229637 
L 325.517767 550.009514 
L 324.80627 549.69137 
L 324.137293 549.358817 
L 323.536954 549.077856 
L 322.796509 548.704297 
L 322.281026 548.428765 
L 321.553928 548.071027 
L 320.932337 547.771522 
L 320.305672 547.458828 
L 319.827419 547.172818 
L 319.147897 546.848127 
L 318.560916 546.54872 
L 318.053316 546.258776 
L 317.453387 545.926326 
L 316.925116 545.5834 
L 316.515507 545.331844 
L 315.979335 544.986391 
L 315.546228 544.692524 
L 315.134392 544.365711 
L 314.680241 544.053309 
L 314.27102 543.767401 
L 313.816662 543.455092 
L 313.20072 543.117306 
L 312.738446 542.836644 
L 312.6131 542.536717 
L 312.479861 542.216955 
L 312.229792 541.915526 
L 311.897507 541.632435 
L 311.445776 541.326679 
L 310.949505 540.960077 
L 310.47974 540.590951 
L 310.015236 540.235013 
L 309.497706 539.867099 
L 309.125347 539.587842 
L 308.692434 539.259624 
L 308.317624 538.991028 
L 307.982711 538.684162 
L 307.661155 538.375988 
L 307.468618 538.185485 
L 307.139559 537.823207 
L 306.741076 537.477958 
L 306.448675 537.173802 
L 306.16211 536.860389 
L 305.977087 536.694973 
L 305.70819 536.416008 
L 305.365164 536.157909 
L 304.929816 535.788872 
L 304.600566 535.4265 
L 304.249848 535.114298 
L 304.033799 534.864449 
L 303.707197 534.508724 
L 303.377931 534.18079 
L 303.077633 533.856799 
L 302.880202 533.61884 
L 302.534953 533.268345 
L 302.321741 533.025049 
L 301.997755 532.658747 
L 301.71872 532.319034 
L 301.489688 532.070401 
L 301.250333 531.761102 
L 300.939508 531.410715 
L 300.562468 531.049556 
L 300.212142 530.685957 
L 300.012298 530.407 
L 299.873374 530.159874 
L 299.753077 529.907508 
L 299.593306 529.573235 
L 299.414889 529.295675 
L 299.260178 529.008953 
L 299.052811 528.675893 
L 298.882502 528.349566 
L 298.71522 527.978226 
L 298.583458 527.694221 
L 298.319473 527.387176 
L 298.006 527.060283 
L 297.653967 526.719337 
L 297.389573 526.444679 
L 297.203224 526.236113 
L 297.065028 526.04646 
L 296.916311 525.818699 
L 296.756525 525.514848 
L 296.626444 525.258456 
L 296.467027 524.9737 
L 296.248748 524.632027 
L 295.973114 524.281166 
L 295.913517 524.181567 
L 295.677163 523.878082 
L 295.49985 523.650516 
L 295.254269 523.366116 
L 295.008873 523.091367 
L 294.753517 522.787975 
L 294.518085 522.527361 
L 294.253149 522.233609 
L 293.997421 521.915989 
L 293.918078 521.797376 
L 293.70165 521.527123 
L 293.513075 521.22823 
L 293.314168 520.89124 
L 293.14497 520.592246 
L 292.91691 520.236345 
L 292.757305 519.942042 
L 292.617994 519.704744 
L 292.458571 519.424659 
L 292.249885 519.073534 
L 292.022564 518.750956 
L 291.883623 518.527971 
L 291.667561 518.276813 
L 291.432515 518.030427 
L 291.17604 517.689032 
L 290.785252 517.319731 
L 290.414388 516.993208 
L 290.043524 516.666676 
L 289.729873 516.330236 
L 289.454394 515.988934 
L 289.394425 515.875013 
L 289.207142 515.628435 
L 289.026677 515.262805 
L 288.925001 514.996775 
L 288.764466 514.659602 
L 288.584556 514.317737 
L 288.308519 513.957432 
L 288.093009 513.73005 
L 287.79834 513.384056 
L 287.619723 513.104073 
L 287.449221 512.752671 
L 287.348285 512.51519 
L 287.225568 512.163606 
L 287.141968 511.849831 
L 287.097483 511.578659 
L 287.014812 511.298216 
L 286.950954 511.012898 
L 286.847978 510.694545 
L 286.727114 510.41906 
L 286.62673 510.210128 
L 286.39942 509.887541 
L 286.163423 509.59838 
L 285.966913 509.366132 
L 285.643639 509.034654 
L 285.272214 508.674706 
L 284.94857 508.324133 
L 284.683417 508.020834 
L 284.484498 507.683845 
L 284.44368 507.61509 
L 284.379492 507.506991 
L 284.315492 507.399182 
L 284.089272 507.119466 
L 283.813414 506.763843 
L 283.645684 506.536185 
L 283.419091 506.247015 
L 283.143232 505.891392 
L 282.925681 505.568815 
L 282.716794 505.217598 
L 282.556251 504.885189 
L 282.471077 504.746836 
L 282.325584 504.415093 
L 282.11818 504.121067 
L 281.891772 503.836578 
L 281.841394 503.722565 
L 281.508149 503.372085 
L 281.137457 503.04547 
L 281.037189 502.972376 
L 280.631718 502.676816 
L 280.309364 502.378567 
L 280.091252 502.036981 
L 280.093437 501.717981 
L 280.164269 501.46057 
L 280.44488 501.178195 
L 280.953698 500.842393 
L 281.387635 500.573501 
L 281.677286 500.267351 
L 281.814722 500.000024 
L 281.835172 499.638062 
L 281.702854 499.286477 
L 281.591946 499.034769 
L 281.441921 498.740458 
L 281.300192 498.398419 
L 281.177467 498.046741 
L 281.133722 497.799429 
L 281.096977 497.44261 
L 281.01485 497.200265 
L 280.931243 496.8865 
L 280.829745 496.625141 
L 280.48005 495.965302 
L 280.301426 495.675856 
L 280.131653 495.357777 
L 279.922391 494.987558 
L 279.743023 494.669479 
L 279.515311 494.332666 
L 279.307902 494.03864 
L 279.012861 493.683109 
L 278.795485 493.374752 
L 278.58826 493.090274 
L 278.389702 492.767606 
L 278.192624 492.516265 
L 277.842033 492.241977 
L 277.500482 491.939141 
L 277.178306 491.645657 
L 276.864981 491.328315 
L 276.619931 491.063023 
L 276.325814 490.745579 
L 276.022082 490.428238 
L 275.756173 490.091618 
L 275.539904 489.835689 
L 275.216242 489.48025 
L 274.978376 489.110207 
L 274.753438 488.892373 
L 274.422589 488.641769 
L 273.948191 488.387221 
L 273.597964 488.131935 
L 273.082592 487.758592 
L 272.836982 487.469432 
L 272.620172 487.189727 
L 272.422905 486.924158 
L 272.274908 486.724958 
L 272.028926 486.42157 
L 271.763383 486.099262 
L 271.47828 485.757961 
L 271.409263 485.667909 
L 271.215421 485.396088 
L 270.795972 483.884943 
L 270.611104 483.612721 
L 270.433934 483.440177 
L 270.233643 483.206283 
L 270.087329 482.918722 
L 269.940979 482.684833 
L 269.779227 482.481626 
L 269.671412 482.236237 
L 269.47119 481.852822 
L 269.332585 481.523093 
L 269.163154 481.21636 
L 268.98602 480.878953 
L 268.816628 480.457201 
L 268.670299 480.154299 
L 268.49313 479.916579 
L 268.33908 479.690365 
L 268.185054 479.3913 
L 268.000212 479.088404 
L 267.83079 478.750997 
L 267.738392 478.528617 
L 267.530423 478.179704 
L 267.438049 477.888319 
L 267.199268 477.573915 
L 267.106851 477.351534 
L 266.97595 477.044805 
L 266.798823 476.676724 
L 266.652423 476.634544 
L 266.367409 476.281787 
L 266.190263 475.967388 
L 266.099786 475.622949 
L 266.105635 475.518807 
L 265.882215 475.342421 
L 265.758949 475.21206 
L 265.651128 475.028018 
L 265.450814 474.847806 
L 265.389183 474.832469 
L 265.080929 474.824768 
L 264.919131 474.690566 
L 264.572434 474.414493 
L 264.480009 474.268792 
L 264.248884 474.06558 
L 263.778894 473.731978 
L 263.378276 473.390724 
L 262.985363 473.014961 
L 262.823598 472.834752 
L 262.862149 472.777246 
L 263.077941 472.754256 
L 263.031721 472.673744 
L 262.908427 472.62389 
L 262.715757 472.650711 
L 262.561669 472.524175 
L 262.392213 472.274953 
L 262.145697 472.006554 
L 261.82214 471.669145 
L 261.521667 471.389239 
L 261.359941 471.086336 
L 261.175039 470.886956 
L 260.936193 470.752748 
L 260.73588 470.557204 
L 260.458557 470.250464 
L 260.204346 469.920718 
L 259.996336 469.729002 
L 259.93472 469.606312 
L 259.757543 469.368593 
L 259.449417 468.950659 
L 259.202894 468.693765 
L 258.948675 468.383188 
L 258.817708 468.256664 
L 258.548056 468.018929 
L 258.301545 467.723695 
L 258.178265 467.624007 
L 257.962525 467.478297 
L 257.900904 467.367101 
L 257.839313 467.221413 
L 257.638977 467.091036 
L 257.430983 466.841811 
L 257.215284 466.561912 
L 256.937949 466.22067 
L 256.722235 466.048124 
L 256.606685 465.894756 
L 256.344748 465.584179 
L 256.206095 465.365634 
L 256.052032 465.147087 
L 256.028984 464.96689 
L 256.005926 464.756019 
L 255.790218 464.502956 
L 255.674638 464.441609 
L 255.482025 464.276731 
L 255.389606 464.096529 
L 255.227829 463.877972 
L 255.143126 463.690104 
L 255.089204 463.563577 
L 254.811807 463.471544 
L 254.565231 463.371838 
L 254.303231 463.256798 
L 254.151142 463.161677 
L 253.937254 462.980726 
L 253.752342 462.854188 
L 253.552008 462.70848 
L 253.128205 462.512921 
L 252.650474 462.267504 
L 252.165024 462.041266 
L 251.556287 461.784346 
L 251.17874 461.492931 
L 250.670205 461.193841 
L 250.300355 460.956109 
L 249.938257 460.591854 
L 249.745663 460.350297 
L 249.560734 460.212265 
L 249.429756 460.10874 
L 249.476034 460.005219 
L 249.637888 459.920885 
L 249.768965 459.756032 
L 249.884633 459.526001 
L 249.745962 459.353462 
L 249.584139 459.272942 
L 249.198845 459.142553 
L 248.921471 458.962337 
L 248.590143 458.751444 
L 248.027614 458.5482 
L 247.781034 458.448504 
L 247.626946 458.295133 
L 247.218556 458.065065 
L 246.817909 457.739147 
L 246.555929 457.539763 
L 246.448086 457.394062 
L 245.93952 457.110306 
L 245.839382 456.995279 
L 245.531176 456.784388 
L 245.130468 456.59266 
L 244.698985 456.316584 
L 244.46784 456.121041 
L 244.25982 455.925489 
L 244.074922 455.664763 
L 243.604949 455.231488 
L 243.412899 455.045982 
L 243.054051 454.729204 
L 242.622557 454.479965 
L 242.206435 454.295902 
L 241.898198 454.180861 
L 241.659327 454.088833 
L 240.927278 453.766722 
L 240.410993 453.475309 
L 239.879318 453.180049 
L 239.478665 452.842638 
L 239.185874 452.593409 
L 239.054907 452.432366 
L 239.224498 452.267524 
L 239.255408 451.941638 
L 239.232365 451.719264 
L 239.024332 451.485373 
L 238.980867 451.420278 
L 238.808607 451.305163 
L 238.492685 451.075102 
L 238.238411 450.883386 
L 238.014956 450.756848 
L 237.853161 450.557472 
L 237.714505 450.304416 
L 237.645225 450.036033 
L 237.452623 449.786811 
L 237.121299 449.522248 
L 236.905527 449.441716 
L 236.342999 449.24615 
L 236.08869 449.173282 
L 235.818968 449.111926 
L 235.564645 449.092739 
L 235.310314 449.100388 
L 235.094512 449.131047 
L 234.85562 449.100358 
L 234.670668 449.016 
L 234.300797 448.862616 
L 234.123559 448.778259 
L 233.861547 448.663222 
L 233.591842 448.536681 
L 233.391515 448.387137 
L 233.291374 448.195432 
L 233.430136 448.061251 
L 233.730691 448.076613 
L 234.008115 448.187813 
L 234.239304 448.245338 
L 234.300981 448.176328 
L 234.378062 448.126499 
L 234.555299 448.145681 
L 234.670919 448.080503 
L 234.771186 447.804465 
L 234.748137 447.524582 
L 234.594076 447.240861 
L 234.332116 446.999301 
L 234.047032 446.753911 
L 233.792739 446.615867 
L 233.654062 446.427997 
L 233.430614 446.263119 
L 233.160918 446.098238 
L 233.222617 445.948721 
L 233.230347 445.818361 
L 232.991478 445.69566 
L 232.629277 445.557618 
L 232.552224 445.496266 
L 232.498312 445.373577 
L 232.529195 445.208716 
L 232.47528 445.024679 
L 232.313496 444.836808 
L 231.959043 444.568406 
L 231.812641 444.487879 
L 231.550649 444.284659 
L 231.296393 444.069946 
L 231.018988 443.874391 
L 230.872627 443.636677 
L 230.757072 443.448808 
L 230.479674 443.226418 
L 230.263906 443.115213 
L 230.040482 442.850658 
L 229.94803 442.743299 
L 229.662911 442.543915 
L 229.393211 442.379035 
L 229.061871 442.214151 
L 228.738151 442.27164 
L 228.522336 442.413491 
L 228.368208 442.371304 
L 228.175568 442.244769 
L 228.368266 442.145103 
L 228.707387 442.053103 
L 228.884693 441.884423 
L 228.892422 441.754063 
L 228.918606 441.492547 
L 228.929126 441.409007 
L 228.751937 441.121448 
L 228.347369 440.939308 
L 227.746279 440.722654 
L 227.692346 440.676645 
L 227.611464 440.498354 
L 227.599928 440.435096 
L 227.345653 440.203123 
L 226.99889 440.007574 
L 226.929536 440.001813 
L 226.417048 439.861845 
L 226.262929 439.781318 
L 225.91614 439.683528 
L 225.654149 439.530152 
L 225.34975 439.443869 
L 225.010634 439.434263 
L 224.744747 439.438085 
L 224.317046 439.278952 
L 224.155224 439.22718 
L 223.796875 439.079546 
L 223.453957 438.924257 
L 223.22278 438.790053 
L 223.034001 438.634764 
L 222.814386 438.467969 
L 222.698807 438.358699 
L 222.405976 438.280083 
L 222.209461 438.212976 
L 222.012956 438.099864 
L 221.824169 437.975249 
L 221.535169 437.927307 
L 221.242304 437.910029 
L 220.976466 437.702982 
L 220.926367 437.670386 
L 220.672075 437.572612 
L 220.429314 437.488243 
L 220.340709 437.411558 
L 220.113375 437.332955 
L 219.870599 437.308015 
L 219.573885 437.334833 
L 219.408169 437.353993 
L 219.307986 437.302234 
L 219.223254 437.162284 
L 218.972787 437.116263 
L 218.633675 437.08557 
L 218.248353 436.966699 
L 217.963208 436.920677 
L 217.809056 436.970502 
L 217.662624 437.001168 
L 217.512348 436.972404 
L 217.404459 436.882305 
L 217.404475 436.813291 
L 217.381377 436.70019 
L 217.250372 436.656086 
L 217.119349 436.686752 
L 216.969086 436.602398 
L 216.880472 436.483535 
L 216.641582 436.414508 
L 216.341014 436.341649 
L 216.202331 436.218956 
L 216.125295 436.07134 
L 215.975007 436.009993 
L 215.682163 435.975465 
L 215.554996 435.931371 
L 215.516475 435.870021 
L 215.655216 435.822104 
L 215.728442 435.768436 
L 215.551183 435.739672 
L 215.227498 435.712817 
L 215.027149 435.613119 
L 214.873033 435.507676 
L 214.699636 435.457822 
L 214.661113 435.406067 
L 214.699666 435.327471 
L 214.796006 435.315972 
L 214.973241 435.369654 
L 215.146638 435.415679 
L 215.316208 435.41377 
L 215.431825 435.363933 
L 215.439541 435.273831 
L 215.335534 435.160725 
L 215.065828 434.982433 
L 214.86544 434.970918 
L 214.676622 434.970908 
L 214.526355 434.899967 
L 214.167977 434.850113 
L 213.952188 434.800257 
L 213.736442 434.63922 
L 213.451295 434.514599 
L 213.339576 434.382313 
L 213.143075 434.238528 
L 212.761607 434.117741 
L 212.422522 434.039124 
L 212.044911 433.832072 
L 211.910081 433.638447 
L 211.806098 433.408402 
L 211.050884 433.034548 
L 210.754211 432.777657 
L 210.480675 432.551432 
L 209.987486 432.206347 
L 209.656137 431.934123 
L 209.216903 431.627381 
L 209.062774 431.569863 
L 208.885525 431.487418 
L 208.731376 431.518083 
L 208.627341 431.521915 
L 208.430855 431.297613 
L 208.334539 431.192174 
L 208.176591 430.950623 
L 208.17276 430.827937 
L 208.299969 430.68417 
L 208.307691 430.563404 
L 208.037974 430.417696 
L 207.853017 430.385094 
L 207.671884 430.427262 
L 207.513902 430.43492 
L 207.305824 430.298801 
L 207.182549 430.168443 
L 207.078516 430.070669 
L 206.959073 429.972894 
L 206.970663 429.888549 
L 207.178761 429.840636 
L 207.394571 429.809973 
L 207.379173 429.748634 
L 207.240452 429.696865 
L 207.094009 429.683444 
L 206.962981 429.733271 
L 206.83196 429.750525 
L 206.731765 429.742844 
L 206.593033 429.742837 
L 206.411942 429.673823 
L 206.203879 429.551118 
L 206.21159 429.480195 
L 206.20777 429.301909 
L 206.096045 429.183056 
L 205.945771 429.131285 
L 205.799358 429.058436 
L 205.556603 428.914649 
L 205.45643 428.801544 
L 205.360114 428.690348 
L 205.221398 428.703763 
L 204.955508 428.600234 
L 204.589469 428.356754 
L 204.200316 428.149703 
L 203.899775 427.915811 
L 203.826584 427.800788 
L 203.726422 427.630173 
L 203.560775 427.388622 
L 203.541526 427.29661 
L 203.576232 427.164332 
L 203.545431 427.066571 
L 203.372025 427.039717 
L 203.190901 427.032042 
L 202.967427 426.901679 
L 202.844125 426.801986 
L 202.890395 426.706139 
L 203.071521 426.614136 
L 203.021444 426.556624 
L 202.832621 426.562361 
L 202.693896 426.525934 
L 202.697768 426.453092 
L 202.77486 426.353409 
L 203.017644 426.272904 
L 203.175665 426.177062 
L 203.206514 426.040965 
L 203.106359 425.83392 
L 202.986925 425.770657 
L 202.686353 425.676711 
L 202.424329 425.61535 
L 202.150749 425.473481 
L 201.715363 425.159076 
L 201.38785 424.948191 
L 200.863785 424.8063 
L 200.555515 424.718111 
L 200.104686 424.465042 
L 199.950565 424.348097 
L 199.761797 424.070124 
L 199.646225 423.889924 
L 199.472864 423.627284 
L 199.199291 423.439409 
L 198.979681 423.263032 
L 198.790895 422.973565 
L 198.605973 422.749265 
L 198.382505 422.572887 
L 198.128178 422.492367 
L 197.877717 422.367751 
L 197.55019 422.20862 
L 197.365214 422.166443 
L 197.245783 422.082092 
L 197.122486 421.940221 
L 196.97222 421.829032 
L 196.825799 421.685251 
L 196.787278 421.604732 
L 196.748794 421.328686 
L 196.714168 421.050721 
L 196.594756 420.768924 
L 196.436817 420.531202 
L 196.348184 420.467941 
L 196.382877 420.395101 
L 196.556308 420.305007 
L 196.498508 420.278168 
L 196.282718 420.287743 
L 196.167118 420.237894 
L 196.302005 420.189976 
L 196.359818 420.142054 
L 196.194108 420.101787 
L 195.935934 420.061517 
L 195.712444 419.888977 
L 195.542901 419.819965 
L 195.269305 419.731769 
L 195.138298 419.666587 
L 195.269344 419.524729 
L 195.230818 419.472974 
L 195.111371 419.367534 
L 194.887886 419.264008 
L 194.517955 419.143215 
L 194.398496 419.102951 
L 194.070954 419.010924 
L 193.928395 418.928491 
L 193.955386 418.782799 
L 193.874495 418.675442 
L 193.643282 418.642839 
L 193.37737 418.619829 
L 193.184719 418.445372 
L 193.119256 418.242167 
L 193.007539 418.048544 
L 192.706994 417.768657 
L 192.552872 417.634461 
L 192.387193 417.521344 
L 192.194522 417.458078 
L 192.071204 417.419733 
L 192.082789 417.348801 
L 191.905528 417.287455 
L 191.789933 417.210771 
L 191.651216 417.10533 
L 191.385341 416.971129 
L 191.169539 416.934699 
L 190.911344 416.89251 
L 190.788057 416.785151 
L 190.811209 416.63755 
L 190.799672 416.443931 
L 190.703368 416.23114 
L 190.70341 415.997263 
L 190.668758 415.840074 
L 190.533941 415.49501 
L 190.476154 415.395321 
L 190.264219 415.301381 
L 190.029155 415.220853 
L 190.017621 415.109671 
L 190.094715 414.992736 
L 190.090883 414.850881 
L 189.867419 414.616995 
L 189.628494 414.557565 
L 189.470501 414.490464 
L 189.308688 414.31409 
L 189.308717 414.151146 
L 189.204707 413.880844 
L 188.900307 413.666134 
L 188.819377 413.660374 
L 188.580445 413.639275 
L 188.522645 413.608608 
L 188.653696 413.545348 
L 188.777018 413.461007 
L 188.256855 412.968315 
L 188.048803 412.715269 
L 187.944775 412.546564 
L 187.659633 412.387446 
L 187.455396 412.375934 
L 187.147115 412.291575 
L 187.181803 412.239814 
L 187.332099 412.209156 
L 187.632703 412.184242 
L 187.825397 412.130578 
L 188.045057 412.06924 
L 188.257029 411.965734 
L 188.334123 411.850718 
L 188.334169 411.58234 
L 188.287958 411.457733 
L 188.156932 411.371463 
L 188.014378 411.241106 
L 187.806295 411.166327 
L 187.613601 411.216162 
L 187.571192 411.300506 
L 187.470992 411.300502 
L 187.270607 411.208482 
L 187.17044 411.129879 
L 187.070267 410.970769 
L 186.970096 410.798235 
L 186.893053 410.61228 
L 186.808297 410.420578 
L 186.808315 410.317063 
L 186.923937 410.253811 
L 187.108938 410.184805 
L 187.313189 410.1158 
L 187.486607 410.113889 
L 187.713943 410.284508 
L 187.902752 410.50497 
L 187.987503 410.616165 
L 188.172462 410.788701 
L 188.419085 410.85005 
L 188.704252 410.871151 
L 188.839144 410.804062 
L 188.812179 410.694798 
L 188.773666 410.558689 
L 188.735148 410.445587 
L 188.503967 410.207863 
L 188.226541 410.035322 
L 187.914385 410.042984 
L 187.864302 409.995057 
L 187.764116 409.912617 
L 187.478968 409.780334 
L 187.363377 409.659563 
L 187.13986 409.602044 
L 186.931763 409.598197 
L 186.766057 409.621198 
L 186.608064 409.542593 
L 186.492477 409.400733 
L 186.319084 409.256951 
L 186.130267 409.186011 
L 186.053217 409.038396 
L 186.033979 408.860119 
L 185.922226 408.739348 
L 185.710291 408.622401 
L 185.425151 408.43069 
L 185.344233 408.344422 
L 185.328847 408.194891 
L 185.267201 408.091373 
L 185.078393 407.966761 
L 184.958944 407.842152 
L 184.816399 407.652366 
L 184.797163 407.456829 
L 184.866551 407.284303 
L 184.870421 407.207623 
L 184.750974 407.075348 
L 184.566006 407.050423 
L 184.404179 406.824207 
L 184.408057 406.695774 
L 184.361831 406.540494 
L 184.27708 406.419724 
L 184.165349 406.274027 
L 184.076711 406.216514 
L 183.930302 406.06123 
L 183.791565 406.047801 
L 183.743512 406.011285 
L 183.662479 405.938533 
L 183.608537 405.896354 
L 183.58542 405.838843 
L 183.693351 405.750664 
L 183.816669 405.689331 
L 183.940005 405.64333 
L 183.94771 405.589649 
L 183.932306 405.543643 
L 183.876825 405.479897 
L 183.772398 405.428617 
L 183.718464 405.340432 
L 183.606721 405.263748 
L 183.460272 405.233068 
L 183.356239 405.192815 
L 183.167384 405.229228 
L 183.086471 405.225387 
L 182.967012 405.154459 
L 182.916915 405.075859 
L 183.055664 405.010689 
L 183.271487 404.958935 
L 183.402522 404.889927 
L 183.344728 404.811326 
L 183.132782 404.746142 
L 182.967095 404.646457 
L 182.785968 404.598525 
L 182.651102 404.502671 
L 182.577907 404.360803 
L 182.574079 404.178689 
L 182.508629 403.854717 
L 182.462396 403.73203 
L 182.473962 403.655351 
L 182.639692 403.611271 
L 182.620435 403.542256 
L 182.454726 403.452148 
L 182.327577 403.344789 
L 182.200439 403.160761 
L 182.077133 403.024648 
L 182.192753 402.982475 
L 182.316088 402.940312 
L 182.543466 402.880892 
L 182.778549 402.88473 
L 182.994342 402.905828 
L 183.067585 402.867491 
L 183.032898 402.79081 
L 183.0175 402.71413 
L 183.063784 402.516686 
L 183.063796 402.445753 
L 182.813323 402.309635 
L 182.489622 402.231033 
L 182.200598 402.175422 
L 182.050301 402.079566 
L 181.961696 401.928123 
L 181.99255 401.728759 
L 182.11974 401.703847 
L 182.25463 401.655928 
L 182.347145 401.481483 
L 182.543716 401.330051 
L 182.628508 401.20736 
L 182.613123 401.046334 
L 182.512951 400.85655 
L 182.343419 400.666763 
L 182.062138 400.430957 
L 181.726893 400.162565 
L 181.534219 400.068627 
L 181.171968 400.053281 
L 180.98315 399.963171 
L 180.890685 399.821312 
L 180.751959 399.733124 
L 180.628621 399.790629 
L 180.655576 399.974662 
L 180.647844 400.082015 
L 180.528371 400.091596 
L 180.366532 400.035998 
L 180.370412 399.890306 
L 180.370437 399.733109 
L 180.374306 399.54141 
L 180.532332 399.435982 
L 180.651818 399.343975 
L 180.47842 399.194438 
L 180.439915 398.987405 
L 180.235681 398.922222 
L 180.03529 398.832112 
L 179.815662 398.531142 
L 179.688535 398.268506 
L 179.684707 398.076807 
L 179.846601 397.910031 
L 180.073982 397.846783 
L 180.209877 397.873596 
L 180.297488 397.890879 
L 180.486319 398.025075 
L 180.648142 398.191863 
L 180.871661 398.27047 
L 181.145258 398.324153 
L 181.476664 398.485191 
L 181.838845 398.939535 
L 181.769446 399.181075 
L 181.711591 399.480125 
L 181.688447 399.587468 
L 181.800155 399.890362 
L 181.942732 400.024556 
L 182.216311 400.294865 
L 182.47063 400.515328 
L 182.740372 400.657194 
L 182.863626 401.004176 
L 182.975323 401.368408 
L 183.056209 401.65596 
L 183.036903 401.887907 
L 183.113953 402.043188 
L 183.318195 402.165881 
L 183.526249 402.443853 
L 183.634109 402.677734 
L 183.66105 402.940366 
L 183.718821 403.156984 
L 183.872919 403.477131 
L 183.980786 403.670744 
L 183.97306 403.850948 
L 183.710963 404.033051 
L 183.556792 404.15573 
L 183.502808 404.370425 
L 183.483514 404.525702 
L 183.51433 404.564043 
L 183.687721 404.736579 
L 183.714689 404.834349 
L 183.618332 404.912943 
L 183.560505 405.037545 
L 183.61444 405.12764 
L 183.783994 405.167905 
L 183.968984 405.177498 
L 184.169355 405.256104 
L 184.481491 405.386469 
L 184.758935 405.59352 
L 184.924601 405.8159 
L 185.086408 406.164793 
L 185.267473 406.461933 
L 185.514089 406.691982 
L 185.860882 406.956546 
L 186.111341 407.154003 
L 186.342517 407.441561 
L 186.508167 407.754033 
L 186.735474 408.101019 
L 187.101538 408.340658 
L 187.548527 408.612893 
L 187.903051 408.768186 
L 188.130384 408.961804 
L 188.384701 409.147767 
L 188.588904 409.360563 
L 188.789263 409.600195 
L 188.850872 409.799563 
L 188.951054 409.905002 
L 189.020429 409.928012 
L 189.278595 410.050709 
L 189.371068 410.119726 
L 189.232338 410.184896 
L 189.151389 410.28457 
L 189.170632 410.430264 
L 189.332461 410.518454 
L 189.540588 410.453288 
L 189.559844 410.524211 
L 189.525121 410.664156 
L 189.513521 410.928696 
L 189.659907 411.195162 
L 189.740809 411.365785 
L 189.837106 411.622663 
L 189.857232 411.668614 
L 189.998916 411.921722 
L 190.145282 412.301289 
L 190.280119 412.538999 
L 190.387996 412.753711 
L 190.522839 412.956919 
L 190.777137 413.129459 
L 190.904302 413.23298 
L 191.027572 413.436189 
L 191.131614 413.522458 
L 191.220248 413.484122 
L 191.432219 413.384444 
L 191.594084 413.365281 
L 191.513143 413.420869 
L 191.320433 413.564634 
L 191.239472 413.731412 
L 191.316518 413.886694 
L 191.466816 413.94421 
L 191.570854 413.944215 
L 191.717307 413.934636 
L 191.921551 413.902053 
L 192.202861 413.909731 
L 192.480497 413.940914 
L 192.306908 413.967246 
L 191.983199 413.984482 
L 191.763526 414.011318 
L 191.713429 414.051565 
L 191.983176 414.112924 
L 192.299146 414.226039 
L 192.383924 414.283552 
L 192.276018 414.339138 
L 192.148818 414.433072 
L 192.09099 414.559584 
L 192.098677 414.712943 
L 192.171881 414.78196 
L 192.299049 414.757048 
L 192.518735 414.657371 
L 192.672899 414.563447 
L 192.911853 414.459943 
L 193.135374 414.379436 
L 193.035158 414.471452 
L 192.904113 414.599879 
L 192.738378 414.785823 
L 192.73064 414.912346 
L 192.877046 415.056126 
L 193.150645 415.146232 
L 193.335616 415.234423 
L 193.485897 415.278517 
L 193.667004 415.301533 
L 193.917491 415.313048 
L 194.102478 415.316885 
L 194.006129 415.353311 
L 193.824995 415.374382 
L 193.651573 415.414633 
L 193.516683 415.474055 
L 193.493549 415.52006 
L 193.385654 415.516227 
L 193.250782 415.485547 
L 193.05038 415.502789 
L 192.938614 415.577544 
L 192.880787 415.696399 
L 192.938568 415.824834 
L 193.065737 415.89961 
L 193.242988 415.913031 
L 193.389449 415.857447 
L 193.570573 415.790361 
L 193.747857 415.725193 
L 193.952127 415.648523 
L 194.237312 415.554605 
L 194.449269 415.529689 
L 194.564878 415.533532 
L 194.491654 415.579534 
L 194.32978 415.646621 
L 194.110101 415.713706 
L 193.90971 415.771206 
L 193.732422 415.859382 
L 193.524298 416.020397 
L 193.501151 416.133497 
L 193.616757 416.156509 
L 193.859545 416.074084 
L 194.164028 415.926496 
L 194.337459 415.836402 
L 194.553261 415.775074 
L 194.684307 415.742487 
L 194.734394 415.757822 
L 194.699706 415.807663 
L 194.510867 415.878587 
L 194.29118 415.98593 
L 194.125459 416.100942 
L 194.094599 416.204456 
L 194.179359 416.3559 
L 194.210157 416.484343 
L 194.28334 416.660704 
L 194.491424 416.814073 
L 194.63785 416.846672 
L 194.741894 416.913772 
L 194.876761 416.973206 
L 195.169618 417.001975 
L 195.38157 417.001984 
L 195.566551 417.030748 
L 195.728382 417.094012 
L 195.400816 417.120833 
L 195.16959 417.153415 
L 195.073239 417.207082 
L 195.235071 417.362368 
L 195.543327 417.554081 
L 195.83231 417.774548 
L 196.055811 417.787981 
L 196.298608 417.759238 
L 196.595336 417.717074 
L 196.641581 417.753497 
L 196.456582 417.916433 
L 196.456572 417.968195 
L 196.498914 418.144554 
L 196.595236 418.244246 
L 196.687731 418.286428 
L 196.81102 418.372698 
L 197.080774 418.378458 
L 197.427619 418.294129 
L 197.759072 418.108193 
L 197.766815 417.960591 
L 197.716727 417.853235 
L 197.689787 417.72863 
L 197.608873 417.64428 
L 197.581901 417.584851 
L 197.789994 417.590608 
L 197.990389 417.602121 
L 198.202357 417.512029 
L 198.317972 417.489036 
L 198.368057 417.512037 
L 198.302546 417.565715 
L 198.144527 417.646215 
L 198.177582 417.770597 
L 198.17918 417.776578 
L 198.267805 417.885845 
L 198.391094 417.972115 
L 198.568348 418.062226 
L 198.772572 418.123583 
L 198.976822 418.14851 
L 199.184894 418.257792 
L 199.389094 418.437997 
L 199.558653 418.522351 
L 199.747476 418.535783 
L 199.899685 418.526205 
L 200.04614 418.503205 
L 200.477753 418.422709 
L 200.971055 418.303885 
L 201.20998 418.254054 
L 201.502869 418.215728 
L 201.857417 418.18891 
L 202.250464 418.257943 
L 202.805376 418.399826 
L 203.082799 418.541695 
L 203.267754 418.695064 
L 203.493124 418.955788 
L 203.69352 418.959626 
L 203.878489 418.951969 
L 204.11358 418.879139 
L 204.182968 418.825462 
L 204.379517 418.691283 
L 204.560677 418.539852 
L 204.718708 418.40567 
L 204.957625 418.394179 
L 205.127226 418.273421 
L 205.250573 418.074063 
L 205.273758 417.788434 
L 205.366303 417.493215 
L 205.439583 417.186501 
L 205.64777 416.82804 
L 205.717153 416.711106 
L 205.736035 416.579847 
L 205.749989 416.348799 
L 205.595883 416.153254 
L 205.380124 415.915538 
L 205.210621 415.650989 
L 204.917826 415.229236 
L 204.725191 414.991512 
L 204.193607 413.944817 
L 203.947033 413.572901 
L 203.57716 413.250832 
L 203.207249 413.016937 
L 202.814228 412.710199 
L 202.621572 412.564506 
L 202.467461 412.384294 
L 202.390408 412.280775 
L 202.444376 412.184928 
L 202.344216 412.07757 
L 202.020524 411.908862 
L 201.866427 411.655808 
L 201.519665 411.303067 
L 201.188316 411.027006 
L 200.67964 410.923466 
L 200.209493 410.858267 
L 199.939769 410.678049 
L 199.654644 410.444169 
L 199.192276 410.049245 
L 199.115268 409.708021 
L 198.992 409.508641 
L 198.984336 409.247937 
L 198.868791 408.906702 
L 198.864947 408.547314 
L 198.882367 408.471552 
L 199.07894 408.322031 
L 198.998021 408.256851 
L 198.809207 408.182082 
L 198.554901 407.955859 
L 198.161924 407.380744 
L 197.930807 406.822897 
L 197.745941 406.276546 
L 197.245067 405.688003 
L 196.859766 405.29884 
L 196.647877 404.944187 
L 196.61324 404.717976 
L 196.601725 404.417013 
L 196.543941 404.298154 
L 196.39755 404.066189 
L 196.166367 403.839978 
L 195.91204 403.707696 
L 195.78871 403.717275 
L 195.580607 403.734516 
L 195.453454 403.661659 
L 195.337892 403.389447 
L 195.183786 403.151735 
L 195.091366 402.79325 
L 194.998917 402.490366 
L 194.92576 402.168303 
L 194.833322 401.903758 
L 194.598304 401.547185 
L 194.525125 401.336313 
L 194.390275 401.163778 
L 194.390318 400.929902 
L 194.170713 400.563755 
L 194.024332 400.260858 
L 193.827804 400.157334 
L 193.488721 399.921532 
L 193.257546 399.637802 
L 193.084174 399.369416 
L 193.022543 399.183471 
L 193.157458 399.012858 
L 193.145936 398.840328 
L 192.80299 398.520181 
L 192.52558 398.232621 
L 192.290549 397.927811 
L 192.059378 397.60766 
L 191.855179 397.360361 
L 191.577773 396.936693 
L 191.377407 396.710483 
L 191.157799 396.440176 
L 191.038361 396.246553 
L 190.84185 396.039513 
L 190.572142 395.70211 
L 190.468134 395.506569 
L 190.317868 395.236265 
L 189.99806 394.937208 
L 189.724496 394.588301 
L 189.443239 394.212557 
L 189.154268 393.831066 
L 188.849882 393.466825 
L 188.761263 393.286626 
L 188.826803 393.19078 
L 188.795973 393.121765 
L 188.649528 393.156261 
L 188.53777 393.160094 
L 188.437614 392.884045 
L 188.244967 392.617577 
L 188.060019 392.448869 
L 187.932872 392.20924 
L 187.763344 391.988779 
L 187.667046 391.705065 
L 187.505202 391.555527 
L 187.358789 391.406 
L 187.308723 391.248801 
L 187.208559 391.013011 
L 187.112255 390.765717 
L 186.977404 390.564428 
L 186.792436 390.389972 
L 186.622914 390.129253 
L 186.414837 389.960553 
L 186.148949 389.809102 
L 186.017976 389.483208 
L 185.806044 389.295329 
L 185.578683 389.103621 
L 185.308951 388.865905 
L 185.382231 388.618619 
L 185.397655 388.545768 
L 185.197271 388.390491 
L 184.81576 388.273538 
L 184.665472 388.210265 
L 184.515217 387.955303 
L 184.503652 387.905459 
L 184.307129 387.731004 
L 184.137585 387.587223 
L 184.10294 387.366768 
L 184.045166 387.157816 
L 183.948856 386.929692 
L 183.772474 386.714239 
L 183.76053 386.683172 
L 183.55288 386.416582 
L 183.469826 386.135677 
L 183.407553 385.936197 
L 183.155755 385.445342 
L 183.156363 385.297731 
L 183.129323 384.940635 
L 183.111706 384.612181 
L 183.1319 384.364696 
L 183.162273 384.01715 
L 183.15385 383.736341 
L 183.116837 383.49344 
L 183.051232 383.183892 
L 182.909039 382.86002 
L 182.738217 382.574057 
L 182.500429 382.24522 
L 182.329437 381.968898 
L 182.139441 381.668612 
L 181.96845 381.382742 
L 181.826445 381.054003 
L 181.750831 380.834969 
L 181.685223 380.530196 
L 181.629408 380.182552 
L 181.592788 379.825456 
L 181.55576 379.554099 
L 181.50935 379.225551 
L 181.434532 378.854039 
L 181.340328 378.501611 
L 181.274717 378.211158 
L 181.180683 377.853975 
L 181.124286 377.6063 
L 181.039481 377.315847 
L 180.945465 376.958654 
L 180.888656 376.815721 
L 180.813641 376.496625 
L 180.75703 376.29182 
L 180.653414 375.948949 
L 181.056835 375.868466 
L 181.609179 375.694489 
L 181.848577 375.392292 
L 181.959123 374.879465 
L 182.327417 374.411213 
L 182.382773 373.753074 
L 181.664861 372.992953 
L 181.499182 372.764003 
L 180.707502 372.818926 
L 180.670697 372.677819 
L 180.578686 372.368364 
L 180.560323 372.101782 
L 180.505128 371.866509 
L 180.486734 371.683356 
L 180.450005 371.173434 
L 180.468451 370.90676 
L 179.979089 370.587555 
L 179.855889 370.316008 
L 179.85764 369.94946 
L 179.840022 369.611459 
L 179.812416 369.363878 
L 179.756581 369.006781 
L 179.681373 368.697233 
L 179.625162 368.454332 
L 179.521334 368.130462 
L 179.455529 367.868559 
L 179.380515 367.520924 
L 179.353493 367.149507 
L 179.33585 366.844829 
L 179.318037 366.549698 
L 179.271819 366.17828 
L 179.216001 365.825957 
L 179.159968 365.525957 
L 179.094551 365.183088 
L 179.019537 364.830679 
L 178.992493 364.473583 
L 178.96547 364.107033 
L 178.937867 363.83081 
L 178.920249 363.49281 
L 178.854827 363.173809 
L 178.817603 362.930908 
L 178.770996 362.640456 
L 178.772161 362.411972 
L 178.821149 362.150166 
L 178.793718 361.855035 
L 178.728297 361.535941 
L 178.720082 361.231263 
L 178.730852 360.950464 
L 178.751238 360.674337 
L 178.771623 360.398303 
L 178.763774 360.041207 
L 178.736749 359.679431 
L 178.661345 359.41266 
L 178.557516 359.079243 
L 178.530295 358.769791 
L 178.522277 358.403251 
L 178.562249 358.032024 
L 178.659406 357.703668 
L 178.670386 357.398992 
L 178.69116 357.046765 
L 178.711721 356.732634 
L 178.741901 356.404183 
L 178.743479 356.051956 
L 178.735455 355.728183 
L 178.660611 355.366311 
L 178.5664 355.018667 
L 178.538986 354.737679 
L 178.501759 354.509193 
L 178.483944 354.218743 
L 178.495119 353.87129 
L 178.458088 353.590293 
L 178.459085 353.34758 
L 178.460447 353.057131 
L 178.480833 352.781097 
L 178.482003 352.514516 
L 178.464381 352.195526 
L 178.475363 351.881302 
L 178.738431 351.672512 
L 178.746976 351.538913 
L 179.242029 350.364309 
L 178.004123 347.346441 
L 177.752603 344.481342 
L 177.095233 341.758729 
L 177.203704 338.917167 
L 177.984484 337.016703 
L 177.155009 333.59224 
L 178.057146 330.968082 
L 178.171914 330.452419 
L 178.88299 327.4031 
L 179.006412 326.924701 
L 179.175819 326.268093 
L 179.388178 325.349567 
L 179.474618 324.756503 
L 179.54297 324.287518 
L 179.637474 323.638948 
L 179.750403 322.864108 
L 179.926892 320.988202 
L 179.937683 320.702621 
L 180.038592 319.54121 
L 180.143631 317.484864 
L 180.211361 316.552058 
L 180.24874 315.944812 
L 180.317403 314.828844 
L 179.756032 312.219233 
L 179.374543 310.350074 
L 179.330385 310.134748 
L 179.266539 308.586696 
L 179.228907 307.674105 
L 178.81735 306.323794 
L 178.267018 304.518147 
L 178.160308 303.619847 
L 178.097075 303.087563 
L 178.016804 302.461816 
L 177.915111 301.736597 
L 177.847409 301.253735 
L 177.765494 300.669538 
L 178.385663 300.108544 
L 179.054432 299.533633 
L 179.630128 298.982812 
L 180.142458 298.519367 
L 180.26797 298.204389 
L 180.410598 297.84642 
L 180.591335 297.39281 
L 181.066668 296.199889 
L 180.213901 294.45569 
L 180.150579 294.016541 
L 180.073401 293.481186 
L 180.017355 293.092433 
L 179.945647 292.595044 
L 179.893154 292.230918 
L 179.548112 291.544207 
L 179.354291 291.15849 
L 179.201864 290.855118 
L 179.049418 290.551746 
L 178.855615 290.166029 
L 178.564146 289.538627 
L 178.275188 288.856364 
L 177.788879 287.708084 
L 176.561474 285.340038 
L 175.381951 282.892751 
L 173.913026 280.46894 
L 173.184104 279.033516 
L 173.197754 279.002075 
L 173.039894 278.736425 
L 173.001807 278.674524 
L 172.730261 278.1398 
L 171.492453 276.469397 
L 171.4694 276.437019 
L 186.928528 276.43761 
L 187.359743 276.436693 
L 211.794106 276.379856 
L 213.03776 276.376976 
L 209.061874 275.467821 
L 204.464552 273.674901 
L 200.769229 271.544317 
L 199.479742 268.513305 
L 195.634143 266.438885 
L 191.337492 264.533313 
L 189.296099 261.783644 
L 186.969687 260.246307 
L 184.517127 254.509669 
L 183.916846 253.235806 
L 186.716562 251.147271 
L 186.840095 250.833988 
L 189.463193 249.221045 
L 195.345121 244.903792 
L 194.051068 241.567451 
L 199.230857 243.784301 
L 203.392307 245.760927 
L 208.966646 246.631535 
L 208.398939 247.491994 
L 211.557467 247.558622 
L 214.169824 246.433475 
L 217.082757 243.885317 
L 218.189767 243.056145 
L 221.090999 242.369646 
L 220.634674 240.909052 
L 220.400312 240.158644 
L 218.294809 237.421176 
L 219.757515 234.273657 
L 215.149546 233.801128 
L 213.84346 235.292959 
L 213.384251 239.66225 
L 206.665859 238.951219 
L 206.980237 234.124333 
L 207.277622 233.471966 
L 203.5351 232.609824 
L 202.755624 232.241018 
L 198.392233 230.4207 
L 196.859113 227.987248 
L 196.52951 227.464256 
L 195.095274 227.141082 
L 189.527668 226.178877 
L 188.463214 225.903358 
L 187.395079 226.226897 
L 185.952391 228.526944 
L 184.301787 231.514196 
L 179.497489 233.167693 
L 174.360225 234.871436 
L 173.840365 235.818686 
L 171.545861 240.483941 
L 171.520907 237.181451 
L 165.812325 238.135832 
L 163.405693 236.858166 
L 160.016604 234.249276 
L 157.011987 232.215291 
L 152.379666 226.147753 
L 152.461345 224.437728 
L 152.514917 223.316379 
L 152.512475 222.136171 
L 151.835395 221.084117 
L 152.92251 219.083294 
L 146.651413 214.233876 
L 145.11123 211.52648 
L 142.129123 207.92197 
L 141.748091 205.739992 
L 141.05255 205.235273 
L 143.53057 202.629097 
L 143.531914 201.371592 
L 143.251117 200.937177 
L 142.475018 199.73624 
L 139.941574 199.204904 
L 139.346334 199.067587 
L 139.317532 199.060192 
L 136.377469 198.378518 
L 134.138699 196.666116 
L 133.280061 193.866262 
L 132.602138 191.040296 
L 131.773695 189.59096 
L 131.033923 188.333268 
L 129.732177 185.782299 
L 130.518163 183.779597 
L 131.209186 180.979055 
L 131.0468 178.163094 
L 131.035083 177.959854 
L 132.51064 177.018954 
L 133.144115 174.838276 
L 135.401583 174.600176 
L 138.344378 171.717575 
L 135.408374 171.767528 
L 133.953264 170.478645 
L 133.052886 169.136745 
L 135.150238 168.095533 
L 145.805782 158.559314 
L 144.607191 157.069839 
L 211.226057 147.621724 
L 431.098388 117.635686 
L 431.107719 129.342879 
L 432.448601 137.645618 
L 433.92488 144.810137 
L 436.208385 152.845223 
L 439.434155 161.081335 
L 444.139783 170.857695 
" style="fill:#1a1a1a;stroke:#ffffff;stroke-linejoin:miter;stroke-width:4;"/>
   </g>
  </g>
 </g>
 <defs>
  <clipPath id="p5e33ffb173">
   <rect height="543.6" width="558" x="90" y="86.4"/>
  </clipPath>
 </defs>
</svg>
