<?xml version="1.0" encoding="utf-8" standalone="no"?>
<!DOCTYPE svg PUBLIC "-//W3C//DTD SVG 1.1//EN"
  "http://www.w3.org/Graphics/SVG/1.1/DTD/svg11.dtd">
<!-- Created with matplotlib (https://matplotlib.org/) -->
<svg height="720pt" version="1.1" viewBox="0 0 720 720" width="720pt" xmlns="http://www.w3.org/2000/svg" xmlns:xlink="http://www.w3.org/1999/xlink">
 <metadata>
  <rdf:RDF xmlns:cc="http://creativecommons.org/ns#" xmlns:dc="http://purl.org/dc/elements/1.1/" xmlns:rdf="http://www.w3.org/1999/02/22-rdf-syntax-ns#">
   <cc:Work>
    <dc:type rdf:resource="http://purl.org/dc/dcmitype/StillImage"/>
    <dc:date>2021-05-07T11:03:00.066533</dc:date>
    <dc:format>image/svg+xml</dc:format>
    <dc:creator>
     <cc:Agent>
      <dc:title>Matplotlib v3.3.3, https://matplotlib.org/</dc:title>
     </cc:Agent>
    </dc:creator>
   </cc:Work>
  </rdf:RDF>
 </metadata>
 <defs>
  <style type="text/css">*{stroke-linecap:butt;stroke-linejoin:round;}</style>
 </defs>
 <g id="figure_1">
  <g id="patch_1">
   <path d="M 0 720 
L 720 720 
L 720 0 
L 0 0 
z
" style="fill:none;"/>
  </g>
  <g id="axes_1">
   <g id="patch_2">
    <path clip-path="url(#p1457d8a58c)" d="M 465.376372 228.75425 
L 535.40097 307.442838 
L 537.907055 309.334649 
L 546.109952 315.526543 
L 580.864876 341.76039 
L 580.866863 356.016949 
L 580.885607 490.770638 
L 582.788318 498.299479 
L 583.879597 502.615367 
L 488.638045 525.20551 
L 469.029098 529.701562 
L 458.755262 531.45517 
L 448.94308 532.655599 
L 437.168147 533.211224 
L 368.93637 531.890584 
L 281.013383 530.405979 
L 275.689951 530.407547 
L 267.619325 531.232731 
L 259.548841 532.332223 
L 190.351488 545.656046 
L 170.029545 549.044934 
L 163.561775 520.165311 
L 159.745285 501.809928 
L 156.643977 480.835705 
L 154.454779 459.881637 
L 154.120403 446.056784 
L 154.729378 434.502069 
L 155.92619 421.745875 
L 157.185894 413.797119 
L 158.706874 406.58539 
L 162.340828 392.695042 
L 166.568379 379.704245 
L 170.89795 369.316514 
L 171.758789 367.251144 
L 180.291537 350.28473 
L 189.681205 334.604509 
L 197.448432 323.488673 
L 207.326596 311.688132 
L 220.072991 296.576729 
L 236.168508 278.567212 
L 252.409325 289.257952 
L 258.534186 283.219453 
L 274.564239 277.720642 
L 279.300999 273.716903 
L 283.082836 270.364525 
L 286.774279 266.948597 
L 289.242721 264.578627 
L 292.610364 261.229928 
L 295.892359 257.827526 
L 298.658577 254.844622 
L 301.358734 251.823434 
L 304.043897 248.704102 
L 306.658682 245.546973 
L 309.266676 242.270858 
L 311.798969 238.957165 
L 314.282916 235.567558 
L 316.687694 232.141805 
L 319.037711 228.643123 
L 321.30497 225.109872 
L 321.305061 225.109144 
L 322.535711 223.120182 
L 324.68459 219.51499 
L 326.047535 217.132898 
L 327.163744 215.121893 
L 328.379548 212.865214 
L 332.143714 205.654698 
L 333.20613 203.616638 
L 336.545345 197.211312 
L 339.522649 191.500386 
L 341.449082 187.804955 
L 341.870303 187.025298 
L 344.562627 182.986522 
L 347.30961 179.882251 
L 349.938765 177.489197 
L 353.301401 174.998775 
L 356.436638 173.112497 
L 360.650857 171.096576 
L 363.669618 169.959318 
L 367.427811 168.854169 
L 373.255376 167.74951 
L 377.954224 167.355066 
L 383.603661 167.443307 
L 389.543781 168.205635 
L 395.237352 169.626726 
L 399.758363 171.300718 
L 404.008551 173.399513 
L 407.767845 175.784373 
L 411.42979 178.744231 
L 462.876722 225.945775 
L 465.376372 228.75425 
" style="stroke:#ffffff;stroke-linejoin:miter;stroke-width:2;"/>
   </g>
  </g>
 </g>
 <defs>
  <clipPath id="p1457d8a58c">
   <rect height="543.6" width="558" x="90" y="86.4"/>
  </clipPath>
 </defs>
</svg>
