<?xml version="1.0" encoding="utf-8" standalone="no"?>
<!DOCTYPE svg PUBLIC "-//W3C//DTD SVG 1.1//EN"
  "http://www.w3.org/Graphics/SVG/1.1/DTD/svg11.dtd">
<!-- Created with matplotlib (https://matplotlib.org/) -->
<svg height="720pt" version="1.1" viewBox="0 0 720 720" width="720pt" xmlns="http://www.w3.org/2000/svg" xmlns:xlink="http://www.w3.org/1999/xlink">
 <metadata>
  <rdf:RDF xmlns:cc="http://creativecommons.org/ns#" xmlns:dc="http://purl.org/dc/elements/1.1/" xmlns:rdf="http://www.w3.org/1999/02/22-rdf-syntax-ns#">
   <cc:Work>
    <dc:type rdf:resource="http://purl.org/dc/dcmitype/StillImage"/>
    <dc:date>2021-05-28T08:56:46.934879</dc:date>
    <dc:format>image/svg+xml</dc:format>
    <dc:creator>
     <cc:Agent>
      <dc:title>Matplotlib v3.3.3, https://matplotlib.org/</dc:title>
     </cc:Agent>
    </dc:creator>
   </cc:Work>
  </rdf:RDF>
 </metadata>
 <defs>
  <style type="text/css">*{stroke-linecap:butt;stroke-linejoin:round;}</style>
 </defs>
 <g id="figure_1">
  <g id="patch_1">
   <path d="M 0 720 
L 720 720 
L 720 0 
L 0 0 
z
" style="fill:none;"/>
  </g>
  <g id="axes_1">
   <g id="patch_2">
    <path clip-path="url(#pd6c72117ab)" d="M 539.452927 177.577505 
L 540.907876 182.440862 
L 541.790699 182.07257 
L 542.899667 182.062557 
L 546.03708 182.143028 
L 551.837577 182.21287 
L 561.467851 182.202723 
L 562.514794 183.860647 
L 567.581929 183.855404 
L 569.833793 184.093544 
L 571.462438 183.902705 
L 573.581519 183.243369 
L 575.882942 182.82204 
L 585.838146 182.811969 
L 596.50576 182.905599 
L 599.607054 182.908543 
L 618.339351 182.895022 
L 618.557246 195.264157 
L 618.802271 209.068415 
L 618.771325 222.251053 
L 618.281426 247.825663 
L 617.600989 266.482443 
L 616.483876 287.996072 
L 614.606939 317.798239 
L 612.710111 335.052911 
L 610.535683 371.190934 
L 608.075168 405.767063 
L 607.510665 421.526144 
L 606.676653 475.051686 
L 606.718499 521.063278 
L 584.778392 521.296416 
L 580.557387 521.275193 
L 578.519349 521.237007 
L 552.046045 520.741631 
L 457.298158 520.675826 
L 416.984613 520.440526 
L 394.992459 520.279699 
L 369.528345 520.31521 
L 362.58759 520.229257 
L 360.976443 519.989537 
L 359.983582 519.754873 
L 358.659672 519.284569 
L 357.539298 518.68682 
L 356.393393 517.943793 
L 355.463824 517.200445 
L 354.636054 516.420638 
L 353.527988 515.187137 
L 352.188294 513.43253 
L 347.097591 507.041376 
L 343.91163 503.575687 
L 340.370351 501.034012 
L 336.542683 498.999224 
L 334.933882 498.626141 
L 332.4587 498.052164 
L 328.465382 498.176284 
L 326.586155 498.537766 
L 323.501924 499.331879 
L 319.864768 501.229048 
L 316.050572 504.422364 
L 313.284495 507.718331 
L 310.637688 511.848228 
L 308.771929 515.917367 
L 308.627925 516.318587 
L 307.183276 520.34355 
L 305.990137 524.798904 
L 304.906447 528.267878 
L 303.098197 533.085136 
L 301.883847 536.355695 
L 300.587723 539.191371 
L 299.113501 542.136327 
L 297.740618 544.390896 
L 296.037023 546.900272 
L 294.511176 548.791819 
L 292.883409 550.538216 
L 290.899654 552.757446 
L 288.940872 554.322745 
L 286.396925 556.21598 
L 282.809406 558.110945 
L 279.832289 559.350987 
L 275.404028 560.121229 
L 271.586011 560.054924 
L 267.920348 559.479794 
L 264.661666 558.54075 
L 252.72976 554.089751 
L 253.217116 551.413878 
L 254.879665 539.393766 
L 256.204531 526.107187 
L 256.458685 508.99815 
L 256.582222 495.713619 
L 255.904216 481.625329 
L 253.889633 465.325284 
L 251.742556 450.43441 
L 249.062348 436.752124 
L 245.044981 420.254272 
L 237.535032 397.083897 
L 233.688662 386.64175 
L 228.882477 376.040547 
L 223.435598 364.315283 
L 216.922088 352.270478 
L 184.545556 294.418156 
L 164.722488 258.318577 
L 158.44535 245.435237 
L 150.174123 227.157814 
L 145.78922 217.41986 
L 141.40592 209.631218 
L 137.520929 203.041222 
L 132.442236 196.453577 
L 127.264539 190.46597 
L 119.197729 181.861283 
L 123.65164 181.875334 
L 125.104442 181.858641 
L 127.731455 181.828748 
L 149.784863 181.569076 
L 169.061841 181.316925 
L 195.941512 180.96682 
L 202.189371 180.887287 
L 232.794435 180.489071 
L 235.844832 180.450135 
L 290.498458 179.749034 
L 344.441865 179.061194 
L 348.261144 179.04644 
L 350.083168 179.044451 
L 350.992052 179.576497 
L 352.208938 180.154463 
L 353.163882 180.47772 
L 354.842593 180.906877 
L 369.759599 180.994455 
L 417.535955 181.416747 
L 454.166152 181.597181 
L 488.312336 181.960589 
L 498.907526 181.885921 
L 502.236515 181.694353 
L 506.43615 180.516836 
L 510.666298 178.119851 
L 514.869292 173.914521 
L 525.766542 156.278771 
L 534.097365 167.751219 
L 536.46794 171.173955 
L 539.452927 177.577505 
" style="fill:#1a1a1a;stroke:#ffffff;stroke-linejoin:miter;stroke-width:4;"/>
   </g>
  </g>
 </g>
 <defs>
  <clipPath id="pd6c72117ab">
   <rect height="543.6" width="558" x="90" y="86.4"/>
  </clipPath>
 </defs>
</svg>
