<?xml version="1.0" encoding="utf-8" standalone="no"?>
<!DOCTYPE svg PUBLIC "-//W3C//DTD SVG 1.1//EN"
  "http://www.w3.org/Graphics/SVG/1.1/DTD/svg11.dtd">
<!-- Created with matplotlib (https://matplotlib.org/) -->
<svg height="720pt" version="1.1" viewBox="0 0 720 720" width="720pt" xmlns="http://www.w3.org/2000/svg" xmlns:xlink="http://www.w3.org/1999/xlink">
 <metadata>
  <rdf:RDF xmlns:cc="http://creativecommons.org/ns#" xmlns:dc="http://purl.org/dc/elements/1.1/" xmlns:rdf="http://www.w3.org/1999/02/22-rdf-syntax-ns#">
   <cc:Work>
    <dc:type rdf:resource="http://purl.org/dc/dcmitype/StillImage"/>
    <dc:date>2021-05-07T11:03:02.441872</dc:date>
    <dc:format>image/svg+xml</dc:format>
    <dc:creator>
     <cc:Agent>
      <dc:title>Matplotlib v3.3.3, https://matplotlib.org/</dc:title>
     </cc:Agent>
    </dc:creator>
   </cc:Work>
  </rdf:RDF>
 </metadata>
 <defs>
  <style type="text/css">*{stroke-linecap:butt;stroke-linejoin:round;}</style>
 </defs>
 <g id="figure_1">
  <g id="patch_1">
   <path d="M 0 720 
L 720 720 
L 720 0 
L 0 0 
z
" style="fill:none;"/>
  </g>
  <g id="axes_1">
   <g id="patch_2">
    <path clip-path="url(#pd58fe059dc)" d="M 583.950749 138.189752 
L 584.011917 142.904233 
L 584.157868 147.617312 
L 584.388598 152.327804 
L 583.832795 166.383262 
L 583.739548 179.437307 
L 584.205538 190.331438 
L 585.454694 198.378336 
L 587.386777 211.920871 
L 590.202061 225.305713 
L 594.319387 238.413659 
L 611.899122 291.632636 
L 611.898245 291.632878 
L 609.244053 292.351571 
L 604.726529 293.638182 
L 599.098882 295.354578 
L 593.518181 297.183993 
L 587.98742 299.125446 
L 582.509544 301.177898 
L 577.087477 303.340247 
L 571.724127 305.611333 
L 566.422353 307.989966 
L 561.184974 310.474865 
L 556.014797 313.064704 
L 550.914573 315.758097 
L 545.887037 318.553599 
L 540.934874 321.449733 
L 536.060697 324.444948 
L 531.267154 327.537633 
L 526.556758 330.726147 
L 521.932068 334.00879 
L 517.39551 337.383799 
L 512.949543 340.849369 
L 508.596502 344.403678 
L 504.338745 348.0448 
L 500.17852 351.770794 
L 496.118063 355.579689 
L 492.15952 359.469423 
L 488.305022 363.43795 
L 484.556613 367.483119 
L 480.916301 371.602794 
L 477.386027 375.794778 
L 473.967662 380.056816 
L 470.663043 384.386652 
L 467.473936 388.781954 
L 464.402024 393.240391 
L 461.448952 397.759572 
L 458.616299 402.337092 
L 455.905573 406.9705 
L 453.606412 411.12134 
L 451.356256 415.175694 
L 449.956481 417.919948 
L 448.577754 420.672168 
L 446.625111 424.845011 
L 432.774225 452.911008 
L 428.441872 461.574831 
L 428.432988 461.592128 
L 425.429591 467.295466 
L 422.301246 472.947387 
L 419.049105 478.545818 
L 415.674404 484.088671 
L 412.178364 489.573918 
L 408.562291 494.999532 
L 404.827507 500.363514 
L 404.111655 501.365706 
L 404.110676 501.367059 
L 403.477059 502.247423 
L 403.475205 502.249979 
L 403.362716 502.405606 
L 402.25995 503.9213 
L 401.03203 505.587593 
L 400.975473 505.663822 
L 399.79256 507.247369 
L 398.541592 508.90054 
L 397.27916 510.547074 
L 397.007667 510.898368 
L 396.522544 511.523643 
L 396.005315 512.186881 
L 395.878904 512.348429 
L 395.015785 513.446109 
L 394.720179 513.819842 
L 393.423597 515.446136 
L 392.925222 516.065694 
L 392.538345 516.544537 
L 392.115808 517.065448 
L 391.797285 517.456708 
L 390.796658 518.677989 
L 390.017103 519.621299 
L 389.466612 520.283172 
L 389.32501 520.452851 
L 388.879324 520.985463 
L 388.878397 520.986575 
L 388.727522 521.166358 
L 388.125308 521.881464 
L 386.773004 523.472533 
L 386.772609 523.472984 
L 385.409529 525.05659 
L 384.422963 526.190409 
L 384.035156 526.633305 
L 382.873249 527.950951 
L 382.649852 528.202722 
L 382.475097 528.399312 
L 381.253686 529.764782 
L 380.005915 531.144464 
L 379.846692 531.319424 
L 378.554269 532.73057 
L 378.428921 532.866588 
L 378.271292 533.037416 
L 377.000443 534.406215 
L 376.83316 534.585256 
L 376.553955 534.883552 
L 376.331397 535.120786 
L 376.315548 535.137687 
L 375.561308 535.938259 
L 375.482078 536.022059 
L 374.111551 537.46266 
L 373.024134 538.593816 
L 372.65124 538.979342 
L 372.48218 539.153715 
L 371.180428 540.488277 
L 371.007673 540.664277 
L 370.31699 541.36553 
L 369.972505 541.713775 
L 369.699149 541.989418 
L 369.307316 542.383396 
L 369.27048 542.420419 
L 368.207488 543.482661 
L 368.031978 543.657164 
L 366.70536 544.968126 
L 366.114764 545.547227 
L 365.193193 546.445361 
L 364.895916 546.733653 
L 363.670594 547.914759 
L 362.137991 549.375927 
L 361.276542 550.189449 
L 360.82123 550.617216 
L 360.692301 550.738058 
L 360.595179 550.829017 
L 359.12949 552.193265 
L 359.042311 552.273923 
L 359.028743 552.286466 
L 358.852185 552.449603 
L 357.479422 553.710585 
L 357.283866 553.889111 
L 356.334213 554.75233 
L 355.906599 555.138958 
L 355.709837 555.316435 
L 354.323909 556.558951 
L 354.125067 556.736146 
L 353.385084 557.393189 
L 352.731353 557.97058 
L 351.295901 559.228396 
L 351.129052 559.373725 
L 350.462356 559.952563 
L 349.517004 560.768386 
L 349.311745 560.944749 
L 347.895348 562.154457 
L 347.682752 562.3349 
L 347.028488 562.888523 
L 347.019333 562.896239 
L 346.264083 563.531938 
L 346.159269 563.619875 
L 344.873962 564.6927 
L 344.623278 564.900754 
L 344.553178 564.958864 
L 342.973003 566.260876 
L 341.799349 567.21817 
L 341.313307 567.612212 
L 341.08024 567.800659 
L 340.229425 568.485931 
L 340.157227 568.543879 
L 340.154702 568.545895 
L 339.652678 568.948024 
L 339.644261 568.954764 
L 338.128249 570.16016 
L 337.965932 570.28844 
L 336.278511 571.613106 
L 335.869888 571.931474 
L 335.862243 571.937402 
L 335.596217 572.144157 
L 334.581652 572.929032 
L 332.87582 574.235842 
L 331.846219 575.01691 
L 331.160947 575.533597 
L 330.873661 575.749453 
L 330.179399 576.269291 
L 329.4371 576.822266 
L 327.842868 578.000047 
L 327.703748 578.102195 
L 327.457978 578.282403 
L 327.396045 578.327738 
L 327.110228 578.536835 
L 327.061335 578.572585 
L 327.055992 578.576482 
L 325.962299 579.372392 
L 325.798336 579.491185 
L 325.263253 579.877883 
L 325.257498 579.882036 
L 313.690839 574.922184 
L 306.266211 571.86751 
L 306.033559 571.770519 
L 297.860245 568.282498 
L 297.846696 568.276645 
L 289.739983 564.685063 
L 289.486135 564.570084 
L 281.660116 560.973349 
L 281.256274 560.784036 
L 274.43538 557.542005 
L 273.047672 556.81853 
L 272.840739 556.707918 
L 270.089645 555.173085 
L 269.951132 555.092577 
L 267.253017 553.450988 
L 267.147989 553.384774 
L 264.477011 551.617018 
L 264.416741 551.575895 
L 263.381926 550.850365 
L 262.578092 550.270612 
L 261.010126 549.102341 
L 259.464953 547.908509 
L 257.937491 546.694726 
L 255.667907 544.84853 
L 250.898612 540.883447 
L 250.896131 540.881363 
L 244.871014 535.724204 
L 244.866465 535.720276 
L 244.863691 535.717832 
L 238.934873 530.474335 
L 238.93427 530.473796 
L 238.932581 530.472281 
L 237.014896 528.739044 
L 233.654953 525.656971 
L 233.099838 525.14213 
L 233.09608 525.138606 
L 229.847724 522.093057 
L 227.371924 519.733464 
L 227.371442 519.733015 
L 227.368494 519.730196 
L 227.36815 519.729851 
L 227.367753 519.729476 
L 221.740327 514.23817 
L 221.73812 514.235996 
L 216.214336 508.665199 
L 216.211371 508.662184 
L 212.898281 505.230704 
L 210.793383 503.014052 
L 210.789918 503.010378 
L 208.613661 500.6879 
L 196.754014 487.069651 
L 184.903047 472.481385 
L 173.233841 458.051736 
L 155.985495 432.659458 
L 155.935433 432.585767 
L 147.97889 425.457647 
L 145.10813 421.087474 
L 143.041567 417.942211 
L 140.677031 414.376524 
L 140.127198 413.502677 
L 137.252544 409.089071 
L 134.366133 404.680388 
L 131.479705 400.271698 
L 128.593245 395.863032 
L 126.375958 392.502232 
L 126.100878 392.085287 
L 258.572898 391.885436 
L 248.828261 380.789136 
L 248.83184 380.789131 
L 246.022698 377.594488 
L 229.98544 359.333835 
L 229.973774 353.29459 
L 229.99718 330.520619 
L 229.997293 330.071102 
L 230.003194 306.787018 
L 234.038371 306.776163 
L 234.037443 306.767934 
L 234.053498 306.767866 
L 233.911177 305.513298 
L 233.43758 303.795748 
L 232.564579 301.965596 
L 230.077113 300.939114 
L 227.222582 298.925286 
L 227.016123 296.760519 
L 231.232751 295.619347 
L 232.539625 294.247072 
L 232.771946 292.170474 
L 228.086075 291.597406 
L 228.203889 287.427089 
L 225.604597 282.536269 
L 220.475103 282.104939 
L 219.029934 278.43445 
L 221.695743 274.51218 
L 225.264827 275.078997 
L 225.265668 275.077554 
L 225.275617 275.079132 
L 228.370379 269.799018 
L 222.967857 261.199131 
L 220.024323 258.360718 
L 219.930028 258.269789 
L 219.923097 258.263116 
L 218.618842 257.005422 
L 216.675962 255.131907 
L 212.67582 254.574517 
L 211.773277 250.170178 
L 208.639262 236.562593 
L 207.435942 234.200482 
L 207.391024 223.452537 
L 207.412348 217.942828 
L 207.417862 217.586791 
L 207.439078 216.224485 
L 207.485756 213.225642 
L 208.465517 210.832218 
L 210.929201 207.572874 
L 215.432129 205.33109 
L 219.415185 204.672592 
L 220.247531 202.525812 
L 220.261013 197.928078 
L 218.809325 193.88148 
L 215.259587 192.319645 
L 212.247868 192.651485 
L 207.786271 193.139761 
L 201.160557 195.438915 
L 196.933467 193.062659 
L 195.862338 189.565402 
L 195.022512 184.082491 
L 192.422984 176.140621 
L 189.838054 171.860249 
L 189.14424 170.885721 
L 187.229925 165.396723 
L 184.790059 158.843728 
L 182.901208 154.511694 
L 180.921175 151.280343 
L 178.038031 148.424602 
L 177.726179 145.822116 
L 171.505385 140.185694 
L 171.50138 138.191579 
L 303.138712 139.261884 
L 303.435213 139.255972 
L 303.435222 139.260838 
L 369.691567 139.027976 
L 384.558116 138.972502 
L 396.714093 138.937259 
L 430.668463 138.840003 
L 443.691348 138.80473 
L 444.528468 138.801392 
L 448.126514 138.791399 
L 458.373053 138.76302 
L 468.619592 138.734745 
L 478.866115 138.706573 
L 483.151161 138.694826 
L 489.112736 138.728529 
L 497.209418 138.774374 
L 498.888571 138.728224 
L 499.359301 138.715567 
L 500.608173 138.682014 
L 501.806468 138.65435 
L 502.221574 138.644765 
L 503.885529 138.598642 
L 505.529181 138.490748 
L 506.864248 138.356765 
L 507.996992 138.21418 
L 508.998191 138.054107 
L 510.419085 137.814105 
L 511.561795 137.583267 
L 512.390992 137.388096 
L 513.240468 137.228209 
L 514.25179 137.06813 
L 515.344071 136.925616 
L 516.406063 136.818432 
L 517.356845 136.764349 
L 521.782559 136.696702 
L 526.122055 136.682324 
L 529.187844 136.672165 
L 530.461551 136.667949 
L 563.079334 136.576187 
L 583.975445 136.517964 
L 583.950749 138.189752 
" style="stroke:#ffffff;stroke-linejoin:miter;stroke-width:2;"/>
   </g>
  </g>
 </g>
 <defs>
  <clipPath id="pd58fe059dc">
   <rect height="543.6" width="558" x="90" y="86.4"/>
  </clipPath>
 </defs>
</svg>
