<?xml version="1.0" encoding="utf-8" standalone="no"?>
<!DOCTYPE svg PUBLIC "-//W3C//DTD SVG 1.1//EN"
  "http://www.w3.org/Graphics/SVG/1.1/DTD/svg11.dtd">
<!-- Created with matplotlib (https://matplotlib.org/) -->
<svg height="720pt" version="1.1" viewBox="0 0 720 720" width="720pt" xmlns="http://www.w3.org/2000/svg" xmlns:xlink="http://www.w3.org/1999/xlink">
 <metadata>
  <rdf:RDF xmlns:cc="http://creativecommons.org/ns#" xmlns:dc="http://purl.org/dc/elements/1.1/" xmlns:rdf="http://www.w3.org/1999/02/22-rdf-syntax-ns#">
   <cc:Work>
    <dc:type rdf:resource="http://purl.org/dc/dcmitype/StillImage"/>
    <dc:date>2021-05-28T08:56:53.243791</dc:date>
    <dc:format>image/svg+xml</dc:format>
    <dc:creator>
     <cc:Agent>
      <dc:title>Matplotlib v3.3.3, https://matplotlib.org/</dc:title>
     </cc:Agent>
    </dc:creator>
   </cc:Work>
  </rdf:RDF>
 </metadata>
 <defs>
  <style type="text/css">*{stroke-linecap:butt;stroke-linejoin:round;}</style>
 </defs>
 <g id="figure_1">
  <g id="patch_1">
   <path d="M 0 720 
L 720 720 
L 720 0 
L 0 0 
z
" style="fill:none;"/>
  </g>
  <g id="axes_1">
   <g id="patch_2">
    <path clip-path="url(#pb7895c7c89)" d="M 591.146418 165.230526 
L 589.12021 172.618399 
L 587.930267 180.815865 
L 587.384447 192.217527 
L 587.408203 226.066737 
L 587.794352 276.763342 
L 587.815839 288.091802 
L 587.862607 301.572211 
L 587.830761 307.532053 
L 587.743586 312.425113 
L 587.457457 317.508871 
L 587.43055 325.740794 
L 587.460224 335.359534 
L 587.099103 348.29112 
L 586.988023 351.630442 
L 587.121597 356.855599 
L 587.139706 358.020702 
L 569.067579 357.942889 
L 559.314807 357.950242 
L 545.320498 357.975273 
L 531.191137 358.718221 
L 517.138976 358.711843 
L 503.301528 358.705659 
L 488.967802 358.699381 
L 474.713167 358.693265 
L 474.925914 374.350746 
L 474.924212 376.450028 
L 474.690243 399.141521 
L 474.678852 419.238519 
L 474.667237 439.741844 
L 474.643825 480.884001 
L 474.782537 542.408707 
L 474.79517 547.995348 
L 474.839059 548.265038 
L 472.380424 548.263385 
L 450.986718 548.252621 
L 447.974567 551.169474 
L 434.851151 551.164149 
L 421.086453 551.158683 
L 407.719503 551.153511 
L 394.198284 551.148416 
L 380.894744 551.143539 
L 367.310061 551.138672 
L 353.912798 551.133986 
L 340.270379 551.12933 
L 326.7026 551.081704 
L 313.11218 551.034139 
L 299.525973 550.98669 
L 285.413387 550.93752 
L 272.352287 550.89214 
L 258.685052 550.844755 
L 230.451173 550.747472 
L 217.03244 550.701432 
L 202.556925 550.651883 
L 189.572189 550.456749 
L 174.662644 550.556781 
L 161.385501 550.616786 
L 155.894822 550.621786 
L 147.754404 550.678714 
L 147.705283 535.924443 
L 147.753779 480.854821 
L 147.659394 470.662802 
L 147.649544 458.12528 
L 147.631029 440.166955 
L 147.63396 417.969652 
L 147.613976 400.137001 
L 147.605248 394.456967 
L 147.620813 358.768511 
L 147.890481 339.879025 
L 146.853582 317.531368 
L 146.866152 275.872939 
L 146.877747 236.315148 
L 146.888964 196.757863 
L 147.755348 166.252793 
L 161.552528 166.510676 
L 175.29392 165.282476 
L 203.196845 165.289054 
L 231.099796 165.29612 
L 259.002828 165.303743 
L 285.324902 165.311656 
L 312.00285 165.258533 
L 339.7287 165.329424 
L 367.176399 165.33909 
L 381.302 165.344246 
L 436.088805 165.365436 
L 474.571453 165.381432 
L 531.326725 166.143781 
L 580.323026 165.391639 
L 589.218008 165.241004 
L 591.146418 165.230526 
" style="fill:#1a1a1a;stroke:#ffffff;stroke-linejoin:miter;stroke-width:4;"/>
   </g>
  </g>
 </g>
 <defs>
  <clipPath id="pb7895c7c89">
   <rect height="543.6" width="558" x="90" y="86.4"/>
  </clipPath>
 </defs>
</svg>
