<?xml version="1.0" encoding="utf-8" standalone="no"?>
<!DOCTYPE svg PUBLIC "-//W3C//DTD SVG 1.1//EN"
  "http://www.w3.org/Graphics/SVG/1.1/DTD/svg11.dtd">
<!-- Created with matplotlib (https://matplotlib.org/) -->
<svg height="720pt" version="1.1" viewBox="0 0 720 720" width="720pt" xmlns="http://www.w3.org/2000/svg" xmlns:xlink="http://www.w3.org/1999/xlink">
 <metadata>
  <rdf:RDF xmlns:cc="http://creativecommons.org/ns#" xmlns:dc="http://purl.org/dc/elements/1.1/" xmlns:rdf="http://www.w3.org/1999/02/22-rdf-syntax-ns#">
   <cc:Work>
    <dc:type rdf:resource="http://purl.org/dc/dcmitype/StillImage"/>
    <dc:date>2021-05-07T11:03:06.554589</dc:date>
    <dc:format>image/svg+xml</dc:format>
    <dc:creator>
     <cc:Agent>
      <dc:title>Matplotlib v3.3.3, https://matplotlib.org/</dc:title>
     </cc:Agent>
    </dc:creator>
   </cc:Work>
  </rdf:RDF>
 </metadata>
 <defs>
  <style type="text/css">*{stroke-linecap:butt;stroke-linejoin:round;}</style>
 </defs>
 <g id="figure_1">
  <g id="patch_1">
   <path d="M 0 720 
L 720 720 
L 720 0 
L 0 0 
z
" style="fill:none;"/>
  </g>
  <g id="axes_1">
   <g id="patch_2">
    <path clip-path="url(#p5fa401c237)" d="M 593.98966 165.615608 
L 594.385865 312.518125 
L 595.671055 346.086335 
L 597.144955 378.044637 
L 598.622608 405.246655 
L 601.033787 436.958574 
L 604.938134 476.352007 
L 607.538676 505.339271 
L 610.163821 549.813937 
L 595.762605 549.987325 
L 567.862881 549.849072 
L 559.580699 549.818817 
L 508.453857 550.174251 
L 426.934589 550.179306 
L 421.796985 549.834013 
L 275.517498 550.55935 
L 231.320401 550.784392 
L 130.217888 550.752337 
L 129.574851 550.751857 
L 129.541976 538.951752 
L 127.891983 509.900421 
L 127.911723 406.082796 
L 127.836179 237.866167 
L 128.066123 168.18421 
L 131.268443 166.208102 
L 137.689693 166.193947 
L 220.6361 166.084346 
L 272.474827 166.018877 
L 275.776194 166.023514 
L 420.292445 165.828774 
L 423.911643 165.869344 
L 458.684971 165.814785 
L 530.571898 165.70535 
L 593.98966 165.615608 
" style="stroke:#ffffff;stroke-linejoin:miter;stroke-width:2;"/>
   </g>
  </g>
 </g>
 <defs>
  <clipPath id="p5fa401c237">
   <rect height="543.6" width="558" x="90" y="86.4"/>
  </clipPath>
 </defs>
</svg>
