<?xml version="1.0" encoding="utf-8" standalone="no"?>
<!DOCTYPE svg PUBLIC "-//W3C//DTD SVG 1.1//EN"
  "http://www.w3.org/Graphics/SVG/1.1/DTD/svg11.dtd">
<!-- Created with matplotlib (https://matplotlib.org/) -->
<svg height="720pt" version="1.1" viewBox="0 0 720 720" width="720pt" xmlns="http://www.w3.org/2000/svg" xmlns:xlink="http://www.w3.org/1999/xlink">
 <metadata>
  <rdf:RDF xmlns:cc="http://creativecommons.org/ns#" xmlns:dc="http://purl.org/dc/elements/1.1/" xmlns:rdf="http://www.w3.org/1999/02/22-rdf-syntax-ns#">
   <cc:Work>
    <dc:type rdf:resource="http://purl.org/dc/dcmitype/StillImage"/>
    <dc:date>2021-05-07T11:03:05.443215</dc:date>
    <dc:format>image/svg+xml</dc:format>
    <dc:creator>
     <cc:Agent>
      <dc:title>Matplotlib v3.3.3, https://matplotlib.org/</dc:title>
     </cc:Agent>
    </dc:creator>
   </cc:Work>
  </rdf:RDF>
 </metadata>
 <defs>
  <style type="text/css">*{stroke-linecap:butt;stroke-linejoin:round;}</style>
 </defs>
 <g id="figure_1">
  <g id="patch_1">
   <path d="M 0 720 
L 720 720 
L 720 0 
L 0 0 
z
" style="fill:none;"/>
  </g>
  <g id="axes_1">
   <g id="patch_2">
    <path clip-path="url(#p6ad817fd32)" d="M 586.250399 160.644824 
L 586.321091 266.619503 
L 586.171764 412.231812 
L 586.234192 429.960905 
L 585.466029 438.862766 
L 583.752908 449.865482 
L 582.477561 458.734316 
L 581.841914 465.081749 
L 581.5766 472.772088 
L 581.903913 542.097766 
L 582.56989 546.547121 
L 584.408064 551.489274 
L 586.631742 555.112298 
L 590.940851 560.050988 
L 596.548694 564.493387 
L 604.382319 569.364199 
L 594.419237 575.704874 
L 591.381866 578.024497 
L 577.497301 586.232183 
L 570.232069 586.224542 
L 567.486146 586.221623 
L 498.410744 586.151781 
L 414.857982 586.068848 
L 308.112225 585.94627 
L 245.095115 585.877062 
L 245.090251 584.688428 
L 245.10033 542.185289 
L 198.682938 526.793327 
L 133.617681 503.771884 
L 156.107885 488.904489 
L 163.633851 483.679296 
L 167.931391 479.94881 
L 171.250782 476.716413 
L 190.083983 455.958686 
L 233.397216 408.48588 
L 238.245499 403.170917 
L 240.75771 399.849533 
L 243.017046 396.448623 
L 244.018926 394.368683 
L 244.706536 392.648954 
L 245.767873 389.649659 
L 246.825661 385.771072 
L 247.12433 381.533992 
L 247.088004 372.501323 
L 247.030594 325.727754 
L 247.14285 266.858076 
L 247.455589 160.273897 
L 265.035331 160.467736 
L 281.778101 161.048275 
L 297.776302 162.102454 
L 314.095671 163.493634 
L 329.136782 165.224322 
L 344.071702 167.090252 
L 358.474978 169.361968 
L 369.465916 171.571574 
L 378.189008 173.246445 
L 401.856923 177.91163 
L 411.143143 179.451999 
L 419.468486 180.235614 
L 427.070346 180.461419 
L 434.769946 180.350348 
L 440.976156 180.092279 
L 447.338021 179.435974 
L 456.761965 178.178073 
L 466.183918 176.372948 
L 473.954634 174.22202 
L 480.076651 172.421848 
L 501.772117 163.410248 
L 532.707182 150.478779 
L 537.183755 148.542977 
L 541.486976 146.352618 
L 544.756357 144.382176 
L 547.623233 142.375909 
L 553.068488 138.036193 
L 556.910296 135.373303 
L 559.83642 133.840202 
L 563.739392 132.196516 
L 567.586425 130.989754 
L 570.860991 130.439057 
L 574.078834 130.167817 
L 586.197912 130.192574 
L 586.250399 160.644824 
" style="stroke:#ffffff;stroke-linejoin:miter;stroke-width:2;"/>
   </g>
  </g>
 </g>
 <defs>
  <clipPath id="p6ad817fd32">
   <rect height="543.6" width="558" x="90" y="86.4"/>
  </clipPath>
 </defs>
</svg>
