<?xml version="1.0" encoding="utf-8" standalone="no"?>
<!DOCTYPE svg PUBLIC "-//W3C//DTD SVG 1.1//EN"
  "http://www.w3.org/Graphics/SVG/1.1/DTD/svg11.dtd">
<!-- Created with matplotlib (https://matplotlib.org/) -->
<svg height="720pt" version="1.1" viewBox="0 0 720 720" width="720pt" xmlns="http://www.w3.org/2000/svg" xmlns:xlink="http://www.w3.org/1999/xlink">
 <metadata>
  <rdf:RDF xmlns:cc="http://creativecommons.org/ns#" xmlns:dc="http://purl.org/dc/elements/1.1/" xmlns:rdf="http://www.w3.org/1999/02/22-rdf-syntax-ns#">
   <cc:Work>
    <dc:type rdf:resource="http://purl.org/dc/dcmitype/StillImage"/>
    <dc:date>2021-05-07T11:02:58.113362</dc:date>
    <dc:format>image/svg+xml</dc:format>
    <dc:creator>
     <cc:Agent>
      <dc:title>Matplotlib v3.3.3, https://matplotlib.org/</dc:title>
     </cc:Agent>
    </dc:creator>
   </cc:Work>
  </rdf:RDF>
 </metadata>
 <defs>
  <style type="text/css">*{stroke-linecap:butt;stroke-linejoin:round;}</style>
 </defs>
 <g id="figure_1">
  <g id="patch_1">
   <path d="M 0 720 
L 720 720 
L 720 0 
L 0 0 
z
" style="fill:none;"/>
  </g>
  <g id="axes_1">
   <g id="patch_2">
    <path clip-path="url(#p6951f86224)" d="M 202.640067 165.846697 
L 223.405686 165.961562 
L 244.214246 165.928603 
L 251.664699 165.895934 
L 264.913057 165.996046 
L 285.622677 165.985391 
L 305.254809 165.975796 
L 327.319052 165.939703 
L 344.423788 165.797283 
L 368.495909 165.807107 
L 401.457854 165.92912 
L 474.262883 165.884192 
L 537.805574 165.93679 
L 559.280734 165.954781 
L 553.286353 192.260365 
L 547.798307 213.407196 
L 547.625937 215.728309 
L 542.449007 237.062786 
L 541.565121 239.406564 
L 535.85402 262.955612 
L 530.061993 286.67068 
L 524.338462 310.252781 
L 518.598641 333.984743 
L 515.744938 345.728621 
L 512.555644 358.853576 
L 508.721997 370.086215 
L 507.909469 377.784196 
L 508.062327 382.987204 
L 507.945457 393.98042 
L 510.120694 405.923135 
L 511.135437 418.107364 
L 512.278967 429.994592 
L 512.260321 441.971541 
L 514.23364 451.536919 
L 514.251492 454.005441 
L 515.375384 466.239876 
L 516.214615 475.640961 
L 516.209752 478.040187 
L 514.633499 490.133437 
L 515.317228 502.156436 
L 514.857273 514.157681 
L 514.394595 526.229471 
L 513.862699 538.217568 
L 513.487266 550.391676 
L 470.427991 550.420706 
L 402.056099 550.467837 
L 383.105042 550.481146 
L 364.010149 550.494639 
L 347.605624 550.506311 
L 325.6864 550.52202 
L 303.766787 550.50395 
L 252.191579 550.461936 
L 205.507622 550.602717 
L 179.537762 550.515186 
L 178.83752 538.593082 
L 178.904362 526.572369 
L 179.153232 514.421849 
L 179.104296 502.375931 
L 179.31515 490.481791 
L 179.400602 478.301929 
L 179.233361 466.393401 
L 179.027628 454.11769 
L 179.437056 442.320784 
L 178.989639 430.190236 
L 179.194213 418.216568 
L 178.719266 406.187294 
L 179.280517 394.689211 
L 179.079897 382.996428 
L 179.407935 371.608076 
L 178.919812 358.54377 
L 179.106978 345.511568 
L 179.23427 333.625834 
L 179.213961 322.008812 
L 179.109506 309.98002 
L 179.026808 298.32939 
L 178.847575 286.538986 
L 178.856555 274.718388 
L 178.77119 262.754257 
L 178.925879 251.051332 
L 178.905085 239.087906 
L 178.988419 227.416116 
L 178.867519 215.402686 
L 179.009741 203.789538 
L 178.757956 191.826235 
L 178.796699 180.088925 
L 178.806361 165.857173 
L 202.640067 165.846697 
" style="stroke:#ffffff;stroke-linejoin:miter;stroke-width:2;"/>
   </g>
  </g>
 </g>
 <defs>
  <clipPath id="p6951f86224">
   <rect height="543.6" width="558" x="90" y="86.4"/>
  </clipPath>
 </defs>
</svg>
