<?xml version="1.0" encoding="utf-8" standalone="no"?>
<!DOCTYPE svg PUBLIC "-//W3C//DTD SVG 1.1//EN"
  "http://www.w3.org/Graphics/SVG/1.1/DTD/svg11.dtd">
<!-- Created with matplotlib (https://matplotlib.org/) -->
<svg height="720pt" version="1.1" viewBox="0 0 720 720" width="720pt" xmlns="http://www.w3.org/2000/svg" xmlns:xlink="http://www.w3.org/1999/xlink">
 <metadata>
  <rdf:RDF xmlns:cc="http://creativecommons.org/ns#" xmlns:dc="http://purl.org/dc/elements/1.1/" xmlns:rdf="http://www.w3.org/1999/02/22-rdf-syntax-ns#">
   <cc:Work>
    <dc:type rdf:resource="http://purl.org/dc/dcmitype/StillImage"/>
    <dc:date>2021-05-07T11:03:04.576683</dc:date>
    <dc:format>image/svg+xml</dc:format>
    <dc:creator>
     <cc:Agent>
      <dc:title>Matplotlib v3.3.3, https://matplotlib.org/</dc:title>
     </cc:Agent>
    </dc:creator>
   </cc:Work>
  </rdf:RDF>
 </metadata>
 <defs>
  <style type="text/css">*{stroke-linecap:butt;stroke-linejoin:round;}</style>
 </defs>
 <g id="figure_1">
  <g id="patch_1">
   <path d="M 0 720 
L 720 720 
L 720 0 
L 0 0 
z
" style="fill:none;"/>
  </g>
  <g id="axes_1">
   <g id="patch_2">
    <path clip-path="url(#p87f62bcd88)" d="M 615.929136 163.225136 
L 615.859553 429.123455 
L 615.858856 434.494457 
L 615.832615 570.891565 
L 375.096248 570.959784 
L 122.064448 571.170069 
L 122.085405 429.314044 
L 122.098539 394.3151 
L 122.111863 359.280451 
L 122.113032 339.894971 
L 122.114052 324.245833 
L 122.116333 289.211225 
L 122.116438 287.696692 
L 122.12756 287.697219 
L 134.997019 287.678343 
L 138.804998 287.672666 
L 151.701355 287.650336 
L 151.700947 289.302991 
L 181.274822 289.262241 
L 184.340035 289.259004 
L 207.667726 289.227076 
L 213.914111 289.218668 
L 243.2475 289.179927 
L 244.013923 289.177423 
L 244.013892 287.352903 
L 244.776799 287.362224 
L 366.667578 287.329941 
L 368.989428 287.3289 
L 368.956726 145.229931 
L 615.935552 145.891608 
L 615.929136 163.225136 
" style="stroke:#ffffff;stroke-linejoin:miter;stroke-width:2;"/>
   </g>
  </g>
 </g>
 <defs>
  <clipPath id="p87f62bcd88">
   <rect height="543.6" width="558" x="90" y="86.4"/>
  </clipPath>
 </defs>
</svg>
