<?xml version="1.0" encoding="utf-8" standalone="no"?>
<!DOCTYPE svg PUBLIC "-//W3C//DTD SVG 1.1//EN"
  "http://www.w3.org/Graphics/SVG/1.1/DTD/svg11.dtd">
<!-- Created with matplotlib (https://matplotlib.org/) -->
<svg height="720pt" version="1.1" viewBox="0 0 720 720" width="720pt" xmlns="http://www.w3.org/2000/svg" xmlns:xlink="http://www.w3.org/1999/xlink">
 <metadata>
  <rdf:RDF xmlns:cc="http://creativecommons.org/ns#" xmlns:dc="http://purl.org/dc/elements/1.1/" xmlns:rdf="http://www.w3.org/1999/02/22-rdf-syntax-ns#">
   <cc:Work>
    <dc:type rdf:resource="http://purl.org/dc/dcmitype/StillImage"/>
    <dc:date>2021-05-07T11:03:03.329684</dc:date>
    <dc:format>image/svg+xml</dc:format>
    <dc:creator>
     <cc:Agent>
      <dc:title>Matplotlib v3.3.3, https://matplotlib.org/</dc:title>
     </cc:Agent>
    </dc:creator>
   </cc:Work>
  </rdf:RDF>
 </metadata>
 <defs>
  <style type="text/css">*{stroke-linecap:butt;stroke-linejoin:round;}</style>
 </defs>
 <g id="figure_1">
  <g id="patch_1">
   <path d="M 0 720 
L 720 720 
L 720 0 
L 0 0 
z
" style="fill:none;"/>
  </g>
  <g id="axes_1">
   <g id="patch_2">
    <path clip-path="url(#pbf67eb8cb8)" d="M 600.762029 171.457062 
L 600.406938 173.940529 
L 600.335994 173.940878 
L 591.129497 232.622945 
L 584.342115 231.257487 
L 561.149262 379.340468 
L 559.759384 379.363548 
L 556.97808 379.373267 
L 554.235261 379.389341 
L 551.484116 379.406192 
L 550.710745 382.79061 
L 549.789342 386.127134 
L 548.722178 389.407479 
L 547.511905 392.623462 
L 547.272761 393.200838 
L 545.761335 396.828418 
L 544.606367 399.478825 
L 543.438563 402.062107 
L 543.20101 402.576426 
L 542.962128 403.089982 
L 542.721919 403.602697 
L 542.480359 404.114649 
L 542.237471 404.625761 
L 541.003473 407.169253 
L 539.73677 409.692048 
L 539.479544 410.194096 
L 539.221014 410.695279 
L 538.961177 411.195596 
L 538.700035 411.695048 
L 538.43761 412.193634 
L 538.17388 412.691329 
L 537.908889 413.188158 
L 537.642616 413.684096 
L 537.375104 414.179194 
L 537.106309 414.673401 
L 535.448927 417.651035 
L 535.082884 418.293187 
L 533.745222 420.594856 
L 533.459794 421.076943 
L 533.17315 421.558139 
L 532.88529 422.038367 
L 532.596238 422.517704 
L 532.30597 422.996073 
L 532.014419 423.47345 
L 531.72163 423.949833 
L 531.427603 424.425274 
L 531.13236 424.899722 
L 530.835902 425.373203 
L 529.33529 427.725683 
L 529.031269 428.193638 
L 528.72601 428.66055 
L 528.419558 429.126468 
L 528.111914 429.591367 
L 527.803053 430.055248 
L 527.493382 430.517601 
L 527.182496 430.978909 
L 526.870439 431.439199 
L 526.557166 431.898419 
L 526.2427 432.35662 
L 524.65214 434.632758 
L 523.033013 436.880932 
L 521.384241 439.104176 
L 521.060222 439.533101 
L 520.735145 439.961007 
L 520.40901 440.387894 
L 520.081816 440.813711 
L 519.720644 441.282729 
L 518.085511 443.404758 
L 516.451463 445.525413 
L 514.816835 447.646836 
L 513.181175 449.764974 
L 511.546896 451.886657 
L 509.911117 454.013542 
L 502.925393 463.081132 
L 500.411784 466.34795 
L 500.253228 466.549262 
L 498.317348 469.008941 
L 496.295045 471.473962 
L 495.54557 472.363785 
L 494.407938 473.682639 
L 492.495064 475.836691 
L 489.059708 479.503029 
L 485.954914 482.615651 
L 482.770078 485.622745 
L 481.759133 486.538307 
L 480.928874 487.278562 
L 480.16442 487.95008 
L 479.39562 488.615817 
L 478.703152 489.207329 
L 476.529146 491.01566 
L 473.709461 493.252969 
L 472.229006 493.25146 
L 469.844386 500.624104 
L 468.408259 500.95355 
L 465.95823 501.67774 
L 463.615832 502.286294 
L 460.825667 503.207462 
L 457.379431 504.163617 
L 453.314112 505.52479 
L 449.841123 506.769943 
L 442.329728 509.289595 
L 437.699097 510.911339 
L 435.293199 511.769811 
L 431.954878 512.986018 
L 428.105165 514.578296 
L 424.928564 516.025571 
L 422.505801 517.241091 
L 419.881428 518.680914 
L 416.785864 520.474909 
L 413.205735 522.529349 
L 408.818131 525.07567 
L 405.390095 527.095837 
L 402.025343 529.005654 
L 399.764278 530.365587 
L 399.069182 530.765438 
L 398.646134 530.919088 
L 397.252969 531.463511 
L 395.965413 531.94933 
L 394.663485 532.442605 
L 393.601752 532.847448 
L 392.541915 533.225579 
L 391.234556 533.702883 
L 389.913834 534.183461 
L 388.974891 534.511669 
L 387.940882 534.878212 
L 385.484759 535.720582 
L 384.553756 536.040249 
L 383.682161 536.330149 
L 382.576802 536.696757 
L 381.820096 536.944 
L 381.134933 537.170514 
L 377.826743 539.184252 
L 373.558275 540.833054 
L 369.928406 541.889058 
L 364.468873 543.144044 
L 355.647482 544.419096 
L 347.167043 544.942938 
L 335.767901 544.642879 
L 324.459882 544.23954 
L 312.877923 543.319988 
L 302.20794 542.503069 
L 288.619197 540.862449 
L 276.489436 539.117326 
L 261.805363 536.134962 
L 251.410752 534.104696 
L 241.51751 531.708331 
L 234.922082 530.195214 
L 229.109364 529.18789 
L 222.793991 528.560959 
L 216.199403 528.187563 
L 209.213989 528.321139 
L 202.675959 528.834155 
L 193.668517 529.480151 
L 186.693423 529.195083 
L 181.053713 528.567724 
L 175.159744 527.652876 
L 168.807997 526.047848 
L 162.50646 523.752145 
L 157.627659 521.742746 
L 151.884609 519.043642 
L 147.259161 516.285813 
L 142.531763 513.125206 
L 137.237971 508.724896 
L 169.581405 465.397382 
L 196.093557 429.213489 
L 205.950183 414.834371 
L 213.592487 401.369895 
L 218.618329 389.732707 
L 221.431555 381.518915 
L 225.799752 367.513367 
L 228.833923 352.21942 
L 230.12896 338.65355 
L 230.772473 326.5681 
L 230.108157 311.277769 
L 227.920088 295.00238 
L 224.426924 279.221562 
L 218.539408 262.209952 
L 210.727013 246.644182 
L 203.068487 232.629874 
L 191.470064 217.042258 
L 178.5151 200.027894 
L 184.591862 195.454317 
L 191.096972 190.151015 
L 197.187109 186.128973 
L 202.643328 183.111581 
L 208.100018 180.667943 
L 215.841495 177.935184 
L 223.20421 175.983896 
L 232.531551 174.397413 
L 243.131296 173.605842 
L 267.772984 173.634048 
L 345.158586 173.427433 
L 400.702858 172.694189 
L 470.561353 172.356233 
L 600.762029 171.457062 
" style="stroke:#ffffff;stroke-linejoin:miter;stroke-width:2;"/>
   </g>
  </g>
 </g>
 <defs>
  <clipPath id="pbf67eb8cb8">
   <rect height="543.6" width="558" x="90" y="86.4"/>
  </clipPath>
 </defs>
</svg>
