<?xml version="1.0" encoding="utf-8" standalone="no"?>
<!DOCTYPE svg PUBLIC "-//W3C//DTD SVG 1.1//EN"
  "http://www.w3.org/Graphics/SVG/1.1/DTD/svg11.dtd">
<!-- Created with matplotlib (https://matplotlib.org/) -->
<svg height="720pt" version="1.1" viewBox="0 0 720 720" width="720pt" xmlns="http://www.w3.org/2000/svg" xmlns:xlink="http://www.w3.org/1999/xlink">
 <metadata>
  <rdf:RDF xmlns:cc="http://creativecommons.org/ns#" xmlns:dc="http://purl.org/dc/elements/1.1/" xmlns:rdf="http://www.w3.org/1999/02/22-rdf-syntax-ns#">
   <cc:Work>
    <dc:type rdf:resource="http://purl.org/dc/dcmitype/StillImage"/>
    <dc:date>2021-05-07T11:03:06.469687</dc:date>
    <dc:format>image/svg+xml</dc:format>
    <dc:creator>
     <cc:Agent>
      <dc:title>Matplotlib v3.3.3, https://matplotlib.org/</dc:title>
     </cc:Agent>
    </dc:creator>
   </cc:Work>
  </rdf:RDF>
 </metadata>
 <defs>
  <style type="text/css">*{stroke-linecap:butt;stroke-linejoin:round;}</style>
 </defs>
 <g id="figure_1">
  <g id="patch_1">
   <path d="M 0 720 
L 720 720 
L 720 0 
L 0 0 
z
" style="fill:none;"/>
  </g>
  <g id="axes_1">
   <g id="patch_2">
    <path clip-path="url(#pf0dc7b028a)" d="M 336.997801 208.270137 
L 338.974797 208.351472 
L 340.930028 208.103925 
L 342.77875 207.538253 
L 344.440824 206.678974 
L 345.844231 205.563303 
L 346.92811 204.239639 
L 347.645502 202.765317 
L 347.965385 201.204184 
L 350.679993 201.218676 
L 350.718433 211.52796 
L 355.895338 210.788579 
L 359.857076 210.21788 
L 362.25665 209.866075 
L 364.625317 209.522083 
L 366.473891 209.271972 
L 368.574792 208.951464 
L 370.301486 208.709235 
L 372.44359 208.404311 
L 377.041063 207.723136 
L 382.243253 206.993522 
L 391.024608 205.721126 
L 394.574768 205.645163 
L 398.59214 205.718348 
L 401.790175 205.889574 
L 409.352119 206.787397 
L 412.674853 207.233355 
L 416.067707 208.042585 
L 421.734269 209.661462 
L 426.727268 211.153877 
L 418.344811 229.062746 
L 424.726634 225.486404 
L 441.00652 220.667012 
L 486.962132 220.652298 
L 492.888475 211.685948 
L 496.745508 206.793966 
L 501.525247 201.393564 
L 506.137845 197.327105 
L 510.499093 193.959432 
L 515.112054 190.528167 
L 519.571793 187.821592 
L 528.420376 183.052478 
L 538.746674 178.814481 
L 551.368432 175.118961 
L 566.498379 172.832842 
L 573.595587 172.337563 
L 582.235862 172.273822 
L 590.027698 172.703909 
L 604.199863 174.396857 
L 603.796256 174.822437 
L 603.192514 175.438764 
L 602.578379 176.08056 
L 601.97465 176.730815 
L 601.402753 177.381064 
L 601.053188 177.837104 
L 600.682212 178.403045 
L 600.29026 179.011032 
L 599.908701 179.593931 
L 599.760424 179.822037 
L 599.400081 180.38796 
L 599.071527 180.894696 
L 598.69017 181.452162 
L 598.202746 182.110872 
L 597.757728 182.727532 
L 597.323506 183.21717 
L 596.847046 183.749208 
L 596.381006 184.272781 
L 596.041861 184.762732 
L 595.692114 185.337148 
L 595.384817 185.877626 
L 594.961194 186.325222 
L 594.463353 186.983935 
L 594.13484 187.533079 
L 593.785078 188.056778 
L 593.43515 188.698685 
L 593.180713 189.281542 
L 592.820542 189.779992 
L 592.513028 190.286742 
L 592.068221 190.886432 
L 591.633644 191.528342 
L 591.30512 192.094276 
L 590.934181 192.727712 
L 590.542042 193.361301 
L 590.224109 193.868054 
L 589.916617 194.484669 
L 589.482251 195.126597 
L 589.079671 195.641831 
L 588.835623 196.23318 
L 588.655559 196.562697 
L 588.178912 197.060826 
L 587.903225 197.601481 
L 587.606551 198.15062 
L 587.288455 198.775716 
L 586.907095 199.282484 
L 586.515122 199.83994 
L 586.313466 200.287654 
L 586.006003 200.912764 
L 585.645846 201.427989 
L 585.211261 202.078396 
L 584.872337 202.568183 
L 584.522581 203.074945 
L 584.204658 203.590177 
L 583.992451 204.139447 
L 583.791032 204.66313 
L 583.504548 205.246013 
L 582.953894 205.870997 
L 582.17044 206.529615 
L 581.651779 207.027756 
L 581.21738 207.602029 
L 580.846442 208.142543 
L 580.359216 208.750724 
L 580.009483 209.308171 
L 579.797628 209.671442 
L 579.416101 210.321839 
L 579.06637 210.879303 
L 578.685032 211.419803 
L 578.240043 212.036453 
L 577.890304 212.568484 
L 577.572232 213.168331 
L 577.392175 213.497683 
L 577.137531 214.089037 
L 576.840653 214.671907 
L 576.469737 215.313991 
L 575.898048 215.845892 
L 575.241842 216.225709 
L 573.447847 221.413119 
L 573.891343 221.945976 
L 574.017388 222.554529 
L 573.963913 223.137541 
L 573.804367 223.788202 
L 573.63458 224.312046 
L 573.443378 224.86964 
L 573.273405 225.452663 
L 573.219738 226.077882 
L 573.113224 226.737026 
L 572.996098 227.336992 
L 572.857772 227.987499 
L 572.762023 228.452312 
L 572.676689 228.950868 
L 572.601999 229.542363 
L 572.559077 229.973418 
L 572.452565 230.581694 
L 572.314243 231.240845 
L 572.260725 231.705482 
L 572.217672 232.339343 
L 572.195606 232.96472 
L 572.163335 233.446474 
L 572.056802 234.05475 
L 571.802171 234.654583 
L 571.68523 235.186893 
L 571.504468 235.837576 
L 571.271063 236.454194 
L 571.037844 237.011799 
L 570.719765 237.611631 
L 570.38066 238.169096 
L 570.083798 238.760462 
L 569.776141 239.410844 
L 569.352591 240.002058 
L 568.992089 240.635663 
L 568.758697 241.277715 
L 568.472437 241.843811 
L 568.006268 242.502527 
L 567.698989 243.043195 
L 567.539598 243.533125 
L 567.391029 243.980996 
L 567.168211 244.580822 
L 567.093478 245.045631 
L 567.103255 245.645567 
L 567.060555 246.10189 
L 566.964606 246.575182 
L 566.60991 247.199776 
L 566.286418 247.71553 
L 566.010784 248.315203 
L 565.713935 248.923526 
L 565.395835 249.447241 
L 565.046155 250.072367 
L 564.844378 250.689144 
L 564.610981 251.305764 
L 564.229468 251.913925 
L 563.901008 252.539046 
L 563.720412 253.054416 
L 563.360125 253.679544 
L 563.052646 254.279376 
L 562.766405 254.82004 
L 562.385268 255.318337 
L 561.919076 255.884147 
L 561.40027 256.492177 
L 561.114149 256.855303 
L 560.880946 257.421388 
L 560.56306 257.945087 
L 560.340431 258.367377 
L 560.117788 258.806789 
L 559.863344 259.313534 
L 559.725492 259.541641 
L 559.375982 260.04841 
L 559.100169 260.698952 
L 559.014697 261.349614 
L 558.90836 261.839698 
L 558.759784 262.304359 
L 558.600422 262.845159 
L 558.419861 263.436498 
L 558.313342 264.044942 
L 558.132791 264.661715 
L 557.804123 265.26157 
L 557.496853 265.844447 
L 557.136378 266.494845 
L 556.754874 267.094547 
L 556.383985 267.711202 
L 556.045096 268.234908 
L 555.716427 268.82612 
L 555.515182 269.180914 
L 555.154706 269.823001 
L 554.773208 270.431181 
L 554.360077 271.005442 
L 553.936512 271.495274 
L 553.459927 272.0443 
L 553.025774 272.584821 
L 552.549378 273.082979 
L 551.966908 273.623372 
L 551.384845 274.138513 
L 550.802384 274.695696 
L 550.442266 275.177202 
L 550.166815 275.667164 
L 549.891171 276.190872 
L 549.467434 276.756842 
L 549.001476 277.339429 
L 548.398176 277.795381 
L 548.175688 278.023345 
L 547.445346 278.673509 
L 546.884293 279.120973 
L 546.228175 279.619181 
L 545.624861 280.032745 
L 544.968751 280.497041 
L 544.312605 280.919097 
L 543.635054 281.391694 
L 542.936705 281.872958 
L 542.121701 282.455473 
L 541.348925 283.037977 
L 540.735197 283.409339 
L 539.909777 283.898767 
L 539.105555 284.439057 
L 538.544503 284.869586 
L 537.941386 285.24093 
L 537.253617 285.637564 
L 536.470429 286.127166 
L 535.803689 286.566185 
L 535.158139 286.937541 
L 534.353905 287.38476 
L 533.867256 287.64636 
L 533.221715 288.034507 
L 532.533943 288.414371 
L 531.729916 288.802395 
L 530.978536 289.283663 
L 530.163519 289.849246 
L 529.475767 290.22045 
L 528.914853 290.515818 
L 528.301339 290.828006 
L 527.698209 291.148653 
L 526.946811 291.528537 
L 526.280234 291.840558 
L 525.507817 292.2457 
L 524.841281 292.650829 
L 524.195726 292.988279 
L 523.391699 293.359519 
L 522.851995 293.629632 
L 522.196059 294.009309 
L 521.402275 294.490445 
L 521.000267 294.735236 
L 520.428761 295.055895 
L 519.656386 295.494785 
L 518.915787 295.866009 
L 518.206803 296.228931 
L 517.614282 296.53279 
L 517.021779 296.828021 
L 516.217738 297.199265 
L 515.614612 297.460739 
L 514.905835 297.815183 
L 514.133418 298.194898 
L 513.604331 298.422605 
L 512.832095 298.692622 
L 512.165731 298.945637 
L 511.657834 299.156384 
L 510.980866 299.417897 
L 510.17682 299.72147 
L 509.457409 300.008264 
L 508.738011 300.278251 
L 508.082258 300.531265 
L 507.384029 300.6912 
L 489.041701 306.702945 
L 488.523097 307.125153 
L 487.930098 307.699339 
L 487.527803 308.180708 
L 486.924421 308.788793 
L 486.21517 309.413699 
L 485.632958 309.920208 
L 484.902725 310.5536 
L 484.193468 311.203792 
L 483.653514 311.727245 
L 482.923382 312.174621 
L 482.425671 312.77438 
L 481.822484 313.297854 
L 481.176651 313.855086 
L 480.679114 314.378694 
L 480.234416 314.91078 
L 479.694491 315.527326 
L 479.323842 316.008688 
L 479.090769 316.270579 
L 478.614249 316.805817 
L 478.267338 317.335198 
L 477.815354 317.891391 
L 477.341771 318.431117 
L 476.627132 319.0675 
L 476.142497 319.590624 
L 475.650012 320.223614 
L 475.094085 320.857455 
L 474.661882 321.362776 
L 474.116566 321.996614 
L 473.779822 322.508887 
L 473.518407 323.079301 
L 473.279693 323.708406 
L 472.965657 324.287997 
L 472.600909 324.952865 
L 472.171851 325.584855 
L 471.845107 326.080153 
L 471.477386 326.618202 
L 471.101612 327.274763 
L 470.744076 327.795853 
L 470.398006 328.367459 
L 470.05068 328.879902 
L 469.682962 329.418101 
L 469.231651 330.008193 
L 468.86311 330.520975 
L 468.484572 331.050883 
L 468.14826 331.580097 
L 467.665764 332.195965 
L 467.266032 332.726212 
L 466.97131 333.229314 
L 466.698461 333.75751 
L 466.426038 334.302679 
L 466.078504 334.806645 
L 465.565456 335.465412 
L 465.164666 335.953254 
L 464.767064 336.57641 
L 464.454524 337.215182 
L 464.160674 337.752195 
L 463.753523 338.409283 
L 463.417858 338.972243 
L 462.98843 339.587264 
L 462.590191 340.176692 
L 462.233947 340.765259 
L 461.920791 341.37027 
L 461.522345 341.959532 
L 461.206854 342.471618 
L 460.944391 342.999646 
L 460.692978 343.535998 
L 460.378108 344.08168 
L 460.093598 344.567824 
L 459.706612 345.190812 
L 459.360149 345.73717 
L 458.941739 346.368979 
L 458.68206 347.006887 
L 458.410266 347.585802 
L 458.169256 348.121986 
L 457.91912 348.70919 
L 457.698885 349.236556 
L 457.619112 349.432223 
L 457.328248 350.095924 
L 457.10992 350.690947 
L 457.008952 351.334972 
L 456.934899 351.775666 
L 456.818218 352.2001 
L 456.651238 352.735096 
L 456.484702 353.287197 
L 456.369301 353.770644 
L 456.194048 354.3989 
L 456.037676 354.933893 
L 455.892149 355.485488 
L 455.766561 355.977749 
L 455.580913 356.61447 
L 455.456603 357.165909 
L 455.312118 357.759745 
L 455.207746 358.251666 
L 455.074935 358.896033 
L 455.006196 359.556488 
L 454.921134 359.980413 
L 454.808898 360.590695 
L 454.718535 361.226072 
L 454.617124 361.853124 
L 454.525684 362.454755 
L 454.477971 363.106409 
L 454.435107 363.521177 
L 454.437676 364.070581 
L 454.347723 364.731391 
L 454.246737 365.375249 
L 454.133886 365.960248 
L 453.977751 366.503719 
L 453.913035 366.893559 
L 453.840896 367.410239 
L 453.717862 368.012196 
L 453.646577 368.571265 
L 453.681591 369.154071 
L 453.654457 369.779952 
L 453.794915 370.344105 
L 453.914158 370.908763 
L 454.045516 371.532282 
L 454.102361 372.140015 
L 454.117454 372.773861 
L 454.140814 373.30597 
L 454.2085 373.922011 
L 454.403699 374.561451 
L 454.704542 375.207854 
L 454.813829 375.789472 
L 454.824225 376.228825 
L 454.840141 376.887939 
L 454.87241 377.352387 
L 454.897023 377.935362 
L 454.889813 378.51868 
L 454.841679 379.161856 
L 454.804765 379.821818 
L 454.788646 380.472946 
L 454.820278 380.911961 
L 454.992986 381.501055 
L 455.082739 382.159147 
L 454.906877 382.761953 
L 454.646342 383.366134 
L 454.554071 383.925376 
L 454.588018 384.457481 
L 454.548581 385.024336 
L 454.550893 385.556949 
L 454.650212 386.172499 
L 454.727443 386.746148 
L 454.803399 387.269096 
L 455.051232 387.899209 
L 455.37137 388.460827 
L 455.701944 389.013614 
L 456.075336 389.591339 
L 456.35223 390.11123 
L 456.692524 390.638597 
L 457.022439 391.166117 
L 457.3846 391.7101 
L 457.76883 392.295968 
L 458.292242 392.955764 
L 459.117323 393.40817 
L 459.75551 393.998776 
L 460.266822 394.591087 
L 460.649542 395.117942 
L 461.032918 395.670049 
L 461.309787 396.189957 
L 461.513273 396.744781 
L 461.707804 397.358788 
L 461.964539 397.921259 
L 462.347681 398.464905 
L 463.007293 399.071963 
L 463.597304 399.418057 
L 464.423225 399.904376 
L 464.975475 400.436997 
L 465.506937 400.995225 
L 465.998279 401.638744 
L 466.532287 402.298375 
L 466.729798 402.599695 
L 467.122502 403.100949 
L 467.590946 403.668673 
L 468.080587 404.244536 
L 468.762466 404.893481 
L 469.411228 405.492401 
L 469.996783 406.092172 
L 470.562166 406.742818 
L 471.127564 407.385151 
L 471.468496 407.929478 
L 471.84995 408.405453 
L 472.436121 409.039153 
L 473.022523 409.681133 
L 473.488838 410.164246 
L 473.999899 410.74825 
L 474.638487 411.35567 
L 475.106904 411.931858 
L 475.564731 412.499755 
L 476.159611 413.048658 
L 476.870949 413.612669 
L 477.599487 414.007432 
L 478.251009 414.276547 
L 478.924573 414.579068 
L 479.685567 414.998607 
L 480.501281 415.501896 
L 481.231728 415.981124 
L 481.972546 416.443211 
L 482.60391 416.75489 
L 483.3736 417.098294 
L 484.129901 417.323493 
L 484.834034 417.583451 
L 485.638308 418.053018 
L 486.191148 418.611081 
L 486.448052 419.182018 
L 486.292736 419.767543 
L 486.317772 420.367308 
L 486.501057 420.956387 
L 486.810152 421.50106 
L 487.30189 422.161376 
L 487.823354 422.745216 
L 488.515578 423.38569 
L 489.089016 423.92646 
L 489.853583 424.498109 
L 490.519096 424.910686 
L 491.173556 425.306642 
L 491.819337 425.778587 
L 492.582842 426.307998 
L 493.346981 426.862843 
L 494.059165 427.460775 
L 494.88928 428.116006 
L 495.673999 428.653574 
L 496.446855 429.132117 
L 497.038083 429.528926 
L 497.75811 430.008332 
L 498.450325 430.657124 
L 499.057907 431.298792 
L 499.621129 431.856692 
L 500.270061 432.463955 
L 500.769653 433.005899 
L 501.471834 433.629271 
L 502.075807 434.118838 
L 502.720283 434.540237 
L 503.385358 434.93588 
L 504.083101 435.364911 
L 504.898145 435.842781 
L 505.683059 436.380355 
L 506.415572 436.94421 
L 507.19096 437.532638 
L 507.928352 437.851114 
L 508.622067 438.119583 
L 509.428193 438.665282 
L 510.140755 439.271534 
L 510.775908 439.743807 
L 511.579699 440.188121 
L 512.40197 440.522201 
L 513.085477 440.807781 
L 513.737603 441.102196 
L 514.40224 441.472561 
L 515.15384 441.951469 
L 515.755259 442.33964 
L 516.516846 442.784601 
L 517.160504 443.172262 
L 517.879027 443.592467 
L 518.607326 443.970296 
L 519.370607 444.491228 
L 520.102702 445.038117 
L 520.758445 445.484623 
L 521.456809 445.947392 
L 522.284366 446.501222 
L 522.886857 446.931618 
L 523.566118 447.470878 
L 524.394734 448.07541 
L 525.051319 448.555813 
L 525.729311 449.052684 
L 526.515066 449.623999 
L 527.085306 450.029621 
L 527.751843 450.4929 
L 528.408847 450.990111 
L 528.978853 451.387256 
L 529.732149 451.933813 
L 530.345451 452.372505 
L 531.174692 453.002492 
L 531.80239 453.601597 
L 532.451304 454.208859 
L 533.193985 454.747092 
L 533.989727 455.30127 
L 534.816421 455.821379 
L 535.603226 456.443566 
L 536.39981 457.031657 
L 536.988695 457.335377 
L 537.705928 457.705074 
L 538.411936 458.040863 
L 539.226978 458.510426 
L 539.844694 459.134972 
L 540.28952 459.610135 
L 540.862901 460.150911 
L 541.502255 460.800569 
L 542.01328 461.384583 
L 542.470614 461.93553 
L 542.877028 462.571935 
L 543.365126 463.08863 
L 543.864271 463.61365 
L 544.408364 464.256337 
L 544.846176 464.883608 
L 545.36884 465.509677 
L 545.869867 466.119295 
L 546.348623 466.686861 
L 546.773307 467.204405 
L 547.134322 467.70619 
L 547.604796 468.36685 
L 548.063813 468.985456 
L 548.551291 469.476902 
L 549.212056 470.134687 
L 549.711175 470.668172 
L 550.209657 471.167744 
L 550.645576 471.710571 
L 551.019945 472.330529 
L 551.297795 472.901141 
L 551.488901 473.371536 
L 551.659196 473.85939 
L 551.854303 474.507338 
L 552.016104 475.079642 
L 552.211 475.719096 
L 552.501588 476.374152 
L 552.703279 476.844378 
L 552.873998 477.3575 
L 553.18451 477.96135 
L 553.335703 478.53399 
L 553.528923 479.097309 
L 553.817799 479.684708 
L 554.256015 480.320626 
L 554.3192 480.750659 
L 554.415878 481.256485 
L 554.705808 481.886108 
L 554.667769 482.512156 
L 554.71289 483.069363 
L 554.885107 483.641664 
L 555.109915 484.204643 
L 555.25899 484.684192 
L 555.482551 485.19647 
L 555.651785 485.641935 
L 555.941921 486.271392 
L 556.187095 486.800288 
L 556.360156 487.406335 
L 556.488654 487.91995 
L 556.630103 488.526504 
L 556.770897 489.107624 
L 556.870111 489.723149 
L 556.902743 490.204555 
L 556.885704 490.821771 
L 557.07807 491.343034 
L 557.442031 491.971458 
L 557.751267 492.524775 
L 557.99815 493.121163 
L 558.115406 493.60968 
L 558.211255 494.081595 
L 558.33168 494.696798 
L 558.418804 495.245001 
L 558.603101 495.87613 
L 558.827689 496.422154 
L 559.050823 496.917643 
L 559.256522 497.55693 
L 559.342187 498.045953 
L 559.45137 498.635892 
L 559.537225 499.133394 
L 559.614396 499.707049 
L 559.692391 500.314434 
L 559.735628 500.795672 
L 559.761226 501.429168 
L 559.826734 501.96077 
L 559.892007 502.475415 
L 559.965139 502.880161 
L 560.029802 503.377851 
L 560.087007 504.002529 
L 560.173727 504.533793 
L 560.334883 505.08083 
L 560.387246 505.502537 
L 560.493682 505.982762 
L 560.571908 506.598624 
L 560.646096 507.04561 
L 560.72073 507.517864 
L 560.837768 507.989425 
L 561.021195 508.586826 
L 561.127648 509.058557 
L 561.248705 509.707672 
L 561.247612 510.104973 
L 561.249666 510.629093 
L 561.269999 511.042845 
L 561.345052 511.52356 
L 561.50515 512.028374 
L 561.643402 512.508093 
L 561.784844 513.11463 
L 561.936873 513.729328 
L 562.096548 514.21717 
L 562.429121 514.863075 
L 562.685312 515.408593 
L 562.755502 515.686519 
L 562.780128 517.039961 
L 562.984784 517.69022 
L 563.062587 518.34932 
L 563.107244 518.746593 
L 563.152556 519.27903 
L 563.103497 519.921854 
L 563.043622 520.505518 
L 563.089158 521.080329 
L 563.187963 521.680245 
L 563.381348 522.228921 
L 563.489881 522.710475 
L 563.566803 523.242905 
L 563.580722 523.800768 
L 563.573893 524.42646 
L 563.534991 524.984851 
L 563.464499 525.593785 
L 563.362629 526.211521 
L 563.260534 526.837734 
L 563.222087 527.497362 
L 563.162427 528.097965 
L 563.091066 528.554795 
L 563.019898 529.028564 
L 562.907406 529.654797 
L 562.794281 530.204879 
L 562.712716 530.67865 
L 562.642249 531.296229 
L 562.540584 531.956188 
L 562.311402 532.515291 
L 562.071414 533.040469 
L 561.89549 533.650077 
L 561.62457 534.31076 
L 561.343232 534.971429 
L 561.230748 535.614435 
L 561.023025 536.21574 
L 560.804457 536.791631 
L 560.596932 537.418204 
L 560.36777 537.968812 
L 560.180585 538.493828 
L 559.792744 539.019707 
L 559.33129 539.605117 
L 559.102569 540.214922 
L 558.661895 540.757938 
L 558.263205 541.24143 
L 557.812158 541.793109 
L 557.42432 542.31899 
L 556.962869 542.904234 
L 556.500979 543.430466 
L 555.891916 544.050325 
L 555.313996 544.593874 
L 554.746489 545.120632 
L 554.211006 545.697934 
L 553.644386 546.35984 
L 553.077514 546.962567 
L 552.468441 547.599218 
L 551.943145 548.108844 
L 551.52349 548.617944 
L 551.093431 549.160959 
L 550.5374 549.822881 
L 550.264919 550.187652 
L 549.760629 550.697108 
L 549.203714 551.223699 
L 548.731014 551.682278 
L 548.195532 552.242626 
L 547.502066 552.896572 
L 546.956203 553.490835 
L 546.347143 554.13595 
L 545.864287 554.670851 
L 545.486836 555.188254 
L 545.004414 555.765197 
L 544.563538 556.282783 
L 543.975711 556.919598 
L 543.303005 557.522689 
L 542.777936 558.049275 
L 542.189868 558.652029 
L 541.674979 559.153178 
L 541.065927 559.798311 
L 540.403627 560.359178 
L 539.646267 560.903613 
L 539.036788 561.4643 
L 538.533375 562.100596 
L 538.039919 562.626843 
L 537.452087 563.28045 
L 536.969464 563.849084 
L 536.528597 564.366673 
L 536.024733 564.910045 
L 535.572824 565.326234 
L 534.984784 565.920679 
L 534.512537 566.480667 
L 533.81885 567.100891 
L 533.146166 567.670242 
L 532.537148 568.315546 
L 532.138482 568.790735 
L 531.708458 569.3168 
L 531.20461 569.885442 
L 530.595362 570.471567 
L 530.059244 570.947292 
L 529.502379 571.482369 
L 528.798309 572.119555 
L 528.125633 572.688908 
L 527.505766 573.283516 
L 526.970767 573.936781 
L 526.508937 574.471501 
L 526.460426 574.525756 
L 524.502391 572.442876 
L 514.869131 562.195575 
L 504.425107 551.086187 
L 489.108567 534.794536 
L 476.034066 521.600141 
L 459.831367 506.990514 
L 446.375184 496.182296 
L 435.46987 488.04388 
L 419.652248 477.135602 
L 407.291053 470.329867 
L 392.711564 463.501599 
L 386.635358 460.945682 
L 384.23371 459.935454 
L 366.885377 453.540862 
L 353.442399 449.546721 
L 341.555022 446.529714 
L 327.890219 443.424691 
L 310.115611 440.677094 
L 290.675114 438.552628 
L 273.471899 437.184455 
L 255.469326 436.247196 
L 239.012878 436.036881 
L 213.059248 436.114591 
L 189.949267 437.69829 
L 133.800137 441.547765 
L 177.794291 355.488166 
L 181.439744 345.083708 
L 182.29694 340.359959 
L 182.907323 334.652302 
L 183.254071 307.689953 
L 183.13196 223.155073 
L 183.638115 194.330582 
L 184.613342 159.814052 
L 187.958685 159.638011 
L 190.559144 159.421342 
L 193.558132 159.116981 
L 196.83894 158.655191 
L 201.258914 157.903474 
L 206.059739 157.037457 
L 213.413171 155.683913 
L 218.026599 154.828373 
L 225.254554 153.503099 
L 233.149672 152.082384 
L 236.776708 151.411581 
L 241.076021 150.629899 
L 245.373415 149.833587 
L 250.505064 148.906628 
L 255.301478 148.017416 
L 259.741962 147.202181 
L 283.288691 142.901064 
L 286.124855 142.436485 
L 289.013779 142.052445 
L 290.338536 141.945626 
L 292.046342 141.874244 
L 294.72258 141.878816 
L 296.182419 141.940753 
L 297.73216 142.066054 
L 300.763357 142.437376 
L 302.482636 142.741325 
L 305.112236 143.398323 
L 306.611797 143.836109 
L 308.143879 144.372159 
L 309.63861 144.931601 
L 311.031853 145.525498 
L 313.936371 147.004521 
L 315.602416 147.985447 
L 316.979813 148.882169 
L 318.195194 149.770301 
L 319.384771 150.686887 
L 321.30341 152.407055 
L 322.360155 153.500058 
L 323.324237 154.600017 
L 325.482103 157.495329 
L 326.696291 159.569316 
L 327.39108 160.944924 
L 327.929081 162.160964 
L 328.369336 163.465881 
L 328.74799 164.616327 
L 329.063392 165.854504 
L 329.291713 167.135822 
L 329.424656 168.086873 
L 329.503489 168.853544 
L 329.567483 170.05351 
L 329.585478 171.159856 
L 329.468669 173.955211 
L 329.21976 177.202463 
L 328.954577 180.345526 
L 328.706065 183.022894 
L 328.476641 185.933531 
L 328.351551 187.52012 
L 328.051347 191.083388 
L 327.843072 193.690822 
L 327.34457 199.900236 
L 326.82958 206.143702 
L 328.346391 207.181593 
L 336.997801 208.270137 
" style="stroke:#ffffff;stroke-linejoin:miter;stroke-width:2;"/>
   </g>
  </g>
 </g>
 <defs>
  <clipPath id="pf0dc7b028a">
   <rect height="543.6" width="558" x="90" y="86.4"/>
  </clipPath>
 </defs>
</svg>
