<?xml version="1.0" encoding="utf-8" standalone="no"?>
<!DOCTYPE svg PUBLIC "-//W3C//DTD SVG 1.1//EN"
  "http://www.w3.org/Graphics/SVG/1.1/DTD/svg11.dtd">
<!-- Created with matplotlib (https://matplotlib.org/) -->
<svg height="720pt" version="1.1" viewBox="0 0 720 720" width="720pt" xmlns="http://www.w3.org/2000/svg" xmlns:xlink="http://www.w3.org/1999/xlink">
 <metadata>
  <rdf:RDF xmlns:cc="http://creativecommons.org/ns#" xmlns:dc="http://purl.org/dc/elements/1.1/" xmlns:rdf="http://www.w3.org/1999/02/22-rdf-syntax-ns#">
   <cc:Work>
    <dc:type rdf:resource="http://purl.org/dc/dcmitype/StillImage"/>
    <dc:date>2021-05-28T08:56:45.735564</dc:date>
    <dc:format>image/svg+xml</dc:format>
    <dc:creator>
     <cc:Agent>
      <dc:title>Matplotlib v3.3.3, https://matplotlib.org/</dc:title>
     </cc:Agent>
    </dc:creator>
   </cc:Work>
  </rdf:RDF>
 </metadata>
 <defs>
  <style type="text/css">*{stroke-linecap:butt;stroke-linejoin:round;}</style>
 </defs>
 <g id="figure_1">
  <g id="patch_1">
   <path d="M 0 720 
L 720 720 
L 720 0 
L 0 0 
z
" style="fill:none;"/>
  </g>
  <g id="axes_1">
   <g id="patch_2">
    <path clip-path="url(#pa09ec8036f)" d="M 147.763406 152.344407 
L 318.809121 152.219061 
L 520.746322 151.974697 
L 589.370602 153.882679 
L 588.787841 163.796794 
L 588.802882 174.631284 
L 589.408852 187.180342 
L 590.619523 215.936032 
L 590.908075 230.264351 
L 590.274746 259.554429 
L 589.788859 283.829145 
L 590.15949 314.908444 
L 590.347915 333.925866 
L 590.350597 379.94867 
L 588.418377 438.515708 
L 588.581545 439.482608 
L 588.580544 439.620771 
L 586.086294 439.619325 
L 570.430178 439.610228 
L 495.987408 439.567792 
L 493.289515 439.566115 
L 493.282873 409.851083 
L 478.650135 415.202139 
L 477.304766 416.545588 
L 478.054694 421.967158 
L 476.263282 423.834731 
L 472.671693 432.679763 
L 469.803431 435.384139 
L 469.35057 437.46104 
L 470.378818 439.553566 
L 469.488611 447.909577 
L 464.424164 454.427525 
L 469.994198 462.446003 
L 470.775731 471.558661 
L 462.524961 471.577524 
L 457.712395 470.051412 
L 449.066087 468.064919 
L 443.12271 467.211373 
L 437.180073 466.748473 
L 431.238919 466.665057 
L 422.614712 467.216895 
L 420.377823 467.492804 
L 418.154822 467.822662 
L 415.948198 468.206093 
L 413.760416 468.64268 
L 412.012539 468.998921 
L 404.85903 470.455273 
L 400.436685 471.653776 
L 396.733572 471.656609 
L 396.854868 472.623478 
L 386.850935 475.334761 
L 371.200782 483.244394 
L 373.02872 485.475944 
L 372.709153 486.25502 
L 368.116397 487.89015 
L 359.801969 492.808172 
L 355.763728 501.202724 
L 349.12409 500.207164 
L 345.807454 495.634497 
L 347.519675 488.62046 
L 342.145818 480.385913 
L 341.193782 471.728745 
L 338.798933 471.732661 
L 338.796219 471.716256 
L 338.301041 468.737083 
L 344.008593 463.437937 
L 350.968851 459.737495 
L 355.341586 459.731118 
L 355.335601 456.736805 
L 347.085316 456.745706 
L 345.83962 441.544342 
L 341.666494 431.796102 
L 340.334994 432.24843 
L 329.148257 454.675704 
L 314.529109 467.839608 
L 315.069001 480.459855 
L 317.847253 481.951086 
L 318.227696 490.881367 
L 316.57481 495.954108 
L 317.09712 501.688501 
L 319.808114 508.612539 
L 324.927429 511.845636 
L 335.289524 530.435219 
L 333.526529 530.734011 
L 317.612618 532.141471 
L 311.809067 533.076575 
L 309.305086 533.117018 
L 304.565146 533.193458 
L 297.662454 533.304968 
L 296.037693 533.329601 
L 272.649684 537.902962 
L 259.530655 537.564656 
L 232.055761 543.875983 
L 222.911534 552.596825 
L 212.30044 551.478071 
L 203.533013 552.623958 
L 200.487893 564.425303 
L 192.0482 558.886212 
L 187.145219 550.116318 
L 183.618479 546.796877 
L 174.260183 541.419849 
L 165.196501 532.890414 
L 154.226063 529.518104 
L 154.22265 528.08717 
L 150.22789 528.092778 
L 150.224718 534.084213 
L 147.26011 532.403773 
L 147.186164 491.881182 
L 147.273128 476.739625 
L 147.350812 355.624359 
L 147.233778 244.807787 
L 147.091925 166.712834 
L 147.763406 152.344407 
" style="fill:#1a1a1a;stroke:#ffffff;stroke-linejoin:miter;stroke-width:4;"/>
   </g>
  </g>
 </g>
 <defs>
  <clipPath id="pa09ec8036f">
   <rect height="543.6" width="558" x="90" y="86.4"/>
  </clipPath>
 </defs>
</svg>
