<?xml version="1.0" encoding="utf-8" standalone="no"?>
<!DOCTYPE svg PUBLIC "-//W3C//DTD SVG 1.1//EN"
  "http://www.w3.org/Graphics/SVG/1.1/DTD/svg11.dtd">
<!-- Created with matplotlib (https://matplotlib.org/) -->
<svg height="720pt" version="1.1" viewBox="0 0 720 720" width="720pt" xmlns="http://www.w3.org/2000/svg" xmlns:xlink="http://www.w3.org/1999/xlink">
 <metadata>
  <rdf:RDF xmlns:cc="http://creativecommons.org/ns#" xmlns:dc="http://purl.org/dc/elements/1.1/" xmlns:rdf="http://www.w3.org/1999/02/22-rdf-syntax-ns#">
   <cc:Work>
    <dc:type rdf:resource="http://purl.org/dc/dcmitype/StillImage"/>
    <dc:date>2021-05-28T08:56:48.274939</dc:date>
    <dc:format>image/svg+xml</dc:format>
    <dc:creator>
     <cc:Agent>
      <dc:title>Matplotlib v3.3.3, https://matplotlib.org/</dc:title>
     </cc:Agent>
    </dc:creator>
   </cc:Work>
  </rdf:RDF>
 </metadata>
 <defs>
  <style type="text/css">*{stroke-linecap:butt;stroke-linejoin:round;}</style>
 </defs>
 <g id="figure_1">
  <g id="patch_1">
   <path d="M 0 720 
L 720 720 
L 720 0 
L 0 0 
z
" style="fill:none;"/>
  </g>
  <g id="axes_1">
   <g id="patch_2">
    <path clip-path="url(#p8049ee0cd5)" d="M 361.024378 553.637392 
L 142.243878 586.983939 
L 140.535716 352.250871 
L 140.153855 281.931993 
L 139.213679 130.358817 
L 303.473504 129.416061 
L 315.110651 129.621684 
L 332.215432 130.156184 
L 351.477861 131.22133 
L 369.141247 132.63947 
L 383.731277 133.850018 
L 397.750313 135.365618 
L 420.356214 138.337458 
L 423.937424 138.833283 
L 423.972286 140.722697 
L 423.93111 143.867478 
L 423.96421 148.584699 
L 424.036009 152.591198 
L 424.106798 157.578871 
L 424.140763 161.453283 
L 424.327561 164.367515 
L 424.436871 168.791248 
L 424.432387 173.154129 
L 423.933269 178.709793 
L 423.589251 181.078765 
L 423.431971 186.397625 
L 423.27669 189.793966 
L 423.119978 194.563529 
L 423.039683 198.840448 
L 423.035339 203.075445 
L 423.03095 207.354476 
L 423.062852 213.266714 
L 423.209136 227.164503 
L 423.143897 237.989437 
L 423.236987 252.785556 
L 423.327423 270.141395 
L 423.368644 282.724678 
L 423.301729 295.188307 
L 423.053965 325.68352 
L 423.372168 332.053014 
L 424.071511 336.170897 
L 424.77258 338.623189 
L 425.257757 340.477339 
L 426.283769 342.690502 
L 427.30977 344.930567 
L 428.66034 347.293348 
L 431.578882 351.12189 
L 433.903198 353.843813 
L 437.795936 357.585959 
L 440.823831 360.248304 
L 445.366163 363.74845 
L 448.989247 366.470822 
L 452.125848 368.624873 
L 455.29495 370.734093 
L 458.593952 372.798489 
L 463.083021 375.341749 
L 468.221316 378.034751 
L 474.603926 381.05712 
L 517.041595 400.915599 
L 522.828992 403.489338 
L 526.157466 405.232206 
L 529.556849 407.026332 
L 533.234188 409.150789 
L 537.776504 411.963349 
L 541.507622 414.327073 
L 544.913985 416.720589 
L 548.103942 419.05422 
L 550.698721 421.30092 
L 554.212536 424.262648 
L 558.53728 427.852654 
L 563.239341 432.609031 
L 566.427542 436.228531 
L 569.507296 440.009472 
L 571.937807 443.688503 
L 574.259996 447.397389 
L 577.175616 452.541864 
L 579.928136 458.248469 
L 581.383718 462.555093 
L 582.569144 466.53269 
L 583.48385 470.632783 
L 584.344471 474.69996 
L 585.20368 479.873546 
L 585.953836 485.687034 
L 586.760006 489.993425 
L 588.107584 494.036868 
L 589.995647 498.552995 
L 593.017405 505.043191 
L 595.500036 509.972216 
L 597.065089 513.142581 
L 598.786321 516.951496 
L 497.167405 533.318846 
L 425.863788 543.849981 
L 395.761316 548.117996 
L 361.024378 553.637392 
" style="fill:#1a1a1a;stroke:#ffffff;stroke-linejoin:miter;stroke-width:4;"/>
   </g>
  </g>
 </g>
 <defs>
  <clipPath id="p8049ee0cd5">
   <rect height="543.6" width="558" x="90" y="86.4"/>
  </clipPath>
 </defs>
</svg>
