<?xml version="1.0" encoding="utf-8" standalone="no"?>
<!DOCTYPE svg PUBLIC "-//W3C//DTD SVG 1.1//EN"
  "http://www.w3.org/Graphics/SVG/1.1/DTD/svg11.dtd">
<!-- Created with matplotlib (https://matplotlib.org/) -->
<svg height="720pt" version="1.1" viewBox="0 0 720 720" width="720pt" xmlns="http://www.w3.org/2000/svg" xmlns:xlink="http://www.w3.org/1999/xlink">
 <metadata>
  <rdf:RDF xmlns:cc="http://creativecommons.org/ns#" xmlns:dc="http://purl.org/dc/elements/1.1/" xmlns:rdf="http://www.w3.org/1999/02/22-rdf-syntax-ns#">
   <cc:Work>
    <dc:type rdf:resource="http://purl.org/dc/dcmitype/StillImage"/>
    <dc:date>2021-05-07T11:03:05.418658</dc:date>
    <dc:format>image/svg+xml</dc:format>
    <dc:creator>
     <cc:Agent>
      <dc:title>Matplotlib v3.3.3, https://matplotlib.org/</dc:title>
     </cc:Agent>
    </dc:creator>
   </cc:Work>
  </rdf:RDF>
 </metadata>
 <defs>
  <style type="text/css">*{stroke-linecap:butt;stroke-linejoin:round;}</style>
 </defs>
 <g id="figure_1">
  <g id="patch_1">
   <path d="M 0 720 
L 720 720 
L 720 0 
L 0 0 
z
" style="fill:none;"/>
  </g>
  <g id="axes_1">
   <g id="patch_2">
    <path clip-path="url(#pd7b878b3ac)" d="M 618.208939 164.191364 
L 544.04408 164.35717 
L 540.346904 164.33394 
L 540.598005 427.04775 
L 537.343326 427.04789 
L 537.343451 432.537381 
L 499.17304 432.515332 
L 497.293337 432.519925 
L 494.233682 432.546206 
L 426.287419 433.401954 
L 425.72032 433.409131 
L 397.66421 433.764787 
L 388.432303 433.882109 
L 366.095584 434.166561 
L 352.152656 434.407393 
L 351.90454 434.412812 
L 347.537705 434.508698 
L 346.316567 434.535058 
L 343.601356 434.586745 
L 342.007085 434.608058 
L 340.585108 434.617542 
L 340.093657 434.618372 
L 334.999205 434.549619 
L 329.907286 434.339641 
L 324.82045 433.988506 
L 319.741265 433.496442 
L 314.672295 432.863675 
L 310.409283 432.22123 
L 308.972751 431.690278 
L 308.974197 436.936768 
L 308.874511 570.33947 
L 263.485704 570.587744 
L 195.228155 571.022109 
L 160.265998 571.247745 
L 128.319706 571.455675 
L 119.791061 571.465074 
L 122.713451 564.792525 
L 127.229088 555.790263 
L 195.377697 428.861218 
L 246.178764 334.270937 
L 258.830206 311.325946 
L 269.524403 292.616968 
L 279.617129 276.908113 
L 290.011689 261.37575 
L 308.994632 235.429352 
L 379.348177 145.140098 
L 388.814319 145.137315 
L 425.275642 145.128011 
L 425.59494 145.127939 
L 541.094837 145.032967 
L 618.169657 144.934926 
L 618.174739 147.48354 
L 618.208939 164.191364 
" style="stroke:#ffffff;stroke-linejoin:miter;stroke-width:2;"/>
   </g>
  </g>
 </g>
 <defs>
  <clipPath id="pd7b878b3ac">
   <rect height="543.6" width="558" x="90" y="86.4"/>
  </clipPath>
 </defs>
</svg>
