<?xml version="1.0" encoding="utf-8" standalone="no"?>
<!DOCTYPE svg PUBLIC "-//W3C//DTD SVG 1.1//EN"
  "http://www.w3.org/Graphics/SVG/1.1/DTD/svg11.dtd">
<!-- Created with matplotlib (https://matplotlib.org/) -->
<svg height="720pt" version="1.1" viewBox="0 0 720 720" width="720pt" xmlns="http://www.w3.org/2000/svg" xmlns:xlink="http://www.w3.org/1999/xlink">
 <metadata>
  <rdf:RDF xmlns:cc="http://creativecommons.org/ns#" xmlns:dc="http://purl.org/dc/elements/1.1/" xmlns:rdf="http://www.w3.org/1999/02/22-rdf-syntax-ns#">
   <cc:Work>
    <dc:type rdf:resource="http://purl.org/dc/dcmitype/StillImage"/>
    <dc:date>2021-05-28T08:56:49.247600</dc:date>
    <dc:format>image/svg+xml</dc:format>
    <dc:creator>
     <cc:Agent>
      <dc:title>Matplotlib v3.3.3, https://matplotlib.org/</dc:title>
     </cc:Agent>
    </dc:creator>
   </cc:Work>
  </rdf:RDF>
 </metadata>
 <defs>
  <style type="text/css">*{stroke-linecap:butt;stroke-linejoin:round;}</style>
 </defs>
 <g id="figure_1">
  <g id="patch_1">
   <path d="M 0 720 
L 720 720 
L 720 0 
L 0 0 
z
" style="fill:none;"/>
  </g>
  <g id="axes_1">
   <g id="patch_2">
    <path clip-path="url(#p93fa860f41)" d="M 232.879441 152.746072 
L 234.264275 152.765159 
L 236.847007 152.753565 
L 238.983455 152.697505 
L 240.798288 152.616779 
L 242.874578 152.487045 
L 245.114795 152.302072 
L 245.882561 152.23783 
L 246.898622 152.174777 
L 247.36206 152.154287 
L 247.923375 152.136395 
L 248.610167 152.124813 
L 249.264777 152.124304 
L 296.900201 152.463248 
L 299.47091 152.481594 
L 607.24588 152.794794 
L 607.248613 154.291921 
L 607.478131 292.573408 
L 607.740331 431.48711 
L 607.99807 568.419677 
L 608.00507 571.938744 
L 606.22609 571.935905 
L 297.332353 572.483108 
L 297.456607 475.565135 
L 297.615679 452.072369 
L 297.42887 433.652832 
L 295.630549 432.150257 
L 294.53039 432.152159 
L 292.623916 426.618758 
L 289.919077 420.213566 
L 287.192606 414.842602 
L 283.52049 408.823003 
L 281.271299 405.688669 
L 276.881158 399.934409 
L 276.18772 399.025536 
L 274.509017 397.160869 
L 270.475439 392.686119 
L 261.400519 382.7038 
L 248.076766 368.048381 
L 219.980584 337.122564 
L 210.192529 326.34943 
L 194.051963 302.991866 
L 189.74165 297.296853 
L 185.41503 288.321823 
L 180.81492 279.471733 
L 177.435391 271.567104 
L 176.900745 271.385323 
L 170.098138 257.041806 
L 165.193064 245.900597 
L 162.213523 238.494452 
L 159.71555 231.784745 
L 156.061524 221.446087 
L 152.823763 212.225702 
L 148.670125 201.235271 
L 142.51903 184.641619 
L 137.414017 171.748493 
L 132.387974 157.79472 
L 129.99493 149.934583 
L 160.622155 144.993518 
L 161.871008 144.753926 
L 163.728395 144.454483 
L 165.507067 144.230339 
L 167.515715 144.049702 
L 168.999447 143.965107 
L 170.907519 143.916892 
L 172.66822 143.932687 
L 174.486766 144.009819 
L 176.80181 144.17558 
L 178.820595 144.366249 
L 181.238446 144.651594 
L 183.502297 144.975642 
L 185.316351 145.275493 
L 187.553982 145.695257 
L 190.025009 146.223843 
L 192.359016 146.787077 
L 196.974603 147.905279 
L 201.321768 148.853879 
L 205.520654 149.675454 
L 209.34226 150.343538 
L 213.321851 150.959553 
L 218.495396 151.640293 
L 222.635351 152.088249 
L 226.616776 152.438589 
L 228.892182 152.592296 
L 231.50118 152.709514 
L 232.879441 152.746072 
" style="fill:#1a1a1a;stroke:#ffffff;stroke-linejoin:miter;stroke-width:4;"/>
   </g>
  </g>
 </g>
 <defs>
  <clipPath id="p93fa860f41">
   <rect height="543.6" width="558" x="90" y="86.4"/>
  </clipPath>
 </defs>
</svg>
