<?xml version="1.0" encoding="utf-8" standalone="no"?>
<!DOCTYPE svg PUBLIC "-//W3C//DTD SVG 1.1//EN"
  "http://www.w3.org/Graphics/SVG/1.1/DTD/svg11.dtd">
<!-- Created with matplotlib (https://matplotlib.org/) -->
<svg height="720pt" version="1.1" viewBox="0 0 720 720" width="720pt" xmlns="http://www.w3.org/2000/svg" xmlns:xlink="http://www.w3.org/1999/xlink">
 <metadata>
  <rdf:RDF xmlns:cc="http://creativecommons.org/ns#" xmlns:dc="http://purl.org/dc/elements/1.1/" xmlns:rdf="http://www.w3.org/1999/02/22-rdf-syntax-ns#">
   <cc:Work>
    <dc:type rdf:resource="http://purl.org/dc/dcmitype/StillImage"/>
    <dc:date>2021-05-07T11:03:02.174685</dc:date>
    <dc:format>image/svg+xml</dc:format>
    <dc:creator>
     <cc:Agent>
      <dc:title>Matplotlib v3.3.3, https://matplotlib.org/</dc:title>
     </cc:Agent>
    </dc:creator>
   </cc:Work>
  </rdf:RDF>
 </metadata>
 <defs>
  <style type="text/css">*{stroke-linecap:butt;stroke-linejoin:round;}</style>
 </defs>
 <g id="figure_1">
  <g id="patch_1">
   <path d="M 0 720 
L 720 720 
L 720 0 
L 0 0 
z
" style="fill:none;"/>
  </g>
  <g id="axes_1">
   <g id="patch_2">
    <path clip-path="url(#p1b9b89f95e)" d="M 515.229847 260.250469 
L 548.499438 260.271372 
L 548.506429 260.271372 
L 548.506441 262.930639 
L 553.230687 262.92926 
L 553.227958 456.230167 
L 240.6006 455.382851 
L 184.771325 455.319972 
L 184.769313 442.497945 
L 184.799902 434.249989 
L 184.931766 391.145395 
L 184.979352 375.676173 
L 234.883277 375.773623 
L 255.169814 375.805967 
L 252.582519 375.206197 
L 250.391616 373.509431 
L 248.929412 370.973362 
L 248.419011 367.984523 
L 248.430611 359.933349 
L 249.025008 352.24683 
L 250.766947 344.796511 
L 253.603476 337.808913 
L 257.448134 331.496714 
L 260.328028 327.963823 
L 263.525468 324.816312 
L 267.002079 322.091888 
L 270.716241 319.823261 
L 285.04746 312.200851 
L 321.49458 292.816617 
L 326.062345 290.387072 
L 332.56814 286.674868 
L 338.888873 282.558586 
L 345.005832 278.050411 
L 353.428505 270.889936 
L 363.874941 260.169833 
L 466.38745 260.248996 
L 515.229847 260.250469 
" style="stroke:#ffffff;stroke-linejoin:miter;stroke-width:2;"/>
   </g>
  </g>
 </g>
 <defs>
  <clipPath id="p1b9b89f95e">
   <rect height="543.6" width="558" x="90" y="86.4"/>
  </clipPath>
 </defs>
</svg>
