<?xml version="1.0" encoding="utf-8" standalone="no"?>
<!DOCTYPE svg PUBLIC "-//W3C//DTD SVG 1.1//EN"
  "http://www.w3.org/Graphics/SVG/1.1/DTD/svg11.dtd">
<!-- Created with matplotlib (https://matplotlib.org/) -->
<svg height="720pt" version="1.1" viewBox="0 0 720 720" width="720pt" xmlns="http://www.w3.org/2000/svg" xmlns:xlink="http://www.w3.org/1999/xlink">
 <metadata>
  <rdf:RDF xmlns:cc="http://creativecommons.org/ns#" xmlns:dc="http://purl.org/dc/elements/1.1/" xmlns:rdf="http://www.w3.org/1999/02/22-rdf-syntax-ns#">
   <cc:Work>
    <dc:type rdf:resource="http://purl.org/dc/dcmitype/StillImage"/>
    <dc:date>2021-05-07T11:03:05.603226</dc:date>
    <dc:format>image/svg+xml</dc:format>
    <dc:creator>
     <cc:Agent>
      <dc:title>Matplotlib v3.3.3, https://matplotlib.org/</dc:title>
     </cc:Agent>
    </dc:creator>
   </cc:Work>
  </rdf:RDF>
 </metadata>
 <defs>
  <style type="text/css">*{stroke-linecap:butt;stroke-linejoin:round;}</style>
 </defs>
 <g id="figure_1">
  <g id="patch_1">
   <path d="M 0 720 
L 720 720 
L 720 0 
L 0 0 
z
" style="fill:none;"/>
  </g>
  <g id="axes_1">
   <g id="patch_2">
    <path clip-path="url(#p003ac074c9)" d="M 296.048036 168.90458 
L 298.580691 169.092899 
L 301.103402 169.059295 
L 303.635023 169.222944 
L 306.14641 168.942662 
L 308.68151 169.180237 
L 311.212063 169.319202 
L 313.788808 169.701186 
L 316.427757 170.241082 
L 317.698675 170.503563 
L 317.711921 170.506287 
L 318.941459 170.809113 
L 321.035769 171.504198 
L 321.398962 171.661738 
L 323.842412 172.585427 
L 326.24371 173.722433 
L 328.65448 174.811956 
L 331.046458 175.9965 
L 333.433858 177.204563 
L 335.779088 178.62624 
L 336.809876 179.261648 
L 339.344005 180.309783 
L 345.095654 183.22181 
L 348.269106 184.467123 
L 350.816658 184.752289 
L 353.30847 185.37322 
L 355.708626 186.54571 
L 358.092651 187.814243 
L 360.396933 189.562551 
L 362.713291 191.238862 
L 365.224959 191.740109 
L 367.568519 192.815285 
L 370.22782 193.545939 
L 372.681656 194.49154 
L 375.188237 195.229431 
L 377.565728 196.475334 
L 379.902097 197.882874 
L 382.215018 199.383007 
L 384.557109 200.767569 
L 386.840697 202.383327 
L 389.176879 203.790906 
L 391.448677 205.452975 
L 393.702758 207.184146 
L 395.886405 209.192284 
L 397.940772 211.708899 
L 400.353466 212.816467 
L 402.654557 214.362703 
L 405.14945 215.146745 
L 406.285609 216.057157 
L 408.961587 217.977552 
L 411.498555 219.747606 
L 413.50982 222.156703 
L 413.059676 225.129941 
L 413.648344 226.840952 
L 414.396998 228.692815 
L 416.898528 229.35054 
L 419.400057 230.008524 
L 421.812294 231.090745 
L 424.288958 231.866557 
L 426.607157 233.397006 
L 428.722057 235.89392 
L 429.486737 236.719992 
L 432.085421 238.91531 
L 434.216583 241.000772 
L 436.446851 242.920348 
L 438.699194 244.802985 
L 440.808252 246.925174 
L 442.719208 249.379157 
L 444.762386 251.612202 
L 446.662293 254.084573 
L 448.551327 256.575522 
L 450.286206 259.324392 
L 451.888849 262.294704 
L 453.656663 264.988288 
L 455.149292 268.142851 
L 455.561527 268.817188 
L 457.338512 272.080849 
L 458.62415 275.365779 
L 461.399762 281.23099 
L 463.931718 281.877892 
L 466.506735 284.572913 
L 480.281217 295.504891 
L 483.838437 298.577818 
L 487.022093 299.770699 
L 492.877962 301.383005 
L 498.244507 302.731535 
L 502.9634 303.894435 
L 509.586225 307.13882 
L 514.42329 308.312856 
L 519.087702 310.141452 
L 521.852593 311.158096 
L 531.038732 312.975763 
L 536.634752 312.941279 
L 541.030237 315.401571 
L 544.218367 314.418882 
L 548.98415 313.906215 
L 554.391629 313.900258 
L 559.526317 313.317641 
L 564.42033 312.710787 
L 567.73391 312.798378 
L 572.681446 312.338192 
L 575.143803 312.646253 
L 579.359548 312.452677 
L 583.092446 311.210486 
L 584.844199 312.903768 
L 585.889539 311.463101 
L 589.26991 312.265933 
L 594.542963 312.448742 
L 599.492998 312.844019 
L 600.928286 308.666134 
L 600.821808 307.789245 
L 601.110555 306.994987 
L 601.28153 306.164697 
L 601.376266 305.234913 
L 601.471546 304.405501 
L 601.533494 303.601711 
L 601.721599 302.821281 
L 602.018025 301.914028 
L 602.213633 301.008217 
L 602.450732 300.026335 
L 602.780481 299.081074 
L 603.331534 298.609447 
L 603.943604 298.463602 
L 604.161442 298.385436 
L 604.722368 298.127097 
L 605.31652 297.792975 
L 605.834014 297.309394 
L 606.359485 296.775564 
L 606.964044 296.250261 
L 607.019245 296.20231 
L 607.56307 295.906748 
L 608.208202 295.684853 
L 608.727613 295.489783 
L 609.271928 295.269378 
L 609.315312 295.245044 
L 607.50533 303.009556 
L 605.136614 314.792812 
L 603.056562 327.075675 
L 601.381084 338.472092 
L 599.733266 350.959556 
L 599.155351 365.321492 
L 597.880953 382.98903 
L 597.926696 404.575107 
L 598.406222 424.523804 
L 599.319528 442.835121 
L 613.269806 547.49542 
L 454.97066 545.993749 
L 319.165122 545.497514 
L 185.021956 545.039146 
L 185.026267 537.501423 
L 185.02508 537.502913 
L 171.587452 537.488225 
L 169.158804 531.220562 
L 166.097107 525.463855 
L 164.398038 522.722842 
L 163.595908 524.287254 
L 162.51207 524.572542 
L 160.860353 524.711633 
L 158.915712 523.595599 
L 157.005691 519.235525 
L 156.016847 518.586513 
L 155.694095 517.775575 
L 146.386337 505.290672 
L 142.280334 500.741709 
L 138.806004 496.446909 
L 136.026516 494.48373 
L 135.08302 492.869095 
L 133.96808 490.665621 
L 133.303952 489.021351 
L 133.192276 486.686983 
L 132.711231 484.829572 
L 132.813259 483.285523 
L 135.274031 480.93963 
L 137.538846 478.312227 
L 137.631477 474.455568 
L 137.893345 474.103073 
L 142.292319 471.818698 
L 141.683463 470.604959 
L 138.892177 455.896929 
L 139.017483 445.459124 
L 139.840921 433.979972 
L 139.416654 426.496598 
L 137.392273 416.052948 
L 136.33451 410.596151 
L 134.802208 402.635403 
L 134.220754 400.938854 
L 132.386571 391.842657 
L 129.97814 382.994418 
L 124.730194 374.208782 
L 125.22208 374.206041 
L 127.328891 375.334134 
L 128.1628 376.007915 
L 130.5781 377.895401 
L 132.147169 379.724458 
L 132.623328 380.037598 
L 132.87502 380.351961 
L 133.044873 381.026152 
L 134.037102 381.020638 
L 136.378298 379.026112 
L 136.796307 378.270729 
L 137.44052 376.814752 
L 140.665842 376.061697 
L 144.481486 378.142822 
L 144.773001 387.150783 
L 146.405552 393.91211 
L 149.88364 396.936024 
L 154.251638 391.840218 
L 156.396868 392.93498 
L 156.181522 401.648054 
L 159.002067 403.570064 
L 161.294953 405.510026 
L 163.705784 407.565076 
L 166.089514 409.355032 
L 168.238718 410.940049 
L 170.458264 413.17594 
L 172.899658 414.766539 
L 175.654602 415.837507 
L 178.686754 414.841636 
L 179.526248 412.32219 
L 181.027645 409.672318 
L 182.775398 408.213987 
L 185.13108 408.282468 
L 185.138068 408.288289 
L 185.195696 342.40612 
L 185.19477 337.433568 
L 185.17036 219.052245 
L 185.197168 214.607059 
L 187.606986 214.5373 
L 190.108297 215.133237 
L 192.232395 215.511752 
L 194.769175 215.334924 
L 197.288151 215.992381 
L 199.796585 215.578414 
L 202.310807 215.361938 
L 203.683382 214.879278 
L 205.752692 214.199727 
L 207.906659 212.235588 
L 209.866745 209.72591 
L 211.61749 206.626765 
L 213.62366 203.687165 
L 215.611684 201.373902 
L 217.703819 199.252923 
L 219.952049 197.419846 
L 222.12738 195.452457 
L 224.521218 193.888611 
L 226.6343 191.805872 
L 228.799191 189.819306 
L 231.677412 188.002164 
L 233.980429 186.328336 
L 236.336539 184.940524 
L 238.674904 183.457633 
L 241.075217 182.307932 
L 243.506364 181.324956 
L 245.941871 180.365947 
L 247.085267 179.903657 
L 248.377213 179.405962 
L 250.826273 178.51934 
L 255.171794 178.258195 
L 255.804454 177.867134 
L 255.922683 177.81582 
L 257.492458 177.309244 
L 260.031144 177.196012 
L 262.480263 176.252825 
L 265.003395 175.993091 
L 267.484128 175.342971 
L 269.951663 174.5708 
L 272.385074 173.481626 
L 274.894866 173.099875 
L 277.380849 172.498475 
L 279.943373 172.604745 
L 282.408383 171.808166 
L 284.86277 170.914246 
L 285.876783 170.593911 
L 288.519167 169.868611 
L 291.026169 169.489913 
L 293.526391 168.962924 
L 296.048036 168.90458 
" style="stroke:#ffffff;stroke-linejoin:miter;stroke-width:2;"/>
   </g>
  </g>
 </g>
 <defs>
  <clipPath id="p003ac074c9">
   <rect height="543.6" width="558" x="90" y="86.4"/>
  </clipPath>
 </defs>
</svg>
