<?xml version="1.0" encoding="utf-8" standalone="no"?>
<!DOCTYPE svg PUBLIC "-//W3C//DTD SVG 1.1//EN"
  "http://www.w3.org/Graphics/SVG/1.1/DTD/svg11.dtd">
<!-- Created with matplotlib (https://matplotlib.org/) -->
<svg height="720pt" version="1.1" viewBox="0 0 720 720" width="720pt" xmlns="http://www.w3.org/2000/svg" xmlns:xlink="http://www.w3.org/1999/xlink">
 <metadata>
  <rdf:RDF xmlns:cc="http://creativecommons.org/ns#" xmlns:dc="http://purl.org/dc/elements/1.1/" xmlns:rdf="http://www.w3.org/1999/02/22-rdf-syntax-ns#">
   <cc:Work>
    <dc:type rdf:resource="http://purl.org/dc/dcmitype/StillImage"/>
    <dc:date>2021-05-07T11:03:05.492682</dc:date>
    <dc:format>image/svg+xml</dc:format>
    <dc:creator>
     <cc:Agent>
      <dc:title>Matplotlib v3.3.3, https://matplotlib.org/</dc:title>
     </cc:Agent>
    </dc:creator>
   </cc:Work>
  </rdf:RDF>
 </metadata>
 <defs>
  <style type="text/css">*{stroke-linecap:butt;stroke-linejoin:round;}</style>
 </defs>
 <g id="figure_1">
  <g id="patch_1">
   <path d="M 0 720 
L 720 720 
L 720 0 
L 0 0 
z
" style="fill:none;"/>
  </g>
  <g id="axes_1">
   <g id="patch_2">
    <path clip-path="url(#pbdc181d821)" d="M 505.235557 287.475211 
L 539.601946 306.216157 
L 546.491886 314.908225 
L 572.571246 347.647577 
L 580.816454 358.030455 
L 585.819775 364.306345 
L 591.37562 371.063713 
L 589.007761 480.586793 
L 586.346475 479.072829 
L 585.683417 478.440509 
L 584.71675 477.561095 
L 583.65539 476.766014 
L 582.625494 475.933172 
L 582.454941 475.763673 
L 581.3927 474.885412 
L 581.102489 474.596443 
L 580.069169 473.856639 
L 579.117981 473.14358 
L 578.235768 472.499387 
L 577.354131 471.869177 
L 576.487082 471.3637 
L 575.73053 470.968425 
L 574.725858 470.367054 
L 573.950142 469.914062 
L 573.321977 469.519744 
L 572.288992 468.835218 
L 571.352963 468.261124 
L 570.459637 467.853112 
L 569.553154 467.486976 
L 568.481558 467.052826 
L 567.409391 466.549477 
L 566.461425 466.155717 
L 565.67765 465.760745 
L 565.05901 465.461123 
L 564.150755 464.914373 
L 563.338363 464.394655 
L 562.50028 464.055552 
L 561.498527 463.731891 
L 560.646381 463.351211 
L 559.69868 462.957728 
L 558.695191 462.495096 
L 557.731973 461.934991 
L 557.140498 461.607439 
L 556.273169 461.074366 
L 555.459611 460.457243 
L 554.451688 459.536571 
L 556.035268 444.742692 
L 555.899057 443.817688 
L 555.646594 442.951617 
L 555.335997 442.105298 
L 554.890017 441.298775 
L 554.42446 440.236184 
L 554.055676 439.350516 
L 553.667829 438.52424 
L 553.202429 437.67806 
L 552.678673 436.59582 
L 552.213069 435.513502 
L 551.786384 434.608458 
L 551.378796 433.683423 
L 550.81627 432.601192 
L 550.157229 431.676654 
L 549.749781 430.604136 
L 549.439501 430.131863 
L 548.973942 429.108676 
L 548.585786 428.243001 
L 548.120431 427.455924 
L 547.732474 426.511445 
L 547.344316 425.645524 
L 547.111434 425.015848 
L 546.646008 424.149969 
L 546.257982 423.126687 
L 545.715087 422.339681 
L 545.327128 421.395202 
L 544.861363 420.450794 
L 544.318736 419.663815 
L 543.853308 418.798211 
L 543.232806 417.932471 
L 542.767444 417.145397 
L 541.914465 416.122533 
L 541.37174 415.256999 
L 540.90597 414.312318 
L 540.440469 413.367938 
L 539.897768 412.50213 
L 539.509601 411.636457 
L 539.044167 410.770581 
L 538.268855 409.905257 
L 537.958223 409.039241 
L 537.64786 408.173499 
L 536.949745 407.229056 
L 536.251898 406.284859 
L 535.786391 405.340454 
L 535.630761 404.395495 
L 535.242659 403.608655 
L 534.46761 402.743059 
L 533.692153 401.72013 
L 533.149037 400.696991 
L 532.760794 399.752243 
L 532.372819 398.807769 
L 531.829701 397.784631 
L 531.209383 396.840394 
L 530.511162 395.817397 
L 529.658568 394.951874 
L 528.960641 393.928878 
L 528.727469 392.984264 
L 528.571564 392.039333 
L 528.183654 391.173664 
L 527.795786 390.662064 
L 527.608771 390.131129 
L 527.601726 390.111161 
L 527.213746 389.166414 
L 526.670759 388.300913 
L 525.93403 387.277953 
L 525.93333 386.451061 
L 526.08727 385.466721 
L 525.931736 384.639969 
L 525.194997 383.577608 
L 524.497131 382.633418 
L 524.031581 381.689043 
L 523.178636 380.744721 
L 522.325995 379.840075 
L 521.82177 378.97424 
L 521.007731 378.187765 
L 520.07773 377.519328 
L 519.18615 376.732651 
L 518.294637 375.749239 
L 517.441685 374.804921 
L 516.433889 373.821616 
L 515.620295 373.271282 
L 514.767794 372.838889 
L 513.915255 372.091582 
L 513.139872 371.186624 
L 512.171295 370.715211 
L 511.318747 370.263146 
L 510.485084 369.220583 
L 509.767816 368.276418 
L 509.031135 367.332025 
L 507.984775 366.289659 
L 507.209419 365.424353 
L 506.395249 364.539108 
L 505.406964 363.713402 
L 504.418791 363.04503 
L 503.58563 362.573224 
L 502.616868 361.904835 
L 501.648042 361.197045 
L 500.69861 360.469537 
L 499.826707 359.761659 
L 498.954525 359.014379 
L 498.06311 358.168613 
L 497.036277 357.598787 
L 496.203136 357.186116 
L 495.618341 356.837187 
L 495.215053 356.596555 
L 494.16884 356.065877 
L 493.219525 355.476254 
L 492.250797 354.886676 
L 491.204601 354.316599 
L 490.216487 353.667938 
L 489.344842 353.196478 
L 488.511795 352.862341 
L 487.717795 352.508741 
L 486.884748 352.174852 
L 485.846772 351.767304 
L 484.792664 351.385767 
L 483.851565 350.927509 
L 483.061081 350.62234 
L 482.195272 350.355276 
L 481.216661 350.126599 
L 480.350922 349.936151 
L 479.485416 349.707396 
L 478.431488 349.555407 
L 477.453043 349.479715 
L 476.512291 349.404263 
L 475.684111 349.09886 
L 474.780677 348.908424 
L 474.14093 348.832415 
L 473.162422 348.718693 
L 472.146423 348.796244 
L 471.205881 348.950092 
L 470.227373 348.836071 
L 469.361561 348.569289 
L 468.420843 348.531876 
L 467.404782 348.571123 
L 466.501382 348.418753 
L 465.635463 348.037051 
L 464.770209 348.114491 
L 463.942486 348.306517 
L 462.888865 348.460451 
L 461.948217 348.499657 
L 461.007097 348.347601 
L 460.066414 348.348474 
L 459.050238 348.234524 
L 458.12419 348.077804 
L 457.548492 347.972162 
L 456.657444 347.786405 
L 456.080834 347.597611 
L 455.079027 347.301964 
L 454.105272 347.061563 
L 453.14581 346.876394 
L 452.269108 346.773808 
L 451.269045 346.616862 
L 450.283314 346.556794 
L 449.285048 346.594423 
L 448.287089 346.673342 
L 447.263401 346.905543 
L 446.335291 347.108895 
L 445.44777 347.270372 
L 444.3823 347.419407 
L 443.450648 347.289517 
L 442.575985 347.381454 
L 441.796902 347.444597 
L 440.880725 347.481057 
L 440.142861 347.571495 
L 439.432714 347.675616 
L 438.409054 347.907797 
L 437.383904 348.014961 
L 436.495525 348.092988 
L 435.470672 348.200126 
L 434.420384 348.487881 
L 433.356407 348.789907 
L 432.52357 348.950764 
L 431.623207 349.195443 
L 430.680766 349.357503 
L 429.711186 349.519616 
L 428.728399 349.723581 
L 427.745344 349.927301 
L 426.953418 350.073892 
L 426.229851 350.219897 
L 425.166159 350.535582 
L 424.253842 350.947189 
L 423.260337 351.456807 
L 422.281141 352.035365 
L 421.478712 352.487636 
L 420.703195 352.897715 
L 419.655011 353.407964 
L 418.960696 353.733961 
L 417.994347 354.201691 
L 416.987075 354.6974 
L 416.116588 355.177897 
L 415.381687 355.573738 
L 414.455632 355.971656 
L 413.556501 356.341393 
L 412.615815 356.64219 
L 411.662031 357.012502 
L 410.802022 357.215017 
L 409.970376 357.487005 
L 408.949352 357.95507 
L 408.07712 358.296846 
L 407.0985 358.903625 
L 406.20022 359.342565 
L 405.424993 359.794517 
L 404.594831 360.205235 
L 403.601622 360.728821 
L 402.649619 361.293439 
L 401.805094 361.634918 
L 401.259807 361.820707 
L 400.318549 362.079649 
L 399.255181 362.437246 
L 398.328852 362.821221 
L 397.388214 363.135738 
L 397.007172 363.333923 
L 395.970972 363.690948 
L 395.275509 363.906141 
L 394.607778 364.148696 
L 393.59935 364.519376 
L 392.646734 365.000792 
L 391.761614 365.398137 
L 390.902799 365.712029 
L 389.880346 366.055337 
L 388.967779 366.439058 
L 388.082958 366.864315 
L 387.210683 367.178222 
L 386.597029 367.378561 
L 385.80598 367.608385 
L 385.083922 367.879429 
L 384.157897 368.291076 
L 383.231899 368.702697 
L 382.388018 369.141352 
L 381.340143 369.665284 
L 380.413527 370.021389 
L 379.610232 370.390202 
L 378.630177 370.857974 
L 377.555747 371.479647 
L 376.535674 372.044872 
L 375.597704 372.623421 
L 374.673464 373.20171 
L 373.763281 373.835231 
L 372.90771 374.426832 
L 371.916897 375.200286 
L 371.021632 375.916975 
L 369.975562 376.649416 
L 369.024756 377.311192 
L 367.966453 378.140783 
L 367.004307 379.038683 
L 366.162176 379.602392 
L 365.280352 380.319071 
L 364.261776 381.051214 
L 363.227943 381.602809 
L 362.357774 382.124931 
L 361.435045 382.856156 
L 360.553523 383.600502 
L 359.683342 384.108944 
L 358.745738 384.743051 
L 357.877949 385.487383 
L 356.969548 386.27387 
L 356.168659 386.878559 
L 355.176959 387.554889 
L 354.187028 388.383873 
L 353.385858 388.974636 
L 352.434744 389.581125 
L 351.416166 390.299323 
L 350.493462 391.044264 
L 349.516983 391.859009 
L 348.526776 392.674043 
L 347.62855 393.127278 
L 346.567866 393.734705 
L 345.494345 394.425328 
L 344.58566 395.184214 
L 343.567388 395.930054 
L 342.710088 396.382702 
L 342.357118 396.636145 
L 341.584325 397.324023 
L 340.553515 398.181243 
L 339.521461 398.899463 
L 338.583849 399.533337 
L 337.579611 400.306803 
L 336.643445 401.038059 
L 335.73239 401.574497 
L 334.86434 402.305136 
L 334.076564 402.840351 
L 333.114145 403.696985 
L 332.097954 404.651059 
L 331.028601 405.744465 
L 330.202031 406.516408 
L 329.373392 407.079852 
L 328.35511 407.825731 
L 327.513054 408.431027 
L 326.588831 409.009349 
L 325.856336 409.599783 
L 324.784 410.401787 
L 323.779184 411.147654 
L 322.897955 411.905978 
L 322.015564 412.553459 
L 321.17377 413.172468 
L 320.170148 414.029401 
L 319.371077 414.800774 
L 318.354308 415.699614 
L 317.514602 416.513143 
L 316.743306 417.326079 
L 316.54382 417.883363 
L 316.390302 418.8984 
L 315.730382 419.89099 
L 314.747067 420.067155 
L 313.791537 420.2709 
L 312.990061 420.79246 
L 312.34267 421.687628 
L 311.79054 422.539982 
L 311.224979 423.420288 
L 310.591333 424.301214 
L 309.792558 425.11443 
L 309.296273 426.07727 
L 308.6489 426.958485 
L 307.714854 427.911969 
L 307.122419 428.834143 
L 306.693313 429.671345 
L 306.197939 430.703686 
L 305.592655 431.695675 
L 304.876878 432.577512 
L 304.299964 433.666034 
L 303.776213 434.615498 
L 303.197811 435.565321 
L 302.754992 436.388859 
L 302.465335 437.474884 
L 302.365304 438.392181 
L 292.340052 445.169322 
L 291.273481 445.235323 
L 290.388128 445.591171 
L 289.488436 445.90569 
L 288.428101 446.526871 
L 287.545451 447.174402 
L 286.80047 447.889889 
L 285.799549 448.968781 
L 284.837179 449.839103 
L 284.119022 450.484816 
L 283.223852 451.229774 
L 282.518546 451.805945 
L 281.541865 452.607086 
L 280.661595 453.462546 
L 279.60457 454.430959 
L 278.791473 455.161055 
L 277.907651 455.683519 
L 277.036921 456.136496 
L 276.128626 456.936718 
L 275.314054 457.54177 
L 274.500962 458.271868 
L 273.731804 459.279347 
L 273.070441 460.160594 
L 272.025634 460.962335 
L 271.008206 461.661739 
L 265.580755 465.830784 
L 260.355909 470.140653 
L 255.510778 474.690255 
L 255.491684 474.708609 
L 252.99562 473.996392 
L 249.628796 473.718022 
L 247.274955 474.607456 
L 243.275571 476.180109 
L 240.931841 477.101749 
L 235.646008 480.897558 
L 230.621548 483.576568 
L 226.744413 486.096914 
L 225.823918 486.775556 
L 224.785002 487.23505 
L 223.964547 487.569224 
L 222.92562 488.042675 
L 222.023118 488.432488 
L 221.038781 488.850059 
L 220.13658 489.267811 
L 219.070132 489.65784 
L 218.194943 489.936561 
L 217.128572 490.396064 
L 216.458521 490.674554 
L 215.474214 491.092402 
L 214.654323 491.690355 
L 213.601947 492.413647 
L 212.563511 493.081351 
L 211.675244 493.679411 
L 210.814171 494.30505 
L 209.912145 494.875491 
L 209.023822 495.445917 
L 208.026306 496.085667 
L 207.083474 496.78093 
L 206.182077 497.698301 
L 205.185236 498.727175 
L 204.201826 499.727823 
L 203.396359 500.70066 
L 202.508835 501.743064 
L 201.676169 502.729614 
L 200.829521 503.730382 
L 200.256549 504.633426 
L 199.656068 505.467302 
L 198.782264 506.495739 
L 197.85342 507.413174 
L 197.06166 508.358062 
L 196.461688 509.427803 
L 195.86137 510.428018 
L 195.395306 511.115051 
L 195.342897 511.192301 
L 194.660551 512.26211 
L 194.019189 513.123672 
L 193.542076 514.040563 
L 193.023446 514.901957 
L 192.382179 515.846975 
L 191.672554 516.833389 
L 190.935456 517.806127 
L 190.23947 518.709317 
L 189.488676 519.710009 
L 188.970346 520.571404 
L 188.534096 521.432731 
L 188.084056 522.238501 
L 187.538284 523.113637 
L 186.774065 524.141954 
L 186.036944 525.087086 
L 185.121989 526.12926 
L 184.56275 527.018641 
L 184.194893 527.865908 
L 183.950476 528.865715 
L 183.883451 529.615525 
L 183.871133 530.392907 
L 183.982237 531.30912 
L 184.134317 532.252949 
L 184.231552 533.044132 
L 184.178806 534.043744 
L 183.988624 534.890833 
L 183.68942 535.765657 
L 183.239652 536.807594 
L 183.116908 537.057529 
L 182.462279 538.099704 
L 182.027213 538.687517 
L 155.696364 504.162286 
L 154.555823 502.682748 
L 153.175407 500.654138 
L 152.496434 499.66026 
L 151.549706 497.867331 
L 151.023688 496.821421 
L 150.41319 495.327086 
L 149.8813 493.763239 
L 149.466907 492.565308 
L 149.171688 491.433673 
L 148.875981 489.853567 
L 148.68487 487.95295 
L 148.068508 477.411196 
L 148.09792 463.69589 
L 148.169607 430.275078 
L 147.813939 389.148225 
L 147.760826 383.006376 
L 147.493207 352.063842 
L 147.442054 346.366357 
L 147.359097 337.121124 
L 147.235574 323.358044 
L 147.078184 299.048455 
L 146.932903 285.07682 
L 146.666818 257.214709 
L 146.62438 249.358814 
L 217.922383 274.830803 
L 217.931274 275.889829 
L 218.109616 296.33347 
L 231.974034 296.21001 
L 272.790365 279.418118 
L 280.02297 256.28265 
L 280.190982 252.117413 
L 280.494588 244.600322 
L 280.788446 237.105324 
L 280.926419 233.354633 
L 281.156558 227.096131 
L 290.240041 208.860443 
L 317.254 183.630166 
L 368.70245 177.712483 
L 394.692016 186.323889 
L 416.794121 200.246841 
L 419.45256 201.253478 
L 422.215588 211.363221 
L 463.752923 257.846458 
L 466.180182 259.534047 
L 498.606983 286.914677 
L 498.606625 287.415136 
L 505.235557 287.475211 
" style="stroke:#ffffff;stroke-linejoin:miter;stroke-width:2;"/>
   </g>
  </g>
 </g>
 <defs>
  <clipPath id="pbdc181d821">
   <rect height="543.6" width="558" x="90" y="86.4"/>
  </clipPath>
 </defs>
</svg>
