<?xml version="1.0" encoding="utf-8" standalone="no"?>
<!DOCTYPE svg PUBLIC "-//W3C//DTD SVG 1.1//EN"
  "http://www.w3.org/Graphics/SVG/1.1/DTD/svg11.dtd">
<!-- Created with matplotlib (https://matplotlib.org/) -->
<svg height="720pt" version="1.1" viewBox="0 0 720 720" width="720pt" xmlns="http://www.w3.org/2000/svg" xmlns:xlink="http://www.w3.org/1999/xlink">
 <metadata>
  <rdf:RDF xmlns:cc="http://creativecommons.org/ns#" xmlns:dc="http://purl.org/dc/elements/1.1/" xmlns:rdf="http://www.w3.org/1999/02/22-rdf-syntax-ns#">
   <cc:Work>
    <dc:type rdf:resource="http://purl.org/dc/dcmitype/StillImage"/>
    <dc:date>2021-05-07T11:03:01.338914</dc:date>
    <dc:format>image/svg+xml</dc:format>
    <dc:creator>
     <cc:Agent>
      <dc:title>Matplotlib v3.3.3, https://matplotlib.org/</dc:title>
     </cc:Agent>
    </dc:creator>
   </cc:Work>
  </rdf:RDF>
 </metadata>
 <defs>
  <style type="text/css">*{stroke-linecap:butt;stroke-linejoin:round;}</style>
 </defs>
 <g id="figure_1">
  <g id="patch_1">
   <path d="M 0 720 
L 720 720 
L 720 0 
L 0 0 
z
" style="fill:none;"/>
  </g>
  <g id="axes_1">
   <g id="patch_2">
    <path clip-path="url(#p962c7c7818)" d="M 547.172729 502.024831 
L 568.024171 515.77155 
L 580.542097 524.024542 
L 587.662957 529.894207 
L 590.5759 535.062296 
L 590.538451 546.813627 
L 590.323229 557.042607 
L 590.199346 562.931939 
L 589.995884 572.602933 
L 589.860254 579.050268 
L 578.216265 574.222644 
L 550.557634 562.755717 
L 509.762052 545.18228 
L 499.523375 540.592655 
L 470.473354 527.571104 
L 435.45533 511.884643 
L 420.305997 505.098799 
L 403.124746 516.762855 
L 390.505377 511.311255 
L 382.248318 517.107325 
L 373.858145 522.996962 
L 368.961026 520.776665 
L 338.293222 507.436601 
L 331.38461 504.229623 
L 321.856606 499.171288 
L 309.160064 495.45726 
L 268.470513 486.43095 
L 257.525105 483.869089 
L 256.151943 483.09994 
L 254.910329 482.433372 
L 249.759667 479.613232 
L 247.873387 478.330915 
L 246.400121 476.851245 
L 245.916978 475.341008 
L 238.311231 471.154274 
L 234.289848 468.960525 
L 252.985665 457.434742 
L 261.457264 452.272915 
L 271.69112 445.970341 
L 275.527495 443.765971 
L 289.725997 435.607664 
L 290.411126 435.185497 
L 291.525122 434.490197 
L 292.707318 433.750254 
L 293.457573 433.278226 
L 293.670873 433.141645 
L 296.272661 431.484501 
L 299.195228 429.593458 
L 301.607189 428.169154 
L 304.235731 426.530727 
L 306.949685 424.807001 
L 308.798803 423.652249 
L 309.453782 423.189992 
L 312.922467 421.023574 
L 317.175642 418.369551 
L 318.275636 417.690612 
L 320.585608 416.270985 
L 322.418965 415.159952 
L 323.959232 414.29571 
L 325.609184 413.267031 
L 326.903272 412.490345 
L 328.922307 411.204382 
L 333.453401 408.69264 
L 337.001529 406.609925 
L 339.676133 404.986715 
L 343.005848 402.995948 
L 346.990301 400.51529 
L 349.719557 398.861461 
L 351.247865 397.91207 
L 352.210224 397.331653 
L 353.569046 396.567701 
L 355.048163 395.706495 
L 357.085342 394.485211 
L 357.78282 393.999936 
L 358.209481 393.732862 
L 362.892181 390.514448 
L 368.31047 385.303968 
L 379.835286 372.651609 
L 401.52387 348.25454 
L 402.680913 346.933457 
L 403.581985 345.901368 
L 404.266934 345.152572 
L 404.573059 344.760695 
L 405.221944 344.051351 
L 406.331076 342.847566 
L 407.193685 341.892856 
L 408.278106 340.702926 
L 409.904801 338.92839 
L 411.528392 337.19418 
L 413.00695 335.47854 
L 413.968267 334.454631 
L 414.658238 333.638321 
L 414.953695 333.209477 
L 415.167379 332.920172 
L 412.192897 332.287154 
L 410.758701 331.93992 
L 409.262258 331.592756 
L 406.518709 330.967908 
L 401.218972 329.857432 
L 395.607765 328.782083 
L 393.113845 328.296405 
L 390.601912 327.646499 
L 369.059982 323.135147 
L 347.996307 318.724084 
L 334.783823 315.811752 
L 325.873445 311.928391 
L 308.44215 304.536038 
L 300.371879 301.373105 
L 287.780073 296.438148 
L 251.926101 282.739433 
L 241.208357 278.679095 
L 230.177144 274.500076 
L 220.329408 270.517627 
L 209.66833 265.938157 
L 218.652259 258.848218 
L 221.448555 250.330917 
L 218.03771 242.450215 
L 195.532017 226.796941 
L 165.948857 206.222261 
L 157.093791 199.487354 
L 151.795953 193.069128 
L 148.572144 186.859474 
L 147.4241 181.384876 
L 147.966238 173.90788 
L 149.041691 170.838943 
L 150.430008 167.868113 
L 151.750389 165.522502 
L 153.281287 163.450185 
L 155.230636 161.103975 
L 157.112018 159.382969 
L 159.341753 157.309987 
L 162.19994 155.080102 
L 165.616918 152.771537 
L 169.662632 150.384226 
L 174.47571 147.566385 
L 176.034569 146.535822 
L 178.353219 145.202244 
L 180.815833 143.72949 
L 183.3597 142.226338 
L 186.471922 140.404315 
L 188.555697 139.159327 
L 189.719325 138.445752 
L 190.254344 138.034178 
L 191.373679 137.349732 
L 319.321091 201.009817 
L 352.158846 217.886171 
L 374.907605 231.465836 
L 395.767149 243.272105 
L 454.718609 276.804515 
L 463.160443 281.20947 
L 466.393099 282.782323 
L 471.858534 285.206748 
L 477.499961 287.598211 
L 488.134628 291.495439 
L 499.413687 294.96543 
L 516.454557 298.847263 
L 590.134292 313.793621 
L 589.520612 314.686509 
L 589.235722 315.120118 
L 588.80161 315.764553 
L 588.305495 316.513452 
L 587.778465 317.332025 
L 587.530688 317.81962 
L 587.096758 318.533674 
L 586.445771 319.578625 
L 585.794812 320.623592 
L 585.205876 321.581469 
L 584.710083 322.452217 
L 584.043389 323.570495 
L 579.89976 330.607542 
L 576.885616 335.614417 
L 565.08356 356.184792 
L 560.02844 363.035441 
L 556.123416 369.545411 
L 536.660194 401.993463 
L 532.599049 409.076083 
L 526.015143 430.951983 
L 523.917895 437.943351 
L 522.404248 442.989413 
L 521.640336 445.536009 
L 518.759993 455.138483 
L 516.720142 461.927761 
L 514.892483 468.01087 
L 518.630668 470.555078 
L 524.735112 477.300767 
L 531.836607 485.148346 
L 541.794863 496.09775 
L 547.172729 502.024831 
" style="stroke:#ffffff;stroke-linejoin:miter;stroke-width:2;"/>
   </g>
  </g>
 </g>
 <defs>
  <clipPath id="p962c7c7818">
   <rect height="543.6" width="558" x="90" y="86.4"/>
  </clipPath>
 </defs>
</svg>
