<?xml version="1.0" encoding="utf-8" standalone="no"?>
<!DOCTYPE svg PUBLIC "-//W3C//DTD SVG 1.1//EN"
  "http://www.w3.org/Graphics/SVG/1.1/DTD/svg11.dtd">
<!-- Created with matplotlib (https://matplotlib.org/) -->
<svg height="720pt" version="1.1" viewBox="0 0 720 720" width="720pt" xmlns="http://www.w3.org/2000/svg" xmlns:xlink="http://www.w3.org/1999/xlink">
 <metadata>
  <rdf:RDF xmlns:cc="http://creativecommons.org/ns#" xmlns:dc="http://purl.org/dc/elements/1.1/" xmlns:rdf="http://www.w3.org/1999/02/22-rdf-syntax-ns#">
   <cc:Work>
    <dc:type rdf:resource="http://purl.org/dc/dcmitype/StillImage"/>
    <dc:date>2021-05-28T08:56:50.020016</dc:date>
    <dc:format>image/svg+xml</dc:format>
    <dc:creator>
     <cc:Agent>
      <dc:title>Matplotlib v3.3.3, https://matplotlib.org/</dc:title>
     </cc:Agent>
    </dc:creator>
   </cc:Work>
  </rdf:RDF>
 </metadata>
 <defs>
  <style type="text/css">*{stroke-linecap:butt;stroke-linejoin:round;}</style>
 </defs>
 <g id="figure_1">
  <g id="patch_1">
   <path d="M 0 720 
L 720 720 
L 720 0 
L 0 0 
z
" style="fill:none;"/>
  </g>
  <g id="axes_1">
   <g id="patch_2">
    <path clip-path="url(#p39c1d7354a)" d="M 377.854901 305.255992 
L 382.810625 308.341907 
L 382.786085 303.917489 
L 382.712907 299.109951 
L 382.820854 287.194851 
L 383.452544 273.359924 
L 387.842138 278.47713 
L 434.920638 300.895672 
L 458.769032 322.793161 
L 479.948273 324.667562 
L 510.641746 288.306419 
L 514.985504 278.357936 
L 515.009777 254.046858 
L 526.576072 247.639712 
L 570.275499 205.637749 
L 578.855522 202.913696 
L 582.911684 201.617567 
L 586.646368 217.060355 
L 586.899403 234.43015 
L 586.980958 257.329623 
L 587.554176 318.246413 
L 587.731968 341.017011 
L 585.346208 354.69418 
L 582.986144 368.803256 
L 582.327871 373.144369 
L 582.008752 376.330337 
L 581.810625 379.43748 
L 581.69573 382.55837 
L 581.961711 396.431645 
L 581.648782 410.289358 
L 581.496134 424.157049 
L 581.479519 438.039406 
L 581.556654 451.86571 
L 581.632721 465.710601 
L 581.617199 479.572757 
L 581.544186 493.53909 
L 581.677787 507.318959 
L 581.707637 517.185391 
L 581.65111 521.178228 
L 581.644821 535.600586 
L 567.166014 535.548252 
L 554.954964 535.249895 
L 483.15532 535.602424 
L 461.405412 535.667203 
L 399.409524 536.879017 
L 383.845065 536.556065 
L 171.425141 535.66738 
L 151.650937 534.857229 
L 152.06863 527.291277 
L 152.147199 522.033238 
L 151.52165 507.732535 
L 152.833056 507.745622 
L 186.03958 507.898211 
L 186.110572 493.859504 
L 186.248357 480.021337 
L 186.228655 466.293946 
L 185.959375 451.976613 
L 185.973578 438.464487 
L 186.261478 423.75807 
L 185.992282 409.562682 
L 186.11701 396.123488 
L 185.828649 381.862804 
L 185.829023 367.930603 
L 185.601195 354.141282 
L 185.665831 340.46044 
L 185.291455 308.26286 
L 178.133001 308.117988 
L 164.911608 308.362244 
L 150.932517 308.620627 
L 150.445136 294.425672 
L 150.268032 289.266976 
L 150.787652 271.095335 
L 150.69542 255.35714 
L 151.022416 238.951305 
L 151.13982 233.060043 
L 150.295867 219.756579 
L 150.438214 207.972765 
L 150.651753 190.297058 
L 150.781771 179.533108 
L 154.704548 179.52682 
L 169.561547 179.520983 
L 169.543468 196.980937 
L 193.558636 196.973293 
L 193.53259 221.616965 
L 217.63458 221.605452 
L 244.167671 221.594401 
L 262.738853 221.95129 
L 298.469528 221.944873 
L 298.454271 236.060832 
L 309.681022 236.059024 
L 309.648425 267.861858 
L 310.916398 267.861884 
L 310.941548 273.488639 
L 310.934681 277.635615 
L 310.96749 295.073242 
L 321.735161 295.069609 
L 321.753957 305.273793 
L 377.854901 305.255992 
" style="fill:#1a1a1a;stroke:#ffffff;stroke-linejoin:miter;stroke-width:4;"/>
   </g>
  </g>
 </g>
 <defs>
  <clipPath id="p39c1d7354a">
   <rect height="543.6" width="558" x="90" y="86.4"/>
  </clipPath>
 </defs>
</svg>
