<?xml version="1.0" encoding="utf-8" standalone="no"?>
<!DOCTYPE svg PUBLIC "-//W3C//DTD SVG 1.1//EN"
  "http://www.w3.org/Graphics/SVG/1.1/DTD/svg11.dtd">
<!-- Created with matplotlib (https://matplotlib.org/) -->
<svg height="720pt" version="1.1" viewBox="0 0 720 720" width="720pt" xmlns="http://www.w3.org/2000/svg" xmlns:xlink="http://www.w3.org/1999/xlink">
 <metadata>
  <rdf:RDF xmlns:cc="http://creativecommons.org/ns#" xmlns:dc="http://purl.org/dc/elements/1.1/" xmlns:rdf="http://www.w3.org/1999/02/22-rdf-syntax-ns#">
   <cc:Work>
    <dc:type rdf:resource="http://purl.org/dc/dcmitype/StillImage"/>
    <dc:date>2021-05-07T11:03:05.238834</dc:date>
    <dc:format>image/svg+xml</dc:format>
    <dc:creator>
     <cc:Agent>
      <dc:title>Matplotlib v3.3.3, https://matplotlib.org/</dc:title>
     </cc:Agent>
    </dc:creator>
   </cc:Work>
  </rdf:RDF>
 </metadata>
 <defs>
  <style type="text/css">*{stroke-linecap:butt;stroke-linejoin:round;}</style>
 </defs>
 <g id="figure_1">
  <g id="patch_1">
   <path d="M 0 720 
L 720 720 
L 720 0 
L 0 0 
z
" style="fill:none;"/>
  </g>
  <g id="axes_1">
   <g id="patch_2">
    <path clip-path="url(#p5de78ce39a)" d="M 437.790286 201.264094 
L 437.709822 207.223704 
L 437.674658 255.021831 
L 437.660791 281.373456 
L 437.665519 289.758642 
L 437.581257 308.226599 
L 437.497371 336.045472 
L 437.468206 343.044802 
L 437.438766 362.133846 
L 437.447064 364.341333 
L 443.400553 364.338754 
L 445.191307 364.339736 
L 565.664982 364.407656 
L 565.611532 411.909662 
L 565.615365 419.706455 
L 553.111225 429.963967 
L 544.066189 439.238553 
L 537.250512 447.857902 
L 534.498568 452.330918 
L 532.257969 451.032974 
L 529.472795 450.949705 
L 527.985326 450.871085 
L 526.272638 451.030142 
L 524.740211 451.149578 
L 522.982587 451.625486 
L 521.495404 452.02208 
L 519.963244 452.656316 
L 517.935367 453.488787 
L 515.411956 454.796634 
L 511.822043 456.732484 
L 498.574139 463.470108 
L 496.140793 464.619559 
L 493.93264 465.412469 
L 491.724486 466.126208 
L 489.155653 466.76089 
L 486.676876 467.197537 
L 483.792438 467.555146 
L 480.646391 467.573098 
L 478.716953 467.710098 
L 436.784591 467.655856 
L 436.573291 485.315024 
L 436.607448 488.282384 
L 436.771187 490.707582 
L 436.784937 515.079138 
L 317.195493 515.2241 
L 308.865375 497.884132 
L 295.619691 473.530247 
L 248.31763 397.067694 
L 223.71602 353.074614 
L 210.465729 325.316005 
L 201.314454 303.317947 
L 191.214569 276.605518 
L 182.371381 245.439467 
L 172.335018 205.030644 
L 189.237598 205.024478 
L 227.16541 205.044844 
L 233.972726 205.046538 
L 241.785452 206.834453 
L 283.611271 206.870924 
L 283.585714 236.311226 
L 344.710625 236.40071 
L 344.775034 204.196317 
L 379.981241 204.251826 
L 387.407023 204.23749 
L 387.409404 201.375257 
L 387.409561 201.177462 
L 394.477612 201.1759 
L 431.791049 201.237026 
L 437.726134 201.263813 
L 437.790286 201.264094 
" style="stroke:#ffffff;stroke-linejoin:miter;stroke-width:2;"/>
   </g>
  </g>
 </g>
 <defs>
  <clipPath id="p5de78ce39a">
   <rect height="543.6" width="558" x="90" y="86.4"/>
  </clipPath>
 </defs>
</svg>
