<?xml version="1.0" encoding="utf-8" standalone="no"?>
<!DOCTYPE svg PUBLIC "-//W3C//DTD SVG 1.1//EN"
  "http://www.w3.org/Graphics/SVG/1.1/DTD/svg11.dtd">
<!-- Created with matplotlib (https://matplotlib.org/) -->
<svg height="720pt" version="1.1" viewBox="0 0 720 720" width="720pt" xmlns="http://www.w3.org/2000/svg" xmlns:xlink="http://www.w3.org/1999/xlink">
 <metadata>
  <rdf:RDF xmlns:cc="http://creativecommons.org/ns#" xmlns:dc="http://purl.org/dc/elements/1.1/" xmlns:rdf="http://www.w3.org/1999/02/22-rdf-syntax-ns#">
   <cc:Work>
    <dc:type rdf:resource="http://purl.org/dc/dcmitype/StillImage"/>
    <dc:date>2021-05-07T11:02:59.762205</dc:date>
    <dc:format>image/svg+xml</dc:format>
    <dc:creator>
     <cc:Agent>
      <dc:title>Matplotlib v3.3.3, https://matplotlib.org/</dc:title>
     </cc:Agent>
    </dc:creator>
   </cc:Work>
  </rdf:RDF>
 </metadata>
 <defs>
  <style type="text/css">*{stroke-linecap:butt;stroke-linejoin:round;}</style>
 </defs>
 <g id="figure_1">
  <g id="patch_1">
   <path d="M 0 720 
L 720 720 
L 720 0 
L 0 0 
z
" style="fill:none;"/>
  </g>
  <g id="axes_1">
   <g id="patch_2">
    <path clip-path="url(#p850eda8c91)" d="M 589.538001 165.770678 
L 592.126605 165.773457 
L 589.537984 165.77427 
L 589.537519 170.267675 
L 589.53606 181.86333 
L 589.516191 356.603855 
L 589.512166 390.920949 
L 589.503413 465.597931 
L 589.498825 504.581585 
L 589.494261 543.565249 
L 589.493806 547.429636 
L 589.493591 549.822863 
L 295.621906 550.629322 
L 280.835993 548.400186 
L 150.232238 548.804178 
L 145.873395 548.797871 
L 147.609252 543.849698 
L 150.312092 535.43572 
L 155.725452 519.903254 
L 157.510682 513.532848 
L 158.524712 507.994731 
L 158.724823 506.206285 
L 158.820731 503.945715 
L 158.760546 501.270378 
L 158.432922 493.369681 
L 158.345664 466.094283 
L 157.381663 166.301263 
L 161.822158 166.298595 
L 375.678543 166.021146 
L 589.538001 165.770678 
" style="stroke:#ffffff;stroke-linejoin:miter;stroke-width:2;"/>
   </g>
  </g>
 </g>
 <defs>
  <clipPath id="p850eda8c91">
   <rect height="543.6" width="558" x="90" y="86.4"/>
  </clipPath>
 </defs>
</svg>
