<?xml version="1.0" encoding="utf-8" standalone="no"?>
<!DOCTYPE svg PUBLIC "-//W3C//DTD SVG 1.1//EN"
  "http://www.w3.org/Graphics/SVG/1.1/DTD/svg11.dtd">
<!-- Created with matplotlib (https://matplotlib.org/) -->
<svg height="720pt" version="1.1" viewBox="0 0 720 720" width="720pt" xmlns="http://www.w3.org/2000/svg" xmlns:xlink="http://www.w3.org/1999/xlink">
 <metadata>
  <rdf:RDF xmlns:cc="http://creativecommons.org/ns#" xmlns:dc="http://purl.org/dc/elements/1.1/" xmlns:rdf="http://www.w3.org/1999/02/22-rdf-syntax-ns#">
   <cc:Work>
    <dc:type rdf:resource="http://purl.org/dc/dcmitype/StillImage"/>
    <dc:date>2021-05-07T11:03:05.653031</dc:date>
    <dc:format>image/svg+xml</dc:format>
    <dc:creator>
     <cc:Agent>
      <dc:title>Matplotlib v3.3.3, https://matplotlib.org/</dc:title>
     </cc:Agent>
    </dc:creator>
   </cc:Work>
  </rdf:RDF>
 </metadata>
 <defs>
  <style type="text/css">*{stroke-linecap:butt;stroke-linejoin:round;}</style>
 </defs>
 <g id="figure_1">
  <g id="patch_1">
   <path d="M 0 720 
L 720 720 
L 720 0 
L 0 0 
z
" style="fill:none;"/>
  </g>
  <g id="axes_1">
   <g id="patch_2">
    <path clip-path="url(#p4049af1a89)" d="M 592.041655 125.57077 
L 593.048675 263.594517 
L 593.457686 327.627451 
L 595.287297 541.377262 
L 303.582542 578.980925 
L 215.199253 590.82923 
L 209.998358 584.720202 
L 206.277765 576.75101 
L 205.118784 573.264416 
L 204.86653 572.899721 
L 207.020165 571.378718 
L 206.972254 570.749554 
L 207.790801 568.993885 
L 208.598463 567.238838 
L 203.984446 563.680234 
L 202.866145 560.150212 
L 205.243373 556.64865 
L 212.115099 553.183675 
L 214.656869 549.683791 
L 212.243785 549.664166 
L 211.18125 548.699461 
L 209.417546 547.091683 
L 206.149459 545.404696 
L 203.313255 545.045078 
L 197.078076 543.096791 
L 188.970206 540.847323 
L 188.638888 540.623908 
L 184.395853 537.662377 
L 184.018162 534.260351 
L 183.792327 533.385425 
L 183.109373 530.765777 
L 180.227743 527.384204 
L 180.067829 523.847263 
L 179.447742 521.43855 
L 179.736572 519.539466 
L 184.118222 516.449863 
L 184.643 512.877995 
L 185.974317 509.238592 
L 190.738453 506.739055 
L 185.258947 502.715283 
L 183.868715 502.31864 
L 169.845883 498.269958 
L 165.592823 498.338851 
L 167.084488 494.793005 
L 166.319586 491.282851 
L 165.804242 487.768448 
L 163.791231 484.27894 
L 165.272677 480.731216 
L 164.535211 480.409356 
L 161.351006 477.220228 
L 161.380485 473.38304 
L 157.507463 470.332661 
L 154.553008 467.097527 
L 151.698194 463.360005 
L 149.147894 460.041184 
L 147.629632 457.560119 
L 147.07519 456.658565 
L 148.428533 455.043841 
L 147.997736 454.370252 
L 144.56873 448.731321 
L 142.712703 448.134908 
L 145.827649 445.222032 
L 146.438232 444.715283 
L 153.797066 439.258538 
L 154.157953 438.992176 
L 155.074349 438.44499 
L 155.076397 438.443769 
L 158.78642 436.217503 
L 159.18541 435.896114 
L 162.596206 433.173695 
L 167.838612 430.601063 
L 172.001598 427.926973 
L 172.51263 427.62054 
L 177.09559 425.051914 
L 180.502818 422.702954 
L 180.592813 422.648313 
L 180.668342 422.611186 
L 180.81053 422.55576 
L 180.913317 422.524984 
L 181.068221 422.489629 
L 181.207659 422.46768 
L 181.351645 422.453584 
L 181.498153 422.44761 
L 184.147247 422.411724 
L 187.50315 422.360928 
L 188.24871 421.778361 
L 191.933397 422.009171 
L 191.49831 419.160916 
L 192.54525 417.404087 
L 193.500943 416.786087 
L 198.865552 414.11069 
L 199.809246 413.769241 
L 204.854792 411.943573 
L 210.224727 412.539958 
L 211.261881 412.102967 
L 208.056355 408.54345 
L 215.214275 405.890653 
L 214.726396 402.139383 
L 217.583755 398.868619 
L 221.157719 395.700935 
L 221.776578 393.492778 
L 223.739825 392.204918 
L 227.437173 390.110458 
L 230.470305 389.06995 
L 231.947168 387.293662 
L 235.084213 386.6566 
L 236.042953 384.345747 
L 239.102899 381.069495 
L 241.479798 379.358736 
L 245.632185 377.981864 
L 248.117481 377.323164 
L 252.128357 376.226404 
L 258.366989 374.269641 
L 262.52156 372.217033 
L 268.845704 371.767832 
L 268.844007 371.758313 
L 268.509471 369.868349 
L 274.083174 367.388548 
L 279.035291 364.711648 
L 284.401957 362.166125 
L 286.534193 359.206696 
L 279.218509 359.208604 
L 278.709375 359.20958 
L 278.831964 359.065477 
L 278.827241 359.063974 
L 253.02926 350.833822 
L 253.673738 350.469035 
L 254.470176 350.032534 
L 254.811283 349.835111 
L 255.468533 349.464327 
L 255.98583 349.087916 
L 256.490654 348.741308 
L 256.995704 348.388725 
L 257.551503 348.04787 
L 258.246001 347.593631 
L 258.864754 347.193161 
L 259.635711 346.762529 
L 260.419412 346.337873 
L 261.139128 345.871674 
L 261.871863 345.411345 
L 262.578861 344.956989 
L 263.3498 344.52049 
L 264.184233 344.083864 
L 264.727298 343.731166 
L 265.485743 343.312497 
L 266.054296 342.965787 
L 266.672591 342.529506 
L 267.316598 342.093238 
L 267.757719 341.728787 
L 268.236581 341.310707 
L 268.665184 340.946256 
L 269.194772 340.534047 
L 269.580919 340.186145 
L 269.825085 339.984494 
L 270.342398 339.613955 
L 270.897478 339.189762 
L 271.389088 338.771566 
L 271.539796 338.598435 
L 272.030915 338.138556 
L 272.484054 337.672819 
L 272.911927 337.230897 
L 273.276349 336.824903 
L 273.615781 336.436856 
L 274.069634 336.042592 
L 274.472289 335.642469 
L 274.862696 335.266291 
L 275.303091 334.82437 
L 275.705972 334.424236 
L 276.172104 333.994183 
L 276.549769 333.617993 
L 277.079342 333.211655 
L 277.583214 332.745791 
L 277.909665 332.316086 
L 278.159654 331.880496 
L 278.269934 331.451121 
L 278.342009 331.01577 
L 278.389089 330.610339 
L 278.449401 330.270524 
L 278.559212 329.811335 
L 278.644011 329.352156 
L 278.741323 328.916795 
L 278.813648 328.481561 
L 278.861217 328.141629 
L 278.934025 327.789841 
L 279.056807 327.324666 
L 279.167847 326.978761 
L 279.265655 326.573215 
L 279.452395 326.173423 
L 279.639406 325.79759 
L 279.876656 325.356013 
L 279.951648 325.218798 
L 280.227129 324.78321 
L 280.553585 324.359373 
L 280.779289 324.060884 
L 281.080993 323.708649 
L 281.343949 323.31473 
L 281.619653 322.90297 
L 281.92062 322.491105 
L 282.172063 322.192617 
L 282.435266 321.822538 
L 282.711732 321.476277 
L 283.050417 321.022732 
L 283.414858 320.610753 
L 283.791777 320.151107 
L 284.118212 319.733257 
L 284.431683 319.291567 
L 284.88482 318.831701 
L 285.376919 318.473125 
L 286.045985 318.007047 
L 286.499855 317.636614 
L 286.814036 317.278394 
L 287.191229 316.848562 
L 287.404198 316.532231 
L 287.654909 316.174125 
L 287.905647 315.810021 
L 288.257576 315.392161 
L 288.711695 315.039699 
L 289.14008 314.669265 
L 289.619466 314.310818 
L 290.022861 313.952356 
L 290.387286 313.534509 
L 290.612539 313.164535 
L 290.81179 312.740929 
L 291.023785 312.323298 
L 291.210563 311.917638 
L 291.359577 311.541804 
L 291.533854 311.171945 
L 291.657871 310.837885 
L 291.781398 310.45618 
L 291.867178 310.140078 
L 291.991463 309.835833 
L 292.091214 309.627017 
L 292.353696 309.173481 
L 292.642421 308.815378 
L 293.020088 308.433087 
L 293.944752 308.11551 
L 294.787756 308.57897 
L 294.89285 308.966332 
L 295.049193 309.371421 
L 295.218521 309.812194 
L 295.400326 310.223141 
L 295.595363 310.681875 
L 295.636278 310.985776 
L 295.52623 311.427123 
L 295.301731 311.874556 
L 295.064218 312.298171 
L 294.865209 312.745606 
L 294.690683 313.103609 
L 294.466187 313.545185 
L 294.304182 313.897073 
L 294.205632 314.213175 
L 294.222528 314.654281 
L 294.50579 315.047168 
L 295.435083 315.230339 
L 296.284741 315.049978 
L 297.27213 314.678633 
L 298.119352 314.2242 
L 298.447506 313.997084 
L 299.078328 313.536877 
L 299.481753 313.18452 
L 299.834177 312.826186 
L 300.211844 312.449999 
L 300.601787 312.04988 
L 301.029942 311.637906 
L 301.546567 311.183903 
L 301.836499 310.921103 
L 302.36611 310.5089 
L 302.756309 310.096807 
L 303.058002 309.768509 
L 303.358971 309.332818 
L 303.77441 308.920727 
L 304.279026 308.544313 
L 304.84712 308.149838 
L 305.465698 307.731536 
L 306.18623 307.324861 
L 306.716583 306.972289 
L 307.081784 306.613944 
L 307.332996 306.315458 
L 307.533234 306.005126 
L 307.87244 305.575307 
L 308.223923 305.115662 
L 308.614097 304.733503 
L 309.030002 304.381042 
L 309.521399 303.933144 
L 309.950053 303.568711 
L 310.41623 303.150637 
L 310.869886 302.738538 
L 311.374267 302.344177 
L 311.701704 302.033617 
L 312.104654 301.639475 
L 312.482337 301.257315 
L 312.784531 300.964713 
L 313.288674 300.534657 
L 313.983242 300.080338 
L 314.538604 299.691956 
L 315.106983 299.315324 
L 315.776556 298.896911 
L 316.408383 298.526269 
L 316.976246 298.12581 
L 317.48064 297.707622 
L 317.984817 297.265724 
L 318.298786 296.871694 
L 318.574279 296.453963 
L 318.811547 296.000429 
L 319.132752 294.979669 
L 330.534675 291.401732 
L 331.077555 291.031206 
L 331.556477 290.607151 
L 331.947649 290.314439 
L 332.477056 289.878296 
L 332.981005 289.418441 
L 333.548893 288.994157 
L 334.142026 288.558019 
L 334.659182 288.151691 
L 335.21384 287.685853 
L 335.541813 287.405111 
L 336.020976 287.034581 
L 336.474665 286.610631 
L 336.864382 286.180713 
L 337.241847 285.774717 
L 337.542851 285.345017 
L 337.754423 284.8916 
L 338.042927 284.479741 
L 338.243919 284.229029 
L 338.520403 283.906731 
L 338.885607 283.566244 
L 339.338833 283.11836 
L 339.666299 282.78995 
L 340.019007 282.455566 
L 340.459709 282.025524 
L 340.87541 281.637384 
L 340.999211 281.297352 
L 341.262472 280.909425 
L 341.70271 280.449697 
L 342.016948 280.07363 
L 342.356672 279.7153 
L 342.721161 279.273632 
L 343.072921 278.86166 
L 343.462659 278.396048 
L 343.764388 278.073635 
L 344.16711 277.643708 
L 344.621048 277.267427 
L 345.087723 276.914858 
L 345.414466 276.520844 
L 345.728491 276.12096 
L 345.96651 275.756861 
L 346.280266 275.339018 
L 346.593778 274.903334 
L 346.794319 274.59899 
L 347.04508 274.246877 
L 347.307863 273.811294 
L 347.595894 273.35178 
L 347.859403 272.993681 
L 348.135171 272.593795 
L 348.359991 272.170195 
L 348.573007 271.853868 
L 348.798765 271.549409 
L 349.037034 271.197295 
L 349.262334 270.839299 
L 349.52585 270.469239 
L 349.839609 270.057371 
L 350.103119 269.705259 
L 350.441883 269.251617 
L 350.554893 269.084474 
L 350.780411 268.756188 
L 350.954984 268.392331 
L 351.192283 267.950773 
L 351.379333 267.568958 
L 351.567108 267.264602 
L 351.829674 266.823046 
L 352.054229 266.381604 
L 352.304521 265.951902 
L 352.440108 265.516558 
L 352.57618 265.128859 
L 352.686549 264.699499 
L 352.785122 264.353597 
L 352.90918 264.025526 
L 353.095281 263.566123 
L 353.396068 263.100623 
L 353.963994 262.682459 
L 354.455452 262.252422 
L 354.768977 261.816621 
L 354.849386 261.694198 
L 355.019757 261.434693 
L 355.219793 261.094667 
L 355.305159 260.712951 
L 355.403001 260.313405 
L 355.525877 259.860219 
L 355.586702 259.556089 
L 355.696801 259.120744 
L 355.705195 258.66168 
L 355.75209 258.232422 
L 355.786219 257.791202 
L 355.75759 257.445514 
L 355.816981 257.016268 
L 355.941038 256.700182 
L 356.089378 256.252749 
L 356.288934 255.859068 
L 356.425262 255.465395 
L 356.649844 255.041795 
L 356.737363 254.886624 
L 356.937162 254.516666 
L 357.161974 254.081094 
L 357.323323 253.675449 
L 357.446176 253.222262 
L 357.454571 252.763187 
L 357.426671 252.483126 
L 357.384352 252.042124 
L 357.316764 251.612987 
L 357.579806 251.201246 
L 358.454573 250.991091 
L 359.200452 250.572588 
L 359.501248 250.112958 
L 359.700593 249.689475 
L 359.912414 249.247915 
L 360.022765 248.824543 
L 360.083592 248.5264 
L 360.169179 248.168524 
L 360.228336 247.703478 
L 360.262225 247.244404 
L 360.257903 246.779471 
L 360.291788 246.332382 
L 360.287437 245.879409 
L 360.322294 245.515661 
L 360.395644 245.211544 
L 360.671431 244.817646 
L 361.13791 244.405568 
L 361.490405 244.065084 
L 361.805158 243.736687 
L 362.005204 243.396661 
L 362.155005 243.092316 
L 362.341846 242.704503 
L 362.478177 242.322803 
L 362.613534 241.863631 
L 362.661617 241.565488 
L 362.734947 241.249399 
L 362.820808 240.903496 
L 362.867679 240.49208 
L 362.940046 240.068822 
L 363.063891 239.734777 
L 363.09899 239.400832 
L 363.056408 238.936013 
L 363.077553 238.47695 
L 363.087186 238.14312 
L 363.096071 237.725844 
L 363.118181 237.374067 
L 363.140553 237.058197 
L 363.137899 236.772023 
L 363.057329 236.307201 
L 362.951987 235.931822 
L 362.75747 235.491043 
L 362.512204 235.092166 
L 362.343628 234.728743 
L 362.047359 234.31202 
L 361.700383 233.889436 
L 361.303151 233.53244 
L 360.943643 233.139658 
L 360.533157 232.729031 
L 360.084461 232.306663 
L 359.635522 231.860349 
L 359.060069 231.497719 
L 358.625813 231.24215 
L 358.024415 230.808022 
L 357.588675 230.421339 
L 357.127472 230.022799 
L 356.691994 229.671799 
L 356.256737 229.332879 
L 355.719307 228.928464 
L 355.21984 228.523936 
L 354.784612 228.167068 
L 354.323616 227.810186 
L 354.016801 227.602049 
L 353.467101 227.26325 
L 352.624005 226.793892 
L 351.882645 226.348017 
L 351.460403 226.014979 
L 350.871978 225.622523 
L 350.067385 225.176891 
L 349.198791 224.707532 
L 348.674819 224.398421 
L 347.831977 223.976733 
L 347.078358 223.548817 
L 346.260761 223.10916 
L 345.443413 222.669503 
L 344.639293 222.283373 
L 343.809896 221.927173 
L 342.992295 221.487517 
L 342.22568 221.035786 
L 341.586267 220.619618 
L 341.087542 220.26884 
L 340.987539 220.209591 
L 340.435597 219.882498 
L 339.617996 219.425 
L 339.017545 219.086189 
L 338.54406 218.735308 
L 337.968613 218.35484 
L 337.495347 218.021907 
L 336.931919 217.557853 
L 336.470935 217.183145 
L 335.984431 216.814422 
L 335.843753 216.707361 
L 335.204086 216.273353 
L 334.386717 215.845555 
L 333.519096 215.471631 
L 332.755621 215.359708 
L 331.764886 215.421014 
L 327.829656 214.521825 
L 327.902048 214.110422 
L 327.872479 213.663458 
L 327.8316 213.353583 
L 327.79047 213.049576 
L 327.684675 212.590858 
L 327.414152 212.221691 
L 327.143151 211.769184 
L 326.884895 211.322558 
L 326.780043 210.976983 
L 326.649236 210.583891 
L 326.641821 210.371784 
L 326.474233 210.035138 
L 325.751634 209.569457 
L 324.914757 209.228757 
L 324.306298 208.858514 
L 323.761641 208.416779 
L 323.191196 208.046527 
L 322.316355 207.592565 
L 321.492227 207.222063 
L 320.705548 207.006859 
L 319.957079 206.803384 
L 319.119895 206.558233 
L 318.371463 206.30723 
L 317.864489 205.960811 
L 318.703089 205.663217 
L 319.579097 205.687811 
L 320.480026 205.795877 
L 321.380965 205.957574 
L 322.231444 206.017851 
L 322.422794 205.636281 
L 322.068007 205.284119 
L 321.307659 204.81832 
L 320.711967 204.44208 
L 320.179769 204.024186 
L 319.850764 203.612396 
L 319.432791 203.164694 
L 319.154503 202.824521 
L 318.736518 202.424593 
L 318.26779 202.042492 
L 317.773284 201.696203 
L 317.35501 201.43935 
L 316.556384 200.991498 
L 315.821264 200.549519 
L 315.212825 200.143477 
L 314.553652 199.725448 
L 313.89474 199.259774 
L 313.311785 198.883537 
L 312.652634 198.465508 
L 311.98097 198.011678 
L 311.194862 197.54588 
L 310.624648 197.175631 
L 309.965466 196.769587 
L 309.344262 196.411191 
L 308.685076 196.011122 
L 308.013425 195.581121 
L 307.290757 195.169077 
L 306.695054 194.763038 
L 306.239057 194.392912 
L 305.820787 194.076444 
L 305.212598 193.61675 
L 304.743854 193.240649 
L 304.173418 192.828614 
L 303.501734 192.404612 
L 302.944011 192.022509 
L 302.373792 191.63442 
L 301.790828 191.234369 
L 301.182398 190.816345 
L 300.472458 190.440105 
L 299.902272 190.004253 
L 299.344553 189.58635 
L 298.837819 189.174331 
L 298.68591 189.042974 
L 298.318347 188.720641 
L 297.875093 188.326689 
L 297.609295 187.932876 
L 297.482882 187.78956 
L 297.153589 187.443388 
L 296.634105 187.031485 
L 296.063624 186.655253 
L 295.594862 186.308969 
L 295.037155 185.920881 
L 294.581144 185.550758 
L 294.162835 185.246264 
L 293.503916 184.780478 
L 292.9082 184.350602 
L 292.312762 183.896897 
L 291.869262 183.449198 
L 291.565752 183.00761 
L 291.325404 182.673428 
L 290.932885 182.249677 
L 290.45141 181.831791 
L 289.957155 181.449706 
L 289.48866 180.984047 
L 289.121378 180.584243 
L 288.906521 180.256049 
L 288.678693 179.921867 
L 288.450836 179.605528 
L 288.236003 179.277334 
L 288.071627 178.978956 
L 287.933043 178.573306 
L 287.870444 178.155792 
L 287.820553 177.803777 
L 287.757942 177.445892 
L 287.606621 176.986481 
L 287.493282 176.568977 
L 287.430943 176.103689 
L 287.419067 175.757662 
L 287.356724 175.304359 
L 287.230594 174.982155 
L 287.193748 174.51688 
L 287.245374 174.093502 
L 287.32246 173.717794 
L 287.412323 173.318246 
L 287.514639 173.014129 
L 287.667997 172.578795 
L 287.948327 172.143584 
L 288.088887 171.827614 
L 288.229227 171.493684 
L 288.357347 171.028534 
L 288.586653 170.646964 
L 288.752757 170.217734 
L 288.906086 169.806216 
L 289.161176 169.359149 
L 289.352516 168.97746 
L 289.670842 168.53637 
L 289.849393 168.238255 
L 290.167946 167.791191 
L 290.34628 167.457263 
L 290.67761 166.992357 
L 290.970665 166.569003 
L 291.288965 166.145778 
L 291.505805 165.752341 
L 291.811642 165.287328 
L 292.002964 164.887903 
L 291.190411 164.851465 
L 290.415205 165.268329 
L 289.437116 165.446573 
L 288.841369 165.058485 
L 289.146916 164.659077 
L 290.100367 164.212406 
L 290.812075 163.855156 
L 291.549286 163.462001 
L 292.083248 163.140309 
L 292.744514 162.687522 
L 293.164257 162.329906 
L 293.495308 162.026036 
L 293.724305 161.82934 
L 294.347307 161.370553 
L 294.741569 161.078552 
L 295.339317 160.66755 
L 295.924323 160.232472 
L 296.547576 159.78567 
L 297.094334 159.386391 
L 297.539611 158.993094 
L 297.98492 158.569994 
L 298.404944 158.21238 
L 298.85022 157.831056 
L 299.168532 157.401835 
L 299.715293 157.002686 
L 300.160568 156.633218 
L 300.529604 156.281588 
L 300.860387 155.971626 
L 301.191434 155.608009 
L 301.586242 155.14312 
L 301.828075 154.803327 
L 302.057383 154.475401 
L 302.350453 154.046178 
L 302.60527 153.664728 
L 302.974597 153.253469 
L 303.458139 152.80044 
L 303.750937 152.472623 
L 303.979985 152.198457 
L 304.234804 151.811009 
L 304.515131 151.3758 
L 304.82097 150.976393 
L 305.075799 150.553038 
L 305.279911 150.135784 
L 305.496751 149.700454 
L 305.688361 149.301042 
L 305.828951 148.925337 
L 306.033042 148.496111 
L 306.237145 148.120515 
L 306.200019 147.732711 
L 306.50558 147.357251 
L 306.569964 146.957702 
L 306.380655 146.504157 
L 306.356309 146.086645 
L 306.573172 145.663406 
L 306.624774 145.305527 
L 306.600394 144.923827 
L 306.550289 144.559957 
L 306.538684 144.17226 
L 306.577802 143.754763 
L 306.654674 143.396885 
L 306.6813 142.955559 
L 306.771186 142.532196 
L 307.0008 142.108828 
L 307.217375 141.751087 
L 307.357959 141.405315 
L 307.485802 141.035584 
L 307.613674 140.648024 
L 307.767032 140.200836 
L 307.920392 139.848949 
L 308.048247 139.431574 
L 308.150875 139.038025 
L 308.253223 138.668294 
L 308.368602 138.262774 
L 308.458463 137.851254 
L 308.522862 137.398075 
L 308.460228 137.064018 
L 308.410646 136.604729 
L 308.41096 136.443694 
L 308.412112 136.020197 
L 308.412988 135.602698 
L 308.325144 135.220866 
L 308.211533 134.922608 
L 308.060198 134.540773 
L 307.908581 134.188752 
L 307.681004 133.824755 
L 307.503866 133.57402 
L 307.263812 133.114604 
L 307.175707 132.774559 
L 307.100352 132.42266 
L 307.050196 132.166076 
L 306.937124 131.700785 
L 306.848987 131.390555 
L 306.735639 131.032668 
L 306.597062 130.603071 
L 306.521711 130.233213 
L 306.446623 129.809711 
L 306.333549 129.350302 
L 306.232969 128.902971 
L 306.170341 128.533113 
L 306.082492 128.163266 
L 305.867672 127.745509 
L 305.741584 127.345834 
L 305.628238 126.975973 
L 305.565607 126.617971 
L 305.452528 126.170651 
L 305.426673 125.995319 
L 378.878608 125.851008 
L 448.9506 125.694869 
L 592.041655 125.57077 
" style="stroke:#ffffff;stroke-linejoin:miter;stroke-width:2;"/>
   </g>
  </g>
 </g>
 <defs>
  <clipPath id="p4049af1a89">
   <rect height="543.6" width="558" x="90" y="86.4"/>
  </clipPath>
 </defs>
</svg>
