<?xml version="1.0" encoding="utf-8" standalone="no"?>
<!DOCTYPE svg PUBLIC "-//W3C//DTD SVG 1.1//EN"
  "http://www.w3.org/Graphics/SVG/1.1/DTD/svg11.dtd">
<!-- Created with matplotlib (https://matplotlib.org/) -->
<svg height="720pt" version="1.1" viewBox="0 0 720 720" width="720pt" xmlns="http://www.w3.org/2000/svg" xmlns:xlink="http://www.w3.org/1999/xlink">
 <metadata>
  <rdf:RDF xmlns:cc="http://creativecommons.org/ns#" xmlns:dc="http://purl.org/dc/elements/1.1/" xmlns:rdf="http://www.w3.org/1999/02/22-rdf-syntax-ns#">
   <cc:Work>
    <dc:type rdf:resource="http://purl.org/dc/dcmitype/StillImage"/>
    <dc:date>2021-05-07T11:03:03.555121</dc:date>
    <dc:format>image/svg+xml</dc:format>
    <dc:creator>
     <cc:Agent>
      <dc:title>Matplotlib v3.3.3, https://matplotlib.org/</dc:title>
     </cc:Agent>
    </dc:creator>
   </cc:Work>
  </rdf:RDF>
 </metadata>
 <defs>
  <style type="text/css">*{stroke-linecap:butt;stroke-linejoin:round;}</style>
 </defs>
 <g id="figure_1">
  <g id="patch_1">
   <path d="M 0 720 
L 720 720 
L 720 0 
L 0 0 
z
" style="fill:none;"/>
  </g>
  <g id="axes_1">
   <g id="patch_2">
    <path clip-path="url(#p36ac8543c5)" d="M 552.344811 266.11559 
L 551.869536 276.412895 
L 542.154902 276.05681 
L 543.546142 295.947736 
L 542.401249 309.430823 
L 541.708841 312.979676 
L 540.876867 315.581905 
L 540.573789 316.987212 
L 540.354672 319.919591 
L 540.434309 323.818633 
L 540.252055 326.532568 
L 539.698245 329.465265 
L 538.661914 332.991023 
L 537.844033 335.672216 
L 536.263702 339.883302 
L 535.129731 344.367431 
L 534.210357 349.449054 
L 533.787948 353.215186 
L 533.646676 355.495535 
L 533.50956 363.41417 
L 533.518736 370.178871 
L 533.578116 375.590521 
L 533.972172 378.788484 
L 534.757604 382.541033 
L 535.855642 386.642419 
L 536.901224 390.43841 
L 537.269121 393.187565 
L 537.281375 395.735836 
L 537.483003 399.7972 
L 537.181157 407.391384 
L 536.549647 416.17504 
L 536.001591 436.520761 
L 534.868785 456.344973 
L 532.526881 503.109035 
L 185.611441 490.065436 
L 185.436464 375.971749 
L 185.86124 375.933495 
L 187.521064 375.757939 
L 189.295843 375.427883 
L 190.840356 375.233098 
L 192.338727 375.096503 
L 193.652797 374.921322 
L 195.450958 374.719803 
L 196.903047 374.608735 
L 198.51711 374.471639 
L 200.292304 374.411559 
L 201.952248 374.313199 
L 203.68165 374.272562 
L 205.087908 374.155122 
L 206.527306 374.021259 
L 206.862972 373.979454 
L 208.568988 373.746064 
L 209.652191 373.609579 
L 211.175826 374.302229 
L 211.201733 375.55619 
L 212.723097 375.323038 
L 214.173053 374.105906 
L 215.739772 373.563916 
L 217.214627 373.176401 
L 218.988756 372.711418 
L 220.740479 372.400419 
L 222.00816 372.14815 
L 223.32225 371.95359 
L 224.866228 371.700991 
L 226.54873 371.216718 
L 228.023807 371.002978 
L 229.59186 371.039717 
L 231.15949 370.8255 
L 232.795439 370.457253 
L 234.155018 370.069869 
L 235.929419 369.45052 
L 237.357773 368.908688 
L 238.786052 368.347503 
L 240.444736 367.708849 
L 241.781122 367.282709 
L 243.464097 367.107199 
L 245.169582 366.816036 
L 246.828282 366.215828 
L 248.027415 366.233955 
L 249.595704 366.424701 
L 251.093404 365.863792 
L 252.522094 365.572545 
L 254.137126 365.802409 
L 255.589158 365.646124 
L 257.225871 365.509418 
L 258.540753 365.565413 
L 260.084884 365.409413 
L 261.721223 365.021753 
L 263.264808 364.498825 
L 264.854555 363.89908 
L 266.282817 363.318859 
L 267.687901 362.680487 
L 269.300732 362.041898 
L 270.751538 361.365075 
L 272.386968 360.668668 
L 274.138034 359.933356 
L 275.519939 359.29505 
L 277.293709 358.540705 
L 278.767573 357.806066 
L 280.357272 357.167507 
L 281.99291 356.60609 
L 283.605951 356.102493 
L 285.219107 355.676466 
L 286.809039 355.192288 
L 288.3295 354.669817 
L 290.058066 354.358847 
L 291.673245 354.684933 
L 293.104268 355.377724 
L 294.810863 355.54934 
L 296.215889 354.89197 
L 297.804362 353.694092 
L 299.230567 352.322652 
L 300.426996 351.086815 
L 301.55388 349.792837 
L 302.565755 348.653355 
L 303.992864 347.552266 
L 305.511858 346.335072 
L 306.984635 345.156368 
L 308.411834 344.11304 
L 310.139676 343.300967 
L 311.868002 342.81666 
L 313.042196 342.217333 
L 314.653017 340.806888 
L 316.218273 339.570678 
L 317.94547 338.623245 
L 319.672726 337.714598 
L 321.331236 336.921615 
L 322.805274 336.28358 
L 324.486654 335.336198 
L 326.190721 334.388795 
L 327.641398 333.596447 
L 328.954236 332.86162 
L 330.589712 332.165247 
L 332.271803 331.700392 
L 334.000116 331.196668 
L 335.382146 330.61653 
L 336.787005 329.823854 
L 338.260772 328.992666 
L 339.688913 328.296511 
L 341.232155 327.503657 
L 342.637216 326.846311 
L 343.743228 326.45924 
L 345.26381 325.994519 
L 346.968892 325.452462 
L 348.512586 324.968366 
L 350.010401 324.445533 
L 351.50833 324.000269 
L 352.936758 323.496901 
L 354.503483 322.935976 
L 356.093431 322.432407 
L 357.844276 321.813121 
L 359.295847 321.309733 
L 360.908204 320.613401 
L 362.451766 320.033112 
L 364.202263 319.201277 
L 365.86079 318.427713 
L 367.542624 317.770098 
L 369.316615 317.150796 
L 370.814442 316.627974 
L 372.31227 316.105534 
L 373.74072 315.640922 
L 375.422586 315.002325 
L 376.966019 314.325464 
L 378.509536 313.7064 
L 380.306026 312.952097 
L 381.296785 312.545765 
L 382.748148 311.887974 
L 384.24528 311.191771 
L 386.019265 310.591872 
L 387.747831 310.242596 
L 389.453011 309.719956 
L 391.204341 309.139095 
L 392.264095 308.752051 
L 393.830981 308.287349 
L 395.60569 307.841451 
L 397.287626 307.241651 
L 398.761573 306.507038 
L 400.236011 305.829878 
L 401.963582 305.095051 
L 403.460671 304.360074 
L 405.072957 303.625364 
L 406.409175 303.025914 
L 407.860718 302.484147 
L 409.40531 302.289407 
L 411.134025 302.036726 
L 412.723958 301.533189 
L 414.152337 300.972056 
L 415.534084 300.160393 
L 416.915858 299.367742 
L 418.274587 298.671695 
L 420.025309 297.936856 
L 421.523164 297.414404 
L 422.675142 297.104126 
L 423.91944 296.659153 
L 425.532539 296.136627 
L 427.167997 295.382096 
L 428.688224 294.666882 
L 430.18544 294.009109 
L 431.982776 293.505796 
L 433.68868 293.156533 
L 435.163493 292.730349 
L 436.660848 292.169159 
L 437.996876 291.454095 
L 439.470661 290.584176 
L 441.243893 289.713963 
L 442.90347 289.326385 
L 444.563002 288.93877 
L 446.26827 288.454569 
L 448.064601 287.5843 
L 449.538502 286.791955 
L 451.105013 286.037544 
L 452.901937 285.263895 
L 454.330313 284.683732 
L 455.781963 284.199786 
L 457.325779 283.792938 
L 459.077305 283.289269 
L 460.621918 283.094596 
L 462.212283 282.880828 
L 463.548559 282.300418 
L 464.76738 280.813635 
L 466.563638 279.847215 
L 468.01508 279.208861 
L 469.397274 278.724989 
L 471.033566 278.221859 
L 472.692472 277.698896 
L 474.305626 277.19579 
L 475.826144 276.634561 
L 477.347124 276.111774 
L 479.144228 275.454115 
L 480.479981 274.815879 
L 481.908212 274.119796 
L 483.474781 273.423541 
L 483.981257 273.191484 
L 485.594124 272.475832 
L 487.13705 271.741236 
L 488.519673 271.199539 
L 490.224656 270.522584 
L 491.837287 269.961274 
L 493.450399 269.419395 
L 494.901918 268.858281 
L 496.215207 268.374489 
L 497.735844 267.89046 
L 499.233849 267.445275 
L 500.340058 267.154428 
L 501.814846 266.651471 
L 503.404937 266.225213 
L 504.903236 265.992166 
L 506.677238 265.314774 
L 508.127827 264.368106 
L 509.417508 263.537186 
L 511.213672 262.474176 
L 512.618092 261.604363 
L 514.390698 260.232662 
L 515.517953 259.035351 
L 516.483535 257.761044 
L 517.748808 256.29367 
L 519.22164 254.980437 
L 520.671158 253.570304 
L 522.074951 252.199341 
L 522.607035 251.606611 
L 523.34031 250.789766 
L 524.44364 249.341524 
L 524.650517 248.994206 
L 525.40857 247.546295 
L 525.912857 246.330609 
L 526.233396 245.153465 
L 526.322296 243.76437 
L 526.158414 242.664915 
L 525.902093 241.353338 
L 525.714834 240.080136 
L 525.735597 238.999859 
L 525.848562 237.957899 
L 526.260511 236.568532 
L 526.880507 235.39114 
L 527.823066 234.155226 
L 529.365158 232.706985 
L 530.607526 231.393598 
L 531.895564 229.964612 
L 532.815424 228.748494 
L 533.573936 227.628768 
L 534.309204 226.431838 
L 535.182814 225.234814 
L 536.448225 223.844219 
L 537.621262 222.589114 
L 538.863589 221.237364 
L 540.059612 219.866609 
L 541.140423 218.55338 
L 542.014539 217.356358 
L 542.818679 216.082214 
L 543.89965 214.884958 
L 545.049698 213.398314 
L 545.13803 213.290965 
L 546.741418 217.802074 
L 548.499487 222.995071 
L 550.259183 229.368632 
L 551.397624 235.837271 
L 552.08269 241.220151 
L 552.430143 247.547825 
L 552.439959 254.565076 
L 552.563536 259.875824 
L 552.344811 266.11559 
" style="stroke:#ffffff;stroke-linejoin:miter;stroke-width:2;"/>
   </g>
  </g>
 </g>
 <defs>
  <clipPath id="p36ac8543c5">
   <rect height="543.6" width="558" x="90" y="86.4"/>
  </clipPath>
 </defs>
</svg>
