<?xml version="1.0" encoding="utf-8" standalone="no"?>
<!DOCTYPE svg PUBLIC "-//W3C//DTD SVG 1.1//EN"
  "http://www.w3.org/Graphics/SVG/1.1/DTD/svg11.dtd">
<!-- Created with matplotlib (https://matplotlib.org/) -->
<svg height="720pt" version="1.1" viewBox="0 0 720 720" width="720pt" xmlns="http://www.w3.org/2000/svg" xmlns:xlink="http://www.w3.org/1999/xlink">
 <metadata>
  <rdf:RDF xmlns:cc="http://creativecommons.org/ns#" xmlns:dc="http://purl.org/dc/elements/1.1/" xmlns:rdf="http://www.w3.org/1999/02/22-rdf-syntax-ns#">
   <cc:Work>
    <dc:type rdf:resource="http://purl.org/dc/dcmitype/StillImage"/>
    <dc:date>2021-05-07T11:03:06.146801</dc:date>
    <dc:format>image/svg+xml</dc:format>
    <dc:creator>
     <cc:Agent>
      <dc:title>Matplotlib v3.3.3, https://matplotlib.org/</dc:title>
     </cc:Agent>
    </dc:creator>
   </cc:Work>
  </rdf:RDF>
 </metadata>
 <defs>
  <style type="text/css">*{stroke-linecap:butt;stroke-linejoin:round;}</style>
 </defs>
 <g id="figure_1">
  <g id="patch_1">
   <path d="M 0 720 
L 720 720 
L 720 0 
L 0 0 
z
" style="fill:none;"/>
  </g>
  <g id="axes_1">
   <g id="patch_2">
    <path clip-path="url(#p40d58162a7)" d="M 529.682762 165.745381 
L 538.114124 204.176091 
L 554.480658 282.116201 
L 559.54203 309.722607 
L 561.186142 322.619531 
L 564.378113 342.032439 
L 568.368247 368.73416 
L 569.043618 374.757018 
L 569.606703 380.533838 
L 570.123031 386.301407 
L 570.593644 392.070748 
L 571.018577 397.841718 
L 571.397796 403.614103 
L 571.731267 409.387784 
L 572.018991 415.162572 
L 572.260664 420.930461 
L 572.788018 434.570446 
L 573.213742 448.219144 
L 573.537571 461.869098 
L 573.759507 475.519998 
L 573.879519 489.171465 
L 573.897612 502.823166 
L 573.813754 516.474769 
L 573.628017 530.127864 
L 573.227784 548.133278 
L 573.081787 550.734362 
L 572.694167 550.734144 
L 519.109054 550.70638 
L 188.20814 550.558425 
L 164.102388 550.475082 
L 166.772401 168.192162 
L 164.34749 165.665638 
L 167.844497 165.78225 
L 309.595234 165.766083 
L 519.739383 165.745682 
L 529.392731 165.745407 
L 529.682762 165.745381 
" style="stroke:#ffffff;stroke-linejoin:miter;stroke-width:2;"/>
   </g>
  </g>
 </g>
 <defs>
  <clipPath id="p40d58162a7">
   <rect height="543.6" width="558" x="90" y="86.4"/>
  </clipPath>
 </defs>
</svg>
