<?xml version="1.0" encoding="utf-8" standalone="no"?>
<!DOCTYPE svg PUBLIC "-//W3C//DTD SVG 1.1//EN"
  "http://www.w3.org/Graphics/SVG/1.1/DTD/svg11.dtd">
<!-- Created with matplotlib (https://matplotlib.org/) -->
<svg height="720pt" version="1.1" viewBox="0 0 720 720" width="720pt" xmlns="http://www.w3.org/2000/svg" xmlns:xlink="http://www.w3.org/1999/xlink">
 <metadata>
  <rdf:RDF xmlns:cc="http://creativecommons.org/ns#" xmlns:dc="http://purl.org/dc/elements/1.1/" xmlns:rdf="http://www.w3.org/1999/02/22-rdf-syntax-ns#">
   <cc:Work>
    <dc:type rdf:resource="http://purl.org/dc/dcmitype/StillImage"/>
    <dc:date>2021-05-07T11:03:05.919551</dc:date>
    <dc:format>image/svg+xml</dc:format>
    <dc:creator>
     <cc:Agent>
      <dc:title>Matplotlib v3.3.3, https://matplotlib.org/</dc:title>
     </cc:Agent>
    </dc:creator>
   </cc:Work>
  </rdf:RDF>
 </metadata>
 <defs>
  <style type="text/css">*{stroke-linecap:butt;stroke-linejoin:round;}</style>
 </defs>
 <g id="figure_1">
  <g id="patch_1">
   <path d="M 0 720 
L 720 720 
L 720 0 
L 0 0 
z
" style="fill:none;"/>
  </g>
  <g id="axes_1">
   <g id="patch_2">
    <path clip-path="url(#p489fd1a9b9)" d="M 591.662896 521.353118 
L 598.894857 529.208114 
L 605.399806 536.818666 
L 613.406736 546.836276 
L 618.425354 553.929842 
L 621.136906 557.886223 
L 612.554504 568.2825 
L 608.442358 572.0627 
L 604.430298 575.130987 
L 601.016726 577.094299 
L 597.141298 578.958154 
L 593.219083 580.420705 
L 589.203795 581.431881 
L 584.310709 582.093521 
L 577.003673 582.155964 
L 544.846829 582.156934 
L 515.456881 582.222164 
L 482.180576 582.298866 
L 448.90331 582.335683 
L 383.734042 582.596032 
L 345.39214 582.479789 
L 343.930009 583.469675 
L 341.862962 583.632403 
L 335.888409 583.693778 
L 333.890459 583.627461 
L 333.327697 583.575584 
L 332.846481 583.523517 
L 332.259184 583.427393 
L 331.687966 583.27452 
L 331.208911 583.119629 
L 330.702989 582.943557 
L 329.772334 582.526869 
L 329.383482 582.542832 
L 328.870191 582.537133 
L 327.697883 582.532933 
L 327.16268 582.652421 
L 325.328071 582.648345 
L 323.202545 582.643624 
L 314.753676 582.660434 
L 302.824514 582.684503 
L 297.503301 582.695332 
L 286.745023 582.720864 
L 274.355066 582.756188 
L 273.025738 582.753293 
L 264.687436 582.656734 
L 256.971351 582.618986 
L 243.556695 582.652041 
L 243.884304 582.331486 
L 245.030306 581.333511 
L 246.567771 579.89387 
L 247.976094 578.363928 
L 249.240161 576.715706 
L 250.213434 574.922103 
L 250.470767 574.157751 
L 250.680307 573.767612 
L 251.110838 572.957181 
L 251.595944 571.659308 
L 251.98161 570.298946 
L 252.52213 569.035905 
L 252.818391 568.122708 
L 252.92995 567.689379 
L 252.831562 567.146531 
L 252.875609 566.94203 
L 252.97668 566.504689 
L 253.109607 565.954611 
L 253.184765 565.53164 
L 253.259721 565.073411 
L 253.297006 564.812729 
L 253.339272 564.305473 
L 253.400791 563.77694 
L 253.457256 563.459736 
L 253.557968 562.966074 
L 253.658294 562.416215 
L 253.694415 561.965297 
L 253.723804 561.472226 
L 253.694689 560.993592 
L 253.672079 560.50799 
L 253.656731 560.134917 
L 253.653715 559.663143 
L 253.683506 559.240422 
L 253.732133 558.718984 
L 253.793982 558.225694 
L 253.797113 557.704659 
L 253.781005 557.211825 
L 253.809892 556.66242 
L 253.748086 556.134745 
L 253.673947 555.698667 
L 253.63191 555.213127 
L 253.589373 554.671251 
L 253.521177 554.143592 
L 253.498222 553.615669 
L 253.417177 553.116348 
L 253.297553 552.680522 
L 253.177355 552.153268 
L 252.986133 551.70388 
L 252.736076 551.170424 
L 252.531961 550.728145 
L 252.30173 550.264978 
L 251.999988 549.774096 
L 251.645899 549.241451 
L 251.357062 548.743461 
L 250.925328 548.239315 
L 250.63036 547.804754 
L 250.308873 547.278815 
L 249.968176 546.795246 
L 249.667005 546.395959 
L 249.184146 546.018891 
L 248.767358 545.824546 
L 248.318497 545.693832 
L 247.847781 545.190062 
L 247.649619 544.663265 
L 247.504233 544.25581 
L 247.048609 544.075854 
L 246.587287 544.036753 
L 246.106869 544.039883 
L 245.638999 543.986798 
L 245.288084 543.946856 
L 244.865305 543.815941 
L 244.61757 543.662656 
L 244.207325 543.475361 
L 243.731409 543.175694 
L 243.255867 542.932502 
L 242.754957 542.780968 
L 242.293227 542.664277 
L 241.882981 542.476997 
L 241.407236 542.198562 
L 240.989866 541.905552 
L 240.592498 541.704073 
L 240.085054 541.545467 
L 239.584284 541.400998 
L 239.109345 541.263404 
L 238.634349 541.10458 
L 238.230806 540.945301 
L 237.781189 540.694833 
L 237.364221 540.472314 
L 236.94072 540.242888 
L 236.523939 540.048537 
L 236.094106 539.847142 
L 235.690375 539.659836 
L 235.19559 539.444866 
L 234.791671 539.229255 
L 234.296322 538.929783 
L 233.918723 538.777533 
L 233.476588 538.681891 
L 232.96914 538.523305 
L 232.62403 538.37776 
L 232.136164 538.233127 
L 231.648489 538.123877 
L 231.277982 538.055824 
L 230.842336 537.953244 
L 230.517559 537.934198 
L 230.095196 537.887783 
L 229.737724 537.819838 
L 229.242995 537.633055 
L 228.800066 537.410731 
L 228.364215 537.265707 
L 227.896006 537.170287 
L 227.401562 536.997645 
L 227.042821 536.753618 
L 226.814418 536.565047 
L 226.396924 536.272061 
L 225.97378 536.098963 
L 225.538317 536.017339 
L 225.043744 535.844685 
L 224.568958 535.728207 
L 224.087059 535.506123 
L 223.663318 535.227308 
L 223.208114 535.117706 
L 222.870096 535.063592 
L 222.532021 534.988525 
L 222.070128 534.864787 
L 221.57574 534.720317 
L 221.140292 534.645773 
L 220.763409 534.592035 
L 220.295558 534.545879 
L 219.912706 534.569584 
L 219.549483 534.628347 
L 219.205481 534.644753 
L 218.736663 534.450822 
L 218.246708 533.982341 
L 217.770166 533.5771 
L 217.307095 533.256331 
L 216.812157 533.034425 
L 216.389209 532.889377 
L 216.186555 532.665361 
L 215.722167 532.147419 
L 215.284849 531.791341 
L 214.790415 531.632723 
L 214.296054 531.502274 
L 213.871381 531.08969 
L 213.4027 530.895763 
L 212.935208 530.898873 
L 212.480769 530.915964 
L 212.07161 530.89062 
L 211.681874 530.858011 
L 211.29872 530.860631 
L 210.791637 530.758523 
L 210.329679 530.606626 
L 209.886971 530.426652 
L 209.508561 530.133426 
L 209.084262 529.77718 
L 208.667655 529.611016 
L 208.31657 529.550019 
L 207.8166 529.546401 
L 207.316428 529.514492 
L 206.900748 529.48209 
L 206.471845 529.428771 
L 206.055617 529.325882 
L 205.606356 529.124696 
L 205.228542 528.937206 
L 204.896504 528.812749 
L 204.578038 528.765533 
L 204.253401 528.760794 
L 203.876572 528.728018 
L 203.408674 528.667862 
L 202.933674 528.509204 
L 202.503576 528.251498 
L 202.144038 527.8808 
L 202.078156 527.733328 
L 201.704809 527.235979 
L 201.244167 527.281263 
L 200.841192 527.220665 
L 200.386386 527.181569 
L 200.002006 526.972868 
L 199.558883 526.715336 
L 199.147676 526.39417 
L 198.749704 526.094202 
L 198.281568 525.984651 
L 197.783896 526.400381 
L 196.892459 526.464097 
L 196.061413 523.868338 
L 195.150892 523.431324 
L 194.445358 522.92857 
L 194.142748 522.527205 
L 193.732131 522.297623 
L 193.243622 522.047565 
L 192.794212 521.84639 
L 192.332272 521.701583 
L 191.994172 521.619457 
L 191.655942 521.530254 
L 191.207244 521.427597 
L 190.738755 521.268794 
L 190.341333 521.060272 
L 189.910702 520.732225 
L 189.793163 520.634562 
L 189.361732 520.179677 
L 188.910033 519.626478 
L 188.518951 519.389772 
L 188.010679 519.104525 
L 187.574114 518.875152 
L 187.157291 518.673759 
L 186.753349 518.465256 
L 186.36247 518.263796 
L 185.9581 517.97079 
L 185.547053 517.663787 
L 185.136431 517.434211 
L 184.647974 517.205099 
L 184.191775 516.940673 
L 183.769381 516.887213 
L 183.307582 516.756567 
L 183.03162 516.2655 
L 182.542154 515.867536 
L 182.118462 515.623981 
L 181.688351 515.373366 
L 181.245028 515.094756 
L 180.872989 514.801531 
L 180.455624 514.529793 
L 180.038183 514.222796 
L 179.653426 513.964864 
L 179.196888 513.658107 
L 178.720913 513.35863 
L 178.336153 513.093608 
L 177.899739 512.878396 
L 177.515202 512.662772 
L 177.306581 512.523289 
L 176.954885 512.363778 
L 176.590499 512.239559 
L 176.089176 512.038655 
L 175.678501 511.787994 
L 175.189468 511.474539 
L 174.720005 511.16782 
L 174.44614 511.000769 
L 173.996628 510.764349 
L 173.631702 510.569782 
L 173.188721 510.333346 
L 172.745552 510.075833 
L 172.250363 509.811656 
L 171.768067 509.540355 
L 171.376989 509.310613 
L 170.881815 509.0535 
L 170.451932 508.852152 
L 169.963437 508.616127 
L 169.60536 508.456651 
L 169.142837 508.227359 
L 168.699917 508.026185 
L 168.224837 507.846464 
L 167.749467 507.645513 
L 167.300138 507.430217 
L 166.948438 507.270712 
L 166.524882 507.041321 
L 166.133786 506.804491 
L 165.742752 506.595968 
L 165.29306 506.338492 
L 164.804352 506.060137 
L 164.335105 505.802851 
L 163.930766 505.531089 
L 163.519338 505.174704 
L 163.251546 504.930062 
L 163.121123 504.846452 
L 162.723285 504.567598 
L 162.247119 504.239828 
L 161.810287 503.961215 
L 161.321243 503.647772 
L 160.904011 503.390061 
L 160.467205 503.118401 
L 159.977954 502.7697 
L 159.678078 502.581632 
L 159.312573 502.302418 
L 158.921238 502.02355 
L 158.549564 501.786674 
L 158.112585 501.500988 
L 157.610248 501.131246 
L 157.159008 500.634406 
L 156.708577 500.271327 
L 156.258319 499.929341 
L 155.768258 499.453833 
L 155.337236 499.083629 
L 154.847187 498.608122 
L 154.344703 498.231445 
L 153.932632 497.762381 
L 153.482153 497.385305 
L 153.030955 496.909545 
L 152.592746 496.412674 
L 152.083726 496.028801 
L 151.671461 495.531724 
L 151.289171 495.414491 
L 151.040129 495.328004 
L 150.621088 494.944853 
L 150.142204 494.492771 
L 149.715325 494.040137 
L 149.217651 493.64458 
L 148.709664 493.502425 
L 148.217695 493.029413 
L 147.80407 492.611851 
L 147.351112 492.152488 
L 146.995214 491.663868 
L 146.516963 491.268124 
L 146.011014 490.717861 
L 145.596877 490.243966 
L 145.183695 489.854573 
L 144.791377 489.598611 
L 144.322034 489.420836 
L 143.948661 489.115427 
L 143.470394 488.719685 
L 143.011088 488.281419 
L 142.499716 487.822769 
L 142.042596 487.567535 
L 141.545406 487.221229 
L 141.060284 486.790401 
L 140.613518 486.30272 
L 140.211502 485.765369 
L 140.024462 485.28201 
L 139.584053 484.780284 
L 139.341969 484.607059 
L 138.88553 484.429101 
L 138.430352 484.356903 
L 138.025294 484.122196 
L 137.625986 483.824075 
L 137.134324 483.38619 
L 136.760642 483.059695 
L 136.302401 482.70595 
L 135.804551 482.296237 
L 141.968044 462.254929 
L 145.296239 445.678372 
L 147.487124 420.703598 
L 147.216384 391.130386 
L 143.670746 362.661016 
L 141.150222 354.726559 
L 120.491664 242.223851 
L 116.863094 236.530668 
L 118.93291 234.148732 
L 120.833219 231.218868 
L 122.507808 227.680281 
L 123.564774 223.838677 
L 126.661327 204.240444 
L 128.046464 196.681067 
L 129.546713 190.40098 
L 131.38462 184.607473 
L 142.01146 150.320392 
L 144.154876 143.929734 
L 146.155128 140.044959 
L 150.619406 132.706222 
L 211.3482 176.546269 
L 267.89916 217.585573 
L 286.622779 231.45567 
L 296.181908 237.590789 
L 310.618555 246.199319 
L 325.353164 254.807509 
L 337.001387 261.694637 
L 348.054232 269.33961 
L 355.231586 274.643822 
L 363.640245 282.209348 
L 372.048219 289.504107 
L 382.290369 299.955151 
L 408.517967 326.875268 
L 472.100858 391.521686 
L 503.432349 424.076376 
L 511.156539 431.945506 
L 515.631971 437.88648 
L 519.598798 443.167411 
L 523.77172 450.321105 
L 528.24862 457.253855 
L 532.826359 463.855885 
L 538.724487 471.226615 
L 558.643626 489.147735 
L 576.327434 505.861752 
L 591.662896 521.353118 
" style="stroke:#ffffff;stroke-linejoin:miter;stroke-width:2;"/>
   </g>
  </g>
 </g>
 <defs>
  <clipPath id="p489fd1a9b9">
   <rect height="543.6" width="558" x="90" y="86.4"/>
  </clipPath>
 </defs>
</svg>
