<?xml version="1.0" encoding="utf-8" standalone="no"?>
<!DOCTYPE svg PUBLIC "-//W3C//DTD SVG 1.1//EN"
  "http://www.w3.org/Graphics/SVG/1.1/DTD/svg11.dtd">
<!-- Created with matplotlib (https://matplotlib.org/) -->
<svg height="720pt" version="1.1" viewBox="0 0 720 720" width="720pt" xmlns="http://www.w3.org/2000/svg" xmlns:xlink="http://www.w3.org/1999/xlink">
 <metadata>
  <rdf:RDF xmlns:cc="http://creativecommons.org/ns#" xmlns:dc="http://purl.org/dc/elements/1.1/" xmlns:rdf="http://www.w3.org/1999/02/22-rdf-syntax-ns#">
   <cc:Work>
    <dc:type rdf:resource="http://purl.org/dc/dcmitype/StillImage"/>
    <dc:date>2021-05-07T11:03:06.189439</dc:date>
    <dc:format>image/svg+xml</dc:format>
    <dc:creator>
     <cc:Agent>
      <dc:title>Matplotlib v3.3.3, https://matplotlib.org/</dc:title>
     </cc:Agent>
    </dc:creator>
   </cc:Work>
  </rdf:RDF>
 </metadata>
 <defs>
  <style type="text/css">*{stroke-linecap:butt;stroke-linejoin:round;}</style>
 </defs>
 <g id="figure_1">
  <g id="patch_1">
   <path d="M 0 720 
L 720 720 
L 720 0 
L 0 0 
z
" style="fill:none;"/>
  </g>
  <g id="axes_1">
   <g id="patch_2">
    <path clip-path="url(#p86be358438)" d="M 311.021551 177.308873 
L 314.86418 177.623452 
L 319.49421 178.40363 
L 323.607922 179.124719 
L 323.837025 186.837016 
L 327.560789 186.366914 
L 330.376034 186.208634 
L 335.137039 186.202987 
L 343.968444 186.012693 
L 348.650858 185.904351 
L 352.503506 185.822743 
L 357.875456 185.556595 
L 362.350509 185.526163 
L 365.670114 185.755865 
L 368.990029 186.244559 
L 372.576837 186.836536 
L 375.511869 187.61044 
L 378.269217 188.514005 
L 380.730321 189.49559 
L 383.073304 190.788015 
L 384.626261 191.807807 
L 392.267773 195.496719 
L 397.913739 197.764183 
L 400.186574 198.530282 
L 402.459188 199.104304 
L 404.548336 199.486429 
L 406.234134 199.676874 
L 409.45917 200.025848 
L 412.940571 200.27855 
L 421.71698 200.410133 
L 426.93009 200.717041 
L 429.62739 201.051038 
L 432.150247 201.461675 
L 435.031665 200.864601 
L 438.765262 200.420756 
L 441.491648 200.314518 
L 452.685817 200.225515 
L 474.507481 200.281603 
L 484.524531 200.323909 
L 487.577132 200.372816 
L 491.442323 200.593023 
L 514.356816 200.571788 
L 525.979147 200.561125 
L 539.753767 200.374302 
L 547.541362 201.935746 
L 558.147879 206.145361 
L 556.860465 208.426402 
L 550.90511 219.551521 
L 549.295571 219.551321 
L 548.058559 221.943932 
L 546.974468 224.392385 
L 546.046563 226.889296 
L 545.277676 229.427035 
L 544.670167 231.997888 
L 544.302879 234.066432 
L 544.040052 236.147086 
L 543.882136 238.222904 
L 543.829108 240.302522 
L 543.839437 241.136951 
L 543.856241 241.853662 
L 544.037853 244.456622 
L 544.122333 248.608929 
L 544.207918 252.825171 
L 544.333245 258.986564 
L 544.460303 265.213471 
L 544.586816 271.428965 
L 544.713528 277.655383 
L 544.862365 284.979754 
L 544.901205 286.876443 
L 545.024481 292.945599 
L 545.088789 296.099847 
L 545.270521 305.024307 
L 545.277612 309.233675 
L 546.677893 310.10277 
L 549.021732 311.833995 
L 551.421359 314.167048 
L 554.042063 317.053618 
L 556.40308 319.813835 
L 558.803709 323.013589 
L 560.680366 325.756378 
L 562.612689 329.004697 
L 564.123327 331.632152 
L 565.476286 334.206928 
L 566.52548 336.156021 
L 568.016082 338.63435 
L 569.368349 340.607254 
L 572.320534 344.312081 
L 575.442562 347.234218 
L 580.021986 351.871773 
L 582.3366 353.494345 
L 580.617757 355.766112 
L 577.565855 359.456345 
L 572.344547 359.690119 
L 567.225877 359.90393 
L 567.193116 359.906138 
L 550.692348 360.620613 
L 534.732077 361.262303 
L 534.729829 362.092058 
L 534.725817 364.074217 
L 513.150389 364.041762 
L 497.304283 364.022379 
L 497.296554 366.08662 
L 472.316521 371.172859 
L 468.039602 374.02466 
L 467.541906 373.394899 
L 465.598182 374.077956 
L 463.563865 374.826401 
L 461.719193 375.566276 
L 458.10519 377.17947 
L 454.683317 378.995382 
L 451.033069 382.286628 
L 449.412389 384.040342 
L 447.583696 386.347181 
L 445.165714 389.73878 
L 442.303758 394.456799 
L 444.725128 395.426849 
L 438.030725 407.084243 
L 438.036654 409.833463 
L 438.051654 411.201387 
L 426.223612 411.272246 
L 426.223929 412.54462 
L 426.245083 429.904577 
L 424.343634 429.899894 
L 412.497493 429.870636 
L 409.322576 429.869401 
L 409.327392 438.453917 
L 408.877232 440.544475 
L 408.505015 441.742575 
L 407.924606 442.541626 
L 407.136786 443.522339 
L 406.182662 444.358072 
L 404.688989 445.448394 
L 402.53115 446.793429 
L 400.37341 448.211038 
L 399.875924 448.901125 
L 397.797076 447.013105 
L 394.966113 445.367929 
L 392.371274 444.031497 
L 389.717961 443.055643 
L 387.359814 442.439988 
L 384.943063 442.081909 
L 382.585623 442.032749 
L 379.286188 442.705538 
L 376.753519 443.841082 
L 374.692678 445.233643 
L 372.927292 447.243914 
L 370.692087 450.490667 
L 367.053506 457.458055 
L 360.29181 470.178199 
L 355.370521 479.595087 
L 351.560318 486.692651 
L 349.972301 489.337031 
L 348.912967 490.589944 
L 347.376205 491.889709 
L 345.55484 492.750139 
L 344.089549 493.456429 
L 342.404188 494.034772 
L 340.462033 494.485262 
L 338.189826 494.807947 
L 335.587523 494.970765 
L 332.545024 494.909812 
L 328.292528 494.56181 
L 324.993133 494.27688 
L 321.693724 493.959921 
L 318.504091 493.514709 
L 315.534213 492.941157 
L 313.354071 492.498913 
L 308.658859 491.441362 
L 304.663694 490.2975 
L 304.089823 491.120141 
L 303.688064 492.177726 
L 303.323592 493.715815 
L 302.266989 498.39409 
L 300.764124 506.072163 
L 300.340999 508.474037 
L 300.087348 510.620699 
L 299.981184 513.407875 
L 300.04492 515.523096 
L 298.459316 519.242419 
L 298.304956 519.733039 
L 297.658982 520.703544 
L 297.012677 521.431599 
L 295.996579 522.24084 
L 294.764593 522.969508 
L 293.43972 523.374998 
L 289.280653 524.343658 
L 284.285952 525.797836 
L 268.15699 530.527221 
L 254.82622 534.243363 
L 249.302479 535.366097 
L 239.910238 538.110863 
L 233.090941 538.311821 
L 224.429924 538.567105 
L 218.508888 538.741645 
L 208.242814 538.752815 
L 202.171189 538.715632 
L 192.865429 538.658628 
L 187.188292 538.623866 
L 176.748757 539.091127 
L 171.192576 539.051812 
L 155.731835 538.9425 
L 155.740404 525.047612 
L 155.749028 511.10508 
L 155.7659 483.239552 
L 155.770861 475.034036 
L 155.782805 455.396775 
L 155.791289 441.422239 
L 155.844362 435.972762 
L 155.799723 427.583668 
L 155.918334 419.005089 
L 155.91907 413.547009 
L 155.920918 399.493674 
L 155.922773 385.678787 
L 155.924649 371.666235 
L 155.92651 357.813375 
L 155.928361 343.847163 
L 155.917496 329.25569 
L 155.905745 313.405302 
L 155.72269 305.194012 
L 155.66722 294.644757 
L 155.768441 282.067571 
L 155.813746 259.146209 
L 155.800611 227.728994 
L 155.713645 206.215796 
L 155.6634 179.631809 
L 173.865844 178.987974 
L 192.202228 179.15104 
L 194.25387 177.381972 
L 207.61697 177.467531 
L 224.104287 177.317587 
L 240.649741 177.339596 
L 258.081537 177.331686 
L 273.553257 177.324841 
L 290.893525 177.319272 
L 311.021551 177.308873 
" style="stroke:#ffffff;stroke-linejoin:miter;stroke-width:2;"/>
   </g>
  </g>
 </g>
 <defs>
  <clipPath id="p86be358438">
   <rect height="543.6" width="558" x="90" y="86.4"/>
  </clipPath>
 </defs>
</svg>
