<?xml version="1.0" encoding="utf-8" standalone="no"?>
<!DOCTYPE svg PUBLIC "-//W3C//DTD SVG 1.1//EN"
  "http://www.w3.org/Graphics/SVG/1.1/DTD/svg11.dtd">
<!-- Created with matplotlib (https://matplotlib.org/) -->
<svg height="720pt" version="1.1" viewBox="0 0 720 720" width="720pt" xmlns="http://www.w3.org/2000/svg" xmlns:xlink="http://www.w3.org/1999/xlink">
 <metadata>
  <rdf:RDF xmlns:cc="http://creativecommons.org/ns#" xmlns:dc="http://purl.org/dc/elements/1.1/" xmlns:rdf="http://www.w3.org/1999/02/22-rdf-syntax-ns#">
   <cc:Work>
    <dc:type rdf:resource="http://purl.org/dc/dcmitype/StillImage"/>
    <dc:date>2021-05-07T11:03:02.076782</dc:date>
    <dc:format>image/svg+xml</dc:format>
    <dc:creator>
     <cc:Agent>
      <dc:title>Matplotlib v3.3.3, https://matplotlib.org/</dc:title>
     </cc:Agent>
    </dc:creator>
   </cc:Work>
  </rdf:RDF>
 </metadata>
 <defs>
  <style type="text/css">*{stroke-linecap:butt;stroke-linejoin:round;}</style>
 </defs>
 <g id="figure_1">
  <g id="patch_1">
   <path d="M 0 720 
L 720 720 
L 720 0 
L 0 0 
z
" style="fill:none;"/>
  </g>
  <g id="axes_1">
   <g id="patch_2">
    <path clip-path="url(#pae0ef00a17)" d="M 294.964772 203.059641 
L 295.003799 216.263039 
L 297.692246 216.228021 
L 353.272774 216.199993 
L 353.268176 209.871163 
L 360.018885 215.839031 
L 365.410198 209.315526 
L 539.061605 363.121857 
L 549.834527 350.062138 
L 555.818707 355.368994 
L 548.394098 364.36378 
L 586.52347 398.146329 
L 590.806938 401.874667 
L 576.759595 425.427912 
L 572.50822 432.651381 
L 567.528134 440.615649 
L 551.797158 463.683705 
L 549.331342 470.021721 
L 550.012123 473.542744 
L 550.824898 476.231362 
L 552.011418 478.773537 
L 553.608463 481.068892 
L 555.143713 482.740087 
L 554.702978 483.113754 
L 554.006054 483.332036 
L 553.006637 483.467157 
L 552.04276 483.466172 
L 545.522952 483.276795 
L 541.878297 489.982671 
L 541.886036 524.269431 
L 541.930603 535.956063 
L 324.115354 448.905158 
L 236.72425 413.991696 
L 219.384041 408.946063 
L 200.867386 405.536983 
L 185.506247 403.954399 
L 174.581901 403.46786 
L 172.34138 403.461588 
L 149.562082 285.169515 
L 148.058066 264.297118 
L 147.268391 241.558332 
L 147.193062 216.953156 
L 149.291718 196.81458 
L 150.243417 180.443937 
L 222.984582 188.778219 
L 294.964772 203.059641 
" style="stroke:#ffffff;stroke-linejoin:miter;stroke-width:2;"/>
   </g>
  </g>
 </g>
 <defs>
  <clipPath id="pae0ef00a17">
   <rect height="543.6" width="558" x="90" y="86.4"/>
  </clipPath>
 </defs>
</svg>
