<?xml version="1.0" encoding="utf-8" standalone="no"?>
<!DOCTYPE svg PUBLIC "-//W3C//DTD SVG 1.1//EN"
  "http://www.w3.org/Graphics/SVG/1.1/DTD/svg11.dtd">
<!-- Created with matplotlib (https://matplotlib.org/) -->
<svg height="720pt" version="1.1" viewBox="0 0 720 720" width="720pt" xmlns="http://www.w3.org/2000/svg" xmlns:xlink="http://www.w3.org/1999/xlink">
 <metadata>
  <rdf:RDF xmlns:cc="http://creativecommons.org/ns#" xmlns:dc="http://purl.org/dc/elements/1.1/" xmlns:rdf="http://www.w3.org/1999/02/22-rdf-syntax-ns#">
   <cc:Work>
    <dc:type rdf:resource="http://purl.org/dc/dcmitype/StillImage"/>
    <dc:date>2021-05-28T08:56:49.226575</dc:date>
    <dc:format>image/svg+xml</dc:format>
    <dc:creator>
     <cc:Agent>
      <dc:title>Matplotlib v3.3.3, https://matplotlib.org/</dc:title>
     </cc:Agent>
    </dc:creator>
   </cc:Work>
  </rdf:RDF>
 </metadata>
 <defs>
  <style type="text/css">*{stroke-linecap:butt;stroke-linejoin:round;}</style>
 </defs>
 <g id="figure_1">
  <g id="patch_1">
   <path d="M 0 720 
L 720 720 
L 720 0 
L 0 0 
z
" style="fill:none;"/>
  </g>
  <g id="axes_1">
   <g id="patch_2">
    <path clip-path="url(#peae61feae4)" d="M 603.951449 423.617738 
L 605.818166 429.201086 
L 606.895382 429.199166 
L 608.656201 430.715305 
L 608.839115 449.301106 
L 608.68336 473.00593 
L 608.561697 570.798734 
L 392.756246 571.303947 
L 372.739597 571.963931 
L 321.195524 571.336236 
L 305.872248 570.238009 
L 288.694406 564.783614 
L 279.825038 560.563805 
L 260.230688 551.512323 
L 208.994078 531.857536 
L 208.992446 531.856909 
L 184.437614 522.53332 
L 167.534889 514.820452 
L 171.604901 499.787363 
L 174.868973 483.787808 
L 177.221903 467.299249 
L 178.662088 453.131029 
L 179.582213 437.496807 
L 180.026542 423.845021 
L 179.903287 420.838096 
L 179.767972 417.536815 
L 179.356073 407.487768 
L 178.458409 392.404994 
L 175.298914 371.585603 
L 171.459541 351.190742 
L 166.486366 332.919646 
L 161.511622 317.197695 
L 129.160885 236.784544 
L 248.074192 195.442533 
L 259.823429 191.477425 
L 261.648388 190.900411 
L 263.914334 190.1557 
L 266.210663 189.420298 
L 268.096072 188.809329 
L 270.434312 188.078483 
L 272.513092 187.422293 
L 276.385068 186.202197 
L 278.560544 185.546093 
L 280.482217 184.935168 
L 282.459696 184.350819 
L 284.369261 183.796573 
L 286.793243 183.075014 
L 288.787436 182.475486 
L 291.0354 181.83079 
L 293.023344 181.234885 
L 295.464702 180.544974 
L 297.797306 179.843665 
L 301.269731 178.884522 
L 303.433108 178.285124 
L 307.22356 177.224592 
L 309.592376 176.602672 
L 312.327321 175.869849 
L 314.768665 175.213984 
L 317.210024 174.569465 
L 320.004984 173.850508 
L 322.724322 173.149495 
L 325.830378 172.34673 
L 328.688708 171.647281 
L 331.637664 170.923757 
L 335.450287 169.999919 
L 338.375054 169.287738 
L 340.905633 168.702602 
L 343.395304 168.126176 
L 344.978556 167.741834 
L 346.538499 167.398072 
L 349.163241 166.805607 
L 352.353896 166.082317 
L 355.017755 165.50965 
L 357.543684 164.944621 
L 360.504694 164.311867 
L 364.146739 163.511363 
L 366.878124 162.912493 
L 369.259028 162.404057 
L 371.51168 161.908046 
L 374.025543 161.354372 
L 376.651669 160.794657 
L 379.84234 160.105453 
L 382.74296 159.472722 
L 384.393307 159.11273 
L 386.145763 158.751246 
L 387.378545 158.457409 
L 388.355443 158.264025 
L 444.713893 144.436069 
L 447.057032 152.367156 
L 451.978263 166.446883 
L 456.976818 179.456389 
L 462.999638 196.199823 
L 467.066658 207.28946 
L 470.236899 216.593072 
L 473.814725 227.025053 
L 476.260605 233.795325 
L 479.178012 241.268322 
L 483.980797 252.510097 
L 490.641543 266.983086 
L 491.16504 267.166507 
L 494.474093 275.142488 
L 498.978273 284.072463 
L 503.214667 293.128507 
L 507.435094 298.874925 
L 523.239068 322.443327 
L 532.823005 333.313705 
L 560.333275 364.518674 
L 573.379178 379.306381 
L 582.264851 389.378805 
L 586.214314 393.893946 
L 587.858009 395.775445 
L 588.536987 396.692522 
L 592.835577 402.498722 
L 595.037864 405.661349 
L 598.633403 411.735284 
L 601.303016 417.154729 
L 603.951449 423.617738 
" style="fill:#1a1a1a;stroke:#ffffff;stroke-linejoin:miter;stroke-width:4;"/>
   </g>
  </g>
 </g>
 <defs>
  <clipPath id="peae61feae4">
   <rect height="543.6" width="558" x="90" y="86.4"/>
  </clipPath>
 </defs>
</svg>
