<?xml version="1.0" encoding="utf-8" standalone="no"?>
<!DOCTYPE svg PUBLIC "-//W3C//DTD SVG 1.1//EN"
  "http://www.w3.org/Graphics/SVG/1.1/DTD/svg11.dtd">
<!-- Created with matplotlib (https://matplotlib.org/) -->
<svg height="720pt" version="1.1" viewBox="0 0 720 720" width="720pt" xmlns="http://www.w3.org/2000/svg" xmlns:xlink="http://www.w3.org/1999/xlink">
 <metadata>
  <rdf:RDF xmlns:cc="http://creativecommons.org/ns#" xmlns:dc="http://purl.org/dc/elements/1.1/" xmlns:rdf="http://www.w3.org/1999/02/22-rdf-syntax-ns#">
   <cc:Work>
    <dc:type rdf:resource="http://purl.org/dc/dcmitype/StillImage"/>
    <dc:date>2021-05-07T11:02:58.437993</dc:date>
    <dc:format>image/svg+xml</dc:format>
    <dc:creator>
     <cc:Agent>
      <dc:title>Matplotlib v3.3.3, https://matplotlib.org/</dc:title>
     </cc:Agent>
    </dc:creator>
   </cc:Work>
  </rdf:RDF>
 </metadata>
 <defs>
  <style type="text/css">*{stroke-linecap:butt;stroke-linejoin:round;}</style>
 </defs>
 <g id="figure_1">
  <g id="patch_1">
   <path d="M 0 720 
L 720 720 
L 720 0 
L 0 0 
z
" style="fill:none;"/>
  </g>
  <g id="axes_1">
   <g id="patch_2">
    <path clip-path="url(#paa4c568494)" d="M 533.988304 209.145137 
L 534.38549 211.248566 
L 535.021678 214.808111 
L 536.135589 222.256809 
L 537.037662 228.606626 
L 537.858797 234.912058 
L 538.283731 238.574186 
L 538.649505 242.12434 
L 539.101453 246.767955 
L 539.313461 248.4876 
L 540.240934 253.219014 
L 541.115054 257.431108 
L 541.6451 260.199621 
L 542.132585 262.492306 
L 545.811948 266.914114 
L 544.519677 296.769989 
L 542.279587 313.302334 
L 538.766486 325.278651 
L 536.075441 332.333888 
L 532.126954 340.021164 
L 523.510866 354.553527 
L 513.456313 367.296192 
L 498.17605 381.950832 
L 442.858345 429.181794 
L 417.207079 450.244968 
L 396.893276 467.91863 
L 381.150544 481.720046 
L 368.771991 494.72066 
L 353.80777 513.059587 
L 340.209214 532.902791 
L 338.837304 535.318361 
L 315.868259 530.749023 
L 316.905124 526.900433 
L 317.176017 523.308617 
L 316.899207 520.155357 
L 316.075184 516.050709 
L 312.878258 500.337434 
L 310.10322 487.295786 
L 307.362523 474.415998 
L 304.922921 461.941067 
L 301.90983 448.791844 
L 299.162713 435.882501 
L 296.401636 422.907653 
L 292.663765 410.908744 
L 288.621005 410.495557 
L 257.710802 412.758206 
L 255.627454 411.557654 
L 254.889408 387.011027 
L 254.949205 384.102422 
L 240.838019 381.289959 
L 238.654043 378.429137 
L 238.708257 377.331301 
L 238.964399 372.077846 
L 239.976023 351.338055 
L 240.735003 335.783143 
L 241.219764 325.845908 
L 242.586384 297.026054 
L 192.188052 217.877969 
L 192.19554 206.749141 
L 262.502886 206.664874 
L 286.448 206.33363 
L 290.923707 209.59085 
L 300.381795 209.504037 
L 308.980152 209.438354 
L 315.360255 209.309883 
L 323.672615 208.991079 
L 330.624261 208.634226 
L 337.587083 208.11299 
L 343.075042 207.629735 
L 349.378743 207.019795 
L 354.180638 206.460662 
L 363.314391 205.293643 
L 368.756427 204.493397 
L 373.914372 203.646669 
L 378.853252 202.783177 
L 382.671747 202.072128 
L 385.98275 201.412561 
L 391.570994 200.245508 
L 396.829859 199.077606 
L 400.762525 198.150999 
L 407.16022 196.413908 
L 423.103051 192.150876 
L 430.411106 190.536429 
L 436.750566 189.172609 
L 443.565444 187.676812 
L 450.855832 186.107715 
L 457.046521 184.761833 
L 461.140796 183.852665 
L 465.552009 182.94343 
L 469.355846 182.283361 
L 472.676967 181.845732 
L 476.850755 181.376024 
L 480.390647 181.155487 
L 483.164524 181.081639 
L 486.090634 181.11027 
L 489.419467 181.270689 
L 492.769036 181.562698 
L 496.785021 182.118485 
L 499.585672 182.601283 
L 502.322999 183.215178 
L 504.753861 183.829907 
L 507.818949 184.708195 
L 510.778476 185.776917 
L 513.148343 186.769785 
L 516.028762 188.087581 
L 518.988624 189.712978 
L 521.552185 191.323821 
L 523.522085 192.736836 
L 525.055209 194.054926 
L 526.694036 195.578042 
L 528.200886 197.218422 
L 529.469944 198.829516 
L 530.70754 200.756545 
L 531.871133 202.719255 
L 532.612043 204.638105 
L 533.352784 206.757521 
L 533.988304 209.145137 
" style="stroke:#ffffff;stroke-linejoin:miter;stroke-width:2;"/>
   </g>
  </g>
 </g>
 <defs>
  <clipPath id="paa4c568494">
   <rect height="543.6" width="558" x="90" y="86.4"/>
  </clipPath>
 </defs>
</svg>
