<?xml version="1.0" encoding="utf-8" standalone="no"?>
<!DOCTYPE svg PUBLIC "-//W3C//DTD SVG 1.1//EN"
  "http://www.w3.org/Graphics/SVG/1.1/DTD/svg11.dtd">
<!-- Created with matplotlib (https://matplotlib.org/) -->
<svg height="720pt" version="1.1" viewBox="0 0 720 720" width="720pt" xmlns="http://www.w3.org/2000/svg" xmlns:xlink="http://www.w3.org/1999/xlink">
 <metadata>
  <rdf:RDF xmlns:cc="http://creativecommons.org/ns#" xmlns:dc="http://purl.org/dc/elements/1.1/" xmlns:rdf="http://www.w3.org/1999/02/22-rdf-syntax-ns#">
   <cc:Work>
    <dc:type rdf:resource="http://purl.org/dc/dcmitype/StillImage"/>
    <dc:date>2021-05-28T08:56:50.780789</dc:date>
    <dc:format>image/svg+xml</dc:format>
    <dc:creator>
     <cc:Agent>
      <dc:title>Matplotlib v3.3.3, https://matplotlib.org/</dc:title>
     </cc:Agent>
    </dc:creator>
   </cc:Work>
  </rdf:RDF>
 </metadata>
 <defs>
  <style type="text/css">*{stroke-linecap:butt;stroke-linejoin:round;}</style>
 </defs>
 <g id="figure_1">
  <g id="patch_1">
   <path d="M 0 720 
L 720 720 
L 720 0 
L 0 0 
z
" style="fill:none;"/>
  </g>
  <g id="axes_1">
   <g id="patch_2">
    <path clip-path="url(#p46852bf0bb)" d="M 486.46781 413.031302 
L 485.785308 413.683991 
L 485.182859 414.23439 
L 484.527186 414.914831 
L 483.84442 415.521135 
L 483.215488 416.127424 
L 482.560085 416.85427 
L 482.052322 417.459976 
L 481.491033 418.093822 
L 480.902702 418.73699 
L 480.072271 419.455286 
L 479.174503 420.164654 
L 478.464685 420.79891 
L 477.942861 421.302535 
L 477.246863 421.983173 
L 476.483794 422.654882 
L 475.774282 423.307766 
L 475.064186 423.914082 
L 474.447343 424.325146 
L 473.588711 424.8393 
L 472.621854 425.307428 
L 471.856168 425.644594 
L 470.809001 426.177943 
L 469.936854 426.701398 
L 469.655062 426.869677 
L 468.702028 427.384208 
L 467.735438 427.889411 
L 467.023931 428.263635 
L 466.312387 428.619213 
L 465.34551 429.087363 
L 464.566038 429.378314 
L 463.665664 429.706739 
L 462.859149 430.007012 
L 462.026145 430.353862 
L 461.004588 430.692004 
L 460.090087 430.94629 
L 459.067959 431.219601 
L 458.12585 431.343869 
L 457.101131 431.254676 
L 456.428149 431.359505 
L 455.473086 431.586065 
L 455.117155 431.635811 
L 446.000566 439.173584 
L 445.74846 439.71313 
L 445.402526 440.364816 
L 445.083037 440.904748 
L 444.723008 441.45417 
L 444.322654 441.975846 
L 443.881738 442.516163 
L 443.292836 443.075719 
L 442.435119 443.719876 
L 442.207427 443.915901 
L 441.550919 444.457016 
L 440.612619 445.147969 
L 439.701625 445.866673 
L 438.924478 446.473388 
L 438.160901 447.107839 
L 437.316399 447.71494 
L 436.32312 448.266572 
L 435.263047 448.865159 
L 434.350932 449.481596 
L 433.331447 450.098598 
L 432.325479 450.743191 
L 431.306589 451.453166 
L 430.462707 452.180783 
L 429.793834 452.852116 
L 428.936417 453.561311 
L 427.983677 454.084993 
L 427.45342 454.244573 
L 426.852567 454.714086 
L 426.296705 455.442362 
L 425.511702 456.172355 
L 424.820264 456.836391 
L 424.235684 457.444146 
L 423.26074 458.063896 
L 422.313135 458.72051 
L 421.430686 459.218769 
L 420.537213 459.884497 
L 419.562287 460.522657 
L 418.719017 460.918472 
L 417.862204 461.32377 
L 417.058966 461.700744 
L 416.229222 462.096537 
L 415.226155 462.641954 
L 414.370767 463.149339 
L 413.531392 463.842446 
L 413.013584 464.394117 
L 412.401962 464.992753 
L 411.642622 465.610959 
L 411.030161 466.144564 
L 410.484758 466.668486 
L 409.766317 467.332883 
L 409.221736 467.893878 
L 408.650419 468.482804 
L 408.052578 469.100064 
L 407.495904 469.772646 
L 407.112256 470.286088 
L 406.607998 470.865515 
L 406.091621 471.519091 
L 405.562263 472.228718 
L 405.180007 472.835133 
L 404.691256 473.553714 
L 404.334943 474.094742 
L 403.95298 474.738412 
L 403.611622 475.390835 
L 403.24235 475.978619 
L 402.873104 476.566403 
L 402.316691 477.257412 
L 401.758914 477.855668 
L 401.26871 478.462851 
L 400.725293 479.116784 
L 400.248112 479.686707 
L 399.758222 480.321648 
L 399.174752 480.994406 
L 398.684048 481.564334 
L 398.179517 482.115821 
L 397.448374 482.826796 
L 396.797878 483.546328 
L 396.361253 484.125187 
L 396.069818 484.489416 
L 395.675454 485.20742 
L 395.374664 485.878276 
L 395.194521 486.501792 
L 395.079466 486.957839 
L 394.846043 487.60968 
L 394.558778 488.280349 
L 394.217683 488.951401 
L 393.795155 489.585956 
L 393.332355 490.230021 
L 392.895735 490.808881 
L 392.540562 491.443048 
L 392.251895 492.002318 
L 391.978468 492.700923 
L 391.796095 493.166472 
L 391.574748 493.716058 
L 391.300759 494.368077 
L 390.959404 495.039331 
L 390.631308 495.673106 
L 390.29049 496.353673 
L 390.017318 497.070706 
L 389.701885 497.648814 
L 389.333776 498.32004 
L 388.897725 498.945287 
L 388.462517 499.63573 
L 388.066521 500.242153 
L 387.64511 500.941723 
L 387.276142 501.557268 
L 386.827983 502.266344 
L 386.523564 502.667833 
L 385.99284 503.275198 
L 385.475937 503.891707 
L 385.303725 504.097216 
L 384.773844 504.769594 
L 384.190971 505.498256 
L 383.621343 506.208086 
L 383.105538 506.908236 
L 382.710371 507.551733 
L 382.475278 508.110803 
L 382.161809 508.828052 
L 381.846133 509.387515 
L 381.436861 509.994127 
L 380.921066 510.703592 
L 380.48561 511.366077 
L 380.289405 511.79476 
L 380.042184 512.446607 
L 379.887398 512.94922 
L 379.707549 513.591383 
L 379.541203 514.242837 
L 379.280752 514.894872 
L 378.845279 515.566507 
L 378.462229 516.126542 
L 378.013228 516.789032 
L 377.671903 517.441661 
L 377.424957 518.102822 
L 377.218309 518.754473 
L 376.662496 519.482745 
L 376.038796 520.165037 
L 375.480172 520.707601 
L 374.842943 521.380749 
L 374.151343 522.035654 
L 373.431543 522.597979 
L 372.401492 523.143793 
L 372.13376 523.25693 
L 371.263234 523.62518 
L 370.392716 524.002744 
L 369.589523 524.379737 
L 368.735033 524.952173 
L 367.679911 525.618877 
L 366.66562 526.313161 
L 365.636684 526.923809 
L 364.700215 527.394719 
L 363.882973 527.734647 
L 363.038645 528.05614 
L 362.18078 528.359212 
L 361.350002 528.680701 
L 360.519797 529.05789 
L 359.556559 529.538308 
L 358.75366 529.943082 
L 357.964864 530.375775 
L 357.096291 530.892686 
L 356.28435 531.613384 
L 355.565431 532.231415 
L 354.926817 532.830261 
L 354.397238 533.502666 
L 353.933895 534.100153 
L 353.497047 534.669891 
L 352.89903 535.268358 
L 352.507931 535.458972 
L 348.787875 539.954722 
L 349.004963 540.134455 
L 349.524534 540.688347 
L 349.882644 541.270986 
L 350.036764 541.70667 
L 350.314266 542.289868 
L 350.752996 542.853468 
L 351.246076 543.444643 
L 351.725919 544.063746 
L 352.19253 544.683055 
L 352.578813 545.358439 
L 353.032711 546.033453 
L 353.527503 546.754637 
L 353.925054 547.253622 
L 354.472529 547.900096 
L 354.979964 548.546784 
L 355.4728 549.137942 
L 356.021088 549.812375 
L 356.540663 550.384732 
L 357.074604 551.022079 
L 357.676717 551.695946 
L 358.292644 552.407063 
L 358.893958 553.043839 
L 359.522038 553.661997 
L 360.434656 554.389628 
L 361.333232 555.098838 
L 362.108678 555.641522 
L 362.870596 556.212335 
L 363.566012 556.82059 
L 364.303378 557.54025 
L 364.68741 558.057687 
L 364.937847 558.631948 
L 365.175052 559.243469 
L 365.184853 559.949303 
L 364.856518 560.564656 
L 364.325241 561.116327 
L 363.832143 561.66183 
L 363.386423 561.661986 
L 334.442168 561.672344 
L 322.689889 561.674934 
L 310.914436 561.677603 
L 303.9831 561.680958 
L 284.843179 548.811864 
L 283.898622 548.240514 
L 282.873408 547.73945 
L 281.778441 547.314093 
L 280.625522 546.968968 
L 279.426959 546.707776 
L 278.195614 546.533325 
L 276.944695 546.447492 
L 275.687592 546.451165 
L 274.437776 546.54434 
L 273.208636 546.726006 
L 272.01335 546.994205 
L 270.864723 547.346082 
L 269.775055 547.777851 
L 268.756062 548.284889 
L 267.818611 548.861766 
L 266.972746 549.50238 
L 252.478391 561.697927 
L 251.273879 562.711608 
L 247.741173 565.686332 
L 247.434158 565.935939 
L 247.114806 566.1781 
L 246.783491 566.412485 
L 246.440607 566.638859 
L 246.086581 566.856928 
L 245.721808 567.066418 
L 245.346714 567.26711 
L 244.961802 567.458766 
L 244.567469 567.641112 
L 244.164245 567.813966 
L 243.752581 567.977126 
L 243.332954 568.130391 
L 242.905895 568.27356 
L 242.471906 568.406469 
L 242.031492 568.528971 
L 241.585209 568.640901 
L 241.13775 568.74162 
L 240.836751 568.802867 
L 240.381667 568.88582 
L 240.076098 568.935144 
L 239.76896 568.97963 
L 239.46044 569.019277 
L 239.150563 569.05414 
L 232.437021 569.056923 
L 182.822153 506.268822 
L 155.389652 466.910361 
L 145.864712 451.571576 
L 153.403223 451.568125 
L 158.38044 451.566958 
L 163.71274 451.569296 
L 163.724893 447.893643 
L 163.728407 445.843391 
L 169.914941 440.130712 
L 169.914076 439.185768 
L 169.912976 437.992365 
L 169.905959 430.416412 
L 169.905747 430.191823 
L 169.896215 420.148583 
L 163.525071 413.266826 
L 161.218181 413.269529 
L 156.383516 413.270204 
L 157.88895 410.978739 
L 159.05034 408.895236 
L 159.745556 405.9307 
L 159.708098 403.251277 
L 159.867504 386.493624 
L 159.969504 351.123799 
L 159.90697 345.765261 
L 160.7747 341.378274 
L 161.977485 336.714099 
L 163.716998 332.32672 
L 165.055147 329.001548 
L 166.10635 327.309698 
L 161.562689 319.34586 
L 161.509626 261.850849 
L 161.72791 246.338583 
L 161.714205 231.509705 
L 161.759011 214.256308 
L 161.767725 212.767092 
L 159.045647 212.763301 
L 159.119518 202.851896 
L 159.196084 161.866429 
L 159.957945 161.778462 
L 160.795436 161.693985 
L 161.659331 161.619523 
L 162.259529 161.575752 
L 162.944375 161.533714 
L 162.94436 161.518045 
L 162.933456 149.168273 
L 192.40899 147.428448 
L 225.511445 147.343077 
L 246.500756 147.574125 
L 269.462067 148.603783 
L 291.40384 150.106834 
L 316.199146 152.440738 
L 338.8697 155.459201 
L 356.298419 158.870328 
L 371.460127 162.184761 
L 388.60592 166.572658 
L 410.732784 173.59765 
L 410.748745 176.702699 
L 410.959797 217.745446 
L 411.015204 228.518358 
L 410.681868 270.065375 
L 407.154605 296.240859 
L 451.470052 296.573863 
L 524.670951 297.106453 
L 589.63792 297.196423 
L 592.135288 299.48464 
L 591.568084 300.031108 
L 591.006063 300.599744 
L 590.02721 301.318741 
L 589.18135 301.786273 
L 588.41555 302.123558 
L 587.542059 302.442606 
L 586.613626 302.67821 
L 585.67163 302.839489 
L 584.72995 303.103056 
L 583.696078 303.627029 
L 582.836998 304.113377 
L 582.380974 304.430866 
L 581.563319 305.065475 
L 580.638309 305.765672 
L 579.780626 306.437547 
L 579.204842 306.987727 
L 578.871995 307.57419 
L 578.661224 308.253049 
L 578.193645 308.839892 
L 577.645205 309.436452 
L 577.096201 309.967999 
L 576.602445 310.657136 
L 576.175741 311.299688 
L 575.694371 311.830853 
L 575.132119 312.381031 
L 574.543094 312.959157 
L 573.980838 313.500022 
L 573.365022 314.068841 
L 572.789237 314.600395 
L 572.16019 315.225082 
L 571.572298 315.933236 
L 571.13183 316.566479 
L 570.825759 317.115682 
L 570.505904 317.627834 
L 569.890952 318.317349 
L 568.99303 319.045304 
L 568.201902 319.596253 
L 567.342574 320.073092 
L 566.390233 320.698976 
L 565.599122 321.277867 
L 565.35787 321.464567 
L 564.581131 322.136246 
L 563.8312 322.844972 
L 563.282455 323.385654 
L 562.613103 324.001241 
L 562.145298 324.578975 
L 561.692424 325.305177 
L 561.251397 325.864095 
L 560.716467 326.442029 
L 559.791493 327.142053 
L 559.028294 327.823026 
L 558.211006 328.531972 
L 557.326335 329.204046 
L 556.683207 329.7451 
L 556.02683 330.305005 
L 555.209511 330.948921 
L 554.445451 331.546273 
L 553.641966 332.264531 
L 552.905572 332.963762 
L 552.303323 333.560525 
L 551.660467 334.101782 
L 550.789346 334.801614 
L 550.132695 335.333561 
L 549.624273 335.864923 
L 548.968485 336.517583 
L 548.366807 337.179362 
L 547.791889 337.840951 
L 547.243484 338.437519 
L 546.68183 339.052536 
L 546.040143 339.779522 
L 545.532017 340.35727 
L 544.983595 340.916584 
L 544.395172 341.559733 
L 543.954417 342.146596 
L 543.500133 342.677762 
L 543.005857 343.311207 
L 542.444209 343.926408 
L 541.828982 344.578878 
L 541.172634 345.157214 
L 540.529812 345.735547 
L 539.779897 346.407229 
L 538.894662 347.014297 
L 538.03737 347.74189 
L 537.04506 348.423662 
L 536.172513 348.900701 
L 535.355245 349.581898 
L 534.98244 350.252021 
L 534.717878 350.940377 
L 534.667541 351.034258 
L 534.265037 351.71299 
L 533.837835 352.281224 
L 533.410342 352.803072 
L 532.862506 353.483103 
L 532.287043 354.033297 
L 531.362123 354.742831 
L 530.463938 355.405607 
L 529.767292 355.98414 
L 529.539317 356.17064 
L 528.762642 356.86096 
L 527.891835 357.57943 
L 527.437567 358.157169 
L 526.391725 358.876234 
L 525.545677 359.288074 
L 524.726973 359.746294 
L 523.853886 360.17677 
L 522.819569 360.63578 
L 521.892637 361.048009 
L 521.086899 361.450344 
L 520.254668 361.899438 
L 519.493525 362.322289 
L 518.829409 368.118947 
L 518.752549 368.71377 
L 518.474484 369.411446 
L 518.168758 370.016357 
L 517.876564 370.630597 
L 517.530559 371.245015 
L 517.117751 371.952407 
L 516.97095 372.166664 
L 516.449923 372.800306 
L 515.497393 373.407586 
L 514.649329 373.512827 
L 513.733372 373.572047 
L 512.88559 373.705212 
L 511.983425 373.810816 
L 510.947142 374.000463 
L 509.951398 374.171309 
L 509.011836 374.72287 
L 508.584659 375.291128 
L 507.92864 375.90673 
L 507.461414 376.512236 
L 507.411358 377.078928 
L 507.496014 377.626772 
L 507.553582 378.155996 
L 507.557329 378.66679 
L 507.520485 379.196388 
L 507.403057 379.745019 
L 507.298856 380.237563 
L 507.141979 380.944174 
L 506.984831 381.595084 
L 506.786496 382.153033 
L 506.534622 382.720695 
L 506.175402 383.390819 
L 505.829682 384.060958 
L 505.483684 384.666065 
L 505.150931 385.243044 
L 504.938774 385.745499 
L 504.753999 386.312776 
L 504.55683 387.000935 
L 504.331728 387.587034 
L 504.106632 388.13586 
L 503.853878 388.601253 
L 503.534951 389.234111 
L 503.428174 389.401789 
L 503.029212 390.127807 
L 502.709712 390.686357 
L 502.336929 391.328545 
L 502.030954 391.887091 
L 501.698185 392.473567 
L 501.351646 393.050752 
L 501.00623 393.730187 
L 500.606383 394.344807 
L 500.219823 394.959258 
L 499.860027 395.536429 
L 499.50021 396.123096 
L 499.05981 396.728432 
L 498.512322 397.417969 
L 498.125434 397.967389 
L 497.739447 398.646855 
L 497.286387 399.363941 
L 496.939518 399.866781 
L 496.418817 400.556147 
L 495.911622 401.254622 
L 495.604525 401.655182 
L 495.123812 402.288654 
L 494.683668 402.912783 
L 494.136197 403.620766 
L 493.736121 404.235222 
L 493.282762 404.887114 
L 492.694693 405.595291 
L 492.213423 406.135974 
L 491.691557 406.639431 
L 491.10319 407.291909 
L 490.622216 407.878978 
L 490.074443 408.559021 
L 489.686754 408.997062 
L 489.219844 409.639827 
L 488.766215 410.273092 
L 488.218732 410.990408 
L 487.778928 411.67937 
L 487.150291 412.341357 
L 486.46781 413.031302 
" style="fill:#1a1a1a;stroke:#ffffff;stroke-linejoin:miter;stroke-width:4;"/>
   </g>
  </g>
 </g>
 <defs>
  <clipPath id="p46852bf0bb">
   <rect height="543.6" width="558" x="90" y="86.4"/>
  </clipPath>
 </defs>
</svg>
