<?xml version="1.0" encoding="utf-8" standalone="no"?>
<!DOCTYPE svg PUBLIC "-//W3C//DTD SVG 1.1//EN"
  "http://www.w3.org/Graphics/SVG/1.1/DTD/svg11.dtd">
<!-- Created with matplotlib (https://matplotlib.org/) -->
<svg height="720pt" version="1.1" viewBox="0 0 720 720" width="720pt" xmlns="http://www.w3.org/2000/svg" xmlns:xlink="http://www.w3.org/1999/xlink">
 <metadata>
  <rdf:RDF xmlns:cc="http://creativecommons.org/ns#" xmlns:dc="http://purl.org/dc/elements/1.1/" xmlns:rdf="http://www.w3.org/1999/02/22-rdf-syntax-ns#">
   <cc:Work>
    <dc:type rdf:resource="http://purl.org/dc/dcmitype/StillImage"/>
    <dc:date>2021-05-07T11:03:02.196626</dc:date>
    <dc:format>image/svg+xml</dc:format>
    <dc:creator>
     <cc:Agent>
      <dc:title>Matplotlib v3.3.3, https://matplotlib.org/</dc:title>
     </cc:Agent>
    </dc:creator>
   </cc:Work>
  </rdf:RDF>
 </metadata>
 <defs>
  <style type="text/css">*{stroke-linecap:butt;stroke-linejoin:round;}</style>
 </defs>
 <g id="figure_1">
  <g id="patch_1">
   <path d="M 0 720 
L 720 720 
L 720 0 
L 0 0 
z
" style="fill:none;"/>
  </g>
  <g id="axes_1">
   <g id="patch_2">
    <path clip-path="url(#pc3eb39abd1)" d="M 207.25674 570.820937 
L 190.111105 571.399662 
L 195.638968 554.971664 
L 197.458381 526.32534 
L 197.401122 429.319216 
L 196.662664 388.387237 
L 196.728631 382.915113 
L 196.893433 369.244166 
L 196.506493 352.234119 
L 196.119586 335.224091 
L 196.136255 308.627617 
L 196.000873 256.805474 
L 196.70622 217.145099 
L 196.640501 166.728393 
L 196.684399 145.151794 
L 474.519605 145.000338 
L 474.517518 153.524181 
L 474.847396 181.174352 
L 475.266555 248.226644 
L 475.253841 292.83826 
L 475.249357 308.584526 
L 475.248227 312.606627 
L 475.238122 349.313542 
L 475.235253 359.841594 
L 475.223106 368.797464 
L 475.191586 378.150102 
L 475.227119 389.300468 
L 475.216063 429.503695 
L 476.084015 447.512285 
L 476.327143 453.834956 
L 477.442966 460.708199 
L 482.333464 466.242725 
L 503.888578 476.192015 
L 534.923702 488.645129 
L 547.888895 494.178049 
L 520.360511 503.077436 
L 500.052809 510.074852 
L 420.6172 536.233145 
L 399.315822 542.534677 
L 380.602823 547.444026 
L 354.325395 553.379201 
L 332.236894 557.53898 
L 309.41404 561.219385 
L 288.982372 564.019718 
L 270.724419 566.099999 
L 252.031825 567.940285 
L 228.992169 569.62063 
L 207.25674 570.820937 
" style="stroke:#ffffff;stroke-linejoin:miter;stroke-width:2;"/>
   </g>
  </g>
 </g>
 <defs>
  <clipPath id="pc3eb39abd1">
   <rect height="543.6" width="558" x="90" y="86.4"/>
  </clipPath>
 </defs>
</svg>
