<?xml version="1.0" encoding="utf-8" standalone="no"?>
<!DOCTYPE svg PUBLIC "-//W3C//DTD SVG 1.1//EN"
  "http://www.w3.org/Graphics/SVG/1.1/DTD/svg11.dtd">
<!-- Created with matplotlib (https://matplotlib.org/) -->
<svg height="720pt" version="1.1" viewBox="0 0 720 720" width="720pt" xmlns="http://www.w3.org/2000/svg" xmlns:xlink="http://www.w3.org/1999/xlink">
 <metadata>
  <rdf:RDF xmlns:cc="http://creativecommons.org/ns#" xmlns:dc="http://purl.org/dc/elements/1.1/" xmlns:rdf="http://www.w3.org/1999/02/22-rdf-syntax-ns#">
   <cc:Work>
    <dc:type rdf:resource="http://purl.org/dc/dcmitype/StillImage"/>
    <dc:date>2021-05-28T08:56:45.829314</dc:date>
    <dc:format>image/svg+xml</dc:format>
    <dc:creator>
     <cc:Agent>
      <dc:title>Matplotlib v3.3.3, https://matplotlib.org/</dc:title>
     </cc:Agent>
    </dc:creator>
   </cc:Work>
  </rdf:RDF>
 </metadata>
 <defs>
  <style type="text/css">*{stroke-linecap:butt;stroke-linejoin:round;}</style>
 </defs>
 <g id="figure_1">
  <g id="patch_1">
   <path d="M 0 720 
L 720 720 
L 720 0 
L 0 0 
z
" style="fill:none;"/>
  </g>
  <g id="axes_1">
   <g id="patch_2">
    <path clip-path="url(#p24c8d9dd26)" d="M 282.187836 201.946003 
L 284.1895 202.090963 
L 286.424653 201.960263 
L 288.626612 202.137307 
L 291.197177 202.816389 
L 293.399689 203.365881 
L 296.00266 203.737285 
L 298.272301 204.141183 
L 300.574812 204.561016 
L 303.044918 205.029554 
L 304.680089 205.304036 
L 306.615729 205.513814 
L 309.085215 206.014592 
L 311.221319 206.531905 
L 313.62472 207.097847 
L 314.825888 207.307871 
L 316.694785 207.582177 
L 319.297638 207.921034 
L 321.433398 208.130663 
L 323.167924 208.259241 
L 325.40395 208.42028 
L 327.872811 208.710728 
L 330.175442 208.968747 
L 332.411292 209.259055 
L 334.179487 209.469001 
L 336.115053 209.678468 
L 337.349325 209.775195 
L 338.817209 209.855433 
L 341.085788 209.935414 
L 343.588357 210.096255 
L 345.623584 210.273412 
L 348.126412 210.515007 
L 350.595649 210.740669 
L 352.630926 210.934139 
L 354.399025 211.095223 
L 356.968683 211.320812 
L 358.703151 211.43344 
L 361.305366 211.577934 
L 363.174387 211.69043 
L 364.942367 211.835271 
L 367.011337 212.077202 
L 369.080033 212.25466 
L 371.549381 212.49632 
L 374.051482 212.738244 
L 376.086805 212.947647 
L 377.765496 213.065461 
L 399.140241 244.416271 
L 412.788543 262.047705 
L 429.455763 279.309341 
L 455.944121 298.217631 
L 475.238956 310.88325 
L 490.759703 324.102999 
L 499.785357 333.862341 
L 504.567445 343.654192 
L 508.235411 354.585662 
L 509.927262 367.448178 
L 507.995363 383.52927 
L 498.438715 408.451621 
L 443.309666 522.869157 
L 401.71719 522.903179 
L 382.124266 523.424312 
L 349.222744 523.437302 
L 317.406901 523.45 
L 228.377562 523.486199 
L 228.072738 506.951165 
L 229.184187 491.003082 
L 228.327944 458.8609 
L 228.230901 455.216609 
L 228.668567 441.773702 
L 228.751717 410.896718 
L 229.391306 356.071219 
L 230.202889 348.84796 
L 231.048355 340.051962 
L 231.551775 319.685774 
L 231.191862 303.606264 
L 230.735846 238.041756 
L 229.827327 215.539723 
L 229.010668 206.160451 
L 228.983814 192.913801 
L 230.859175 193.208378 
L 233.095798 193.741898 
L 235.298691 194.178065 
L 236.867255 194.549963 
L 239.104313 195.196793 
L 241.373601 195.665146 
L 243.342988 195.971911 
L 245.712349 196.553815 
L 247.348526 196.909353 
L 249.884654 197.507376 
L 250.586184 197.669293 
L 253.088748 198.04044 
L 255.558865 198.525239 
L 258.128303 199.074724 
L 259.996848 199.235739 
L 262.566569 199.67163 
L 264.335969 200.043348 
L 266.905647 200.447004 
L 268.774125 200.608308 
L 271.242765 200.623318 
L 273.210639 200.67092 
L 275.345951 200.718394 
L 277.748368 200.976351 
L 279.91791 201.477318 
L 282.187836 201.946003 
" style="fill:#1a1a1a;stroke:#ffffff;stroke-linejoin:miter;stroke-width:4;"/>
   </g>
  </g>
 </g>
 <defs>
  <clipPath id="p24c8d9dd26">
   <rect height="543.6" width="558" x="90" y="86.4"/>
  </clipPath>
 </defs>
</svg>
