<?xml version="1.0" encoding="utf-8" standalone="no"?>
<!DOCTYPE svg PUBLIC "-//W3C//DTD SVG 1.1//EN"
  "http://www.w3.org/Graphics/SVG/1.1/DTD/svg11.dtd">
<!-- Created with matplotlib (https://matplotlib.org/) -->
<svg height="720pt" version="1.1" viewBox="0 0 720 720" width="720pt" xmlns="http://www.w3.org/2000/svg" xmlns:xlink="http://www.w3.org/1999/xlink">
 <metadata>
  <rdf:RDF xmlns:cc="http://creativecommons.org/ns#" xmlns:dc="http://purl.org/dc/elements/1.1/" xmlns:rdf="http://www.w3.org/1999/02/22-rdf-syntax-ns#">
   <cc:Work>
    <dc:type rdf:resource="http://purl.org/dc/dcmitype/StillImage"/>
    <dc:date>2021-05-28T08:56:53.630825</dc:date>
    <dc:format>image/svg+xml</dc:format>
    <dc:creator>
     <cc:Agent>
      <dc:title>Matplotlib v3.3.3, https://matplotlib.org/</dc:title>
     </cc:Agent>
    </dc:creator>
   </cc:Work>
  </rdf:RDF>
 </metadata>
 <defs>
  <style type="text/css">*{stroke-linecap:butt;stroke-linejoin:round;}</style>
 </defs>
 <g id="figure_1">
  <g id="patch_1">
   <path d="M 0 720 
L 720 720 
L 720 0 
L 0 0 
z
" style="fill:none;"/>
  </g>
  <g id="axes_1">
   <g id="patch_2">
    <path clip-path="url(#p58c9dc2c70)" d="M 248.112549 213.685556 
L 254.912967 213.81135 
L 264.342627 213.79692 
L 307.411577 213.783374 
L 321.948295 213.810506 
L 355.797658 213.836004 
L 380.271126 213.97804 
L 400.172057 213.947913 
L 442.199329 213.811876 
L 458.500914 213.904495 
L 492.931368 213.318211 
L 552.216258 213.372637 
L 553.253821 504.830738 
L 446.816507 505.071696 
L 398.626475 506.202284 
L 324.923151 505.366596 
L 238.379906 507.642656 
L 184.746179 507.710911 
L 185.139181 452.416793 
L 184.953169 421.257558 
L 185.721802 389.264394 
L 185.969566 371.099186 
L 186.17415 361.290549 
L 186.147817 344.029558 
L 186.350281 333.662012 
L 186.52226 300.399727 
L 186.370948 286.722789 
L 186.45276 282.735426 
L 186.536446 280.100892 
L 186.669173 277.658846 
L 187.200992 273.487038 
L 187.938031 269.605858 
L 189.372028 264.47803 
L 190.719776 260.097917 
L 191.832061 256.654303 
L 194.345438 250.463585 
L 196.535072 246.379383 
L 199.135825 241.959284 
L 202.490944 237.314816 
L 206.531205 231.998718 
L 210.778097 227.297527 
L 215.436708 222.651889 
L 222.6327 217.276992 
L 227.278758 213.351682 
L 232.23849 208.689089 
L 238.476005 211.584444 
L 243.092312 212.964855 
L 248.112549 213.685556 
" style="fill:#1a1a1a;stroke:#ffffff;stroke-linejoin:miter;stroke-width:4;"/>
   </g>
  </g>
 </g>
 <defs>
  <clipPath id="p58c9dc2c70">
   <rect height="543.6" width="558" x="90" y="86.4"/>
  </clipPath>
 </defs>
</svg>
