<?xml version="1.0" encoding="utf-8" standalone="no"?>
<!DOCTYPE svg PUBLIC "-//W3C//DTD SVG 1.1//EN"
  "http://www.w3.org/Graphics/SVG/1.1/DTD/svg11.dtd">
<!-- Created with matplotlib (https://matplotlib.org/) -->
<svg height="720pt" version="1.1" viewBox="0 0 720 720" width="720pt" xmlns="http://www.w3.org/2000/svg" xmlns:xlink="http://www.w3.org/1999/xlink">
 <metadata>
  <rdf:RDF xmlns:cc="http://creativecommons.org/ns#" xmlns:dc="http://purl.org/dc/elements/1.1/" xmlns:rdf="http://www.w3.org/1999/02/22-rdf-syntax-ns#">
   <cc:Work>
    <dc:type rdf:resource="http://purl.org/dc/dcmitype/StillImage"/>
    <dc:date>2021-05-07T11:03:00.987373</dc:date>
    <dc:format>image/svg+xml</dc:format>
    <dc:creator>
     <cc:Agent>
      <dc:title>Matplotlib v3.3.3, https://matplotlib.org/</dc:title>
     </cc:Agent>
    </dc:creator>
   </cc:Work>
  </rdf:RDF>
 </metadata>
 <defs>
  <style type="text/css">*{stroke-linecap:butt;stroke-linejoin:round;}</style>
 </defs>
 <g id="figure_1">
  <g id="patch_1">
   <path d="M 0 720 
L 720 720 
L 720 0 
L 0 0 
z
" style="fill:none;"/>
  </g>
  <g id="axes_1">
   <g id="patch_2">
    <path clip-path="url(#p53f3d589ea)" d="M 240.921662 168.423235 
L 242.281819 168.513023 
L 243.638482 168.381362 
L 245.016028 168.286505 
L 246.373168 168.179316 
L 247.588172 168.085376 
L 248.541502 168.091782 
L 249.82158 168.243693 
L 251.021579 168.457723 
L 252.545825 168.657302 
L 253.216157 168.7147 
L 254.617126 168.828918 
L 255.693295 168.895998 
L 257.256765 169.00906 
L 257.74371 169.042902 
L 259.41116 169.315514 
L 260.548984 169.443849 
L 261.849427 169.595717 
L 263.169284 169.698159 
L 264.711395 169.737592 
L 266.252553 169.727842 
L 267.408837 169.757303 
L 268.787852 169.74871 
L 270.08734 169.851155 
L 271.52464 169.69448 
L 272.964359 169.685334 
L 274.243441 169.775713 
L 275.44189 169.879003 
L 276.579234 169.982388 
L 278.14381 170.181956 
L 279.403991 170.35859 
L 280.928192 170.545849 
L 282.005385 170.699217 
L 282.696559 170.781044 
L 284.077593 170.907653 
L 285.622674 171.144293 
L 286.924102 171.357493 
L 288.509519 171.581514 
L 289.667267 171.697236 
L 291.147796 171.712498 
L 292.304477 171.74221 
L 293.666094 171.918273 
L 295.211725 172.191503 
L 296.716029 172.403747 
L 298.13732 172.505603 
L 299.700385 172.60657 
L 301.186853 172.991106 
L 302.598626 173.757798 
L 303.948703 174.47586 
L 304.947749 174.801812 
L 306.455533 175.235729 
L 307.924559 175.7928 
L 309.210046 176.277127 
L 310.392628 176.676067 
L 311.614441 176.976083 
L 313.096429 177.077633 
L 314.58087 177.326737 
L 315.902655 177.539901 
L 317.163259 177.741287 
L 318.750127 178.051333 
L 320.013738 178.437561 
L 321.237087 178.848306 
L 322.828936 179.478658 
L 324.176028 180.011863 
L 325.724571 180.457639 
L 327.18765 180.645449 
L 327.98033 180.751181 
L 331.157436 181.044429 
L 332.666046 181.492652 
L 334.030467 181.80635 
L 335.353962 182.05877 
L 336.677532 182.335687 
L 337.777381 182.588871 
L 339.182534 182.9025 
L 340.629448 183.289522 
L 342.035188 183.664451 
L 343.46217 184.064095 
L 344.848015 184.463763 
L 346.110913 184.765465 
L 347.129687 185.019204 
L 348.597039 185.43092 
L 350.166303 185.866483 
L 351.736116 186.351498 
L 353.039784 186.665514 
L 354.525888 186.929389 
L 355.565062 187.207603 
L 357.154652 187.631057 
L 358.519609 187.993682 
L 359.823275 188.295344 
L 360.982206 188.413246 
L 362.427968 188.689551 
L 363.976344 189.088582 
L 365.400239 189.266542 
L 366.946489 189.493284 
L 368.126735 189.660132 
L 369.4911 189.961487 
L 370.81418 190.213922 
L 371.241761 190.298026 
L 372.624844 190.451805 
L 373.94309 190.298166 
L 375.333406 189.418348 
L 375.932924 188.640695 
L 375.739329 187.755821 
L 375.890898 186.893869 
L 377.222164 186.162133 
L 378.537744 185.787093 
L 379.994001 185.313017 
L 381.431429 184.937357 
L 382.869916 184.660284 
L 383.965078 184.544721 
L 385.060558 184.428915 
L 386.602532 184.299042 
L 388.083405 184.15688 
L 389.442508 184.040054 
L 391.024194 183.836022 
L 392.402094 183.596092 
L 393.922679 183.392347 
L 395.465128 183.286948 
L 396.480826 183.319275 
L 397.701846 183.498178 
L 398.903121 183.751269 
L 400.268469 184.113935 
L 401.482695 183.764191 
L 402.819238 183.450412 
L 404.156881 183.222888 
L 405.698932 183.117495 
L 407.244087 183.245935 
L 408.675318 184.014587 
L 409.125347 184.258559 
L 410.30731 184.597664 
L 411.689409 184.689676 
L 413.087568 184.412904 
L 414.319066 183.816759 
L 415.552093 183.343673 
L 417.111963 183.041306 
L 418.491911 182.949182 
L 419.853022 182.967565 
L 421.213224 182.94912 
L 422.696141 182.96686 
L 424.138872 183.034363 
L 425.642631 183.076553 
L 427.164864 183.020643 
L 428.60752 183.06341 
L 429.969252 183.155428 
L 431.025688 183.175364 
L 432.184033 183.231749 
L 433.566098 183.299299 
L 435.06993 183.36623 
L 436.410747 183.409355 
L 437.915129 183.513358 
L 439.053179 183.594239 
L 440.375161 183.735999 
L 441.638003 184.013242 
L 443.102229 184.19119 
L 444.50677 184.443079 
L 445.872108 184.793649 
L 447.298183 185.1686 
L 448.642603 185.482366 
L 449.987061 185.796108 
L 451.312714 186.245312 
L 452.799416 186.595509 
L 453.876722 186.664371 
L 454.791527 186.734115 
L 456.380613 187.120521 
L 457.645046 187.545347 
L 459.154263 188.067525 
L 460.600078 188.368585 
L 461.821703 188.621409 
L 463.390924 189.057291 
L 464.674632 189.371348 
L 466.079822 189.697169 
L 467.404883 190.084838 
L 468.791156 190.509268 
L 470.157608 190.970574 
L 471.278881 191.322124 
L 472.665078 191.721867 
L 473.887715 192.048593 
L 474.886126 192.314749 
L 476.477342 192.898169 
L 477.924314 193.309696 
L 479.350805 193.697041 
L 480.389986 193.975269 
L 481.980073 194.435584 
L 483.161498 194.737911 
L 484.363689 195.039974 
L 485.54504 195.317564 
L 487.051979 195.630659 
L 488.315961 196.031026 
L 489.539211 196.419057 
L 491.028395 196.941295 
L 492.536421 197.353004 
L 493.901837 197.752778 
L 495.368548 198.090634 
L 496.854606 198.366952 
L 498.423258 198.753399 
L 499.951755 199.2017 
L 501.255959 199.552601 
L 502.72426 200.038014 
L 504.15128 200.474529 
L 505.313306 200.838427 
L 506.761236 201.323864 
L 508.330901 201.772124 
L 509.430771 202.050053 
L 510.917365 202.375561 
L 512.261786 202.701709 
L 513.627045 203.052282 
L 515.216638 203.488142 
L 516.378186 203.82733 
L 517.78523 204.263898 
L 519.254061 204.798503 
L 520.844769 205.357206 
L 522.190783 205.80644 
L 523.477141 206.354327 
L 524.843444 206.790941 
L 526.088014 207.252861 
L 527.353566 207.788416 
L 528.558379 208.311945 
L 529.805047 208.946134 
L 531.071068 209.506427 
L 532.664335 210.261874 
L 534.115902 211.042672 
L 535.526082 211.737744 
L 536.42462 212.139491 
L 537.795728 212.994518 
L 538.77997 213.752802 
L 539.96965 214.71948 
L 541.219388 215.574881 
L 542.610273 216.380704 
L 543.714757 217.015559 
L 545.22379 217.513061 
L 546.450616 218.196462 
L 547.839979 218.879229 
L 549.231402 219.72164 
L 550.786445 220.662004 
L 552.076896 221.542104 
L 553.182925 222.299778 
L 554.572893 223.056179 
L 555.982034 223.677362 
L 557.246908 224.126939 
L 558.205627 224.491775 
L 559.286582 224.868135 
L 560.469376 225.232005 
L 561.936646 225.655927 
L 563.262181 226.092843 
L 563.911554 226.23704 
L 564.003394 256.69321 
L 563.974929 269.58342 
L 563.934944 287.415011 
L 563.913616 296.869011 
L 563.865916 318.308483 
L 561.858291 318.306748 
L 561.909653 321.65703 
L 561.835203 346.475073 
L 561.76805 382.240436 
L 563.723694 382.239246 
L 563.56059 451.96975 
L 563.55793 456.840498 
L 559.535332 456.848523 
L 541.571636 456.872358 
L 541.589492 454.36801 
L 510.288679 454.409232 
L 398.810515 454.55874 
L 398.789139 468.397121 
L 398.770508 480.478569 
L 399.011038 500.50848 
L 398.961117 549.143836 
L 373.74223 549.037993 
L 364.477739 548.646492 
L 356.093665 547.651128 
L 347.596387 545.718096 
L 340.308017 542.443988 
L 334.563079 539.034156 
L 330.250482 535.220794 
L 325.711727 529.599057 
L 323.488349 523.840705 
L 315.879292 495.224482 
L 313.664117 491.479259 
L 309.414693 485.487672 
L 303.934181 480.461214 
L 297.396862 475.757205 
L 290.158538 472.392506 
L 270.037165 464.598874 
L 238.072378 452.159399 
L 213.965865 443.309932 
L 189.456516 435.969014 
L 173.996606 431.653052 
L 175.058602 430.40792 
L 177.787631 427.090678 
L 186.408807 418.251931 
L 186.530637 405.681396 
L 186.66507 394.803351 
L 186.812197 382.899938 
L 186.775202 371.307749 
L 186.725828 355.820589 
L 186.818064 347.278872 
L 186.646329 330.890388 
L 187.011544 316.554987 
L 187.276124 306.17439 
L 186.573488 295.197272 
L 186.498717 284.468951 
L 186.609469 273.287885 
L 186.696435 264.508394 
L 186.635431 259.420002 
L 200.373239 259.45992 
L 217.395574 259.494526 
L 237.221597 259.591303 
L 237.289063 256.220513 
L 237.218121 234.796663 
L 237.204279 213.586307 
L 237.177233 172.189864 
L 236.982408 167.256164 
L 238.253151 167.701375 
L 239.577461 168.074661 
L 240.921662 168.423235 
" style="stroke:#ffffff;stroke-linejoin:miter;stroke-width:2;"/>
   </g>
  </g>
 </g>
 <defs>
  <clipPath id="p53f3d589ea">
   <rect height="543.6" width="558" x="90" y="86.4"/>
  </clipPath>
 </defs>
</svg>
