<?xml version="1.0" encoding="utf-8" standalone="no"?>
<!DOCTYPE svg PUBLIC "-//W3C//DTD SVG 1.1//EN"
  "http://www.w3.org/Graphics/SVG/1.1/DTD/svg11.dtd">
<!-- Created with matplotlib (https://matplotlib.org/) -->
<svg height="720pt" version="1.1" viewBox="0 0 720 720" width="720pt" xmlns="http://www.w3.org/2000/svg" xmlns:xlink="http://www.w3.org/1999/xlink">
 <metadata>
  <rdf:RDF xmlns:cc="http://creativecommons.org/ns#" xmlns:dc="http://purl.org/dc/elements/1.1/" xmlns:rdf="http://www.w3.org/1999/02/22-rdf-syntax-ns#">
   <cc:Work>
    <dc:type rdf:resource="http://purl.org/dc/dcmitype/StillImage"/>
    <dc:date>2021-05-07T11:03:00.376310</dc:date>
    <dc:format>image/svg+xml</dc:format>
    <dc:creator>
     <cc:Agent>
      <dc:title>Matplotlib v3.3.3, https://matplotlib.org/</dc:title>
     </cc:Agent>
    </dc:creator>
   </cc:Work>
  </rdf:RDF>
 </metadata>
 <defs>
  <style type="text/css">*{stroke-linecap:butt;stroke-linejoin:round;}</style>
 </defs>
 <g id="figure_1">
  <g id="patch_1">
   <path d="M 0 720 
L 720 720 
L 720 0 
L 0 0 
z
" style="fill:none;"/>
  </g>
  <g id="axes_1">
   <g id="patch_2">
    <path clip-path="url(#p1f58e37490)" d="M 490.232502 176.005937 
L 490.233019 180.032267 
L 490.237177 219.061427 
L 495.344067 226.303474 
L 508.102524 235.166732 
L 518.212498 242.190206 
L 529.116882 249.719553 
L 539.234848 256.706025 
L 550.433755 263.438472 
L 550.673883 263.582847 
L 554.330499 264.486091 
L 562.888202 266.490519 
L 570.344396 266.588353 
L 590.766652 266.561955 
L 590.770253 278.473591 
L 590.772749 288.988089 
L 590.741114 316.202641 
L 590.70948 343.417197 
L 590.377133 417.866758 
L 590.445924 485.395093 
L 590.501897 540.333186 
L 567.952307 540.30329 
L 547.221764 540.286172 
L 533.766871 540.271412 
L 417.885547 540.240604 
L 381.810064 540.223311 
L 339.429464 540.196621 
L 301.26646 540.186588 
L 277.057356 540.166457 
L 260.555837 540.290416 
L 248.403207 540.408555 
L 235.802184 539.900402 
L 232.563169 539.86958 
L 216.152085 539.319069 
L 200.21107 538.442529 
L 195.765604 537.91744 
L 147.730929 535.417531 
L 147.72669 516.801937 
L 147.735647 484.376383 
L 147.227251 457.346961 
L 147.22944 448.67434 
L 390.26033 208.485889 
L 423.161022 175.991445 
L 429.035455 175.992591 
L 437.987608 176.057268 
L 456.845113 175.998499 
L 465.527542 176.000402 
L 490.232502 176.005937 
" style="stroke:#ffffff;stroke-linejoin:miter;stroke-width:2;"/>
   </g>
  </g>
 </g>
 <defs>
  <clipPath id="p1f58e37490">
   <rect height="543.6" width="558" x="90" y="86.4"/>
  </clipPath>
 </defs>
</svg>
