<?xml version="1.0" encoding="utf-8" standalone="no"?>
<!DOCTYPE svg PUBLIC "-//W3C//DTD SVG 1.1//EN"
  "http://www.w3.org/Graphics/SVG/1.1/DTD/svg11.dtd">
<!-- Created with matplotlib (https://matplotlib.org/) -->
<svg height="720pt" version="1.1" viewBox="0 0 720 720" width="720pt" xmlns="http://www.w3.org/2000/svg" xmlns:xlink="http://www.w3.org/1999/xlink">
 <metadata>
  <rdf:RDF xmlns:cc="http://creativecommons.org/ns#" xmlns:dc="http://purl.org/dc/elements/1.1/" xmlns:rdf="http://www.w3.org/1999/02/22-rdf-syntax-ns#">
   <cc:Work>
    <dc:type rdf:resource="http://purl.org/dc/dcmitype/StillImage"/>
    <dc:date>2021-05-07T11:03:01.119117</dc:date>
    <dc:format>image/svg+xml</dc:format>
    <dc:creator>
     <cc:Agent>
      <dc:title>Matplotlib v3.3.3, https://matplotlib.org/</dc:title>
     </cc:Agent>
    </dc:creator>
   </cc:Work>
  </rdf:RDF>
 </metadata>
 <defs>
  <style type="text/css">*{stroke-linecap:butt;stroke-linejoin:round;}</style>
 </defs>
 <g id="figure_1">
  <g id="patch_1">
   <path d="M 0 720 
L 720 720 
L 720 0 
L 0 0 
z
" style="fill:none;"/>
  </g>
  <g id="axes_1">
   <g id="patch_2">
    <path clip-path="url(#p9c4b95250f)" d="M 425.907546 213.90763 
L 432.245178 217.55755 
L 438.334738 215.770038 
L 438.336022 215.769669 
L 439.745168 215.438186 
L 441.171789 215.266372 
L 442.604776 215.255561 
L 444.03291 215.405843 
L 445.445033 215.716038 
L 446.830117 216.183722 
L 448.177339 216.805264 
L 449.476185 217.575768 
L 449.482045 217.57983 
L 449.482575 217.579973 
L 450.386984 218.228149 
L 451.25697 218.948645 
L 452.088954 219.738503 
L 453.71214 221.485376 
L 455.254508 223.347073 
L 456.711081 225.317546 
L 458.077104 227.390385 
L 459.348146 229.558889 
L 459.968828 230.719444 
L 460.156758 231.087681 
L 460.988544 232.656831 
L 461.868917 234.18246 
L 463.18212 236.239587 
L 464.18014 237.660637 
L 465.222185 239.029529 
L 466.3066 240.344036 
L 467.821454 242.013148 
L 469.373626 243.548716 
L 470.987235 244.978042 
L 472.729519 246.349549 
L 474.528371 247.597167 
L 476.378348 248.717098 
L 478.273896 249.705976 
L 480.209251 250.560801 
L 482.178588 251.279002 
L 484.175952 251.858418 
L 486.195306 252.297273 
L 488.230552 252.594265 
L 492.394417 253.05312 
L 496.064816 253.460522 
L 503.319503 254.263501 
L 505.021093 254.533803 
L 506.702088 254.965084 
L 508.353066 255.554957 
L 509.964826 256.300137 
L 511.528348 257.19642 
L 513.034912 258.238846 
L 514.476107 259.421554 
L 515.843855 260.737969 
L 517.130546 262.180721 
L 517.35327 262.450571 
L 518.00127 263.28636 
L 518.914949 264.57797 
L 519.770685 265.932368 
L 520.569676 265.16393 
L 536.616192 265.005174 
L 548.817044 270.621319 
L 552.041759 272.103894 
L 552.026695 284.994488 
L 552.010804 298.656887 
L 552.002786 305.518731 
L 551.991614 307.87376 
L 551.953291 310.75159 
L 526.221571 304.068142 
L 528.735469 306.343162 
L 530.795139 307.673514 
L 532.797959 309.137732 
L 534.738566 310.731915 
L 536.611742 312.451794 
L 538.412493 314.292736 
L 540.135988 316.249836 
L 541.777601 318.317827 
L 543.332935 320.491174 
L 544.797829 322.764054 
L 546.168351 325.130381 
L 547.440824 327.583803 
L 548.611844 330.117762 
L 549.626868 332.591849 
L 550.545186 335.126409 
L 551.36455 337.715354 
L 552.082985 340.352393 
L 552.698771 343.031192 
L 553.210433 345.745255 
L 553.6167 348.488046 
L 553.916609 351.252925 
L 554.127111 354.104441 
L 554.251346 356.964145 
L 554.289138 359.827807 
L 554.183316 404.75694 
L 553.286981 444.066455 
L 549.299715 486.902797 
L 561.892017 486.927217 
L 567.391454 497.690535 
L 591.355234 523.167273 
L 610.648714 525.191411 
L 611.00739 527.681646 
L 611.90617 533.008378 
L 612.948296 538.292593 
L 614.132512 543.528079 
L 602.259028 559.864155 
L 588.460657 560.376854 
L 571.737518 560.662572 
L 535.076903 560.482148 
L 518.360843 560.167231 
L 486.168876 560.96354 
L 478.944372 561.096834 
L 471.479681 561.122265 
L 461.575521 561.08137 
L 454.768426 561.085196 
L 446.876342 561.128495 
L 440.526737 561.136024 
L 431.437326 561.144504 
L 425.003475 561.148414 
L 415.750676 561.150696 
L 414.961849 561.164837 
L 410.824616 561.132902 
L 406.902145 561.169948 
L 398.840275 561.175344 
L 394.488321 561.178198 
L 388.91954 561.181893 
L 379.881679 561.170442 
L 366.985608 561.179746 
L 363.564186 561.199417 
L 357.451419 561.221027 
L 350.691985 561.22727 
L 345.395202 561.213874 
L 340.241594 561.252225 
L 334.287212 561.249745 
L 274.274262 561.82574 
L 235.250385 561.283172 
L 212.081073 561.771203 
L 177.49396 449.1855 
L 132.982371 309.079995 
L 123.867488 278.912294 
L 184.387073 248.654006 
L 188.969594 246.715027 
L 193.170489 245.329167 
L 197.371542 244.219683 
L 202.489578 243.477837 
L 291.155574 243.345707 
L 297.459864 243.351435 
L 297.457891 239.42588 
L 297.467274 235.3207 
L 297.478859 230.255622 
L 297.49388 223.679376 
L 297.512738 215.428118 
L 297.518272 213.005939 
L 310.929881 208.053616 
L 320.278695 195.652203 
L 326.689543 195.237467 
L 332.2991 194.874677 
L 333.785719 194.774495 
L 334.984358 194.661825 
L 336.401225 194.47931 
L 337.717206 194.263859 
L 339.130338 193.984394 
L 340.522677 193.657879 
L 341.936356 193.273617 
L 343.387119 192.823262 
L 344.717485 192.358534 
L 345.927269 191.892672 
L 347.214054 191.352107 
L 348.484512 190.770248 
L 349.694303 190.169089 
L 351.033968 189.449878 
L 352.250489 188.747164 
L 353.523478 187.958363 
L 354.859782 187.067944 
L 356.026859 186.236403 
L 357.202949 185.345368 
L 358.461303 184.330025 
L 359.848318 183.132709 
L 361.089636 181.986737 
L 362.343535 180.752605 
L 363.535564 179.50283 
L 364.482228 178.454867 
L 365.27382 177.537315 
L 366.329684 176.248722 
L 367.330713 174.955696 
L 368.011482 174.033913 
L 368.631917 173.161388 
L 369.240772 172.273203 
L 370.150108 170.883164 
L 371.90546 168.183544 
L 373.067825 166.460396 
L 374.194935 164.836479 
L 375.532554 162.964529 
L 376.68498 161.398455 
L 378.420764 159.117036 
L 380.241885 156.818199 
L 381.094422 155.773716 
L 381.783152 154.944182 
L 382.093649 154.57426 
L 385.700072 155.821431 
L 397.7186 182.541985 
L 404.381642 189.955809 
L 405.021797 190.667709 
L 409.370463 195.503637 
L 413.718928 200.339593 
L 417.874167 204.960577 
L 422.36837 209.964431 
L 425.907546 213.90763 
" style="stroke:#ffffff;stroke-linejoin:miter;stroke-width:2;"/>
   </g>
  </g>
 </g>
 <defs>
  <clipPath id="p9c4b95250f">
   <rect height="543.6" width="558" x="90" y="86.4"/>
  </clipPath>
 </defs>
</svg>
