<?xml version="1.0" encoding="utf-8" standalone="no"?>
<!DOCTYPE svg PUBLIC "-//W3C//DTD SVG 1.1//EN"
  "http://www.w3.org/Graphics/SVG/1.1/DTD/svg11.dtd">
<!-- Created with matplotlib (https://matplotlib.org/) -->
<svg height="720pt" version="1.1" viewBox="0 0 720 720" width="720pt" xmlns="http://www.w3.org/2000/svg" xmlns:xlink="http://www.w3.org/1999/xlink">
 <metadata>
  <rdf:RDF xmlns:cc="http://creativecommons.org/ns#" xmlns:dc="http://purl.org/dc/elements/1.1/" xmlns:rdf="http://www.w3.org/1999/02/22-rdf-syntax-ns#">
   <cc:Work>
    <dc:type rdf:resource="http://purl.org/dc/dcmitype/StillImage"/>
    <dc:date>2021-05-28T08:56:50.733882</dc:date>
    <dc:format>image/svg+xml</dc:format>
    <dc:creator>
     <cc:Agent>
      <dc:title>Matplotlib v3.3.3, https://matplotlib.org/</dc:title>
     </cc:Agent>
    </dc:creator>
   </cc:Work>
  </rdf:RDF>
 </metadata>
 <defs>
  <style type="text/css">*{stroke-linecap:butt;stroke-linejoin:round;}</style>
 </defs>
 <g id="figure_1">
  <g id="patch_1">
   <path d="M 0 720 
L 720 720 
L 720 0 
L 0 0 
z
" style="fill:none;"/>
  </g>
  <g id="axes_1">
   <g id="patch_2">
    <path clip-path="url(#p14647414b9)" d="M 467.384632 175.041659 
L 472.5539 175.218596 
L 473.745832 175.215255 
L 480.079449 175.028387 
L 487.414895 174.357446 
L 492.778267 173.569095 
L 500.026609 172.094751 
L 506.938679 170.236859 
L 515.974179 167.128534 
L 520.242552 165.759432 
L 524.589949 164.65596 
L 527.046143 164.256822 
L 528.73073 163.823295 
L 539.362315 162.772549 
L 549.997879 163.356832 
L 561.798419 165.981748 
L 572.636556 170.448686 
L 582.124573 176.34988 
L 593.74824 185.615504 
L 598.305464 189.222631 
L 607.769287 196.270277 
L 614.73008 202.34182 
L 615.664121 203.086456 
L 615.632845 203.129276 
L 609.367503 211.709618 
L 604.413045 219.13194 
L 600.435921 226.20708 
L 596.623698 234.057214 
L 593.706667 241.301914 
L 590.631976 250.787056 
L 585.053722 269.928201 
L 582.304418 279.067893 
L 580.60523 284.241702 
L 578.660745 289.071544 
L 576.14764 294.678299 
L 573.957667 299.078025 
L 571.036318 304.341279 
L 566.24656 312.108028 
L 508.957855 401.898105 
L 480.325608 446.783036 
L 480.320393 446.791208 
L 468.052189 465.876293 
L 459.984536 478.427336 
L 440.183635 509.234099 
L 434.125569 518.816492 
L 398.189395 575.664387 
L 398.187969 575.666622 
L 398.174627 575.657282 
L 321.990047 522.313409 
L 300.667191 507.565398 
L 166.390877 414.718711 
L 122.653691 384.485864 
L 122.335879 384.261735 
L 122.40884 384.12926 
L 129.308602 373.402434 
L 138.624122 358.92044 
L 153.650335 341.640803 
L 173.153246 322.193228 
L 190.226842 307.923198 
L 206.49212 295.809967 
L 226.831642 283.253553 
L 298.034678 242.971979 
L 316.340388 230.854947 
L 330.975421 217.457021 
L 344.387172 203.632238 
L 354.134902 191.110874 
L 365.497215 172.554059 
L 383.079297 140.733378 
L 397.625601 149.449821 
L 399.905901 150.784185 
L 402.5377 152.393356 
L 414.172852 159.365844 
L 415.479603 160.100333 
L 416.866689 160.861016 
L 417.294346 161.089041 
L 426.058431 165.342805 
L 429.422445 166.755103 
L 429.423077 166.755362 
L 433.100628 168.158215 
L 435.579383 169.02617 
L 443.371237 171.380148 
L 448.422807 172.535377 
L 455.570887 173.833717 
L 458.502199 174.297297 
L 467.384632 175.041659 
" style="fill:#1a1a1a;stroke:#ffffff;stroke-linejoin:miter;stroke-width:4;"/>
   </g>
  </g>
 </g>
 <defs>
  <clipPath id="p14647414b9">
   <rect height="543.6" width="558" x="90" y="86.4"/>
  </clipPath>
 </defs>
</svg>
