<?xml version="1.0" encoding="utf-8" standalone="no"?>
<!DOCTYPE svg PUBLIC "-//W3C//DTD SVG 1.1//EN"
  "http://www.w3.org/Graphics/SVG/1.1/DTD/svg11.dtd">
<!-- Created with matplotlib (https://matplotlib.org/) -->
<svg height="720pt" version="1.1" viewBox="0 0 720 720" width="720pt" xmlns="http://www.w3.org/2000/svg" xmlns:xlink="http://www.w3.org/1999/xlink">
 <metadata>
  <rdf:RDF xmlns:cc="http://creativecommons.org/ns#" xmlns:dc="http://purl.org/dc/elements/1.1/" xmlns:rdf="http://www.w3.org/1999/02/22-rdf-syntax-ns#">
   <cc:Work>
    <dc:type rdf:resource="http://purl.org/dc/dcmitype/StillImage"/>
    <dc:date>2021-05-28T08:56:53.310612</dc:date>
    <dc:format>image/svg+xml</dc:format>
    <dc:creator>
     <cc:Agent>
      <dc:title>Matplotlib v3.3.3, https://matplotlib.org/</dc:title>
     </cc:Agent>
    </dc:creator>
   </cc:Work>
  </rdf:RDF>
 </metadata>
 <defs>
  <style type="text/css">*{stroke-linecap:butt;stroke-linejoin:round;}</style>
 </defs>
 <g id="figure_1">
  <g id="patch_1">
   <path d="M 0 720 
L 720 720 
L 720 0 
L 0 0 
z
" style="fill:none;"/>
  </g>
  <g id="axes_1">
   <g id="patch_2">
    <path clip-path="url(#p60fd8955d1)" d="M 340.935951 145.087148 
L 362.886757 146.086867 
L 599.145935 145.599151 
L 599.34911 196.969653 
L 600.659417 207.022093 
L 604.34144 224.057359 
L 609.373582 249.752868 
L 610.691544 284.336047 
L 610.906397 429.428847 
L 611.07268 530.320764 
L 612.848428 571.312852 
L 342.344792 570.99328 
L 340.085395 570.974561 
L 298.218587 570.62872 
L 297.64325 570.629239 
L 297.039628 570.641058 
L 296.546288 570.659313 
L 296.138972 570.680219 
L 295.245955 570.744556 
L 294.571165 570.810105 
L 292.602237 570.998842 
L 290.777384 571.131215 
L 289.182326 571.213584 
L 287.3046 571.270785 
L 285.034636 571.282614 
L 283.817504 571.263138 
L 282.60615 571.225837 
L 280.313099 571.106234 
L 278.313243 570.9494 
L 274.813966 570.591932 
L 271.175357 570.134862 
L 266.628324 569.44027 
L 263.13066 568.811722 
L 259.771847 568.130045 
L 256.081443 567.291754 
L 252.260717 566.323853 
L 248.204074 565.1829 
L 246.152714 564.608207 
L 243.980926 564.068865 
L 242.014271 563.640561 
L 240.419898 563.334609 
L 238.430197 563.003968 
L 236.305147 562.712817 
L 234.530835 562.518269 
L 232.496142 562.349135 
L 230.89782 562.270434 
L 229.350339 562.254318 
L 227.673333 562.303513 
L 226.36928 562.389829 
L 224.603878 562.574142 
L 223.040602 562.802846 
L 221.408143 563.108382 
L 220.310525 563.352849 
L 193.392236 568.394446 
L 193.229474 567.77384 
L 192.870424 566.404709 
L 189.239831 551.26154 
L 184.912682 524.730883 
L 183.563516 504.517513 
L 183.579486 482.864758 
L 183.429034 455.674876 
L 183.440421 440.234355 
L 183.283768 421.417473 
L 182.447973 398.548594 
L 180.670362 380.900826 
L 178.549423 366.223831 
L 175.220441 346.169806 
L 169.543774 320.795288 
L 165.835474 307.422521 
L 159.879819 288.420992 
L 148.473234 259.286614 
L 143.280453 246.002844 
L 139.620498 235.736369 
L 135.281416 220.78771 
L 131.708495 207.685323 
L 126.117193 185.981413 
L 125.151572 181.899832 
L 139.856916 177.432998 
L 153.611879 173.814281 
L 170.620438 169.500441 
L 188.343552 164.768758 
L 198.660112 161.985513 
L 205.934514 160.176948 
L 215.060605 157.95127 
L 224.979929 156.005571 
L 248.12526 151.419535 
L 262.647098 148.920082 
L 274.020788 147.534668 
L 291.609763 146.155336 
L 306.553385 145.471777 
L 319.644684 145.198252 
L 340.935951 145.087148 
" style="fill:#1a1a1a;stroke:#ffffff;stroke-linejoin:miter;stroke-width:4;"/>
   </g>
  </g>
 </g>
 <defs>
  <clipPath id="p60fd8955d1">
   <rect height="543.6" width="558" x="90" y="86.4"/>
  </clipPath>
 </defs>
</svg>
