<?xml version="1.0" encoding="utf-8" standalone="no"?>
<!DOCTYPE svg PUBLIC "-//W3C//DTD SVG 1.1//EN"
  "http://www.w3.org/Graphics/SVG/1.1/DTD/svg11.dtd">
<!-- Created with matplotlib (https://matplotlib.org/) -->
<svg height="720pt" version="1.1" viewBox="0 0 720 720" width="720pt" xmlns="http://www.w3.org/2000/svg" xmlns:xlink="http://www.w3.org/1999/xlink">
 <metadata>
  <rdf:RDF xmlns:cc="http://creativecommons.org/ns#" xmlns:dc="http://purl.org/dc/elements/1.1/" xmlns:rdf="http://www.w3.org/1999/02/22-rdf-syntax-ns#">
   <cc:Work>
    <dc:type rdf:resource="http://purl.org/dc/dcmitype/StillImage"/>
    <dc:date>2021-05-07T11:03:04.758691</dc:date>
    <dc:format>image/svg+xml</dc:format>
    <dc:creator>
     <cc:Agent>
      <dc:title>Matplotlib v3.3.3, https://matplotlib.org/</dc:title>
     </cc:Agent>
    </dc:creator>
   </cc:Work>
  </rdf:RDF>
 </metadata>
 <defs>
  <style type="text/css">*{stroke-linecap:butt;stroke-linejoin:round;}</style>
 </defs>
 <g id="figure_1">
  <g id="patch_1">
   <path d="M 0 720 
L 720 720 
L 720 0 
L 0 0 
z
" style="fill:none;"/>
  </g>
  <g id="axes_1">
   <g id="patch_2">
    <path clip-path="url(#p1e86720c0f)" d="M 147.567847 374.559369 
L 147.521017 293.723778 
L 186.137227 293.796793 
L 186.198844 278.524848 
L 210.902377 278.48728 
L 210.866 262.743174 
L 147.503201 262.959646 
L 147.464258 199.15627 
L 215.040783 199.040225 
L 277.910369 198.936214 
L 346.698766 198.934667 
L 362.329633 198.8351 
L 372.796691 197.780103 
L 381.386004 196.167765 
L 389.776221 193.835701 
L 398.066355 190.86375 
L 405.368505 187.733213 
L 413.950915 182.840773 
L 422.747421 176.813175 
L 441.106491 160.23612 
L 447.476738 167.164495 
L 458.186268 180.766605 
L 470.701812 197.906696 
L 480.785927 213.69575 
L 507.503805 257.108093 
L 539.784911 310.117008 
L 544.19144 316.636459 
L 549.618206 323.34461 
L 561.963146 340.076409 
L 565.754916 345.341545 
L 568.656523 350.127908 
L 572.009211 355.538532 
L 576.010648 364.02026 
L 579.368358 371.982179 
L 581.018036 377.473121 
L 587.165671 398.864772 
L 588.97745 408.409229 
L 589.934576 418.977502 
L 590.535742 430.155109 
L 590.431463 456.742675 
L 590.170797 504.803494 
L 589.485917 556.16388 
L 578.788877 555.924179 
L 566.931551 555.01305 
L 553.924116 552.713548 
L 531.4449 547.260777 
L 502.738572 538.605485 
L 455.902223 469.491496 
L 427.880741 427.634303 
L 390.334358 373.408532 
L 376.153032 374.18418 
L 147.567847 374.559369 
" style="stroke:#ffffff;stroke-linejoin:miter;stroke-width:2;"/>
   </g>
  </g>
 </g>
 <defs>
  <clipPath id="p1e86720c0f">
   <rect height="543.6" width="558" x="90" y="86.4"/>
  </clipPath>
 </defs>
</svg>
