<?xml version="1.0" encoding="utf-8" standalone="no"?>
<!DOCTYPE svg PUBLIC "-//W3C//DTD SVG 1.1//EN"
  "http://www.w3.org/Graphics/SVG/1.1/DTD/svg11.dtd">
<!-- Created with matplotlib (https://matplotlib.org/) -->
<svg height="720pt" version="1.1" viewBox="0 0 720 720" width="720pt" xmlns="http://www.w3.org/2000/svg" xmlns:xlink="http://www.w3.org/1999/xlink">
 <metadata>
  <rdf:RDF xmlns:cc="http://creativecommons.org/ns#" xmlns:dc="http://purl.org/dc/elements/1.1/" xmlns:rdf="http://www.w3.org/1999/02/22-rdf-syntax-ns#">
   <cc:Work>
    <dc:type rdf:resource="http://purl.org/dc/dcmitype/StillImage"/>
    <dc:date>2021-05-07T11:03:05.135294</dc:date>
    <dc:format>image/svg+xml</dc:format>
    <dc:creator>
     <cc:Agent>
      <dc:title>Matplotlib v3.3.3, https://matplotlib.org/</dc:title>
     </cc:Agent>
    </dc:creator>
   </cc:Work>
  </rdf:RDF>
 </metadata>
 <defs>
  <style type="text/css">*{stroke-linecap:butt;stroke-linejoin:round;}</style>
 </defs>
 <g id="figure_1">
  <g id="patch_1">
   <path d="M 0 720 
L 720 720 
L 720 0 
L 0 0 
z
" style="fill:none;"/>
  </g>
  <g id="axes_1">
   <g id="patch_2">
    <path clip-path="url(#p81976ad1c5)" d="M 607.970097 342.492525 
L 607.361533 372.312135 
L 607.353654 410.980552 
L 607.34551 449.649465 
L 607.33668 490.371813 
L 608.065017 512.217309 
L 607.875597 530.682341 
L 541.031513 530.560536 
L 504.466071 530.702627 
L 455.57585 530.986188 
L 445.671254 531.220991 
L 436.862465 532.884796 
L 422.586094 537.692587 
L 411.249096 541.672512 
L 396.996293 546.651495 
L 384.379192 548.927506 
L 368.491075 549.780886 
L 328.887674 551.204371 
L 299.208259 550.832995 
L 250.638959 552.380166 
L 238.685316 552.940826 
L 229.103965 552.486537 
L 221.244167 551.30276 
L 179.595959 540.356275 
L 179.841969 539.777155 
L 180.122943 538.967761 
L 180.278822 538.064182 
L 180.309084 537.242352 
L 180.2524 536.443864 
L 180.176366 535.586728 
L 180.274355 534.671385 
L 180.401212 533.755782 
L 180.508351 533.098599 
L 180.576975 532.417849 
L 180.635726 531.84286 
L 180.646436 531.126793 
L 180.68638 530.31676 
L 180.687763 529.436285 
L 180.698483 528.661589 
L 180.699011 528.39165 
L 180.700046 527.710684 
L 180.836207 526.936167 
L 181.165608 526.150316 
L 181.658992 525.306006 
L 182.181582 524.426614 
L 182.510598 523.722945 
L 182.791794 522.960427 
L 183.091952 522.198135 
L 183.421348 521.365178 
L 183.692665 520.661315 
L 183.993204 519.781465 
L 184.235483 519.089385 
L 184.55538 518.186232 
L 184.903948 517.470807 
L 185.397324 516.661829 
L 185.996821 515.841282 
L 186.702789 514.950538 
L 187.302087 514.188645 
L 187.911447 513.309469 
L 188.472582 512.453834 
L 188.956305 511.668183 
L 189.372256 510.929422 
L 189.720842 510.178899 
L 190.146843 509.369708 
L 190.582349 508.525416 
L 191.00799 507.845306 
L 191.472366 507.130321 
L 192.091213 506.309798 
L 192.690375 505.735873 
L 193.444377 504.985982 
L 194.053207 504.318305 
L 194.671721 503.803052 
L 195.28021 503.405084 
L 195.908233 503.019119 
L 196.535885 502.691599 
L 197.221614 502.329177 
L 197.792459 501.461539 
L 198.150717 500.593736 
L 198.605755 499.690793 
L 198.954342 498.881391 
L 199.254706 498.118852 
L 199.564588 497.41524 
L 199.971239 496.606035 
L 200.387407 495.843981 
L 200.716653 495.151865 
L 201.036191 494.401376 
L 201.307875 493.48621 
L 201.608434 492.60639 
L 201.908809 491.76167 
L 202.141783 490.916963 
L 202.36509 490.036928 
L 208.400235 482.671553 
L 209.046134 482.425068 
L 209.528164 481.556092 
L 209.692084 480.804667 
L 209.913869 479.982594 
L 210.24158 479.090303 
L 210.752458 478.327082 
L 211.504417 477.552039 
L 212.246727 477.023823 
L 212.796182 476.601171 
L 213.17231 475.802646 
L 213.914586 474.980732 
L 214.251971 474.15887 
L 214.454426 473.395685 
L 214.647187 472.52672 
L 215.013616 471.704645 
L 215.495651 470.812328 
L 216.180038 469.990426 
L 216.565655 469.297637 
L 216.999487 468.463982 
L 217.230834 468.006061 
L 217.67434 467.266386 
L 218.243126 466.385855 
L 218.975726 465.528618 
L 219.689164 464.894655 
L 220.373592 464.366248 
L 220.980966 463.920292 
L 221.578635 463.427209 
L 222.176315 463.027877 
L 222.831909 462.62879 
L 223.516356 462.241474 
L 224.133204 461.795265 
L 224.692334 461.220008 
L 225.16471 460.409904 
L 225.396218 459.670039 
L 225.444343 458.906884 
L 225.444453 458.0495 
L 225.44457 457.251 
L 225.396457 456.476084 
L 225.222881 455.583631 
L 225.088043 454.99644 
L 224.904796 454.186194 
L 224.750578 453.434595 
L 224.567515 452.58902 
L 224.307387 451.743458 
L 224.066419 450.968321 
L 223.806103 450.310723 
L 223.468722 449.500481 
L 223.006051 448.607848 
L 222.784469 448.056002 
L 222.40854 447.292666 
L 222.10968 446.552616 
L 221.72408 445.718854 
L 221.357848 444.943717 
L 221.039807 444.133496 
L 220.702396 443.264395 
L 220.403555 442.548153 
L 220.172265 441.784792 
L 219.960349 440.974553 
L 219.719359 440.05856 
L 219.545781 439.201208 
L 219.420599 438.285194 
L 219.353134 437.627563 
L 219.141005 436.793771 
L 218.890569 436.101074 
L 218.601395 435.290618 
L 218.341051 434.456834 
L 218.100061 433.564395 
L 217.965231 432.93033 
L 217.868901 432.026088 
L 217.801409 431.156941 
L 217.676045 430.323364 
L 217.406229 429.501128 
L 217.049666 428.690916 
L 216.567645 427.998007 
L 216.288134 427.22288 
L 216.056866 426.377316 
L 215.931484 425.567085 
L 215.854539 424.709946 
L 215.787069 423.887905 
L 215.73899 423.288923 
L 215.652156 422.59622 
L 215.555848 421.738855 
L 215.295502 420.928625 
L 214.987163 420.223933 
L 214.553348 419.495687 
L 213.984743 418.638385 
L 213.464162 417.781099 
L 212.798941 416.970691 
L 212.066349 416.289586 
L 211.420517 415.854873 
L 210.784387 415.584801 
L 210.340941 415.431997 
L 209.68526 415.173705 
L 209.049146 415.032461 
L 208.297242 414.915024 
L 207.612737 414.879572 
L 206.889684 414.891211 
L 206.205183 414.89109 
L 205.453276 414.750102 
L 204.923066 414.632647 
L 204.238736 414.49167 
L 203.534856 414.362221 
L 202.782964 414.33877 
L 202.262468 414.326843 
L 201.510581 414.338493 
L 200.970704 414.326571 
L 200.748987 414.303062 
L 200.451706 414.307717 
L 204.598505 351.168742 
L 169.933405 322.989671 
L 154.712058 308.920562 
L 146.368283 297.855805 
L 139.819675 288.173671 
L 135.616238 279.166533 
L 132.683402 271.960734 
L 129.934983 263.287091 
L 138.329092 263.424248 
L 150.274497 264.746729 
L 163.458432 268.101904 
L 174.918493 272.645169 
L 186.007338 278.718966 
L 194.583494 284.276653 
L 215.699939 298.626551 
L 231.374369 309.891759 
L 242.804491 317.589214 
L 255.946336 325.228528 
L 267.719003 330.874877 
L 280.221566 335.635399 
L 291.90263 339.067279 
L 303.76609 341.61339 
L 313.074295 342.830898 
L 323.660032 343.605512 
L 334.567636 343.533331 
L 338.132599 343.136641 
L 344.972107 342.375621 
L 353.642513 340.797223 
L 362.833185 338.587577 
L 370.289785 336.16761 
L 377.573003 333.432049 
L 385.723331 329.749624 
L 394.827519 324.90991 
L 403.638768 319.439819 
L 414.121008 311.635091 
L 421.585747 305.17932 
L 430.083008 296.892834 
L 461.770399 262.494799 
L 469.871276 253.29323 
L 480.852531 241.590578 
L 484.246531 237.97368 
L 491.569613 230.416457 
L 498.892768 222.859278 
L 504.624828 216.888538 
L 510.356926 210.917816 
L 515.216708 206.45883 
L 518.331982 203.662529 
L 521.447252 200.866264 
L 524.37557 198.599088 
L 527.303917 196.331946 
L 535.771829 190.323174 
L 543.729998 185.307952 
L 548.294197 182.98983 
L 552.858395 180.671734 
L 558.358836 178.211902 
L 563.859281 175.752084 
L 569.047636 173.623562 
L 574.235989 171.495073 
L 606.689586 163.459174 
L 607.810388 265.599637 
L 607.970097 342.492525 
" style="stroke:#ffffff;stroke-linejoin:miter;stroke-width:2;"/>
   </g>
  </g>
 </g>
 <defs>
  <clipPath id="p81976ad1c5">
   <rect height="543.6" width="558" x="90" y="86.4"/>
  </clipPath>
 </defs>
</svg>
