<?xml version="1.0" encoding="utf-8" standalone="no"?>
<!DOCTYPE svg PUBLIC "-//W3C//DTD SVG 1.1//EN"
  "http://www.w3.org/Graphics/SVG/1.1/DTD/svg11.dtd">
<!-- Created with matplotlib (https://matplotlib.org/) -->
<svg height="720pt" version="1.1" viewBox="0 0 720 720" width="720pt" xmlns="http://www.w3.org/2000/svg" xmlns:xlink="http://www.w3.org/1999/xlink">
 <metadata>
  <rdf:RDF xmlns:cc="http://creativecommons.org/ns#" xmlns:dc="http://purl.org/dc/elements/1.1/" xmlns:rdf="http://www.w3.org/1999/02/22-rdf-syntax-ns#">
   <cc:Work>
    <dc:type rdf:resource="http://purl.org/dc/dcmitype/StillImage"/>
    <dc:date>2021-05-07T11:03:01.568005</dc:date>
    <dc:format>image/svg+xml</dc:format>
    <dc:creator>
     <cc:Agent>
      <dc:title>Matplotlib v3.3.3, https://matplotlib.org/</dc:title>
     </cc:Agent>
    </dc:creator>
   </cc:Work>
  </rdf:RDF>
 </metadata>
 <defs>
  <style type="text/css">*{stroke-linecap:butt;stroke-linejoin:round;}</style>
 </defs>
 <g id="figure_1">
  <g id="patch_1">
   <path d="M 0 720 
L 720 720 
L 720 0 
L 0 0 
z
" style="fill:none;"/>
  </g>
  <g id="axes_1">
   <g id="patch_2">
    <path clip-path="url(#p97a6c9435a)" d="M 308.266094 166.303051 
L 318.024488 170.657376 
L 323.980541 173.806849 
L 325.684119 174.663233 
L 328.6182 176.359132 
L 329.989194 177.152457 
L 331.952356 178.230411 
L 335.197551 179.984695 
L 338.220557 181.856205 
L 340.354395 183.084307 
L 342.888432 184.780526 
L 345.2001 186.184156 
L 347.245075 187.529406 
L 349.627703 189.18657 
L 345.809601 199.262715 
L 350.57731 202.437139 
L 351.920871 204.035445 
L 353.15255 205.71801 
L 354.032462 207.379719 
L 354.864391 209.02045 
L 355.600473 210.850581 
L 356.03269 212.449453 
L 356.225441 213.491668 
L 356.260303 213.819087 
L 357.547012 213.294294 
L 357.801674 214.86836 
L 357.918641 215.89367 
L 357.98272 216.677649 
L 358.035627 217.770279 
L 358.046779 218.865041 
L 358.047711 219.170625 
L 358.078253 219.880051 
L 358.148471 220.584569 
L 358.33546 221.661948 
L 358.614916 222.704067 
L 358.983159 223.697235 
L 359.338486 224.447896 
L 359.744605 225.152558 
L 360.1981 225.805234 
L 360.72497 226.433233 
L 375.097116 241.95534 
L 376.540791 243.501833 
L 376.863582 243.813396 
L 377.821571 244.610729 
L 378.836175 245.275813 
L 379.968485 245.831315 
L 381.139888 246.221872 
L 382.336514 246.443086 
L 383.544313 246.492056 
L 384.588561 246.395383 
L 385.621273 246.169951 
L 386.633315 245.817762 
L 387.592375 245.419875 
L 389.074359 246.578359 
L 387.553558 249.293213 
L 386.290204 251.822903 
L 385.635184 253.334466 
L 385.170475 254.672511 
L 384.819977 256.708194 
L 384.609904 258.620479 
L 384.400125 261.427121 
L 384.190605 264.973962 
L 384.004157 267.564707 
L 383.77088 270.062957 
L 383.350117 271.975362 
L 382.908443 272.975559 
L 383.748326 273.903471 
L 384.474427 275.136708 
L 385.060137 276.493367 
L 385.461743 277.877846 
L 386.252522 279.69674 
L 387.295 281.962955 
L 389.286152 286.002034 
L 392.303316 292.385507 
L 393.134936 294.204669 
L 393.790943 295.885135 
L 394.36498 297.473125 
L 394.808574 298.88209 
L 396.156076 303.492087 
L 396.566131 304.710081 
L 396.938711 305.533395 
L 397.372032 306.335016 
L 398.086381 307.491163 
L 401.118426 311.602029 
L 401.667706 313.757825 
L 401.972328 314.744563 
L 402.2181 315.525605 
L 455.172357 315.850071 
L 458.632984 315.875042 
L 481.949842 315.787838 
L 503.64623 315.702742 
L 505.674274 315.695025 
L 511.215142 315.673394 
L 532.27001 315.675073 
L 544.833252 397.358818 
L 548.472081 414.468732 
L 550.859062 422.621073 
L 553.406208 429.39379 
L 557.05686 437.859581 
L 562.744276 446.9598 
L 569.99078 457.359544 
L 583.210402 470.583073 
L 613.316775 497.068527 
L 609.715312 556.41273 
L 609.328733 556.419304 
L 608.767867 556.441304 
L 608.248721 556.419259 
L 607.724462 556.379853 
L 607.121068 556.323297 
L 606.517668 556.222705 
L 606.082091 556.089304 
L 605.487252 555.900356 
L 604.99298 555.722693 
L 604.398139 555.522699 
L 603.928928 555.367148 
L 603.476539 555.266742 
L 602.856467 555.132951 
L 602.211343 554.932949 
L 601.616494 554.677808 
L 600.963136 554.422487 
L 600.326402 554.211416 
L 599.765028 554.022487 
L 599.16195 553.756283 
L 598.642614 553.556493 
L 598.014442 553.157925 
L 597.470496 552.626925 
L 596.817727 551.875247 
L 596.181633 551.300016 
L 595.553914 550.614291 
L 594.926206 549.895816 
L 594.315478 549.17712 
L 593.972191 548.845334 
L 593.470105 548.237301 
L 592.892994 547.430482 
L 592.315719 546.634732 
L 591.84743 545.927507 
L 591.471295 545.209407 
L 591.002991 544.402997 
L 590.534696 543.673635 
L 589.965814 542.911092 
L 589.58967 542.137866 
L 589.339321 541.408906 
L 588.946512 540.547374 
L 588.35228 539.961266 
L 587.749476 539.496506 
L 587.238673 539.087046 
L 586.686173 538.655481 
L 586.175376 538.290101 
L 585.614756 537.582687 
L 585.322362 536.842866 
L 585.013321 536.135822 
L 584.402403 535.450342 
L 583.841164 535.140321 
L 583.305 534.94031 
L 582.802314 534.817793 
L 582.248896 534.99328 
L 581.628673 534.936536 
L 581.000349 534.725481 
L 580.422159 534.624886 
L 579.961029 534.679027 
L 579.575415 534.67824 
L 578.963432 534.709829 
L 578.485516 534.85231 
L 577.923534 535.082691 
L 577.319669 535.368233 
L 576.732613 535.60969 
L 576.120179 535.917135 
L 575.541546 536.136671 
L 574.980157 536.047166 
L 574.401957 535.880162 
L 573.79901 535.49268 
L 573.246326 535.094311 
L 572.635107 534.640419 
L 572.107808 534.109674 
L 571.563529 533.700236 
L 570.910131 533.411934 
L 570.38237 533.2011 
L 569.745788 532.923668 
L 569.234832 532.646831 
L 568.606967 532.137799 
L 568.012397 531.694975 
L 567.493208 531.384957 
L 566.923562 531.118773 
L 566.353916 530.863897 
L 565.767464 530.663914 
L 565.189419 530.463951 
L 564.703529 530.242237 
L 564.075192 529.986946 
L 563.530773 529.754181 
L 562.902437 529.50996 
L 562.684635 529.410165 
L 562.064999 528.945412 
L 561.478832 528.491741 
L 560.850346 528.346902 
L 560.272159 528.290382 
L 559.727441 528.244944 
L 559.149089 528.188425 
L 558.621179 528.099142 
L 557.992693 527.954306 
L 557.448113 527.75434 
L 556.878621 527.455175 
L 556.267083 527.122839 
L 555.798006 526.901127 
L 555.328925 526.657299 
L 554.776089 526.391359 
L 554.265144 526.213718 
L 553.720256 526.146126 
L 553.08322 526.144779 
L 552.63065 526.132742 
L 552.161281 526.131758 
L 551.708564 526.13079 
L 551.197305 526.140693 
L 550.744594 526.172693 
L 550.149434 526.171315 
L 549.562835 526.103978 
L 548.984636 525.992341 
L 548.381519 525.748126 
L 547.887067 525.614761 
L 547.510159 525.45946 
L 546.907185 525.104992 
L 546.396386 524.739644 
L 545.919061 524.418778 
L 545.374931 523.910002 
L 544.889495 523.412278 
L 544.571264 523.179934 
L 544.051928 522.93613 
L 543.490533 522.769388 
L 542.870316 522.701872 
L 542.267062 522.534927 
L 541.638733 522.290965 
L 541.085908 522.02482 
L 540.566538 521.781041 
L 539.963425 521.492775 
L 539.402047 521.337106 
L 538.832128 521.347059 
L 538.261897 521.544292 
L 537.65805 521.818824 
L 537.112733 522.11567 
L 536.550758 522.368268 
L 535.964033 522.433118 
L 535.503062 522.388106 
L 534.941406 522.497245 
L 534.371164 522.628286 
L 533.750818 522.748298 
L 533.281296 522.813545 
L 532.803372 522.911806 
L 532.174458 523.142271 
L 531.595679 523.449984 
L 530.983286 523.768583 
L 530.471752 523.977111 
L 529.884711 524.185644 
L 529.281017 524.305633 
L 528.668908 524.469921 
L 528.039994 524.689105 
L 527.478023 524.952758 
L 526.89084 525.271569 
L 526.47988 525.50242 
L 526.001684 525.799252 
L 525.456382 526.140166 
L 525.003386 526.392953 
L 524.374327 526.700496 
L 523.812365 526.997358 
L 523.250241 527.305074 
L 522.680026 527.546618 
L 522.210378 527.71108 
L 521.749131 527.919792 
L 521.279475 528.117461 
L 520.658963 528.292591 
L 520.222932 528.457259 
L 519.585476 528.731581 
L 518.964974 528.950987 
L 518.377779 529.192541 
L 517.765558 529.511152 
L 517.228661 529.819081 
L 516.649903 530.193004 
L 516.163288 530.489867 
L 515.676675 530.797801 
L 515.064291 531.193658 
L 514.586087 531.501588 
L 514.116291 531.809712 
L 513.62968 532.117646 
L 513.218731 532.381495 
L 512.774149 532.634288 
L 512.17841 532.997152 
L 511.63312 533.360215 
L 511.012342 533.811228 
L 510.584268 534.163419 
L 510.089275 534.58183 
L 509.501819 535.121143 
L 508.872346 535.759897 
L 508.343563 536.211073 
L 507.731022 536.695292 
L 507.580044 536.783249 
L 506.992887 537.168252 
L 506.648866 537.388239 
L 506.061696 537.706852 
L 505.407586 538.003548 
L 504.853876 538.28916 
L 504.224552 538.839585 
L 503.678691 539.577692 
L 503.241807 540.404331 
L 502.67958 540.932811 
L 502.033583 541.372968 
L 501.588847 541.647689 
L 501.027044 541.85626 
L 500.372918 542.064629 
L 499.802874 542.206791 
L 499.232642 542.315942 
L 498.620721 542.447053 
L 498.109194 542.622618 
L 497.505355 542.842038 
L 497.010497 543.094644 
L 496.356108 543.512695 
L 495.85271 543.908744 
L 495.214957 544.404054 
L 494.678108 544.78907 
L 494.132672 545.185159 
L 493.537119 545.581247 
L 493.042111 545.889201 
L 492.429737 546.262963 
L 491.876204 546.570919 
L 491.297309 546.988944 
L 490.743627 547.362902 
L 490.181535 547.726012 
L 489.619441 548.077814 
L 489.283998 548.286738 
L 488.730304 548.60557 
L 488.176617 548.946541 
L 487.64816 549.320686 
L 487.144601 549.705695 
L 486.6328 550.090925 
L 486.137824 550.520207 
L 485.491691 551.026381 
L 484.845573 551.598969 
L 484.375802 551.939909 
L 483.897618 552.258909 
L 483.251619 552.632911 
L 482.605789 552.95157 
L 481.951695 553.248073 
L 481.507117 553.456829 
L 481.004031 553.665393 
L 480.400214 553.939978 
L 479.82987 554.236688 
L 479.192279 554.5996 
L 478.714249 554.863499 
L 478.219244 555.149326 
L 477.606743 555.633574 
L 477.061629 555.952412 
L 476.516359 556.238241 
L 476.021661 556.424667 
L 475.468105 556.600267 
L 474.864594 556.69819 
L 474.277718 556.796324 
L 473.623779 556.971513 
L 472.969819 557.124587 
L 472.408026 557.255896 
L 471.846214 557.376159 
L 471.28457 557.507491 
L 470.639013 557.57223 
L 469.993766 557.5599 
L 469.532807 557.514957 
L 469.096932 557.502992 
L 468.594099 557.45783 
L 468.1165 557.39054 
L 467.49629 557.356303 
L 466.892903 557.288831 
L 466.507307 557.265994 
L 465.954191 557.220638 
L 465.350805 557.153189 
L 464.696982 557.129821 
L 464.219221 557.140017 
L 463.72482 557.127843 
L 463.096048 557.137672 
L 462.551371 557.14766 
L 461.94768 557.245595 
L 461.344018 557.387806 
L 460.790777 557.497223 
L 460.270999 557.529122 
L 459.742951 557.516988 
L 459.181589 557.394594 
L 458.561672 557.161561 
L 458.008839 556.873566 
L 457.489334 556.68498 
L 456.89434 556.628583 
L 456.324436 556.627323 
L 455.745961 556.69248 
L 455.108962 556.702082 
L 454.698149 556.767597 
L 454.153318 556.821672 
L 453.574837 556.864672 
L 453.055215 556.863609 
L 452.426611 556.8843 
L 451.948861 556.872366 
L 451.328525 556.926239 
L 450.741798 556.958198 
L 450.272447 556.913034 
L 449.635601 556.878822 
L 449.12423 556.844551 
L 448.562749 556.898638 
L 447.984307 556.963781 
L 447.330346 557.039616 
L 446.710036 557.1267 
L 446.282571 557.125816 
L 445.746137 557.135835 
L 445.159596 557.123524 
L 444.581125 557.144394 
L 443.994412 557.165291 
L 443.49162 557.153375 
L 443.047336 557.141411 
L 442.494248 557.140372 
L 442.066785 557.084364 
L 441.471655 557.072039 
L 441.019131 557.07117 
L 440.449247 557.080993 
L 439.996565 557.102241 
L 439.418241 557.056942 
L 438.940669 557.033949 
L 438.286846 557.010586 
L 437.842565 557.009716 
L 437.339776 557.008657 
L 436.744661 557.051463 
L 436.308789 557.050807 
L 435.772359 557.016559 
L 435.177387 556.98234 
L 434.708051 556.992315 
L 434.263793 557.013584 
L 433.760838 557.067655 
L 433.509427 557.067106 
L 432.998068 557.077124 
L 432.520318 557.065205 
L 432.042564 557.042217 
L 431.506289 557.030089 
L 430.852498 557.061882 
L 430.290872 557.127032 
L 429.829786 557.159165 
L 429.209441 557.180092 
L 428.606078 557.20101 
L 428.002565 557.221908 
L 427.432662 557.165546 
L 426.98012 557.09847 
L 426.410382 557.042109 
L 425.840462 556.985749 
L 425.245483 556.92938 
L 424.683836 556.917292 
L 424.239717 556.905362 
L 423.79544 556.915549 
L 423.359716 556.859557 
L 422.890377 556.803366 
L 422.429436 556.769525 
L 421.951685 556.757375 
L 421.298036 556.71213 
L 420.862312 556.656118 
L 420.226535 556.895616 
L 418.97134 556.272694 
L 416.369141 555.710567 
L 415.062275 555.472049 
L 413.752629 555.255239 
L 412.462868 554.888667 
L 411.158978 554.628886 
L 409.88073 554.177017 
L 409.568555 554.351679 
L 408.930188 554.149934 
L 408.402427 553.950323 
L 407.908142 553.78388 
L 407.480968 553.606572 
L 406.994925 553.43993 
L 406.567742 553.284738 
L 405.972897 553.084926 
L 405.41152 552.940463 
L 404.950715 552.818084 
L 404.523379 552.706952 
L 403.928386 552.562291 
L 403.350347 552.38461 
L 402.88115 552.262455 
L 402.453807 552.129208 
L 401.825468 551.896212 
L 401.272635 551.663392 
L 400.728071 551.463797 
L 400.074525 551.230838 
L 399.454606 551.041898 
L 398.834694 550.820186 
L 398.239834 550.631472 
L 397.619764 550.431465 
L 397.033345 550.298091 
L 396.438478 550.08722 
L 395.894033 549.799295 
L 395.701289 549.677644 
L 395.106736 549.367371 
L 394.47839 549.12353 
L 393.908758 548.9016 
L 393.280412 548.65776 
L 392.660483 548.391801 
L 392.040552 548.169878 
L 391.58814 548.014515 
L 391.001688 547.781723 
L 390.465505 547.559994 
L 389.870642 547.371266 
L 389.292611 547.182551 
L 388.739635 546.982732 
L 388.119555 546.816179 
L 387.658749 546.704859 
L 387.15606 546.571448 
L 386.519334 546.3717 
L 385.874159 546.09467 
L 385.237583 545.850626 
L 384.776754 545.673135 
L 384.35795 545.451757 
L 383.813509 545.141705 
L 383.310932 544.89802 
L 382.78316 544.643304 
L 382.196691 544.421372 
L 381.560225 544.067099 
L 381.09954 543.779334 
L 380.563632 543.403084 
L 380.010912 543.037891 
L 379.508333 542.695024 
L 378.997486 542.32983 
L 378.503316 542.042086 
L 378.067848 541.787321 
L 376.509736 541.089323 
L 375.914984 540.757169 
L 375.295165 540.40287 
L 374.742469 540.07091 
L 374.172786 539.771711 
L 373.611687 539.505931 
L 373.067074 539.240163 
L 372.581476 538.908144 
L 372.02032 538.476767 
L 371.526296 538.144775 
L 370.990244 537.845797 
L 370.479261 537.579991 
L 369.876114 537.247825 
L 369.27308 536.860555 
L 368.686906 536.506244 
L 368.184326 536.229582 
L 367.715217 535.963774 
L 367.061939 535.598456 
L 366.475444 535.321411 
L 365.914337 535.044569 
L 365.269149 534.767582 
L 364.791804 534.523897 
L 364.314416 534.158911 
L 363.703133 533.716286 
L 363.158696 533.450526 
L 362.639135 533.228789 
L 362.086301 532.996003 
L 361.458081 532.68602 
L 360.930412 532.331897 
L 360.545208 532.044124 
L 360.025939 531.668076 
L 359.464798 531.302927 
L 358.878593 530.926704 
L 358.27558 530.572412 
L 357.689233 530.262407 
L 357.153161 529.93043 
L 356.633897 529.576327 
L 356.11463 529.211135 
L 355.553501 528.890048 
L 354.933541 528.591113 
L 354.372271 528.336202 
L 353.844588 528.04828 
L 353.241414 527.760406 
L 352.680089 527.494405 
L 352.093722 527.228421 
L 351.473855 526.874145 
L 350.887318 526.59731 
L 350.284146 526.364348 
L 349.756457 526.06534 
L 349.17004 525.667183 
L 348.659293 525.257933 
L 348.198691 524.925916 
L 347.654161 524.560724 
L 347.092878 524.372232 
L 346.54825 524.194581 
L 345.953314 523.950745 
L 345.41736 523.596618 
L 344.856302 523.12099 
L 344.328394 522.68113 
L 343.89031 522.619962 
L 343.46092 522.393409 
L 342.913953 522.135243 
L 342.258876 521.98868 
L 341.796524 521.83963 
L 341.140412 521.571746 
L 340.719755 521.378178 
L 340.551552 521.314042 
L 339.945374 520.990349 
L 339.372667 520.633213 
L 338.741774 520.354051 
L 338.153284 520.162328 
L 337.51451 519.971484 
L 336.859071 519.79172 
L 336.305453 519.655104 
L 335.682773 519.474908 
L 335.110245 519.161833 
L 334.451844 518.552126 
L 333.795555 518.262112 
L 333.173946 518.126193 
L 332.560563 517.945994 
L 332.089623 517.763946 
L 331.543537 517.627111 
L 330.921391 517.424999 
L 330.307678 517.200723 
L 329.676076 516.844284 
L 329.28066 516.661363 
L 328.675345 516.459004 
L 328.222095 516.40936 
L 327.78653 516.480593 
L 327.167711 516.752705 
L 326.515969 517.113389 
L 326.105282 517.140311 
L 325.507328 516.783442 
L 324.984366 516.370529 
L 324.477861 515.880319 
L 323.988881 515.522294 
L 323.491146 515.12 
L 323.002174 514.739817 
L 322.386917 514.451762 
L 322.192794 514.255669 
L 321.585026 513.678953 
L 321.044886 513.189658 
L 320.530489 512.766303 
L 320.016101 512.364891 
L 319.502245 512.018606 
L 318.988891 511.738495 
L 318.348854 511.327619 
L 317.784209 511.088259 
L 317.196726 510.835438 
L 316.582634 510.545651 
L 316.036336 510.343069 
L 315.405944 510.108617 
L 314.825836 509.873502 
L 314.211396 509.539639 
L 313.705933 509.204422 
L 313.217128 508.846622 
L 312.694492 508.445438 
L 312.147494 508.143674 
L 311.600505 507.864026 
L 311.061924 507.584394 
L 310.472706 507.250105 
L 309.85826 506.905177 
L 309.269393 506.626015 
L 308.68122 506.435187 
L 308.311026 506.263526 
L 307.678712 505.764517 
L 307.069881 505.033503 
L 306.478574 504.423584 
L 305.939459 504.055385 
L 305.400879 503.786827 
L 304.87105 503.551035 
L 304.290757 503.282919 
L 303.761296 503.102256 
L 303.231123 502.833477 
L 302.742812 502.531029 
L 302.219826 502.096647 
L 301.603819 501.53122 
L 301.064185 501.10792 
L 300.439752 500.542738 
L 299.874892 500.119891 
L 299.344708 499.828978 
L 298.764065 499.516592 
L 298.19289 499.380671 
L 297.596664 499.223065 
L 297.05877 499.031561 
L 296.43731 498.896307 
L 295.891703 498.793143 
L 295.28636 498.558498 
L 294.664891 498.401129 
L 294.018014 498.199916 
L 293.471363 497.964363 
L 292.832903 497.785305 
L 292.261387 497.583194 
L 292.084756 497.486283 
L 291.530397 497.350139 
L 290.942754 497.225522 
L 290.361416 496.835902 
L 289.814059 496.490098 
L 289.250068 496.188778 
L 288.677481 495.832142 
L 288.122079 495.530621 
L 287.566669 495.251238 
L 287.027718 494.905214 
L 286.471607 494.52643 
L 285.899028 494.192151 
L 285.352206 493.912525 
L 284.83814 493.54413 
L 284.206165 493.111144 
L 283.684034 492.77618 
L 283.161918 492.440998 
L 282.572689 492.117803 
L 282.051437 491.915231 
L 281.439246 491.878952 
L 280.819695 491.986379 
L 270.088955 483.92098 
L 269.991534 483.194418 
L 269.961056 482.47779 
L 269.696137 481.775443 
L 269.123725 481.474168 
L 268.709179 480.950098 
L 268.469145 480.225357 
L 267.895497 479.736587 
L 267.323766 479.490201 
L 266.793747 479.243611 
L 266.271097 478.842248 
L 265.613529 478.354607 
L 265.09138 478.008588 
L 264.720641 477.759688 
L 264.205392 477.357692 
L 263.582978 476.958338 
L 262.933805 476.448555 
L 262.386625 476.135981 
L 261.779683 475.680644 
L 261.289272 475.113446 
L 260.714212 474.426313 
L 260.139152 473.738942 
L 259.479485 472.953536 
L 258.9463 472.265483 
L 258.428726 471.423106 
L 257.911659 470.64673 
L 257.370587 470.025315 
L 256.772593 469.647023 
L 256.189119 468.9599 
L 255.646486 468.128853 
L 255.062657 467.386366 
L 254.405421 466.931942 
L 253.874701 466.574892 
L 253.376905 466.140336 
L 252.77768 465.596668 
L 252.204537 465.163017 
L 251.581466 464.796273 
L 250.967158 464.484434 
L 250.377916 464.150199 
L 249.889405 463.836722 
L 249.425272 463.434915 
L 248.877536 463.044893 
L 248.338563 462.710187 
L 247.684149 462.64144 
L 247.136587 462.273774 
L 246.546982 461.906554 
L 246.218452 461.67914 
L 245.654421 461.355741 
L 245.123362 461.09758 
L 244.476445 460.764568 
L 243.836547 460.386994 
L 243.238877 460.052989 
L 242.691508 459.718316 
L 242.126782 459.317657 
L 241.806668 459.112159 
L 241.217399 458.767081 
L 240.652858 458.377513 
L 240.138586 457.987234 
L 239.607666 457.608058 
L 239.01001 457.274058 
L 238.454384 456.950464 
L 237.898417 456.604928 
L 237.257997 456.139005 
L 236.72796 455.89244 
L 236.097526 455.668939 
L 235.508976 455.423073 
L 234.928297 455.121835 
L 234.448546 454.87458 
L 233.85912 454.51844 
L 233.3706 454.204997 
L 232.983549 454.011473 
L 232.452795 453.643589 
L 231.847606 453.430923 
L 231.267456 453.206975 
L 230.661889 452.928115 
L 230.182328 452.702784 
L 229.568353 452.424149 
L 229.063013 452.110919 
L 228.439589 451.689071 
L 227.874327 451.222229 
L 227.317825 450.766253 
L 226.821074 450.486007 
L 226.248645 450.173723 
L 225.742943 449.794517 
L 225.229018 449.459397 
L 224.773799 449.112272 
L 224.209581 448.766777 
L 223.653612 448.399116 
L 223.089223 448.04277 
L 222.523608 447.498668 
L 221.964988 446.789202 
L 221.397959 446.046537 
L 220.831273 445.370263 
L 220.291243 444.892121 
L 219.642218 444.426461 
L 219.10234 443.959172 
L 218.604367 443.513574 
L 218.072398 443.00222 
L 217.565457 442.457445 
L 217.000723 442.045761 
L 216.342224 441.425779 
L 215.894355 440.946479 
L 215.388119 440.50089 
L 214.73909 440.035236 
L 214.19975 439.634146 
L 213.660783 439.321606 
L 213.06273 438.921239 
L 212.540388 438.586332 
L 211.958652 438.141894 
L 211.349903 437.44396 
L 210.715933 436.724365 
L 210.074431 436.148216 
L 209.526148 435.670307 
L 208.986096 435.203048 
L 208.488637 434.812584 
L 207.965934 434.422555 
L 207.882659 434.364329 
L 207.392955 434.021933 
L 206.85378 433.665146 
L 206.230693 433.298446 
L 205.716398 432.907977 
L 205.083305 432.309905 
L 204.466853 431.722477 
L 203.817293 431.168479 
L 203.218711 430.713211 
L 202.662024 430.257235 
L 202.121611 429.735072 
L 201.530393 429.136101 
L 200.982278 428.713326 
L 200.500752 428.212383 
L 199.90024 427.492337 
L 199.274297 426.72845 
L 198.640484 426.053121 
L 197.981976 425.422111 
L 197.324011 424.890264 
L 196.666716 424.413783 
L 196.102658 424.10128 
L 195.480266 423.822923 
L 194.932497 423.443994 
L 194.385981 423.230663 
L 193.797746 423.039961 
L 193.402263 422.835615 
L 192.79544 422.402502 
L 192.195629 421.781843 
L 191.587216 421.139076 
L 190.969695 420.386259 
L 190.335532 419.655594 
L 189.820873 419.221318 
L 189.171123 418.645436 
L 188.657342 418.321176 
L 188.06736 417.909951 
L 187.486292 417.553651 
L 186.887536 417.076239 
L 186.356046 416.62006 
L 185.798812 416.087052 
L 185.266633 415.542541 
L 184.759499 414.99777 
L 184.26184 414.574336 
L 183.714063 414.195634 
L 183.073073 413.67466 
L 182.499018 413.141886 
L 181.857834 412.598755 
L 181.201065 412.210405 
L 180.577072 411.722387 
L 180.079063 411.26575 
L 179.455229 410.79987 
L 178.856467 410.322487 
L 178.28292 409.855696 
L 177.726923 409.499143 
L 177.145682 409.109863 
L 176.606661 408.775 
L 175.999471 408.297823 
L 175.340588 407.622778 
L 174.765463 406.946573 
L 174.207337 406.303105 
L 173.606427 405.539004 
L 172.988534 404.742168 
L 172.42252 404.154052 
L 171.822848 403.555354 
L 171.2316 402.956627 
L 170.589534 402.292424 
L 169.97269 401.64988 
L 169.440855 401.160487 
L 168.815588 400.496053 
L 168.705963 400.379408 
L 167.633626 399.386743 
L 167.069206 399.019139 
L 166.563461 398.64 
L 166.057561 398.249555 
L 165.525888 397.793394 
L 164.943402 397.249575 
L 164.284676 396.58561 
L 163.68429 395.898782 
L 163.166603 395.045196 
L 162.523646 394.270747 
L 161.934325 393.936594 
L 161.385841 393.469599 
L 160.72694 392.794525 
L 160.178444 392.30559 
L 159.688987 391.870859 
L 159.166264 391.480652 
L 158.567472 391.014335 
L 158.070146 390.634957 
L 157.506436 390.377831 
L 156.985284 390.186211 
L 156.40491 389.940149 
L 155.816137 389.683265 
L 155.243806 389.371022 
L 154.696742 389.102597 
L 154.099177 388.779527 
L 153.610093 388.400123 
L 153.103831 387.965652 
L 152.589673 387.597341 
L 152.110056 387.350125 
L 151.529149 387.037894 
L 150.948423 386.725879 
L 150.442496 386.335446 
L 149.910993 385.879276 
L 149.396148 385.433942 
L 148.839754 385.022266 
L 148.317018 384.620999 
L 147.802691 384.219724 
L 147.246837 383.896187 
L 146.68327 383.63907 
L 146.145134 383.425533 
L 145.96027 383.372966 
L 145.321538 383.160826 
L 144.77428 382.848135 
L 144.218242 382.491611 
L 143.729146 382.101168 
L 143.087582 381.502948 
L 143.039358 381.450666 
L 143.215501 381.017059 
L 147.529518 370.941631 
L 150.523205 363.732472 
L 151.487151 361.224236 
L 151.939335 359.267418 
L 152.350408 357.209131 
L 152.739693 354.95078 
L 152.934085 353.350009 
L 153.186246 350.960283 
L 153.352537 347.679425 
L 153.46919 344.511232 
L 153.33773 342.081883 
L 153.314379 337.375518 
L 153.304356 335.12281 
L 153.333391 325.746168 
L 153.2661 304.594503 
L 153.243279 302.616444 
L 153.260016 292.966503 
L 153.257371 288.006949 
L 153.271239 266.418909 
L 153.213327 258.969689 
L 153.094203 255.511128 
L 152.798981 252.802369 
L 152.096893 249.855834 
L 150.897406 246.463189 
L 150.018399 244.13435 
L 149.495221 242.754059 
L 148.4252 240.705072 
L 145.222871 235.703038 
L 137.653428 223.284 
L 130.992633 212.58301 
L 128.331585 208.267306 
L 127.24466 206.496045 
L 126.138436 204.57288 
L 125.339939 203.016534 
L 124.683225 201.564966 
L 126.988854 200.904928 
L 134.654108 200.983007 
L 137.494105 198.056109 
L 138.045036 198.341401 
L 138.829498 198.384629 
L 143.501899 198.420573 
L 145.715851 198.457109 
L 150.539341 198.518573 
L 151.9694 198.558137 
L 153.319967 198.807217 
L 154.072514 198.842029 
L 155.270163 198.884593 
L 159.338326 198.521755 
L 165.029874 198.12893 
L 166.548592 197.951672 
L 167.099229 197.687325 
L 167.82653 197.282833 
L 168.918248 199.117879 
L 169.54348 198.735769 
L 170.694694 198.46863 
L 172.40644 198.318645 
L 174.749301 197.83758 
L 176.930608 197.436514 
L 178.950321 197.008968 
L 180.444974 196.847998 
L 184.242287 196.525359 
L 187.272124 196.416279 
L 189.837342 196.254399 
L 190.584646 196.094101 
L 193.747082 198.35435 
L 202.335216 199.783263 
L 205.810443 199.747619 
L 208.376172 199.527256 
L 209.217773 198.136594 
L 209.794999 197.589942 
L 210.431482 197.082243 
L 212.72583 195.402802 
L 216.965056 192.306889 
L 224.921043 186.492386 
L 228.562642 184.187715 
L 231.967577 182.429423 
L 235.362883 181.086584 
L 238.383102 179.89429 
L 240.781593 179.092643 
L 243.09123 178.291074 
L 244.927081 177.62642 
L 246.47352 177.026435 
L 248.116439 176.026101 
L 250.218623 174.854088 
L 253.135832 173.285128 
L 255.466777 172.360701 
L 257.361823 171.559479 
L 259.19771 170.933889 
L 261.033609 170.327794 
L 263.165674 169.701991 
L 264.898003 169.271566 
L 266.915292 168.803233 
L 268.60327 168.509388 
L 270.143171 168.254659 
L 273.963376 167.725153 
L 275.829105 167.626266 
L 277.694859 167.507852 
L 285.281172 167.431726 
L 287.627594 167.432255 
L 289.330397 167.196966 
L 290.662963 166.844898 
L 292.025077 166.356275 
L 293.549978 165.574954 
L 294.601039 164.871974 
L 295.874078 163.798252 
L 296.791802 162.880809 
L 298.449508 160.929024 
L 300.203192 158.82777 
L 301.085065 159.951376 
L 301.994845 160.964362 
L 302.974538 161.866744 
L 304.290113 163.00848 
L 305.493652 163.929137 
L 307.349843 165.083465 
L 308.266094 166.303051 
" style="stroke:#ffffff;stroke-linejoin:miter;stroke-width:2;"/>
   </g>
  </g>
 </g>
 <defs>
  <clipPath id="p97a6c9435a">
   <rect height="543.6" width="558" x="90" y="86.4"/>
  </clipPath>
 </defs>
</svg>
