<?xml version="1.0" encoding="utf-8" standalone="no"?>
<!DOCTYPE svg PUBLIC "-//W3C//DTD SVG 1.1//EN"
  "http://www.w3.org/Graphics/SVG/1.1/DTD/svg11.dtd">
<!-- Created with matplotlib (https://matplotlib.org/) -->
<svg height="720pt" version="1.1" viewBox="0 0 720 720" width="720pt" xmlns="http://www.w3.org/2000/svg" xmlns:xlink="http://www.w3.org/1999/xlink">
 <metadata>
  <rdf:RDF xmlns:cc="http://creativecommons.org/ns#" xmlns:dc="http://purl.org/dc/elements/1.1/" xmlns:rdf="http://www.w3.org/1999/02/22-rdf-syntax-ns#">
   <cc:Work>
    <dc:type rdf:resource="http://purl.org/dc/dcmitype/StillImage"/>
    <dc:date>2021-05-07T11:03:06.605790</dc:date>
    <dc:format>image/svg+xml</dc:format>
    <dc:creator>
     <cc:Agent>
      <dc:title>Matplotlib v3.3.3, https://matplotlib.org/</dc:title>
     </cc:Agent>
    </dc:creator>
   </cc:Work>
  </rdf:RDF>
 </metadata>
 <defs>
  <style type="text/css">*{stroke-linecap:butt;stroke-linejoin:round;}</style>
 </defs>
 <g id="figure_1">
  <g id="patch_1">
   <path d="M 0 720 
L 720 720 
L 720 0 
L 0 0 
z
" style="fill:none;"/>
  </g>
  <g id="axes_1">
   <g id="patch_2">
    <path clip-path="url(#p229e5cfdff)" d="M 407.036919 163.88055 
L 406.86665 195.9725 
L 406.719056 216.76658 
L 408.470094 226.390791 
L 408.47771 248.49507 
L 411.150982 250.029631 
L 418.633902 253.481955 
L 425.565068 255.706123 
L 431.31465 257.163 
L 438.481694 258.312367 
L 443.915943 258.848128 
L 450.610172 259.153248 
L 457.917845 259.202677 
L 466.446855 259.501504 
L 486.012233 259.843206 
L 486.012896 262.212372 
L 485.883194 292.518794 
L 485.886081 303.092267 
L 485.888619 312.332491 
L 488.045662 312.331966 
L 488.037705 314.630917 
L 487.848065 337.717488 
L 565.20961 337.749179 
L 567.797466 337.761029 
L 567.805397 377.307612 
L 597.956734 377.302286 
L 597.957957 378.757148 
L 597.891273 396.44019 
L 597.824972 414.123001 
L 597.738865 431.812294 
L 597.696834 441.982346 
L 597.592965 467.177789 
L 597.548512 487.971146 
L 597.481816 505.654223 
L 597.415837 523.337001 
L 597.350558 540.941042 
L 597.324263 548.014159 
L 597.325048 552.219466 
L 580.28505 552.260442 
L 533.702656 552.268809 
L 422.512567 552.381054 
L 399.332462 552.070141 
L 365.566177 552.535031 
L 253.367354 552.106251 
L 219.754925 503.829732 
L 211.753645 490.802173 
L 204.456703 476.036819 
L 198.807086 464.094163 
L 192.686155 450.414241 
L 187.740122 435.430639 
L 183.029268 420.664094 
L 179.72978 406.982837 
L 174.779796 385.266394 
L 170.802108 362.876253 
L 168.104081 345.56273 
L 165.604336 325.056401 
L 160.404216 267.779225 
L 157.51806 241.439078 
L 154.827957 223.584736 
L 151.373489 208.382636 
L 146.770209 193.181184 
L 140.042043 175.190048 
L 212.726791 175.09221 
L 263.881292 175.02589 
L 306.681927 175.125337 
L 325.438661 172.680433 
L 376.84421 172.706507 
L 376.849146 163.864969 
L 407.036919 163.88055 
" style="stroke:#ffffff;stroke-linejoin:miter;stroke-width:2;"/>
   </g>
  </g>
 </g>
 <defs>
  <clipPath id="p229e5cfdff">
   <rect height="543.6" width="558" x="90" y="86.4"/>
  </clipPath>
 </defs>
</svg>
