<?xml version="1.0" encoding="utf-8" standalone="no"?>
<!DOCTYPE svg PUBLIC "-//W3C//DTD SVG 1.1//EN"
  "http://www.w3.org/Graphics/SVG/1.1/DTD/svg11.dtd">
<!-- Created with matplotlib (https://matplotlib.org/) -->
<svg height="720pt" version="1.1" viewBox="0 0 720 720" width="720pt" xmlns="http://www.w3.org/2000/svg" xmlns:xlink="http://www.w3.org/1999/xlink">
 <metadata>
  <rdf:RDF xmlns:cc="http://creativecommons.org/ns#" xmlns:dc="http://purl.org/dc/elements/1.1/" xmlns:rdf="http://www.w3.org/1999/02/22-rdf-syntax-ns#">
   <cc:Work>
    <dc:type rdf:resource="http://purl.org/dc/dcmitype/StillImage"/>
    <dc:date>2021-05-07T11:03:04.471835</dc:date>
    <dc:format>image/svg+xml</dc:format>
    <dc:creator>
     <cc:Agent>
      <dc:title>Matplotlib v3.3.3, https://matplotlib.org/</dc:title>
     </cc:Agent>
    </dc:creator>
   </cc:Work>
  </rdf:RDF>
 </metadata>
 <defs>
  <style type="text/css">*{stroke-linecap:butt;stroke-linejoin:round;}</style>
 </defs>
 <g id="figure_1">
  <g id="patch_1">
   <path d="M 0 720 
L 720 720 
L 720 0 
L 0 0 
z
" style="fill:none;"/>
  </g>
  <g id="axes_1">
   <g id="patch_2">
    <path clip-path="url(#pde0f64a8f9)" d="M 303.257129 174.605442 
L 368.347938 174.935829 
L 395.199823 174.769025 
L 428.294591 175.15771 
L 428.621855 187.20714 
L 428.464773 200.229049 
L 428.507014 220.422465 
L 441.627664 220.680561 
L 455.174217 220.416456 
L 468.852701 220.477025 
L 482.326164 220.536809 
L 495.536754 220.456192 
L 509.405659 220.241391 
L 509.466769 180.228183 
L 507.798037 175.414596 
L 523.361116 175.233755 
L 540.698929 175.409424 
L 550.043712 175.433308 
L 554.371072 175.533975 
L 559.622044 175.996794 
L 563.606983 177.230555 
L 578.428938 185.370673 
L 584.507131 187.431849 
L 590.869982 188.656662 
L 590.869469 220.867315 
L 590.869256 233.308102 
L 590.868503 278.397826 
L 590.867742 323.525028 
L 590.885622 353.918185 
L 590.354509 409.223399 
L 580.104791 414.135692 
L 550.0007 429.746409 
L 511.604107 448.714474 
L 430.216918 485.095398 
L 408.262117 495.017032 
L 387.63514 504.465486 
L 368.083837 512.56202 
L 353.843715 517.972411 
L 344.602045 520.31238 
L 333.333223 522.412125 
L 301.804488 527.60766 
L 294.262169 528.681792 
L 281.132088 530.337938 
L 266.445089 533.178298 
L 235.424359 538.740752 
L 217.176947 541.43401 
L 203.678936 542.531439 
L 191.255016 542.750013 
L 174.304275 542.390012 
L 155.396278 539.658084 
L 147.114378 539.015798 
L 149.357594 517.082176 
L 150.363451 499.336552 
L 150.281706 463.994074 
L 150.477239 173.719786 
L 161.640676 173.69858 
L 184.487647 173.649987 
L 211.976462 174.021775 
L 266.025042 174.405908 
L 279.164223 174.555332 
L 292.952641 174.566648 
L 303.257129 174.605442 
" style="stroke:#ffffff;stroke-linejoin:miter;stroke-width:2;"/>
   </g>
  </g>
 </g>
 <defs>
  <clipPath id="pde0f64a8f9">
   <rect height="543.6" width="558" x="90" y="86.4"/>
  </clipPath>
 </defs>
</svg>
