<?xml version="1.0" encoding="utf-8" standalone="no"?>
<!DOCTYPE svg PUBLIC "-//W3C//DTD SVG 1.1//EN"
  "http://www.w3.org/Graphics/SVG/1.1/DTD/svg11.dtd">
<!-- Created with matplotlib (https://matplotlib.org/) -->
<svg height="720pt" version="1.1" viewBox="0 0 720 720" width="720pt" xmlns="http://www.w3.org/2000/svg" xmlns:xlink="http://www.w3.org/1999/xlink">
 <metadata>
  <rdf:RDF xmlns:cc="http://creativecommons.org/ns#" xmlns:dc="http://purl.org/dc/elements/1.1/" xmlns:rdf="http://www.w3.org/1999/02/22-rdf-syntax-ns#">
   <cc:Work>
    <dc:type rdf:resource="http://purl.org/dc/dcmitype/StillImage"/>
    <dc:date>2021-05-07T11:03:01.656898</dc:date>
    <dc:format>image/svg+xml</dc:format>
    <dc:creator>
     <cc:Agent>
      <dc:title>Matplotlib v3.3.3, https://matplotlib.org/</dc:title>
     </cc:Agent>
    </dc:creator>
   </cc:Work>
  </rdf:RDF>
 </metadata>
 <defs>
  <style type="text/css">*{stroke-linecap:butt;stroke-linejoin:round;}</style>
 </defs>
 <g id="figure_1">
  <g id="patch_1">
   <path d="M 0 720 
L 720 720 
L 720 0 
L 0 0 
z
" style="fill:none;"/>
  </g>
  <g id="axes_1">
   <g id="patch_2">
    <path clip-path="url(#p45c53c6ef6)" d="M 509.930544 247.122583 
L 535.61392 276.948261 
L 563.232277 308.989389 
L 565.43316 311.79454 
L 566.53945 313.431147 
L 568.626564 316.754224 
L 569.56648 318.529556 
L 570.171862 319.672988 
L 571.271982 322.435917 
L 572.634367 327.653544 
L 573.657094 333.246278 
L 574.112861 337.539377 
L 574.386897 341.194439 
L 574.514639 345.542602 
L 574.499767 349.508065 
L 574.369912 352.004855 
L 574.177105 356.036295 
L 573.726379 360.748005 
L 573.122974 365.164189 
L 572.107881 369.896523 
L 571.112452 373.843274 
L 570.404541 376.511249 
L 569.188652 380.108299 
L 567.986011 383.145327 
L 566.548897 386.550817 
L 565.067308 389.664098 
L 562.715665 394.280793 
L 559.639839 399.547435 
L 557.76473 402.569659 
L 554.41322 407.431099 
L 550.983647 411.938661 
L 549.101721 414.188836 
L 545.676175 418.004406 
L 544.29433 419.486679 
L 542.146286 421.703383 
L 542.031886 409.172852 
L 518.648979 408.881461 
L 516.808442 410.820293 
L 513.672564 414.044189 
L 509.798854 417.974731 
L 500.575852 427.425661 
L 495.490432 431.950492 
L 475.104967 453.039009 
L 470.467637 454.658387 
L 453.785744 454.464733 
L 436.744174 454.267002 
L 437.047041 465.659196 
L 437.361521 477.48786 
L 415.461118 477.33107 
L 415.457663 477.510643 
L 415.461698 478.062448 
L 415.462894 479.569088 
L 415.441646 482.013797 
L 415.454516 483.444654 
L 415.45601 485.284025 
L 415.423885 488.938723 
L 415.462876 493.493551 
L 415.429171 495.378949 
L 415.443258 498.739426 
L 415.459043 503.580231 
L 415.460005 505.056129 
L 415.484414 506.242921 
L 415.555491 507.050899 
L 415.767276 508.090714 
L 416.084999 509.159525 
L 416.496522 510.186215 
L 417.024067 511.231684 
L 417.893539 512.603311 
L 418.668841 513.596182 
L 419.420616 514.471226 
L 420.543946 515.516854 
L 421.612551 516.38336 
L 422.868943 517.317131 
L 423.864115 517.928793 
L 425.226021 518.711015 
L 426.796201 519.457957 
L 428.275334 520.063366 
L 429.707405 520.550984 
L 430.702271 520.86852 
L 431.601081 521.111017 
L 428.186451 526.333824 
L 426.955782 528.347481 
L 422.538835 528.349241 
L 420.411822 528.405479 
L 346.504843 530.367011 
L 346.593528 532.082099 
L 324.197975 532.677023 
L 261.904426 534.330763 
L 261.904357 534.561931 
L 260.609081 534.597461 
L 238.71055 529.24398 
L 233.692061 527.935738 
L 223.315717 532.574669 
L 221.49853 533.624087 
L 219.887441 534.999654 
L 219.099645 536.304876 
L 218.552263 537.88964 
L 218.279565 539.730546 
L 218.419337 542.410103 
L 218.820033 545.20091 
L 206.092781 545.677447 
L 194.430309 546.280971 
L 185.227424 546.457159 
L 195.644684 543.369853 
L 163.485361 535.942577 
L 164.331205 535.906223 
L 165.573998 535.84178 
L 166.798309 535.802907 
L 168.094518 535.726196 
L 169.372292 535.687798 
L 170.508241 535.635202 
L 171.698927 535.493958 
L 172.99516 535.404733 
L 174.150589 535.276025 
L 175.429314 535.173767 
L 176.742035 535.16114 
L 178.054047 535.173799 
L 179.313653 535.16045 
L 180.555787 535.134342 
L 181.727343 535.069467 
L 183.006441 534.95447 
L 183.859481 534.848173 
L 184.838824 534.628684 
L 186.105741 534.195508 
L 187.00995 533.198716 
L 187.591339 532.40261 
L 188.259804 531.696334 
L 189.035742 530.940437 
L 190.045489 529.982922 
L 191.038114 529.012624 
L 192.277356 528.120836 
L 193.075066 527.123348 
L 194.066684 526.191104 
L 195.253154 525.286301 
L 196.386208 524.393517 
L 197.483667 523.487733 
L 198.403055 522.643897 
L 199.266693 521.926988 
L 200.134652 520.980788 
L 200.698245 520.184418 
L 201.262187 519.388049 
L 201.756215 518.514608 
L 202.391375 517.69367 
L 202.972443 516.910085 
L 203.572983 516.037844 
L 204.207146 515.267476 
L 205.198422 514.360771 
L 206.455139 513.494717 
L 207.143094 512.69954 
L 207.478814 511.735554 
L 207.689286 510.8595 
L 207.916907 510.02174 
L 208.411604 509.110273 
L 208.90398 508.325957 
L 209.467596 507.542106 
L 210.247196 506.569892 
L 211.185064 505.675233 
L 212.372587 504.706825 
L 212.902573 503.808335 
L 213.306601 503.023061 
L 213.747562 502.149148 
L 214.045707 501.324873 
L 214.256498 500.410542 
L 214.446854 499.67419 
L 214.888805 498.736689 
L 215.31262 497.824482 
L 215.950122 496.876122 
L 216.495925 496.079514 
L 217.044727 495.130471 
L 217.64395 494.321571 
L 218.138011 493.460902 
L 218.507087 492.637343 
L 218.96619 491.738138 
L 219.461577 490.801113 
L 219.92167 489.83832 
L 220.666342 488.84009 
L 221.46111 488.00784 
L 222.364426 487.074623 
L 223.091291 486.076403 
L 223.636115 485.343385 
L 224.165117 484.495742 
L 224.694457 483.635557 
L 225.242608 482.724543 
L 225.416779 481.88631 
L 226.515631 480.916951 
L 226.849433 480.080143 
L 227.770533 479.14717 
L 228.458799 478.313972 
L 228.916926 477.478356 
L 229.320635 476.705852 
L 229.724681 475.920832 
L 230.130367 475.021154 
L 230.535728 474.14676 
L 230.869546 473.32272 
L 231.186867 472.409566 
L 231.593893 471.4463 
L 231.998267 470.635494 
L 232.348525 469.875284 
L 232.681357 469.114857 
L 233.104195 468.253724 
L 233.546507 467.303459 
L 233.807098 466.59311 
L 234.051216 465.819183 
L 234.257039 465.210249 
L 234.643269 464.41222 
L 235.06711 463.500017 
L 235.472827 462.625624 
L 235.806977 461.7763 
L 236.069221 460.964312 
L 236.351277 460.050674 
L 236.634659 459.060682 
L 236.792391 458.145852 
L 236.824785 457.306186 
L 236.717752 456.33791 
L 236.625867 455.509819 
L 236.321917 454.628757 
L 235.839929 453.784079 
L 235.407361 453.168918 
L 234.908201 452.298715 
L 234.44401 451.441512 
L 234.033554 450.572017 
L 233.762943 449.831131 
L 233.619577 448.888132 
L 233.652992 447.984628 
L 233.776438 447.005977 
L 234.059158 446.054037 
L 234.304944 445.190986 
L 234.379489 444.988173 
L 234.695055 444.054492 
L 234.595102 443.190105 
L 234.620954 442.452081 
L 234.645303 441.599401 
L 234.47406 440.722731 
L 234.408946 439.807233 
L 234.343028 438.81538 
L 234.11798 437.913727 
L 233.89363 437.050126 
L 233.792895 436.13487 
L 233.551129 435.284044 
L 233.42263 434.966921 
L 233.073627 434.091364 
L 232.918665 433.112797 
L 232.836113 432.222842 
L 232.716796 431.231265 
L 232.566719 430.621727 
L 232.359081 429.668996 
L 232.097988 428.729308 
L 231.926368 427.827129 
L 231.542813 427.015651 
L 230.748404 426.041172 
L 229.991529 425.206617 
L 230.336157 424.390057 
L 229.775586 423.630511 
L 229.710854 422.753315 
L 229.610441 421.850601 
L 229.421381 420.973941 
L 228.823284 420.049436 
L 228.58079 419.173077 
L 228.302977 418.284468 
L 227.902037 417.523844 
L 227.463912 416.623521 
L 227.0432 415.672145 
L 226.874957 415.024564 
L 226.759052 414.325637 
L 226.552154 413.423725 
L 226.184897 412.497358 
L 226.031433 411.633473 
L 225.861697 410.884003 
L 225.78252 410.248395 
L 225.539987 409.372036 
L 225.493051 408.482064 
L 225.466561 407.795111 
L 225.475309 407.10814 
L 225.500026 406.28097 
L 225.434134 405.289117 
L 225.225718 404.29831 
L 224.983219 403.421951 
L 224.777029 402.57111 
L 224.409057 401.593898 
L 224.182828 400.603125 
L 224.260966 399.762911 
L 224.551791 398.921342 
L 225.16175 398.001512 
L 225.771698 397.068664 
L 226.061766 396.163509 
L 225.961733 395.299098 
L 225.808277 394.409678 
L 225.653714 393.456672 
L 225.10794 392.480548 
L 224.70503 391.529164 
L 224.31964 390.603056 
L 224.306832 389.610927 
L 224.401254 388.668791 
L 224.498733 387.968534 
L 224.772471 387.152484 
L 225.009083 386.22207 
L 225.157313 385.305217 
L 225.110002 384.38946 
L 225.061571 383.397599 
L 225.19087 382.404401 
L 225.408913 381.410659 
L 225.575412 380.569876 
L 225.759686 379.691058 
L 225.791519 379.410909 
L 226.009562 378.417167 
L 226.122964 377.563918 
L 226.182559 376.685912 
L 226.027993 375.73263 
L 226.052279 374.854891 
L 226.111488 373.938331 
L 226.295403 373.046746 
L 226.517554 372.370938 
L 226.735972 371.402731 
L 226.723165 370.410352 
L 226.551161 369.482889 
L 226.307478 368.504892 
L 226.100176 367.590439 
L 225.911094 366.701037 
L 225.791766 365.709711 
L 225.906685 364.983636 
L 226.071996 364.028472 
L 226.274494 363.212982 
L 226.24574 362.348036 
L 226.322354 361.406159 
L 226.646923 360.41164 
L 227.026432 359.531451 
L 227.282378 358.728227 
L 227.484481 357.861893 
L 227.774535 356.931228 
L 227.92508 356.20511 
L 228.304591 355.324721 
L 228.720509 354.533412 
L 229.012815 353.767948 
L 229.409744 352.875008 
L 229.843451 352.057905 
L 230.034519 351.713091 
L 230.412926 350.769066 
L 230.740112 349.95279 
L 231.084015 349.085411 
L 231.499539 348.243033 
L 231.94993 347.3368 
L 232.487901 346.341153 
L 232.812478 345.346584 
L 232.87244 344.48112 
L 232.913796 343.552278 
L 232.903256 342.738142 
L 232.997734 341.808799 
L 233.076278 341.019405 
L 233.260167 340.12782 
L 233.496035 339.13382 
L 233.629893 338.484091 
L 233.742184 337.554739 
L 233.730105 336.626198 
L 233.735489 335.659346 
L 234.006994 334.677846 
L 234.475973 333.847959 
L 234.90934 333.030857 
L 235.48369 332.085763 
L 235.863598 331.243402 
L 236.314395 330.38824 
L 236.660556 329.686087 
L 236.898667 328.845071 
L 237.277061 327.875512 
L 237.587961 327.18667 
L 237.863994 326.561406 
L 238.262102 325.75734 
L 238.678 324.92773 
L 238.817142 324.697848 
L 239.267942 323.842436 
L 239.71985 323.050611 
L 240.295001 322.207156 
L 240.763965 321.351761 
L 241.214034 320.458273 
L 241.593553 319.565369 
L 242.061027 318.608035 
L 242.707058 317.738787 
L 243.213188 317.035558 
L 243.822081 316.039378 
L 244.398332 315.246744 
L 245.062563 314.415515 
L 245.63807 313.572086 
L 246.196173 312.754176 
L 246.737559 312.025396 
L 247.471913 311.104511 
L 248.100499 310.248015 
L 248.587705 309.468967 
L 249.359609 308.700524 
L 250.238004 307.93128 
L 251.222157 307.085156 
L 252.275722 306.098783 
L 252.869818 305.331426 
L 253.622016 304.436095 
L 254.037185 303.555393 
L 254.666898 302.775278 
L 255.685227 301.827225 
L 256.385854 301.059068 
L 256.783213 300.17865 
L 256.895513 299.236532 
L 256.944096 298.892788 
L 257.325146 298.127035 
L 257.828288 297.194997 
L 258.528523 296.376297 
L 259.406548 295.569004 
L 260.338792 294.850307 
L 261.323369 294.029722 
L 262.419363 293.589856 
L 263.780697 293.07201 
L 264.816854 292.123702 
L 265.763518 291.125118 
L 266.357292 290.33248 
L 267.17963 289.347472 
L 267.913639 288.40131 
L 268.667696 287.607621 
L 269.473726 286.737279 
L 270.120582 285.93135 
L 270.715048 285.164248 
L 271.750832 284.215968 
L 272.681602 283.357585 
L 273.59527 282.55003 
L 274.631419 281.614519 
L 275.471256 280.616739 
L 276.331489 279.80946 
L 277.139053 279.040784 
L 277.87533 278.272617 
L 278.770448 277.414503 
L 279.64815 276.56894 
L 280.403755 275.927939 
L 281.725002 275.041366 
L 282.902945 274.079482 
L 283.74498 273.22167 
L 284.834629 272.29838 
L 285.870085 271.312029 
L 287.15754 270.553149 
L 288.267993 269.845897 
L 289.376589 269.011748 
L 290.308124 268.242243 
L 291.539519 267.280113 
L 292.072179 266.860395 
L 292.630284 266.420663 
L 293.792696 265.6115 
L 295.117319 265.004816 
L 296.304319 264.742442 
L 297.69835 263.982744 
L 298.664755 263.136897 
L 299.758175 262.506287 
L 301.151445 261.670236 
L 302.402222 260.847769 
L 303.707556 260.101157 
L 305.01137 259.252907 
L 306.190866 258.392922 
L 307.156155 257.457957 
L 307.588817 256.551746 
L 307.757997 255.901755 
L 307.874098 255.265056 
L 308.095964 254.551228 
L 308.422852 253.709404 
L 309.069714 252.903734 
L 309.55663 252.086121 
L 310.167473 251.229924 
L 310.885591 250.423723 
L 312.100725 249.563249 
L 313.269907 249.275832 
L 314.428366 249.547936 
L 315.782131 249.806209 
L 317.060813 249.7596 
L 318.194369 249.4722 
L 319.500489 248.802201 
L 320.592052 248.018892 
L 321.968302 247.259465 
L 323.364571 246.665031 
L 324.616131 245.906187 
L 325.954139 244.943251 
L 327.098778 244.134136 
L 328.476914 243.527196 
L 329.700275 243.315616 
L 330.816015 243.015713 
L 332.050119 242.25713 
L 332.572656 241.452023 
L 332.721407 240.585997 
L 333.226471 239.768655 
L 334.386335 238.781518 
L 335.547314 237.870486 
L 336.585017 237.024122 
L 337.355496 236.153817 
L 338.198772 235.41043 
L 339.503389 234.587707 
L 340.580488 234.059012 
L 341.833554 233.402066 
L 343.173823 232.604639 
L 344.551227 231.933871 
L 345.573059 231.265736 
L 346.60893 230.30472 
L 347.609525 229.344195 
L 348.805407 228.382108 
L 350.055474 227.470543 
L 351.199391 226.598078 
L 352.378924 225.750658 
L 353.257112 224.968958 
L 354.293343 224.00792 
L 355.562746 223.236316 
L 356.761256 222.477986 
L 357.871407 221.732738 
L 359.123382 220.999446 
L 360.268399 220.215881 
L 361.112439 219.523296 
L 362.009527 218.817695 
L 362.850944 217.909066 
L 363.37314 217.078705 
L 363.949148 216.273331 
L 364.754143 215.288614 
L 365.650541 214.544962 
L 366.882078 213.582594 
L 367.776537 212.648158 
L 368.636538 211.815652 
L 369.3369 211.0095 
L 370.00277 210.267176 
L 370.967421 209.306976 
L 372.164115 208.39572 
L 373.004399 207.41079 
L 373.171771 206.595603 
L 373.250398 205.793496 
L 373.41815 205.016361 
L 373.604052 204.264753 
L 374.393882 203.508884 
L 375.112842 202.753821 
L 375.794323 201.871599 
L 376.423072 201.002394 
L 376.80274 200.134795 
L 377.696881 199.174878 
L 378.536851 198.177183 
L 379.042016 197.385135 
L 379.457685 196.542807 
L 379.802459 195.713551 
L 380.021427 194.770668 
L 380.438959 194.068306 
L 381.138992 193.224105 
L 382.103699 192.263659 
L 382.855686 191.304781 
L 383.379016 190.550804 
L 383.794344 189.670174 
L 383.959839 188.727814 
L 384.091546 187.900151 
L 384.327963 186.931726 
L 384.656799 186.255412 
L 385.393599 185.512611 
L 386.483024 184.564131 
L 387.006349 183.797362 
L 387.528229 182.92898 
L 387.979537 182.086388 
L 388.307661 181.346488 
L 388.423417 180.658748 
L 388.588917 179.716413 
L 388.932996 178.836315 
L 389.419934 177.993483 
L 389.976327 177.035689 
L 390.604343 176.141203 
L 391.184891 175.248013 
L 391.47366 174.64707 
L 392.102028 173.752609 
L 392.553712 172.935302 
L 392.953109 172.207639 
L 393.421924 171.365066 
L 393.890695 170.509725 
L 394.150781 169.942841 
L 396.283499 170.425816 
L 403.032983 172.064017 
L 407.540779 173.285786 
L 416.820314 176.214854 
L 423.53926 178.666912 
L 429.439876 180.899616 
L 435.438287 183.506281 
L 440.52072 185.906192 
L 445.269154 188.285642 
L 451.362353 191.600603 
L 458.765915 196.163401 
L 465.885049 201.077111 
L 472.339447 206.21205 
L 477.161152 210.439938 
L 479.836258 212.940639 
L 484.119625 217.363563 
L 489.411883 223.251719 
L 509.930544 247.122583 
" style="stroke:#ffffff;stroke-linejoin:miter;stroke-width:2;"/>
   </g>
  </g>
 </g>
 <defs>
  <clipPath id="p45c53c6ef6">
   <rect height="543.6" width="558" x="90" y="86.4"/>
  </clipPath>
 </defs>
</svg>
