<?xml version="1.0" encoding="utf-8" standalone="no"?>
<!DOCTYPE svg PUBLIC "-//W3C//DTD SVG 1.1//EN"
  "http://www.w3.org/Graphics/SVG/1.1/DTD/svg11.dtd">
<!-- Created with matplotlib (https://matplotlib.org/) -->
<svg height="720pt" version="1.1" viewBox="0 0 720 720" width="720pt" xmlns="http://www.w3.org/2000/svg" xmlns:xlink="http://www.w3.org/1999/xlink">
 <metadata>
  <rdf:RDF xmlns:cc="http://creativecommons.org/ns#" xmlns:dc="http://purl.org/dc/elements/1.1/" xmlns:rdf="http://www.w3.org/1999/02/22-rdf-syntax-ns#">
   <cc:Work>
    <dc:type rdf:resource="http://purl.org/dc/dcmitype/StillImage"/>
    <dc:date>2021-05-28T08:56:53.753498</dc:date>
    <dc:format>image/svg+xml</dc:format>
    <dc:creator>
     <cc:Agent>
      <dc:title>Matplotlib v3.3.3, https://matplotlib.org/</dc:title>
     </cc:Agent>
    </dc:creator>
   </cc:Work>
  </rdf:RDF>
 </metadata>
 <defs>
  <style type="text/css">*{stroke-linecap:butt;stroke-linejoin:round;}</style>
 </defs>
 <g id="figure_1">
  <g id="patch_1">
   <path d="M 0 720 
L 720 720 
L 720 0 
L 0 0 
z
" style="fill:none;"/>
  </g>
  <g id="axes_1">
   <g id="patch_2">
    <path clip-path="url(#pcdd56b46e0)" d="M 305.55045 206.439178 
L 305.50923 246.080374 
L 319.293847 246.070676 
L 391.224001 246.105923 
L 391.221681 249.082243 
L 390.467304 249.082528 
L 394.398288 253.591579 
L 416.557509 278.994242 
L 413.532364 286.659949 
L 406.599606 293.384716 
L 404.867805 294.112965 
L 408.817138 298.637905 
L 410.942606 297.272898 
L 412.969896 295.798961 
L 414.891665 294.221418 
L 416.700922 292.546024 
L 418.391149 290.778841 
L 419.95616 288.926252 
L 421.390326 286.995 
L 422.404635 285.666664 
L 423.545033 284.418289 
L 424.80323 283.258923 
L 426.170109 282.196966 
L 427.635751 281.240117 
L 429.189552 280.395321 
L 430.820248 279.668695 
L 432.516016 279.065497 
L 434.264539 278.59012 
L 436.053165 278.246004 
L 437.868916 278.035655 
L 439.698643 277.960574 
L 441.529056 278.021308 
L 443.346924 278.217434 
L 445.139036 278.547521 
L 446.892407 279.009168 
L 448.59432 279.599039 
L 450.232451 280.312847 
L 451.794926 281.145438 
L 475.253926 294.883811 
L 483.328264 299.613811 
L 499.061363 313.120451 
L 507.54437 332.708729 
L 504.591049 365.432437 
L 506.570443 366.028421 
L 508.504817 366.727621 
L 510.387049 367.527491 
L 512.210284 368.425085 
L 513.967813 369.417117 
L 515.653215 370.499942 
L 517.260295 371.669608 
L 518.78317 372.921823 
L 549.138518 399.435532 
L 549.650948 399.850293 
L 550.129256 400.219346 
L 550.648142 400.601194 
L 551.183203 400.975952 
L 551.696243 401.31817 
L 552.590578 401.877269 
L 553.352866 402.318668 
L 554.127951 402.736516 
L 554.832315 403.090717 
L 555.408659 403.363309 
L 555.974672 403.616548 
L 561.870689 400.358858 
L 566.587726 400.366606 
L 581.67169 409.649523 
L 585.385366 426.870782 
L 602.520299 444.402085 
L 594.809047 445.562353 
L 594.835689 446.324787 
L 602.873256 447.100543 
L 604.465145 448.756892 
L 597.412365 459.160697 
L 594.243944 457.53113 
L 593.622116 457.211324 
L 593.006128 456.894498 
L 592.45126 456.609099 
L 591.715384 456.230608 
L 590.85733 455.789284 
L 590.1744 455.438017 
L 589.548873 455.116291 
L 588.9881 454.827859 
L 588.208605 454.426941 
L 587.645215 454.112861 
L 586.924644 453.632883 
L 586.35487 453.178716 
L 585.779322 452.633693 
L 585.164046 451.920217 
L 584.743409 451.318591 
L 584.284052 450.638149 
L 583.90417 450.135721 
L 583.49274 449.640714 
L 583.012991 449.118041 
L 582.57531 448.683332 
L 582.143308 448.288218 
L 581.645217 447.869301 
L 581.401042 447.676899 
L 580.935993 447.332146 
L 580.391378 446.961118 
L 579.811855 446.601413 
L 579.170282 446.241487 
L 578.691924 445.997164 
L 578.024134 445.687363 
L 577.533048 445.48178 
L 576.812891 445.212322 
L 576.279934 445.036184 
L 575.817223 444.898584 
L 575.612353 445.436975 
L 575.464351 445.811198 
L 575.298458 446.217351 
L 575.156438 446.554778 
L 575.045524 446.812114 
L 574.74926 447.475254 
L 575.496834 447.702818 
L 576.142413 447.937622 
L 576.81324 448.222041 
L 577.379956 448.497182 
L 578.028378 448.855055 
L 578.528485 449.16589 
L 579.039101 449.518331 
L 579.499821 449.870562 
L 580.179817 450.460485 
L 580.533064 450.805561 
L 581.002962 451.314541 
L 581.37964 451.77243 
L 581.626109 452.101471 
L 581.989858 452.640178 
L 582.39675 453.237262 
L 582.831617 453.793191 
L 583.416394 454.440858 
L 583.938037 454.943524 
L 584.398987 455.340027 
L 584.738933 455.607768 
L 585.814461 456.338924 
L 586.609789 456.783851 
L 587.325953 457.152427 
L 587.963554 457.480581 
L 588.996196 458.011996 
L 595.002137 461.102794 
L 595.813927 461.520669 
L 594.162266 463.956681 
L 592.837061 465.875244 
L 591.929844 467.110788 
L 591.096591 468.192529 
L 590.352322 469.119866 
L 589.796783 469.789885 
L 589.113268 470.589774 
L 588.645547 471.122411 
L 587.915446 471.93052 
L 587.340893 472.547921 
L 586.779899 473.133393 
L 586.109125 473.811485 
L 585.427099 474.477774 
L 584.691772 475.170727 
L 584.054347 475.751762 
L 583.371974 476.35455 
L 582.398963 477.181508 
L 582.00369 477.507284 
L 581.420487 477.977339 
L 580.689091 478.549668 
L 579.712271 479.28552 
L 578.863452 479.899714 
L 578.118572 480.419908 
L 577.303741 480.970064 
L 576.244212 481.657087 
L 575.35376 482.210767 
L 574.685072 482.612854 
L 573.64328 483.216704 
L 572.684002 483.749229 
L 571.551956 484.349782 
L 570.683535 484.790487 
L 569.790949 485.226155 
L 568.791189 485.693888 
L 567.689553 486.185272 
L 566.952845 486.500078 
L 565.892009 486.934627 
L 564.974368 487.293058 
L 563.27616 487.914967 
L 562.697954 488.114661 
L 561.550091 488.493502 
L 560.359406 488.86221 
L 559.077107 489.232259 
L 557.564304 489.634151 
L 556.252238 489.952453 
L 554.717027 490.289975 
L 553.652875 490.502358 
L 552.298772 490.747315 
L 550.712911 490.998647 
L 549.390419 491.178704 
L 547.836307 491.357066 
L 545.939786 491.526528 
L 543.793707 491.654997 
L 543.629815 491.662218 
L 541.458314 491.757847 
L 538.168699 491.902736 
L 533.95691 492.089474 
L 529.242406 492.29851 
L 525.206543 492.477546 
L 512.741211 503.795045 
L 493.178074 508.741306 
L 489.996192 508.743081 
L 490.018287 538.726974 
L 376.042863 538.843224 
L 369.4639 539.495913 
L 364.063669 540.472057 
L 358.663643 541.691361 
L 352.773055 543.397309 
L 274.978346 570.019084 
L 242.845161 500.068868 
L 198.329008 402.166932 
L 188.341974 381.49904 
L 158.730123 315.046999 
L 153.682723 302.604871 
L 149.285014 293.137301 
L 146.140131 283.1223 
L 142.365584 270.557883 
L 137.960706 254.897644 
L 135.817877 243.95925 
L 134.658717 237.505128 
L 133.534855 224.911196 
L 133.685809 212.401632 
L 135.482495 196.29601 
L 138.222843 178.848762 
L 141.82891 161.785853 
L 145.639131 146.380916 
L 152.203404 148.742509 
L 155.18052 150.295348 
L 155.914769 150.767098 
L 157.297399 151.770056 
L 158.585381 152.864421 
L 159.770738 154.043422 
L 160.846178 155.299804 
L 161.805065 156.625807 
L 162.641488 158.01324 
L 163.350257 159.453568 
L 163.927027 160.937881 
L 164.36826 162.457031 
L 164.67118 164.001657 
L 164.833961 165.562216 
L 164.855582 167.129092 
L 164.735929 168.692616 
L 210.307023 175.051552 
L 241.214091 185.237004 
L 305.55045 206.439178 
" style="fill:#1a1a1a;stroke:#ffffff;stroke-linejoin:miter;stroke-width:4;"/>
   </g>
  </g>
 </g>
 <defs>
  <clipPath id="pcdd56b46e0">
   <rect height="543.6" width="558" x="90" y="86.4"/>
  </clipPath>
 </defs>
</svg>
