<?xml version="1.0" encoding="utf-8" standalone="no"?>
<!DOCTYPE svg PUBLIC "-//W3C//DTD SVG 1.1//EN"
  "http://www.w3.org/Graphics/SVG/1.1/DTD/svg11.dtd">
<!-- Created with matplotlib (https://matplotlib.org/) -->
<svg height="720pt" version="1.1" viewBox="0 0 720 720" width="720pt" xmlns="http://www.w3.org/2000/svg" xmlns:xlink="http://www.w3.org/1999/xlink">
 <metadata>
  <rdf:RDF xmlns:cc="http://creativecommons.org/ns#" xmlns:dc="http://purl.org/dc/elements/1.1/" xmlns:rdf="http://www.w3.org/1999/02/22-rdf-syntax-ns#">
   <cc:Work>
    <dc:type rdf:resource="http://purl.org/dc/dcmitype/StillImage"/>
    <dc:date>2021-05-28T08:56:45.223397</dc:date>
    <dc:format>image/svg+xml</dc:format>
    <dc:creator>
     <cc:Agent>
      <dc:title>Matplotlib v3.3.3, https://matplotlib.org/</dc:title>
     </cc:Agent>
    </dc:creator>
   </cc:Work>
  </rdf:RDF>
 </metadata>
 <defs>
  <style type="text/css">*{stroke-linecap:butt;stroke-linejoin:round;}</style>
 </defs>
 <g id="figure_1">
  <g id="patch_1">
   <path d="M 0 720 
L 720 720 
L 720 0 
L 0 0 
z
" style="fill:none;"/>
  </g>
  <g id="axes_1">
   <g id="patch_2">
    <path clip-path="url(#p4ba825c7ed)" d="M 154.283422 131.633958 
L 154.68609 131.736541 
L 155.10347 131.585216 
L 155.440227 131.815557 
L 155.814514 131.865083 
L 156.204812 131.814264 
L 156.564035 132.070973 
L 156.938927 132.180635 
L 157.312891 132.190028 
L 157.603628 132.253801 
L 157.933639 132.343891 
L 158.30773 132.359996 
L 158.720615 132.335677 
L 159.144919 132.351201 
L 159.552387 132.360341 
L 159.921209 132.416588 
L 160.345674 132.452247 
L 160.741903 132.448125 
L 161.121954 132.517636 
L 161.47986 132.600783 
L 161.83791 132.697208 
L 162.206738 132.760182 
L 162.625734 132.809272 
L 163.040123 132.985247 
L 163.442415 133.027833 
L 163.877623 133.016596 
L 164.296969 133.112415 
L 164.638183 133.202337 
L 164.991292 133.385633 
L 165.32193 133.549154 
L 165.707949 133.672074 
L 166.104644 133.721381 
L 166.451039 133.77115 
L 166.814195 133.807435 
L 167.221657 133.809988 
L 167.640212 133.812251 
L 167.953023 133.835694 
L 168.343838 133.858311 
L 168.735075 133.921076 
L 169.104207 134.017479 
L 169.53478 134.126565 
L 169.903878 134.209559 
L 170.290513 134.405921 
L 170.617335 134.79647 
L 170.975406 134.90635 
L 171.069816 134.838628 
L 171.475027 134.567232 
L 171.888079 134.569663 
L 172.324397 134.692022 
L 172.6318 134.748926 
L 173.01729 134.798424 
L 173.374699 134.821458 
L 173.765324 134.817394 
L 174.156916 134.93347 
L 174.586308 134.882285 
L 174.965373 134.824957 
L 175.345599 134.921205 
L 175.719188 134.870621 
L 176.120857 134.846384 
L 176.428582 134.943412 
L 176.796942 134.952986 
L 177.192992 134.922191 
L 177.506301 135.01237 
L 177.919065 134.988094 
L 178.275043 134.837567 
L 178.637894 134.840438 
L 179.039275 134.789623 
L 179.434843 134.698695 
L 179.814856 134.754799 
L 180.193777 134.684197 
L 180.55106 134.700525 
L 180.93109 134.763354 
L 181.33242 134.692408 
L 181.694501 134.608578 
L 182.001082 134.558625 
L 182.371203 134.093939 
L 182.439794 133.592455 
L 182.42732 133.438932 
L 182.312192 133.00602 
L 182.375519 132.551256 
L 182.714464 132.354079 
L 183.141023 132.656896 
L 183.245428 133.149985 
L 183.355419 133.636343 
L 183.766744 134.12634 
L 184.137481 134.423045 
L 184.518143 134.566014 
L 184.931999 134.668595 
L 185.244986 134.718776 
L 185.646529 134.687956 
L 186.043222 134.737306 
L 186.450993 134.779773 
L 186.808402 134.802817 
L 187.221809 134.858673 
L 187.590583 134.901678 
L 187.896733 134.811609 
L 188.315227 134.794032 
L 188.678559 134.85706 
L 189.046885 134.853208 
L 189.466072 134.935772 
L 189.840499 134.998628 
L 190.264933 135.027616 
L 190.650564 135.090419 
L 190.906995 135.061065 
L 191.214025 135.057976 
L 191.644256 135.120368 
L 191.690782 134.66568 
L 191.530884 134.20661 
L 191.389339 133.967626 
L 191.089466 133.456426 
L 190.974808 133.076936 
L 191.296466 132.819822 
L 191.639172 133.110186 
L 192.00056 133.620623 
L 192.188006 134.026168 
L 192.605121 134.549444 
L 192.948079 134.853099 
L 193.329409 135.082924 
L 193.743761 135.252228 
L 194.091198 135.415723 
L 194.482338 135.485089 
L 194.852146 135.589812 
L 195.271259 135.730809 
L 195.613608 135.967619 
L 195.986573 135.843625 
L 196.422067 135.859156 
L 196.840611 135.861576 
L 197.136452 135.865111 
L 197.571483 135.82735 
L 197.995274 135.776194 
L 198.362975 135.698936 
L 198.74734 135.608196 
L 199.144352 135.69756 
L 199.540596 135.700208 
L 199.930867 135.64274 
L 200.327753 135.725513 
L 200.6911 135.795129 
L 201.087007 135.751064 
L 201.415552 135.654198 
L 201.838383 135.482919 
L 202.102334 134.992576 
L 201.970395 134.553271 
L 201.732291 134.094874 
L 201.505247 133.623014 
L 201.607213 133.107726 
L 201.979591 132.923602 
L 202.340988 133.440771 
L 202.428202 133.874052 
L 202.59896 134.286241 
L 202.819759 134.677984 
L 203.230556 135.094558 
L 203.634182 135.324179 
L 204.004733 135.594187 
L 204.387946 136.05101 
L 204.730612 136.327961 
L 205.105997 136.511101 
L 205.425419 136.674823 
L 205.856431 136.830656 
L 206.130469 136.901256 
L 206.526376 136.857196 
L 206.905443 136.799905 
L 207.273431 136.749367 
L 207.674013 136.598293 
L 208.013173 136.441137 
L 208.397025 136.276978 
L 208.770329 136.199695 
L 209.064891 136.043095 
L 209.265022 135.947498 
L 209.615901 135.86373 
L 210.007469 135.973256 
L 210.432845 136.115823 
L 210.779207 136.159044 
L 211.181693 136.241688 
L 211.528856 136.385062 
L 211.836541 136.468704 
L 212.26051 136.444286 
L 212.38576 136.055759 
L 212.399082 135.628169 
L 212.205904 135.209346 
L 212.012852 134.797365 
L 211.747139 134.365907 
L 211.453397 133.928232 
L 211.215922 133.543256 
L 211.580284 133.052032 
L 211.949857 133.195195 
L 212.314038 133.378381 
L 212.618697 133.789304 
L 212.929582 134.273632 
L 212.993403 134.580276 
L 213.024662 135.000601 
L 213.022384 135.408018 
L 213.087931 135.92165 
L 213.214596 136.407824 
L 213.391623 136.913556 
L 213.733628 137.103797 
L 214.113367 137.139941 
L 214.413995 137.036617 
L 214.76018 137.053129 
L 215.129624 137.189584 
L 215.485929 137.079087 
L 215.859107 136.995112 
L 216.294606 137.017359 
L 216.697217 137.106718 
L 217.086723 136.962548 
L 217.43661 136.745223 
L 217.820195 136.560939 
L 218.215766 136.47003 
L 218.471862 136.393976 
L 218.894235 136.169287 
L 219.267826 136.118724 
L 219.697288 136.094294 
L 220.081925 136.023572 
L 220.499527 135.912466 
L 220.928604 135.821189 
L 221.359007 135.910308 
L 221.744283 135.919725 
L 222.100606 135.815944 
L 222.404333 135.412045 
L 222.322559 134.952027 
L 222.162412 134.472945 
L 221.980142 134.020655 
L 221.93251 133.640392 
L 222.25774 133.136288 
L 222.616249 133.292789 
L 222.965485 133.696717 
L 223.136231 134.108913 
L 223.302013 134.601529 
L 223.423069 135.087726 
L 223.565929 135.506996 
L 223.921404 135.99091 
L 224.351119 135.979773 
L 224.76548 136.155948 
L 225.190692 136.278381 
L 225.542513 136.308185 
L 225.849912 136.365256 
L 226.269362 136.467722 
L 226.704729 136.476688 
L 227.09548 136.479379 
L 227.41924 136.489413 
L 227.764787 136.425811 
L 228.15495 136.368367 
L 228.562844 136.417568 
L 228.930691 136.353756 
L 229.315235 136.289621 
L 229.728286 136.292103 
L 230.087164 136.3324 
L 230.419261 136.160152 
L 230.793502 136.194092 
L 231.184407 136.214418 
L 231.49694 136.215942 
L 231.898401 136.19582 
L 232.3004 136.215977 
L 232.691431 136.242884 
L 232.882209 135.872171 
L 232.769992 135.359491 
L 232.669425 134.893354 
L 232.580188 134.433611 
L 232.780523 133.929167 
L 233.154737 133.95641 
L 233.579345 134.457207 
L 233.707418 134.896271 
L 233.830173 135.361935 
L 233.975624 135.854114 
L 234.393507 136.261505 
L 234.756516 136.288921 
L 235.10871 136.33664 
L 235.482396 136.323739 
L 235.839232 136.297882 
L 236.218536 136.291554 
L 236.514076 136.266573 
L 236.904602 136.266917 
L 237.300686 136.253674 
L 237.674103 136.2208 
L 238.040781 136.087781 
L 238.395695 135.901391 
L 238.745979 135.802132 
L 238.86306 135.793428 
L 239.276253 135.813433 
L 239.661572 135.840511 
L 240.096504 135.806487 
L 240.46388 135.733618 
L 240.858208 135.586819 
L 241.202995 135.48087 
L 241.619891 135.353743 
L 241.953901 135.2881 
L 242.35804 135.020742 
L 242.470025 134.591226 
L 242.353464 134.185412 
L 242.208574 133.740088 
L 242.285946 133.217527 
L 242.63977 132.944411 
L 243.024652 132.931371 
L 243.440046 133.13164 
L 243.579049 133.550416 
L 243.674165 134.036709 
L 243.780755 134.542831 
L 243.908678 134.968489 
L 244.246123 135.183376 
L 244.620638 135.244052 
L 245.051757 135.357298 
L 245.481932 135.403566 
L 245.73852 135.392677 
L 246.107132 135.420068 
L 246.492039 135.413742 
L 246.865715 135.400849 
L 247.245415 135.421373 
L 247.563677 135.42948 
L 247.954192 135.429702 
L 248.27792 135.431079 
L 248.71317 135.437184 
L 249.08137 135.431169 
L 249.499622 135.404186 
L 249.906802 135.390797 
L 250.219209 135.385635 
L 250.509318 135.380947 
L 250.922243 135.380829 
L 251.301931 135.401212 
L 251.592183 135.409815 
L 251.988563 135.42331 
L 252.345257 135.384044 
L 252.74109 135.357538 
L 252.896714 134.847074 
L 252.662777 134.416534 
L 252.249146 133.901996 
L 252.148559 133.422563 
L 252.499374 132.908929 
L 252.881499 132.662041 
L 253.131242 132.550906 
L 253.520521 132.444284 
L 253.949859 132.417135 
L 254.301659 132.438157 
L 254.726217 132.477874 
L 255.055833 132.505948 
L 255.458118 132.552705 
L 255.893765 132.585687 
L 256.29615 132.632444 
L 256.586533 132.654472 
L 256.927523 132.702247 
L 257.363439 132.755217 
L 257.631397 132.770876 
L 257.983734 132.83189 
L 258.413893 132.871604 
L 258.737791 132.892977 
L 259.033509 132.894854 
L 259.340568 132.90314 
L 259.625207 132.911885 
L 259.926948 132.946903 
L 260.267368 132.941388 
L 260.646933 132.955199 
L 260.959073 132.929912 
L 261.326973 132.890482 
L 261.733897 132.857102 
L 262.012775 132.845749 
L 262.340902 132.753558 
L 262.757946 132.639741 
L 263.181535 132.59275 
L 263.577243 132.55941 
L 263.957202 132.599936 
L 264.118206 132.991665 
L 263.765079 133.324886 
L 263.437768 133.477342 
L 263.026222 133.597719 
L 262.619578 133.651099 
L 262.228957 133.657577 
L 261.816158 133.664396 
L 261.387094 133.71825 
L 261.041318 133.730494 
L 260.611285 133.697502 
L 260.253474 133.643348 
L 259.856681 133.596278 
L 259.572043 133.587664 
L 259.303964 133.572005 
L 258.974601 133.557349 
L 258.734407 133.534631 
L 258.510768 133.498171 
L 258.107547 133.377828 
L 257.693252 133.271105 
L 257.296186 133.19747 
L 256.988968 133.169052 
L 256.570298 133.155894 
L 256.268984 133.160881 
L 255.88339 133.107091 
L 255.486186 133.026733 
L 255.150372 132.938687 
L 254.720354 132.912411 
L 254.413432 132.910708 
L 254.073265 132.92978 
L 253.641344 133.2042 
L 253.597198 133.706115 
L 253.742492 134.184865 
L 253.971221 134.64215 
L 254.384171 135.103265 
L 254.748993 135.284376 
L 255.045257 135.326253 
L 255.369143 135.347637 
L 255.6483 135.356399 
L 255.821316 135.360282 
L 256.234804 135.406882 
L 256.525608 135.462188 
L 256.821861 135.504066 
L 257.101287 135.532975 
L 257.469234 135.513531 
L 257.826081 135.48756 
L 258.166237 135.468621 
L 258.517767 135.469514 
L 258.942181 135.495944 
L 259.305326 135.53009 
L 259.550852 135.532655 
L 259.930525 135.546479 
L 260.243207 135.568168 
L 260.466133 135.537651 
L 260.900562 135.477067 
L 261.301981 135.443705 
L 261.665126 135.477852 
L 261.973153 135.572987 
L 262.297476 135.634509 
L 262.587443 135.616394 
L 262.737875 135.593894 
L 263.127848 135.547428 
L 263.558132 135.5937 
L 263.865742 135.648833 
L 264.27499 135.809151 
L 264.705569 135.88228 
L 265.073769 135.876277 
L 265.414362 135.897333 
L 265.788306 135.904601 
L 266.200688 135.857652 
L 266.629899 135.823935 
L 266.936672 135.805514 
L 267.232672 135.834108 
L 267.662966 135.880397 
L 268.025974 135.907825 
L 268.444795 135.934428 
L 268.701795 135.956961 
L 269.064676 135.977692 
L 269.427793 136.005134 
L 269.812969 136.018802 
L 270.092015 136.027586 
L 270.448994 136.015046 
L 270.828677 136.028878 
L 271.224794 136.029099 
L 271.548816 136.057192 
L 271.889666 136.098267 
L 272.252669 136.119132 
L 272.571094 136.153968 
L 272.995659 136.193702 
L 273.163336 136.211019 
L 273.554102 136.224683 
L 273.827398 136.263492 
L 274.236207 136.333798 
L 274.627411 136.387465 
L 275.012559 136.39457 
L 275.430828 136.374322 
L 275.777012 136.395379 
L 275.889027 136.426838 
L 276.308132 136.480147 
L 276.699434 136.533816 
L 277.05098 136.541434 
L 277.480726 136.547729 
L 277.916779 136.614128 
L 278.324762 136.660911 
L 278.737433 136.647382 
L 279.156364 136.673982 
L 279.458512 136.742567 
L 279.883082 136.789018 
L 280.151426 136.82469 
L 280.470119 136.879651 
L 280.749432 136.908443 
L 281.185059 136.934723 
L 281.308016 136.952723 
L 281.632179 136.994258 
L 282.040194 137.054321 
L 282.437408 137.141386 
L 282.85661 137.194569 
L 283.258875 137.234783 
L 283.65444 137.18817 
L 284.085016 137.261318 
L 284.487963 137.361668 
L 284.874224 137.462208 
L 285.226828 137.549954 
L 285.618692 137.650475 
L 285.971606 137.771658 
L 286.33049 137.91281 
L 286.711715 138.066927 
L 287.092755 138.194331 
L 287.417485 138.28928 
L 287.849162 138.455989 
L 288.192607 138.710904 
L 288.468332 138.893531 
L 288.663006 138.919051 
L 288.831495 138.941121 
L 289.228675 139.014782 
L 289.609207 139.108766 
L 289.967003 139.163087 
L 290.102612 139.18473 
L 290.53232 139.314195 
L 290.935527 139.427841 
L 291.350096 139.561318 
L 291.775623 139.688048 
L 292.049852 139.75042 
L 292.475095 139.850293 
L 292.883369 139.923788 
L 293.257594 139.95779 
L 293.648778 140.004893 
L 293.995369 140.059255 
L 294.414722 140.125989 
L 294.80633 140.213096 
L 295.052662 140.28254 
L 295.472565 140.395988 
L 295.824883 140.457043 
L 296.193516 140.491066 
L 296.523143 140.525736 
L 296.948113 140.599059 
L 297.33382 140.652882 
L 297.702311 140.673472 
L 298.104175 140.680263 
L 298.47852 140.714255 
L 298.796795 140.729095 
L 299.092662 140.744274 
L 299.505719 140.750896 
L 299.929882 140.757218 
L 300.303284 140.717787 
L 300.694341 140.758041 
L 301.084451 140.71829 
L 301.195914 140.703042 
L 301.591741 140.669852 
L 301.999637 140.72334 
L 302.402433 140.80356 
L 302.821811 140.876881 
L 303.247597 141.016897 
L 303.600083 141.098078 
L 304.002763 141.171588 
L 304.378616 141.332567 
L 304.787595 141.472905 
L 305.185616 141.619979 
L 305.555348 141.747686 
L 305.992054 141.860692 
L 306.277543 141.942891 
L 306.635348 141.997211 
L 307.009833 142.044501 
L 307.379564 142.17221 
L 307.788396 142.292417 
L 308.151802 142.346588 
L 308.520826 142.407452 
L 308.839524 142.4623 
L 309.225114 142.509423 
L 309.579795 142.566901 
L 309.59974 142.570136 
L 310.037168 142.756835 
L 310.445847 142.863741 
L 310.825819 142.904304 
L 311.127836 142.966186 
L 311.536373 143.059684 
L 311.894626 143.160722 
L 312.252147 143.188335 
L 312.626914 143.262341 
L 313.052853 143.422499 
L 313.305062 143.511921 
L 313.674912 143.639503 
L 314.089615 143.786409 
L 314.465072 143.920552 
L 314.863246 144.087781 
L 315.239377 144.27548 
L 315.587748 144.476959 
L 315.947182 144.664846 
L 316.239217 144.827156 
L 316.665558 145.013898 
L 317.074909 145.174379 
L 317.411666 145.342605 
L 317.815582 145.523108 
L 318.096506 145.678889 
L 318.43353 145.867117 
L 318.799395 146.128401 
L 319.109067 146.363963 
L 319.480137 146.591818 
L 319.772547 146.774144 
L 320.138427 147.042153 
L 320.577621 147.375844 
L 321.004226 147.582722 
L 321.386097 147.783553 
L 321.796025 148.004043 
L 322.121685 148.172441 
L 322.497404 148.326723 
L 322.851243 148.514767 
L 323.205086 148.709521 
L 323.631537 148.902967 
L 324.018757 149.090373 
L 324.355904 149.285448 
L 324.732432 149.499735 
L 325.080797 149.701221 
L 325.440523 149.92254 
L 325.783004 150.097464 
L 326.187437 150.317975 
L 326.591603 150.518618 
L 327.012194 150.692097 
L 327.326225 150.820666 
L 327.713428 151.001482 
L 328.106389 151.202163 
L 328.454627 151.396941 
L 328.819797 151.598242 
L 329.206618 151.752229 
L 329.581629 151.83967 
L 329.979376 151.973488 
L 330.357002 152.288181 
L 330.722609 152.536052 
L 331.130746 152.603001 
L 331.545566 152.756488 
L 331.876839 152.931586 
L 332.2241 153.032808 
L 332.633207 153.18646 
L 333.05391 153.366788 
L 333.356312 153.455395 
L 333.764996 153.569046 
L 334.201706 153.688789 
L 334.565819 153.809827 
L 334.913772 153.977897 
L 335.312331 154.178565 
L 335.682567 154.339587 
L 336.008769 154.55484 
L 336.242491 154.96542 
L 338.209978 155.715132 
L 338.546038 155.348731 
L 338.927817 155.081911 
L 339.277413 154.915867 
L 339.6612 154.80932 
L 340.033391 154.676231 
L 340.356178 154.597522 
L 340.762685 154.530655 
L 341.135957 154.484545 
L 341.548474 154.45107 
L 341.922262 154.438252 
L 342.223583 154.440018 
L 342.580564 154.427519 
L 342.958906 154.341127 
L 343.3479 154.201142 
L 343.449703 154.141471 
L 343.864104 153.972188 
L 344.180199 153.806653 
L 344.513272 153.667643 
L 344.924566 153.527191 
L 345.308229 153.41407 
L 345.686556 153.320969 
L 346.12056 153.220315 
L 346.454712 153.168167 
L 346.827703 153.095218 
L 347.217387 153.015372 
L 347.617857 152.901934 
L 348.034368 152.741465 
L 348.372899 152.582175 
L 348.772573 152.408616 
L 349.078137 152.296677 
L 349.461256 152.136846 
L 349.833169 151.977052 
L 350.260756 151.802995 
L 350.60516 151.6704 
L 350.794795 151.589373 
L 351.138596 151.481257 
L 351.53922 151.381126 
L 351.967904 151.30734 
L 352.279869 151.255519 
L 352.407622 151.206673 
L 352.746175 151.060808 
L 353.069375 151.02211 
L 353.459595 150.988982 
L 353.803731 150.829677 
L 354.18153 150.696594 
L 354.543975 150.670664 
L 354.933817 150.610825 
L 355.295872 150.558184 
L 355.713322 150.471147 
L 356.125016 150.36426 
L 356.530716 150.230679 
L 356.808518 150.125941 
L 357.159228 150.060048 
L 357.567364 150.126874 
L 357.990683 150.059823 
L 358.269032 150.001799 
L 358.704257 150.001426 
L 359.105558 149.961569 
L 359.400592 149.903228 
L 359.757842 149.910744 
L 360.141259 149.784213 
L 360.402631 149.699797 
L 360.77497 149.580146 
L 361.169437 149.433446 
L 361.535738 149.267114 
L 361.973726 149.032764 
L 362.397846 149.032562 
L 362.754971 149.033369 
L 363.166681 148.933067 
L 363.528992 148.900433 
L 363.960238 149.033775 
L 364.387652 148.839729 
L 364.702538 148.573939 
L 365.113578 148.420227 
L 365.424749 148.30828 
L 365.830582 148.188129 
L 366.214642 148.101605 
L 366.581756 148.002109 
L 366.915355 147.903118 
L 367.276727 147.790364 
L 367.671477 147.670382 
L 368.043398 147.510602 
L 368.420644 147.330672 
L 368.708973 147.17235 
L 369.119734 146.991916 
L 369.485356 146.772021 
L 369.816911 146.492625 
L 370.253128 146.104734 
L 370.555987 145.765558 
L 370.856362 145.687205 
L 371.28037 145.680301 
L 371.661951 145.861184 
L 371.998263 145.989447 
L 372.375118 145.776097 
L 372.775192 145.629257 
L 373.165417 145.596277 
L 373.587934 145.469117 
L 374.005375 145.375386 
L 374.423381 145.341922 
L 374.763406 145.309632 
L 375.147609 145.236537 
L 375.470272 145.157852 
L 375.765295 145.092943 
L 376.1833 145.059349 
L 376.412266 145.075714 
L 376.747485 145.103711 
L 377.176691 145.063238 
L 377.5672 145.063685 
L 377.947296 145.117593 
L 378.316301 145.178379 
L 378.65166 145.219799 
L 379.048161 145.246809 
L 379.444144 145.233686 
L 379.801385 145.241216 
L 380.180671 145.228411 
L 380.615509 145.201215 
L 380.93335 145.176107 
L 381.284345 145.136957 
L 381.596315 145.085155 
L 382.007615 144.951447 
L 382.302109 144.846407 
L 382.691945 144.786591 
L 383.081476 144.693484 
L 383.391158 144.454567 
L 383.775253 144.38148 
L 384.148786 144.355406 
L 384.543666 144.242017 
L 384.944722 144.188746 
L 385.368176 144.135141 
L 385.708203 144.102859 
L 386.098293 144.063047 
L 386.443518 143.997338 
L 386.827878 143.944386 
L 387.056689 143.940624 
L 387.396845 143.921765 
L 387.792424 143.875226 
L 388.187977 143.822107 
L 388.561522 143.795904 
L 388.913298 143.810302 
L 389.3492 143.870093 
L 389.695652 143.911222 
L 390.10924 143.964636 
L 390.410441 143.959722 
L 390.716964 143.928078 
L 391.118664 143.921526 
L 391.532406 143.995075 
L 391.91742 143.98884 
L 392.330226 143.982122 
L 392.643009 144.003753 
L 393.044999 144.023915 
L 393.324279 144.046181 
L 393.648307 144.081068 
L 394.067104 144.100913 
L 394.485655 144.11418 
L 394.820888 144.148901 
L 395.172666 144.169883 
L 395.580802 144.236874 
L 395.967851 144.404337 
L 396.315519 144.552465 
L 396.750053 144.49186 
L 397.130537 144.572626 
L 397.543761 144.606046 
L 397.922493 144.54641 
L 398.281779 144.727781 
L 398.655842 144.74172 
L 399.012426 144.695841 
L 399.414959 144.762854 
L 399.80665 144.850034 
L 400.153105 144.897882 
L 400.53306 144.938517 
L 400.924652 145.025699 
L 401.041984 145.030589 
L 401.376956 145.051892 
L 401.695087 145.053392 
L 402.113747 145.066666 
L 402.437775 145.101559 
L 402.817744 145.148775 
L 403.247873 145.182015 
L 403.639189 145.249067 
L 404.019423 145.316549 
L 404.439444 145.443384 
L 404.809796 145.617751 
L 405.204554 145.4978 
L 405.590378 145.565002 
L 405.985679 145.491897 
L 406.262016 145.371271 
L 406.641992 145.426518 
L 407.060277 145.414531 
L 407.467178 145.376 
L 407.841408 145.411264 
L 408.148939 145.487533 
L 408.517834 145.549527 
L 408.90288 145.558044 
L 409.299274 145.58641 
L 409.556296 145.623231 
L 409.903057 145.705561 
L 410.261165 145.807859 
L 410.641151 145.863109 
L 411.015817 145.9518 
L 411.379692 146.07395 
L 411.776781 146.169019 
L 412.151443 146.251 
L 412.548671 146.359505 
L 412.918427 146.508351 
L 413.271196 146.630669 
L 413.651628 146.739215 
L 414.077175 146.887359 
L 414.424785 147.056541 
L 414.788923 147.198695 
L 415.147169 147.314287 
L 415.532759 147.376102 
L 415.969008 147.490803 
L 416.3281 147.686401 
L 416.658722 147.829057 
L 416.989356 147.971713 
L 417.409577 148.14659 
L 417.846784 148.348009 
L 418.21091 148.490165 
L 418.647688 148.651569 
L 419.005958 148.773743 
L 419.397718 148.888969 
L 419.755837 148.997853 
L 420.136392 149.113246 
L 420.4949 149.248842 
L 420.886826 149.390664 
L 421.262031 149.526077 
L 421.654081 149.674596 
L 422.034778 149.809992 
L 422.399469 150.00559 
L 422.758269 150.174612 
L 423.156352 150.369697 
L 423.509842 150.57216 
L 423.936105 150.79374 
L 424.277929 150.936234 
L 424.669979 151.084769 
L 425.045181 151.220185 
L 425.471736 151.475071 
L 425.85928 151.723763 
L 426.19553 151.879725 
L 426.598658 152.021516 
L 427.026017 152.343131 
L 427.447234 152.624761 
L 427.851737 152.893285 
L 428.273243 153.20176 
L 428.638351 153.444076 
L 429.009211 153.699679 
L 429.373762 153.888571 
L 429.743942 154.084171 
L 430.10318 154.299925 
L 430.54149 154.608086 
L 430.974743 154.96969 
L 431.368872 155.318389 
L 431.734145 155.587421 
L 432.13492 155.910965 
L 432.505873 156.311848 
L 432.872519 156.707612 
L 433.2947 157.076083 
L 433.711948 157.504588 
L 434.050148 157.84741 
L 434.484547 158.329157 
L 434.794389 158.618892 
L 435.149146 158.94811 
L 435.539337 159.463683 
L 435.722168 159.888551 
L 436.156952 160.397025 
L 436.516298 160.619363 
L 436.859126 160.868611 
L 437.270766 161.297268 
L 437.676844 161.739353 
L 438.088619 162.17459 
L 438.488652 162.569992 
L 438.686746 162.841127 
L 439.076794 163.343413 
L 439.515664 163.711719 
L 439.703969 164.129742 
L 439.870643 164.608232 
L 440.298169 164.963152 
L 440.696616 165.185122 
L 441.077712 165.353838 
L 441.431075 165.549617 
L 441.773177 165.718863 
L 442.143335 165.91434 
L 442.525262 166.163195 
L 442.925415 166.565311 
L 443.214086 166.968813 
L 443.536718 167.431834 
L 443.808557 167.82894 
L 444.209816 168.337775 
L 444.588788 168.846811 
L 445.012356 169.355446 
L 445.452469 169.850345 
L 445.797649 170.3333 
L 446.00837 170.757704 
L 446.274615 171.154841 
L 446.629611 171.504056 
L 447.069012 171.91895 
L 447.379426 172.27554 
L 447.784893 172.644088 
L 448.174662 173.119801 
L 448.264814 173.212045 
L 448.586594 173.588472 
L 448.935833 173.917717 
L 449.352933 174.332945 
L 449.742714 174.815239 
L 450.026042 175.245474 
L 450.157567 175.570904 
L 450.183605 175.93086 
L 450.183007 176.424727 
L 450.226892 176.911364 
L 450.309298 177.33077 
L 450.459156 177.809448 
L 450.64254 178.294339 
L 450.865142 178.785426 
L 451.076412 179.263257 
L 451.287419 179.721101 
L 451.554615 180.211524 
L 451.866002 180.661413 
L 452.132105 181.051843 
L 452.399603 181.575822 
L 452.571198 181.994034 
L 452.737291 182.412393 
L 452.897836 182.850904 
L 453.058326 183.269281 
L 453.224042 183.660929 
L 453.339838 184.07997 
L 453.707703 184.59589 
L 454.13435 184.857512 
L 454.389909 185.301403 
L 454.441782 185.467576 
L 454.618853 185.879191 
L 454.942008 186.389065 
L 455.248456 186.899109 
L 455.554931 187.422457 
L 455.821732 187.879605 
L 455.998635 188.264495 
L 456.18788 188.775965 
L 456.353994 189.201037 
L 456.553918 189.672326 
L 456.748485 190.150343 
L 456.931862 190.635236 
L 457.115199 191.106839 
L 457.219787 191.525916 
L 457.285935 191.998931 
L 457.40213 192.457976 
L 457.663574 192.92855 
L 457.851845 193.33987 
L 457.8399 193.820612 
L 457.928468 194.300007 
L 458.049726 194.71219 
L 458.093284 195.1521 
L 458.209075 195.571142 
L 458.503911 196.047944 
L 458.841927 196.37077 
L 459.247778 196.779462 
L 459.626322 197.255219 
L 459.836735 197.646338 
L 460.042118 198.104189 
L 460.128472 198.370148 
L 460.28392 198.848681 
L 460.3725 199.334788 
L 460.443832 199.767639 
L 460.56575 200.233247 
L 460.721637 200.758493 
L 460.838382 201.270964 
L 461.037743 201.68225 
L 461.070358 202.142341 
L 461.164401 202.614864 
L 461.247244 203.094409 
L 461.185636 203.615715 
L 461.246444 204.115447 
L 461.323405 204.561717 
L 461.411832 205.027691 
L 461.450062 205.494331 
L 461.549571 205.960271 
L 461.855754 206.450318 
L 462.244515 206.832484 
L 462.517582 207.349622 
L 462.58933 207.829319 
L 462.744384 208.274442 
L 462.821719 208.74728 
L 462.926716 209.206492 
L 463.104453 209.678115 
L 463.1539 210.151314 
L 463.202229 210.517782 
L 463.29616 210.99045 
L 463.440648 211.48244 
L 463.528934 211.935123 
L 463.587663 212.228131 
L 463.648355 212.721166 
L 463.686434 213.174516 
L 463.696626 213.628228 
L 463.667578 214.069019 
L 463.655199 214.502916 
L 463.743499 214.962311 
L 463.89909 215.454267 
L 464.032511 215.959713 
L 464.204367 216.404772 
L 464.420253 216.795745 
L 464.603451 217.253929 
L 464.702152 217.646443 
L 464.801781 218.119095 
L 464.89611 218.625055 
L 464.979473 219.144603 
L 465.039459 219.56433 
L 465.111062 220.023908 
L 465.204823 220.469864 
L 465.349321 220.968552 
L 465.493001 221.387261 
L 465.681802 221.851995 
L 465.786794 222.311221 
L 465.864551 222.824062 
L 465.952837 223.283457 
L 466.064108 223.802657 
L 466.175105 224.301724 
L 466.262973 224.714392 
L 466.362501 225.187044 
L 466.512199 225.652306 
L 466.689376 226.070505 
L 466.81047 226.46282 
L 466.879432 226.662117 
L 467.068103 227.113574 
L 467.228171 227.491954 
L 467.359929 227.837376 
L 467.565985 228.35538 
L 467.72102 228.800492 
L 467.876605 229.292449 
L 467.998112 229.724754 
L 468.136187 230.143481 
L 468.285741 230.588729 
L 468.394648 230.88094 
L 468.521339 231.266527 
L 468.676246 231.698349 
L 468.831542 232.163594 
L 468.964829 232.655751 
L 469.080595 233.074665 
L 469.20799 233.533547 
L 469.379714 233.971898 
L 469.541025 234.477129 
L 469.706691 234.855492 
L 469.861986 235.320606 
L 470.062312 235.832035 
L 470.150179 236.251429 
L 470.277133 236.663597 
L 470.427113 237.155586 
L 470.554633 237.627772 
L 470.693384 238.113202 
L 470.803419 238.518974 
L 470.941742 238.957703 
L 471.091985 239.476391 
L 471.214052 239.962003 
L 471.363591 240.407278 
L 471.491138 240.892873 
L 471.537249 241.039209 
L 471.69828 241.517728 
L 471.870404 241.996096 
L 472.01449 242.454665 
L 472.095497 242.747356 
L 472.233952 243.192783 
L 472.361222 243.65168 
L 472.482859 244.090579 
L 472.599173 244.56305 
L 472.676387 245.035915 
L 472.725273 245.455678 
L 472.786206 245.96886 
L 472.891579 246.461366 
L 472.935567 246.954717 
L 473.006585 247.35416 
L 473.111696 247.826796 
L 473.244562 248.278834 
L 473.37154 248.704426 
L 473.482223 249.163491 
L 473.61004 249.669102 
L 473.79324 250.140712 
L 474.020864 250.584962 
L 474.365993 251.067938 
L 474.498433 251.479959 
L 474.558661 251.919716 
L 474.680723 252.405329 
L 474.958429 252.849032 
L 475.175677 253.373572 
L 475.330808 253.812119 
L 475.452197 254.24444 
L 475.635366 254.702642 
L 475.698017 254.828649 
L 476.115067 255.257206 
L 476.543182 255.672294 
L 476.970465 256.000666 
L 477.295984 256.196832 
L 477.627507 256.432985 
L 477.997191 256.588475 
L 478.349351 256.657575 
L 478.735312 256.76617 
L 479.138781 256.948022 
L 479.514756 257.170224 
L 479.907962 257.438959 
L 480.258409 257.895078 
L 480.636755 258.357575 
L 481.008079 258.666499 
L 481.373412 258.942293 
L 481.81202 259.283939 
L 482.137536 259.480096 
L 482.525166 259.76214 
L 482.890608 260.037935 
L 483.233771 260.327351 
L 483.570075 260.483354 
L 483.934166 260.638866 
L 484.332708 260.887586 
L 484.731936 261.19631 
L 485.148426 261.57145 
L 485.587168 261.926377 
L 485.985445 262.148386 
L 486.114 262.173397 
L 486.477938 262.309053 
L 486.821374 262.625185 
L 487.203661 262.927382 
L 487.635833 263.182321 
L 488.033681 263.357486 
L 488.397744 263.506434 
L 488.745703 263.722399 
L 489.178579 264.057344 
L 489.589722 264.446058 
L 489.9124 264.915809 
L 490.332555 265.097489 
L 490.759536 265.39245 
L 491.131155 265.741516 
L 491.513559 266.043717 
L 491.924025 266.372284 
L 492.261164 266.615128 
L 492.626336 266.870798 
L 493.020382 267.226247 
L 493.380091 267.495488 
L 493.734035 267.744599 
L 494.172258 268.059531 
L 494.263284 268.206393 
L 495.593431 269.254827 
L 497.109297 270.361415 
L 497.770569 270.987308 
L 498.585557 271.327058 
L 499.390481 271.739215 
L 500.247954 271.990753 
L 500.874573 272.411536 
L 501.073606 272.824039 
L 501.194433 273.074454 
L 501.447802 273.430697 
L 501.746013 273.685442 
L 502.385651 274.226161 
L 502.93445 274.385388 
L 503.692292 275.088695 
L 504.103145 275.450696 
L 504.45072 275.858259 
L 504.846491 276.155575 
L 505.284551 276.450371 
L 505.670772 276.5857 
L 505.927877 276.635877 
L 506.365236 276.857393 
L 506.601145 277.014618 
L 507.023352 277.403156 
L 507.412896 277.872208 
L 507.769175 278.348201 
L 508.080882 278.838262 
L 508.452357 279.173933 
L 508.838164 279.269262 
L 509.202324 279.418213 
L 509.622602 279.613187 
L 510.055181 279.91486 
L 510.414601 280.157388 
L 510.814122 280.512717 
L 511.214015 280.894878 
L 511.586586 281.337401 
L 511.976773 281.859736 
L 512.336205 282.108859 
L 512.696173 282.404813 
L 513.061593 282.687198 
L 513.488855 283.022314 
L 513.865751 283.331247 
L 514.242012 283.593468 
L 514.591023 283.902892 
L 514.917879 284.232502 
L 515.283061 284.501598 
L 515.642326 284.72401 
L 515.973835 284.966888 
L 516.316297 285.189468 
L 516.686215 285.35841 
L 517.078729 285.567159 
L 517.47683 285.769061 
L 517.910364 286.170735 
L 518.288792 286.639947 
L 518.644388 287.055944 
L 519.003541 287.278478 
L 519.368818 287.547577 
L 519.752048 287.943229 
L 520.179128 288.251625 
L 520.543456 288.427298 
L 520.936666 288.709357 
L 521.32013 289.118287 
L 521.759299 289.533371 
L 522.097076 289.836122 
L 522.467278 290.038492 
L 522.826702 290.287609 
L 523.169422 290.536907 
L 523.518288 290.832903 
L 523.946077 291.221453 
L 524.339832 291.556927 
L 524.660928 291.866559 
L 525.0834 292.281826 
L 525.426515 292.564549 
L 525.774571 292.787133 
L 526.165694 292.855602 
L 526.5579 293.024368 
L 526.765917 293.188646 
L 527.144348 293.664457 
L 527.305067 294.12285 
L 527.650509 294.632446 
L 528.034404 295.094939 
L 528.451257 295.503514 
L 528.878479 295.831933 
L 529.271271 296.073983 
L 529.710679 296.508944 
L 530.105349 296.924573 
L 530.516312 297.299874 
L 530.837141 297.589509 
L 531.240436 297.758102 
L 531.577545 298.000843 
L 531.932581 298.370123 
L 532.288439 298.819541 
L 532.723187 299.341382 
L 533.134136 299.716686 
L 533.43995 300.180068 
L 533.829165 300.615705 
L 534.184582 301.011699 
L 534.607319 301.46028 
L 535.043819 301.595092 
L 535.471458 301.970218 
L 535.838264 302.399473 
L 536.249756 302.828205 
L 536.609827 303.191566 
L 536.823823 303.273585 
L 537.152315 303.384763 
L 537.506563 303.856165 
L 537.943951 304.220211 
L 538.320493 304.691419 
L 538.708195 305.142605 
L 539.09528 305.500205 
L 539.449363 305.945041 
L 539.881134 306.302262 
L 540.302221 306.753208 
L 540.672587 307.104292 
L 541.093684 307.555238 
L 541.480578 307.879561 
L 541.867623 308.223886 
L 542.255361 308.695064 
L 542.687006 309.045708 
L 543.062491 309.316639 
L 543.381861 309.54128 
L 543.718125 309.805744 
L 544.032194 310.070536 
L 544.28987 310.24889 
L 544.710271 310.57958 
L 545.085607 310.837209 
L 545.444123 311.081609 
L 545.864346 311.378863 
L 546.239705 311.643085 
L 546.648862 311.953925 
L 546.990714 312.218376 
L 547.102783 312.297667 
L 547.33289 312.529673 
L 547.686419 312.867651 
L 548.033858 313.125375 
L 548.43707 313.369373 
L 548.857003 313.63335 
L 549.243412 313.877528 
L 549.579417 314.07528 
L 549.915476 314.299877 
L 550.279427 314.51742 
L 550.581634 314.668687 
L 550.967731 314.872863 
L 551.376204 315.063434 
L 551.784428 315.233872 
L 552.165018 315.424656 
L 552.562452 315.642105 
L 552.870138 315.793344 
L 553.28989 316.017177 
L 553.659276 316.208125 
L 554.084767 316.451958 
L 554.42081 316.669834 
L 554.835235 316.927122 
L 555.260738 317.177654 
L 555.641542 317.421866 
L 556.022184 317.64609 
L 556.335755 317.830607 
L 556.722009 318.054816 
L 556.957334 318.213238 
L 557.360732 318.504116 
L 557.780945 318.80138 
L 558.133828 319.039095 
L 558.564602 319.229621 
L 558.877709 319.347424 
L 559.179912 319.498696 
L 559.359175 319.630975 
L 559.689598 319.835461 
L 560.064597 320.039558 
L 560.395211 320.290891 
L 560.804205 320.5749 
L 561.196496 320.865812 
L 561.527107 321.110422 
L 561.885804 321.401562 
L 562.244435 321.659265 
L 562.564118 321.937344 
L 562.945055 322.201564 
L 563.314638 322.439234 
L 563.678705 322.67021 
L 564.099291 323.047619 
L 564.336418 323.513321 
L 564.73323 323.63722 
L 565.096182 323.687918 
L 565.488182 323.938686 
L 565.9079 324.155964 
L 566.260738 324.373682 
L 566.61394 324.664828 
L 566.961405 324.9427 
L 567.297277 325.133754 
L 567.644374 325.331488 
L 568.002539 325.522479 
L 568.377669 325.740005 
L 568.814413 326.010519 
L 569.15046 326.234998 
L 569.538593 326.759624 
L 569.90931 327.191013 
L 570.010309 327.283632 
L 570.380339 327.594735 
L 570.721833 327.792487 
L 571.124394 327.943088 
L 571.509949 328.040442 
L 571.800581 328.125038 
L 572.091102 328.202922 
L 572.488035 328.34025 
L 572.874201 328.531034 
L 573.293964 328.768176 
L 573.646797 328.9859 
L 573.906822 329.366534 
L 574.513069 329.84332 
L 575.295456 330.257762 
L 576.009552 332.719448 
L 576.775542 332.659022 
L 577.203179 332.264765 
L 577.605435 332.368657 
L 577.947402 332.653132 
L 578.300742 332.957709 
L 578.681507 333.20194 
L 579.011794 333.399861 
L 579.402597 333.436938 
L 579.748863 333.494405 
L 580.144681 333.451461 
L 580.465488 333.923121 
L 580.522099 334.062976 
L 580.831041 334.414527 
L 581.200613 334.658923 
L 581.608768 334.809385 
L 582.010821 334.866435 
L 582.334621 334.897517 
L 582.613573 334.902012 
L 582.887222 334.946789 
L 583.172534 335.064818 
L 583.49718 335.242624 
L 583.883218 335.433418 
L 584.240872 335.530992 
L 584.609417 335.581558 
L 584.966601 335.612286 
L 585.396385 335.642547 
L 585.825997 335.645978 
L 586.127675 335.703825 
L 586.485655 335.861407 
L 586.850244 336.199251 
L 587.175402 336.477332 
L 587.555809 336.648011 
L 587.952759 336.792062 
L 588.388481 336.888895 
L 588.717716 336.886411 
L 589.052606 336.917335 
L 589.404186 336.941371 
L 589.794673 336.925162 
L 590.196377 336.922214 
L 590.599103 337.106124 
L 590.964013 337.497397 
L 591.388805 337.621108 
L 591.813659 337.771533 
L 592.189436 338.109219 
L 592.588472 338.600409 
L 592.762607 338.812855 
L 593.126036 338.950411 
L 593.551324 339.160855 
L 593.949228 339.465057 
L 594.358708 339.849366 
L 594.779714 340.29365 
L 595.182557 340.477564 
L 595.47815 340.462005 
L 595.790258 340.406278 
L 596.119233 340.383797 
L 596.521245 340.427568 
L 596.84509 340.478531 
L 597.21926 340.549225 
L 597.644074 340.686233 
L 598.040968 340.803579 
L 598.331467 340.874769 
L 598.621917 340.926089 
L 599.013062 341.03003 
L 599.377172 341.294444 
L 599.791255 341.505056 
L 600.199226 341.615518 
L 600.624201 341.779255 
L 600.998382 341.856663 
L 601.361979 342.020819 
L 601.720721 342.298673 
L 601.916982 342.477504 
L 602.225238 342.708926 
L 602.650102 342.872652 
L 603.052421 342.963143 
L 603.426937 343.100676 
L 603.807535 343.311517 
L 604.232643 343.488652 
L 604.539809 343.553088 
L 604.902734 343.597106 
L 605.181807 343.615168 
L 605.556146 343.71245 
L 605.874513 343.776987 
L 606.293561 343.880594 
L 606.712771 344.017757 
L 607.009315 344.155785 
L 607.445352 344.30618 
L 607.825267 344.396881 
L 608.149728 344.541267 
L 608.575368 344.825271 
L 608.922446 345.029747 
L 609.347602 345.233613 
L 609.694518 345.411244 
L 610.063862 345.602237 
L 610.421992 345.786549 
L 610.785895 346.004126 
L 611.144185 346.215152 
L 611.530529 346.452682 
L 611.877283 346.603734 
L 612.285435 346.754355 
L 612.693538 346.884842 
L 613.123836 347.021849 
L 613.55987 347.172263 
L 613.901318 347.363335 
L 614.259954 347.641211 
L 614.668749 347.905265 
L 615.021263 348.082871 
L 615.418015 348.193535 
L 615.848435 348.337242 
L 616.257056 348.567873 
L 616.665998 348.852062 
L 617.01851 349.029683 
L 617.231383 349.175051 
L 617.594666 349.299204 
L 617.896198 349.337083 
L 618.298227 349.387426 
L 618.711037 349.384458 
L 619.10744 349.421539 
L 619.498946 349.5922 
L 619.623872 349.97861 
L 619.794147 350.478197 
L 620.198622 350.955946 
L 620.584317 351.079909 
L 620.942451 351.264216 
L 621.35736 351.621808 
L 621.616149 352.000471 
L 621.908901 352.459064 
L 622.185146 352.957837 
L 622.438605 353.369953 
L 622.809582 353.848059 
L 623.057773 354.320328 
L 623.362032 354.825461 
L 623.621311 355.290988 
L 623.819142 355.730232 
L 623.994533 356.149667 
L 624.209401 356.65557 
L 624.373713 357.081746 
L 624.476996 357.581766 
L 624.579786 357.995082 
L 624.649426 358.468612 
L 624.66915 358.969268 
L 624.727749 359.469673 
L 624.764301 359.98356 
L 624.800422 360.444022 
L 624.864128 360.857576 
L 624.917236 361.357996 
L 624.892414 361.879024 
L 624.906255 362.346402 
L 624.903565 362.840526 
L 624.850419 363.308336 
L 624.808636 363.802842 
L 624.783037 364.203728 
L 624.785629 364.651135 
L 624.798816 365.004938 
L 624.818245 365.465458 
L 624.843262 365.919371 
L 624.81801 366.386974 
L 624.786972 366.814602 
L 624.700764 367.33606 
L 624.614225 367.804224 
L 624.565706 368.105044 
L 624.512844 368.606278 
L 624.476526 369.087333 
L 624.444489 369.33455 
L 624.38008 369.769112 
L 624.315499 370.170236 
L 624.201279 370.691901 
L 624.114431 371.106653 
L 624.076582 371.300591 
L 624.161124 371.815401 
L 624.065265 372.226348 
L 623.810695 373.092377 
L 623.346241 374.290182 
L 623.014848 375.580279 
L 622.598008 376.811116 
L 622.228064 377.579687 
L 622.048012 377.949675 
L 621.826892 378.674547 
L 620.990584 380.375509 
L 619.904404 381.938598 
L 618.694268 383.389517 
L 617.373164 384.754799 
L 616.388434 385.701229 
L 616.106928 386.005226 
L 615.98373 386.138273 
L 615.639658 386.467918 
L 615.223432 386.845002 
L 614.828793 387.088329 
L 614.433695 387.25823 
L 614.021414 387.348037 
L 613.614795 387.464675 
L 613.181039 387.694807 
L 612.804453 388.185085 
L 612.589208 388.580702 
L 612.179217 389.06448 
L 611.858043 389.474204 
L 611.537392 389.990781 
L 611.22229 390.480629 
L 610.890374 390.957219 
L 610.54742 391.467278 
L 610.115179 391.971252 
L 609.721585 392.408285 
L 609.33918 392.845155 
L 608.912218 393.288978 
L 608.591333 393.73884 
L 608.237305 394.255642 
L 607.882682 394.685582 
L 607.466737 395.096096 
L 607.317069 395.264156 
L 606.901003 395.667816 
L 606.568655 396.094024 
L 606.264418 396.513969 
L 605.87627 396.930857 
L 605.515529 397.260818 
L 605.182455 397.537014 
L 604.827266 397.846826 
L 604.427545 398.183739 
L 604.033275 398.493778 
L 603.649761 398.743796 
L 603.288515 398.986777 
L 602.938456 399.223162 
L 602.560865 399.526446 
L 602.194638 399.863004 
L 601.845572 400.266364 
L 601.48532 400.683047 
L 601.182514 400.994033 
L 600.775643 401.436243 
L 600.471295 401.852508 
L 600.155253 402.188666 
L 599.811034 402.485162 
L 599.395298 402.942253 
L 599.130071 403.378295 
L 598.898187 403.794084 
L 598.638411 404.203266 
L 598.277801 404.54651 
L 597.899396 404.70968 
L 597.509593 404.832733 
L 597.320427 404.907594 
L 596.082654 406.086107 
L 595.661697 406.509279 
L 595.435429 406.931647 
L 595.242317 407.293654 
L 595.055352 407.762497 
L 594.773936 408.285424 
L 594.391228 408.669013 
L 594.002407 408.952346 
L 593.60224 409.22242 
L 593.302359 409.451685 
L 592.880358 409.782089 
L 592.524734 410.031775 
L 592.180309 410.274731 
L 591.874842 410.510724 
L 591.508652 410.860713 
L 591.130575 411.077301 
L 590.78645 411.36696 
L 590.408859 411.663555 
L 589.98028 411.833701 
L 589.568703 412.050515 
L 589.20744 412.273505 
L 588.885 412.476267 
L 588.540428 412.699212 
L 588.201298 412.902139 
L 587.801219 413.158795 
L 587.400718 413.362158 
L 586.983044 413.492154 
L 586.58828 413.708792 
L 586.432175 413.730006 
L 586.109535 413.886055 
L 585.792533 414.055367 
L 585.47548 414.204676 
L 585.208162 414.293459 
L 584.773971 414.450203 
L 584.373274 414.613565 
L 583.989251 414.763339 
L 583.678878 414.958952 
L 583.272085 415.200366 
L 582.8717 415.410706 
L 582.600466 415.574246 
L 582.206646 415.885369 
L 581.80653 416.227565 
L 581.467953 416.712104 
L 581.102554 417.175531 
L 580.713597 417.445585 
L 580.340954 417.635321 
L 579.990626 417.831575 
L 579.584966 418.095109 
L 579.190246 418.331756 
L 578.867921 418.534511 
L 578.506519 418.744219 
L 578.172694 418.900305 
L 577.766251 419.043555 
L 577.421311 419.186369 
L 577.008931 419.26963 
L 576.624277 419.31927 
L 576.29684 419.602182 
L 575.890895 419.825571 
L 575.500741 419.87536 
L 575.093651 419.911761 
L 574.714733 419.974664 
L 574.29144 420.091396 
L 573.879681 420.261377 
L 573.512045 420.370965 
L 573.088414 420.427693 
L 572.787393 420.456558 
L 572.358325 420.540002 
L 572.052041 420.629034 
L 571.623122 420.73248 
L 571.433678 420.773941 
L 571.015698 420.850512 
L 570.636595 420.880139 
L 570.27982 420.92285 
L 569.878804 421.032667 
L 569.494466 421.135738 
L 569.160605 421.271816 
L 568.737489 421.421963 
L 568.497902 421.477121 
L 568.085349 421.526979 
L 567.76219 421.582887 
L 567.382976 421.605793 
L 567.020402 421.608532 
L 566.613271 421.618227 
L 566.188854 421.554687 
L 565.759974 421.671429 
L 565.359434 421.854677 
L 564.960097 422.25176 
L 564.554758 422.56189 
L 564.204127 422.718152 
L 563.78661 422.861577 
L 563.374696 423.011579 
L 563.051764 423.120785 
L 562.734708 423.263398 
L 562.322807 423.420113 
L 561.955499 423.576555 
L 561.844236 423.617403 
L 561.416024 423.854291 
L 561.065855 424.070705 
L 560.737951 424.2802 
L 560.309375 424.443661 
L 559.874884 424.553726 
L 559.490859 424.696928 
L 559.157031 424.853014 
L 558.751573 425.15657 
L 558.407658 425.486388 
L 558.052529 425.802947 
L 557.658312 426.126461 
L 557.258779 426.476704 
L 556.842096 426.767003 
L 556.419675 427.037303 
L 556.031019 427.340669 
L 555.675742 427.637241 
L 555.325878 427.900229 
L 554.936964 428.183594 
L 554.565147 428.500349 
L 554.149132 428.904068 
L 553.799796 429.260617 
L 553.450123 429.563887 
L 553.166805 429.772996 
L 552.728464 430.163634 
L 552.406532 430.446546 
L 552.04002 430.729731 
L 551.761802 430.8587 
L 551.428129 431.034807 
L 551.089331 431.284475 
L 550.734047 431.581052 
L 550.595427 431.72224 
L 550.196093 432.119348 
L 549.813888 432.576282 
L 549.470322 432.966243 
L 549.060049 433.383386 
L 548.660733 433.793641 
L 548.362224 434.256652 
L 547.968983 434.733739 
L 547.535975 435.097654 
L 547.170625 435.57453 
L 546.816161 436.004673 
L 546.444561 436.381439 
L 546.028516 436.765164 
L 545.595194 437.075641 
L 545.222875 437.312133 
L 544.911836 437.548316 
L 544.479306 437.978949 
L 544.164128 438.45542 
L 543.815785 438.978966 
L 543.388746 439.409584 
L 542.956411 439.886933 
L 542.574077 440.323858 
L 542.214335 440.807446 
L 541.854755 441.311024 
L 541.52259 441.747554 
L 541.268451 442.156883 
L 541.047883 442.605843 
L 540.827427 443.061659 
L 540.590292 443.51751 
L 540.392111 443.959839 
L 540.171492 444.38881 
L 539.884411 444.905207 
L 539.725196 445.340449 
L 539.499102 445.77628 
L 539.245484 446.279026 
L 539.125235 446.707313 
L 538.87162 447.216652 
L 538.612553 447.739548 
L 538.453506 448.208214 
L 538.299701 448.603293 
L 538.101864 449.105628 
L 537.904026 449.607963 
L 537.716777 450.030128 
L 537.546638 450.492103 
L 537.42604 450.860385 
L 537.256065 451.349085 
L 537.096867 451.791027 
L 536.675239 452.1815 
L 536.449227 452.650756 
L 536.351015 453.012131 
L 536.203017 453.453908 
L 536.027295 453.922755 
L 535.639867 454.446552 
L 535.380123 454.849189 
L 535.070613 455.352376 
L 534.68776 455.689167 
L 534.378387 456.205645 
L 534.223591 456.433881 
L 534.009098 456.956387 
L 533.821988 457.385133 
L 533.662946 457.853801 
L 533.381093 458.29006 
L 533.11051 458.766145 
L 532.923755 459.261739 
L 532.797518 459.603326 
L 532.638109 459.998422 
L 532.445222 460.393892 
L 532.22445 460.796286 
L 532.042504 461.171591 
L 531.822248 461.611475 
L 531.683188 462.072716 
L 531.549702 462.580789 
L 531.4218 463.075541 
L 531.293803 463.52346 
L 531.149132 464.038144 
L 531.049161 464.499404 
L 530.954629 464.940646 
L 530.904716 465.288182 
L 530.827076 465.769379 
L 530.793921 466.150436 
L 530.766488 466.65162 
L 530.772516 467.079265 
L 530.767263 467.466952 
L 530.762079 467.834505 
L 530.712275 468.349177 
L 530.634593 468.863798 
L 530.584734 469.238048 
L 530.529266 469.612458 
L 530.518657 470.120305 
L 530.563704 470.567983 
L 530.586477 470.968997 
L 530.592478 471.443371 
L 530.570454 471.844397 
L 530.543008 472.225438 
L 530.532276 472.726573 
L 530.538198 473.107516 
L 530.555385 473.51514 
L 530.578076 473.876019 
L 530.612072 474.39729 
L 530.645894 474.778151 
L 530.702113 475.272644 
L 530.775158 475.720228 
L 530.831242 476.034307 
L 530.937773 476.535364 
L 531.022029 477.043198 
L 531.044479 477.17683 
L 531.106349 477.691309 
L 531.168208 478.145649 
L 531.252384 478.620045 
L 531.336587 479.047607 
L 531.471032 479.562006 
L 531.599783 480.029693 
L 531.734178 480.470531 
L 531.83499 480.864752 
L 531.941497 481.305659 
L 532.070319 481.759923 
L 532.193582 482.234219 
L 532.322334 482.708617 
L 532.445583 483.176189 
L 532.585575 483.670569 
L 532.731153 484.158209 
L 532.910301 484.632461 
L 533.050292 485.126842 
L 533.19027 485.614499 
L 533.324715 486.135596 
L 533.408823 486.523023 
L 533.47601 486.790342 
L 533.576861 487.204566 
L 533.63876 487.685607 
L 533.694978 488.126541 
L 533.773553 488.547528 
L 533.885642 489.035265 
L 533.98637 489.38922 
L 534.098381 489.729969 
L 534.27183 490.150825 
L 534.478726 490.611574 
L 534.702449 491.032415 
L 534.859007 491.413039 
L 534.99897 491.840559 
L 535.116559 492.274868 
L 535.245284 492.62886 
L 535.357267 492.9562 
L 535.541927 493.443859 
L 535.748877 493.877896 
L 535.978072 494.285299 
L 536.296681 494.772702 
L 536.659919 495.28682 
L 536.88921 495.687644 
L 537.11842 496.108326 
L 537.342083 496.55575 
L 537.576879 496.969836 
L 537.794998 497.330412 
L 538.040936 497.771193 
L 538.270252 498.245433 
L 538.48825 498.60601 
L 538.762207 499.106848 
L 538.969074 499.447455 
L 539.231755 499.861474 
L 539.483304 500.2488 
L 539.751623 500.682792 
L 539.958488 501.076839 
L 540.131973 501.464259 
L 540.327665 501.931768 
L 540.551363 502.392603 
L 540.775079 502.813303 
L 541.104865 503.294096 
L 541.507125 503.774813 
L 541.831257 504.228792 
L 542.099561 504.656206 
L 542.37917 505.137014 
L 542.725614 505.65791 
L 543.077723 506.151931 
L 543.161642 506.285505 
L 543.390842 506.699492 
L 543.603356 507.120357 
L 543.860458 507.547673 
L 544.167885 507.995122 
L 544.447275 508.362236 
L 544.76022 508.769521 
L 545.067659 509.223681 
L 545.352687 509.610913 
L 545.643304 509.998129 
L 545.928291 510.425511 
L 546.219022 510.919712 
L 546.414748 511.347074 
L 546.554632 511.741172 
L 546.610712 511.948269 
L 546.923624 512.455829 
L 547.348248 512.86965 
L 547.588738 513.337152 
L 547.879399 513.858067 
L 548.23153 514.372226 
L 548.566891 514.846298 
L 548.773744 515.233625 
L 549.036412 515.647637 
L 549.321462 516.108445 
L 549.606631 516.629377 
L 549.902812 517.056715 
L 550.293928 517.517337 
L 550.534311 517.877856 
L 550.780303 518.298641 
L 550.942365 518.579113 
L 551.182783 519.013191 
L 551.473416 519.467273 
L 551.663683 519.968214 
L 552.015691 520.368812 
L 552.345038 520.461956 
L 552.769563 520.835633 
L 553.182993 521.25619 
L 553.546287 521.75703 
L 553.418302 522.278359 
L 553.284775 522.712997 
L 553.480453 523.12036 
L 553.68185 523.587845 
L 553.950194 524.048703 
L 554.260591 524.517205 
L 554.282969 536.237818 
L 554.475537 577.948689 
L 554.515832 586.085542 
L 551.375182 583.605426 
L 544.400959 577.733937 
L 533.968942 568.146118 
L 523.508871 557.418756 
L 514.406056 547.171175 
L 505.343635 535.861935 
L 498.330896 526.322901 
L 490.190567 514.518378 
L 484.048616 504.448116 
L 477.001061 491.228506 
L 469.980746 476.686441 
L 460.959585 455.553671 
L 455.81405 442.204581 
L 454.422457 437.927152 
L 453.46589 434.465132 
L 452.507946 430.359618 
L 452.005101 426.797207 
L 451.710708 424.224139 
L 451.725556 421.526369 
L 452.249422 402.418967 
L 416.839064 384.609251 
L 410.839742 382.437034 
L 405.298324 380.811218 
L 399.856315 379.932068 
L 393.390833 379.480788 
L 369.132896 379.163641 
L 358.269125 379.022007 
L 352.084186 378.588216 
L 347.412444 377.619733 
L 341.035026 375.824438 
L 333.456201 372.973659 
L 318.359689 366.515432 
L 283.445132 350.246894 
L 271.165276 344.425428 
L 271.147289 338.968276 
L 271.144166 322.957839 
L 272.615126 319.826484 
L 275.24648 319.914915 
L 275.635495 319.915375 
L 276.038853 319.85228 
L 276.320127 319.750351 
L 276.498005 319.575865 
L 275.878388 318.795489 
L 275.23383 317.723657 
L 274.754958 316.536571 
L 274.426927 315.281103 
L 274.152168 313.636937 
L 275.147356 310.677357 
L 281.496281 299.905571 
L 283.506212 296.186602 
L 285.222041 292.813554 
L 290.891461 281.815205 
L 289.16268 280.074232 
L 273.773903 264.29924 
L 276.770429 260.099064 
L 274.355251 257.620991 
L 270.007366 263.719316 
L 199.922738 191.8984 
L 197.746838 194.944595 
L 195.022294 192.157858 
L 195.02415 195.113148 
L 172.592194 195.126236 
L 171.507154 195.142588 
L 171.491403 188.977172 
L 142.440646 182.308364 
L 113.082764 178.416614 
L 114.177955 171.76995 
L 115.29153 165.704014 
L 116.673997 159.166253 
L 118.248319 152.894415 
L 119.451289 148.761622 
L 119.772803 148.617287 
L 120.139994 148.47324 
L 120.484543 148.282563 
L 120.851246 148.078381 
L 121.203083 148.114805 
L 121.560823 148.177776 
L 121.93479 148.187273 
L 122.262992 148.050217 
L 122.684696 147.745279 
L 123.034379 147.501159 
L 123.372892 147.270634 
L 123.799394 146.872117 
L 124.204102 146.540544 
L 124.565326 146.336517 
L 124.904444 146.172564 
L 125.298934 145.961438 
L 125.648445 145.697318 
L 125.997833 145.419895 
L 126.34692 145.115642 
L 126.696606 144.871655 
L 127.123923 144.57328 
L 127.512135 144.275328 
L 127.950657 143.976924 
L 128.289011 143.726257 
L 128.627476 143.475603 
L 129.015979 143.204365 
L 129.443164 142.892701 
L 129.775854 142.622068 
L 130.098289 142.458458 
L 130.481678 142.247364 
L 130.820196 142.016846 
L 131.169415 141.719307 
L 131.562583 141.3412 
L 131.944837 140.989966 
L 132.271931 140.712645 
L 132.599165 140.455456 
L 132.95404 140.177899 
L 133.287392 139.987524 
L 133.61516 139.803763 
L 133.94853 139.619849 
L 134.376126 139.341613 
L 134.70339 139.091137 
L 135.12367 138.619238 
L 135.538621 138.16748 
L 135.936892 137.722509 
L 136.296382 137.318069 
L 136.523784 137.148635 
L 136.945166 136.80372 
L 137.299866 136.499454 
L 137.632734 136.248814 
L 137.971044 135.978166 
L 138.391976 135.586407 
L 138.785424 135.228426 
L 139.10709 134.977974 
L 139.445442 134.727329 
L 139.795119 134.476496 
L 140.172571 134.218731 
L 140.505622 133.994951 
L 140.877473 133.737193 
L 141.215988 133.506682 
L 141.599026 133.242186 
L 141.999104 133.024328 
L 142.327021 132.853863 
L 142.693919 132.67641 
L 143.048901 132.398992 
L 143.375721 132.101664 
L 143.736658 131.870808 
L 144.092468 131.700108 
L 144.498797 131.562369 
L 144.871784 131.444901 
L 145.27217 131.260469 
L 145.61692 131.103235 
L 145.995365 130.972325 
L 146.334461 130.795228 
L 146.69048 130.657955 
L 147.074493 130.513603 
L 147.498157 130.455809 
L 147.88831 130.391575 
L 148.239322 130.314458 
L 148.61327 130.317252 
L 149.021542 130.419941 
L 149.328753 130.443393 
L 149.719553 130.459284 
L 150.132949 130.508529 
L 150.541365 130.624378 
L 150.961171 130.773596 
L 151.229805 130.871016 
L 151.599427 131.027409 
L 151.985387 131.130302 
L 152.404736 131.22611 
L 152.784447 131.248769 
L 153.203132 131.257848 
L 153.482475 131.29496 
L 153.87983 131.424407 
L 154.283422 131.633958 
" style="fill:#1a1a1a;stroke:#ffffff;stroke-linejoin:miter;stroke-width:4;"/>
   </g>
  </g>
 </g>
 <defs>
  <clipPath id="p4ba825c7ed">
   <rect height="543.6" width="558" x="90" y="86.4"/>
  </clipPath>
 </defs>
</svg>
