<?xml version="1.0" encoding="utf-8" standalone="no"?>
<!DOCTYPE svg PUBLIC "-//W3C//DTD SVG 1.1//EN"
  "http://www.w3.org/Graphics/SVG/1.1/DTD/svg11.dtd">
<!-- Created with matplotlib (https://matplotlib.org/) -->
<svg height="720pt" version="1.1" viewBox="0 0 720 720" width="720pt" xmlns="http://www.w3.org/2000/svg" xmlns:xlink="http://www.w3.org/1999/xlink">
 <metadata>
  <rdf:RDF xmlns:cc="http://creativecommons.org/ns#" xmlns:dc="http://purl.org/dc/elements/1.1/" xmlns:rdf="http://www.w3.org/1999/02/22-rdf-syntax-ns#">
   <cc:Work>
    <dc:type rdf:resource="http://purl.org/dc/dcmitype/StillImage"/>
    <dc:date>2021-05-07T11:03:06.577922</dc:date>
    <dc:format>image/svg+xml</dc:format>
    <dc:creator>
     <cc:Agent>
      <dc:title>Matplotlib v3.3.3, https://matplotlib.org/</dc:title>
     </cc:Agent>
    </dc:creator>
   </cc:Work>
  </rdf:RDF>
 </metadata>
 <defs>
  <style type="text/css">*{stroke-linecap:butt;stroke-linejoin:round;}</style>
 </defs>
 <g id="figure_1">
  <g id="patch_1">
   <path d="M 0 720 
L 720 720 
L 720 0 
L 0 0 
z
" style="fill:none;"/>
  </g>
  <g id="axes_1">
   <g id="patch_2">
    <path clip-path="url(#p25690301ef)" d="M 556.345626 529.44208 
L 538.440641 530.557985 
L 525.865711 531.333748 
L 517.894194 531.739118 
L 510.489359 532.204897 
L 506.685847 532.483675 
L 502.639624 532.823746 
L 498.593644 533.285827 
L 492.609566 534.198473 
L 487.876773 535.240969 
L 485.126159 535.884682 
L 482.173452 536.650655 
L 478.735724 537.722227 
L 474.610431 538.9776 
L 470.242279 540.233282 
L 465.429489 541.733509 
L 461.021174 543.111282 
L 457.94736 543.999428 
L 454.023858 544.980057 
L 450.50427 545.563676 
L 447.672002 545.841417 
L 443.987674 545.965324 
L 439.981043 545.847841 
L 436.985699 545.515691 
L 433.018351 544.818552 
L 428.807519 543.786135 
L 424.919626 542.356773 
L 422.003235 541.048324 
L 418.438084 539.130511 
L 415.64163 537.12028 
L 413.249781 535.079088 
L 409.313772 531.663559 
L 408.141712 530.641831 
L 396.508698 536.094079 
L 392.49602 537.780472 
L 388.148143 539.214998 
L 382.795373 540.230284 
L 375.545542 540.995573 
L 360.755652 542.025958 
L 329.142259 543.657235 
L 322.113693 543.497495 
L 312.29414 542.4162 
L 303.588544 540.576829 
L 302.189909 543.925841 
L 247.500648 531.078855 
L 242.101151 529.810586 
L 226.904282 526.241316 
L 222.400327 525.161346 
L 217.494096 523.779961 
L 212.706749 522.178355 
L 208.252823 520.444392 
L 203.938911 518.520144 
L 199.597275 516.312901 
L 195.44782 513.917825 
L 170.261714 498.48338 
L 160.214162 492.398979 
L 163.388156 489.482005 
L 167.804004 485.279368 
L 171.40047 481.69658 
L 175.352659 477.602144 
L 178.876907 473.615905 
L 183.10376 468.784785 
L 186.3781 464.745035 
L 190.684107 459.224291 
L 194.127719 454.419861 
L 197.79178 449.061374 
L 201.348172 443.407047 
L 204.25369 438.55637 
L 206.990588 433.494988 
L 209.97542 427.572353 
L 212.497965 422.403621 
L 215.617754 415.096612 
L 218.562732 407.23697 
L 221.005444 399.39435 
L 223.024118 392.262245 
L 224.750218 384.39549 
L 226.160033 376.268705 
L 226.965525 370.011624 
L 227.591978 362.719816 
L 227.928814 354.693528 
L 227.840985 347.187383 
L 227.614127 341.376386 
L 227.103376 335.772051 
L 226.447957 329.853961 
L 225.506486 323.69411 
L 224.46324 318.009555 
L 222.913819 311.312362 
L 221.262219 305.19978 
L 219.464433 299.202408 
L 217.5248 293.635688 
L 216.522479 290.850028 
L 214.512302 285.686953 
L 212.466752 280.658443 
L 210.855039 277.010634 
L 209.692366 274.549864 
L 207.130367 269.046884 
L 204.557808 263.664186 
L 201.575717 258.358932 
L 197.772128 252.131417 
L 193.250968 245.673973 
L 187.703617 238.371488 
L 181.64441 231.223544 
L 175.175583 224.153088 
L 169.359395 218.379791 
L 197.145865 209.039205 
L 243.887433 191.884272 
L 272.98407 182.903034 
L 293.162461 177.914488 
L 310.253864 174.423083 
L 329.942767 172.013128 
L 349.407899 170.796744 
L 367.290227 170.434676 
L 385.627435 171.094951 
L 405.324924 172.776475 
L 427.515884 176.159808 
L 454.23849 181.754076 
L 472.808689 185.823818 
L 494.321827 190.691037 
L 538.747484 199.180433 
L 521.666494 232.92801 
L 518.186414 241.877616 
L 516.502826 248.109581 
L 516.177445 261.013035 
L 516.022104 268.488183 
L 519.568428 284.886485 
L 555.799414 436.636556 
L 577.785838 526.830175 
L 556.345626 529.44208 
" style="stroke:#ffffff;stroke-linejoin:miter;stroke-width:2;"/>
   </g>
  </g>
 </g>
 <defs>
  <clipPath id="p25690301ef">
   <rect height="543.6" width="558" x="90" y="86.4"/>
  </clipPath>
 </defs>
</svg>
