<?xml version="1.0" encoding="utf-8" standalone="no"?>
<!DOCTYPE svg PUBLIC "-//W3C//DTD SVG 1.1//EN"
  "http://www.w3.org/Graphics/SVG/1.1/DTD/svg11.dtd">
<!-- Created with matplotlib (https://matplotlib.org/) -->
<svg height="720pt" version="1.1" viewBox="0 0 720 720" width="720pt" xmlns="http://www.w3.org/2000/svg" xmlns:xlink="http://www.w3.org/1999/xlink">
 <metadata>
  <rdf:RDF xmlns:cc="http://creativecommons.org/ns#" xmlns:dc="http://purl.org/dc/elements/1.1/" xmlns:rdf="http://www.w3.org/1999/02/22-rdf-syntax-ns#">
   <cc:Work>
    <dc:type rdf:resource="http://purl.org/dc/dcmitype/StillImage"/>
    <dc:date>2021-05-28T08:56:50.043959</dc:date>
    <dc:format>image/svg+xml</dc:format>
    <dc:creator>
     <cc:Agent>
      <dc:title>Matplotlib v3.3.3, https://matplotlib.org/</dc:title>
     </cc:Agent>
    </dc:creator>
   </cc:Work>
  </rdf:RDF>
 </metadata>
 <defs>
  <style type="text/css">*{stroke-linecap:butt;stroke-linejoin:round;}</style>
 </defs>
 <g id="figure_1">
  <g id="patch_1">
   <path d="M 0 720 
L 720 720 
L 720 0 
L 0 0 
z
" style="fill:none;"/>
  </g>
  <g id="axes_1">
   <g id="patch_2">
    <path clip-path="url(#p90d0e87cfe)" d="M 456.40957 246.585284 
L 456.87367 247.270614 
L 457.303652 248.070118 
L 457.78501 248.778126 
L 458.146128 249.406357 
L 458.421597 250.057426 
L 458.834205 250.639892 
L 459.521733 251.51902 
L 459.865818 252.215945 
L 460.210012 252.969814 
L 460.468421 253.529485 
L 460.692488 254.249061 
L 460.814016 254.980211 
L 460.987153 255.848428 
L 461.382532 256.556555 
L 462.13821 257.310192 
L 463.219988 258.177872 
L 464.146895 258.874128 
L 465.434071 259.604456 
L 466.721278 260.483393 
L 467.58014 261.351075 
L 468.490262 262.230409 
L 469.109028 262.983997 
L 469.710364 263.794774 
L 470.346268 264.537085 
L 470.724405 265.096624 
L 471.08576 265.838993 
L 471.327106 266.593 
L 471.378941 266.821461 
L 471.432025 267.701295 
L 470.3361 268.204827 
L 469.066052 267.440027 
L 468.138843 266.618129 
L 467.365973 265.864487 
L 466.798674 265.042189 
L 466.025627 264.231581 
L 464.92722 263.455357 
L 463.828902 262.850685 
L 462.525723 262.748559 
L 461.3441 263.240684 
L 460.025432 263.972986 
L 458.741201 264.705025 
L 457.885292 265.425555 
L 457.458149 266.191338 
L 457.237034 266.92287 
L 457.204173 267.688439 
L 457.051388 268.499603 
L 456.898599 269.322475 
L 457.020109 270.167783 
L 457.501435 270.853072 
L 458.61715 271.53788 
L 459.612335 272.03999 
L 460.744403 272.507498 
L 461.927557 272.632498 
L 463.161857 272.722993 
L 464.482515 273.076383 
L 465.700552 273.543797 
L 466.026763 273.703526 
L 466.439533 274.49177 
L 466.526908 275.325656 
L 466.665579 276.17117 
L 465.482089 275.760661 
L 464.571809 274.950003 
L 463.713354 274.242165 
L 462.631872 273.351765 
L 461.568163 272.975349 
L 460.471393 273.13621 
L 459.73576 273.936538 
L 459.308766 274.748007 
L 458.847389 275.445356 
L 458.197199 276.154196 
L 459.07328 277.044823 
L 460.377612 277.763646 
L 461.475471 278.311351 
L 462.676561 278.881908 
L 463.963009 279.315246 
L 465.112259 279.657118 
L 466.261686 280.05616 
L 467.530418 280.283968 
L 468.748073 280.465899 
L 469.811435 280.842071 
L 470.960914 281.412712 
L 472.195806 281.731728 
L 473.361747 281.856528 
L 474.476505 282.164218 
L 475.729224 282.871848 
L 476.038281 283.065822 
L 477.0508 283.75073 
L 478.046364 284.412712 
L 479.36763 285.154493 
L 480.62059 285.839159 
L 481.770092 286.409782 
L 482.868294 286.980236 
L 483.983384 287.425032 
L 485.321589 288.06392 
L 486.505795 288.771609 
L 487.706642 289.376402 
L 489.010632 289.969599 
L 490.005794 290.46026 
L 491.293144 291.281995 
L 492.117021 291.944172 
L 493.404375 292.754447 
L 494.519541 293.370822 
L 495.806576 294.06694 
L 497.128157 294.945607 
L 498.448943 295.516072 
L 499.77015 296.120716 
L 501.056846 296.668253 
L 502.292439 297.433083 
L 503.407771 297.969326 
L 504.471183 298.39122 
L 505.689128 298.824654 
L 506.85547 299.258167 
L 508.142098 299.794201 
L 509.222793 300.113427 
L 510.303409 300.524046 
L 511.384079 300.95743 
L 512.464941 301.345309 
L 513.631249 301.767117 
L 514.660927 302.326402 
L 515.827569 302.885537 
L 517.097072 303.45582 
L 518.33209 303.855038 
L 519.67009 304.425247 
L 520.922229 304.778718 
L 522.13968 305.029125 
L 523.048535 305.26861 
L 524.008986 305.519297 
L 525.192319 305.872642 
L 526.478968 306.271786 
L 527.302204 306.545365 
L 528.331431 306.91034 
L 529.514895 307.332362 
L 530.801593 307.891374 
L 532.019573 308.347561 
L 533.22012 308.860982 
L 534.36921 309.157177 
L 535.209455 309.339549 
L 536.135449 309.556031 
L 537.43929 309.954959 
L 538.622859 310.422671 
L 539.909487 310.970226 
L 540.921589 311.369449 
L 542.087627 311.688596 
L 543.42555 312.110434 
L 544.283213 312.384207 
L 544.849282 312.577911 
L 545.99825 312.96573 
L 547.23342 313.421929 
L 548.485364 313.855346 
L 549.480099 314.048814 
L 550.766138 314.356577 
L 551.897996 314.630057 
L 553.115658 314.960613 
L 554.247515 315.233869 
L 555.482177 315.495981 
L 556.339779 315.746791 
L 557.505858 316.100147 
L 558.740827 316.476418 
L 559.890213 316.887007 
L 561.056289 317.240364 
L 562.205536 317.593988 
L 562.943172 317.901872 
L 563.697987 318.18702 
L 564.864178 318.574851 
L 566.08188 318.939639 
L 567.316899 319.338656 
L 568.208554 319.600894 
L 569.306531 319.95435 
L 570.146954 320.216666 
L 571.055863 320.501651 
L 572.119136 320.729505 
L 573.285019 320.991451 
L 574.330975 321.185099 
L 575.376936 321.367265 
L 575.733712 321.444227 
L 575.747511 330.78908 
L 576.16714 337.40569 
L 576.63397 353.279755 
L 576.868288 399.532253 
L 577.053224 410.875547 
L 576.794549 425.24288 
L 576.360117 431.448019 
L 575.943097 436.543669 
L 575.614453 475.220331 
L 575.571727 497.002507 
L 575.346839 506.485809 
L 575.396703 509.056675 
L 575.836672 531.731386 
L 575.265568 542.981965 
L 575.422198 554.646609 
L 558.345482 554.656153 
L 541.075317 554.665928 
L 523.816683 554.675805 
L 507.663048 554.685172 
L 489.294833 554.695929 
L 473.818932 554.705096 
L 454.782627 554.716476 
L 439.81964 554.725544 
L 420.270357 554.737502 
L 403.123407 554.748141 
L 385.758324 554.759007 
L 368.841546 554.769541 
L 351.245855 554.780631 
L 338.126499 554.788964 
L 333.786223 554.791726 
L 318.612254 554.801486 
L 300.95199 554.812945 
L 259.942466 554.84001 
L 243.418662 554.851115 
L 230.560603 554.859812 
L 226.545695 554.67676 
L 209.946728 554.688099 
L 193.045565 554.699777 
L 176.480185 554.711446 
L 161.59958 554.722121 
L 161.603402 543.601073 
L 161.613421 514.368229 
L 160.946776 505.506783 
L 160.975147 494.326671 
L 161.022515 475.666194 
L 161.085575 472.346438 
L 161.11478 466.58926 
L 161.831412 462.998326 
L 161.891994 461.619687 
L 161.934159 416.422517 
L 161.730998 397.808584 
L 161.746734 386.581211 
L 161.764789 373.721109 
L 255.923551 373.58217 
L 282.361426 373.543862 
L 282.346344 375.87117 
L 297.519174 375.84902 
L 300.916816 375.841562 
L 300.919063 371.315143 
L 301.056827 306.514107 
L 299.404981 306.515213 
L 299.461734 273.278216 
L 299.524617 250.214638 
L 299.481235 247.101198 
L 301.176953 247.10281 
L 301.217242 227.178963 
L 301.235257 218.393295 
L 301.26903 201.822275 
L 301.293072 189.843315 
L 301.2155 161.540188 
L 301.767699 161.675088 
L 303.091283 161.920112 
L 304.362804 162.108231 
L 305.70356 162.341752 
L 306.992736 162.586818 
L 308.213927 162.889583 
L 309.417854 163.169425 
L 310.29512 163.382304 
L 311.584753 163.673305 
L 312.581609 163.839908 
L 313.630102 164.017485 
L 314.730785 164.275136 
L 315.796968 164.509884 
L 317.000951 164.812697 
L 318.188069 165.115507 
L 319.494899 165.406266 
L 320.647184 165.675141 
L 321.851958 166.023415 
L 322.885471 166.407262 
L 324.073136 166.778546 
L 325.381214 167.160926 
L 326.396668 167.475895 
L 327.653594 167.904292 
L 328.789981 168.287324 
L 329.857438 168.624976 
L 331.044211 168.927814 
L 332.04283 169.243008 
L 333.230396 169.59178 
L 334.435193 169.951566 
L 335.536774 170.312125 
L 336.726043 170.797796 
L 338.020015 171.46593 
L 339.365682 172.168028 
L 340.555494 172.733836 
L 341.623826 173.15165 
L 342.865273 173.728679 
L 343.984903 174.157445 
L 345.070435 174.57524 
L 346.138366 174.970068 
L 347.308808 175.353091 
L 348.325013 175.702518 
L 349.341732 176.120597 
L 350.392518 176.538435 
L 351.736774 177.09191 
L 353.066072 177.874192 
L 354.070331 178.692425 
L 355.365622 179.486434 
L 356.381453 179.824359 
L 357.464449 180.047621 
L 358.68339 180.144636 
L 359.905404 180.504414 
L 361.093376 180.887423 
L 362.368358 181.3955 
L 363.436337 181.813324 
L 364.57355 182.265067 
L 365.79771 182.830622 
L 367.072233 183.293242 
L 368.244729 183.824655 
L 369.571429 184.378385 
L 370.640166 184.830435 
L 371.794634 185.304903 
L 372.242249 185.439938 
L 373.250926 186.016799 
L 374.520014 186.335775 
L 375.806436 186.574776 
L 376.869796 186.905472 
L 377.899294 187.31614 
L 379.151586 187.794981 
L 380.266846 188.240001 
L 381.382104 188.684798 
L 382.497185 189.06092 
L 383.66399 189.482894 
L 384.847455 189.824939 
L 385.893681 190.052736 
L 387.043019 190.371832 
L 388.140714 190.690785 
L 389.409856 191.021229 
L 390.57636 191.340555 
L 391.382482 191.591144 
L 392.634752 191.933092 
L 393.869936 192.320768 
L 395.139444 192.822563 
L 396.169018 193.267463 
L 397.266941 193.678039 
L 398.210605 194.031598 
L 399.394352 194.487785 
L 400.561356 195.138105 
L 401.505146 195.674498 
L 402.843702 196.404984 
L 404.130991 197.123821 
L 405.057879 197.660235 
L 406.344827 198.379074 
L 407.563809 199.178148 
L 407.872595 199.372114 
L 409.074112 200.068309 
L 410.08639 200.627369 
L 411.322023 201.197886 
L 412.608807 201.722412 
L 413.912934 202.315819 
L 415.234272 203.046106 
L 416.384207 203.742363 
L 417.654359 204.506934 
L 418.855555 205.214392 
L 420.022948 206.013531 
L 421.293269 206.846778 
L 422.443134 207.531554 
L 423.64441 208.273239 
L 424.434583 209.026871 
L 425.20746 209.757556 
L 426.014519 210.534137 
L 426.54709 211.059271 
L 427.560071 211.904069 
L 428.761966 212.760139 
L 429.55181 213.399615 
L 430.135878 214.016109 
L 430.771065 214.587084 
L 431.647156 215.45478 
L 432.299895 216.151377 
L 433.021156 216.882122 
L 433.708407 217.635625 
L 434.601585 218.446336 
L 434.927847 218.766152 
L 435.769124 219.473797 
L 436.524671 220.158999 
L 437.36609 220.923836 
L 438.310704 221.803165 
L 439.118026 222.556557 
L 439.873396 223.173108 
L 440.594648 223.903833 
L 441.350674 224.634542 
L 441.96905 225.365383 
L 442.810606 226.187638 
L 443.531911 226.941127 
L 444.476282 227.740301 
L 445.300396 228.334036 
L 446.193523 229.144503 
L 447.000756 230.001023 
L 447.73912 230.686022 
L 448.186288 231.474044 
L 448.719207 232.159297 
L 449.166574 233.027454 
L 449.458911 233.541401 
L 449.803093 234.272324 
L 450.044476 234.912194 
L 450.525907 235.780111 
L 450.801694 236.41992 
L 451.060055 237.105254 
L 451.335679 237.80203 
L 451.474308 238.624622 
L 451.629995 239.389981 
L 452.026066 240.235477 
L 452.679054 241.068956 
L 453.349282 241.89118 
L 453.813409 242.599229 
L 454.208877 243.353085 
L 454.398022 243.593124 
L 454.845009 244.31245 
L 455.377866 244.963479 
L 455.876148 245.694479 
L 456.40957 246.585284 
" style="fill:#1a1a1a;stroke:#ffffff;stroke-linejoin:miter;stroke-width:4;"/>
   </g>
  </g>
 </g>
 <defs>
  <clipPath id="p90d0e87cfe">
   <rect height="543.6" width="558" x="90" y="86.4"/>
  </clipPath>
 </defs>
</svg>
