<?xml version="1.0" encoding="utf-8" standalone="no"?>
<!DOCTYPE svg PUBLIC "-//W3C//DTD SVG 1.1//EN"
  "http://www.w3.org/Graphics/SVG/1.1/DTD/svg11.dtd">
<!-- Created with matplotlib (https://matplotlib.org/) -->
<svg height="720pt" version="1.1" viewBox="0 0 720 720" width="720pt" xmlns="http://www.w3.org/2000/svg" xmlns:xlink="http://www.w3.org/1999/xlink">
 <metadata>
  <rdf:RDF xmlns:cc="http://creativecommons.org/ns#" xmlns:dc="http://purl.org/dc/elements/1.1/" xmlns:rdf="http://www.w3.org/1999/02/22-rdf-syntax-ns#">
   <cc:Work>
    <dc:type rdf:resource="http://purl.org/dc/dcmitype/StillImage"/>
    <dc:date>2021-05-28T08:56:52.303525</dc:date>
    <dc:format>image/svg+xml</dc:format>
    <dc:creator>
     <cc:Agent>
      <dc:title>Matplotlib v3.3.3, https://matplotlib.org/</dc:title>
     </cc:Agent>
    </dc:creator>
   </cc:Work>
  </rdf:RDF>
 </metadata>
 <defs>
  <style type="text/css">*{stroke-linecap:butt;stroke-linejoin:round;}</style>
 </defs>
 <g id="figure_1">
  <g id="patch_1">
   <path d="M 0 720 
L 720 720 
L 720 0 
L 0 0 
z
" style="fill:none;"/>
  </g>
  <g id="axes_1">
   <g id="patch_2">
    <path clip-path="url(#pcee1026f97)" d="M 594.389057 307.998213 
L 594.392519 311.913688 
L 532.048237 312.006582 
L 535.224622 316.314487 
L 541.377057 317.313373 
L 544.003524 321.018789 
L 547.422522 335.216113 
L 549.015427 337.776688 
L 555.47414 340.07634 
L 556.533709 345.326373 
L 558.843588 350.029539 
L 552.05358 360.983245 
L 561.667736 374.949879 
L 569.198995 376.715781 
L 569.829527 385.987134 
L 567.715537 397.66075 
L 576.255996 406.475154 
L 581.173287 418.27027 
L 587.972968 413.498421 
L 594.286557 417.297049 
L 594.232313 484.432548 
L 603.974134 505.248846 
L 617.109804 533.277168 
L 586.991192 547.579598 
L 570.31906 555.566181 
L 560.407006 559.751904 
L 552.613978 562.11513 
L 544.705661 563.796554 
L 535.293483 565.067693 
L 526.305336 565.08399 
L 516.192951 564.427248 
L 507.406919 562.417731 
L 498.211284 559.463773 
L 458.307275 544.738129 
L 438.762539 538.180149 
L 429.297995 534.420268 
L 421.128175 531.27643 
L 409.371764 526.95491 
L 399.609017 524.341316 
L 390.943254 523.042354 
L 382.875937 522.532298 
L 375.00874 522.811992 
L 366.445201 523.751637 
L 357.783215 525.613306 
L 350.26398 528.310383 
L 341.386648 532.163989 
L 328.5858 539.101912 
L 308.022197 552.353939 
L 295.797747 559.569456 
L 293.260158 555.239465 
L 291.147332 551.768075 
L 288.717955 548.088852 
L 286.288917 544.687729 
L 283.490615 541.078878 
L 280.365873 537.257869 
L 277.132565 533.571811 
L 275.339544 531.669284 
L 273.428829 529.771697 
L 270.918951 527.37983 
L 267.941187 524.614445 
L 265.494273 522.420426 
L 263.083798 520.271871 
L 261.297386 518.814946 
L 259.403599 517.386692 
L 257.574914 516.098468 
L 255.320888 514.474041 
L 252.7834 512.700452 
L 249.502109 510.450042 
L 246.128151 508.041544 
L 244.203665 506.721138 
L 241.814255 505.084957 
L 240.09897 503.908902 
L 238.411984 502.714054 
L 236.795919 501.593957 
L 235.069834 500.384134 
L 233.311999 499.170734 
L 231.288855 497.774426 
L 229.431771 496.486339 
L 226.573795 494.512266 
L 224.957664 493.37347 
L 222.778278 491.82764 
L 221.190542 490.744986 
L 218.941539 489.199276 
L 216.616653 487.631385 
L 214.224027 485.93592 
L 210.781594 483.529796 
L 207.964037 481.573869 
L 205.316604 479.748931 
L 203.714607 478.628913 
L 202.805351 477.984138 
L 203.412377 478.450906 
L 195.059901 472.652771 
L 194.810902 472.47927 
L 193.842969 471.797263 
L 193.653991 471.662679 
L 193.649071 471.659151 
L 192.496097 470.82773 
L 192.492826 470.825326 
L 192.000252 470.464698 
L 191.346292 469.980859 
L 191.343906 469.979095 
L 191.342271 469.977893 
L 190.814683 469.583309 
L 190.807141 469.577627 
L 190.197492 469.11689 
L 189.058565 468.242375 
L 189.057107 468.24125 
L 187.925622 467.354465 
L 187.92272 467.352176 
L 187.898603 467.333055 
L 187.618394 467.110574 
L 186.798707 466.453198 
L 186.794375 466.449707 
L 186.591065 466.285165 
L 185.677937 465.538652 
L 185.672191 465.533939 
L 185.49482 465.387503 
L 184.563387 464.610925 
L 184.556256 464.604931 
L 184.183559 464.290511 
L 184.143307 464.25647 
L 183.448838 463.664622 
L 183.44738 463.663381 
L 183.446658 463.66276 
L 183.443681 463.660199 
L 183.087816 463.354084 
L 183.085076 463.351718 
L 183.079506 463.346907 
L 182.673837 462.995531 
L 182.654388 462.978616 
L 182.344295 462.708221 
L 182.34347 462.707503 
L 181.972699 462.382109 
L 181.938383 462.351983 
L 181.891337 462.310547 
L 181.722674 462.161698 
L 181.710753 462.151145 
L 181.24774 461.740073 
L 181.246796 461.73922 
L 180.637447 461.193057 
L 180.157757 460.758957 
L 180.156725 460.758026 
L 180.087235 460.694702 
L 179.764643 460.400471 
L 179.074464 459.765007 
L 179.073344 459.763959 
L 178.63015 459.351811 
L 178.439193 459.173138 
L 178.322988 459.064099 
L 178.002431 458.762492 
L 177.997936 458.758262 
L 177.996713 458.757118 
L 177.596889 458.378322 
L 177.589285 458.371085 
L 176.928261 457.73884 
L 176.926964 457.737598 
L 176.908073 457.719398 
L 176.326539 457.156891 
L 176.32228 457.152738 
L 175.865556 456.706836 
L 175.775133 456.61812 
L 174.809822 455.662232 
L 174.808363 455.660777 
L 174.549627 455.401777 
L 174.525444 455.377521 
L 173.761221 454.605202 
L 173.636838 454.47854 
L 173.617974 454.45925 
L 172.719811 453.535823 
L 172.718219 453.534174 
L 172.279681 453.077862 
L 172.253521 453.050576 
L 171.794669 452.56891 
L 171.747993 452.519809 
L 171.685695 452.454174 
L 171.68403 452.452427 
L 171.482692 452.239469 
L 171.433481 452.18734 
L 170.658919 451.360312 
L 170.525829 451.21706 
L 169.639599 450.254354 
L 169.637816 450.252413 
L 168.997547 449.547316 
L 168.630552 449.139463 
L 168.625953 449.134339 
L 168.505089 448.999402 
L 168.092793 448.53698 
L 167.623581 448.006479 
L 167.621709 448.004343 
L 167.619719 448.002072 
L 167.205599 447.530085 
L 167.163796 447.482082 
L 166.627074 446.864736 
L 166.625158 446.862523 
L 166.157236 446.31922 
L 165.638333 445.711266 
L 165.636358 445.708956 
L 165.251104 445.253823 
L 164.657432 444.546146 
L 164.655428 444.543739 
L 164.011682 443.767559 
L 163.739417 443.436371 
L 163.684445 443.369454 
L 163.682411 443.366969 
L 163.231603 442.814523 
L 163.216787 442.796313 
L 162.719475 442.181306 
L 162.717411 442.178743 
L 162.379177 441.757188 
L 162.265497 441.614668 
L 161.762581 440.981779 
L 161.760487 440.979139 
L 161.599628 440.775305 
L 161.50116 440.650313 
L 160.841494 439.806521 
L 160.813836 439.770971 
L 160.811728 439.768273 
L 160.777892 439.724666 
L 160.611866 439.510438 
L 159.887999 438.568162 
L 159.873329 438.548999 
L 159.871191 438.546222 
L 159.493746 438.049621 
L 159.26853 437.751389 
L 159.172206 437.623533 
L 158.941119 437.315958 
L 158.938966 437.313104 
L 158.918015 437.285106 
L 158.664617 436.945938 
L 158.649135 436.925181 
L 158.036654 436.09816 
L 158.017294 436.071928 
L 158.015142 436.068996 
L 157.621008 435.531412 
L 157.615508 435.523859 
L 157.101929 434.817004 
L 157.099762 434.814014 
L 157.091283 434.802266 
L 157.04367 434.736168 
L 156.661803 434.205557 
L 156.660388 434.203577 
L 156.62628 434.155847 
L 156.195082 433.551304 
L 156.192914 433.548274 
L 155.296856 432.274924 
L 155.294688 432.271836 
L 154.794361 431.550829 
L 154.407281 430.98798 
L 154.405113 430.984835 
L 154.154926 430.618661 
L 154.136418 430.591512 
L 153.529395 429.694902 
L 153.528274 429.693251 
L 153.52646 429.690552 
L 153.524307 429.687347 
L 153.45514 429.584285 
L 153.453193 429.581392 
L 153.433519 429.552087 
L 153.207582 429.215013 
L 153.19366 429.194214 
L 152.654452 428.382735 
L 152.652314 428.379511 
L 152.372801 427.955248 
L 151.791346 427.064684 
L 151.789208 427.061402 
L 151.564565 426.714307 
L 151.525642 426.654121 
L 150.958071 425.769165 
L 150.937186 425.736459 
L 150.935062 425.733138 
L 150.63992 425.268552 
L 150.120424 424.443429 
L 150.092045 424.398175 
L 150.089936 424.394835 
L 149.951209 424.1728 
L 149.94612 424.164663 
L 149.255997 423.04995 
L 149.253903 423.04657 
L 149.065518 422.739342 
L 148.429102 421.691879 
L 148.427037 421.68848 
L 148.193179 421.299821 
L 148.136709 421.205423 
L 147.611433 420.324081 
L 147.609398 420.320662 
L 147.600177 420.305065 
L 147.339016 419.862766 
L 146.80305 418.946651 
L 146.801058 418.943232 
L 146.354377 418.171037 
L 146.016049 417.580762 
L 146.004025 417.559725 
L 146.002063 417.556287 
L 145.873366 417.330455 
L 145.845761 417.281951 
L 145.457612 416.595571 
L 145.214433 416.163382 
L 145.2125 416.159944 
L 144.808519 415.435321 
L 144.590353 415.041061 
L 144.58662 415.034301 
L 144.465849 414.815043 
L 144.434303 414.757757 
L 144.432414 414.754338 
L 144.428607 414.747384 
L 144.063206 414.079758 
L 143.663724 413.342967 
L 143.661879 413.339529 
L 143.249076 412.570461 
L 142.902754 411.919089 
L 142.900939 411.91569 
L 142.764424 411.657334 
L 142.757503 411.644221 
L 142.159777 410.502287 
L 142.151454 410.486279 
L 142.149683 410.482899 
L 142.147779 410.479227 
L 142.013692 410.220574 
L 141.434041 409.091804 
L 141.409881 409.044634 
L 141.408155 409.041273 
L 141.40051 409.026236 
L 141.287342 408.803693 
L 141.251774 408.733676 
L 140.775049 407.787987 
L 140.678096 407.594271 
L 140.676413 407.590929 
L 140.674539 407.58716 
L 140.489117 407.215151 
L 139.956157 406.135305 
L 139.954533 406.132002 
L 139.941588 406.10554 
L 139.807049 405.830393 
L 139.244122 404.667834 
L 139.242543 404.66459 
L 139.229907 404.638263 
L 139.132425 404.434764 
L 139.020432 404.200819 
L 139.005124 404.168761 
L 138.546481 403.201418 
L 138.542037 403.192014 
L 138.540531 403.188808 
L 138.511701 403.127567 
L 138.495094 403.092283 
L 138.157689 402.371486 
L 137.849975 401.707922 
L 137.848529 401.704794 
L 137.644016 401.260296 
L 137.615184 401.197576 
L 137.604082 401.173386 
L 137.167996 400.215713 
L 137.13339 400.139216 
L 136.496143 398.715485 
L 136.4948 398.712493 
L 136.44014 398.588855 
L 136.417712 398.538121 
L 136.27514 398.21524 
L 136.2739 398.212442 
L 136.272822 398.209994 
L 135.834462 397.207374 
L 135.833192 397.204459 
L 135.666822 396.820305 
L 135.183024 395.691476 
L 135.181814 395.688639 
L 135.169749 395.66025 
L 134.913847 395.055731 
L 134.905401 395.035736 
L 134.541877 394.167948 
L 134.540725 394.165189 
L 134.325034 393.645342 
L 134.279915 393.535803 
L 133.911062 392.636866 
L 133.909969 392.634224 
L 133.29064 391.098387 
L 133.289621 391.095841 
L 133.284171 391.082122 
L 133.018874 390.413902 
L 133.016792 390.408616 
L 132.680656 389.552626 
L 132.679696 389.550197 
L 132.475179 389.024255 
L 132.230518 388.38913 
L 132.081152 387.999701 
L 132.080266 387.997389 
L 132.071269 387.973757 
L 131.724347 387.058855 
L 131.710563 387.022203 
L 131.6585 386.883464 
L 131.593923 386.711415 
L 131.492189 386.439747 
L 131.420164 386.246573 
L 131.256846 385.806487 
L 131.256092 385.804427 
L 131.251158 385.791036 
L 130.91449 384.874689 
L 130.913825 384.872881 
L 130.913072 384.870841 
L 130.773027 384.485999 
L 130.771535 384.481899 
L 130.490475 383.702842 
L 130.478358 383.669161 
L 130.475462 383.661057 
L 130.346076 383.29922 
L 130.345396 383.297316 
L 129.937965 382.145113 
L 129.932734 382.130226 
L 129.921074 382.096933 
L 129.789 381.718899 
L 129.788394 381.71717 
L 129.678589 381.401249 
L 129.243958 380.135865 
L 129.243322 380.134038 
L 129.242657 380.132055 
L 129.242036 380.130228 
L 128.707076 378.538804 
L 128.706603 378.537385 
L 128.600529 378.217196 
L 128.183144 376.941848 
L 128.182302 376.939263 
L 128.181888 376.937999 
L 127.80629 375.768425 
L 127.805817 375.766948 
L 127.678181 375.36453 
L 127.669532 375.337221 
L 127.668378 375.333586 
L 127.664786 375.322216 
L 127.171398 373.741524 
L 127.162526 373.712737 
L 126.673233 372.104277 
L 126.671177 372.097396 
L 126.461971 371.396241 
L 126.424155 371.269216 
L 126.421685 371.260838 
L 126.192114 370.480915 
L 126.190768 370.476289 
L 126.189925 370.473431 
L 126.177693 370.43127 
L 125.861249 369.339046 
L 125.857004 369.324273 
L 125.830008 369.229978 
L 125.721995 368.851904 
L 125.721329 368.849591 
L 125.647395 368.589312 
L 125.262963 367.217517 
L 125.165198 366.863615 
L 124.815892 365.581096 
L 124.815566 365.579871 
L 124.814989 365.577772 
L 124.798506 365.516558 
L 124.791003 365.488663 
L 124.379303 363.937121 
L 124.378178 363.932805 
L 123.954156 362.289265 
L 123.897406 362.065572 
L 123.540187 360.636461 
L 123.497757 360.464241 
L 123.448205 360.262335 
L 123.137395 358.978843 
L 123.134849 358.96821 
L 123.134419 358.966421 
L 122.743115 357.304826 
L 122.742863 357.303737 
L 122.362484 355.636046 
L 122.362173 355.634685 
L 122.3493 355.577197 
L 122.280787 355.270667 
L 121.993104 353.962608 
L 121.992793 353.961189 
L 121.992274 353.958778 
L 121.780309 352.972424 
L 121.779894 352.970499 
L 121.779138 352.96698 
L 121.773833 352.941939 
L 121.648891 352.35044 
L 121.635405 352.286456 
L 121.635094 352.284998 
L 121.634768 352.283404 
L 121.538864 351.824029 
L 121.310611 350.709992 
L 121.309825 350.706104 
L 121.241471 350.367263 
L 120.975474 349.024661 
L 120.96975 348.995361 
L 120.890196 348.585859 
L 126.6032 348.822669 
L 127.909406 348.876824 
L 129.732506 348.952402 
L 145.585326 349.609915 
L 155.948628 350.039981 
L 156.874556 350.078353 
L 158.726484 350.1537 
L 160.578554 350.224812 
L 161.504666 350.25788 
L 163.357057 350.31729 
L 165.209682 350.365384 
L 165.401079 350.369603 
L 167.342625 350.403752 
L 169.284281 350.422347 
L 169.687908 350.424259 
L 171.22593 350.425386 
L 171.42025 350.424834 
L 173.167646 350.41287 
L 175.109237 350.384798 
L 175.109811 350.384797 
L 175.840093 350.370201 
L 177.05066 350.341173 
L 178.991854 350.281972 
L 180.932733 350.207237 
L 181.986632 350.160139 
L 181.991342 350.159913 
L 182.873238 350.116948 
L 184.813295 350.011124 
L 186.752962 349.889726 
L 188.134724 349.793761 
L 188.691785 349.752833 
L 190.630013 349.600387 
L 192.567616 349.432406 
L 194.273275 349.271622 
L 194.504286 349.248911 
L 196.440215 349.049902 
L 198.375122 348.835398 
L 200.309023 348.60538 
L 200.360247 348.599072 
L 200.405335 348.593518 
L 202.241843 348.359868 
L 204.173466 348.098882 
L 206.103877 347.82242 
L 206.51959 347.760837 
L 206.524696 347.760067 
L 206.525123 347.760007 
L 208.032988 347.530504 
L 209.960724 347.223133 
L 211.887013 346.900307 
L 212.628006 346.771957 
L 212.628742 346.771819 
L 212.630272 346.771562 
L 213.811826 346.562066 
L 215.734985 346.208409 
L 217.656623 345.839337 
L 218.71958 345.628419 
L 219.576329 345.454909 
L 221.494338 345.055085 
L 223.410473 344.639904 
L 224.791326 344.330912 
L 225.323499 344.209642 
L 225.324676 344.209367 
L 227.236858 343.763513 
L 229.146975 343.302342 
L 230.844897 342.879099 
L 231.054896 342.825873 
L 232.960679 342.334126 
L 234.864132 341.827121 
L 236.765227 341.304878 
L 236.874144 341.274473 
L 238.638643 340.774554 
L 238.66389 340.767395 
L 240.560062 340.214733 
L 241.484873 339.939382 
L 241.507192 339.932658 
L 242.45367 339.646871 
L 242.879423 339.516994 
L 242.88166 339.516308 
L 244.344625 339.063849 
L 246.232884 338.465685 
L 248.118358 337.852421 
L 248.859311 337.607015 
L 249.995722 337.225797 
L 250.000974 337.224035 
L 251.880687 336.580606 
L 253.757411 335.922095 
L 254.808203 335.546355 
L 254.818133 335.542792 
L 255.631085 335.24858 
L 257.501636 334.560061 
L 259.368991 333.856577 
L 260.731104 333.333195 
L 261.232194 333.138481 
L 261.233092 333.138129 
L 263.093864 332.404775 
L 264.951234 331.656514 
L 266.617235 330.971486 
L 266.627944 330.967027 
L 266.805143 330.893386 
L 268.655518 330.115411 
L 270.502286 329.322628 
L 272.345402 328.515075 
L 272.445899 328.470574 
L 272.469626 328.460055 
L 274.184764 327.692752 
L 276.020326 326.855719 
L 277.852017 326.003995 
L 278.282339 325.8015 
L 279.677924 325.138478 
L 279.679777 325.137599 
L 281.503518 324.256589 
L 283.323196 323.360967 
L 284.052933 322.997129 
L 284.058375 322.994393 
L 285.138723 322.45079 
L 286.950054 321.526078 
L 288.757116 320.586889 
L 289.787957 320.043599 
L 290.558777 319.63379 
L 290.559822 319.633223 
L 292.358126 318.66512 
L 294.151971 317.682639 
L 295.476718 316.946245 
L 295.481689 316.943452 
L 295.941267 316.685817 
L 297.725957 315.674655 
L 299.505981 314.649211 
L 299.50782 314.648137 
L 301.12044 313.704439 
L 301.281281 313.609545 
L 303.051768 312.555656 
L 304.817399 311.487602 
L 306.578085 310.405423 
L 306.578644 310.405071 
L 306.713051 310.321753 
L 308.333797 309.309157 
L 310.084432 308.198863 
L 311.829961 307.074542 
L 312.254582 306.798419 
L 313.57028 305.936251 
L 315.305361 304.784049 
L 317.03513 303.617955 
L 317.74733 303.132739 
L 317.748697 303.131802 
L 318.759513 302.438029 
L 320.478452 301.244308 
L 322.191902 300.036852 
L 323.18275 299.330506 
L 323.896026 298.818334 
L 323.899761 298.815661 
L 325.602 297.580831 
L 327.298544 296.332383 
L 328.564728 295.388968 
L 328.565551 295.388344 
L 328.566434 295.3877 
L 328.989336 295.070355 
L 330.674301 293.794806 
L 332.353396 292.505775 
L 333.888265 291.311656 
L 333.894897 291.306448 
L 334.026546 291.20332 
L 335.69368 289.8875 
L 337.354766 288.558314 
L 339.009733 287.215861 
L 339.151142 287.100302 
L 340.658491 285.860178 
L 342.301011 284.491287 
L 343.937234 283.109283 
L 344.350963 282.756896 
L 345.567073 281.714187 
L 347.190498 280.306057 
L 348.807538 278.884853 
L 349.488068 278.281124 
L 350.417811 277.450908 
L 352.021581 276.003987 
L 353.618776 274.544169 
L 354.558327 273.676552 
L 355.209087 273.071745 
L 356.792689 271.58652 
L 358.369466 270.088632 
L 359.559829 268.945049 
L 359.560696 268.944211 
L 359.561285 268.943646 
L 359.93933 268.578138 
L 361.50225 267.055096 
L 363.058139 265.519567 
L 363.05883 265.518884 
L 364.494222 264.084939 
L 364.606981 263.971587 
L 366.148675 262.411235 
L 366.5221 262.030335 
L 367.159849 261.377133 
L 367.378409 261.152449 
L 367.400167 261.130053 
L 367.581092 260.943632 
L 367.670666 260.851377 
L 367.71077 260.810073 
L 367.951396 260.56167 
L 368.021093 260.489589 
L 368.296662 260.203725 
L 368.321521 260.17786 
L 368.369637 260.128059 
L 368.458872 260.03561 
L 369.018285 259.453983 
L 369.040439 259.430983 
L 369.046452 259.424726 
L 369.089878 259.379389 
L 369.190197 259.274682 
L 369.311038 259.148553 
L 369.354832 259.102768 
L 369.543177 258.904739 
L 370.72982 257.657138 
L 370.730423 257.656495 
L 370.732231 257.654565 
L 372.242992 256.04724 
L 373.74803 254.426061 
L 374.139836 254.000699 
L 374.144305 253.995846 
L 374.176116 253.961174 
L 374.625516 253.4715 
L 374.642627 253.452848 
L 374.647551 253.447469 
L 375.105402 252.946593 
L 375.2457 252.792725 
L 376.181533 251.761811 
L 376.186104 251.756763 
L 376.22794 251.710458 
L 376.472503 251.439621 
L 376.525497 251.380901 
L 376.735794 251.147484 
L 376.854833 251.015175 
L 378.218959 249.489637 
L 378.854117 248.773389 
L 379.448171 248.100061 
L 379.693991 247.82047 
L 380.280353 247.151224 
L 381.161346 246.139534 
L 382.620963 244.44687 
L 383.489089 243.43025 
L 383.716718 243.162447 
L 383.723259 243.154769 
L 384.072903 242.742398 
L 385.516768 241.026605 
L 385.655656 240.860449 
L 386.952852 239.299142 
L 386.960054 239.290413 
L 387.389617 238.769549 
L 387.391778 238.766938 
L 387.453555 238.69188 
L 388.181566 237.804272 
L 388.380993 237.560183 
L 388.796881 237.049794 
L 389.801134 235.809845 
L 391.153232 234.123395 
L 391.213214 234.048128 
L 391.427715 233.778644 
L 392.527505 232.389051 
L 392.61719 232.275149 
L 393.26343 231.451752 
L 393.271264 231.441757 
L 393.831093 230.724669 
L 394.013004 230.490947 
L 395.224963 228.924056 
L 395.400595 228.695619 
L 396.209499 227.638913 
L 396.779965 226.889165 
L 396.922732 226.700926 
L 398.150996 225.071722 
L 398.710369 224.323847 
L 399.343545 223.472803 
L 399.513688 223.243289 
L 400.699576 221.633901 
L 400.867937 221.404022 
L 401.233831 220.903237 
L 402.046414 219.78514 
L 402.213744 219.553902 
L 403.388367 217.920597 
L 403.539441 217.709292 
L 403.551051 217.693045 
L 403.625647 217.588571 
L 404.879783 215.82151 
L 404.962886 215.703694 
L 405.073206 215.547171 
L 405.462801 214.9931 
L 406.199911 213.939374 
L 407.511303 212.046775 
L 408.559766 210.516931 
L 408.814135 210.143517 
L 409.602689 208.980195 
L 410.10804 208.230106 
L 411.243179 206.532064 
L 411.393356 206.306037 
L 412.302919 204.930153 
L 412.334438 204.882198 
L 412.669716 204.371893 
L 412.903617 204.014861 
L 413.19838 203.563792 
L 413.789371 202.655485 
L 413.937192 202.427518 
L 415.051053 200.698908 
L 415.195712 200.473049 
L 415.514783 199.97369 
L 416.445246 198.508544 
L 417.617956 196.642585 
L 417.68575 196.534042 
L 418.331125 195.49709 
L 418.344687 195.475198 
L 418.535121 195.167918 
L 418.774027 194.781545 
L 418.917165 194.54964 
L 420.004584 192.776684 
L 420.139461 192.555417 
L 420.246717 192.379237 
L 421.352596 190.55143 
L 421.488837 190.324811 
L 422.556509 188.537757 
L 423.601626 186.769114 
L 423.751157 186.514477 
L 423.94231 186.188368 
L 424.936511 184.481667 
L 425.268343 183.908001 
L 426.112511 182.439405 
L 427.278849 180.388216 
L 427.279187 180.387632 
L 428.436303 178.326777 
L 428.951596 177.400526 
L 429.080694 177.16766 
L 429.081487 177.166219 
L 429.462844 176.476346 
L 429.584008 176.256567 
L 430.055043 175.399266 
L 430.72208 174.177431 
L 431.578279 172.595549 
L 431.850828 172.088764 
L 432.212377 171.414047 
L 432.543414 170.793818 
L 432.969854 169.991327 
L 434.079293 167.884846 
L 434.332232 167.400763 
L 435.070771 165.978978 
L 435.178937 165.76973 
L 435.62151 164.910662 
L 436.036612 164.100765 
L 436.268918 163.645746 
L 437.349135 161.513049 
L 438.419542 159.371757 
L 439.431718 157.320645 
L 439.480111 157.221907 
L 440.530798 155.063618 
L 441.474394 153.100393 
L 441.570647 152.898815 
L 441.572233 152.895505 
L 442.114396 151.7552 
L 442.115233 151.753448 
L 450.999775 151.736035 
L 595.859754 151.31601 
L 595.808316 307.994263 
L 594.389057 307.998213 
" style="fill:#1a1a1a;stroke:#ffffff;stroke-linejoin:miter;stroke-width:4;"/>
   </g>
  </g>
 </g>
 <defs>
  <clipPath id="pcee1026f97">
   <rect height="543.6" width="558" x="90" y="86.4"/>
  </clipPath>
 </defs>
</svg>
