<?xml version="1.0" encoding="utf-8" standalone="no"?>
<!DOCTYPE svg PUBLIC "-//W3C//DTD SVG 1.1//EN"
  "http://www.w3.org/Graphics/SVG/1.1/DTD/svg11.dtd">
<!-- Created with matplotlib (https://matplotlib.org/) -->
<svg height="720pt" version="1.1" viewBox="0 0 720 720" width="720pt" xmlns="http://www.w3.org/2000/svg" xmlns:xlink="http://www.w3.org/1999/xlink">
 <metadata>
  <rdf:RDF xmlns:cc="http://creativecommons.org/ns#" xmlns:dc="http://purl.org/dc/elements/1.1/" xmlns:rdf="http://www.w3.org/1999/02/22-rdf-syntax-ns#">
   <cc:Work>
    <dc:type rdf:resource="http://purl.org/dc/dcmitype/StillImage"/>
    <dc:date>2021-05-07T11:03:01.629970</dc:date>
    <dc:format>image/svg+xml</dc:format>
    <dc:creator>
     <cc:Agent>
      <dc:title>Matplotlib v3.3.3, https://matplotlib.org/</dc:title>
     </cc:Agent>
    </dc:creator>
   </cc:Work>
  </rdf:RDF>
 </metadata>
 <defs>
  <style type="text/css">*{stroke-linecap:butt;stroke-linejoin:round;}</style>
 </defs>
 <g id="figure_1">
  <g id="patch_1">
   <path d="M 0 720 
L 720 720 
L 720 0 
L 0 0 
z
" style="fill:none;"/>
  </g>
  <g id="axes_1">
   <g id="patch_2">
    <path clip-path="url(#pe2111ff53a)" d="M 558.021981 368.89001 
L 590.638033 471.466041 
L 594.617476 478.700401 
L 600.215384 504.657776 
L 600.642834 531.621596 
L 597.18383 554.39272 
L 591.929223 569.506645 
L 582.198204 587.779608 
L 581.557204 587.495031 
L 580.927497 587.25535 
L 580.267098 587.015843 
L 579.586895 586.821279 
L 578.966269 586.530207 
L 578.159347 586.131136 
L 577.454778 585.737981 
L 576.7323 585.466802 
L 576.062891 585.297907 
L 575.27818 585.001407 
L 574.574041 584.621018 
L 573.902887 584.3623 
L 573.242985 584.148351 
L 572.58962 583.748401 
L 571.894302 583.29729 
L 571.097734 582.911111 
L 570.36627 582.716997 
L 569.645072 582.516302 
L 568.965391 582.353877 
L 568.336158 582.139883 
L 567.727049 581.906375 
L 567.066941 581.692543 
L 566.395962 581.433827 
L 565.795403 581.116932 
L 565.154137 580.819445 
L 564.4628 580.56734 
L 563.770298 580.270324 
L 562.985254 579.948136 
L 562.313838 579.676644 
L 561.652439 579.392106 
L 560.992024 579.152594 
L 560.275103 578.650409 
L 559.590547 578.224957 
L 558.85579 577.857539 
L 558.121718 577.515917 
L 557.461325 577.282745 
L 556.666512 576.992709 
L 555.8943 576.805257 
L 555.225199 576.662051 
L 554.516325 576.5704 
L 553.833782 576.247678 
L 553.261058 575.776522 
L 552.606436 575.318891 
L 551.890694 574.867933 
L 551.114939 574.494383 
L 550.681485 574.343224 
L 549.877888 574.130254 
L 549.405488 574.082012 
L 548.695853 573.951904 
L 547.890968 573.66848 
L 547.163786 573.382633 
L 546.525158 572.990793 
L 545.770263 572.642757 
L 544.377817 571.966581 
L 543.369464 571.813495 
L 542.194204 571.293635 
L 541.646276 571.048718 
L 541.18074 570.706218 
L 540.958734 570.465462 
L 540.593035 570.068873 
L 539.441696 569.664322 
L 537.86619 569.422487 
L 536.387237 569.02623 
L 534.889792 568.699587 
L 533.674782 568.097838 
L 530.889556 567.033939 
L 528.445567 566.025949 
L 528.278317 565.884753 
L 527.473134 565.58197 
L 526.822803 565.342468 
L 526.161881 565.083614 
L 525.437867 564.741877 
L 524.766906 564.49607 
L 524.147452 564.262594 
L 523.393269 563.946702 
L 522.690647 563.656159 
L 522.007842 563.320558 
L 521.223314 563.036976 
L 520.451328 562.862305 
L 519.858445 562.410675 
L 519.103018 562.036956 
L 518.307659 561.714932 
L 517.668325 561.507299 
L 516.999402 561.364096 
L 516.268404 561.195688 
L 515.474338 560.950584 
L 514.77193 560.660044 
L 514.140907 560.356108 
L 513.472214 560.225685 
L 513.236008 560.201639 
L 512.504222 559.988194 
L 511.698084 559.646959 
L 510.932833 559.286291 
L 510.199299 558.989476 
L 509.467024 558.750351 
L 508.798051 558.600838 
L 508.180132 558.450854 
L 507.54961 558.172602 
L 506.878153 557.907446 
L 506.165928 557.636282 
L 505.567831 557.447692 
L 504.761939 557.119226 
L 504.090682 556.854071 
L 503.408419 556.557064 
L 502.713253 556.112409 
L 502.069348 555.673885 
L 501.346877 555.415517 
L 500.656068 555.201887 
L 499.914741 555.02705 
L 499.205582 554.922644 
L 498.55853 554.85621 
L 497.879279 554.706718 
L 497.270144 554.479675 
L 496.672042 554.291076 
L 495.886959 553.975372 
L 495.100348 553.576297 
L 494.334067 553.164272 
L 494.218953 553.043126 
L 493.882401 552.6026 
L 493.659364 552.186956 
L 493.374329 551.765326 
L 492.97516 551.261022 
L 492.464908 550.834435 
L 492.240634 550.367555 
L 492.129973 549.944763 
L 491.88663 549.548635 
L 491.252496 549.084291 
L 490.834262 548.657179 
L 490.497654 548.203762 
L 490.262806 547.717656 
L 490.059439 547.276299 
L 489.826131 546.867125 
L 489.582005 546.432526 
L 489.388876 545.978122 
L 489.25839 545.594088 
L 489.177567 545.11977 
L 488.983957 544.646263 
L 488.871998 544.152877 
L 488.782177 543.749308 
L 488.640305 543.294683 
L 488.426591 542.840439 
L 488.203098 542.418471 
L 487.969255 541.977277 
L 487.714859 541.549033 
L 487.566017 541.267633 
L 487.301278 540.826753 
L 486.98502 540.36684 
L 486.689143 539.90678 
L 486.60442 539.76609 
L 486.370067 539.299226 
L 486.095307 538.871129 
L 485.871024 538.40425 
L 485.594969 537.905571 
L 485.340818 537.483767 
L 485.13864 537.093648 
L 484.883702 536.626944 
L 484.649399 536.172973 
L 484.373829 535.699964 
L 484.140566 535.303696 
L 483.97912 534.900481 
L 483.611044 534.408781 
L 483.325709 533.961609 
L 483.021317 533.597842 
L 482.724927 533.112101 
L 482.409403 532.69066 
L 482.17533 532.24948 
L 481.962624 531.846727 
L 481.717725 531.373555 
L 481.432387 530.926258 
L 481.147764 530.511094 
L 480.914984 530.140381 
L 480.714878 529.859443 
L 480.440091 529.431371 
L 480.186395 529.028797 
L 479.963139 528.613169 
L 479.677271 528.14019 
L 479.392412 527.712249 
L 479.013808 527.214228 
L 478.771718 526.88213 
L 478.477613 526.518348 
L 478.130952 526.084306 
L 478.004243 525.892697 
L 477.781746 525.515516 
L 477.456203 525.11345 
L 477.181152 524.666136 
L 476.99828 524.211717 
L 476.836833 523.814968 
L 476.632889 523.335154 
L 476.428442 522.835983 
L 476.266226 522.394309 
L 476.123358 521.901252 
L 475.930446 521.459742 
L 475.583548 521.012936 
L 475.319553 520.610379 
L 475.054054 520.130928 
L 474.881779 519.702176 
L 474.750216 519.260327 
L 474.64 518.856791 
L 474.48683 518.357285 
L 474.313512 517.870843 
L 474.130455 517.416425 
L 473.949103 517.039053 
L 473.612499 516.598544 
L 473.215834 516.222653 
L 472.900068 515.794763 
L 472.654923 515.308815 
L 472.369043 514.835837 
L 472.206802 514.394164 
L 472.229546 513.977005 
L 472.282919 513.553219 
L 472.264193 513.11701 
L 472.194226 512.681148 
L 472.082711 512.207133 
L 471.974804 511.925428 
L 471.812588 511.490207 
L 471.54711 511.017197 
L 471.374523 510.562762 
L 471.285723 510.210431 
L 471.19487 509.755487 
L 470.868299 509.302058 
L 470.67538 508.86056 
L 470.533286 508.405963 
L 470.248392 507.978011 
L 470.116564 507.516819 
L 469.614835 507.01963 
L 468.900532 506.652207 
L 468.337958 506.181064 
L 468.155121 505.733099 
L 468.084877 505.28446 
L 467.922404 504.836462 
L 467.780996 504.407408 
L 467.669269 503.926953 
L 467.782467 503.425757 
L 467.630253 502.964712 
L 467.45746 502.510417 
L 467.397534 502.068075 
L 467.031231 501.672654 
L 466.816726 501.179953 
L 466.530302 500.674969 
L 466.306292 500.227322 
L 466.175228 499.811169 
L 466.012471 499.343815 
L 465.726854 498.883742 
L 465.568189 498.628042 
L 465.190823 498.187854 
L 464.804212 497.811823 
L 464.108682 497.354419 
L 463.362979 496.961493 
L 462.741915 496.651121 
L 462.200188 496.192712 
L 461.987436 495.789835 
L 461.907402 495.366895 
L 461.684606 494.970613 
L 461.521871 494.509711 
L 461.543819 494.047514 
L 461.197893 493.652062 
L 460.717521 493.199641 
L 460.504026 492.758304 
L 460.382486 492.303536 
L 460.190318 491.900626 
L 459.853458 491.447216 
L 459.516524 490.981028 
L 459.159031 490.521451 
L 458.791695 490.068343 
L 458.48648 489.659669 
L 458.138763 489.167929 
L 457.813724 488.797887 
L 457.32351 488.358375 
L 456.760397 487.855216 
L 456.197336 487.364847 
L 455.603577 486.874643 
L 455.278228 486.478906 
L 455.182918 486.319143 
L 454.713359 485.892376 
L 453.929445 485.640846 
L 453.253535 485.144828 
L 453.040775 484.741953 
L 452.736291 484.365413 
L 452.441409 483.963176 
L 452.146427 483.541581 
L 451.841251 483.139361 
L 451.525964 482.737283 
L 451.034468 482.233517 
L 450.545536 481.858148 
L 449.973398 481.425614 
L 449.482456 480.954109 
L 449.094756 480.513928 
L 448.706572 480.05453 
L 448.297568 479.582388 
L 447.96062 479.116202 
L 447.685274 478.655989 
L 447.533862 478.252762 
L 447.453229 477.784898 
L 447.454328 477.310083 
L 447.406486 476.964013 
L 447.164824 476.651137 
L 446.644243 476.237499 
L 445.928065 475.77381 
L 445.161694 475.3746 
L 444.520008 475.058056 
L 443.928775 474.696151 
L 443.763132 474.607465 
L 443.046976 474.150104 
L 442.301978 473.795773 
L 441.731629 473.452939 
L 440.924282 473.054049 
L 440.272018 472.718307 
L 439.782824 472.336489 
L 439.395648 471.928457 
L 438.761421 471.464133 
L 437.952764 470.988325 
L 437.174508 470.499312 
L 436.478192 470.009912 
L 435.740924 469.520706 
L 435.241453 469.138919 
L 434.648654 468.69376 
L 434.118255 468.305824 
L 433.383022 467.91922 
L 432.681275 467.679966 
L 432.001153 467.492029 
L 431.372582 467.329312 
L 430.723318 467.141086 
L 430.023098 466.978878 
L 429.290999 466.76547 
L 428.50547 466.424243 
L 428.199226 465.96421 
L 427.853238 465.562313 
L 427.046865 465.208216 
L 426.330198 464.725306 
L 425.966224 464.46463 
L 425.23121 464.084482 
L 424.474623 463.666034 
L 423.728502 463.241004 
L 422.97216 462.828883 
L 422.342255 462.58925 
L 421.681999 462.375489 
L 420.883134 461.88663 
L 420.547204 461.478152 
L 419.830273 460.982468 
L 419.178449 460.66595 
L 418.609151 460.387392 
L 417.810993 459.924229 
L 417.18959 459.594632 
L 416.422947 459.182657 
L 415.647239 458.828401 
L 414.973569 458.447904 
L 414.291986 458.062486 
L 413.55561 457.751422 
L 412.884463 457.492769 
L 412.160298 457.157522 
L 411.364247 456.809867 
L 410.558902 456.513594 
L 409.898845 456.306162 
L 409.218684 456.118109 
L 408.548863 455.936503 
L 407.867452 455.690761 
L 407.196609 455.457792 
L 406.422141 455.161217 
L 405.678914 454.903052 
L 404.904976 454.632286 
L 404.119756 454.323078 
L 403.379054 454.186756 
L 402.761234 454.036811 
L 402.049167 453.797713 
L 401.265423 453.55266 
L 400.576033 453.422468 
L 399.855688 453.279662 
L 399.227626 453.142665 
L 398.444418 452.929633 
L 397.794922 452.73498 
L 397.06349 452.547421 
L 396.404237 452.384919 
L 395.73416 452.196867 
L 395.034675 452.066694 
L 394.314328 451.923904 
L 393.624934 451.793714 
L 392.904815 451.657364 
L 392.246099 451.526999 
L 391.546875 451.416057 
L 390.888871 451.311373 
L 390.16906 451.200592 
L 389.510781 451.083132 
L 388.708252 450.927954 
L 388.039214 450.791282 
L 387.235897 450.597633 
L 386.46379 450.429502 
L 385.856289 450.292349 
L 385.248809 450.155196 
L 384.58902 449.967144 
L 383.787464 449.856868 
L 383.078987 449.797437 
L 382.420752 449.686305 
L 381.751691 449.549634 
L 381.112999 449.386979 
L 380.331106 449.244549 
L 379.632107 449.140191 
L 378.983935 449.022591 
L 378.304553 448.879487 
L 377.574692 448.775168 
L 376.886295 448.69635 
L 376.15669 448.604948 
L 375.488112 448.48751 
L 374.799708 448.40224 
L 374.101529 448.349122 
L 373.443546 448.250771 
L 372.806414 448.171616 
L 372.334165 448.136215 
L 371.605839 448.108944 
L 370.898363 448.100756 
L 370.220561 448.041153 
L 369.655509 447.967826 
L 368.967905 447.933922 
L 368.220272 447.970967 
L 367.451722 447.982492 
L 366.753562 447.929376 
L 366.245824 448.045349 
L 365.519505 448.115634 
L 364.810599 448.051024 
L 364.085278 448.166347 
L 363.404798 447.998707 
L 362.633059 447.876765 
L 361.934424 447.811886 
L 361.215426 447.747421 
L 360.425115 447.715463 
L 359.726966 447.670068 
L 359.131604 447.636521 
L 358.362365 447.62376 
L 357.777835 447.622318 
L 357.162364 447.601836 
L 356.946781 447.597135 
L 356.227276 447.513316 
L 355.529154 447.474248 
L 354.892584 447.428247 
L 354.172896 447.344429 
L 353.433289 447.280002 
L 352.778108 447.324111 
L 352.090812 447.31071 
L 351.430666 447.136335 
L 350.73479 447.193671 
L 349.975539 447.16154 
L 349.276445 447.083889 
L 348.478039 447.142156 
L 347.83924 446.999743 
L 347.128084 446.83874 
L 346.378182 446.774333 
L 345.73183 446.75416 
L 345.115879 446.720779 
L 344.34684 446.708024 
L 343.577351 446.688944 
L 342.981987 446.655403 
L 342.468842 446.633996 
L 341.730233 446.614612 
L 341.15553 446.593815 
L 340.397049 446.600274 
L 339.689631 446.606268 
L 338.929428 446.535557 
L 338.191352 446.541856 
L 337.628151 446.57228 
L 337.07473 446.577004 
L 336.314811 446.52565 
L 335.678245 446.486108 
L 334.877326 446.428624 
L 334.23098 446.414782 
L 333.544635 446.439973 
L 332.817852 446.491043 
L 332.091022 446.535787 
L 331.466026 446.553918 
L 331.045612 446.557535 
L 330.339395 446.608444 
L 329.705086 446.671619 
L 328.988341 446.709895 
L 328.363582 446.740931 
L 327.585534 446.792469 
L 326.84864 446.843685 
L 326.123096 446.952699 
L 325.436771 446.977768 
L 324.731043 447.048035 
L 324.162038 447.277736 
L 323.44632 447.367251 
L 322.730042 447.424759 
L 322.188944 447.525747 
L 321.433229 447.654298 
L 320.860021 447.704101 
L 320.215109 447.741741 
L 319.631113 447.76588 
L 318.832149 447.792027 
L 318.135255 447.804338 
L 317.478867 447.797098 
L 316.751295 447.809715 
L 316.02277 447.783747 
L 315.406589 447.743925 
L 314.728585 447.685484 
L 314.030204 447.633656 
L 313.312688 447.633226 
L 312.524072 447.672137 
L 311.908148 447.645221 
L 311.48745 447.629487 
L 310.719413 447.661785 
L 310.177344 447.72419 
L 309.584488 447.79984 
L 308.87856 447.870115 
L 308.253804 447.901159 
L 307.485768 447.933332 
L 306.718769 448.023448 
L 305.942443 448.145702 
L 305.22545 448.17741 
L 304.490361 448.318585 
L 303.797935 448.523705 
L 303.18 448.40039 
L 302.47889 448.226484 
L 301.699825 448.233123 
L 301.147922 448.308452 
L 300.591454 448.634544 
L 299.789957 449.007472 
L 299.180763 449.276089 
L 298.508975 449.487502 
L 297.754249 449.660975 
L 297.22448 449.81319 
L 296.531333 449.986179 
L 295.847973 450.139795 
L 295.122666 450.255148 
L 294.458688 450.363553 
L 293.845738 450.458726 
L 293.17121 450.554383 
L 292.465544 450.637569 
L 291.719874 450.753085 
L 291.148133 450.860714 
L 290.392896 451.008496 
L 289.81433 451.264033 
L 289.029007 451.450594 
L 288.236643 451.322395 
L 287.570939 451.35377 
L 286.81447 451.450203 
L 286.158295 451.449427 
L 285.379024 451.449621 
L 284.574272 451.674931 
L 283.901237 451.834847 
L 283.17645 451.975887 
L 282.492321 452.090923 
L 282.012081 452.172082 
L 281.307596 452.293732 
L 280.651192 452.286506 
L 280.109101 452.342596 
L 279.371757 452.380916 
L 278.572082 452.381275 
L 278.06065 452.43706 
L 277.282851 452.501525 
L 276.532949 452.437276 
L 275.88856 452.500628 
L 275.378131 452.601325 
L 274.632704 452.729752 
L 273.876267 452.832517 
L 273.10925 452.916196 
L 272.444017 452.966807 
L 271.727729 453.024337 
L 271.061777 453.049267 
L 270.367616 453.177216 
L 269.735308 453.330375 
L 269.018323 453.362225 
L 268.424481 453.399431 
L 267.80243 453.539668 
L 267.567699 453.58663 
L 266.9945 453.636452 
L 266.206842 453.707392 
L 265.470744 453.80366 
L 264.839049 453.907605 
L 264.490617 453.985507 
L 263.857815 454.112986 
L 263.072175 454.280329 
L 262.388827 454.433959 
L 261.684892 454.587624 
L 261.123453 454.695245 
L 260.3891 454.862108 
L 259.767089 455.015254 
L 259.001799 455.169532 
L 258.265982 455.278594 
L 257.549984 455.35536 
L 256.864657 455.425495 
L 256.250691 455.475631 
L 255.45326 455.572402 
L 254.758128 455.661912 
L 254.053192 455.770669 
L 253.297488 455.905703 
L 252.685506 456.03935 
L 252.104718 456.1985 
L 251.343305 456.361252 
L 251.156254 456.418622 
L 250.441522 456.553207 
L 249.746364 456.636266 
L 249.090452 456.648282 
L 248.53681 456.646585 
L 247.850019 456.658908 
L 247.092068 456.691092 
L 246.406225 456.735423 
L 245.659315 456.79971 
L 245.066233 456.875383 
L 244.382375 457.003338 
L 243.677211 457.105774 
L 243.03487 457.265414 
L 242.333395 457.52194 
L 241.715924 457.874207 
L 238.100898 457.153416 
L 237.671462 456.758675 
L 237.072104 456.551726 
L 236.391839 456.396915 
L 235.659533 456.203988 
L 235.020209 456.042402 
L 234.351194 455.926033 
L 233.548791 455.81091 
L 232.797882 455.701643 
L 232.242255 455.616454 
L 231.469262 455.443083 
L 230.717576 455.295357 
L 230.079525 455.198041 
L 229.470848 455.029698 
L 228.708667 454.882131 
L 227.958762 454.817765 
L 227.287003 454.579456 
L 226.59316 454.276902 
L 225.862345 454.148247 
L 225.173306 454.064179 
L 224.462568 453.916132 
L 223.791612 453.722596 
L 223.151765 453.535333 
L 222.429745 453.342393 
L 221.718306 453.168552 
L 221.141311 453.044943 
L 220.368524 452.878156 
L 219.625915 452.685254 
L 218.882818 452.473249 
L 218.253549 452.305072 
L 217.592595 452.092292 
L 216.952514 451.898579 
L 216.260688 451.692558 
L 215.641222 451.505008 
L 214.92975 451.324832 
L 214.146196 451.138848 
L 213.496051 450.951606 
L 212.845914 450.770817 
L 212.155574 450.622487 
L 211.557211 450.460584 
L 210.804016 450.248601 
L 210.102374 450.055517 
L 209.318538 449.856619 
L 208.51157 449.535801 
L 207.839308 449.278131 
L 207.30204 449.102839 
L 206.620241 448.883773 
L 206.051256 448.657298 
L 205.379021 448.406094 
L 204.75978 448.225127 
L 204.243615 448.075355 
L 203.501467 447.901816 
L 202.882714 447.740079 
L 202.13058 447.585789 
L 201.347228 447.406251 
L 200.810648 447.250203 
L 200.150231 447.069563 
L 199.51014 446.875857 
L 198.819044 446.695398 
L 198.087445 446.534621 
L 197.397588 446.405653 
L 196.635619 446.264413 
L 195.956063 446.141753 
L 195.49266 446.055781 
L 194.710045 445.901801 
L 194.021456 445.830649 
L 193.364553 445.804102 
L 192.706304 445.706962 
L 191.955665 445.61707 
L 191.400745 445.557576 
L 190.702591 445.518578 
L 189.951692 445.415796 
L 189.147969 445.236299 
L 189.111321 445.233189 
L 188.459638 445.177928 
L 187.751161 445.132623 
L 187.165591 445.07989 
L 186.487552 445.021375 
L 185.819836 444.969294 
L 185.068656 444.853723 
L 184.389318 444.730941 
L 183.701245 444.685475 
L 183.043822 444.633251 
L 182.519269 444.554222 
L 181.716872 444.445576 
L 181.037533 444.322795 
L 180.306217 444.181395 
L 179.554766 444.046471 
L 178.864181 443.891702 
L 178.124302 443.821028 
L 177.476651 443.742979 
L 176.694319 443.608363 
L 175.923761 443.537871 
L 175.18367 443.460746 
L 174.43421 443.409321 
L 173.706925 443.44123 
L 173.502124 443.455891 
L 172.785344 443.494108 
L 172.066822 443.455407 
L 171.38074 443.493317 
L 170.60139 443.487239 
L 169.842445 443.480872 
L 169.298825 443.466279 
L 168.714032 443.452011 
L 168.026217 443.41933 
L 167.287838 443.412801 
L 166.610779 443.393006 
L 165.902088 443.341259 
L 165.121255 443.270765 
L 164.515605 443.237432 
L 163.838285 443.204721 
L 163.190942 443.146022 
L 162.419419 443.03695 
L 161.966814 442.970186 
L 161.247279 442.886439 
L 160.476767 442.822279 
L 159.839948 442.770014 
L 159.121193 442.724728 
L 158.433599 442.692037 
L 157.683443 442.621378 
L 156.902108 442.525357 
L 156.398245 442.465392 
L 155.616389 442.343551 
L 154.854667 442.215222 
L 154.113821 442.10596 
L 153.324282 441.98149 
L 153.075117 441.960682 
L 152.417709 441.908456 
L 151.718527 441.818098 
L 150.988755 441.747279 
L 150.679177 441.72606 
L 151.400496 439.132259 
L 152.438142 435.160022 
L 153.230518 432.01121 
L 153.999644 429.251272 
L 154.720867 426.705979 
L 155.586443 423.670016 
L 156.163651 421.676691 
L 156.931087 418.54894 
L 157.360442 416.629233 
L 157.161473 414.813292 
L 157.117658 412.033328 
L 157.245389 411.234938 
L 157.616431 410.308344 
L 157.814281 409.406883 
L 157.708358 408.503397 
L 157.580059 407.79739 
L 157.32445 406.589433 
L 157.372688 405.568239 
L 157.49841 404.92243 
L 157.461502 403.873416 
L 157.358194 402.360499 
L 157.121879 399.879431 
L 156.592546 396.612074 
L 156.426026 395.341357 
L 155.935873 393.627391 
L 155.253499 392.075151 
L 154.865482 391.611824 
L 154.324196 391.082148 
L 154.524332 390.65571 
L 154.731312 390.163169 
L 154.833563 389.637984 
L 154.857108 389.063726 
L 154.747242 387.899093 
L 154.558746 386.701783 
L 154.371145 385.701342 
L 154.23706 384.963313 
L 154.233718 384.225037 
L 154.223914 383.194041 
L 153.725442 381.828526 
L 153.231373 380.428453 
L 152.762537 378.931701 
L 152.476528 378.127055 
L 152.035715 377.145565 
L 151.646505 376.228379 
L 151.180086 375.263027 
L 150.071306 372.851146 
L 143.609011 361.368456 
L 142.48929 358.606013 
L 141.962015 357.546482 
L 141.543288 356.62944 
L 140.500363 354.365926 
L 139.562296 352.6657 
L 138.762972 350.648961 
L 137.633109 347.13982 
L 137.445732 346.50906 
L 136.98943 345.073588 
L 136.491992 343.586901 
L 135.665813 340.921504 
L 135.20461 339.229063 
L 134.74726 337.562778 
L 134.246185 335.281012 
L 133.745107 332.999245 
L 133.492773 331.460828 
L 133.281359 330.120562 
L 132.941498 327.325548 
L 132.770919 325.786984 
L 132.554183 323.09434 
L 132.465049 321.478682 
L 132.418304 320.19638 
L 132.411871 318.785756 
L 132.439178 315.810543 
L 132.515114 314.528007 
L 132.68408 312.265226 
L 132.810683 310.717511 
L 132.960207 309.501402 
L 133.084041 308.317753 
L 133.308133 306.453068 
L 133.482554 305.026165 
L 133.607633 304.118102 
L 133.712086 302.947203 
L 134.039676 299.794732 
L 134.464091 296.769438 
L 135.323668 293.055977 
L 139.49805 279.979444 
L 146.333665 258.01655 
L 150.161761 248.133755 
L 153.425479 242.093088 
L 156.817677 236.44923 
L 161.155736 230.009629 
L 168.76128 221.484572 
L 201.586791 190.713706 
L 226.605593 167.561702 
L 268.451095 128.641255 
L 268.471649 128.622129 
L 268.47352 128.620392 
L 389.71311 179.172577 
L 498.903058 224.332566 
L 543.222244 242.77696 
L 605.588129 269.035671 
L 598.539857 275.726874 
L 595.381828 279.268876 
L 591.99777 285.095654 
L 575.219948 316.357414 
L 572.318232 321.639731 
L 569.949616 327.365694 
L 567.76274 334.25807 
L 562.873854 352.127053 
L 561.205099 355.629693 
L 558.561233 358.856052 
L 555.560994 361.5274 
L 552.293136 363.699165 
L 558.021981 368.89001 
" style="stroke:#ffffff;stroke-linejoin:miter;stroke-width:2;"/>
   </g>
  </g>
 </g>
 <defs>
  <clipPath id="pe2111ff53a">
   <rect height="543.6" width="558" x="90" y="86.4"/>
  </clipPath>
 </defs>
</svg>
