<?xml version="1.0" encoding="utf-8" standalone="no"?>
<!DOCTYPE svg PUBLIC "-//W3C//DTD SVG 1.1//EN"
  "http://www.w3.org/Graphics/SVG/1.1/DTD/svg11.dtd">
<!-- Created with matplotlib (https://matplotlib.org/) -->
<svg height="720pt" version="1.1" viewBox="0 0 720 720" width="720pt" xmlns="http://www.w3.org/2000/svg" xmlns:xlink="http://www.w3.org/1999/xlink">
 <metadata>
  <rdf:RDF xmlns:cc="http://creativecommons.org/ns#" xmlns:dc="http://purl.org/dc/elements/1.1/" xmlns:rdf="http://www.w3.org/1999/02/22-rdf-syntax-ns#">
   <cc:Work>
    <dc:type rdf:resource="http://purl.org/dc/dcmitype/StillImage"/>
    <dc:date>2021-05-28T08:56:48.249006</dc:date>
    <dc:format>image/svg+xml</dc:format>
    <dc:creator>
     <cc:Agent>
      <dc:title>Matplotlib v3.3.3, https://matplotlib.org/</dc:title>
     </cc:Agent>
    </dc:creator>
   </cc:Work>
  </rdf:RDF>
 </metadata>
 <defs>
  <style type="text/css">*{stroke-linecap:butt;stroke-linejoin:round;}</style>
 </defs>
 <g id="figure_1">
  <g id="patch_1">
   <path d="M 0 720 
L 720 720 
L 720 0 
L 0 0 
z
" style="fill:none;"/>
  </g>
  <g id="axes_1">
   <g id="patch_2">
    <path clip-path="url(#pcd685e69be)" d="M 396.971355 254.19854 
L 418.614689 254.255041 
L 446.305672 254.242246 
L 479.199629 254.361767 
L 507.368265 254.479238 
L 513.075645 254.483863 
L 538.530786 254.663271 
L 571.58808 254.659129 
L 571.621972 278.903169 
L 579.648175 282.129133 
L 579.667585 302.230241 
L 579.686284 321.838345 
L 579.705306 341.447063 
L 574.744741 341.420353 
L 574.761237 366.169331 
L 568.42899 366.139119 
L 568.447571 396.085963 
L 571.510757 399.298941 
L 571.655492 406.223842 
L 571.530017 421.946076 
L 571.716245 460.658898 
L 571.663444 488.18084 
L 571.553814 518.257786 
L 571.555046 527.708686 
L 472.247069 527.50516 
L 162.862646 527.747726 
L 167.472918 476.659976 
L 173.502493 410.452799 
L 174.561435 385.30724 
L 173.479143 349.340447 
L 169.365854 319.323403 
L 164.546655 297.535439 
L 158.294694 275.048497 
L 185.242187 275.039309 
L 208.841499 275.04263 
L 236.60582 275.10955 
L 242.149015 275.121046 
L 265.31233 275.177735 
L 265.355009 256.510286 
L 265.733954 253.613911 
L 267.149953 253.19857 
L 268.1264 252.598961 
L 268.986676 251.888804 
L 269.870648 250.409042 
L 270.547124 248.384399 
L 270.546338 245.933739 
L 270.652044 226.681163 
L 270.392234 188.652274 
L 346.755578 189.443171 
L 347.266926 193.526877 
L 347.438087 200.292783 
L 347.494163 222.751691 
L 347.435591 244.954596 
L 347.451098 248.101681 
L 347.677285 249.859718 
L 348.600312 251.602972 
L 349.897253 252.903166 
L 351.172594 253.617672 
L 352.607205 253.955937 
L 356.472525 254.030239 
L 373.13136 254.142803 
L 396.971355 254.19854 
" style="fill:#1a1a1a;stroke:#ffffff;stroke-linejoin:miter;stroke-width:4;"/>
   </g>
  </g>
 </g>
 <defs>
  <clipPath id="pcd685e69be">
   <rect height="543.6" width="558" x="90" y="86.4"/>
  </clipPath>
 </defs>
</svg>
