<?xml version="1.0" encoding="utf-8" standalone="no"?>
<!DOCTYPE svg PUBLIC "-//W3C//DTD SVG 1.1//EN"
  "http://www.w3.org/Graphics/SVG/1.1/DTD/svg11.dtd">
<!-- Created with matplotlib (https://matplotlib.org/) -->
<svg height="720pt" version="1.1" viewBox="0 0 720 720" width="720pt" xmlns="http://www.w3.org/2000/svg" xmlns:xlink="http://www.w3.org/1999/xlink">
 <metadata>
  <rdf:RDF xmlns:cc="http://creativecommons.org/ns#" xmlns:dc="http://purl.org/dc/elements/1.1/" xmlns:rdf="http://www.w3.org/1999/02/22-rdf-syntax-ns#">
   <cc:Work>
    <dc:type rdf:resource="http://purl.org/dc/dcmitype/StillImage"/>
    <dc:date>2021-05-28T08:56:49.814427</dc:date>
    <dc:format>image/svg+xml</dc:format>
    <dc:creator>
     <cc:Agent>
      <dc:title>Matplotlib v3.3.3, https://matplotlib.org/</dc:title>
     </cc:Agent>
    </dc:creator>
   </cc:Work>
  </rdf:RDF>
 </metadata>
 <defs>
  <style type="text/css">*{stroke-linecap:butt;stroke-linejoin:round;}</style>
 </defs>
 <g id="figure_1">
  <g id="patch_1">
   <path d="M 0 720 
L 720 720 
L 720 0 
L 0 0 
z
" style="fill:none;"/>
  </g>
  <g id="axes_1">
   <g id="patch_2">
    <path clip-path="url(#p1593b7b408)" d="M 245.04049 167.617442 
L 252.65769 197.884987 
L 265.70529 223.144062 
L 267.188634 226.857498 
L 271.812685 235.44965 
L 281.104734 232.433549 
L 282.315843 232.037089 
L 293.598266 253.165208 
L 280.454985 253.319218 
L 291.424929 273.552701 
L 293.939676 278.311497 
L 296.182703 286.55113 
L 290.637767 285.003519 
L 277.730863 285.028567 
L 277.755789 295.894885 
L 305.969564 295.827821 
L 308.740948 295.819485 
L 327.124342 295.777227 
L 424.428917 295.556642 
L 430.20522 297.501161 
L 528.439316 297.272553 
L 529.851521 295.315087 
L 576.107903 295.217543 
L 578.98445 295.210581 
L 587.786894 295.210392 
L 587.747505 302.614204 
L 588.188445 357.995393 
L 588.222635 489.245202 
L 587.136246 528.003833 
L 583.835502 550.231002 
L 578.499225 550.639158 
L 562.17199 550.713426 
L 546.326549 549.916422 
L 532.393402 548.663721 
L 514.635379 546.044015 
L 497.150378 542.512937 
L 478.435702 537.614811 
L 460.813583 531.805254 
L 441.141987 523.945126 
L 424.032612 516.025175 
L 400.570073 504.434346 
L 368.961559 489.669663 
L 356.124193 483.951331 
L 339.525666 477.70197 
L 322.371478 473.027382 
L 302.636877 469.575225 
L 284.756193 468.214518 
L 272.191327 468.073396 
L 265.919718 449.343198 
L 244.26667 359.924123 
L 244.052139 359.038226 
L 240.756665 346.406048 
L 235.778275 328.788626 
L 221.371629 293.969406 
L 206.965844 264.124928 
L 149.777365 176.78269 
L 156.244031 177.363745 
L 160.44537 177.743586 
L 164.364611 178.085211 
L 166.55801 178.268226 
L 170.684697 178.637966 
L 173.623379 178.900651 
L 176.922452 179.163251 
L 180.192256 179.377087 
L 186.174361 179.91903 
L 189.960498 180.160198 
L 192.17908 180.280729 
L 194.060053 180.280271 
L 196.120819 180.222702 
L 198.556357 180.080892 
L 201.305346 179.737251 
L 204.174837 179.252316 
L 206.971935 178.606033 
L 209.913676 177.757937 
L 216.189739 175.542303 
L 229.552209 170.871622 
L 243.564435 165.686574 
L 245.04049 167.617442 
" style="fill:#1a1a1a;stroke:#ffffff;stroke-linejoin:miter;stroke-width:4;"/>
   </g>
  </g>
 </g>
 <defs>
  <clipPath id="p1593b7b408">
   <rect height="543.6" width="558" x="90" y="86.4"/>
  </clipPath>
 </defs>
</svg>
