<?xml version="1.0" encoding="utf-8" standalone="no"?>
<!DOCTYPE svg PUBLIC "-//W3C//DTD SVG 1.1//EN"
  "http://www.w3.org/Graphics/SVG/1.1/DTD/svg11.dtd">
<!-- Created with matplotlib (https://matplotlib.org/) -->
<svg height="720pt" version="1.1" viewBox="0 0 720 720" width="720pt" xmlns="http://www.w3.org/2000/svg" xmlns:xlink="http://www.w3.org/1999/xlink">
 <metadata>
  <rdf:RDF xmlns:cc="http://creativecommons.org/ns#" xmlns:dc="http://purl.org/dc/elements/1.1/" xmlns:rdf="http://www.w3.org/1999/02/22-rdf-syntax-ns#">
   <cc:Work>
    <dc:type rdf:resource="http://purl.org/dc/dcmitype/StillImage"/>
    <dc:date>2021-05-07T11:03:00.009634</dc:date>
    <dc:format>image/svg+xml</dc:format>
    <dc:creator>
     <cc:Agent>
      <dc:title>Matplotlib v3.3.3, https://matplotlib.org/</dc:title>
     </cc:Agent>
    </dc:creator>
   </cc:Work>
  </rdf:RDF>
 </metadata>
 <defs>
  <style type="text/css">*{stroke-linecap:butt;stroke-linejoin:round;}</style>
 </defs>
 <g id="figure_1">
  <g id="patch_1">
   <path d="M 0 720 
L 720 720 
L 720 0 
L 0 0 
z
" style="fill:none;"/>
  </g>
  <g id="axes_1">
   <g id="patch_2">
    <path clip-path="url(#p45a2f25962)" d="M 588.619334 132.682312 
L 589.748029 359.079091 
L 590.727832 533.893198 
L 590.816521 549.797919 
L 591.149515 554.404941 
L 591.210687 555.964973 
L 591.113207 557.283147 
L 590.909816 558.326019 
L 589.879163 561.555384 
L 588.064669 565.270069 
L 582.562568 574.327299 
L 579.815422 579.233624 
L 578.051109 582.118983 
L 577.096682 582.118185 
L 417.990619 582.003307 
L 402.119469 583.401006 
L 395.437756 583.131806 
L 151.577145 583.692849 
L 151.576866 583.717688 
L 148.48569 581.819945 
L 148.430781 559.500342 
L 148.348867 526.28662 
L 148.392812 498.384353 
L 148.361825 470.491856 
L 146.959421 470.4933 
L 146.92841 456.1871 
L 146.865003 417.180157 
L 146.855504 411.854716 
L 146.84355 365.554232 
L 146.841405 359.018402 
L 148.243346 359.016127 
L 148.234959 346.143308 
L 148.231867 342.277599 
L 148.222945 331.203414 
L 148.220809 303.386394 
L 148.22 300.597286 
L 148.215117 285.812438 
L 148.214166 283.022499 
L 148.208877 267.076037 
L 148.201909 247.757175 
L 146.800173 247.757925 
L 146.794587 233.961971 
L 146.789313 220.168362 
L 148.191672 220.167612 
L 148.160641 136.495421 
L 148.161104 133.706844 
L 153.607095 133.705295 
L 370.989464 133.718807 
L 431.858865 133.698692 
L 450.989792 132.730456 
L 585.896312 132.683822 
L 588.619334 132.682312 
" style="stroke:#ffffff;stroke-linejoin:miter;stroke-width:2;"/>
   </g>
  </g>
 </g>
 <defs>
  <clipPath id="p45a2f25962">
   <rect height="543.6" width="558" x="90" y="86.4"/>
  </clipPath>
 </defs>
</svg>
