<?xml version="1.0" encoding="utf-8" standalone="no"?>
<!DOCTYPE svg PUBLIC "-//W3C//DTD SVG 1.1//EN"
  "http://www.w3.org/Graphics/SVG/1.1/DTD/svg11.dtd">
<!-- Created with matplotlib (https://matplotlib.org/) -->
<svg height="720pt" version="1.1" viewBox="0 0 720 720" width="720pt" xmlns="http://www.w3.org/2000/svg" xmlns:xlink="http://www.w3.org/1999/xlink">
 <metadata>
  <rdf:RDF xmlns:cc="http://creativecommons.org/ns#" xmlns:dc="http://purl.org/dc/elements/1.1/" xmlns:rdf="http://www.w3.org/1999/02/22-rdf-syntax-ns#">
   <cc:Work>
    <dc:type rdf:resource="http://purl.org/dc/dcmitype/StillImage"/>
    <dc:date>2021-05-07T11:03:07.170426</dc:date>
    <dc:format>image/svg+xml</dc:format>
    <dc:creator>
     <cc:Agent>
      <dc:title>Matplotlib v3.3.3, https://matplotlib.org/</dc:title>
     </cc:Agent>
    </dc:creator>
   </cc:Work>
  </rdf:RDF>
 </metadata>
 <defs>
  <style type="text/css">*{stroke-linecap:butt;stroke-linejoin:round;}</style>
 </defs>
 <g id="figure_1">
  <g id="patch_1">
   <path d="M 0 720 
L 720 720 
L 720 0 
L 0 0 
z
" style="fill:none;"/>
  </g>
  <g id="axes_1">
   <g id="patch_2">
    <path clip-path="url(#p45c5281584)" d="M 566.742133 124.774207 
L 597.423189 125.221804 
L 604.48781 125.197401 
L 611.329481 124.983387 
L 615.26171 125.01387 
L 618.409927 125.100062 
L 619.100373 125.255305 
L 628.191151 125.260769 
L 628.184313 125.381826 
L 628.161558 125.802356 
L 628.148421 126.234476 
L 628.14948 126.654857 
L 628.117121 127.057926 
L 628.099142 127.455012 
L 628.076136 127.7996 
L 628.043639 128.155908 
L 628.020879 128.570694 
L 627.988398 128.944477 
L 627.956039 129.347546 
L 627.895107 129.791567 
L 627.810254 130.212289 
L 627.734899 130.627149 
L 627.659538 131.036264 
L 627.602987 131.328384 
L 627.556046 131.643939 
L 627.528222 131.976815 
L 627.491203 132.426662 
L 627.396872 132.882438 
L 627.34517 133.227182 
L 627.298618 133.653605 
L 627.261468 134.07427 
L 627.181437 134.518308 
L 627.100989 134.810576 
L 626.972746 135.114758 
L 626.792296 135.530101 
L 626.587866 135.957197 
L 626.38846 136.413353 
L 626.141043 136.852333 
L 625.903157 137.221112 
L 625.622234 137.636818 
L 625.350842 137.994157 
L 625.103121 138.310446 
L 624.90344 138.673301 
L 624.70366 139.042028 
L 624.480349 139.498334 
L 624.247184 139.872967 
L 623.947154 140.288816 
L 623.623193 140.669669 
L 623.322844 140.939493 
L 623.022457 141.168417 
L 622.68394 141.479197 
L 622.340896 141.866041 
L 622.055107 142.217544 
L 621.72166 142.60426 
L 621.459626 142.903109 
L 621.135528 143.237193 
L 620.825725 143.553792 
L 620.487342 143.893883 
L 620.139354 144.233976 
L 619.806056 144.684917 
L 619.753857 144.80195 
L 619.568529 145.223048 
L 619.392779 145.615065 
L 619.164403 145.983835 
L 618.821504 146.428932 
L 618.483247 146.798194 
L 618.173565 147.149849 
L 617.906774 147.477889 
L 617.611354 147.788612 
L 617.268305 148.163627 
L 616.910707 148.486273 
L 616.586591 148.785445 
L 616.281463 149.066886 
L 615.990564 149.284093 
L 615.680348 149.460532 
L 615.38465 149.666132 
L 615.012724 149.95963 
L 614.73149 150.235178 
L 614.407275 150.528492 
L 614.116516 150.780731 
L 613.744481 151.056642 
L 613.391543 151.32092 
L 613.091207 151.602367 
L 612.719316 151.919179 
L 612.409487 152.200756 
L 612.104348 152.476455 
L 611.756652 152.904101 
L 611.437202 153.168229 
L 611.322681 153.244557 
L 610.99376 153.532022 
L 610.660093 153.872102 
L 610.355044 154.141955 
L 610.016544 154.446886 
L 609.76386 154.675647 
L 609.430009 154.922323 
L 609.105748 155.163022 
L 608.819574 155.386076 
L 608.476106 155.621048 
L 608.166018 155.826686 
L 607.865667 156.078956 
L 607.555708 156.319624 
L 607.26467 156.484333 
L 606.940037 156.631618 
L 606.687043 156.726074 
L 606.352879 156.844306 
L 606.03769 156.933099 
L 605.756042 157.068614 
L 605.469801 157.221599 
L 605.126344 157.456574 
L 604.835346 157.650467 
L 604.52553 157.937783 
L 604.163293 158.313079 
L 603.848821 158.658766 
L 603.491662 159.115742 
L 603.296836 159.525258 
L 602.977812 159.917839 
L 602.644266 160.287108 
L 602.558455 160.375011 
L 602.267893 160.720676 
L 601.915244 161.08423 
L 601.581826 161.476707 
L 601.286282 161.740693 
L 600.976334 161.987237 
L 600.632888 162.228075 
L 600.289588 162.52143 
L 600.003653 162.797121 
L 599.712659 162.990892 
L 599.397498 163.103139 
L 599.106481 163.273702 
L 598.791444 163.415131 
L 598.466617 163.457414 
L 598.1131 163.505484 
L 597.80312 163.716989 
L 597.497692 163.870123 
L 597.177874 164.029013 
L 596.858016 164.147128 
L 596.538129 164.23605 
L 596.194239 164.313415 
L 595.936464 164.419593 
L 595.602465 164.601954 
L 595.292374 164.795883 
L 594.929668 164.966787 
L 594.562184 165.166766 
L 594.29028 165.34892 
L 593.966026 165.583887 
L 593.608613 165.964803 
L 593.413323 166.175909 
L 593.070178 166.533494 
L 592.727132 166.885207 
L 592.412549 167.201848 
L 592.121677 167.419073 
L 591.811301 167.513844 
L 591.505451 167.526703 
L 591.180053 167.364602 
L 590.878665 167.231545 
L 590.586665 167.069279 
L 590.213451 166.895648 
L 589.902494 166.780057 
L 589.596299 166.629545 
L 589.290137 166.519806 
L 588.940707 166.328562 
L 588.620241 166.207254 
L 588.270838 166.033589 
L 588.231453 165.60751 
L 588.584808 165.495093 
L 588.900167 165.487962 
L 589.168156 165.62108 
L 589.527056 165.788987 
L 589.880903 165.892679 
L 590.225222 165.961218 
L 590.598272 166.064881 
L 590.928316 166.16861 
L 591.277333 166.231409 
L 591.631012 166.253289 
L 591.989315 166.205092 
L 592.270571 165.95871 
L 592.188079 165.503502 
L 591.857713 165.277197 
L 591.556098 165.097367 
L 591.245072 164.923526 
L 590.89581 164.796515 
L 590.527423 164.652058 
L 590.182941 164.507451 
L 589.962869 164.403212 
L 589.656579 164.252699 
L 589.350415 164.143076 
L 589.034758 164.033363 
L 588.699905 163.929644 
L 588.384404 163.890118 
L 588.092673 163.809541 
L 587.719722 163.711854 
L 587.394488 163.631455 
L 587.11717 163.56832 
L 586.777624 163.476339 
L 586.447885 163.489342 
L 586.175651 163.531336 
L 585.841247 163.591106 
L 585.563919 163.527984 
L 585.194929 163.15581 
L 584.864308 162.859416 
L 584.500822 162.726561 
L 584.17586 162.727966 
L 583.855593 162.711774 
L 583.525666 162.643092 
L 583.166869 162.486909 
L 582.808105 162.371627 
L 582.506737 162.261898 
L 582.157717 162.199118 
L 581.823015 162.153779 
L 581.49323 162.131756 
L 581.149057 162.115741 
L 580.795223 162.04711 
L 580.507994 161.873138 
L 580.182556 161.68762 
L 579.90015 161.53709 
L 579.627489 161.438923 
L 579.321436 161.358397 
L 579.020061 161.242926 
L 578.713782 161.115745 
L 578.373775 160.854424 
L 578.015003 160.733298 
L 577.665833 160.617914 
L 577.455678 160.653855 
L 577.082777 160.608694 
L 576.829338 160.539682 
L 576.480165 160.430273 
L 576.178676 160.297226 
L 575.877276 160.15832 
L 575.552039 160.077942 
L 575.24119 159.991671 
L 574.872917 159.882282 
L 574.53323 159.749422 
L 574.298783 159.668663 
L 573.949733 159.588312 
L 573.600455 159.461327 
L 573.274996 159.258352 
L 572.982841 159.055211 
L 572.676486 158.857962 
L 572.365195 158.61981 
L 572.245429 158.532783 
L 571.924672 158.329699 
L 571.618329 158.144159 
L 571.307217 157.987808 
L 571.000742 157.767239 
L 570.684752 157.534954 
L 570.363863 157.296933 
L 570.013776 156.848708 
L 569.721451 156.575498 
L 569.386685 156.471806 
L 569.061404 156.362251 
L 568.716319 156.019248 
L 568.399931 155.670249 
L 568.088195 155.28033 
L 567.800368 154.901978 
L 567.460179 154.564725 
L 567.168014 154.35574 
L 566.814177 154.281262 
L 566.489188 154.270974 
L 566.144848 154.190737 
L 565.814868 154.08704 
L 565.575738 154.029627 
L 565.217127 153.978596 
L 564.849135 153.962632 
L 564.476379 153.969988 
L 564.213511 153.982811 
L 563.845666 154.007738 
L 563.47803 154.149405 
L 563.191676 154.284957 
L 562.905464 154.455447 
L 562.53799 154.661453 
L 562.237505 154.867111 
L 561.899153 155.207148 
L 561.556015 155.559026 
L 561.299096 155.945453 
L 561.027939 156.390394 
L 560.794809 156.753357 
L 560.571287 157.145602 
L 560.319096 157.543753 
L 560.095446 157.894983 
L 559.776603 158.351833 
L 559.591159 158.708862 
L 559.415418 159.07748 
L 559.177651 159.510523 
L 558.911138 159.897093 
L 558.701776 160.224979 
L 558.38763 160.681708 
L 558.197486 161.032874 
L 558.007333 161.384052 
L 557.788679 161.828796 
L 557.546204 162.256115 
L 557.360856 162.61303 
L 557.137405 163.057781 
L 556.923657 163.514122 
L 556.714708 163.970455 
L 556.553302 164.368233 
L 556.505809 164.473548 
L 556.325283 164.842163 
L 556.116059 165.21681 
L 555.906979 165.638102 
L 555.683455 166.012772 
L 555.498141 166.398984 
L 555.317622 166.773459 
L 555.127504 167.15382 
L 554.875443 167.586901 
L 554.747401 167.949469 
L 554.585978 168.329785 
L 554.400801 168.74518 
L 554.258484 169.131094 
L 554.168734 169.493487 
L 554.069516 169.879332 
L 553.970352 170.323542 
L 553.890356 170.744283 
L 553.848453 171.147385 
L 553.878206 171.526819 
L 553.936704 171.952852 
L 553.97593 172.297242 
L 553.981934 172.717615 
L 553.968742 173.143878 
L 553.993834 173.564221 
L 554.033343 173.996156 
L 554.05804 174.311375 
L 554.087953 174.743313 
L 554.127296 175.116873 
L 554.176307 175.548792 
L 554.201104 175.869871 
L 554.221288 176.266783 
L 554.222195 176.593759 
L 554.199052 176.856665 
L 554.119075 177.294984 
L 554.081695 177.616289 
L 554.078074 178.019214 
L 554.131864 178.433536 
L 554.285796 178.806567 
L 554.492498 179.249493 
L 554.551088 179.675538 
L 554.533227 180.125247 
L 554.562985 180.51054 
L 554.850971 180.952991 
L 555.219834 181.278469 
L 555.378556 181.645634 
L 555.432364 182.077546 
L 555.52915 182.503403 
L 555.721393 182.887989 
L 556.018709 183.260458 
L 556.330429 183.650367 
L 556.666073 184.05769 
L 556.97794 184.488397 
L 557.299427 184.942503 
L 557.467605 185.268764 
L 557.612078 185.676979 
L 557.718202 186.038484 
L 557.987097 186.492916 
L 558.269635 186.684343 
L 558.53734 186.729987 
L 558.876552 186.693497 
L 559.201529 186.70965 
L 559.518043 187.099554 
L 559.638456 187.44347 
L 559.735232 187.863469 
L 559.941908 188.288935 
L 560.220149 188.696478 
L 560.503285 189.098144 
L 560.853173 189.45871 
L 561.155307 189.854486 
L 561.395463 190.279796 
L 561.573274 190.635214 
L 561.818134 191.060505 
L 562.015055 191.427508 
L 562.212089 191.812077 
L 562.418608 192.190784 
L 562.725668 192.621492 
L 563.056577 193.017247 
L 563.382597 193.407012 
L 563.703774 193.756023 
L 564.06797 194.128277 
L 564.43215 194.494557 
L 564.065094 194.805559 
L 563.832145 195.238719 
L 564.038675 195.62903 
L 564.393505 196.042085 
L 564.485335 196.41546 
L 564.528753 196.549583 
L 564.706603 196.945903 
L 565.06141 197.347366 
L 565.425478 197.690325 
L 565.784673 197.963208 
L 566.144012 198.282852 
L 566.460415 198.666903 
L 566.671712 199.022282 
L 566.973955 199.441396 
L 567.280898 199.866375 
L 567.511557 200.303284 
L 567.718104 200.705316 
L 567.991628 201.101269 
L 568.284376 201.537989 
L 568.534046 201.974869 
L 568.759644 202.341842 
L 569.023576 202.743658 
L 569.268507 203.157132 
L 569.589844 203.576218 
L 569.858415 203.925535 
L 570.103242 204.321534 
L 570.271436 204.665378 
L 570.449389 205.085023 
L 570.73733 205.515893 
L 571.025167 205.929289 
L 571.356112 206.371685 
L 571.629661 206.796822 
L 571.936816 207.250975 
L 572.162406 207.606231 
L 572.335411 207.973379 
L 572.527616 208.340395 
L 572.810762 208.777237 
L 573.00286 209.132534 
L 573.132977 209.511595 
L 573.296525 209.913812 
L 573.541332 210.304069 
L 573.757331 210.665189 
L 574.050052 211.084324 
L 574.38568 211.503404 
L 574.673609 211.928406 
L 575.037811 212.323993 
L 575.392608 212.73121 
L 575.670952 213.168061 
L 576.04473 213.546056 
L 576.375093 213.789824 
L 576.69086 213.928708 
L 577.030342 213.985639 
L 577.37014 214.165272 
L 577.729363 214.479067 
L 578.098295 214.822041 
L 578.443386 215.217673 
L 578.539394 215.35746 
L 578.875004 215.764814 
L 579.229703 216.172035 
L 579.455291 216.533143 
L 579.671375 216.900125 
L 579.83023 217.31993 
L 579.950449 217.593884 
L 580.066024 217.926198 
L 580.17241 218.369522 
L 580.326452 218.783475 
L 580.339607 218.822874 
L 580.417987 219.057589 
L 580.481087 219.407677 
L 580.577704 219.775073 
L 580.702904 220.136567 
L 580.833144 220.550672 
L 580.920208 220.959099 
L 580.973669 221.268301 
L 581.022505 221.653452 
L 581.109651 222.050161 
L 581.220575 222.435113 
L 581.29356 222.884463 
L 581.380741 223.316213 
L 581.467882 223.718769 
L 581.502467 224.150714 
L 581.522704 224.536036 
L 581.509478 224.938977 
L 581.514439 225.014911 
L 581.570095 225.528511 
L 581.5358 225.943433 
L 581.520484 226.334784 
L 581.452688 226.738497 
L 581.365286 227.095825 
L 581.230292 227.471264 
L 581.114501 227.858162 
L 581.027308 228.244672 
L 580.935103 228.596148 
L 580.809499 228.953995 
L 580.669502 229.311978 
L 580.477554 229.72898 
L 580.294873 230.110927 
L 580.074549 230.569219 
L 579.886965 230.939557 
L 579.708776 231.29806 
L 579.521114 231.67427 
L 579.357219 232.026764 
L 579.140738 232.379926 
L 578.953165 232.750277 
L 578.747235 233.208317 
L 578.371212 233.382715 
L 577.996972 233.726344 
L 577.660823 234.069455 
L 577.352616 234.324632 
L 577.007188 234.691195 
L 576.708589 234.957962 
L 576.410518 235.271385 
L 576.094405 235.701782 
L 575.778085 236.114717 
L 575.460391 236.381618 
L 575.16159 236.624948 
L 574.838365 236.810297 
L 574.547994 236.936771 
L 574.333794 237.027282 
L 573.980089 237.031956 
L 573.616046 236.95519 
L 573.362077 236.888478 
L 573.028408 236.980554 
L 572.671366 237.131364 
L 572.337383 237.194144 
L 571.974928 237.28661 
L 571.660349 237.372557 
L 571.340134 237.376837 
L 570.965964 237.24184 
L 570.607988 237.299144 
L 570.345681 237.355264 
L 570.052794 237.224851 
L 569.70552 236.902657 
L 569.402174 236.667366 
L 569.091873 236.706559 
L 568.731946 237.055793 
L 568.678771 237.488553 
L 568.622709 237.627646 
L 568.655096 268.412721 
L 568.700581 311.655803 
L 566.676112 311.439706 
L 564.313925 311.05231 
L 549.26597 317.77958 
L 540.814325 322.804769 
L 537.40136 335.36432 
L 539.273922 339.276852 
L 540.218703 344.053132 
L 541.948417 349.192493 
L 541.661419 350.210363 
L 541.464774 351.858362 
L 541.203406 355.034188 
L 541.168148 355.833113 
L 541.687224 360.924769 
L 544.31319 372.594528 
L 542.214248 379.28999 
L 542.040167 383.145159 
L 558.307464 383.159397 
L 559.03852 383.158232 
L 558.941308 383.550898 
L 558.903322 383.709726 
L 558.856114 383.942201 
L 558.787168 384.339499 
L 558.721939 384.800176 
L 558.617187 385.643593 
L 558.544962 386.387382 
L 558.498219 387.055074 
L 558.484443 387.663762 
L 558.483174 387.980827 
L 558.487685 388.286624 
L 558.488993 388.418482 
L 558.491304 388.468869 
L 558.499252 388.698741 
L 558.518032 389.076126 
L 558.549704 389.486475 
L 558.588824 389.985348 
L 558.640752 390.438186 
L 558.707419 390.928363 
L 558.774049 391.383315 
L 558.85538 391.840369 
L 558.942881 392.219104 
L 559.114101 392.904256 
L 559.486328 394.260221 
L 559.894408 395.602284 
L 560.302276 397.021923 
L 560.662349 398.211799 
L 560.938415 399.124958 
L 561.214751 400.301124 
L 561.371327 401.325215 
L 561.527916 402.363152 
L 561.636728 403.532357 
L 561.637398 404.162117 
L 560.89244 404.163391 
L 559.782178 404.161549 
L 557.489957 404.158954 
L 555.053959 404.156235 
L 552.33116 404.153143 
L 549.895125 404.150444 
L 547.459052 404.147691 
L 544.880143 404.144875 
L 542.174272 404.141939 
L 537.721568 404.137093 
L 537.426377 404.127009 
L 535.060771 404.123423 
L 529.831221 404.115469 
L 529.831093 409.146156 
L 525.670678 411.501255 
L 521.729184 413.732464 
L 521.546507 414.00983 
L 519.875933 416.546425 
L 514.14107 425.25292 
L 512.883745 427.16195 
L 512.430838 428.497626 
L 508.974063 438.690942 
L 512.697597 438.694703 
L 515.296312 438.697277 
L 517.280533 438.699761 
L 517.853988 438.700511 
L 522.149558 438.706021 
L 525.016089 438.7097 
L 529.555082 438.715869 
L 529.829527 438.716239 
L 529.829436 438.921181 
L 529.832386 450.253289 
L 532.983619 450.258274 
L 535.848206 450.262907 
L 538.413939 450.266996 
L 544.143112 450.276338 
L 546.434376 450.280075 
L 548.72566 450.283826 
L 551.160699 450.287818 
L 553.45203 450.291607 
L 555.74336 450.295387 
L 558.142646 450.299363 
L 561.523219 450.305035 
L 565.937645 450.312506 
L 566.241388 450.312946 
L 567.920352 450.315819 
L 567.932623 497.574717 
L 567.971117 511.582684 
L 567.438172 517.051661 
L 566.639153 525.617476 
L 566.216469 533.458005 
L 566.179921 557.183655 
L 556.863102 561.977922 
L 540.226803 562.02222 
L 538.95488 567.249344 
L 526.360066 576.041065 
L 500.460507 576.136317 
L 491.98725 576.167976 
L 482.401236 570.029561 
L 469.880227 562.011745 
L 468.538838 561.152884 
L 459.347072 555.267835 
L 449.324958 555.290025 
L 447.541991 549.808869 
L 445.464105 543.421397 
L 441.28541 530.583227 
L 441.02064 529.769956 
L 423.813875 529.825352 
L 423.821197 553.624807 
L 415.433392 553.658549 
L 415.488105 577.882453 
L 415.340589 591.659832 
L 401.967335 591.620555 
L 397.938948 591.240941 
L 393.147955 590.294076 
L 389.017196 589.043887 
L 385.629438 587.641208 
L 381.952021 585.786088 
L 378.067293 583.327331 
L 374.181839 580.365219 
L 370.915854 577.502544 
L 368.310791 574.839884 
L 363.430156 568.960188 
L 358.79753 563.331734 
L 355.654621 560.015867 
L 352.057666 556.851996 
L 348.95749 554.593235 
L 344.700414 551.883903 
L 340.816105 549.979259 
L 336.725961 548.528167 
L 331.479713 547.180298 
L 326.688489 546.385245 
L 321.030158 545.642493 
L 316.279897 544.646119 
L 311.771427 543.166689 
L 307.355158 541.116881 
L 304.255624 539.46255 
L 300.948851 537.305304 
L 298.261646 535.272554 
L 296.338998 533.640814 
L 293.981898 531.456314 
L 292.020553 529.551909 
L 291.72329 529.209438 
L 286.558447 524.179844 
L 282.495911 520.57616 
L 278.091161 518.065605 
L 274.445363 517.233795 
L 270.800449 516.990153 
L 268.324804 516.911876 
L 268.322501 515.431837 
L 262.213118 515.446076 
L 261.234282 516.687761 
L 261.234225 516.159448 
L 261.228647 496.500232 
L 217.072416 462.818235 
L 181.981301 436.057706 
L 109.937508 431.088651 
L 109.84756 405.814927 
L 109.826222 334.608278 
L 109.82357 326.240943 
L 109.819473 312.36687 
L 109.816511 302.365371 
L 109.808849 277.788162 
L 131.233995 266.250668 
L 145.498113 258.572428 
L 155.819823 259.870551 
L 164.959849 265.735468 
L 193.651408 271.789035 
L 226.698713 295.317531 
L 227.515103 295.915622 
L 236.486421 302.289935 
L 239.467699 304.402694 
L 250.004885 311.913506 
L 260.598597 311.91677 
L 261.177553 311.91669 
L 300.943395 311.809301 
L 300.949577 357.933564 
L 415.493135 357.748547 
L 415.499697 346.991564 
L 415.43709 311.52542 
L 437.50481 311.525645 
L 438.537531 312.680724 
L 444.2984 312.680403 
L 445.164475 311.524758 
L 473.21511 311.522966 
L 473.102586 218.725041 
L 491.301486 218.73577 
L 491.190867 125.1857 
L 491.204802 125.185686 
L 492.114852 125.185347 
L 511.07249 125.178812 
L 530.282232 125.173139 
L 549.623446 125.168454 
L 553.99187 125.167527 
L 558.237459 125.166683 
L 562.49665 124.834037 
L 565.858212 124.740168 
L 566.742133 124.774207 
" style="stroke:#ffffff;stroke-linejoin:miter;stroke-width:2;"/>
   </g>
  </g>
 </g>
 <defs>
  <clipPath id="p45c5281584">
   <rect height="543.6" width="558" x="90" y="86.4"/>
  </clipPath>
 </defs>
</svg>
