<?xml version="1.0" encoding="utf-8" standalone="no"?>
<!DOCTYPE svg PUBLIC "-//W3C//DTD SVG 1.1//EN"
  "http://www.w3.org/Graphics/SVG/1.1/DTD/svg11.dtd">
<!-- Created with matplotlib (https://matplotlib.org/) -->
<svg height="720pt" version="1.1" viewBox="0 0 720 720" width="720pt" xmlns="http://www.w3.org/2000/svg" xmlns:xlink="http://www.w3.org/1999/xlink">
 <metadata>
  <rdf:RDF xmlns:cc="http://creativecommons.org/ns#" xmlns:dc="http://purl.org/dc/elements/1.1/" xmlns:rdf="http://www.w3.org/1999/02/22-rdf-syntax-ns#">
   <cc:Work>
    <dc:type rdf:resource="http://purl.org/dc/dcmitype/StillImage"/>
    <dc:date>2021-05-28T08:56:51.277202</dc:date>
    <dc:format>image/svg+xml</dc:format>
    <dc:creator>
     <cc:Agent>
      <dc:title>Matplotlib v3.3.3, https://matplotlib.org/</dc:title>
     </cc:Agent>
    </dc:creator>
   </cc:Work>
  </rdf:RDF>
 </metadata>
 <defs>
  <style type="text/css">*{stroke-linecap:butt;stroke-linejoin:round;}</style>
 </defs>
 <g id="figure_1">
  <g id="patch_1">
   <path d="M 0 720 
L 720 720 
L 720 0 
L 0 0 
z
" style="fill:none;"/>
  </g>
  <g id="axes_1">
   <g id="patch_2">
    <path clip-path="url(#pb126d59213)" d="M 608.583297 297.68883 
L 608.584779 402.112295 
L 605.997689 405.936371 
L 603.120608 410.57753 
L 599.439466 417.233638 
L 596.375574 423.548298 
L 593.364603 430.668764 
L 590.70238 438.016302 
L 588.310177 445.87705 
L 586.503265 453.072771 
L 584.569527 462.424344 
L 610.907306 537.429635 
L 603.319781 540.845503 
L 597.370535 543.125449 
L 588.324799 546.30344 
L 580.066993 548.428899 
L 571.06464 550.233523 
L 564.080593 551.224212 
L 556.245168 551.652023 
L 548.530388 551.594774 
L 540.38969 551.13497 
L 533.159452 550.268508 
L 524.378862 548.598972 
L 515.079698 545.719266 
L 505.232361 542.033477 
L 498.78816 539.145107 
L 490.063578 534.890453 
L 480.333386 528.861673 
L 469.780038 521.179396 
L 462.296385 514.658987 
L 454.099608 507.231432 
L 410.961186 463.319046 
L 403.597917 456.556509 
L 394.018131 446.698205 
L 393.856361 446.520826 
L 393.892237 446.459081 
L 392.820793 445.385326 
L 384.836023 436.630246 
L 373.980011 426.467638 
L 368.752389 421.26621 
L 355.418807 407.905309 
L 344.535041 399.39587 
L 332.102545 392.954607 
L 318.56607 389.169515 
L 306.365946 388.326987 
L 294.170387 389.842148 
L 292.237987 390.467288 
L 289.42047 391.042839 
L 284.433544 392.63403 
L 279.537265 394.608257 
L 269.172585 399.090418 
L 261.243706 401.769472 
L 252.929086 403.895456 
L 246.776728 405.032247 
L 238.362191 405.999735 
L 231.096858 406.269196 
L 229.729585 406.274014 
L 223.799884 406.018873 
L 213.610789 404.945514 
L 210.248262 404.277037 
L 202.048653 402.40485 
L 196.253965 400.739025 
L 187.315879 397.344621 
L 184.472483 396.093043 
L 180.253941 394.070148 
L 180.253216 394.069775 
L 176.394334 392.033261 
L 166.340996 385.899392 
L 165.850428 385.570584 
L 164.259293 384.473688 
L 162.76031 383.414566 
L 149.413553 373.360334 
L 146.394599 371.039932 
L 143.778853 369.115799 
L 127.092694 356.546809 
L 133.914336 342.078926 
L 152.535582 308.324508 
L 157.129213 300.80152 
L 162.331499 292.281863 
L 169.768904 283.529256 
L 188.057632 262.536593 
L 195.985201 253.891662 
L 204.781752 244.299405 
L 214.096809 237.719212 
L 219.372423 234.53335 
L 219.376058 234.530661 
L 219.376499 234.530331 
L 219.377205 234.529788 
L 224.692985 230.75429 
L 224.69355 230.753889 
L 224.694097 230.753511 
L 230.075453 227.145192 
L 235.518556 223.706532 
L 235.520021 223.705611 
L 235.521592 223.70469 
L 235.528758 223.700392 
L 235.533029 223.697841 
L 241.02289 220.437934 
L 241.023843 220.437367 
L 246.58413 217.342043 
L 252.197331 214.421672 
L 252.197843 214.421412 
L 252.198373 214.421152 
L 257.860832 211.677557 
L 257.861662 211.677155 
L 257.862862 211.676634 
L 263.571664 209.111163 
L 263.572546 209.110761 
L 263.573147 209.110501 
L 269.325851 206.724244 
L 269.327317 206.723628 
L 269.328747 206.723083 
L 275.121292 204.517676 
L 275.12281 204.517107 
L 280.95574 202.492431 
L 280.957276 202.491956 
L 286.816794 200.65259 
L 286.821581 200.651118 
L 286.822429 200.650857 
L 286.823064 200.650643 
L 286.823859 200.650429 
L 286.824424 200.650263 
L 286.827233 200.649479 
L 292.720526 198.993075 
L 292.721215 198.992885 
L 292.722416 198.992576 
L 297.263565 197.846741 
L 299.898761 197.432454 
L 320.606342 194.074416 
L 323.102133 193.769837 
L 329.991845 192.929146 
L 387.209944 189.222837 
L 497.394843 178.878529 
L 515.133656 176.359311 
L 594.852852 165.043706 
L 596.469261 164.81436 
L 596.937148 164.747977 
L 596.908333 164.827205 
L 596.135768 166.951263 
L 595.562512 168.527379 
L 594.867669 170.437776 
L 592.971964 174.812198 
L 592.426813 176.459885 
L 592.42516 176.464938 
L 592.037798 177.646413 
L 592.031715 177.665049 
L 592.012199 177.724739 
L 592.005518 177.745231 
L 592.002846 177.753433 
L 591.747532 178.537302 
L 591.741291 178.556525 
L 591.564904 179.100691 
L 591.537319 179.185808 
L 591.535702 179.190837 
L 590.944963 181.028052 
L 590.924799 181.090914 
L 590.772054 181.570001 
L 590.678411 181.863981 
L 590.660832 181.919158 
L 590.65925 181.92414 
L 590.207398 183.352296 
L 589.797385 184.659819 
L 589.795856 184.664754 
L 589.24181 186.449483 
L 588.947015 187.407696 
L 588.945521 187.412584 
L 588.109668 190.162907 
L 588.108298 190.167489 
L 588.099125 190.198037 
L 587.768102 191.301425 
L 587.767241 191.304315 
L 587.766538 191.306688 
L 587.765747 191.30932 
L 587.461694 192.330222 
L 587.317589 192.816632 
L 587.285626 192.924582 
L 587.284221 192.929376 
L 586.629449 195.161134 
L 586.604254 195.247511 
L 586.474678 195.693403 
L 586.473307 195.69815 
L 586.12038 196.919694 
L 586.115022 196.938234 
L 586.11193 196.949019 
L 585.676946 198.468994 
L 585.67561 198.47367 
L 585.669199 198.496321 
L 585.297447 199.808146 
L 584.892448 201.251213 
L 584.891148 201.255866 
L 584.519265 202.593798 
L 584.137711 203.97984 
L 584.121219 204.039991 
L 584.119972 204.044573 
L 583.572799 206.056968 
L 583.363294 206.835186 
L 583.362082 206.83972 
L 583.045082 208.025567 
L 582.619639 209.633156 
L 582.619323 209.634377 
L 582.619095 209.635223 
L 582.618708 209.636703 
L 582.617532 209.641238 
L 582.242828 211.072736 
L 581.888954 212.438694 
L 581.888726 212.439563 
L 581.88748 212.444403 
L 581.886338 212.448844 
L 581.876314 212.487799 
L 581.775069 212.881535 
L 581.750843 212.976267 
L 581.178384 215.223513 
L 581.169572 215.258426 
L 581.168536 215.262585 
L 580.691575 217.165344 
L 580.465214 218.077997 
L 580.464144 218.08232 
L 580.326282 218.641304 
L 580.318385 218.673351 
L 580.302274 218.739159 
L 579.774248 220.903655 
L 579.773213 220.907908 
L 579.762263 220.953298 
L 579.570798 221.747545 
L 579.550828 221.830573 
L 579.466392 222.182868 
L 579.368655 222.591149 
L 579.16426 223.450701 
L 579.096743 223.735049 
L 579.095761 223.739254 
L 578.564114 226.005818 
L 578.561605 226.016555 
L 578.548325 226.073809 
L 578.432753 226.572084 
L 578.431788 226.576243 
L 578.013543 228.39661 
L 578.012999 228.398959 
L 578.011841 228.404081 
L 577.903688 228.87982 
L 577.90218 228.886492 
L 577.897655 228.906438 
L 577.782276 229.414667 
L 577.780891 229.42087 
L 577.490694 230.710736 
L 577.462176 230.837974 
L 577.375627 231.225374 
L 577.145332 232.262821 
L 577.14449 232.266651 
L 576.724327 234.18267 
L 576.7184 234.209781 
L 576.577622 234.859162 
L 576.522041 235.115912 
L 576.5212 235.119858 
L 576.515396 235.146828 
L 576.095244 237.109473 
L 576.085778 237.154179 
L 575.912317 237.974385 
L 575.911511 237.978261 
L 575.563588 239.642858 
L 575.31665 240.835775 
L 575.316194 240.837983 
L 575.315441 240.841718 
L 574.908744 242.837051 
L 574.904994 242.855656 
L 574.869615 243.031255 
L 574.789658 243.428543 
L 574.733778 243.706376 
L 574.733025 243.710135 
L 574.561575 244.568579 
L 574.169922 246.554735 
L 574.165016 246.579706 
L 574.164298 246.583394 
L 573.753949 248.703778 
L 573.621625 249.39652 
L 573.609943 249.457761 
L 573.60926 249.461355 
L 573.191148 251.680954 
L 573.068593 252.340399 
L 573.067946 252.343946 
L 572.540985 255.227552 
L 572.540722 255.229079 
L 572.540372 255.231005 
L 572.536591 255.252146 
L 572.229819 256.968786 
L 572.140823 257.473087 
L 572.06534 257.902055 
L 572.034346 258.078204 
L 572.027153 258.119076 
L 572.026558 258.122459 
L 572.018718 258.16723 
L 572.016828 258.178129 
L 572.013433 258.197649 
L 571.772557 259.582921 
L 571.527096 261.014856 
L 571.526537 261.018168 
L 571.347464 262.076334 
L 571.338175 262.131275 
L 571.041673 263.909888 
L 571.040851 263.914797 
L 571.040309 263.918039 
L 570.782546 265.491462 
L 570.600555 266.619199 
L 570.568854 266.81601 
L 570.568399 266.818852 
L 570.56791 266.821929 
L 570.565112 266.839593 
L 570.109828 269.726646 
L 570.109531 269.728619 
L 570.109356 269.729722 
L 570.073281 269.962444 
L 570.067811 269.998146 
L 569.668457 272.616357 
L 569.66512 272.638318 
L 569.664665 272.641324 
L 569.664543 272.642146 
L 569.459004 274.020762 
L 569.234275 275.553658 
L 569.233838 275.55657 
L 569.081937 276.608362 
L 569.075825 276.651109 
L 569.036658 276.924902 
L 569.035122 276.935659 
L 568.992516 277.233948 
L 568.97914 277.327616 
L 568.842538 278.293763 
L 568.820766 278.448028 
L 568.817659 278.470059 
L 568.817275 278.47283 
L 568.816926 278.475437 
L 568.414277 281.394942 
L 568.413911 281.397713 
L 568.398468 281.512047 
L 568.386376 281.601602 
L 568.268895 282.47545 
L 568.025736 284.316423 
L 568.025178 284.320651 
L 568.024829 284.323328 
L 567.791667 286.130369 
L 567.790534 286.139365 
L 567.650011 287.249557 
L 567.649679 287.252141 
L 567.361069 289.585498 
L 567.350458 289.672982 
L 567.288793 290.181544 
L 567.288706 290.182272 
L 567.288497 290.184057 
L 567.286807 290.198125 
L 567.036243 292.304131 
L 567.030183 292.356152 
L 566.94156 293.116541 
L 566.941282 293.11896 
L 566.72262 295.032333 
L 566.707582 295.165894 
L 566.706676 295.173926 
L 566.704797 295.190647 
L 566.704292 295.19518 
L 566.608312 296.054384 
L 566.573458 296.369131 
L 566.356473 297.633026 
L 608.583297 297.68883 
" style="fill:#1a1a1a;stroke:#ffffff;stroke-linejoin:miter;stroke-width:4;"/>
   </g>
  </g>
 </g>
 <defs>
  <clipPath id="pb126d59213">
   <rect height="543.6" width="558" x="90" y="86.4"/>
  </clipPath>
 </defs>
</svg>
