<?xml version="1.0" encoding="utf-8" standalone="no"?>
<!DOCTYPE svg PUBLIC "-//W3C//DTD SVG 1.1//EN"
  "http://www.w3.org/Graphics/SVG/1.1/DTD/svg11.dtd">
<!-- Created with matplotlib (https://matplotlib.org/) -->
<svg height="720pt" version="1.1" viewBox="0 0 720 720" width="720pt" xmlns="http://www.w3.org/2000/svg" xmlns:xlink="http://www.w3.org/1999/xlink">
 <metadata>
  <rdf:RDF xmlns:cc="http://creativecommons.org/ns#" xmlns:dc="http://purl.org/dc/elements/1.1/" xmlns:rdf="http://www.w3.org/1999/02/22-rdf-syntax-ns#">
   <cc:Work>
    <dc:type rdf:resource="http://purl.org/dc/dcmitype/StillImage"/>
    <dc:date>2021-05-07T11:03:06.396065</dc:date>
    <dc:format>image/svg+xml</dc:format>
    <dc:creator>
     <cc:Agent>
      <dc:title>Matplotlib v3.3.3, https://matplotlib.org/</dc:title>
     </cc:Agent>
    </dc:creator>
   </cc:Work>
  </rdf:RDF>
 </metadata>
 <defs>
  <style type="text/css">*{stroke-linecap:butt;stroke-linejoin:round;}</style>
 </defs>
 <g id="figure_1">
  <g id="patch_1">
   <path d="M 0 720 
L 720 720 
L 720 0 
L 0 0 
z
" style="fill:none;"/>
  </g>
  <g id="axes_1">
   <g id="patch_2">
    <path clip-path="url(#p9ddfc21bf1)" d="M 516.200545 219.101976 
L 517.550401 219.528154 
L 518.327339 219.800303 
L 519.527956 220.068073 
L 520.303665 220.220357 
L 521.551443 220.446271 
L 522.92066 220.61053 
L 524.188157 220.609272 
L 525.456244 220.828462 
L 526.723693 220.771946 
L 528.143365 220.550048 
L 529.258658 220.273241 
L 530.42452 220.161611 
L 531.591279 220.711838 
L 532.80854 220.93148 
L 534.177603 220.874906 
L 535.445147 220.928837 
L 536.611762 221.313406 
L 537.930226 221.477768 
L 539.197533 221.255994 
L 540.566512 221.144205 
L 541.884975 221.308136 
L 542.746985 221.417704 
L 543.964292 221.692219 
L 545.0802 222.13246 
L 546.34779 222.241226 
L 547.666169 222.350335 
L 549.086254 222.569429 
L 550.252456 222.899182 
L 551.418973 223.173714 
L 552.737575 223.503354 
L 553.904185 223.888329 
L 554.969301 224.328233 
L 556.237358 224.988816 
L 557.657686 225.538806 
L 559.056278 226.12629 
L 560.178745 226.607595 
L 561.248597 227.117312 
L 562.371063 227.598973 
L 563.545536 228.278588 
L 564.876943 229.213639 
L 566.286612 230.03541 
L 567.591897 230.885292 
L 568.871026 231.73524 
L 570.280716 232.500216 
L 570.824115 232.847091 
L 570.886873 344.74187 
L 571.090314 368.565344 
L 571.703055 415.846378 
L 569.456069 456.507274 
L 567.79348 497.976498 
L 505.868421 495.083886 
L 468.419642 493.141815 
L 417.51487 490.327674 
L 354.900724 487.662079 
L 292.122887 484.65516 
L 229.411036 481.6583 
L 225.944341 485.214309 
L 203.007212 484.098048 
L 176.742737 498.372193 
L 172.134492 498.054961 
L 172.126645 490.775756 
L 171.848873 484.21187 
L 171.301195 478.628047 
L 170.391065 471.917934 
L 168.984271 465.306448 
L 167.578778 459.919596 
L 166.296945 455.240087 
L 166.924929 454.249722 
L 167.733811 452.807904 
L 168.542227 451.265862 
L 169.609062 449.903798 
L 170.860607 448.581305 
L 172.037989 447.098804 
L 172.84709 445.896764 
L 173.619126 444.595018 
L 174.759918 443.152402 
L 175.881871 441.73028 
L 177.07774 440.227644 
L 178.163044 438.825291 
L 179.488113 437.382847 
L 180.831278 435.899716 
L 182.04584 434.577316 
L 183.316233 433.575089 
L 184.660309 432.652882 
L 185.857254 431.830608 
L 187.072664 431.008312 
L 188.232893 430.106448 
L 189.429764 429.244339 
L 190.828976 428.281837 
L 192.24697 427.239205 
L 193.351709 426.37725 
L 194.677986 425.774918 
L 195.580828 425.373473 
L 197.01768 424.711094 
L 198.196929 424.309315 
L 199.633885 423.747085 
L 200.849531 423.144891 
L 202.175849 422.542959 
L 203.3919 421.981039 
L 204.791773 421.298556 
L 205.897271 420.816841 
L 207.29713 420.154476 
L 208.537426 419.176207 
L 213.761563 415.543105 
L 220.531632 411.681287 
L 227.653881 406.209592 
L 230.811874 404.881039 
L 236.200733 402.614045 
L 239.372351 401.331917 
L 243.908884 401.733191 
L 247.272135 402.759857 
L 247.297863 402.7334 
L 253.8263 396.175106 
L 260.866374 389.962389 
L 268.179441 383.952672 
L 269.550346 382.944474 
L 270.958143 381.788756 
L 271.849277 380.51843 
L 272.885658 379.066141 
L 273.981237 378.013698 
L 275.078808 377.141509 
L 276.302665 375.987982 
L 277.475907 375.335011 
L 278.666788 374.581873 
L 279.762372 373.529434 
L 281.186631 372.133457 
L 282.372727 370.900303 
L 283.688729 369.745452 
L 284.639074 368.914895 
L 285.845245 367.841032 
L 286.812906 366.910231 
L 288.109625 365.655653 
L 289.458287 364.10042 
L 290.462091 363.069038 
L 291.651394 362.135616 
L 293.080113 361.240178 
L 294.292377 360.786796 
L 295.485322 360.273837 
L 296.922444 360.178696 
L 310.43069 350.409384 
L 310.565475 349.087092 
L 310.955764 347.521576 
L 311.552428 346.334439 
L 312.33178 344.965259 
L 313.037494 343.596599 
L 313.814841 342.027484 
L 314.779295 340.756308 
L 315.594867 339.326346 
L 316.262345 337.838217 
L 316.840532 336.631381 
L 317.638792 335.30206 
L 318.897346 333.927603 
L 319.769632 332.657323 
L 320.438336 331.26938 
L 321.514623 330.097122 
L 322.368412 328.827259 
L 323.130462 327.55829 
L 323.874414 326.329614 
L 324.746724 325.03922 
L 325.82665 324.287386 
L 327.114152 323.993686 
L 328.439092 323.739742 
L 329.328284 322.308914 
L 329.535136 320.84573 
L 329.803929 320.042399 
L 330.84319 318.870544 
L 331.974629 317.697835 
L 333.344645 316.402148 
L 334.421332 315.290206 
L 335.773634 314.054929 
L 336.907886 313.162622 
L 338.096839 312.229273 
L 339.284227 311.136141 
L 340.638139 310.060966 
L 342.083027 308.90487 
L 343.070007 308.053755 
L 344.315326 307.220098 
L 345.44993 306.347557 
L 346.821987 305.272367 
L 347.938513 304.460157 
L 349.052251 303.347393 
L 350.493122 301.771239 
L 351.86236 300.395932 
L 353.159144 299.161086 
L 354.220611 298.389568 
L 355.390242 297.336345 
L 356.617817 296.563065 
L 357.879228 295.508952 
L 359.23236 294.393994 
L 360.49572 293.480259 
L 361.886331 292.444937 
L 363.275268 291.209246 
L 364.316547 290.217664 
L 364.792146 289.852323 
L 365.947292 289.199827 
L 367.319334 288.124692 
L 368.543716 287.030751 
L 369.990202 286.035211 
L 371.419391 285.159598 
L 372.62968 284.506256 
L 373.963908 283.331378 
L 375.279637 282.156915 
L 376.522909 281.083075 
L 377.895363 280.047786 
L 379.176915 279.173527 
L 380.256429 278.321936 
L 381.590284 277.126947 
L 382.926523 276.152011 
L 384.005659 275.280346 
L 385.229658 274.146619 
L 386.398937 273.073656 
L 387.662285 272.159586 
L 388.834785 271.426661 
L 390.022569 270.35368 
L 391.265874 269.299612 
L 392.438359 268.546968 
L 393.831368 267.751839 
L 395.20382 266.696447 
L 396.39201 265.663348 
L 397.526715 264.850756 
L 398.823132 263.556425 
L 400.249113 262.360561 
L 401.530249 261.406605 
L 402.939749 260.350785 
L 404.146048 259.317671 
L 405.481091 258.20273 
L 406.633906 257.349931 
L 407.860308 256.436705 
L 409.105648 255.603095 
L 410.36949 254.769111 
L 411.74396 253.954335 
L 413.19167 253.058187 
L 414.512218 252.383889 
L 415.594595 251.852241 
L 416.843138 251.338913 
L 418.255068 250.58366 
L 419.392133 249.951335 
L 420.639842 249.35798 
L 421.887589 248.764586 
L 422.860506 248.373873 
L 423.926383 248.04258 
L 424.753234 247.75379 
L 425.928557 247.30129 
L 427.120785 246.688277 
L 428.350397 246.13514 
L 429.728073 245.640259 
L 430.88526 245.187781 
L 432.07789 244.615004 
L 433.361465 243.921039 
L 434.720244 243.386699 
L 435.61996 243.037054 
L 436.557041 242.726852 
L 437.953241 242.212197 
L 438.466665 241.926511 
L 439.734102 241.473132 
L 440.982258 240.919628 
L 442.415063 240.404148 
L 443.683335 240.030881 
L 444.418067 239.763064 
L 445.555999 239.270819 
L 446.838748 238.456918 
L 448.17702 237.702163 
L 449.2956 237.11011 
L 450.340157 236.458617 
L 451.550519 235.82588 
L 452.869133 234.951203 
L 454.044398 234.458529 
L 455.420149 233.78381 
L 456.540726 233.391736 
L 457.699522 233.099809 
L 458.984672 232.566001 
L 460.252173 232.132398 
L 461.463682 231.599419 
L 462.711469 231.025816 
L 463.701691 230.455208 
L 464.874605 229.762566 
L 466.231825 229.047998 
L 467.533905 228.373761 
L 468.46944 227.903832 
L 469.881786 227.168304 
L 470.926736 226.577171 
L 472.007946 225.925218 
L 473.327337 225.091222 
L 474.666008 224.356603 
L 475.895284 223.763268 
L 477.328526 223.308204 
L 478.303476 223.097737 
L 479.370534 222.886424 
L 480.695125 222.59276 
L 482.019353 222.298743 
L 483.325787 222.065054 
L 484.595653 221.831444 
L 485.808822 221.478737 
L 486.931005 221.24686 
L 488.364632 220.811488 
L 489.779812 220.396685 
L 491.160723 220.242245 
L 492.357744 220.129768 
L 493.739054 219.97529 
L 495.118355 219.640599 
L 496.075223 219.490508 
L 497.069438 219.360141 
L 498.303915 219.307583 
L 499.353669 219.216562 
L 500.532209 219.084034 
L 501.787538 219.271271 
L 503.223176 219.056435 
L 504.419041 218.823666 
L 505.669597 218.530532 
L 507.048937 218.195811 
L 508.393609 218.082049 
L 509.738695 218.027807 
L 511.06689 218.114396 
L 512.414398 218.340634 
L 513.595686 218.488513 
L 514.888485 218.755436 
L 516.200545 219.101976 
" style="stroke:#ffffff;stroke-linejoin:miter;stroke-width:2;"/>
   </g>
  </g>
 </g>
 <defs>
  <clipPath id="p9ddfc21bf1">
   <rect height="543.6" width="558" x="90" y="86.4"/>
  </clipPath>
 </defs>
</svg>
