<?xml version="1.0" encoding="utf-8" standalone="no"?>
<!DOCTYPE svg PUBLIC "-//W3C//DTD SVG 1.1//EN"
  "http://www.w3.org/Graphics/SVG/1.1/DTD/svg11.dtd">
<!-- Created with matplotlib (https://matplotlib.org/) -->
<svg height="720pt" version="1.1" viewBox="0 0 720 720" width="720pt" xmlns="http://www.w3.org/2000/svg" xmlns:xlink="http://www.w3.org/1999/xlink">
 <metadata>
  <rdf:RDF xmlns:cc="http://creativecommons.org/ns#" xmlns:dc="http://purl.org/dc/elements/1.1/" xmlns:rdf="http://www.w3.org/1999/02/22-rdf-syntax-ns#">
   <cc:Work>
    <dc:type rdf:resource="http://purl.org/dc/dcmitype/StillImage"/>
    <dc:date>2021-05-28T08:56:47.832732</dc:date>
    <dc:format>image/svg+xml</dc:format>
    <dc:creator>
     <cc:Agent>
      <dc:title>Matplotlib v3.3.3, https://matplotlib.org/</dc:title>
     </cc:Agent>
    </dc:creator>
   </cc:Work>
  </rdf:RDF>
 </metadata>
 <defs>
  <style type="text/css">*{stroke-linecap:butt;stroke-linejoin:round;}</style>
 </defs>
 <g id="figure_1">
  <g id="patch_1">
   <path d="M 0 720 
L 720 720 
L 720 0 
L 0 0 
z
" style="fill:none;"/>
  </g>
  <g id="axes_1">
   <g id="patch_2">
    <path clip-path="url(#p866fa52a60)" d="M 589.733507 282.465914 
L 589.219769 283.093867 
L 588.773905 283.363231 
L 588.270958 283.406916 
L 587.738479 283.16485 
L 587.28282 282.909822 
L 586.822943 283.179203 
L 586.344992 283.985677 
L 586.062533 284.741285 
L 585.822269 285.543752 
L 585.63075 286.310056 
L 585.376318 287.065165 
L 585.247743 287.854162 
L 585.160476 288.523193 
L 585.114809 289.119936 
L 585.048265 289.729137 
L 584.878086 290.578479 
L 584.498407 291.45477 
L 584.034473 292.260787 
L 583.521641 293.055805 
L 583.008212 293.755564 
L 582.516241 294.526417 
L 581.968223 295.310002 
L 581.538146 295.901037 
L 581.158028 296.693803 
L 580.609711 297.405827 
L 580.142826 297.651736 
L 579.62181 298.220348 
L 579.164596 298.978732 
L 578.945075 299.390868 
L 578.735563 299.784247 
L 578.251216 300.685998 
L 577.884813 301.407213 
L 577.448767 302.189016 
L 577.01199 302.851884 
L 576.505593 303.56314 
L 576.098315 304.487593 
L 575.669721 305.352942 
L 575.338522 306.156922 
L 574.875199 307.058444 
L 574.355511 307.88938 
L 574.058307 308.490155 
L 573.713079 309.282655 
L 573.361 310.086917 
L 573.071399 310.806878 
L 572.753758 311.527316 
L 572.415401 312.283934 
L 572.085066 313.219099 
L 571.677516 314.095903 
L 571.318141 314.852779 
L 570.952039 315.657294 
L 570.544632 316.546065 
L 570.31081 317.265028 
L 570.05638 318.020381 
L 569.739343 318.836105 
L 569.442749 319.579986 
L 569.154039 320.466772 
L 568.830587 321.389966 
L 568.597037 322.132862 
L 568.224684 323.06878 
L 567.81713 323.957577 
L 567.281674 324.442926 
L 566.850584 324.855188 
L 566.463319 325.624277 
L 566.096637 326.297872 
L 565.751282 327.054504 
L 565.475857 327.821826 
L 565.277955 328.695375 
L 565.128076 329.413073 
L 565.108967 329.735245 
L 565.064796 330.618241 
L 564.908502 331.443408 
L 564.632923 332.163359 
L 564.232381 333.051917 
L 563.984695 333.783077 
L 563.821396 334.60851 
L 563.525532 335.447655 
L 563.291855 336.166856 
L 562.877454 337.09133 
L 562.490356 337.884356 
L 562.144855 338.605326 
L 561.84124 339.325546 
L 561.649607 340.055704 
L 561.402363 340.858451 
L 561.113519 341.721546 
L 560.900574 342.404591 
L 560.681054 343.171174 
L 560.454689 343.961673 
L 560.193426 344.740738 
L 559.966768 345.483631 
L 559.727271 346.417295 
L 559.528193 347.076393 
L 559.274089 347.891092 
L 559.090216 348.788349 
L 558.940939 349.625219 
L 558.763913 350.462636 
L 558.579454 351.264351 
L 558.353229 352.054875 
L 558.175479 352.79701 
L 557.998165 353.59874 
L 557.943436 353.814195 
L 557.77985 354.591743 
L 557.623261 355.345351 
L 557.514689 355.931376 
L 557.392402 356.57699 
L 557.243567 357.485705 
L 557.149911 358.273943 
L 557.013754 358.932032 
L 556.836442 359.733528 
L 556.687012 360.523027 
L 556.461102 361.408812 
L 556.290645 362.174637 
L 556.10618 362.952444 
L 555.999388 363.87235 
L 555.997271 364.778528 
L 556.002022 365.648798 
L 555.957854 366.519829 
L 555.905203 367.128785 
L 555.812429 368.060406 
L 555.7401 368.896039 
L 555.709206 369.635895 
L 555.672044 370.506918 
L 555.67619 371.269962 
L 555.659923 372.140515 
L 555.636339 372.951668 
L 555.508672 373.883822 
L 555.297071 374.816987 
L 555.119918 375.66635 
L 554.956479 376.455865 
L 554.821211 377.268811 
L 554.692518 378.033862 
L 554.543679 378.918645 
L 554.468525 379.24182 
L 554.297934 380.007646 
L 554.14181 380.844549 
L 554.026836 381.561977 
L 553.863242 382.303628 
L 553.713969 383.128768 
L 553.654754 383.809318 
L 553.540667 384.681579 
L 553.461173 385.493547 
L 553.360501 386.246365 
L 553.211228 387.071317 
L 553.083565 388.003426 
L 553.053431 388.886196 
L 553.06474 389.696862 
L 552.985091 390.461176 
L 552.920069 391.356399 
L 552.874868 392.036909 
L 552.921803 392.966024 
L 552.996176 393.799612 
L 553.077714 394.656679 
L 553.173562 395.573302 
L 553.241217 396.442562 
L 553.246254 397.372664 
L 553.160343 398.280112 
L 553.072964 398.913509 
L 553.000625 399.749143 
L 552.977336 400.608184 
L 552.967784 401.430841 
L 553.028579 402.3243 
L 553.005139 403.147207 
L 552.960534 403.946911 
L 552.874771 404.87829 
L 552.86225 405.140859 
L 552.789769 405.964527 
L 552.72428 406.752546 
L 552.638516 407.683926 
L 552.587659 408.614796 
L 552.606708 409.544413 
L 552.625317 410.402702 
L 552.567013 411.262017 
L 552.473947 412.134044 
L 552.366276 412.898883 
L 552.327935 413.555195 
L 552.290796 414.438208 
L 552.295834 415.368075 
L 552.44742 416.236066 
L 552.605897 417.127746 
L 552.820568 418.042613 
L 552.881362 418.935814 
L 552.941721 419.769418 
L 552.981067 420.579583 
L 552.866974 421.427936 
L 552.627062 422.302243 
L 552.387146 423.164349 
L 552.272755 423.953105 
L 552.242021 424.740592 
L 552.331004 425.669189 
L 552.475739 426.585076 
L 552.55684 427.382523 
L 552.652223 428.203886 
L 552.7342 429.132515 
L 552.760117 430.062124 
L 552.750395 430.837386 
L 552.746954 431.481245 
L 552.757374 432.125089 
L 552.775835 432.959211 
L 552.871231 433.780574 
L 552.902374 434.376295 
L 552.969137 435.078732 
L 553.029499 435.888404 
L 553.173953 436.756637 
L 553.255332 437.601949 
L 553.300922 438.257015 
L 553.367097 438.863958 
L 553.532576 439.75563 
L 553.704905 440.599453 
L 553.862607 441.312345 
L 553.97188 442.145189 
L 554.067261 442.966553 
L 554.302511 443.83304 
L 554.376875 444.654685 
L 554.416371 445.50075 
L 554.441832 446.322897 
L 554.662322 447.034779 
L 554.526769 447.800095 
L 554.824472 448.582278 
L 555.136939 449.495603 
L 555.287803 450.256157 
L 555.355307 451.10172 
L 555.458003 451.982438 
L 555.539674 452.87538 
L 555.598704 453.446667 
L 555.645635 454.376018 
L 555.678105 455.210124 
L 555.739057 456.127281 
L 555.876331 456.947893 
L 555.926874 457.245115 
L 556.021968 458.042547 
L 556.06159 458.900366 
L 556.149834 459.709772 
L 556.238353 460.554842 
L 556.264281 461.484451 
L 556.289892 462.342498 
L 556.357247 463.164152 
L 556.34767 463.963322 
L 556.337502 464.655032 
L 556.376816 465.465174 
L 556.252694 466.340262 
L 556.223373 466.530348 
L 556.126698 467.339238 
L 556.015495 468.23144 
L 555.96694 469.148675 
L 555.953796 469.99548 
L 556.010187 470.879301 
L 556.116627 471.573693 
L 556.278072 472.388623 
L 556.460654 473.192032 
L 556.656989 474.007626 
L 556.827132 474.584183 
L 557.016713 475.375852 
L 557.136267 476.201624 
L 557.172408 476.977748 
L 557.214507 477.88526 
L 557.201766 478.672233 
L 557.139725 479.529653 
L 557.028262 480.457518 
L 556.91732 481.31382 
L 556.814171 482.074853 
L 556.682739 482.870878 
L 556.523158 483.690398 
L 556.356447 484.545356 
L 556.204531 485.293305 
L 556.123574 485.864025 
L 556.027554 486.589385 
L 555.925056 487.255156 
L 555.75108 488.145787 
L 555.584765 488.95288 
L 555.453851 489.665586 
L 555.316083 490.378089 
L 555.15703 491.138013 
L 554.996934 492.040829 
L 554.872121 492.896679 
L 554.74082 493.669006 
L 554.581379 494.488527 
L 554.421809 495.331746 
L 554.262885 496.067503 
L 554.104093 496.791528 
L 553.923897 497.574705 
L 553.65318 498.355616 
L 553.290882 499.230041 
L 553.159587 500.014335 
L 552.727373 500.922862 
L 552.658867 501.708492 
L 552.443261 502.562335 
L 552.235055 503.368539 
L 552.026982 504.162988 
L 551.812685 504.850006 
L 551.526785 505.785583 
L 551.171482 506.660236 
L 550.858875 507.440259 
L 550.565971 508.375844 
L 550.385002 509.278217 
L 550.190151 510.156439 
L 550.009571 510.999215 
L 549.864401 511.771091 
L 549.670071 512.57775 
L 549.434378 513.335888 
L 549.218516 514.225374 
L 549.003835 514.97199 
L 548.753085 515.860836 
L 548.586384 516.715798 
L 548.412551 517.594465 
L 548.337678 518.284608 
L 548.254767 519.14156 
L 548.137497 519.914108 
L 547.964053 520.733179 
L 547.805136 521.469173 
L 547.596675 522.311279 
L 547.129585 523.218914 
L 546.760691 524.057429 
L 546.454049 524.968632 
L 546.232361 525.703292 
L 546.038694 526.438389 
L 545.844114 527.292657 
L 545.754583 528.077843 
L 545.671798 528.898921 
L 545.539749 529.802412 
L 545.269154 530.547688 
L 544.774847 531.359393 
L 544.384946 532.209197 
L 544.13551 532.931221 
L 543.899298 533.748724 
L 543.670745 534.483136 
L 543.420917 535.252556 
L 543.2266 536.071184 
L 543.004783 536.817577 
L 542.783104 537.563971 
L 542.441708 538.450792 
L 542.102011 539.122712 
L 541.740387 539.913593 
L 541.308721 540.762534 
L 540.863055 541.599292 
L 540.396378 542.447314 
L 540.006343 543.321056 
L 539.692578 544.255947 
L 539.205144 545.09177 
L 538.814713 546.001178 
L 538.417547 546.898603 
L 538.112346 547.607065 
L 537.849418 548.269018 
L 537.620739 549.015165 
L 537.265084 549.949403 
L 536.766766 550.355395 
L 536.381558 550.561111 
L 536.04603 550.660737 
L 535.54292 550.768517 
L 535.08211 550.829321 
L 534.593539 550.85379 
L 534.098096 550.866302 
L 533.582039 550.854438 
L 533.065704 550.866272 
L 532.562741 550.962113 
L 532.108273 551.082744 
L 531.598423 551.16637 
L 531.130088 551.29875 
L 530.683284 551.348045 
L 530.180694 551.384033 
L 529.670853 551.45593 
L 529.189293 551.492363 
L 528.700463 551.552762 
L 528.367765 551.586835 
L 528.225761 551.60139 
L 527.702308 551.637172 
L 527.311137 551.699542 
L 526.801954 551.699879 
L 526.335032 551.629329 
L 525.840647 551.510689 
L 525.67359 551.459015 
L 525.192799 551.364527 
L 524.684787 551.209538 
L 524.170538 550.923396 
L 523.712699 550.566797 
L 523.220783 550.11404 
L 522.859833 549.855424 
L 522.33197 549.532933 
L 521.797627 549.150855 
L 521.416582 548.796275 
L 520.904682 548.187984 
L 520.455031 547.676521 
L 519.964132 547.068909 
L 519.486072 546.616374 
L 519.028504 546.224115 
L 518.524126 545.54449 
L 518.053076 545.104383 
L 517.519635 544.590915 
L 517.023946 543.672893 
L 516.632653 542.805188 
L 516.603492 542.029059 
L 516.776653 541.245874 
L 516.942935 540.438554 
L 516.893525 539.554753 
L 516.662544 538.702359 
L 516.354134 537.943891 
L 515.955461 537.135558 
L 515.564292 536.243711 
L 515.277689 535.378224 
L 515.043701 534.919549 
L 514.546054 534.287785 
L 514.000045 533.595312 
L 513.473989 533.022711 
L 512.956754 532.19949 
L 512.50295 531.282594 
L 512.159393 530.570889 
L 511.859267 529.633389 
L 511.586646 528.744447 
L 511.369938 527.844877 
L 511.151783 527.159975 
L 510.843622 526.353669 
L 510.459724 525.426365 
L 510.082831 524.499075 
L 509.621357 523.67743 
L 509.179875 522.999144 
L 508.675734 522.295598 
L 508.23475 521.534018 
L 507.81596 520.605821 
L 507.368635 519.76072 
L 506.990296 519.024169 
L 506.514553 518.249964 
L 506.018072 517.451127 
L 505.717042 516.633084 
L 505.332992 515.717751 
L 505.168926 515.260635 
L 504.860508 514.513931 
L 504.433525 513.740582 
L 503.908639 513.012901 
L 503.375823 512.404189 
L 502.947548 511.821858 
L 502.450271 511.130487 
L 501.966872 510.451324 
L 501.448597 509.771244 
L 500.943668 509.17517 
L 500.521745 508.676363 
L 500.113842 508.166041 
L 499.595669 507.474255 
L 499.062609 506.913156 
L 498.646908 506.510073 
L 498.255067 505.701749 
L 497.884646 504.846236 
L 497.423043 504.048326 
L 496.906297 503.141829 
L 496.484762 502.595395 
L 496.035211 502.06026 
L 495.627416 501.52601 
L 495.081249 500.845294 
L 494.638052 500.393916 
L 494.167355 499.882015 
L 493.765793 499.467187 
L 493.370972 499.076284 
L 492.915715 498.350168 
L 492.510385 497.494002 
L 492.045651 497.113514 
L 491.609729 496.626207 
L 491.128003 495.720634 
L 490.664567 495.173087 
L 490.186735 494.684898 
L 489.66791 494.064689 
L 489.156095 493.456648 
L 488.624045 492.752458 
L 488.216781 492.158595 
L 487.698212 491.502488 
L 487.217922 491.360155 
L 486.786914 491.147626 
L 486.279378 490.897422 
L 485.869113 490.720765 
L 485.48753 490.425817 
L 485.106582 490.047338 
L 484.559615 489.474098 
L 484.081261 489.05748 
L 483.630659 488.65352 
L 483.208854 488.142764 
L 482.780429 487.572421 
L 482.303764 486.917181 
L 481.763926 486.320237 
L 481.31307 485.964121 
L 480.849362 485.440518 
L 480.738989 485.282733 
L 480.199793 484.59053 
L 479.784337 484.151544 
L 479.237881 483.506724 
L 478.788057 483.007272 
L 478.330451 482.615058 
L 477.784901 481.851045 
L 477.314316 481.315466 
L 476.871762 480.768376 
L 476.339831 480.052447 
L 475.898169 479.386163 
L 475.486067 478.482134 
L 475.059457 477.661208 
L 474.577326 476.815228 
L 474.235144 475.88884 
L 473.71058 475.101341 
L 473.298627 474.197337 
L 472.927651 473.389455 
L 472.54268 472.617279 
L 472.185833 471.797905 
L 471.807729 471.025721 
L 471.367479 470.156929 
L 471.004022 469.277733 
L 470.730317 468.543889 
L 470.325359 467.627912 
L 470.016504 466.929076 
L 469.47572 466.367322 
L 469.260418 465.98441 
L 468.613935 464.423358 
L 467.994011 462.880618 
L 467.636663 461.884594 
L 467.237058 460.673445 
L 466.952936 460.027159 
L 466.340937 457.75482 
L 466.235771 457.459748 
L 465.868685 456.854543 
L 465.014119 454.982656 
L 464.639682 454.201135 
L 464.258613 453.454982 
L 463.815105 452.518933 
L 463.523207 451.848001 
L 463.199453 451.089218 
L 462.721827 450.106572 
L 462.244139 449.2545 
L 461.873048 448.584169 
L 461.448314 447.677403 
L 460.800095 446.176313 
L 460.25305 444.805284 
L 460.001933 444.020172 
L 459.704296 443.219756 
L 459.497312 442.432144 
L 459.325359 441.62102 
L 458.971922 440.760639 
L 458.792824 439.973223 
L 458.641755 439.174248 
L 458.399772 438.42188 
L 458.07399 437.657191 
L 457.539201 436.771463 
L 457.053074 435.957724 
L 457.062581 435.148227 
L 456.960156 434.385108 
L 456.55819 433.452975 
L 456.162735 432.663748 
L 455.962761 431.864396 
L 455.741666 431.136167 
L 455.353565 430.215982 
L 455.041543 429.510874 
L 454.743768 428.722428 
L 454.508907 427.934388 
L 454.106809 427.049911 
L 453.760244 426.213668 
L 453.595165 425.426236 
L 453.513748 424.651591 
L 453.328004 423.768692 
L 453.106901 423.028733 
L 452.872158 422.205029 
L 452.546849 421.297429 
L 452.23543 420.425498 
L 451.972403 419.661197 
L 451.57744 418.741025 
L 451.307544 417.976733 
L 451.03742 417.28377 
L 450.829718 416.71036 
L 450.427387 415.89745 
L 450.108351 415.216053 
L 449.698761 414.450527 
L 449.303295 413.661283 
L 448.859293 412.752703 
L 448.386935 412.010494 
L 447.872053 411.422734 
L 447.434223 410.811896 
L 446.899055 410.033409 
L 446.420283 409.10069 
L 446.031581 408.359305 
L 445.62211 407.593806 
L 445.226395 406.84023 
L 444.782285 406.002983 
L 444.36603 405.130479 
L 444.040241 404.389476 
L 443.699952 403.803141 
L 443.401099 403.372074 
L 442.85845 402.760168 
L 442.398548 402.506478 
L 441.875824 402.192553 
L 441.52037 402.034891 
L 441.146166 401.907595 
L 441.367466 394.221368 
L 441.511844 388.913253 
L 441.947539 371.294156 
L 442.037547 367.902811 
L 442.56851 347.898141 
L 419.086829 347.908631 
L 394.948791 347.920795 
L 371.152711 347.934287 
L 342.745793 347.952485 
L 316.661416 347.964893 
L 313.382538 348.012097 
L 310.050261 348.082133 
L 303.380365 348.200544 
L 290.853782 348.467137 
L 277.090411 348.436843 
L 266.862254 348.414634 
L 243.41916 348.364681 
L 219.679289 348.315456 
L 206.075217 348.286873 
L 195.786022 348.266722 
L 192.856713 348.407465 
L 178.389423 348.321911 
L 171.823309 348.219177 
L 163.894595 348.286988 
L 148.058638 348.173414 
L 134.677335 348.148219 
L 118.950953 348.119071 
L 118.952635 330.219453 
L 118.928961 317.874352 
L 118.942424 305.315537 
L 118.927531 293.047074 
L 118.951005 280.500511 
L 118.929594 268.206629 
L 118.959603 255.634901 
L 118.904144 243.447432 
L 119.308028 230.851258 
L 119.474001 218.677359 
L 119.347876 206.204758 
L 119.043956 190.240138 
L 119.039201 164.700121 
L 224.106944 172.748885 
L 286.507718 177.541755 
L 293.995337 178.160199 
L 322.96589 180.400905 
L 328.799722 180.846964 
L 335.553842 181.347876 
L 342.447823 181.892518 
L 345.145278 182.105677 
L 372.550803 184.138652 
L 378.597529 184.602764 
L 410.088709 187.03562 
L 436.796436 189.07432 
L 452.374591 190.260848 
L 465.38251 191.278693 
L 469.650464 191.580365 
L 474.561992 191.987249 
L 478.680678 192.322063 
L 483.8326 192.70234 
L 491.197599 193.273043 
L 494.493002 193.527432 
L 504.612402 194.292759 
L 520.353413 195.511075 
L 546.858376 197.558738 
L 562.844223 198.821034 
L 582.260023 200.304439 
L 597.099409 201.432572 
L 599.19059 201.62746 
L 600.935364 201.831891 
L 602.862319 202.18335 
L 604.756011 202.539733 
L 606.032626 202.852268 
L 606.714627 203.07419 
L 607.668161 203.384387 
L 609.382828 203.981237 
L 612.338981 205.228086 
L 614.171487 206.071459 
L 617.864895 207.89112 
L 619.095856 208.555362 
L 618.993556 209.086671 
L 618.809173 209.888335 
L 618.624773 210.678033 
L 618.467678 211.360031 
L 618.290016 212.126048 
L 618.042859 212.964377 
L 617.929276 213.527608 
L 617.700928 214.364746 
L 617.453909 215.203099 
L 617.235062 216.100787 
L 617.043534 216.890727 
L 616.908197 217.715595 
L 616.8431 218.598793 
L 616.79757 219.243374 
L 616.668508 219.936842 
L 616.490994 220.726557 
L 616.285722 221.540444 
L 616.079882 222.259095 
L 615.651376 223.148053 
L 615.361569 223.844239 
L 615.232227 224.478111 
L 615.139237 225.385763 
L 615.087432 226.161486 
L 615.022338 227.044708 
L 614.858976 227.870075 
L 614.653133 228.576736 
L 614.357353 229.47544 
L 613.977903 230.375614 
L 613.702558 231.166836 
L 613.538329 231.825122 
L 613.452201 232.708835 
L 613.316591 233.486051 
L 613.153095 234.275519 
L 612.954397 235.017861 
L 612.62401 235.952947 
L 612.272316 236.852624 
L 612.12298 237.665776 
L 611.875673 238.480435 
L 611.607625 239.307293 
L 611.324835 240.014972 
L 611.01417 240.723407 
L 610.941049 241.427848 
L 610.875066 242.156214 
L 610.84414 242.907985 
L 610.778307 243.672015 
L 610.447796 244.595136 
L 609.977098 245.449206 
L 609.59767 246.349148 
L 609.335762 247.044889 
L 609.060288 247.800451 
L 608.722022 248.580713 
L 608.370202 249.456508 
L 607.885799 250.358483 
L 607.533218 251.055467 
L 607.216587 251.978388 
L 606.990025 252.733221 
L 606.784628 253.511473 
L 606.453672 254.363081 
L 606.100819 255.024402 
L 605.768831 255.673524 
L 605.318459 256.407916 
L 604.826017 257.095191 
L 604.389359 257.793671 
L 603.917947 258.504412 
L 603.41865 259.227594 
L 603.011067 260.128323 
L 602.665648 260.860967 
L 602.2017 261.655208 
L 601.751761 262.472921 
L 601.260069 263.327281 
L 600.789691 264.228992 
L 600.396125 265.129239 
L 599.988683 266.029947 
L 599.586764 266.656153 
L 599.044987 267.284827 
L 598.517816 268.032212 
L 598.024945 268.647932 
L 597.601288 269.143449 
L 597.08814 269.914541 
L 596.756453 270.611277 
L 596.453399 271.426966 
L 596.045237 272.220217 
L 595.588587 273.074078 
L 595.132375 273.999267 
L 594.933717 274.765316 
L 594.875209 275.576995 
L 594.669678 276.331578 
L 594.184266 277.042556 
L 593.745409 277.323638 
L 593.264222 277.521941 
L 592.722157 278.090792 
L 592.271934 278.849131 
L 591.745653 279.751639 
L 591.253374 280.462862 
L 590.704177 281.019992 
L 590.162854 281.731761 
L 589.733507 282.465914 
" style="fill:#1a1a1a;stroke:#ffffff;stroke-linejoin:miter;stroke-width:4;"/>
   </g>
  </g>
 </g>
 <defs>
  <clipPath id="p866fa52a60">
   <rect height="543.6" width="558" x="90" y="86.4"/>
  </clipPath>
 </defs>
</svg>
