<?xml version="1.0" encoding="utf-8" standalone="no"?>
<!DOCTYPE svg PUBLIC "-//W3C//DTD SVG 1.1//EN"
  "http://www.w3.org/Graphics/SVG/1.1/DTD/svg11.dtd">
<!-- Created with matplotlib (https://matplotlib.org/) -->
<svg height="720pt" version="1.1" viewBox="0 0 720 720" width="720pt" xmlns="http://www.w3.org/2000/svg" xmlns:xlink="http://www.w3.org/1999/xlink">
 <metadata>
  <rdf:RDF xmlns:cc="http://creativecommons.org/ns#" xmlns:dc="http://purl.org/dc/elements/1.1/" xmlns:rdf="http://www.w3.org/1999/02/22-rdf-syntax-ns#">
   <cc:Work>
    <dc:type rdf:resource="http://purl.org/dc/dcmitype/StillImage"/>
    <dc:date>2021-05-07T11:02:58.270953</dc:date>
    <dc:format>image/svg+xml</dc:format>
    <dc:creator>
     <cc:Agent>
      <dc:title>Matplotlib v3.3.3, https://matplotlib.org/</dc:title>
     </cc:Agent>
    </dc:creator>
   </cc:Work>
  </rdf:RDF>
 </metadata>
 <defs>
  <style type="text/css">*{stroke-linecap:butt;stroke-linejoin:round;}</style>
 </defs>
 <g id="figure_1">
  <g id="patch_1">
   <path d="M 0 720 
L 720 720 
L 720 0 
L 0 0 
z
" style="fill:none;"/>
  </g>
  <g id="axes_1">
   <g id="patch_2">
    <path clip-path="url(#pb4de142ae8)" d="M 392.612396 151.595776 
L 397.908277 153.079575 
L 403.038996 154.869373 
L 407.974212 156.954594 
L 412.684735 159.322902 
L 417.142766 161.96036 
L 482.340481 203.703083 
L 491.480931 209.558246 
L 508.178562 227.976502 
L 526.399227 261.193961 
L 551.10598 273.540079 
L 557.045962 276.720821 
L 562.706797 280.185144 
L 568.065272 283.918789 
L 573.099454 287.906473 
L 577.788627 292.131806 
L 582.113615 296.5775 
L 586.056615 301.225246 
L 589.658857 306.140539 
L 592.023498 309.84465 
L 594.154087 313.630495 
L 596.045769 317.489499 
L 598.007719 322.23363 
L 599.090134 325.365699 
L 600.247327 329.417024 
L 601.146072 333.479599 
L 601.790077 337.570224 
L 602.160837 341.36785 
L 602.308513 345.798414 
L 602.103184 351.080491 
L 601.76614 354.309356 
L 601.270752 357.526314 
L 600.263155 362.180959 
L 599.115628 366.206898 
L 597.718008 370.186491 
L 571.073715 439.434069 
L 570.139959 441.853754 
L 550.699975 481.751857 
L 553.487833 482.542561 
L 551.899999 485.510428 
L 550.091958 488.404022 
L 548.069657 491.213827 
L 545.839715 493.93061 
L 543.409466 496.54545 
L 540.786918 499.049777 
L 537.980663 501.435349 
L 534.999963 503.69439 
L 491.459901 534.325662 
L 484.965919 544.251858 
L 485.819124 551.868193 
L 486.726253 560.032714 
L 488.149634 572.839766 
L 488.504235 574.688298 
L 486.939814 574.677623 
L 475.12874 574.766399 
L 474.357033 567.763087 
L 472.799728 553.10022 
L 470.14061 528.895877 
L 469.301694 521.433928 
L 468.828902 517.722109 
L 468.337491 514.249672 
L 468.014151 512.327742 
L 467.678922 510.619937 
L 467.31626 508.842862 
L 466.887655 506.859852 
L 466.437755 505.026267 
L 465.937628 503.278961 
L 465.44278 501.440308 
L 464.999194 499.955659 
L 463.997502 496.849542 
L 462.894456 493.567213 
L 462.230154 491.842293 
L 461.017335 488.79302 
L 459.773369 485.875379 
L 458.29459 482.642075 
L 456.601978 479.253924 
L 455.348158 476.807421 
L 453.122038 472.874592 
L 450.483045 468.572833 
L 447.878419 464.67212 
L 444.823597 460.427057 
L 441.518768 456.119525 
L 435.166699 448.117556 
L 418.045008 426.658672 
L 401.324819 405.708553 
L 380.769356 379.963152 
L 368.562209 364.638031 
L 363.065744 357.780054 
L 343.424549 333.14342 
L 329.588598 315.824782 
L 314.444048 296.842545 
L 307.210011 287.774182 
L 296.907427 274.858505 
L 282.089039 256.288767 
L 270.249893 241.467648 
L 258.655525 226.958631 
L 248.00218 213.640772 
L 237.09874 199.995365 
L 230.31957 204.400653 
L 227.153372 206.458155 
L 200.811073 222.917367 
L 180.089665 203.446502 
L 178.026446 201.115747 
L 176.192384 198.726719 
L 171.835785 189.811139 
L 170.536526 187.538563 
L 168.931721 185.557402 
L 166.562919 183.63463 
L 164.041389 182.061514 
L 161.061498 180.663302 
L 148.193393 174.956408 
L 140.160515 171.393997 
L 137.429737 170.353019 
L 136.20687 169.841752 
L 136.206327 167.928488 
L 135.692585 156.083635 
L 135.691487 152.225892 
L 136.975583 152.234055 
L 140.55922 152.169052 
L 228.005064 148.010588 
L 262.244192 146.383768 
L 268.873886 146.016975 
L 273.180574 145.69457 
L 279.098743 145.055788 
L 282.966913 144.436247 
L 286.370849 143.747031 
L 290.2031 142.766195 
L 293.938953 141.633601 
L 295.183165 143.945861 
L 351.583014 147.512012 
L 355.959053 147.788673 
L 376.050796 149.05887 
L 381.65124 149.579472 
L 387.182691 150.426785 
L 392.612396 151.595776 
" style="stroke:#ffffff;stroke-linejoin:miter;stroke-width:2;"/>
   </g>
  </g>
 </g>
 <defs>
  <clipPath id="pb4de142ae8">
   <rect height="543.6" width="558" x="90" y="86.4"/>
  </clipPath>
 </defs>
</svg>
