<?xml version="1.0" encoding="utf-8" standalone="no"?>
<!DOCTYPE svg PUBLIC "-//W3C//DTD SVG 1.1//EN"
  "http://www.w3.org/Graphics/SVG/1.1/DTD/svg11.dtd">
<!-- Created with matplotlib (https://matplotlib.org/) -->
<svg height="720pt" version="1.1" viewBox="0 0 720 720" width="720pt" xmlns="http://www.w3.org/2000/svg" xmlns:xlink="http://www.w3.org/1999/xlink">
 <metadata>
  <rdf:RDF xmlns:cc="http://creativecommons.org/ns#" xmlns:dc="http://purl.org/dc/elements/1.1/" xmlns:rdf="http://www.w3.org/1999/02/22-rdf-syntax-ns#">
   <cc:Work>
    <dc:type rdf:resource="http://purl.org/dc/dcmitype/StillImage"/>
    <dc:date>2021-05-07T11:03:04.889330</dc:date>
    <dc:format>image/svg+xml</dc:format>
    <dc:creator>
     <cc:Agent>
      <dc:title>Matplotlib v3.3.3, https://matplotlib.org/</dc:title>
     </cc:Agent>
    </dc:creator>
   </cc:Work>
  </rdf:RDF>
 </metadata>
 <defs>
  <style type="text/css">*{stroke-linecap:butt;stroke-linejoin:round;}</style>
 </defs>
 <g id="figure_1">
  <g id="patch_1">
   <path d="M 0 720 
L 720 720 
L 720 0 
L 0 0 
z
" style="fill:none;"/>
  </g>
  <g id="axes_1">
   <g id="patch_2">
    <path clip-path="url(#pdc1e0bdb12)" d="M 584.386537 164.48032 
L 584.397574 180.302857 
L 584.397589 180.322932 
L 583.704382 180.376792 
L 583.096856 180.432872 
L 582.222414 180.528273 
L 581.374699 180.636504 
L 580.603536 180.749207 
L 580.526035 233.259821 
L 580.451263 245.958322 
L 583.206574 245.963179 
L 583.197754 247.871164 
L 583.1524 269.97623 
L 583.166272 288.975 
L 582.945323 308.849329 
L 582.999034 382.511984 
L 587.598167 392.71526 
L 586.53413 394.882859 
L 585.179644 399.143073 
L 583.418894 404.764186 
L 582.201425 410.739931 
L 581.323102 416.360542 
L 581.386398 423.225905 
L 581.283154 468.541754 
L 581.121802 490.011674 
L 581.159717 493.444552 
L 580.456013 497.242719 
L 579.280444 499.912103 
L 577.75663 502.847931 
L 582.65032 502.847066 
L 584.985375 502.843603 
L 591.434301 511.660516 
L 591.443949 524.527922 
L 591.444164 524.815666 
L 591.451267 534.521984 
L 591.45238 536.050972 
L 591.453256 537.261636 
L 585.191193 544.580724 
L 585.187636 547.207509 
L 585.175334 551.916759 
L 579.777934 551.913763 
L 574.739952 551.915259 
L 567.109407 551.91968 
L 552.248859 518.124192 
L 498.568323 403.914319 
L 491.906648 386.914418 
L 488.000955 369.644996 
L 485.719024 355.320176 
L 484.899051 344.20779 
L 484.933035 321.921713 
L 484.383245 260.343676 
L 473.239867 257.971731 
L 450.928145 253.136842 
L 439.845072 250.735003 
L 422.119606 246.890343 
L 365.442029 246.897842 
L 345.563775 261.450045 
L 301.205518 293.9212 
L 292.476147 293.939105 
L 292.515754 307.496207 
L 292.527784 309.418194 
L 292.720887 312.275762 
L 293.232158 315.999643 
L 294.5262 319.741373 
L 296.140596 322.475713 
L 272.302966 331.907906 
L 264.879343 340.216044 
L 229.806667 379.244912 
L 214.843273 405.245754 
L 193.578202 458.376831 
L 179.844164 485.929843 
L 177.975131 483.806483 
L 158.949857 461.00962 
L 146.715954 446.351031 
L 146.546744 167.974237 
L 205.064296 167.915145 
L 218.625891 168.294155 
L 232.933284 169.322559 
L 291.989193 174.573386 
L 326.020105 176.918607 
L 362.485925 177.811495 
L 395.788793 177.420503 
L 425.086252 176.297573 
L 511.897026 169.898479 
L 584.386537 164.48032 
" style="stroke:#ffffff;stroke-linejoin:miter;stroke-width:2;"/>
   </g>
  </g>
 </g>
 <defs>
  <clipPath id="pdc1e0bdb12">
   <rect height="543.6" width="558" x="90" y="86.4"/>
  </clipPath>
 </defs>
</svg>
