<?xml version="1.0" encoding="utf-8" standalone="no"?>
<!DOCTYPE svg PUBLIC "-//W3C//DTD SVG 1.1//EN"
  "http://www.w3.org/Graphics/SVG/1.1/DTD/svg11.dtd">
<!-- Created with matplotlib (https://matplotlib.org/) -->
<svg height="720pt" version="1.1" viewBox="0 0 720 720" width="720pt" xmlns="http://www.w3.org/2000/svg" xmlns:xlink="http://www.w3.org/1999/xlink">
 <metadata>
  <rdf:RDF xmlns:cc="http://creativecommons.org/ns#" xmlns:dc="http://purl.org/dc/elements/1.1/" xmlns:rdf="http://www.w3.org/1999/02/22-rdf-syntax-ns#">
   <cc:Work>
    <dc:type rdf:resource="http://purl.org/dc/dcmitype/StillImage"/>
    <dc:date>2021-05-07T11:03:06.350606</dc:date>
    <dc:format>image/svg+xml</dc:format>
    <dc:creator>
     <cc:Agent>
      <dc:title>Matplotlib v3.3.3, https://matplotlib.org/</dc:title>
     </cc:Agent>
    </dc:creator>
   </cc:Work>
  </rdf:RDF>
 </metadata>
 <defs>
  <style type="text/css">*{stroke-linecap:butt;stroke-linejoin:round;}</style>
 </defs>
 <g id="figure_1">
  <g id="patch_1">
   <path d="M 0 720 
L 720 720 
L 720 0 
L 0 0 
z
" style="fill:none;"/>
  </g>
  <g id="axes_1">
   <g id="patch_2">
    <path clip-path="url(#p5fd3ee5a8d)" d="M 553.018562 165.318627 
L 553.301937 446.684203 
L 552.145922 551.050295 
L 406.789655 551.015337 
L 360.651202 550.980508 
L 353.286429 551.002542 
L 340.682492 551.04825 
L 333.697908 551.039645 
L 330.932899 551.081373 
L 312.286096 551.037708 
L 291.499839 551.036039 
L 271.239833 551.033622 
L 250.972182 551.029268 
L 231.388531 551.029338 
L 211.801499 551.025027 
L 186.447193 550.974296 
L 186.30958 548.261713 
L 186.500656 533.970435 
L 186.565077 513.479193 
L 186.598314 502.914951 
L 186.669772 492.145273 
L 186.735286 482.272979 
L 186.510321 460.684325 
L 186.454158 450.925193 
L 186.392581 440.21342 
L 186.34343 429.594603 
L 186.355757 422.489305 
L 186.453639 415.656792 
L 186.835683 388.995328 
L 186.944954 381.370173 
L 186.789858 357.064242 
L 186.648937 334.969684 
L 186.636406 289.504872 
L 186.540534 262.884295 
L 186.512371 248.678498 
L 186.493197 239.252996 
L 186.00362 231.635109 
L 185.80638 227.155765 
L 185.456465 219.20832 
L 185.183353 213.884665 
L 184.698063 167.177331 
L 238.304553 167.133284 
L 324.803848 165.66444 
L 398.469742 166.203747 
L 446.635302 165.474128 
L 553.018562 165.318627 
" style="stroke:#ffffff;stroke-linejoin:miter;stroke-width:2;"/>
   </g>
  </g>
 </g>
 <defs>
  <clipPath id="p5fd3ee5a8d">
   <rect height="543.6" width="558" x="90" y="86.4"/>
  </clipPath>
 </defs>
</svg>
