<?xml version="1.0" encoding="utf-8" standalone="no"?>
<!DOCTYPE svg PUBLIC "-//W3C//DTD SVG 1.1//EN"
  "http://www.w3.org/Graphics/SVG/1.1/DTD/svg11.dtd">
<!-- Created with matplotlib (https://matplotlib.org/) -->
<svg height="720pt" version="1.1" viewBox="0 0 720 720" width="720pt" xmlns="http://www.w3.org/2000/svg" xmlns:xlink="http://www.w3.org/1999/xlink">
 <metadata>
  <rdf:RDF xmlns:cc="http://creativecommons.org/ns#" xmlns:dc="http://purl.org/dc/elements/1.1/" xmlns:rdf="http://www.w3.org/1999/02/22-rdf-syntax-ns#">
   <cc:Work>
    <dc:type rdf:resource="http://purl.org/dc/dcmitype/StillImage"/>
    <dc:date>2021-05-07T11:02:59.204696</dc:date>
    <dc:format>image/svg+xml</dc:format>
    <dc:creator>
     <cc:Agent>
      <dc:title>Matplotlib v3.3.3, https://matplotlib.org/</dc:title>
     </cc:Agent>
    </dc:creator>
   </cc:Work>
  </rdf:RDF>
 </metadata>
 <defs>
  <style type="text/css">*{stroke-linecap:butt;stroke-linejoin:round;}</style>
 </defs>
 <g id="figure_1">
  <g id="patch_1">
   <path d="M 0 720 
L 720 720 
L 720 0 
L 0 0 
z
" style="fill:none;"/>
  </g>
  <g id="axes_1">
   <g id="patch_2">
    <path clip-path="url(#p8f8efaed6d)" d="M 548.722449 257.509107 
L 547.936295 257.614389 
L 547.140793 257.533551 
L 547.253597 258.126305 
L 547.644232 258.695394 
L 547.949395 259.340016 
L 548.218924 259.950714 
L 548.476358 260.54445 
L 548.626405 261.0612 
L 548.859603 261.671741 
L 549.047148 262.095837 
L 549.209951 262.420641 
L 549.556401 263.005375 
L 549.879085 263.5477 
L 549.863682 264.131352 
L 549.836379 264.706357 
L 549.785305 265.222305 
L 549.685604 265.79716 
L 549.694833 266.296295 
L 549.76371 266.897059 
L 549.797183 267.396205 
L 549.806412 267.895356 
L 549.82797 268.352074 
L 549.849099 268.859705 
L 549.906107 269.468955 
L 549.915111 269.993372 
L 549.972792 270.46723 
L 550.210719 271.043173 
L 550.291716 271.669384 
L 550.349397 272.143242 
L 550.381951 272.760797 
L 550.330654 273.310526 
L 550.242838 273.910811 
L 550.191094 274.519586 
L 550.031066 275.111238 
L 549.774421 275.702579 
L 549.457869 276.192157 
L 549.178126 276.639629 
L 548.982638 277.053483 
L 548.713888 277.653326 
L 548.650277 278.270571 
L 548.694716 278.913588 
L 548.836041 279.522986 
L 548.929362 280.098446 
L 548.926918 280.512939 
L 548.923642 281.130519 
L 548.896107 281.713991 
L 548.906889 281.925559 
L 548.927801 282.526168 
L 548.91238 283.118286 
L 548.848757 283.710099 
L 548.785586 284.200617 
L 548.62511 284.843 
L 548.489078 285.459928 
L 548.377267 286.02647 
L 548.289651 286.592824 
L 548.189716 287.218576 
L 548.102778 287.65802 
L 547.991414 288.165183 
L 547.843251 288.73155 
L 547.695333 289.314733 
L 547.547867 289.796439 
L 547.339196 290.447149 
L 547.154724 291.055622 
L 546.933963 291.697686 
L 546.664986 292.356726 
L 546.40855 292.922619 
L 545.513158 293.435916 
L 544.692367 293.534886 
L 543.872447 293.464534 
L 543.052535 293.411315 
L 542.220731 293.315684 
L 541.331717 292.695449 
L 540.852991 292.051201 
L 540.542421 291.508874 
L 540.327352 291.119049 
L 540.125079 290.62776 
L 539.995884 290.018361 
L 540.035494 289.426403 
L 540.001609 289.020236 
L 539.944568 288.402669 
L 539.090773 287.960083 
L 538.628977 288.57609 
L 538.40823 289.235287 
L 538.212101 289.784551 
L 538.003437 290.435096 
L 537.75891 291.018119 
L 537.429392 291.676842 
L 537.051903 292.318445 
L 536.638339 292.943256 
L 536.297159 293.542769 
L 535.968125 294.167561 
L 535.627381 294.682579 
L 534.865596 295.027026 
L 534.152659 295.236252 
L 533.30526 295.791974 
L 532.892115 296.340425 
L 532.527167 296.880748 
L 531.679336 297.520949 
L 530.941761 297.84011 
L 530.145412 297.896834 
L 529.337167 297.902831 
L 528.443975 298.026926 
L 527.622528 298.227532 
L 526.860757 298.588781 
L 526.423611 299.086525 
L 526.106688 299.694517 
L 525.958336 300.328582 
L 525.944051 300.734595 
L 525.940526 301.343526 
L 525.961003 301.994849 
L 525.933529 302.620735 
L 525.930887 303.094441 
L 525.951569 303.678251 
L 525.912202 304.261726 
L 525.812273 304.862015 
L 525.88119 305.471261 
L 526.070707 306.089294 
L 526.320538 306.715962 
L 526.606688 307.325822 
L 526.809417 307.724132 
L 527.072255 308.198605 
L 527.430372 308.859511 
L 527.728167 309.494817 
L 527.918132 310.06212 
L 528.131853 310.654866 
L 528.393576 311.281697 
L 528.632182 311.781459 
L 528.846576 312.247295 
L 529.156716 312.882765 
L 529.454508 313.518071 
L 529.704993 314.034796 
L 529.979265 314.593929 
L 530.289391 315.203783 
L 530.503772 315.695069 
L 530.730274 316.161069 
L 530.968427 316.711561 
L 531.194478 317.279022 
L 531.408444 317.846486 
L 531.58693 318.252952 
L 531.825102 318.795129 
L 532.135462 319.40515 
L 532.254981 319.591577 
L 532.637513 320.184782 
L 532.959748 320.803284 
L 533.198348 321.252316 
L 533.520578 321.862351 
L 533.902899 322.514937 
L 534.273549 323.09118 
L 534.524261 323.548858 
L 534.822283 324.184165 
L 535.071876 324.836283 
L 535.310024 325.386776 
L 535.584518 325.928944 
L 535.834762 326.454153 
L 536.156981 327.047223 
L 536.479238 327.674208 
L 536.849659 328.2759 
L 537.136442 328.750536 
L 537.50732 329.318464 
L 537.938481 329.835663 
L 538.285164 330.403596 
L 538.463878 330.80158 
L 538.557421 331.292561 
L 538.615306 331.740954 
L 538.768497 332.392762 
L 538.862274 332.875261 
L 539.075539 333.535704 
L 539.362097 334.044106 
L 539.805167 334.64613 
L 540.164382 335.112434 
L 540.571325 335.638106 
L 540.905883 336.231174 
L 541.09562 336.798645 
L 541.068531 337.305939 
L 541.04211 337.720437 
L 540.906991 338.176692 
L 540.578832 338.615527 
L 540.044638 339.214586 
L 539.293248 339.871893 
L 538.699641 340.352206 
L 538.273982 340.960055 
L 538.102755 341.373905 
L 537.978624 342.016447 
L 538.011401 342.591771 
L 538.081414 343.031862 
L 538.295124 343.633092 
L 538.967287 344.193298 
L 539.675784 344.770811 
L 540.215236 345.356014 
L 540.646391 345.881847 
L 541.017022 346.449792 
L 541.351374 347.068292 
L 541.649379 347.695118 
L 541.95971 348.279693 
L 542.210399 348.711941 
L 542.592895 349.322114 
L 542.939345 349.923813 
L 543.226122 350.406766 
L 543.548342 351.033753 
L 543.84634 351.652113 
L 544.036704 352.101008 
L 544.226851 352.5923 
L 544.417005 353.100409 
L 544.643031 353.650923 
L 544.96547 354.243978 
L 545.311656 354.845694 
L 545.597998 355.421809 
L 545.908315 355.989436 
L 546.08702 356.387604 
L 546.324717 357.022761 
L 546.346036 357.479662 
L 546.342731 358.080127 
L 546.327099 358.722993 
L 546.443957 359.383126 
L 546.621565 359.975899 
L 546.78681 360.585458 
L 546.880805 361.042525 
L 546.962892 361.474131 
L 547.091851 362.117479 
L 547.068367 362.316181 
L 547.015913 362.760025 
L 546.952076 363.38577 
L 546.900114 364.019995 
L 546.873263 364.535954 
L 546.85849 364.984214 
L 546.818649 365.643901 
L 546.804105 366.075362 
L 546.765582 366.506496 
L 546.739829 366.777119 
L 546.664553 367.309889 
L 546.540403 367.918515 
L 546.331969 368.526828 
L 546.160288 369.033839 
L 546.061481 369.456504 
L 545.973649 370.048323 
L 545.934687 370.555802 
L 545.919693 371.037827 
L 545.917267 371.486268 
L 545.925623 372.146093 
L 545.922745 372.645081 
L 545.908012 373.127273 
L 546.037413 373.702742 
L 546.058748 374.193591 
L 546.044423 374.582638 
L 546.017348 375.123879 
L 546.015159 375.521406 
L 546.03649 376.003606 
L 546.105146 376.655268 
L 546.140133 376.892113 
L 546.353595 377.501843 
L 546.664126 378.035706 
L 547.059178 378.569865 
L 547.212572 379.179443 
L 546.992254 379.753827 
L 546.819688 380.39623 
L 547.491607 381.015836 
L 548.237023 381.415721 
L 548.860959 381.984442 
L 549.496768 382.612223 
L 550.278967 382.927755 
L 551.216715 383.438207 
L 551.68417 383.964051 
L 551.970038 384.573933 
L 552.112422 384.997374 
L 552.338877 385.480194 
L 552.733256 386.115832 
L 553.116414 386.61608 
L 553.451797 386.997747 
L 553.954899 387.608411 
L 554.374154 388.134101 
L 554.792965 388.727652 
L 555.211764 389.295589 
L 555.690425 389.940025 
L 556.145535 390.533569 
L 556.56436 391.109989 
L 556.947041 391.669452 
L 557.246372 392.084892 
L 557.556634 392.627239 
L 557.807095 393.127169 
L 558.165352 393.754167 
L 558.296753 393.999823 
L 558.679241 394.610183 
L 558.966208 395.042409 
L 559.324713 395.644125 
L 559.706974 396.279767 
L 560.065221 396.8898 
L 560.411414 397.516968 
L 560.722139 398.04235 
L 561.129078 398.601808 
L 561.764633 399.238227 
L 562.376224 399.857702 
L 562.734924 400.374741 
L 563.178161 400.934375 
L 563.536857 401.443097 
L 563.895356 402.044814 
L 563.990414 402.307278 
L 564.191764 402.950761 
L 564.285721 403.407813 
L 564.450747 404.051322 
L 564.616236 404.669215 
L 564.722098 405.151713 
L 564.838905 405.795049 
L 565.136865 406.40493 
L 565.67605 407.049521 
L 566.456209 407.703225 
L 567.200281 408.356937 
L 567.823712 408.984877 
L 568.243167 409.468322 
L 568.650514 409.95177 
L 569.033895 410.409608 
L 569.609355 411.012112 
L 570.136407 411.614293 
L 570.603401 412.233287 
L 571.058278 412.835151 
L 571.465177 413.386295 
L 571.859967 413.937443 
L 572.230782 414.496745 
L 572.541064 415.073026 
L 572.947961 415.624004 
L 573.45081 416.26844 
L 573.906122 416.785976 
L 574.542565 417.278524 
L 575.190435 417.847266 
L 575.717685 418.43265 
L 576.268978 419.060276 
L 576.844209 419.70488 
L 577.395696 420.290259 
L 577.947398 420.824908 
L 578.438801 421.367886 
L 578.990506 421.910852 
L 579.698236 422.572893 
L 580.321679 423.217804 
L 580.969312 423.86271 
L 581.545242 424.380406 
L 582.205183 424.940815 
L 582.696832 425.458346 
L 583.080617 425.840174 
L 583.584108 426.34922 
L 584.11182 426.875393 
L 584.626971 427.452133 
L 585.093726 428.113395 
L 585.30848 428.503226 
L 585.53446 429.05373 
L 585.737113 429.460379 
L 585.880381 429.731483 
L 586.214641 430.34151 
L 586.453826 430.680623 
L 586.92101 431.240407 
L 587.32834 431.732342 
L 587.819288 432.351336 
L 588.322553 432.902797 
L 588.850028 433.445771 
L 589.256912 434.013719 
L 589.6156 434.573194 
L 590.009695 435.217323 
L 590.224259 435.674685 
L 590.534498 436.250969 
L 590.916976 436.878136 
L 591.275183 437.488175 
L 591.526062 437.928897 
L 591.824439 438.471253 
L 592.086717 438.979518 
L 592.313367 439.445527 
L 592.635511 440.055574 
L 592.861472 440.580646 
L 593.039698 441.063464 
L 593.205613 441.571417 
L 593.371727 442.045588 
L 593.525297 442.612923 
L 593.618124 443.256099 
L 593.699286 443.823099 
L 593.804217 444.457807 
L 593.981987 444.991189 
L 594.268047 445.609726 
L 594.542655 446.092691 
L 594.948855 446.753802 
L 595.126191 447.388645 
L 595.135389 447.879314 
L 595.0713 448.538989 
L 595.104729 449.012688 
L 595.198445 449.512172 
L 595.257386 449.732214 
L 595.399548 450.21489 
L 595.649055 450.858534 
L 595.838494 451.485075 
L 595.920535 451.882918 
L 595.977718 452.449757 
L 596.082862 453.033734 
L 596.187789 453.668592 
L 596.401204 454.295112 
L 596.603856 454.727211 
L 596.90156 455.387828 
L 597.139636 455.94698 
L 597.329086 456.548072 
L 597.470296 457.149175 
L 597.59946 457.784028 
L 597.668515 458.359347 
L 597.737793 458.900901 
L 597.855487 459.408864 
L 597.960009 459.752213 
L 577.391249 456.888711 
L 577.024517 457.991767 
L 575.974014 458.268728 
L 574.577953 458.317991 
L 571.794702 457.90464 
L 565.476974 456.975856 
L 555.00555 455.387142 
L 552.736752 455.044962 
L 550.084078 454.849741 
L 547.012699 454.899389 
L 544.185752 455.218241 
L 542.209087 455.826562 
L 540.185112 456.585841 
L 538.475403 457.638753 
L 536.730975 459.107815 
L 535.161239 460.895024 
L 533.870745 462.755621 
L 530.945815 468.788742 
L 526.413207 478.262574 
L 525.646144 479.853798 
L 525.646539 480.661543 
L 525.876846 481.517268 
L 521.10326 491.309362 
L 519.185936 496.676709 
L 518.239617 498.911541 
L 517.416008 501.099273 
L 516.651164 503.400959 
L 516.289206 505.167316 
L 515.806682 507.314047 
L 515.505628 509.910007 
L 515.32539 512.291854 
L 515.245721 514.178564 
L 515.229234 516.900248 
L 515.190838 520.713807 
L 515.073187 525.483414 
L 515.054745 528.895532 
L 514.957897 536.378448 
L 514.839035 543.033599 
L 514.740902 548.27892 
L 514.72168 550.559035 
L 514.52178 553.850776 
L 514.201285 557.871087 
L 512.545742 566.932341 
L 510.266963 574.494476 
L 508.465233 571.902265 
L 508.226518 570.558216 
L 507.966963 568.935222 
L 507.538919 566.465953 
L 507.084749 563.692241 
L 506.980932 562.684128 
L 506.759619 559.961886 
L 506.580505 557.880668 
L 506.372421 555.733807 
L 505.970323 552.037353 
L 505.528591 548.314879 
L 504.983126 543.948204 
L 504.671594 541.861481 
L 504.477098 540.628381 
L 504.165893 539.228681 
L 503.803163 537.986209 
L 503.44035 536.861315 
L 502.870555 535.71071 
L 502.264523 534.581021 
L 501.643084 533.636544 
L 500.905202 532.674899 
L 500.102692 531.781997 
L 499.351944 531.00929 
L 498.387312 530.180933 
L 497.131974 529.236603 
L 495.682573 528.283742 
L 494.272074 527.511206 
L 493.111585 526.929153 
L 491.662348 526.302634 
L 490.161419 525.787752 
L 488.971062 525.427377 
L 487.630633 525.067491 
L 486.259195 524.784459 
L 484.292626 524.458638 
L 482.652392 524.287453 
L 481.022311 524.19341 
L 479.589438 524.176626 
L 478.231111 524.219918 
L 476.497678 524.349204 
L 474.453834 524.624562 
L 472.82753 524.881115 
L 470.964847 525.268069 
L 468.804741 525.801093 
L 466.799835 526.334078 
L 463.768345 527.123078 
L 460.198349 528.042935 
L 456.861203 528.919821 
L 453.756862 529.719338 
L 450.178215 530.66578 
L 442.371244 533.164911 
L 439.238386 534.183252 
L 437.312618 534.72646 
L 434.737429 535.411123 
L 432.000947 536.095288 
L 430.379598 536.481948 
L 428.509737 536.898789 
L 426.09124 537.404997 
L 423.56547 537.901376 
L 420.900584 538.370507 
L 416.42792 539.054652 
L 414.076502 539.382435 
L 410.989672 539.740002 
L 408.302299 540.023302 
L 404.892707 540.328868 
L 401.488588 540.538067 
L 397.418147 540.724961 
L 394.293904 540.800275 
L 390.083414 540.83878 
L 385.451927 540.889673 
L 383.26024 538.980182 
L 371.534668 539.174369 
L 337.106191 539.223769 
L 247.476567 538.988964 
L 254.946093 487.313961 
L 256.870947 474.88087 
L 262.986257 432.561636 
L 266.035884 411.459079 
L 268.037832 396.054575 
L 268.436282 390.355601 
L 268.272051 386.123852 
L 266.980255 381.836087 
L 264.295336 377.119402 
L 252.297923 364.144849 
L 246.204217 357.262128 
L 239.986365 350.994713 
L 234.14531 344.291052 
L 229.098442 339.756849 
L 223.801905 334.481268 
L 211.847036 321.993175 
L 210.773095 320.712842 
L 209.580886 319.432725 
L 208.070793 317.874358 
L 206.878838 316.900471 
L 205.408819 315.787502 
L 203.581334 314.507658 
L 202.790612 313.999209 
L 201.078812 313.172432 
L 199.648888 312.532723 
L 198.457256 311.948601 
L 196.153554 310.975213 
L 193.413057 309.974155 
L 190.593252 309.056666 
L 186.13051 307.545998 
L 180.108482 305.514431 
L 174.285713 303.806141 
L 171.706988 302.942783 
L 169.277584 301.922198 
L 167.932204 301.529842 
L 166.159062 300.834077 
L 160.688929 297.982662 
L 147.277192 286.047662 
L 140.207965 279.385611 
L 140.040921 247.523179 
L 140.039991 246.530828 
L 193.014831 246.447315 
L 201.816884 246.064892 
L 210.48195 245.202512 
L 217.781607 243.992249 
L 226.493826 241.715418 
L 240.124484 237.438865 
L 303.380571 214.264693 
L 504.911176 141.905524 
L 504.957872 142.426887 
L 505.194184 142.96673 
L 505.502185 143.446844 
L 505.907346 143.985481 
L 506.555517 144.649502 
L 507.093179 145.161993 
L 507.619471 145.73355 
L 507.96257 146.120527 
L 508.404072 146.675789 
L 508.808975 147.180678 
L 509.408932 147.845029 
L 509.911486 148.44219 
L 510.123069 148.931477 
L 510.273599 149.378864 
L 510.412996 149.885483 
L 510.747196 150.526265 
L 511.223794 150.988224 
L 511.750076 151.551449 
L 512.045236 151.964054 
L 512.329475 152.478273 
L 512.687166 153.084968 
L 513.251019 153.749495 
L 513.704625 154.304755 
L 514.023987 154.725504 
L 514.442725 155.365601 
L 514.860487 155.954967 
L 515.291581 156.612026 
L 515.64803 157.117262 
L 516.016609 157.613829 
L 516.373549 158.152813 
L 516.743096 158.734058 
L 517.160842 159.298143 
L 517.639162 159.895479 
L 518.105853 160.50995 
L 518.343143 161.13429 
L 518.568556 161.750483 
L 518.8051 162.307145 
L 519.015191 162.678007 
L 519.296779 163.080786 
L 519.561113 163.601165 
L 519.854444 164.220335 
L 520.087235 164.873119 
L 520.259697 165.50862 
L 520.432163 166.152437 
L 520.618574 166.661208 
L 520.851588 167.288543 
L 521.097629 167.848346 
L 521.44032 168.400142 
L 521.832138 168.893046 
L 522.247483 169.420041 
L 522.614877 169.93825 
L 522.910041 170.430678 
L 523.133228 170.880211 
L 523.390691 171.490908 
L 523.623935 172.109761 
L 523.762589 172.575781 
L 523.959957 173.160712 
L 524.217185 173.779726 
L 524.487212 174.348023 
L 524.721845 174.848616 
L 524.96857 175.357523 
L 525.166628 175.900206 
L 525.400324 176.476812 
L 525.742321 177.079339 
L 526.132983 177.648423 
L 526.440028 178.166297 
L 526.579161 178.598552 
L 526.68102 179.09818 
L 526.805497 179.716394 
L 526.977727 180.377344 
L 527.035065 180.597549 
L 527.231516 181.258493 
L 527.404887 181.826298 
L 527.517027 182.469798 
L 527.848288 182.979367 
L 527.960427 183.623032 
L 528.061142 184.215638 
L 528.354694 184.826494 
L 528.589302 185.335404 
L 528.689783 185.936659 
L 528.790502 186.537747 
L 528.893754 186.927597 
L 529.126994 187.554934 
L 529.311552 188.18195 
L 529.45979 188.834256 
L 529.560503 189.426862 
L 529.745753 190.01163 
L 529.785465 190.663297 
L 529.922045 191.273193 
L 530.228166 191.858597 
L 530.425984 192.409598 
L 530.55091 192.985565 
L 530.651394 193.595303 
L 530.727663 194.221679 
L 530.793418 194.712666 
L 530.869707 195.330726 
L 530.981814 195.965743 
L 531.094428 196.566995 
L 531.195373 197.151268 
L 531.271175 197.79461 
L 531.335577 198.387058 
L 531.388545 198.95421 
L 531.464114 199.606035 
L 531.552975 200.198627 
L 531.652994 200.833647 
L 531.718752 201.333117 
L 531.783617 201.900283 
L 531.802078 202.31492 
L 531.832682 202.74637 
L 531.863025 203.177969 
L 531.88128 203.609589 
L 531.897457 204.210198 
L 531.961155 204.870342 
L 532.039268 205.336028 
L 532.187987 205.962886 
L 532.264934 206.521717 
L 532.304635 207.156418 
L 532.345048 207.740223 
L 532.374706 208.231036 
L 532.463076 208.84061 
L 532.587347 209.492756 
L 532.735803 210.119598 
L 532.849077 210.67012 
L 532.924904 211.321945 
L 532.953186 211.914219 
L 533.005456 212.514986 
L 533.020963 213.157994 
L 533.026633 213.64018 
L 533.019528 214.173099 
L 533.01079 214.815946 
L 533.015546 215.374311 
L 533.067377 216.00051 
L 533.156666 216.550871 
L 533.246438 217.067467 
L 533.300768 217.507561 
L 533.354642 217.990052 
L 533.419734 218.540252 
L 533.437538 219.022585 
L 533.513795 219.631996 
L 533.568357 220.063773 
L 533.634133 220.554761 
L 533.686172 221.172644 
L 533.715375 221.705721 
L 533.734092 222.111875 
L 533.714872 222.636148 
L 533.684906 223.084245 
L 533.677998 223.583383 
L 533.695347 224.10798 
L 533.701032 224.573201 
L 533.766787 225.072655 
L 533.820206 225.59741 
L 533.920244 226.23243 
L 533.975269 226.638758 
L 534.027992 227.197428 
L 534.093087 227.756112 
L 534.15932 228.213317 
L 534.259563 228.831372 
L 534.278464 228.977421 
L 534.336285 229.423984 
L 534.376241 230.050203 
L 534.548455 230.71097 
L 534.698741 231.202437 
L 534.75378 231.591966 
L 534.819764 232.074454 
L 534.932144 232.701155 
L 535.106646 233.1843 
L 535.290989 233.836765 
L 535.392381 234.378807 
L 535.649587 235.006289 
L 535.920074 235.54929 
L 536.118103 236.074843 
L 536.292375 236.574953 
L 536.404295 237.235419 
L 536.540871 237.862264 
L 536.75101 238.38798 
L 537.069469 238.948102 
L 537.293577 239.33859 
L 537.695858 239.950087 
L 538.39971 240.563361 
L 538.778252 241.140767 
L 538.892895 241.589828 
L 539.259073 242.184036 
L 540.012304 242.729919 
L 540.814427 243.22541 
L 541.421407 243.871957 
L 541.956418 244.475607 
L 542.30024 244.951411 
L 542.679438 245.469771 
L 543.058644 246.00493 
L 543.486532 246.497997 
L 543.708545 247.040677 
L 544.002064 247.651536 
L 544.321204 248.160928 
L 544.711821 248.730016 
L 545.149755 249.384088 
L 545.469329 249.859732 
L 545.800118 250.403053 
L 546.059603 250.852913 
L 546.281384 251.41256 
L 546.480809 251.845136 
L 546.690709 252.387802 
L 546.936709 252.947443 
L 547.217682 253.600553 
L 547.429193 254.033126 
L 547.734124 254.686397 
L 547.967811 255.271489 
L 548.200548 255.907145 
L 548.396966 256.568258 
L 548.524884 256.932656 
L 548.722449 257.509107 
" style="stroke:#ffffff;stroke-linejoin:miter;stroke-width:2;"/>
   </g>
  </g>
 </g>
 <defs>
  <clipPath id="p8f8efaed6d">
   <rect height="543.6" width="558" x="90" y="86.4"/>
  </clipPath>
 </defs>
</svg>
