<?xml version="1.0" encoding="utf-8" standalone="no"?>
<!DOCTYPE svg PUBLIC "-//W3C//DTD SVG 1.1//EN"
  "http://www.w3.org/Graphics/SVG/1.1/DTD/svg11.dtd">
<!-- Created with matplotlib (https://matplotlib.org/) -->
<svg height="720pt" version="1.1" viewBox="0 0 720 720" width="720pt" xmlns="http://www.w3.org/2000/svg" xmlns:xlink="http://www.w3.org/1999/xlink">
 <metadata>
  <rdf:RDF xmlns:cc="http://creativecommons.org/ns#" xmlns:dc="http://purl.org/dc/elements/1.1/" xmlns:rdf="http://www.w3.org/1999/02/22-rdf-syntax-ns#">
   <cc:Work>
    <dc:type rdf:resource="http://purl.org/dc/dcmitype/StillImage"/>
    <dc:date>2021-05-07T11:03:04.917150</dc:date>
    <dc:format>image/svg+xml</dc:format>
    <dc:creator>
     <cc:Agent>
      <dc:title>Matplotlib v3.3.3, https://matplotlib.org/</dc:title>
     </cc:Agent>
    </dc:creator>
   </cc:Work>
  </rdf:RDF>
 </metadata>
 <defs>
  <style type="text/css">*{stroke-linecap:butt;stroke-linejoin:round;}</style>
 </defs>
 <g id="figure_1">
  <g id="patch_1">
   <path d="M 0 720 
L 720 720 
L 720 0 
L 0 0 
z
" style="fill:none;"/>
  </g>
  <g id="axes_1">
   <g id="patch_2">
    <path clip-path="url(#pdefbf0170a)" d="M 547.423629 486.023479 
L 547.132255 512.94322 
L 548.573187 529.036962 
L 510.335101 531.493508 
L 458.013511 533.198292 
L 411.834881 532.407038 
L 287.613486 532.617854 
L 190.974445 532.844942 
L 191.028635 530.949464 
L 190.812736 501.950672 
L 186.341415 501.960568 
L 186.338188 475.425393 
L 186.33227 419.999505 
L 186.31037 417.243205 
L 190.627251 417.239252 
L 190.613562 415.096401 
L 190.050465 362.060615 
L 191.055371 302.584495 
L 191.280028 289.288983 
L 190.873512 259.776704 
L 190.616395 241.406176 
L 190.859124 220.773399 
L 191.155805 210.182888 
L 191.191683 206.499391 
L 191.190976 185.545957 
L 191.231723 183.985361 
L 252.675451 183.771672 
L 551.68963 183.201708 
L 547.825292 415.088242 
L 547.423629 486.023479 
" style="stroke:#ffffff;stroke-linejoin:miter;stroke-width:2;"/>
   </g>
  </g>
 </g>
 <defs>
  <clipPath id="pdefbf0170a">
   <rect height="543.6" width="558" x="90" y="86.4"/>
  </clipPath>
 </defs>
</svg>
