<?xml version="1.0" encoding="utf-8" standalone="no"?>
<!DOCTYPE svg PUBLIC "-//W3C//DTD SVG 1.1//EN"
  "http://www.w3.org/Graphics/SVG/1.1/DTD/svg11.dtd">
<!-- Created with matplotlib (https://matplotlib.org/) -->
<svg height="720pt" version="1.1" viewBox="0 0 720 720" width="720pt" xmlns="http://www.w3.org/2000/svg" xmlns:xlink="http://www.w3.org/1999/xlink">
 <metadata>
  <rdf:RDF xmlns:cc="http://creativecommons.org/ns#" xmlns:dc="http://purl.org/dc/elements/1.1/" xmlns:rdf="http://www.w3.org/1999/02/22-rdf-syntax-ns#">
   <cc:Work>
    <dc:type rdf:resource="http://purl.org/dc/dcmitype/StillImage"/>
    <dc:date>2021-05-07T11:03:03.765884</dc:date>
    <dc:format>image/svg+xml</dc:format>
    <dc:creator>
     <cc:Agent>
      <dc:title>Matplotlib v3.3.3, https://matplotlib.org/</dc:title>
     </cc:Agent>
    </dc:creator>
   </cc:Work>
  </rdf:RDF>
 </metadata>
 <defs>
  <style type="text/css">*{stroke-linecap:butt;stroke-linejoin:round;}</style>
 </defs>
 <g id="figure_1">
  <g id="patch_1">
   <path d="M 0 720 
L 720 720 
L 720 0 
L 0 0 
z
" style="fill:none;"/>
  </g>
  <g id="axes_1">
   <g id="patch_2">
    <path clip-path="url(#pe47813a575)" d="M 546.816934 455.817 
L 546.944954 510.917089 
L 546.85493 510.87818 
L 544.956709 510.058743 
L 543.372383 509.200997 
L 541.864568 508.632574 
L 540.162093 507.974865 
L 538.413951 507.535216 
L 536.664622 507.004969 
L 535.131837 506.364111 
L 533.306563 505.562418 
L 531.656292 505.194358 
L 530.321198 504.896534 
L 528.840667 504.563593 
L 527.13823 503.924054 
L 525.311148 502.977491 
L 523.488238 502.375274 
L 521.936503 502.151597 
L 520.094556 501.930123 
L 518.538597 501.362138 
L 516.960185 500.957583 
L 515.624421 500.586971 
L 514.364606 500.469963 
L 512.476377 500.412314 
L 510.851112 500.134901 
L 509.514731 499.710409 
L 508.178965 499.339764 
L 506.455774 498.972535 
L 504.587669 498.588424 
L 502.984376 498.14755 
L 501.161931 497.54531 
L 499.777557 497.157289 
L 498.36769 496.696832 
L 497.030734 496.217749 
L 495.475427 495.722177 
L 493.897051 495.335475 
L 492.344073 494.98517 
L 491.008442 494.65093 
L 489.213951 494.338767 
L 487.831282 494.077427 
L 486.182894 493.872784 
L 484.46264 493.723235 
L 482.815392 493.591066 
L 481.506915 493.4563 
L 480.149166 493.230932 
L 479.006914 492.859304 
L 477.280669 492.23806 
L 475.510047 491.943676 
L 473.767153 491.884803 
L 472.143729 491.752605 
L 470.980595 491.598361 
L 469.573618 491.337386 
L 467.779262 491.079474 
L 466.250578 490.746953 
L 464.940385 490.485125 
L 463.460402 490.188575 
L 461.832172 489.675675 
L 460.373588 489.161065 
L 458.648047 488.61259 
L 457.143186 488.279681 
L 455.590861 488.001832 
L 454.111492 487.741326 
L 452.461809 487.4279 
L 450.958755 487.222027 
L 449.722658 487.068576 
L 447.952504 486.774242 
L 446.251879 486.279976 
L 444.404623 485.659641 
L 443.11868 485.397785 
L 441.48982 484.830265 
L 439.787906 484.208969 
L 438.112771 483.804951 
L 436.340278 483.347586 
L 434.763023 483.033706 
L 432.965034 482.485707 
L 431.240526 481.973286 
L 430.559929 481.760896 
L 428.932207 481.266175 
L 427.620191 480.877329 
L 426.430457 480.578584 
L 424.777808 480.029341 
L 423.780214 479.601852 
L 422.78343 479.283234 
L 421.033469 478.698773 
L 419.552802 478.329448 
L 417.827239 477.780994 
L 416.173393 477.141119 
L 414.376012 476.64737 
L 412.77206 476.134066 
L 411.337661 475.6016 
L 409.976411 475.140788 
L 408.177882 474.574605 
L 406.842079 474.186159 
L 405.263617 473.781301 
L 403.806818 473.411984 
L 402.0396 473.335307 
L 400.610109 473.219629 
L 399.131961 473.067982 
L 397.944506 472.932321 
L 396.077687 472.674912 
L 394.987065 472.556629 
L 393.992466 472.365016 
L 392.511932 472.032101 
L 391.080006 471.716956 
L 389.550815 471.366273 
L 387.705291 470.873323 
L 386.200354 470.504049 
L 384.476492 470.082645 
L 383.383481 469.782737 
L 381.489347 469.29022 
L 379.887048 468.867567 
L 378.016021 468.283666 
L 376.266705 467.789866 
L 374.978924 467.364607 
L 373.131674 466.762832 
L 372.426714 466.532648 
L 371.187684 466.161558 
L 369.850672 465.682527 
L 368.392045 465.186157 
L 366.78635 464.545843 
L 365.060613 463.961019 
L 363.358082 463.303723 
L 361.605795 462.573707 
L 360.121616 461.950736 
L 358.320623 461.185466 
L 356.764006 460.562926 
L 354.914975 459.834128 
L 353.553699 459.373339 
L 351.90034 458.751624 
L 350.05011 457.931872 
L 348.22595 457.239081 
L 346.789272 456.561413 
L 344.915259 455.760219 
L 343.212043 455.030139 
L 341.458544 454.209533 
L 339.655669 453.280844 
L 337.926424 452.442326 
L 336.124742 451.604274 
L 334.516585 450.782705 
L 332.981483 449.996746 
L 331.521015 449.337319 
L 329.717556 448.372238 
L 327.962131 447.370724 
L 326.304688 446.477151 
L 324.939184 445.689836 
L 323.233656 444.814892 
L 321.358472 443.940918 
L 319.631602 443.283717 
L 318.682718 442.892227 
L 318.244133 442.65987 
L 316.36952 441.822653 
L 314.711969 440.892688 
L 313.202353 440.215501 
L 311.642834 439.411747 
L 309.767493 438.483504 
L 308.183665 437.661947 
L 306.768916 436.82083 
L 304.890602 435.674958 
L 303.427193 434.816109 
L 301.912779 433.776385 
L 300.059483 432.702916 
L 298.327805 431.682791 
L 296.792478 430.842574 
L 294.892964 429.969045 
L 293.529255 429.326973 
L 291.969046 428.450756 
L 290.626095 427.55462 
L 288.89498 426.552662 
L 287.286207 425.695111 
L 286.447354 425.254077 
L 282.631205 423.211308 
L 281.241985 422.478643 
L 279.7553 421.656238 
L 278.317469 420.924005 
L 276.633179 419.813182 
L 275.122906 419.063218 
L 273.757361 418.276316 
L 271.926565 417.093993 
L 270.024527 415.984574 
L 269.610285 415.77035 
L 268.098185 414.893749 
L 266.241878 413.62083 
L 264.800962 412.616695 
L 263.189668 411.541452 
L 261.822337 410.627166 
L 260.184433 409.388888 
L 258.28123 408.20704 
L 257.065196 407.74532 
L 255.63022 407.194368 
L 253.901567 406.428332 
L 252.243378 405.462358 
L 250.463036 404.42449 
L 248.655942 403.205746 
L 246.896876 401.931976 
L 245.577136 400.981548 
L 244.159305 399.904591 
L 242.766402 398.881837 
L 241.396649 397.76841 
L 240.315298 396.50756 
L 239.256525 395.156003 
L 238.417216 393.893 
L 237.527669 392.540151 
L 236.689656 391.385947 
L 235.89958 390.177465 
L 234.936965 388.770488 
L 234.145834 387.525576 
L 233.548715 386.297174 
L 233.248927 385.57396 
L 232.923109 384.742306 
L 232.205415 383.514803 
L 231.463516 382.324055 
L 230.57626 381.116081 
L 229.789827 380.197351 
L 228.488938 378.829397 
L 227.458629 377.785753 
L 226.159466 376.544869 
L 224.884604 375.285356 
L 223.828207 374.096876 
L 223.107675 372.706303 
L 222.413799 371.478765 
L 221.722372 370.432142 
L 220.881264 369.042468 
L 220.383901 368.049037 
L 219.886438 367.019245 
L 219.511375 366.133786 
L 219.035336 364.904487 
L 218.437523 363.603686 
L 217.791199 362.339322 
L 217.148329 361.292625 
L 216.186838 359.976289 
L 215.27761 358.931786 
L 214.412812 357.596746 
L 213.844781 356.730853 
L 213.125336 355.39452 
L 212.553748 354.274563 
L 211.934074 353.155393 
L 211.119083 351.910594 
L 210.205619 350.557788 
L 209.245944 349.368487 
L 208.140238 348.125885 
L 207.033903 346.810845 
L 206.072924 345.512711 
L 205.355973 344.394048 
L 204.687533 343.238914 
L 204.313609 342.425893 
L 203.642334 341.089167 
L 203.070735 339.969211 
L 202.644494 338.848317 
L 202.243133 337.763427 
L 202.013411 336.876675 
L 201.538557 335.756249 
L 201.388341 335.376445 
L 201.105723 334.127582 
L 200.001732 332.993816 
L 199.355285 331.693415 
L 199.050189 330.607698 
L 198.525945 329.378833 
L 197.97754 328.186047 
L 197.603513 327.354828 
L 197.054531 326.126002 
L 196.383148 324.7714 
L 196.084489 324.120984 
L 195.734866 323.325804 
L 195.259425 322.150748 
L 194.910905 321.410128 
L 194.707938 320.722452 
L 194.382567 319.890802 
L 194.005077 318.82411 
L 193.799654 317.936964 
L 193.369794 316.544165 
L 192.894202 315.332712 
L 192.492404 314.266022 
L 192.041117 313.054567 
L 191.350279 312.062903 
L 190.707475 311.052252 
L 190.226679 310.444439 
L 282.824815 205.482911 
L 334.78856 229.873938 
L 374.389983 250.67632 
L 432.481099 278.883546 
L 478.345631 302.636441 
L 547.773321 336.593195 
L 547.357405 406.214807 
L 547.368916 437.17157 
L 546.816934 455.817 
" style="stroke:#ffffff;stroke-linejoin:miter;stroke-width:2;"/>
   </g>
  </g>
 </g>
 <defs>
  <clipPath id="pe47813a575">
   <rect height="543.6" width="558" x="90" y="86.4"/>
  </clipPath>
 </defs>
</svg>
