<?xml version="1.0" encoding="utf-8" standalone="no"?>
<!DOCTYPE svg PUBLIC "-//W3C//DTD SVG 1.1//EN"
  "http://www.w3.org/Graphics/SVG/1.1/DTD/svg11.dtd">
<!-- Created with matplotlib (https://matplotlib.org/) -->
<svg height="720pt" version="1.1" viewBox="0 0 720 720" width="720pt" xmlns="http://www.w3.org/2000/svg" xmlns:xlink="http://www.w3.org/1999/xlink">
 <metadata>
  <rdf:RDF xmlns:cc="http://creativecommons.org/ns#" xmlns:dc="http://purl.org/dc/elements/1.1/" xmlns:rdf="http://www.w3.org/1999/02/22-rdf-syntax-ns#">
   <cc:Work>
    <dc:type rdf:resource="http://purl.org/dc/dcmitype/StillImage"/>
    <dc:date>2021-05-07T11:03:04.326833</dc:date>
    <dc:format>image/svg+xml</dc:format>
    <dc:creator>
     <cc:Agent>
      <dc:title>Matplotlib v3.3.3, https://matplotlib.org/</dc:title>
     </cc:Agent>
    </dc:creator>
   </cc:Work>
  </rdf:RDF>
 </metadata>
 <defs>
  <style type="text/css">*{stroke-linecap:butt;stroke-linejoin:round;}</style>
 </defs>
 <g id="figure_1">
  <g id="patch_1">
   <path d="M 0 720 
L 720 720 
L 720 0 
L 0 0 
z
" style="fill:none;"/>
  </g>
  <g id="axes_1">
   <g id="patch_2">
    <path clip-path="url(#pa631c8788f)" d="M 590.612554 461.648102 
L 590.532165 550.676057 
L 462.593288 550.665421 
L 388.092685 550.604532 
L 376.635628 550.185949 
L 368.037265 548.943837 
L 360.03863 546.568769 
L 352.628493 543.88493 
L 346.042352 540.686444 
L 326.902656 531.015981 
L 300.056356 517.782533 
L 291.351898 514.789087 
L 282.999599 512.82637 
L 273.592879 511.863642 
L 266.637859 511.781565 
L 260.484957 512.246634 
L 253.707419 513.336147 
L 245.85944 515.049793 
L 197.929659 526.361989 
L 183.165913 478.668615 
L 168.673038 431.903866 
L 158.004913 397.865529 
L 154.570493 385.149156 
L 151.435385 372.432892 
L 149.49762 359.848343 
L 148.157916 348.312729 
L 147.473882 335.077388 
L 147.354729 292.015179 
L 147.144289 165.800817 
L 590.855711 165.723943 
L 590.736786 276.348682 
L 590.558047 359.475105 
L 590.612554 461.648102 
" style="stroke:#ffffff;stroke-linejoin:miter;stroke-width:2;"/>
   </g>
  </g>
 </g>
 <defs>
  <clipPath id="pa631c8788f">
   <rect height="543.6" width="558" x="90" y="86.4"/>
  </clipPath>
 </defs>
</svg>
