<?xml version="1.0" encoding="utf-8" standalone="no"?>
<!DOCTYPE svg PUBLIC "-//W3C//DTD SVG 1.1//EN"
  "http://www.w3.org/Graphics/SVG/1.1/DTD/svg11.dtd">
<!-- Created with matplotlib (https://matplotlib.org/) -->
<svg height="720pt" version="1.1" viewBox="0 0 720 720" width="720pt" xmlns="http://www.w3.org/2000/svg" xmlns:xlink="http://www.w3.org/1999/xlink">
 <metadata>
  <rdf:RDF xmlns:cc="http://creativecommons.org/ns#" xmlns:dc="http://purl.org/dc/elements/1.1/" xmlns:rdf="http://www.w3.org/1999/02/22-rdf-syntax-ns#">
   <cc:Work>
    <dc:type rdf:resource="http://purl.org/dc/dcmitype/StillImage"/>
    <dc:date>2021-05-28T08:56:48.298874</dc:date>
    <dc:format>image/svg+xml</dc:format>
    <dc:creator>
     <cc:Agent>
      <dc:title>Matplotlib v3.3.3, https://matplotlib.org/</dc:title>
     </cc:Agent>
    </dc:creator>
   </cc:Work>
  </rdf:RDF>
 </metadata>
 <defs>
  <style type="text/css">*{stroke-linecap:butt;stroke-linejoin:round;}</style>
 </defs>
 <g id="figure_1">
  <g id="patch_1">
   <path d="M 0 720 
L 720 720 
L 720 0 
L 0 0 
z
" style="fill:none;"/>
  </g>
  <g id="axes_1">
   <g id="patch_2">
    <path clip-path="url(#p1b8f212033)" d="M 590.566828 473.106726 
L 590.584631 492.009234 
L 590.597872 506.047263 
L 576.574222 506.071529 
L 562.103833 506.096773 
L 548.753394 506.120262 
L 543.60167 506.12937 
L 535.107106 506.144416 
L 521.232307 506.169162 
L 506.55746 506.19555 
L 495.908181 507.081975 
L 478.844022 506.245922 
L 449.721482 506.298976 
L 423.789044 506.346632 
L 402.829933 506.385632 
L 396.12423 506.398198 
L 382.783808 506.423321 
L 368.887112 506.449665 
L 355.938988 506.474367 
L 313.326159 506.114145 
L 308.995652 506.122621 
L 262.11151 506.215392 
L 250.750614 506.238217 
L 215.20218 506.310368 
L 167.080026 506.620126 
L 147.261791 503.779428 
L 147.764707 475.036134 
L 174.276505 475.421983 
L 187.936732 474.163227 
L 219.246718 474.057401 
L 240.812292 473.953694 
L 262.075682 473.880929 
L 308.960594 473.764398 
L 309.163502 455.005764 
L 308.919642 435.984781 
L 309.421279 417.405371 
L 308.878365 398.307863 
L 309.172168 379.559403 
L 308.837004 360.630914 
L 309.386603 341.854318 
L 308.795556 322.901631 
L 308.749339 304.313055 
L 308.753858 284.921408 
L 308.803569 266.542887 
L 308.712519 247.296007 
L 308.933116 228.868341 
L 308.671354 209.80568 
L 351.885067 209.721462 
L 355.621248 209.71426 
L 402.51926 209.65589 
L 403.788419 209.653527 
L 411.849033 209.638421 
L 423.989154 209.615768 
L 435.611445 209.594271 
L 449.664269 209.568381 
L 456.530503 209.555824 
L 496.818835 209.482735 
L 499.009556 209.478766 
L 522.987975 209.435961 
L 544.812355 209.397511 
L 567.183301 209.358557 
L 590.738209 209.318025 
L 590.736595 228.201761 
L 590.734972 246.932234 
L 590.733336 265.878626 
L 590.731718 284.557757 
L 590.730107 303.559292 
L 590.729465 310.939171 
L 590.62603 322.538281 
L 590.664958 333.881187 
L 590.618675 341.249434 
L 590.611277 360.144424 
L 590.600861 386.695995 
L 590.596535 397.790685 
L 590.581822 435.467708 
L 590.574301 454.319427 
L 590.566828 473.106726 
" style="fill:#1a1a1a;stroke:#ffffff;stroke-linejoin:miter;stroke-width:4;"/>
   </g>
  </g>
 </g>
 <defs>
  <clipPath id="p1b8f212033">
   <rect height="543.6" width="558" x="90" y="86.4"/>
  </clipPath>
 </defs>
</svg>
