<?xml version="1.0" encoding="utf-8" standalone="no"?>
<!DOCTYPE svg PUBLIC "-//W3C//DTD SVG 1.1//EN"
  "http://www.w3.org/Graphics/SVG/1.1/DTD/svg11.dtd">
<!-- Created with matplotlib (https://matplotlib.org/) -->
<svg height="720pt" version="1.1" viewBox="0 0 720 720" width="720pt" xmlns="http://www.w3.org/2000/svg" xmlns:xlink="http://www.w3.org/1999/xlink">
 <metadata>
  <rdf:RDF xmlns:cc="http://creativecommons.org/ns#" xmlns:dc="http://purl.org/dc/elements/1.1/" xmlns:rdf="http://www.w3.org/1999/02/22-rdf-syntax-ns#">
   <cc:Work>
    <dc:type rdf:resource="http://purl.org/dc/dcmitype/StillImage"/>
    <dc:date>2021-05-07T11:03:00.958920</dc:date>
    <dc:format>image/svg+xml</dc:format>
    <dc:creator>
     <cc:Agent>
      <dc:title>Matplotlib v3.3.3, https://matplotlib.org/</dc:title>
     </cc:Agent>
    </dc:creator>
   </cc:Work>
  </rdf:RDF>
 </metadata>
 <defs>
  <style type="text/css">*{stroke-linecap:butt;stroke-linejoin:round;}</style>
 </defs>
 <g id="figure_1">
  <g id="patch_1">
   <path d="M 0 720 
L 720 720 
L 720 0 
L 0 0 
z
" style="fill:none;"/>
  </g>
  <g id="axes_1">
   <g id="patch_2">
    <path clip-path="url(#p21483ea24e)" d="M 476.705576 569.998172 
L 475.844542 573.075376 
L 474.716985 576.957277 
L 473.933165 579.492091 
L 473.54448 579.468113 
L 472.99397 579.296525 
L 472.308251 579.057017 
L 471.446369 578.900384 
L 470.798018 578.811174 
L 470.037236 578.69147 
L 469.276086 578.546668 
L 468.559543 578.414048 
L 467.854917 578.300189 
L 467.072527 578.205743 
L 466.368521 578.123301 
L 465.597317 578.028838 
L 464.792797 577.934552 
L 463.933113 577.865826 
L 463.143333 577.909622 
L 462.340174 577.871838 
L 461.503199 577.82187 
L 460.710125 577.740067 
L 459.895488 577.683634 
L 459.248267 577.64461 
L 459.002773 577.627698 
L 458.133004 577.603006 
L 457.57533 577.575954 
L 456.939032 577.524315 
L 456.403258 577.490799 
L 455.555567 577.447155 
L 454.952301 577.382716 
L 454.115868 577.357724 
L 453.291933 577.370435 
L 452.477359 577.326479 
L 451.606739 577.264094 
L 450.748712 577.258179 
L 450.04682 577.251022 
L 449.265551 577.200597 
L 448.42877 577.15051 
L 448.205122 577.120952 
L 447.513934 577.101168 
L 446.678823 577.120192 
L 445.90984 577.113517 
L 445.128767 577.063093 
L 444.312544 576.997037 
L 443.766883 576.960573 
L 442.986683 576.947735 
L 442.651902 576.931464 
L 441.804219 576.894132 
L 441.168455 576.861401 
L 440.443688 576.841797 
L 439.763151 576.803205 
L 439.116211 576.776811 
L 438.325328 576.776603 
L 437.567256 576.763607 
L 436.854516 576.775389 
L 436.297375 576.767135 
L 435.528338 576.754294 
L 434.803342 576.728511 
L 434.078816 576.709032 
L 433.565695 576.687862 
L 432.72948 576.662866 
L 432.004703 576.637096 
L 431.145582 576.593605 
L 430.554591 576.566739 
L 429.942091 576.584047 
L 429.085133 576.615726 
L 428.261776 576.659837 
L 427.515163 576.653009 
L 426.835137 576.633225 
L 426.099994 576.638866 
L 425.240305 576.570156 
L 424.423204 576.419528 
L 423.809033 576.367727 
L 422.949933 576.324252 
L 422.171317 576.36791 
L 421.870965 576.389049 
L 421.292021 576.40607 
L 420.64448 576.348266 
L 420.029478 576.258881 
L 419.304426 576.226798 
L 418.502957 576.258143 
L 417.63558 576.315066 
L 417.190488 576.343738 
L 416.566191 576.32336 
L 415.80814 576.310372 
L 415.317925 576.307962 
L 414.592873 576.27588 
L 413.745494 576.251047 
L 413.043632 576.250208 
L 412.36448 576.268002 
L 411.652003 576.292404 
L 410.917363 576.310672 
L 410.359465 576.283511 
L 409.767969 576.244164 
L 409.187353 576.192201 
L 408.361786 576.148417 
L 408.016344 576.144769 
L 407.458983 576.136536 
L 406.812316 576.116445 
L 406.220797 576.077099 
L 405.492398 575.906935 
L 404.667906 575.47369 
L 404.211228 575.044043 
L 403.921136 574.594229 
L 404.009277 574.12265 
L 404.871645 573.864817 
L 405.550821 573.846897 
L 406.163618 573.848498 
L 407.022186 573.873186 
L 407.69267 573.95591 
L 408.485723 574.031411 
L 409.255595 574.08195 
L 409.857196 574.077264 
L 410.693109 574.089627 
L 411.306496 574.116327 
L 412.099275 574.185512 
L 412.926451 574.285785 
L 413.731519 574.398853 
L 414.178034 574.43311 
L 414.657602 574.454455 
L 415.315205 574.468225 
L 415.850448 574.482938 
L 416.418754 574.491031 
L 417.210986 574.535256 
L 417.92539 574.586137 
L 418.783989 574.617135 
L 419.474361 574.605631 
L 420.331026 574.555032 
L 421.155216 574.548625 
L 421.935125 574.542539 
L 422.747027 574.492385 
L 423.568716 574.379283 
L 424.222221 574.236042 
L 424.927272 573.922961 
L 424.605812 573.554908 
L 423.84719 573.516832 
L 423.057123 573.548157 
L 422.21139 573.592308 
L 421.378724 573.699246 
L 420.72359 573.785864 
L 420.166785 573.796531 
L 419.354325 573.827894 
L 418.619779 573.86494 
L 417.996562 573.888699 
L 417.238729 573.875723 
L 416.559048 573.880905 
L 415.956595 573.848004 
L 415.388288 573.839786 
L 414.775217 573.832002 
L 414.184791 573.830238 
L 413.538099 573.810157 
L 412.679247 573.772843 
L 411.975775 573.715517 
L 411.440772 573.700805 
L 410.570429 573.651036 
L 409.889612 573.606148 
L 409.309834 573.585452 
L 408.506438 573.541521 
L 407.63663 573.510533 
L 406.833431 573.466602 
L 406.175323 573.440224 
L 405.327655 573.402908 
L 404.625255 573.383156 
L 403.768043 573.408664 
L 402.990813 573.508842 
L 402.492178 573.61326 
L 401.729231 573.845226 
L 401.028799 574.327816 
L 401.229629 574.778271 
L 402.05548 575.26171 
L 402.522557 575.666228 
L 402.211839 576.145839 
L 401.421524 576.170743 
L 400.709352 576.207635 
L 399.917943 576.194956 
L 399.33843 576.186873 
L 398.580347 576.167723 
L 397.755907 576.167833 
L 397.176679 576.172238 
L 396.552929 576.177087 
L 395.739959 576.189668 
L 394.904881 576.215019 
L 394.169737 576.220671 
L 393.30072 576.214935 
L 392.654369 576.213641 
L 391.874671 576.213433 
L 391.239232 576.205816 
L 390.481126 576.186532 
L 389.735049 576.198646 
L 388.966547 576.20459 
L 388.230582 576.178854 
L 387.718279 576.189085 
L 386.859397 576.145613 
L 385.998629 576.039212 
L 385.250876 575.982204 
L 384.577138 575.780305 
L 384.321728 575.380374 
L 384.108911 574.904842 
L 383.919002 574.447941 
L 383.641472 574.054476 
L 382.8121 573.866312 
L 382.04365 573.878564 
L 381.337207 574.135172 
L 381.182726 574.626149 
L 381.472013 575.044557 
L 381.704737 575.425843 
L 381.48115 575.829399 
L 380.67425 576.080598 
L 380.007369 576.142274 
L 379.174998 576.261716 
L 378.486601 576.361262 
L 377.69929 576.499189 
L 376.96579 576.567653 
L 376.09741 576.599621 
L 375.328086 576.574179 
L 374.503109 576.555384 
L 374.269346 576.563561 
L 373.569973 576.656821 
L 372.861356 576.831946 
L 372.129249 576.956924 
L 371.383689 576.987812 
L 370.592872 577.000254 
L 369.813152 576.999931 
L 369.22308 577.023403 
L 368.465764 577.029348 
L 367.75331 577.053642 
L 367.007213 577.065764 
L 366.304026 577.020928 
L 365.579246 576.99517 
L 364.744904 576.612402 
L 364.4545 576.14997 
L 364.209408 575.712451 
L 363.953699 575.299924 
L 363.105931 574.829396 
L 362.358778 574.8038 
L 361.958793 575.277755 
L 362.136962 575.70971 
L 362.337753 576.147674 
L 362.561803 576.629367 
L 362.180899 576.977674 
L 361.400171 576.952393 
L 360.597543 576.933455 
L 359.795991 576.952361 
L 359.171989 576.950929 
L 358.391513 576.931831 
L 357.644307 576.899943 
L 356.981245 577.06178 
L 356.264715 577.023918 
L 355.440021 577.021587 
L 354.672245 577.081845 
L 353.937804 577.1418 
L 353.123408 577.095573 
L 352.344413 577.149545 
L 351.654496 577.209303 
L 351.008081 577.199875 
L 350.227911 577.197347 
L 349.358662 577.188922 
L 348.521192 577.092649 
L 347.907444 577.039029 
L 347.205001 577.011026 
L 346.356027 576.895992 
L 345.528718 576.730466 
L 344.670754 576.740929 
L 343.961016 576.286263 
L 343.675783 575.892334 
L 343.434084 575.435524 
L 343.103085 574.972682 
L 342.762176 574.585399 
L 342.064894 574.205885 
L 341.349099 574.058843 
L 340.699748 574.532479 
L 340.79485 574.889758 
L 341.158769 575.314712 
L 341.478516 575.764838 
L 341.641786 576.197052 
L 341.035367 576.576539 
L 340.323936 576.674047 
L 339.554699 576.665199 
L 338.69536 576.581467 
L 337.83867 576.667226 
L 337.00489 576.771617 
L 336.236928 576.838065 
L 335.379469 576.861018 
L 334.633559 576.908525 
L 333.790255 577.119633 
L 333.278937 577.191091 
L 332.489143 577.276505 
L 331.723282 577.449651 
L 331.024701 577.65384 
L 330.247017 577.789297 
L 329.443167 577.705339 
L 328.573655 577.684437 
L 327.828571 577.763336 
L 327.117177 577.867154 
L 326.379549 577.738947 
L 325.688359 577.723433 
L 325.08813 577.820512 
L 324.329946 577.786553 
L 323.647101 577.60781 
L 323.293652 577.132645 
L 323.040753 576.675856 
L 322.909884 576.193268 
L 322.914432 575.810476 
L 322.85202 575.415556 
L 322.724596 575.127446 
L 322.103887 574.67239 
L 321.495607 574.286304 
L 320.768488 574.11419 
L 320.030602 573.97968 
L 319.30312 574.441214 
L 319.777261 574.802922 
L 320.363742 575.214143 
L 320.894262 575.619524 
L 321.279707 576.006604 
L 321.665405 576.400113 
L 321.638806 576.801859 
L 321.388734 577.166903 
L 320.542242 577.189845 
L 319.92792 577.111259 
L 319.23478 576.97655 
L 318.43118 576.898902 
L 317.739636 576.858292 
L 316.890336 576.724343 
L 316.108535 576.621436 
L 315.407974 576.700142 
L 315.008394 576.78996 
L 314.420275 576.937095 
L 313.67494 577.009708 
L 312.908544 577.163945 
L 312.231381 577.311602 
L 311.431583 577.453544 
L 310.696862 577.501029 
L 309.940022 577.554856 
L 309.149558 577.596253 
L 308.602416 577.52992 
L 307.741862 577.383506 
L 307.104108 577.22968 
L 306.354617 577.057609 
L 305.670455 576.797397 
L 304.905335 576.368184 
L 304.165496 576.114496 
L 303.359621 575.898754 
L 302.539429 575.507358 
L 302.098583 575.139292 
L 301.757649 574.752016 
L 301.58352 574.344923 
L 300.861957 573.859012 
L 300.118472 574.032008 
L 299.914888 574.516151 
L 300.3682 574.959491 
L 300.843597 575.390183 
L 301.107025 575.802935 
L 300.580022 576.263642 
L 299.735803 576.424569 
L 299.079834 576.51558 
L 298.28937 576.556982 
L 297.563914 576.491573 
L 296.771497 576.413803 
L 295.992286 576.467798 
L 295.201149 576.46531 
L 294.408479 576.381347 
L 293.64106 576.466603 
L 292.906912 576.539191 
L 292.060774 576.587255 
L 291.192197 576.622734 
L 290.601523 576.619412 
L 289.765863 576.617139 
L 288.89636 576.602546 
L 288.151701 576.719046 
L 287.468172 576.496549 
L 286.631374 576.364074 
L 285.89302 576.26568 
L 285.112073 576.200507 
L 284.418384 576.046894 
L 283.591094 575.887823 
L 282.829735 575.671889 
L 282.144988 575.386587 
L 281.31218 574.894938 
L 280.937929 574.513905 
L 280.216385 574.034319 
L 279.532141 573.761505 
L 278.889922 574.003079 
L 279.118846 574.359632 
L 279.717569 574.839934 
L 280.000178 575.064474 
L 280.319428 575.495798 
L 280.226535 575.923004 
L 279.367541 575.864383 
L 278.754528 575.867285 
L 278.24254 575.894865 
L 277.472592 575.835858 
L 276.625172 575.808622 
L 275.877596 575.749565 
L 275.040652 575.671991 
L 274.305256 575.67561 
L 273.579831 575.616392 
L 272.74427 575.632906 
L 272.133013 575.717532 
L 271.396723 575.677126 
L 270.571319 575.624645 
L 269.85772 575.602995 
L 269.043569 575.563094 
L 268.251536 575.516727 
L 267.449819 575.545684 
L 266.824912 575.498537 
L 265.998612 575.402155 
L 265.238586 575.267827 
L 264.498376 574.989056 
L 263.677128 574.528675 
L 263.457523 574.071713 
L 263.249069 573.608426 
L 262.397404 573.323912 
L 261.720671 573.509171 
L 261.594233 573.936448 
L 261.824096 574.343195 
L 261.849002 574.487439 
L 261.712053 574.958613 
L 260.973075 575.395213 
L 260.360958 575.442147 
L 259.638031 575.52091 
L 258.836738 575.587568 
L 258.077974 575.528536 
L 257.364628 575.513195 
L 256.608077 575.57953 
L 255.849347 575.526817 
L 255.059562 575.61225 
L 254.258167 575.659993 
L 253.533704 575.657295 
L 252.822962 575.798725 
L 251.998842 575.821533 
L 251.373291 575.736805 
L 250.582542 575.765738 
L 249.847078 575.756743 
L 249.232678 575.66558 
L 248.43071 575.688352 
L 247.684805 575.735878 
L 246.92565 575.645447 
L 246.168814 575.699311 
L 245.311493 575.747402 
L 244.529645 575.638341 
L 243.749727 575.64216 
L 243.036127 575.620519 
L 242.266463 575.574012 
L 241.652705 575.520547 
L 240.781557 575.405584 
L 239.956862 575.4033 
L 239.147822 575.658293 
L 238.959324 575.721921 
L 238.244403 575.618682 
L 237.591873 575.251739 
L 236.819921 575.067245 
L 236.082984 574.989267 
L 235.223308 574.886774 
L 234.486302 574.796198 
L 233.705163 574.737227 
L 232.924866 574.715977 
L 232.300311 574.69395 
L 231.464627 574.691824 
L 230.651094 574.689425 
L 229.926019 574.655333 
L 229.234411 574.608572 
L 228.442374 574.562246 
L 227.671651 574.446756 
L 227.011504 574.293117 
L 226.30649 574.1209 
L 225.625225 574.036413 
L 224.787963 573.946385 
L 223.919031 573.956944 
L 223.11582 573.916932 
L 222.288454 573.751592 
L 221.451893 573.705469 
L 220.715494 573.646301 
L 220.000615 573.555705 
L 219.286023 573.477583 
L 218.527218 573.412273 
L 217.736111 573.416146 
L 216.888629 573.382643 
L 216.152242 573.329795 
L 215.338695 573.321208 
L 214.491536 573.306622 
L 213.667173 573.329471 
L 212.920267 573.31434 
L 212.26137 573.229694 
L 211.680889 573.169776 
L 210.934236 573.160951 
L 210.185729 573.057917 
L 209.468509 572.816724 
L 208.689245 572.864471 
L 207.941946 572.817938 
L 207.269582 572.60152 
L 206.436245 572.743699 
L 205.632282 572.647315 
L 204.826473 572.45043 
L 204.033119 572.328807 
L 203.475386 572.293938 
L 202.639444 572.285408 
L 201.881317 572.264118 
L 201.04405 572.174101 
L 200.273445 572.077427 
L 199.535462 571.930486 
L 198.999109 571.838955 
L 198.160929 571.698755 
L 197.34549 571.589908 
L 196.520109 571.54364 
L 195.739841 571.528709 
L 195.126467 571.506674 
L 194.311315 571.410192 
L 193.564695 571.407567 
L 192.863868 571.480023 
L 192.084892 571.540375 
L 191.239009 571.594675 
L 190.472292 571.730303 
L 189.761469 571.859279 
L 189.084433 572.025672 
L 188.328834 572.14867 
L 187.640509 572.296401 
L 186.841102 572.469685 
L 186.096401 572.580053 
L 185.285128 572.709468 
L 184.574722 572.86985 
L 183.854079 573.086753 
L 183.201554 573.36611 
L 182.4928 573.626761 
L 181.760257 573.793488 
L 181.10554 573.95365 
L 180.306749 574.15834 
L 179.541979 574.40685 
L 178.866102 574.623429 
L 178.12367 574.865608 
L 177.458704 575.075862 
L 176.705087 575.318048 
L 176.006924 575.55372 
L 175.331375 575.789216 
L 174.689141 576.02453 
L 173.903586 576.360875 
L 173.063157 576.728956 
L 172.387692 576.983246 
L 171.723089 577.218736 
L 171.014901 577.504613 
L 170.173572 577.828681 
L 169.719544 577.987874 
L 169.00179 578.367869 
L 168.206606 578.785946 
L 167.37812 579.210399 
L 166.538994 579.653776 
L 165.885581 579.889113 
L 165.031847 580.150533 
L 164.366245 580.32333 
L 163.711827 580.495985 
L 163.046259 580.674854 
L 162.337719 580.935635 
L 161.684367 581.177278 
L 161.031295 581.437838 
L 160.268091 581.767843 
L 159.483095 582.123097 
L 158.785849 582.402652 
L 158.109966 582.619238 
L 157.344497 582.817573 
L 156.700725 582.971295 
L 156.036481 583.22557 
L 155.183567 583.518397 
L 154.407886 583.773242 
L 153.732112 584.008746 
L 153.056557 584.244262 
L 152.181007 584.52463 
L 151.405908 584.804573 
L 150.552731 585.084915 
L 149.854553 585.314154 
L 149.157569 585.600019 
L 148.459984 585.860674 
L 147.762155 586.10883 
L 146.974519 586.307196 
L 146.29744 586.461239 
L 145.576223 586.652935 
L 144.768187 586.964467 
L 143.916638 587.338898 
L 143.240766 587.555489 
L 142.542594 587.784854 
L 141.700623 588.071362 
L 141.045338 588.200134 
L 140.29868 588.191211 
L 139.58442 588.132046 
L 138.881946 588.097823 
L 138.149791 588.289665 
L 137.461868 588.468817 
L 136.728739 588.604158 
L 136.086807 588.739769 
L 139.244008 583.930473 
L 145.173714 575.956985 
L 149.411972 571.028257 
L 153.847655 566.320365 
L 161.699541 558.703486 
L 169.752501 551.943347 
L 181.22603 543.020737 
L 218.140049 514.53486 
L 230.737949 504.725877 
L 235.981625 500.458705 
L 240.141635 496.591077 
L 244.179572 492.552862 
L 248.395266 487.762751 
L 252.485753 482.22128 
L 255.612344 477.706363 
L 258.100433 473.107287 
L 260.309206 468.737846 
L 261.572452 465.5555 
L 262.508696 463.196986 
L 264.673523 455.995393 
L 266.226278 448.492691 
L 266.829401 442.159297 
L 266.627893 434.345231 
L 265.633603 427.251098 
L 263.926916 421.011478 
L 261.311717 414.004476 
L 257.4281 405.92984 
L 252.39476 398.290123 
L 247.754286 392.309302 
L 240.929473 384.817015 
L 229.254581 374.068161 
L 219.541916 365.246107 
L 211.437405 357.936534 
L 204.295934 351.202544 
L 197.794767 344.539615 
L 191.806098 337.984042 
L 185.426291 330.166482 
L 180.181456 323.136848 
L 173.875809 314.112784 
L 169.590875 306.911103 
L 167.036298 302.051239 
L 162.121484 291.692585 
L 158.645585 281.632966 
L 155.92924 271.518463 
L 154.263824 262.472933 
L 153.062584 251.499103 
L 152.872743 242.750391 
L 153.404269 232.338077 
L 154.534056 223.475348 
L 156.063131 215.719501 
L 160.071672 197.708657 
L 163.093253 188.861067 
L 166.119192 180.782354 
L 170.851278 172.700639 
L 175.243318 164.811767 
L 179.982025 157.883408 
L 187.779088 148.643021 
L 195.582735 140.555985 
L 207.449326 127.660231 
L 208.773203 128.15768 
L 209.226167 128.327881 
L 271.562719 151.286407 
L 462.940432 221.793264 
L 493.330895 232.992758 
L 601.913193 273.501568 
L 601.909874 273.527352 
L 556.438511 311.562684 
L 529.25186 334.188172 
L 493.58206 364.259258 
L 485.317504 372.590441 
L 480.603558 378.883595 
L 476.91743 384.399103 
L 473.370915 390.302395 
L 469.21112 399.960439 
L 461.783206 421.42386 
L 457.24712 434.203011 
L 456.313061 437.832022 
L 455.851871 440.788516 
L 455.495896 443.869294 
L 455.382393 445.013566 
L 455.246476 445.900977 
L 455.056942 447.29543 
L 454.813432 449.117709 
L 454.678868 450.27444 
L 454.516388 451.462893 
L 454.378815 452.97541 
L 454.195208 455.186732 
L 454.112692 456.440101 
L 454.083019 459.347653 
L 454.09001 460.726197 
L 454.140805 461.979338 
L 454.237663 463.558252 
L 454.473178 466.189661 
L 454.658537 467.693236 
L 455.027847 470.424686 
L 455.25758 471.734473 
L 455.531779 473.237904 
L 456.076275 475.467779 
L 456.620767 477.697655 
L 457.117746 479.326045 
L 457.618911 480.979997 
L 458.516678 483.584778 
L 459.057218 485.037656 
L 459.553058 486.440483 
L 459.756672 487.056899 
L 460.984435 490.486236 
L 461.85302 492.457111 
L 462.872369 494.118671 
L 464.005663 496.330708 
L 464.460672 497.226895 
L 465.033635 498.262332 
L 466.250378 500.961952 
L 473.272622 512.183507 
L 474.477477 514.540537 
L 474.984311 515.483935 
L 475.407245 516.380263 
L 475.886255 517.339433 
L 476.197045 518.12578 
L 476.706505 519.588493 
L 477.243385 520.956726 
L 477.785049 522.291187 
L 477.795702 523.298736 
L 477.799334 524.020222 
L 477.945037 524.741468 
L 478.148893 525.719157 
L 478.353723 526.889238 
L 478.473108 528.027385 
L 478.447523 528.588584 
L 478.336412 529.101825 
L 478.111497 529.583166 
L 477.894021 529.999905 
L 478.482208 530.517535 
L 478.903846 530.970326 
L 479.645346 532.487265 
L 480.177971 534.162253 
L 480.35892 535.404071 
L 480.934119 538.597123 
L 481.19091 541.021768 
L 481.30317 542.500279 
L 481.343276 543.525437 
L 481.20666 544.156559 
L 481.154242 545.154529 
L 481.432 546.335015 
L 481.571415 547.024966 
L 481.686517 547.907906 
L 481.471524 548.788866 
L 481.068331 549.694387 
L 480.929532 550.474621 
L 480.977144 553.191364 
L 481.193353 554.966008 
L 480.726795 556.842057 
L 479.892861 559.898678 
L 479.265639 561.846671 
L 478.325063 564.813592 
L 477.541346 567.301001 
L 476.705576 569.998172 
" style="stroke:#ffffff;stroke-linejoin:miter;stroke-width:2;"/>
   </g>
  </g>
 </g>
 <defs>
  <clipPath id="p21483ea24e">
   <rect height="543.6" width="558" x="90" y="86.4"/>
  </clipPath>
 </defs>
</svg>
