<?xml version="1.0" encoding="utf-8" standalone="no"?>
<!DOCTYPE svg PUBLIC "-//W3C//DTD SVG 1.1//EN"
  "http://www.w3.org/Graphics/SVG/1.1/DTD/svg11.dtd">
<!-- Created with matplotlib (https://matplotlib.org/) -->
<svg height="720pt" version="1.1" viewBox="0 0 720 720" width="720pt" xmlns="http://www.w3.org/2000/svg" xmlns:xlink="http://www.w3.org/1999/xlink">
 <metadata>
  <rdf:RDF xmlns:cc="http://creativecommons.org/ns#" xmlns:dc="http://purl.org/dc/elements/1.1/" xmlns:rdf="http://www.w3.org/1999/02/22-rdf-syntax-ns#">
   <cc:Work>
    <dc:type rdf:resource="http://purl.org/dc/dcmitype/StillImage"/>
    <dc:date>2021-05-28T08:56:53.360478</dc:date>
    <dc:format>image/svg+xml</dc:format>
    <dc:creator>
     <cc:Agent>
      <dc:title>Matplotlib v3.3.3, https://matplotlib.org/</dc:title>
     </cc:Agent>
    </dc:creator>
   </cc:Work>
  </rdf:RDF>
 </metadata>
 <defs>
  <style type="text/css">*{stroke-linecap:butt;stroke-linejoin:round;}</style>
 </defs>
 <g id="figure_1">
  <g id="patch_1">
   <path d="M 0 720 
L 720 720 
L 720 0 
L 0 0 
z
" style="fill:none;"/>
  </g>
  <g id="axes_1">
   <g id="patch_2">
    <path clip-path="url(#p1ba97afce6)" d="M 382.700167 208.807733 
L 385.0991 209.162854 
L 387.743989 208.813284 
L 397.331491 208.808326 
L 424.438147 208.795071 
L 463.530836 208.773486 
L 502.371528 208.753695 
L 541.740493 208.735601 
L 564.535323 208.726116 
L 576.76723 208.721307 
L 598.857075 208.700075 
L 600.41395 208.501127 
L 568.614516 334.923675 
L 544.68543 434.541369 
L 542.485456 445.229375 
L 541.109884 454.795193 
L 540.487386 463.749347 
L 540.513496 507.2944 
L 510.737796 507.240059 
L 493.44518 507.825441 
L 485.257747 507.732965 
L 464.149646 507.868792 
L 454.154449 507.898873 
L 441.862706 507.757055 
L 424.861941 507.731597 
L 417.560908 507.704506 
L 395.929627 507.718032 
L 391.193602 507.732439 
L 387.778108 507.606838 
L 385.256705 506.887246 
L 382.938175 505.508956 
L 379.805398 502.618052 
L 377.314384 507.273478 
L 373.78793 507.283668 
L 359.324985 507.20597 
L 357.050168 507.193911 
L 335.431655 507.182662 
L 318.907986 507.174911 
L 304.443261 507.170505 
L 296.176941 507.167952 
L 293.42233 507.167364 
L 285.637599 507.165108 
L 276.684491 507.163002 
L 269.79672 507.161009 
L 262.90895 507.159447 
L 256.021405 507.157951 
L 247.068071 507.155847 
L 237.425916 507.153761 
L 234.671079 507.153398 
L 224.387062 507.151414 
L 214.573469 507.149795 
L 210.386569 507.149642 
L 201.22475 507.137479 
L 201.193149 507.012008 
L 200.823101 505.693699 
L 200.567534 504.281855 
L 200.289892 503.223542 
L 200.001095 502.351086 
L 199.619482 501.014141 
L 199.100393 499.84542 
L 198.55847 498.695407 
L 197.706392 497.398539 
L 196.900167 496.10125 
L 196.669532 495.65607 
L 195.840532 494.396112 
L 194.95426 493.303849 
L 194.091314 492.304512 
L 193.27503 491.732437 
L 192.459504 491.55113 
L 191.700949 491.108829 
L 190.907329 490.332509 
L 190.009416 489.128717 
L 189.340761 487.737485 
L 188.488447 486.440628 
L 187.613538 485.180811 
L 186.921858 483.827315 
L 186.11559 482.49268 
L 185.412397 481.15787 
L 184.893512 480.00782 
L 184.305421 478.764977 
L 183.912536 477.484045 
L 183.59996 476.276857 
L 183.13849 475.14535 
L 182.458299 473.754148 
L 181.996572 472.585321 
L 181.58097 471.41607 
L 181.039043 470.284694 
L 180.301177 468.838365 
L 179.64404 467.484439 
L 178.849024 466.07555 
L 178.157563 464.759017 
L 177.465854 463.386834 
L 177.038363 462.050399 
L 176.634318 460.955366 
L 176.046178 459.694235 
L 175.401001 458.581775 
L 174.629066 457.247118 
L 174.040677 455.930338 
L 173.406642 454.650682 
L 172.864698 453.481991 
L 172.264925 452.090669 
L 171.561666 450.699855 
L 170.904591 449.438873 
L 170.408411 448.158529 
L 169.854308 446.767114 
L 169.11695 445.413694 
L 168.390883 444.078948 
L 167.883291 442.947181 
L 167.123208 441.724104 
L 166.259983 440.70614 
L 165.397102 439.837093 
L 164.522516 438.74488 
L 163.670176 437.466348 
L 163.242932 436.204196 
L 163.138631 435.777057 
L 162.918031 434.58798 
L 162.065637 433.272531 
L 161.569498 432.029515 
L 162.129103 430.650041 
L 163.010867 429.6596 
L 162.136012 428.493115 
L 161.261118 427.307605 
L 160.489565 426.196118 
L 159.70638 424.954839 
L 158.911451 423.694486 
L 158.173812 422.322821 
L 157.677698 421.116762 
L 157.204372 419.892031 
L 156.731316 418.723244 
L 156.143098 417.368829 
L 155.715949 416.236938 
L 155.13903 414.882463 
L 154.413227 413.622043 
L 153.572703 412.473754 
L 152.892536 411.194579 
L 152.224127 409.896683 
L 151.727638 408.541712 
L 151.495156 407.20415 
L 151.205894 406.108889 
L 150.445544 404.867169 
L 149.664863 404.815728 
L 148.849987 404.931936 
L 148.206889 404.786575 
L 147.52816 404.176941 
L 146.882202 402.72972 
L 146.627266 401.578443 
L 146.280204 400.278409 
L 145.876195 399.239374 
L 145.103899 397.79319 
L 144.354714 396.421527 
L 143.548409 395.124334 
L 142.799576 393.882598 
L 142.085343 392.696405 
L 141.623526 391.471623 
L 141.39102 390.115404 
L 141.26176 388.739902 
L 140.880467 387.570602 
L 139.994362 386.534058 
L 139.302544 385.124994 
L 139.231057 383.897957 
L 139.273965 382.46578 
L 139.133215 381.108963 
L 138.636663 379.698387 
L 138.266878 378.510403 
L 138.13766 377.19092 
L 138.146359 375.907732 
L 138.236157 374.884481 
L 138.428282 373.488574 
L 138.483878 372.651304 
L 138.481699 371.609991 
L 138.433211 370.34595 
L 138.373641 369.32342 
L 138.255904 367.947895 
L 138.161393 366.758228 
L 138.089535 365.382641 
L 138.030206 364.37877 
L 137.935295 363.003196 
L 137.875016 361.66454 
L 137.906707 360.307028 
L 137.892285 358.968274 
L 137.798052 357.871505 
L 137.657525 356.514725 
L 137.58605 355.306349 
L 137.686712 354.022599 
L 137.878884 352.682674 
L 138.117102 351.268009 
L 138.355449 350.039215 
L 138.571053 348.885111 
L 138.912935 347.656098 
L 139.35778 346.333197 
L 139.745559 345.122015 
L 140.05315 343.96735 
L 140.658667 342.588128 
L 141.115381 341.3768 
L 141.549034 340.184218 
L 141.994207 338.954254 
L 142.53117 337.761051 
L 143.033435 336.419371 
L 143.536046 335.226241 
L 143.969718 334.052321 
L 144.083808 333.716925 
L 144.471547 332.450131 
L 144.973498 330.996857 
L 145.486977 329.543559 
L 146.023765 328.127167 
L 146.469019 326.990508 
L 147.051508 325.629635 
L 147.576772 324.213268 
L 148.033569 323.09488 
L 148.490344 321.976528 
L 149.245006 320.521992 
L 149.747949 319.477782 
L 150.388181 318.24668 
L 150.959361 316.867576 
L 151.381537 315.693648 
L 151.827023 314.556626 
L 152.592968 313.101703 
L 153.130232 311.983148 
L 153.736062 310.715167 
L 154.273019 309.465991 
L 154.83306 308.310069 
L 155.48445 306.893077 
L 156.101637 305.662431 
L 156.925944 304.541812 
L 157.738754 303.458904 
L 158.460599 302.803948 
L 159.343366 302.147887 
L 160.030924 301.604929 
L 160.71882 301.173238 
L 161.601979 300.722076 
L 162.485639 300.642692 
L 163.117118 300.601854 
L 164.012575 300.578428 
L 164.896588 300.629267 
L 165.758065 300.791786 
L 166.332518 300.974627 
L 167.125216 301.304868 
L 167.952413 301.560396 
L 168.733121 301.593161 
L 169.58313 301.830349 
L 170.284987 302.4959 
L 171.10221 303.569945 
L 171.793646 304.774874 
L 172.542518 306.016639 
L 173.302564 307.128089 
L 174.131551 308.220444 
L 174.912959 308.569341 
L 175.717156 308.899567 
L 176.419397 309.769655 
L 177.260399 311.197105 
L 178.031257 311.955126 
L 178.790348 312.694878 
L 179.526581 313.397322 
L 180.273953 313.895248 
L 181.009871 314.486134 
L 181.780413 315.132893 
L 182.068122 315.410044 
L 182.815924 316.168484 
L 183.55187 316.796657 
L 184.253702 317.443597 
L 185.035542 318.090008 
L 185.874598 318.494412 
L 186.713108 318.750305 
L 187.276311 319.007498 
L 188.092328 319.430613 
L 188.977017 319.778983 
L 189.723757 320.053728 
L 190.505061 320.309706 
L 191.229105 320.752077 
L 191.953359 321.175787 
L 192.792165 321.524219 
L 193.400992 321.744003 
L 194.296797 321.887825 
L 194.801644 321.773364 
L 195.640442 322.140826 
L 196.502308 322.526573 
L 197.319093 323.358796 
L 198.054857 323.763828 
L 198.778839 324.131565 
L 199.514057 324.388014 
L 200.169061 324.700644 
L 200.847474 325.180035 
L 201.629262 325.770849 
L 202.31926 326.324895 
L 203.169262 326.543463 
L 203.996057 326.594466 
L 204.788287 326.664603 
L 205.592328 326.808992 
L 206.430766 327.008927 
L 207.15473 327.358378 
L 208.016577 327.725514 
L 208.878501 328.222908 
L 209.671071 328.441637 
L 210.440436 328.493203 
L 211.221081 328.488729 
L 212.09427 328.911828 
L 212.888508 329.855747 
L 213.774918 331.041003 
L 214.441132 331.242028 
L 215.24446 331.051678 
L 215.898437 330.917941 
L 216.690557 330.876532 
L 217.506236 331.169461 
L 218.172427 331.370526 
L 218.953723 331.626572 
L 219.84965 331.937673 
L 220.550463 332.194285 
L 221.308379 332.32016 
L 222.112785 332.650475 
L 222.871076 332.999872 
L 223.606562 333.348987 
L 224.342351 333.828322 
L 224.871022 334.160291 
L 225.698557 334.620819 
L 226.58352 335.080867 
L 227.422538 335.485357 
L 228.169705 336.038985 
L 228.894262 336.611684 
L 229.687888 337.332395 
L 229.886055 338.782086 
L 229.210406 339.566732 
L 228.349668 339.720226 
L 227.500037 339.650545 
L 226.661607 339.450549 
L 225.868754 339.120206 
L 224.972591 338.790072 
L 224.145448 338.571798 
L 223.295413 338.241573 
L 222.433242 337.706842 
L 221.789461 337.282903 
L 221.031887 337.305613 
L 220.183036 337.663625 
L 220.277648 339.02055 
L 221.117006 339.573618 
L 221.886849 339.959946 
L 222.726271 340.568998 
L 223.461754 340.918478 
L 224.197314 341.397813 
L 224.944315 341.765933 
L 225.840873 342.318892 
L 226.542333 342.835655 
L 227.266345 343.259401 
L 228.048038 343.775639 
L 228.782768 343.734688 
L 229.528374 343.432873 
L 230.227124 342.741081 
L 230.982836 341.732681 
L 231.806923 340.612587 
L 232.631245 339.473796 
L 233.100385 338.80149 
L 233.958983 337.588394 
L 234.737928 336.840099 
L 235.391113 336.259997 
L 236.273906 335.623129 
L 237.14522 335.078854 
L 237.890139 334.461252 
L 238.692493 333.880491 
L 239.311736 333.54235 
L 240.13785 333.295965 
L 240.906303 333.012778 
L 241.674686 332.636619 
L 242.442971 332.130607 
L 243.17669 331.642923 
L 243.921344 330.969347 
L 244.770584 330.81626 
L 245.550903 330.681604 
L 246.307705 330.231198 
L 247.006804 329.688008 
L 247.763903 329.330538 
L 248.462948 328.71344 
L 249.149839 327.835452 
L 249.974535 326.901212 
L 250.799583 326.134219 
L 251.544158 325.349055 
L 252.254134 324.508345 
L 253.05509 323.25843 
L 253.902245 322.100629 
L 254.600253 320.999798 
L 254.806393 320.719854 
L 255.607657 319.543851 
L 256.374037 318.293605 
L 256.842061 316.989429 
L 257.700051 315.534108 
L 258.455493 314.433204 
L 259.325682 313.238007 
L 260.069942 312.322999 
L 260.768996 311.705511 
L 261.594069 310.95719 
L 262.281695 310.469982 
L 262.958288 310.03841 
L 263.715453 309.755635 
L 264.518204 309.379104 
L 265.12596 309.078292 
L 265.905815 308.609237 
L 266.604965 308.08469 
L 267.349567 307.318239 
L 268.071089 306.514842 
L 268.816001 305.859952 
L 269.641102 305.111641 
L 270.328567 304.401285 
L 271.107526 303.634735 
L 271.909526 302.849151 
L 272.516539 302.120622 
L 273.329703 301.149513 
L 274.062512 300.29012 
L 274.864068 299.207073 
L 275.654222 298.291589 
L 275.92933 298.048509 
L 276.696735 297.207346 
L 277.53199 295.84543 
L 278.265015 294.967417 
L 279.009305 294.070686 
L 279.902684 293.061743 
L 280.624171 292.165424 
L 281.472019 291.323781 
L 282.365746 290.445096 
L 283.064226 289.641796 
L 283.843074 288.707682 
L 284.518674 287.830152 
L 285.412136 286.895454 
L 286.122481 286.240685 
L 286.867702 285.678784 
L 287.566517 284.987047 
L 288.299514 284.09075 
L 289.078127 283.137982 
L 289.937171 282.110457 
L 290.761264 280.916155 
L 291.470939 279.926604 
L 292.111843 278.8819 
L 292.855779 277.761993 
L 293.668362 276.58601 
L 294.492094 275.168521 
L 295.040713 273.994106 
L 295.462911 272.745658 
L 295.908118 271.404596 
L 296.033513 271.031883 
L 296.834182 269.59578 
L 297.670142 268.512693 
L 298.483026 267.429615 
L 299.227255 266.421346 
L 300.005822 265.357397 
L 300.635298 264.405658 
L 301.436325 263.174092 
L 302.122864 262.054669 
L 302.946946 260.822694 
L 303.760153 259.832959 
L 304.481762 259.103911 
L 305.203277 258.244607 
L 305.981517 257.031713 
L 306.702268 255.707369 
L 307.262391 254.514281 
L 307.798843 253.061092 
L 308.278766 251.886817 
L 308.758454 250.73124 
L 309.353544 249.723959 
L 310.005498 248.585949 
L 310.68035 247.262062 
L 311.251815 246.087616 
L 311.846174 244.689607 
L 312.3252 243.236896 
L 312.816296 241.876732 
L 313.249783 240.553997 
L 313.557856 239.585277 
L 313.751114 238.654496 
L 313.94337 237.24038 
L 314.032612 235.900696 
L 314.144444 234.542675 
L 314.268645 233.444777 
L 314.495253 231.993275 
L 314.584181 230.560656 
L 314.651022 229.500553 
L 314.763787 228.495613 
L 314.899637 227.565306 
L 315.080673 226.262404 
L 315.261696 224.941208 
L 315.465535 223.601345 
L 315.61191 222.187279 
L 315.689644 220.903634 
L 315.767672 219.713254 
L 315.822348 218.392296 
L 315.900416 217.257567 
L 315.955682 216.160165 
L 315.998871 214.895576 
L 316.076606 213.611931 
L 316.074063 212.273152 
L 316.105622 210.896988 
L 316.160285 209.557736 
L 316.176712 209.172206 
L 333.218267 209.195946 
L 347.31671 209.16882 
L 350.099806 209.010363 
L 357.85329 208.957392 
L 378.733497 208.698016 
L 382.700167 208.807733 
" style="fill:#1a1a1a;stroke:#ffffff;stroke-linejoin:miter;stroke-width:4;"/>
   </g>
  </g>
 </g>
 <defs>
  <clipPath id="p1ba97afce6">
   <rect height="543.6" width="558" x="90" y="86.4"/>
  </clipPath>
 </defs>
</svg>
