<?xml version="1.0" encoding="utf-8" standalone="no"?>
<!DOCTYPE svg PUBLIC "-//W3C//DTD SVG 1.1//EN"
  "http://www.w3.org/Graphics/SVG/1.1/DTD/svg11.dtd">
<!-- Created with matplotlib (https://matplotlib.org/) -->
<svg height="720pt" version="1.1" viewBox="0 0 720 720" width="720pt" xmlns="http://www.w3.org/2000/svg" xmlns:xlink="http://www.w3.org/1999/xlink">
 <metadata>
  <rdf:RDF xmlns:cc="http://creativecommons.org/ns#" xmlns:dc="http://purl.org/dc/elements/1.1/" xmlns:rdf="http://www.w3.org/1999/02/22-rdf-syntax-ns#">
   <cc:Work>
    <dc:type rdf:resource="http://purl.org/dc/dcmitype/StillImage"/>
    <dc:date>2021-05-07T11:02:59.657744</dc:date>
    <dc:format>image/svg+xml</dc:format>
    <dc:creator>
     <cc:Agent>
      <dc:title>Matplotlib v3.3.3, https://matplotlib.org/</dc:title>
     </cc:Agent>
    </dc:creator>
   </cc:Work>
  </rdf:RDF>
 </metadata>
 <defs>
  <style type="text/css">*{stroke-linecap:butt;stroke-linejoin:round;}</style>
 </defs>
 <g id="figure_1">
  <g id="patch_1">
   <path d="M 0 720 
L 720 720 
L 720 0 
L 0 0 
z
" style="fill:none;"/>
  </g>
  <g id="axes_1">
   <g id="patch_2">
    <path clip-path="url(#p14b23294e7)" d="M 133.639639 165.830957 
L 231.483688 166.270414 
L 260.929897 165.793948 
L 281.144328 166.112603 
L 378.108701 165.997563 
L 418.73132 165.988988 
L 433.591212 165.946991 
L 459.455805 166.077609 
L 554.657084 165.819282 
L 604.181763 165.905845 
L 603.927549 287.881654 
L 604.145389 379.579965 
L 604.360361 439.121208 
L 604.179515 454.875027 
L 604.180115 520.537993 
L 604.189865 550.606052 
L 496.804805 550.328771 
L 496.804017 542.990604 
L 496.87407 519.637309 
L 496.907809 498.267852 
L 496.788811 468.209217 
L 496.868989 456.001662 
L 496.776505 450.624811 
L 494.819159 448.13009 
L 494.807285 424.877813 
L 498.853529 424.901271 
L 498.842989 405.684886 
L 502.012741 405.705625 
L 502.000586 390.480403 
L 501.988637 375.255658 
L 501.976234 359.64812 
L 496.84757 357.143315 
L 496.825913 338.318989 
L 475.702627 338.322205 
L 459.437042 338.182904 
L 455.790082 338.179313 
L 437.7906 338.088102 
L 416.771685 337.9953 
L 399.077419 338.005235 
L 385.247541 337.961365 
L 370.014018 337.918087 
L 359.369186 337.830687 
L 356.899285 337.772995 
L 355.982582 337.510349 
L 355.167652 336.955569 
L 354.338919 335.946031 
L 353.749114 334.592479 
L 353.604583 333.227448 
L 353.594674 330.783889 
L 353.632101 313.544406 
L 353.596269 296.10615 
L 353.486899 290.852751 
L 353.160153 287.681951 
L 304.364726 287.067858 
L 304.530742 316.595452 
L 304.463197 331.544146 
L 304.463699 333.446965 
L 304.031437 335.019003 
L 303.466588 336.167966 
L 302.91688 336.719369 
L 302.29294 337.184936 
L 301.38813 337.507428 
L 301.145988 339.756323 
L 301.118717 354.250695 
L 286.317586 354.206679 
L 282.775539 354.197753 
L 265.03441 354.145793 
L 249.954682 354.143215 
L 232.735498 354.150348 
L 232.182817 351.734855 
L 228.475935 339.521668 
L 222.881327 323.591773 
L 215.469553 306.297118 
L 205.29469 284.759239 
L 133.639639 165.830957 
" style="stroke:#ffffff;stroke-linejoin:miter;stroke-width:2;"/>
   </g>
  </g>
 </g>
 <defs>
  <clipPath id="p14b23294e7">
   <rect height="543.6" width="558" x="90" y="86.4"/>
  </clipPath>
 </defs>
</svg>
