<?xml version="1.0" encoding="utf-8" standalone="no"?>
<!DOCTYPE svg PUBLIC "-//W3C//DTD SVG 1.1//EN"
  "http://www.w3.org/Graphics/SVG/1.1/DTD/svg11.dtd">
<!-- Created with matplotlib (https://matplotlib.org/) -->
<svg height="720pt" version="1.1" viewBox="0 0 720 720" width="720pt" xmlns="http://www.w3.org/2000/svg" xmlns:xlink="http://www.w3.org/1999/xlink">
 <metadata>
  <rdf:RDF xmlns:cc="http://creativecommons.org/ns#" xmlns:dc="http://purl.org/dc/elements/1.1/" xmlns:rdf="http://www.w3.org/1999/02/22-rdf-syntax-ns#">
   <cc:Work>
    <dc:type rdf:resource="http://purl.org/dc/dcmitype/StillImage"/>
    <dc:date>2021-05-28T08:56:52.437210</dc:date>
    <dc:format>image/svg+xml</dc:format>
    <dc:creator>
     <cc:Agent>
      <dc:title>Matplotlib v3.3.3, https://matplotlib.org/</dc:title>
     </cc:Agent>
    </dc:creator>
   </cc:Work>
  </rdf:RDF>
 </metadata>
 <defs>
  <style type="text/css">*{stroke-linecap:butt;stroke-linejoin:round;}</style>
 </defs>
 <g id="figure_1">
  <g id="patch_1">
   <path d="M 0 720 
L 720 720 
L 720 0 
L 0 0 
z
" style="fill:none;"/>
  </g>
  <g id="axes_1">
   <g id="patch_2">
    <path clip-path="url(#p1a244a741a)" d="M 611.257123 224.701022 
L 611.638814 243.642371 
L 611.923624 258.96079 
L 612.433765 283.226199 
L 612.947378 304.790544 
L 613.126868 322.930072 
L 613.743793 343.100692 
L 614.197291 358.771239 
L 614.426794 365.227843 
L 616.976723 522.223194 
L 617.008928 531.553476 
L 616.865677 539.145186 
L 617.298803 547.690975 
L 617.99645 557.792049 
L 618.5765 565.736028 
L 619.875932 573.897539 
L 621.528459 585.205531 
L 623.536296 597.595549 
L 494.620908 597.609692 
L 493.652785 597.609958 
L 400.16802 597.905025 
L 378.614257 598.044342 
L 367.863992 597.72502 
L 362.652818 596.878381 
L 358.157187 595.779033 
L 353.457539 594.173323 
L 349.064569 592.399057 
L 344.36563 589.780865 
L 340.177684 587.078591 
L 333.232584 581.421705 
L 328.942565 578.381931 
L 324.310191 575.753521 
L 320.207038 573.864498 
L 316.010291 572.36056 
L 311.440262 571.049012 
L 307.374943 570.207842 
L 305.594754 569.839504 
L 294.357551 567.631792 
L 287.388807 566.505887 
L 280.136226 565.606599 
L 271.355906 564.553095 
L 261.780716 563.761821 
L 253.278074 563.364754 
L 247.493346 563.212001 
L 165.841175 563.912353 
L 165.605113 512.849921 
L 165.087307 506.046611 
L 164.370809 500.289898 
L 163.133887 494.164783 
L 161.351832 487.458055 
L 159.098639 481.041942 
L 156.324827 474.683856 
L 153.253289 468.790864 
L 149.884078 463.285464 
L 146.712849 458.477878 
L 142.847485 453.592612 
L 138.734109 448.823607 
L 133.678811 443.550466 
L 128.722305 439.052669 
L 124.162139 435.252751 
L 118.114616 430.98738 
L 116.305828 429.794821 
L 116.309438 417.874518 
L 117.54088 405.882921 
L 117.85031 397.775827 
L 117.574907 366.586801 
L 117.592769 287.371741 
L 117.173791 250.548434 
L 115.199168 231.805852 
L 114.504361 217.965343 
L 114.477573 205.734481 
L 114.463704 205.680327 
L 115.480758 206.028561 
L 117.629103 206.661176 
L 119.985574 207.284304 
L 122.125255 207.782265 
L 124.435839 208.248229 
L 126.869888 208.659768 
L 129.590457 209.030664 
L 132.261285 209.348154 
L 134.990382 209.643546 
L 138.116901 209.970509 
L 259.064671 222.345681 
L 260.939557 222.536892 
L 264.691058 222.935024 
L 267.739404 223.270095 
L 271.226304 223.711013 
L 273.508828 224.059088 
L 275.879629 224.452129 
L 277.184061 224.698307 
L 278.298985 224.918675 
L 279.517264 225.169636 
L 280.83385 225.46651 
L 283.510565 226.106661 
L 285.838721 226.698511 
L 288.136514 227.34399 
L 289.479081 227.747136 
L 290.597048 228.087424 
L 292.874563 228.833781 
L 294.063926 229.250197 
L 295.205143 229.655101 
L 296.324626 230.077292 
L 297.379035 230.474576 
L 299.200628 231.200838 
L 300.45828 231.710775 
L 302.554524 232.638313 
L 305.1195 233.787488 
L 305.545732 233.986415 
L 309.839634 235.990355 
L 321.316798 241.365878 
L 329.339126 239.041078 
L 329.75211 238.939598 
L 330.388736 238.750897 
L 330.85503 238.612376 
L 331.41839 238.447378 
L 332.379533 238.175158 
L 332.825279 238.039883 
L 333.737997 237.794922 
L 334.242251 237.658155 
L 334.763832 237.480211 
L 335.311512 237.331009 
L 335.789893 237.176706 
L 336.332815 237.026649 
L 336.921489 236.855827 
L 337.535244 236.677271 
L 338.3717 236.431033 
L 339.577618 236.076298 
L 342.385745 235.251275 
L 345.277028 234.386844 
L 347.348907 233.784385 
L 348.27629 233.508903 
L 349.171055 233.231097 
L 349.840143 232.964769 
L 350.406847 232.696186 
L 350.978096 232.419744 
L 351.673995 232.012955 
L 352.547777 231.40689 
L 352.827048 231.163331 
L 353.631616 230.46175 
L 354.922991 228.962775 
L 355.52503 228.068612 
L 356.216147 227.127959 
L 356.801592 226.231681 
L 357.631895 224.873029 
L 358.474936 223.412594 
L 359.510554 221.696864 
L 360.354738 220.273959 
L 361.302204 218.610479 
L 362.337388 216.881069 
L 363.633582 214.675298 
L 364.679875 212.851958 
L 365.37172 211.789326 
L 366.355743 210.585314 
L 367.577203 209.346119 
L 368.663198 208.500505 
L 369.66681 207.778856 
L 371.106573 206.751893 
L 373.710096 204.941145 
L 375.700225 203.529261 
L 377.663991 202.158649 
L 379.821409 200.649398 
L 381.705183 199.309768 
L 383.576986 197.984701 
L 385.177446 196.86096 
L 387.33365 195.332665 
L 389.435801 193.886717 
L 391.505298 192.382802 
L 393.647597 190.895416 
L 395.159382 189.82641 
L 397.373767 188.374699 
L 404.750704 183.774037 
L 410.961986 179.881831 
L 417.435804 175.801187 
L 419.19535 174.704135 
L 420.726872 173.747901 
L 422.788122 172.456273 
L 424.715801 171.236011 
L 426.589923 170.065315 
L 428.266325 169.029326 
L 430.415307 167.697173 
L 432.222336 166.540333 
L 434.082681 165.364754 
L 436.235431 164.035579 
L 438.425518 162.646203 
L 440.092924 161.611758 
L 441.413097 160.797806 
L 443.040113 159.76181 
L 444.414752 158.93115 
L 445.884428 158.169971 
L 447.342546 157.586717 
L 449.261251 156.97648 
L 451.057631 156.45322 
L 452.787375 155.926081 
L 454.847639 155.311261 
L 456.895588 154.709758 
L 459.164729 153.981243 
L 461.444394 153.289983 
L 463.637286 152.660253 
L 465.361227 152.145013 
L 467.727343 151.41324 
L 470.173128 150.667069 
L 472.065011 150.112615 
L 473.806432 149.564371 
L 475.246431 149.145769 
L 476.770527 148.694097 
L 478.112406 148.291999 
L 479.383307 147.928358 
L 480.545991 147.573443 
L 481.656417 147.229792 
L 482.835383 146.852188 
L 484.037428 146.500476 
L 485.411166 146.065282 
L 486.612256 145.742483 
L 487.683122 145.376597 
L 488.815363 145.066106 
L 489.858891 144.753541 
L 490.306683 144.658966 
L 490.695572 144.611568 
L 491.302885 144.414933 
L 491.998592 144.195582 
L 494.692971 143.376322 
L 495.869334 143.07296 
L 497.060374 142.703642 
L 498.249639 142.281743 
L 499.527063 141.818447 
L 501.037396 141.358581 
L 502.450159 140.949129 
L 503.614165 140.604604 
L 504.897039 140.284586 
L 506.038851 140.06598 
L 507.049482 139.936325 
L 508.153733 139.867739 
L 509.748236 139.861486 
L 513.070521 139.859825 
L 515.182535 139.843544 
L 515.302823 139.842581 
L 517.601063 139.824638 
L 519.826954 139.819277 
L 521.721838 139.812713 
L 523.460545 139.807471 
L 525.025219 139.792792 
L 526.856705 139.779011 
L 528.202507 139.773086 
L 529.551759 139.69391 
L 530.980448 139.506869 
L 532.43119 139.224577 
L 533.817489 138.845617 
L 535.201735 138.33566 
L 536.548905 137.770233 
L 537.763647 137.152697 
L 539.663445 136.138705 
L 541.763979 135.033906 
L 543.98489 133.861708 
L 545.95443 132.803355 
L 547.995043 131.730615 
L 549.894652 130.705829 
L 552.656185 129.26654 
L 554.520595 128.272764 
L 555.961786 127.468626 
L 557.735688 126.525345 
L 559.200184 125.768154 
L 560.745184 124.971875 
L 562.097013 124.245241 
L 563.421867 123.553146 
L 564.816225 122.806931 
L 566.062485 122.11018 
L 567.367831 121.428141 
L 568.597324 120.766438 
L 569.692688 120.228816 
L 570.82144 119.735559 
L 572.230877 119.210171 
L 573.720515 118.807328 
L 575.145639 118.559276 
L 576.498868 118.416013 
L 577.700944 118.355658 
L 579.041177 118.394149 
L 580.447341 118.54214 
L 581.783741 118.76832 
L 583.080022 119.031718 
L 584.443771 119.298432 
L 586.003066 119.635984 
L 587.635111 119.930127 
L 589.121744 120.254601 
L 590.760387 120.562451 
L 592.519477 120.918861 
L 594.698913 121.356181 
L 594.925807 121.401288 
L 596.980375 121.809779 
L 599.246876 122.255231 
L 601.329009 122.675825 
L 603.860825 123.195448 
L 605.594275 123.530715 
L 608.141856 124.063678 
L 612.725661 124.952885 
L 615.705761 125.556373 
L 614.994443 137.493656 
L 613.958425 152.782942 
L 612.581707 169.692027 
L 611.648237 184.358522 
L 610.960081 192.712505 
L 611.173965 210.52802 
L 611.257123 224.701022 
" style="fill:#1a1a1a;stroke:#ffffff;stroke-linejoin:miter;stroke-width:4;"/>
   </g>
  </g>
 </g>
 <defs>
  <clipPath id="p1a244a741a">
   <rect height="543.6" width="558" x="90" y="86.4"/>
  </clipPath>
 </defs>
</svg>
