<?xml version="1.0" encoding="utf-8" standalone="no"?>
<!DOCTYPE svg PUBLIC "-//W3C//DTD SVG 1.1//EN"
  "http://www.w3.org/Graphics/SVG/1.1/DTD/svg11.dtd">
<!-- Created with matplotlib (https://matplotlib.org/) -->
<svg height="720pt" version="1.1" viewBox="0 0 720 720" width="720pt" xmlns="http://www.w3.org/2000/svg" xmlns:xlink="http://www.w3.org/1999/xlink">
 <metadata>
  <rdf:RDF xmlns:cc="http://creativecommons.org/ns#" xmlns:dc="http://purl.org/dc/elements/1.1/" xmlns:rdf="http://www.w3.org/1999/02/22-rdf-syntax-ns#">
   <cc:Work>
    <dc:type rdf:resource="http://purl.org/dc/dcmitype/StillImage"/>
    <dc:date>2021-05-28T08:56:44.828276</dc:date>
    <dc:format>image/svg+xml</dc:format>
    <dc:creator>
     <cc:Agent>
      <dc:title>Matplotlib v3.3.3, https://matplotlib.org/</dc:title>
     </cc:Agent>
    </dc:creator>
   </cc:Work>
  </rdf:RDF>
 </metadata>
 <defs>
  <style type="text/css">*{stroke-linecap:butt;stroke-linejoin:round;}</style>
 </defs>
 <g id="figure_1">
  <g id="patch_1">
   <path d="M 0 720 
L 720 720 
L 720 0 
L 0 0 
z
" style="fill:none;"/>
  </g>
  <g id="axes_1">
   <g id="patch_2">
    <path clip-path="url(#pa7d47abbc8)" d="M 379.791534 165.32443 
L 394.222023 165.684744 
L 461.595454 165.308823 
L 466.064254 165.308028 
L 552.3937 165.293486 
L 552.924632 357.793719 
L 465.576439 357.771643 
L 466.116514 548.724168 
L 331.48353 548.727856 
L 327.326679 551.105853 
L 299.676573 551.106514 
L 294.719885 548.729681 
L 188.802746 548.729218 
L 188.752573 536.544601 
L 188.807281 517.770724 
L 188.901649 468.835969 
L 189.035132 430.769005 
L 188.762972 414.453158 
L 186.418181 386.478411 
L 185.510873 371.59673 
L 185.075368 351.585879 
L 185.610789 343.051229 
L 188.15992 319.800758 
L 189.14014 303.712485 
L 188.90267 287.23286 
L 187.534935 268.399944 
L 187.525785 265.406287 
L 186.567944 181.651643 
L 187.391036 165.366679 
L 278.817883 165.345792 
L 301.198999 165.340866 
L 323.825511 165.335995 
L 346.100322 165.331308 
L 368.671515 165.326686 
L 379.791534 165.32443 
" style="fill:#1a1a1a;stroke:#ffffff;stroke-linejoin:miter;stroke-width:4;"/>
   </g>
  </g>
 </g>
 <defs>
  <clipPath id="pa7d47abbc8">
   <rect height="543.6" width="558" x="90" y="86.4"/>
  </clipPath>
 </defs>
</svg>
