<?xml version="1.0" encoding="utf-8" standalone="no"?>
<!DOCTYPE svg PUBLIC "-//W3C//DTD SVG 1.1//EN"
  "http://www.w3.org/Graphics/SVG/1.1/DTD/svg11.dtd">
<!-- Created with matplotlib (https://matplotlib.org/) -->
<svg height="720pt" version="1.1" viewBox="0 0 720 720" width="720pt" xmlns="http://www.w3.org/2000/svg" xmlns:xlink="http://www.w3.org/1999/xlink">
 <metadata>
  <rdf:RDF xmlns:cc="http://creativecommons.org/ns#" xmlns:dc="http://purl.org/dc/elements/1.1/" xmlns:rdf="http://www.w3.org/1999/02/22-rdf-syntax-ns#">
   <cc:Work>
    <dc:type rdf:resource="http://purl.org/dc/dcmitype/StillImage"/>
    <dc:date>2021-05-28T08:56:45.765484</dc:date>
    <dc:format>image/svg+xml</dc:format>
    <dc:creator>
     <cc:Agent>
      <dc:title>Matplotlib v3.3.3, https://matplotlib.org/</dc:title>
     </cc:Agent>
    </dc:creator>
   </cc:Work>
  </rdf:RDF>
 </metadata>
 <defs>
  <style type="text/css">*{stroke-linecap:butt;stroke-linejoin:round;}</style>
 </defs>
 <g id="figure_1">
  <g id="patch_1">
   <path d="M 0 720 
L 720 720 
L 720 0 
L 0 0 
z
" style="fill:none;"/>
  </g>
  <g id="axes_1">
   <g id="patch_2">
    <path clip-path="url(#p3dc6a21626)" d="M 604.956067 159.528286 
L 605.23779 162.570138 
L 607.07257 166.020042 
L 608.802674 166.388792 
L 616.472816 178.150858 
L 617.997751 180.490864 
L 576.759908 243.906348 
L 559.511224 270.425497 
L 432.098614 466.446487 
L 388.985898 532.797357 
L 377.862976 531.78614 
L 352.498102 530.173095 
L 338.024417 529.78407 
L 316.161755 529.748712 
L 299.66778 529.834545 
L 279.06029 530.026973 
L 256.963944 531.638324 
L 243.176364 533.017889 
L 223.233159 537.114748 
L 212.468044 539.728434 
L 203.308158 545.2086 
L 192.512942 556.88323 
L 199.141108 530.744212 
L 182.406364 526.544496 
L 173.589864 526.406157 
L 126.918576 526.412179 
L 127.013935 525.691991 
L 127.027997 525.112903 
L 126.969335 524.333356 
L 126.939786 523.776605 
L 126.787233 523.186605 
L 126.576515 522.485293 
L 126.300664 521.795195 
L 126.010283 521.060601 
L 125.792289 520.292466 
L 125.704697 519.423752 
L 125.450502 518.677997 
L 125.210706 517.832087 
L 125.072373 516.963583 
L 124.926783 516.206407 
L 124.694249 515.438276 
L 124.461866 514.748168 
L 124.258413 514.035681 
L 124.069516 513.356517 
L 123.902395 512.655195 
L 123.793323 512.187662 
L 123.625917 511.363644 
L 123.494866 510.628813 
L 123.327606 509.838317 
L 123.281839 509.570741 
L 123.203839 509.114659 
L 123.065655 508.457808 
L 122.891141 507.67851 
L 122.75994 506.887809 
L 122.759277 506.052573 
L 122.678815 505.239707 
L 122.547758 504.471573 
L 122.431092 503.658738 
L 122.33639 502.968354 
L 122.328328 502.121968 
L 122.313133 501.342388 
L 122.276137 500.484836 
L 122.239292 499.716436 
L 122.195186 499.137363 
L 122.172726 498.268611 
L 122.164979 497.689529 
L 122.17145 496.92114 
L 122.178227 496.342054 
L 122.220891 495.484262 
L 122.241896 494.682346 
L 122.24838 493.902782 
L 122.233184 493.11205 
L 122.188919 492.265872 
L 122.144795 491.530799 
L 122.165802 490.740057 
L 122.179689 490.016144 
L 122.142706 489.281069 
L 122.127503 488.434685 
L 122.097774 487.566154 
L 122.090192 487.321201 
L 122.067875 486.586123 
L 121.97287 485.750935 
L 121.878013 484.971617 
L 121.84116 484.258891 
L 121.804305 483.53499 
L 121.796396 482.777757 
L 121.810134 481.997973 
L 121.802212 481.251935 
L 121.801586 480.628155 
L 121.786384 479.792945 
L 121.771184 478.96891 
L 121.726917 478.111338 
L 121.682643 477.320614 
L 121.674726 476.496577 
L 121.673923 475.694667 
L 121.680532 474.8818 
L 121.636259 474.10225 
L 121.584875 473.333876 
L 121.598605 472.476289 
L 121.568878 471.641083 
L 121.444926 470.839425 
L 121.422785 470.282476 
L 121.429415 469.658912 
L 121.421495 468.946157 
L 121.326637 468.16662 
L 121.25359 467.554252 
L 121.115248 466.685772 
L 120.984034 465.828464 
L 120.889163 465.071276 
L 120.772634 464.25842 
L 120.670504 463.467712 
L 120.641255 463.21159 
L 120.568198 462.510267 
L 120.502256 461.708353 
L 120.45088 461.017979 
L 120.392224 460.238433 
L 120.340827 459.492408 
L 120.304128 458.902159 
L 120.2382 458.100486 
L 120.201191 457.287412 
L 120.215074 456.530173 
L 120.156584 455.962278 
L 120.039898 455.149445 
L 120.104372 454.313995 
L 120.002249 453.601484 
L 120.066736 452.877337 
L 120.13137 452.186714 
L 120.072713 451.407387 
L 120.079178 450.594301 
L 120.107458 449.848035 
L 120.070598 449.090832 
L 120.048147 448.32245 
L 120.054622 447.598539 
L 120.075777 446.863427 
L 120.140127 446.0615 
L 120.095998 445.315254 
L 120.10988 444.546862 
L 120.130897 443.85625 
L 120.166441 443.054331 
L 120.223515 442.185558 
L 120.229981 441.383647 
L 120.272797 440.604074 
L 120.315469 439.813326 
L 120.351026 439.000233 
L 120.219945 438.220926 
L 120.298826 437.463472 
L 120.493739 436.76142 
L 120.463994 435.904086 
L 120.405487 435.191344 
L 120.36121 434.389446 
L 120.338916 433.754716 
L 120.309175 432.930685 
L 120.337447 432.106398 
L 120.365729 431.371306 
L 120.451884 430.647373 
L 120.465634 429.84546 
L 120.283972 429.132992 
L 120.457052 428.319643 
L 120.427331 427.551263 
L 120.426677 426.805224 
L 120.426018 426.025444 
L 120.302077 425.246113 
L 120.330358 424.499847 
L 120.467403 423.79803 
L 120.466606 423.051991 
L 120.444306 422.361391 
L 120.530609 421.681935 
L 120.515413 420.91353 
L 120.435077 420.156339 
L 120.666197 419.432148 
L 120.709037 418.864008 
L 120.715813 418.273748 
L 120.700482 417.449713 
L 120.677995 416.491809 
L 120.698869 415.656591 
L 120.799551 414.809958 
L 120.885703 414.052503 
L 120.993659 413.250564 
L 121.094351 412.493083 
L 121.2167 411.646445 
L 121.31012 410.866639 
L 121.396421 410.165055 
L 121.518768 409.296068 
L 121.655666 408.5386 
L 121.792711 407.814435 
L 121.98036 407.101431 
L 122.305546 406.243346 
L 122.47153 405.541522 
L 122.608275 404.672531 
L 122.643825 403.904135 
L 122.693922 403.202341 
L 122.729482 402.511944 
L 122.808381 401.754492 
L 122.938159 401.041503 
L 123.082322 400.228163 
L 123.161203 399.426232 
L 123.24023 398.657824 
L 123.304889 398.156505 
L 123.456337 397.46564 
L 123.615043 396.674863 
L 123.773755 395.928345 
L 123.932312 395.070523 
L 124.054676 394.324233 
L 124.19159 393.555592 
L 124.285322 392.987439 
L 124.378742 392.174331 
L 124.515803 391.56147 
L 124.725119 390.815158 
L 124.847475 389.99065 
L 125.006344 389.366828 
L 125.237322 388.56464 
L 125.403152 387.717991 
L 125.561871 387.01617 
L 125.713312 386.236351 
L 125.734328 385.490088 
L 125.712014 384.777358 
L 125.747438 383.997766 
L 125.942357 383.228891 
L 126.130012 382.515911 
L 126.353871 381.769377 
L 126.548791 381.000721 
L 126.700243 380.309857 
L 126.844569 379.630388 
L 126.92346 378.895285 
L 127.038855 378.260301 
L 127.110619 377.52498 
L 127.124385 376.823415 
L 127.188878 376.065967 
L 127.376523 375.241662 
L 127.585839 374.439481 
L 127.751826 373.692962 
L 127.975538 372.879603 
L 128.112592 372.166614 
L 128.2495 371.420322 
L 128.39383 370.751809 
L 128.494535 370.039048 
L 128.552238 369.771512 
L 128.674776 369.136526 
L 128.811681 368.345757 
L 128.956007 367.643722 
L 129.100185 366.886254 
L 129.280575 366.173255 
L 129.475499 365.393426 
L 129.778899 364.591025 
L 129.995638 363.866843 
L 130.190424 363.120318 
L 130.407166 362.418484 
L 130.493636 361.872683 
L 130.579968 361.237707 
L 130.651732 360.457909 
L 130.788649 359.76727 
L 131.084932 359.042849 
L 131.27259 358.285372 
L 131.358899 357.550267 
L 131.387358 357.060131 
L 131.481545 356.556395 
L 131.541192 355.776162 
L 131.608835 355.118186 
L 131.704706 354.348461 
L 131.814958 353.567339 
L 131.924778 352.730347 
L 132.042446 351.971353 
L 132.152554 351.167883 
L 132.241156 350.409335 
L 132.380345 349.60542 
L 132.527239 348.879284 
L 132.702928 348.141529 
L 132.944337 347.44714 
L 133.40925 346.615343 
L 133.788942 346.007685 
L 134.298346 345.308654 
L 134.743169 344.688712 
L 135.247182 344.234856 
L 135.789281 344.036223 
L 136.149752 343.785071 
L 136.465169 343.311959 
L 136.909865 342.681064 
L 137.353115 341.838321 
L 137.651971 341.098567 
L 137.835799 340.460722 
L 138.040428 339.700197 
L 138.25152 338.986055 
L 138.295097 338.838634 
L 138.558036 338.13285 
L 138.878703 337.38148 
L 139.264372 336.606651 
L 139.613978 335.854639 
L 139.94991 335.203176 
L 140.16966 334.531604 
L 141.58483 333.805866 
L 142.096107 333.362752 
L 142.563198 332.820374 
L 143.130344 332.08716 
L 143.569077 331.634182 
L 144.04941 330.902303 
L 144.507501 330.126367 
L 145.009069 329.32722 
L 145.481558 328.539889 
L 145.976147 327.78544 
L 146.426391 326.909379 
L 146.767868 326.035116 
L 147.095672 325.28375 
L 147.359917 324.744728 
L 147.904536 323.889463 
L 148.420507 323.090097 
L 148.625682 322.915759 
L 148.982267 322.612778 
L 149.508394 322.202973 
L 150.013722 321.938195 
L 150.482554 321.640801 
L 150.951659 321.365537 
L 151.367722 320.779577 
L 151.840376 319.992055 
L 152.385578 319.236946 
L 152.910542 318.682297 
L 153.463461 317.960272 
L 154.00268 317.383295 
L 154.261822 317.133907 
L 154.758441 316.668878 
L 155.271619 316.482126 
L 155.799497 316.317063 
L 156.280724 315.707672 
L 156.746547 314.998376 
L 157.11987 314.502063 
L 157.396803 313.706915 
L 159.233666 312.183666 
L 159.741608 312.264004 
L 160.27719 312.154618 
L 160.819022 311.922731 
L 161.25908 311.636747 
L 161.690716 311.206354 
L 162.179507 310.641468 
L 162.552691 310.145138 
L 163.012387 309.5695 
L 163.442728 308.961002 
L 163.830454 308.453299 
L 164.356464 308.032555 
L 164.846699 307.678862 
L 165.292431 307.170274 
L 165.844502 306.359308 
L 166.32401 305.516148 
L 166.804528 304.817813 
L 166.969606 304.603307 
L 167.536796 303.870122 
L 168.039271 303.20465 
L 168.476872 302.573808 
L 168.885406 301.943409 
L 169.445472 301.221182 
L 169.833635 300.780309 
L 170.221367 300.283982 
L 170.708297 299.474128 
L 171.115826 298.71008 
L 171.580931 297.87832 
L 171.894088 297.093692 
L 172.172187 296.465486 
L 172.622767 295.633949 
L 172.980124 294.937612 
L 173.156709 294.300001 
L 173.254196 293.752891 
L 173.364066 292.916127 
L 173.466651 292.079344 
L 173.585662 291.498489 
L 173.704947 290.962111 
L 173.974771 290.178149 
L 174.259568 289.471943 
L 174.536664 288.710086 
L 174.843275 288.025787 
L 175.251818 287.395394 
L 175.725351 286.719396 
L 176.199331 286.121201 
L 176.73918 285.62203 
L 177.193649 285.324884 
L 177.720682 285.037587 
L 178.232296 284.628034 
L 178.636304 284.365054 
L 178.794965 284.27325 
L 179.334671 283.740779 
L 179.823195 283.13117 
L 180.375432 282.34257 
L 180.849272 281.72225 
L 181.365586 280.945268 
L 181.874201 280.123789 
L 182.266629 279.271016 
L 182.666616 278.473653 
L 183.12382 278.543944 
L 183.609949 278.624529 
L 184.079957 278.482949 
L 186.774961 279.338556 
L 187.273531 280.120485 
L 187.815828 279.944062 
L 188.328454 279.679346 
L 188.832101 279.169676 
L 189.256488 278.717202 
L 189.695562 278.308986 
L 190.25795 277.909737 
L 190.712985 277.67921 
L 191.23902 277.258255 
L 191.72057 276.704552 
L 192.260717 276.238921 
L 192.606982 276.010381 
L 193.090686 275.757285 
L 193.544877 275.426632 
L 194.077897 274.961004 
L 194.611062 274.528877 
L 195.137086 274.107969 
L 195.699334 273.686598 
L 196.232787 273.287799 
L 196.737301 272.900593 
L 197.213163 272.558569 
L 197.631419 272.261863 
L 198.186971 271.907321 
L 198.713729 271.586524 
L 199.233503 271.299471 
L 199.680843 271.03565 
L 200.221712 270.648028 
L 200.70456 270.272463 
L 201.251984 269.806622 
L 201.74196 269.408709 
L 202.289815 268.998522 
L 202.758539 268.678831 
L 203.255786 268.280699 
L 203.688314 267.961451 
L 204.128113 267.631247 
L 204.654874 267.310457 
L 205.15981 266.990108 
L 205.678298 266.524933 
L 206.174831 266.026653 
L 206.670934 265.472526 
L 207.11643 264.953022 
L 207.626359 264.298546 
L 207.969923 263.702585 
L 208.327742 263.061904 
L 208.699959 262.432199 
L 209.028266 261.725353 
L 209.371401 261.051612 
L 209.79294 260.220529 
L 210.164156 259.423871 
L 210.658116 258.59149 
L 211.196561 257.880904 
L 211.750277 257.27049 
L 212.251797 256.460218 
L 212.579964 255.731048 
L 212.893305 254.968773 
L 213.242713 254.172338 
L 213.693053 253.307514 
L 214.18075 252.597834 
L 214.696685 251.765236 
L 215.162571 251.044822 
L 215.39565 250.205869 
L 215.608205 249.523137 
L 215.899737 248.750152 
L 216.148217 248.022282 
L 216.475388 247.159442 
L 216.731568 246.498419 
L 217.073282 245.646533 
L 217.372373 244.906633 
L 217.657351 244.222582 
L 217.941758 243.449576 
L 218.041274 243.180733 
L 218.245975 242.420244 
L 218.428591 241.615694 
L 218.494874 240.757232 
L 218.510978 239.977889 
L 218.526795 239.153631 
L 218.55744 238.37385 
L 218.580657 237.57194 
L 218.611874 236.88131 
L 218.621994 236.268704 
L 218.646785 235.6894 
L 218.691543 234.853747 
L 218.85335 234.171896 
L 219.122503 233.310156 
L 219.261782 232.517441 
L 219.307399 231.804046 
L 219.301819 231.036099 
L 219.266884 230.212918 
L 219.218837 229.579062 
L 219.140978 228.823388 
L 219.091643 228.011601 
L 219.035754 227.300185 
L 218.986405 226.488398 
L 218.973711 225.731405 
L 218.916963 224.908686 
L 218.832261 224.219816 
L 218.740732 223.58684 
L 218.606292 223.032502 
L 218.412669 222.31233 
L 218.255686 221.635954 
L 218.119673 220.881138 
L 218.026568 220.014382 
L 217.912782 219.314998 
L 217.821824 218.760022 
L 217.694068 218.138638 
L 217.530114 217.518155 
L 217.437138 216.68468 
L 217.30825 215.885388 
L 217.128022 215.020171 
L 216.933839 214.233152 
L 216.82048 213.578245 
L 216.736792 213.034005 
L 216.666501 212.322808 
L 216.602751 211.522416 
L 216.518061 210.833569 
L 216.454311 210.033176 
L 216.420805 209.410275 
L 216.342513 208.610103 
L 216.249549 207.776869 
L 216.106977 207.100055 
L 215.892968 206.580582 
L 215.489481 205.89719 
L 215.230414 205.155749 
L 214.964519 204.469961 
L 214.677082 203.806982 
L 214.541493 203.08569 
L 214.54404 202.440001 
L 214.581524 201.604326 
L 214.669764 200.779187 
L 214.816458 200.00838 
L 214.883743 199.28381 
L 214.87275 198.771772 
L 214.766102 198.061236 
L 214.382994 197.188322 
L 214.088141 196.502974 
L 213.814399 195.739625 
L 213.598525 194.95285 
L 213.440548 194.142825 
L 213.358418 193.810214 
L 213.107619 193.202228 
L 212.840861 192.394161 
L 212.654787 191.729423 
L 212.525592 190.896609 
L 212.397128 190.164143 
L 212.22475 189.376709 
L 212.04566 188.678426 
L 211.808829 187.992199 
L 211.579141 187.305972 
L 211.414019 186.507143 
L 211.34358 185.784752 
L 211.359808 185.038494 
L 211.397291 184.20306 
L 211.427647 183.389756 
L 211.385432 182.544447 
L 211.373306 181.876849 
L 211.30185 181.020806 
L 211.144442 180.288803 
L 210.942533 179.434962 
L 210.821195 178.691102 
L 210.693001 178.003136 
L 210.667334 177.447039 
L 210.588749 176.602193 
L 210.452294 175.780774 
L 210.38997 175.169488 
L 210.275473 174.381151 
L 210.25679 173.791334 
L 210.222978 173.123934 
L 210.146684 172.590868 
L 209.960476 171.903981 
L 209.69341 171.05124 
L 209.492659 170.364354 
L 209.336236 169.766003 
L 209.243408 168.954878 
L 209.077996 168.145074 
L 208.884514 167.435861 
L 208.660645 166.560332 
L 208.32842 165.719845 
L 208.025868 164.956941 
L 207.795872 164.237193 
L 207.421451 163.575519 
L 206.903179 163.061312 
L 206.592473 162.783695 
L 235.151928 162.794108 
L 236.23443 162.788514 
L 265.110071 162.615344 
L 296.384518 162.432315 
L 302.76895 162.404295 
L 304.848313 162.613426 
L 316.185373 162.271192 
L 323.323253 161.978988 
L 330.13276 161.700068 
L 345.529092 161.791172 
L 357.861201 161.793412 
L 359.22925 161.793683 
L 360.310714 161.768343 
L 378.872916 161.333563 
L 385.04911 161.335064 
L 391.263513 161.336679 
L 397.916424 161.492428 
L 404.632678 161.64978 
L 411.192008 161.651831 
L 417.930367 161.654034 
L 424.913601 161.712293 
L 432.349962 161.767015 
L 436.645748 161.714214 
L 439.543239 161.709576 
L 446.549731 161.653921 
L 454.417659 161.561139 
L 461.269844 161.742129 
L 468.90873 161.788087 
L 475.98994 161.83079 
L 490.889263 161.921022 
L 498.10161 161.964972 
L 504.994094 162.007063 
L 512.441458 162.05267 
L 519.611046 162.096679 
L 526.782858 162.140796 
L 533.942721 162.18497 
L 541.141973 162.189289 
L 548.211854 162.193636 
L 555.380638 162.198149 
L 562.40106 162.202673 
L 569.536353 162.207398 
L 576.590236 162.212196 
L 583.854017 162.217266 
L 590.779385 162.222204 
L 592.368929 159.51677 
L 603.658619 159.526754 
L 604.956067 159.528286 
" style="fill:#1a1a1a;stroke:#ffffff;stroke-linejoin:miter;stroke-width:4;"/>
   </g>
  </g>
 </g>
 <defs>
  <clipPath id="p3dc6a21626">
   <rect height="543.6" width="558" x="90" y="86.4"/>
  </clipPath>
 </defs>
</svg>
